M48
;DRILL file {KiCad 4.0.6-e0-6349~53~ubuntu16.04.1} date Sat May  6 13:45:53 2017
;FORMAT={3:3/ absolute / metric / suppress leading zeros}
FMAT,2
METRIC,TZ
T1C0.800
T2C1.000
T3C1.001
T4C1.016
T5C1.100
T6C3.200
%
G90
G05
M71
T1
X6350Y-46228
X6350Y-38100
X9906Y-54102
X9906Y-46228
X18288Y-19304
X18288Y-3556
X20828Y-15494
X20828Y-5588
X23622Y-59182
X23622Y-56682
X34036Y-24130
X34036Y-10414
X35306Y-56642
X35306Y-51562
X36068Y-26416
X36068Y-3048
X37846Y-59102
X37846Y-54102
X42608Y-59118
X42672Y-56642
X42672Y-51562
X42926Y-46990
X42926Y-43688
X43180Y-33274
X45212Y-68500
X45212Y-63500
X45212Y-45339
X47244Y-50038
X49340Y-54229
X49784Y-69850
X49784Y-62230
X52324Y-69850
X52324Y-62230
X54864Y-69850
X54864Y-62230
X57404Y-69850
X57404Y-62230
X59182Y-33274
X59944Y-69850
X59944Y-62230
X62484Y-45339
X62738Y-59118
X62802Y-54229
X64770Y-50038
X64770Y-46990
X64770Y-43688
X66548Y-59690
X66548Y-57150
X66548Y-54610
X82042Y-22860
X89662Y-22860
T2
X4572Y-65532
X4572Y-62992
X4572Y-57658
X4572Y-55118
X4572Y-52578
X4572Y-50038
X15748Y-45974
X15748Y-43434
X15748Y-40894
X15748Y-38354
X15748Y-35814
X15748Y-33274
X15748Y-30734
X15748Y-28194
X15748Y-25654
X15748Y-23114
X15748Y-20574
X15748Y-18034
X15748Y-15494
X15748Y-12954
X15748Y-10414
X30988Y-45974
X30988Y-43434
X30988Y-40894
X30988Y-38354
X30988Y-35814
X30988Y-33274
X30988Y-30734
X30988Y-28194
X30988Y-25654
X30988Y-23114
X30988Y-20574
X30988Y-18034
X30988Y-15494
X30988Y-12954
X30988Y-10414
X40640Y-30480
X40640Y-27940
X40640Y-25400
X40640Y-22860
X40640Y-20320
X40640Y-17780
X40640Y-15240
X43180Y-30480
X43180Y-27940
X43180Y-25400
X43180Y-22860
X43180Y-20320
X43180Y-17780
X43180Y-15240
X78740Y-30480
X78740Y-27940
X78740Y-25400
X78740Y-22860
X78740Y-20320
X78740Y-17780
X78740Y-15240
X92710Y-66548
X92710Y-64008
X92710Y-61468
X92710Y-56388
X92710Y-53848
X92710Y-48260
X92710Y-45720
X92710Y-40132
X92710Y-37592
X92710Y-32004
X92710Y-29464
X92710Y-22860
X92710Y-20320
X92710Y-15240
X92710Y-12700
T3
X31750Y-59182
X31750Y-56642
X31750Y-54102
T4
X6350Y-31242
X6350Y-28702
X6350Y-26162
X6350Y-23622
X6350Y-21082
X6350Y-18542
X6350Y-16002
X6350Y-13462
X8890Y-31242
X8890Y-28702
X8890Y-26162
X8890Y-23622
X8890Y-21082
X8890Y-18542
X8890Y-16002
X8890Y-13462
X77978Y-56134
X77978Y-51054
X80518Y-56134
X80518Y-51054
X88138Y-56134
X88138Y-51054
T5
X72390Y-57658
X72390Y-50038
T6
X8128Y-70866
X8128Y-4191
X88138Y-70866
X88138Y-4191
T0
M30
