G04 #@! TF.FileFunction,Legend,Bot*
%FSLAX46Y46*%
G04 Gerber Fmt 4.6, Leading zero omitted, Abs format (unit mm)*
G04 Created by KiCad (PCBNEW 4.0.6-e0-6349~53~ubuntu16.04.1) date Mon May  1 16:02:50 2017*
%MOMM*%
%LPD*%
G01*
G04 APERTURE LIST*
%ADD10C,0.100000*%
%ADD11C,0.088900*%
G04 APERTURE END LIST*
D10*
D11*
X83609543Y53623029D02*
X83609543Y53129543D01*
X83638571Y53071486D01*
X83667600Y53042457D01*
X83725657Y53013429D01*
X83841771Y53013429D01*
X83899829Y53042457D01*
X83928857Y53071486D01*
X83957886Y53129543D01*
X83957886Y53623029D01*
X84538458Y53623029D02*
X84248172Y53623029D01*
X84219143Y53332743D01*
X84248172Y53361771D01*
X84306229Y53390800D01*
X84451372Y53390800D01*
X84509429Y53361771D01*
X84538458Y53332743D01*
X84567486Y53274686D01*
X84567486Y53129543D01*
X84538458Y53071486D01*
X84509429Y53042457D01*
X84451372Y53013429D01*
X84306229Y53013429D01*
X84248172Y53042457D01*
X84219143Y53071486D01*
X81011487Y54283429D02*
X80808287Y54573714D01*
X80663144Y54283429D02*
X80663144Y54893029D01*
X80895372Y54893029D01*
X80953430Y54864000D01*
X80982458Y54834971D01*
X81011487Y54776914D01*
X81011487Y54689829D01*
X80982458Y54631771D01*
X80953430Y54602743D01*
X80895372Y54573714D01*
X80663144Y54573714D01*
X81272744Y54602743D02*
X81475944Y54602743D01*
X81563030Y54283429D02*
X81272744Y54283429D01*
X81272744Y54893029D01*
X81563030Y54893029D01*
X82114573Y54283429D02*
X81824287Y54283429D01*
X81824287Y54893029D01*
X82288744Y54457600D02*
X82579030Y54457600D01*
X82230687Y54283429D02*
X82433887Y54893029D01*
X82637087Y54283429D01*
X82956401Y54573714D02*
X82956401Y54283429D01*
X82753201Y54893029D02*
X82956401Y54573714D01*
X83159601Y54893029D01*
X83362801Y54515657D02*
X83827258Y54515657D01*
X84436858Y54864000D02*
X84378801Y54893029D01*
X84291715Y54893029D01*
X84204630Y54864000D01*
X84146572Y54805943D01*
X84117544Y54747886D01*
X84088515Y54631771D01*
X84088515Y54544686D01*
X84117544Y54428571D01*
X84146572Y54370514D01*
X84204630Y54312457D01*
X84291715Y54283429D01*
X84349772Y54283429D01*
X84436858Y54312457D01*
X84465887Y54341486D01*
X84465887Y54544686D01*
X84349772Y54544686D01*
X85017430Y54893029D02*
X84727144Y54893029D01*
X84698115Y54602743D01*
X84727144Y54631771D01*
X84785201Y54660800D01*
X84930344Y54660800D01*
X84988401Y54631771D01*
X85017430Y54602743D01*
X85046458Y54544686D01*
X85046458Y54399543D01*
X85017430Y54341486D01*
X84988401Y54312457D01*
X84930344Y54283429D01*
X84785201Y54283429D01*
X84727144Y54312457D01*
X84698115Y54341486D01*
X85220629Y54893029D02*
X85423829Y54283429D01*
X85627029Y54893029D01*
X85830229Y54515657D02*
X86294686Y54515657D01*
X86904286Y54283429D02*
X86555943Y54283429D01*
X86730115Y54283429D02*
X86730115Y54893029D01*
X86672058Y54805943D01*
X86614000Y54747886D01*
X86555943Y54718857D01*
M02*
