<?xml version="1.0" standalone="no"?>
<!DOCTYPE svg PUBLIC "-//W3C//DTD SVG 1.1//EN"
"http://www.w3.org/Graphics/SVG/1.1/DTD/svg11.dtd">
<svg width="7806.03" height="6166.03" viewBox="0 0 7806.03 6166.03" version="1.1"
xmlns="http://www.w3.org/2000/svg"
xmlns:xlink="http://www.w3.org/1999/xlink">
<circle cx="1568.02" cy="5758.02" r="31.0078" style=""/>
<circle cx="1768.02" cy="5598.02" r="31.0078" style=""/>
<circle cx="1768.02" cy="4818.02" r="31.0078" style=""/>
<circle cx="1568.02" cy="4518.02" r="31.0078" style=""/>
<circle cx="2808.02" cy="4138.02" r="31.0078" style=""/>
<circle cx="2968.02" cy="3958.02" r="31.0078" style=""/>
<circle cx="3528.02" cy="3418.02" r="31.0078" style=""/>
<circle cx="3508.02" cy="2598.02" r="31.0078" style=""/>
<circle cx="3688.02" cy="2468.02" r="31.0078" style=""/>
<circle cx="3508.02" cy="2338.02" r="31.0078" style=""/>
<circle cx="3488.02" cy="1978.02" r="31.0078" style=""/>
<circle cx="3848.02" cy="2098.02" r="31.0078" style=""/>
<circle cx="4013.06" cy="1768.02" r="31.0078" style=""/>
<circle cx="3488.02" cy="1578.02" r="31.0078" style=""/>
<circle cx="3482.98" cy="1383.06" r="31.0078" style=""/>
<circle cx="3108.02" cy="1384.31" r="31.0078" style=""/>
<circle cx="2908.02" cy="1578.02" r="31.0078" style=""/>
<circle cx="3108.02" cy="1778.02" r="31.0078" style=""/>
<circle cx="2908.02" cy="1978.02" r="31.0078" style=""/>
<circle cx="1988.02" cy="1574.87" r="31.0078" style=""/>
<circle cx="1988.02" cy="1378.02" r="31.0078" style=""/>
<circle cx="908.016" cy="1778.02" r="31.0078" style=""/>
<circle cx="908.016" cy="2398.02" r="31.0078" style=""/>
<circle cx="628.016" cy="2398.02" r="31.0078" style=""/>
<circle cx="628.016" cy="3038.02" r="31.0078" style=""/>
<circle cx="2808.02" cy="5218.02" r="31.0078" style=""/>
<circle cx="2968.02" cy="5798.02" r="31.0078" style=""/>
<circle cx="4788.02" cy="3418.02" r="31.0078" style=""/>
<circle cx="5228.02" cy="2598.02" r="31.0078" style=""/>
<circle cx="5048.02" cy="2468.02" r="31.0078" style=""/>
<circle cx="5228.02" cy="2338.02" r="31.0078" style=""/>
<circle cx="5228.02" cy="2098.02" r="31.0078" style=""/>
<circle cx="5073.06" cy="1768.02" r="31.0078" style=""/>
<circle cx="5368.02" cy="1738.02" r="31.0078" style=""/>
<circle cx="5368.02" cy="1538.02" r="31.0078" style=""/>
<circle cx="5368.02" cy="1338.02" r="31.0078" style=""/>
<circle cx="5068.02" cy="1383.06" r="31.0078" style=""/>
<circle cx="4848.02" cy="1138.02" r="31.0078" style=""/>
<circle cx="4648.02" cy="1138.02" r="31.0078" style=""/>
<circle cx="4448.02" cy="1138.02" r="31.0078" style=""/>
<circle cx="4248.02" cy="1138.02" r="31.0078" style=""/>
<circle cx="4048.02" cy="1138.02" r="31.0078" style=""/>
<circle cx="3688.02" cy="1038.02" r="31.0078" style=""/>
<circle cx="3688.02" cy="644.315" r="31.0078" style=""/>
<circle cx="4048.02" cy="538.016" r="31.0078" style=""/>
<circle cx="4248.02" cy="538.016" r="31.0078" style=""/>
<circle cx="4448.02" cy="538.016" r="31.0078" style=""/>
<circle cx="4648.02" cy="538.016" r="31.0078" style=""/>
<circle cx="4848.02" cy="538.016" r="31.0078" style=""/>
<circle cx="6588.02" cy="4238.02" r="31.0078" style=""/>
<circle cx="7188.02" cy="4238.02" r="31.0078" style=""/>
<circle cx="1368.02" cy="5218.02" r="38.7597" style=""/>
<circle cx="1368.02" cy="5018.02" r="38.7597" style=""/>
<circle cx="1368.02" cy="4818.02" r="38.7597" style=""/>
<circle cx="1368.02" cy="4618.02" r="38.7597" style=""/>
<circle cx="1368.02" cy="4418.02" r="38.7597" style=""/>
<circle cx="1368.02" cy="4218.02" r="38.7597" style=""/>
<circle cx="1368.02" cy="4018.02" r="38.7597" style=""/>
<circle cx="1368.02" cy="3818.02" r="38.7597" style=""/>
<circle cx="1368.02" cy="3618.02" r="38.7597" style=""/>
<circle cx="1368.02" cy="3418.02" r="38.7597" style=""/>
<circle cx="1368.02" cy="3218.02" r="38.7597" style=""/>
<circle cx="1368.02" cy="3018.02" r="38.7597" style=""/>
<circle cx="1368.02" cy="2818.02" r="38.7597" style=""/>
<circle cx="1368.02" cy="2618.02" r="38.7597" style=""/>
<circle cx="1368.02" cy="2418.02" r="38.7597" style=""/>
<circle cx="488.016" cy="2098.02" r="38.7597" style=""/>
<circle cx="488.016" cy="1898.02" r="38.7597" style=""/>
<circle cx="488.016" cy="1698.02" r="38.7597" style=""/>
<circle cx="488.016" cy="1498.02" r="38.7597" style=""/>
<circle cx="488.016" cy="1078.02" r="38.7597" style=""/>
<circle cx="488.016" cy="878.016" r="38.7597" style=""/>
<circle cx="2568.02" cy="2418.02" r="38.7597" style=""/>
<circle cx="2568.02" cy="2618.02" r="38.7597" style=""/>
<circle cx="2568.02" cy="2818.02" r="38.7597" style=""/>
<circle cx="2568.02" cy="3018.02" r="38.7597" style=""/>
<circle cx="2568.02" cy="3218.02" r="38.7597" style=""/>
<circle cx="2568.02" cy="3418.02" r="38.7597" style=""/>
<circle cx="2568.02" cy="3618.02" r="38.7597" style=""/>
<circle cx="2568.02" cy="3818.02" r="38.7597" style=""/>
<circle cx="2568.02" cy="4018.02" r="38.7597" style=""/>
<circle cx="2568.02" cy="4218.02" r="38.7597" style=""/>
<circle cx="2568.02" cy="4418.02" r="38.7597" style=""/>
<circle cx="2568.02" cy="4618.02" r="38.7597" style=""/>
<circle cx="2568.02" cy="4818.02" r="38.7597" style=""/>
<circle cx="2568.02" cy="5018.02" r="38.7597" style=""/>
<circle cx="2568.02" cy="5218.02" r="38.7597" style=""/>
<circle cx="3328.02" cy="4838.02" r="38.7597" style=""/>
<circle cx="3528.02" cy="4838.02" r="38.7597" style=""/>
<circle cx="3528.02" cy="4638.02" r="38.7597" style=""/>
<circle cx="3528.02" cy="4438.02" r="38.7597" style=""/>
<circle cx="3528.02" cy="4238.02" r="38.7597" style=""/>
<circle cx="3528.02" cy="4038.02" r="38.7597" style=""/>
<circle cx="3528.02" cy="3838.02" r="38.7597" style=""/>
<circle cx="3528.02" cy="3638.02" r="38.7597" style=""/>
<circle cx="3328.02" cy="3638.02" r="38.7597" style=""/>
<circle cx="3328.02" cy="3838.02" r="38.7597" style=""/>
<circle cx="3328.02" cy="4038.02" r="38.7597" style=""/>
<circle cx="3328.02" cy="4238.02" r="38.7597" style=""/>
<circle cx="3328.02" cy="4438.02" r="38.7597" style=""/>
<circle cx="3328.02" cy="4638.02" r="38.7597" style=""/>
<circle cx="6328.02" cy="4638.02" r="38.7597" style=""/>
<circle cx="6328.02" cy="4838.02" r="38.7597" style=""/>
<circle cx="6328.02" cy="4438.02" r="38.7597" style=""/>
<circle cx="6328.02" cy="4238.02" r="38.7597" style=""/>
<circle cx="6328.02" cy="4038.02" r="38.7597" style=""/>
<circle cx="6328.02" cy="3838.02" r="38.7597" style=""/>
<circle cx="6328.02" cy="3638.02" r="38.7597" style=""/>
<circle cx="7428.02" cy="3718.02" r="38.7597" style=""/>
<circle cx="7428.02" cy="3518.02" r="38.7597" style=""/>
<circle cx="7428.02" cy="3078.02" r="38.7597" style=""/>
<circle cx="7428.02" cy="2878.02" r="38.7597" style=""/>
<circle cx="7428.02" cy="2438.02" r="38.7597" style=""/>
<circle cx="7428.02" cy="2238.02" r="38.7597" style=""/>
<circle cx="7428.02" cy="1798.02" r="38.7597" style=""/>
<circle cx="7428.02" cy="1598.02" r="38.7597" style=""/>
<circle cx="7428.02" cy="1198.02" r="38.7597" style=""/>
<circle cx="7428.02" cy="998.016" r="38.7597" style=""/>
<circle cx="7428.02" cy="798.016" r="38.7597" style=""/>
<circle cx="7428.02" cy="4238.02" r="38.7597" style=""/>
<circle cx="7428.02" cy="4438.02" r="38.7597" style=""/>
<circle cx="7428.02" cy="4838.02" r="38.7597" style=""/>
<circle cx="7428.02" cy="5038.02" r="38.7597" style=""/>
<circle cx="2628.02" cy="1778.02" r="38.7984" style=""/>
<circle cx="2628.02" cy="1578.02" r="38.7984" style=""/>
<circle cx="2628.02" cy="1378.02" r="38.7984" style=""/>
<circle cx="628.016" cy="4978.02" r="39.3798" style=""/>
<circle cx="828.016" cy="4978.02" r="39.3798" style=""/>
<circle cx="828.016" cy="4778.02" r="39.3798" style=""/>
<circle cx="828.016" cy="4578.02" r="39.3798" style=""/>
<circle cx="828.016" cy="4378.02" r="39.3798" style=""/>
<circle cx="828.016" cy="4178.02" r="39.3798" style=""/>
<circle cx="828.016" cy="3978.02" r="39.3798" style=""/>
<circle cx="828.016" cy="3778.02" r="39.3798" style=""/>
<circle cx="828.016" cy="3578.02" r="39.3798" style=""/>
<circle cx="628.016" cy="3578.02" r="39.3798" style=""/>
<circle cx="628.016" cy="3778.02" r="39.3798" style=""/>
<circle cx="628.016" cy="3978.02" r="39.3798" style=""/>
<circle cx="628.016" cy="4178.02" r="39.3798" style=""/>
<circle cx="628.016" cy="4378.02" r="39.3798" style=""/>
<circle cx="628.016" cy="4578.02" r="39.3798" style=""/>
<circle cx="628.016" cy="4778.02" r="39.3798" style=""/>
<circle cx="6268.02" cy="2018.02" r="39.3798" style=""/>
<circle cx="6468.02" cy="2018.02" r="39.3798" style=""/>
<circle cx="6468.02" cy="1618.02" r="39.3798" style=""/>
<circle cx="6268.02" cy="1618.02" r="39.3798" style=""/>
<circle cx="7068.02" cy="1618.02" r="39.3798" style=""/>
<circle cx="7068.02" cy="2018.02" r="39.3798" style=""/>
<circle cx="5828.02" cy="2098.02" r="42.6357" style=""/>
<circle cx="5828.02" cy="1498.02" r="42.6357" style=""/>
<circle cx="768.016" cy="5708.02" r="124.031" style=""/>
<circle cx="768.016" cy="458.016" r="124.031" style=""/>
<circle cx="7068.02" cy="458.016" r="124.031" style=""/>
<circle cx="7068.02" cy="5708.02" r="124.031" style=""/>
</svg>
