<?xml version="1.0" standalone="no"?>
<!DOCTYPE svg PUBLIC "-//W3C//DTD SVG 1.1//EN"
"http://www.w3.org/Graphics/SVG/1.1/DTD/svg11.dtd">
<svg width="7480" height="6000" viewBox="0 0 7480 6000" version="1.1"
xmlns="http://www.w3.org/2000/svg"
xmlns:xlink="http://www.w3.org/1999/xlink">
<g fill-rule="evenodd"><path d="M 29.526,2840 L 29.526,39.528 L 30.286,35.702 L 31.21,33.974 L 32.454,32.458 L 35.698,30.29 L 39.526,29.528 L 7440.47,29.528 L 7444.3,30.29 L 7447.54,32.458 L 7448.79,33.974 L 7449.71,35.702 L 7450.47,39.528 L 7450.47,5960.47 L 7450.25,5962.55 L 7449.61,5964.54 L 7447.9,5967.17 L 7445.47,5969.14 L 7443.56,5969.99 L 7440.47,5970.47 L 39.526,5970.47 L 35.698,5969.71 L 32.454,5967.55 L 31.21,5966.03 L 30.286,5964.3 L 29.526,5960.47 L 29.526,2840M 490.364,5729.62 L 513.094,5784.64 L 555.142,5826.76 L 610.11,5849.58 L 669.62,5849.64 L 724.632,5826.91 L 766.754,5784.86 L 789.578,5729.89 L 789.632,5670.38 L 766.902,5615.37 L 724.854,5573.25 L 669.886,5550.42 L 610.376,5550.37 L 555.364,5573.1 L 513.242,5615.15 L 490.418,5670.11 L 490.364,5729.62M 330.072,2231.32 L 427.758,2329.28 L 429.252,2332.89 L 429.442,2334.84 L 429.25,2336.79 L 427.496,2341.52 L 427.462,2378.32 L 441.518,2412.34 L 467.52,2438.39 L 501.516,2452.5 L 538.316,2452.54 L 572.338,2438.48 L 598.386,2412.48 L 600.558,2407.75 L 601.8,2406.24 L 603.316,2404.99 L 606.92,2403.5 L 751.098,2403.31 L 754.926,2404.07 L 758.172,2406.24 L 759.416,2407.76 L 761.518,2412.34 L 787.52,2438.39 L 821.516,2452.5 L 858.316,2452.54 L 892.338,2438.48 L 918.386,2412.48 L 932.5,2378.48 L 932.534,2341.68 L 918.478,2307.66 L 892.476,2281.61 L 858.48,2267.5 L 821.68,2267.47 L 787.658,2281.52 L 761.61,2307.53 L 759.438,2312.26 L 758.194,2313.77 L 754.952,2315.93 L 751.128,2316.69 L 606.946,2316.5 L 603.34,2315.01 L 601.824,2313.76 L 600.58,2312.24 L 598.478,2307.66 L 572.476,2281.61 L 538.48,2267.5 L 501.68,2267.46 L 496.792,2269.28 L 494.842,2269.47 L 492.894,2269.27 L 489.292,2267.78 L 406.234,2184.99 L 404.066,2181.75 L 403.498,2179.87 L 403.306,2144.31 L 404.066,2140.48 L 406.234,2137.24 L 407.75,2135.99 L 425.858,2123.89 L 445.446,2094.58 L 452.324,2060 L 445.448,2025.43 L 425.86,1996.11 L 396.544,1976.52 L 362.788,1969.81 L 359.998,1968.75 L 357.208,1969.81 L 323.454,1976.52 L 294.138,1996.11 L 274.55,2025.43 L 267.674,2060 L 274.548,2094.58 L 294.136,2123.89 L 312.246,2135.99 L 315.006,2138.75 L 315.93,2140.48 L 316.692,2144.31 L 316.692,2199.02 L 320.166,2216.5 L 330.072,2231.32M 1220.51,3012.23 L 1246.35,3038.07 L 1255.88,3034.94 L 1269.73,2996.93 L 1267.85,2953.42 L 1256.14,2925.15 L 1246.35,2921.94 L 1220.51,2947.77 L 1222.94,2951.98 L 1227.39,2965.68 L 1228.9,2980 L 1227.39,2994.32 L 1222.94,3008.02 L 1220.51,3012.23M 1192.32,3040.61 L 1181.29,3045.52 L 1167.2,3048.52 L 1152.8,3048.52 L 1138.71,3045.52 L 1125.55,3039.67 L 1113.9,3031.2 L 1104.26,3020.5 L 1097.06,3008.02 L 1092.61,2994.32 L 1091.1,2980 L 1092.61,2965.68 L 1097.06,2951.98 L 1099.49,2947.78 L 1073.65,2921.93 L 1064.11,2925.06 L 1050.26,2963.07 L 1051.62,2999.06 L 1050.24,3002.78 L 1049.02,3004.36 L 1047.51,3005.67 L 1043.87,3007.27 L 1039.9,3007.33 L 1037.99,3006.77 L 1034.68,3004.57 L 978.36,2948.25 L 976.192,2945.01 L 975.432,2941.18 L 975.432,2820.99 L 972.556,2806.52 L 964.358,2794.25 L 845.752,2675.64 L 833.484,2667.45 L 819.014,2664.57 L 240.986,2664.57 L 226.514,2667.44 L 214.246,2675.64 L 75.64,2814.25 L 67.442,2826.52 L 64.566,2840.98 L 64.566,4239.02 L 67.44,4253.49 L 75.638,4265.75 L 174.244,4364.36 L 186.512,4372.56 L 200.974,4375.43 L 349.154,4375.43 L 352.98,4376.2 L 356.224,4378.36 L 375.35,4406.64 L 402.598,4425.08 L 404.766,4428.32 L 405.526,4432.15 L 405.334,4434.1 L 403.842,4437.71 L 401.082,4440.46 L 384.424,4447.57 L 353.186,4476.08 L 336.582,4511.5 L 340.994,4520 L 375.266,4520 L 378.95,4510.05 L 386.228,4498.38 L 395.708,4488.41 L 407,4480.55 L 419.644,4475.12 L 433.122,4472.35 L 440,4472 L 453.688,4473.39 L 466.816,4477.51 L 478.846,4484.19 L 489.284,4493.15 L 497.706,4504.03 L 503.766,4516.38 L 504.702,4520 L 575.266,4520 L 578.95,4510.05 L 586.228,4498.38 L 595.708,4488.41 L 607,4480.55 L 619.644,4475.12 L 633.122,4472.35 L 640,4472 L 653.688,4473.39 L 666.816,4477.51 L 678.846,4484.19 L 689.284,4493.15 L 697.706,4504.03 L 703.766,4516.38 L 704.702,4520 L 739,4520 L 743.412,4511.51 L 726.812,4476.09 L 695.574,4447.57 L 678.912,4440.46 L 676.154,4437.7 L 674.662,4434.1 L 674.47,4432.15 L 675.23,4428.32 L 677.398,4425.08 L 704.644,4406.64 L 723.77,4378.37 L 727.016,4376.2 L 730.844,4375.43 L 901.18,4375.43 L 905.006,4376.2 L 908.25,4378.36 L 1071.02,4541.41 L 1072.52,4545.02 L 1072.52,4548.92 L 1067.5,4561.52 L 1067.46,4598.32 L 1081.52,4632.34 L 1107.52,4658.39 L 1139.09,4671.71 L 1141.84,4674.47 L 1143.33,4678.07 L 1143.33,4681.98 L 1142.76,4683.85 L 1140.59,4687.09 L 1139.07,4688.34 L 1107.66,4701.52 L 1081.61,4727.52 L 1067.5,4761.52 L 1067.46,4798.32 L 1081.52,4832.34 L 1107.52,4858.39 L 1139.09,4871.71 L 1140.6,4872.95 L 1142.77,4876.2 L 1143.52,4880.02 L 1142.76,4883.85 L 1140.59,4887.09 L 1139.07,4888.34 L 1107.66,4901.52 L 1081.61,4927.52 L 1067.5,4961.52 L 1067.46,4998.32 L 1081.52,5032.34 L 1107.52,5058.39 L 1139.09,5071.71 L 1141.84,5074.47 L 1143.33,5078.07 L 1143.33,5081.98 L 1142.76,5083.85 L 1140.59,5087.09 L 1139.07,5088.34 L 1107.66,5101.52 L 1081.61,5127.52 L 1067.5,5161.52 L 1067.46,5198.32 L 1081.52,5232.34 L 1107.52,5258.39 L 1141.52,5272.5 L 1178.32,5272.54 L 1212.34,5258.48 L 1238.39,5232.48 L 1252.5,5198.48 L 1252.53,5161.68 L 1238.48,5127.66 L 1212.48,5101.61 L 1182.64,5089.22 L 1179.4,5087.05 L 1177.23,5083.81 L 1176.66,5081.93 L 1176.67,5078.03 L 1177.24,5076.15 L 1179.41,5072.91 L 1182.65,5070.75 L 1212.34,5058.48 L 1238.39,5032.48 L 1243.83,5019.87 L 1246.59,5017.12 L 1248.31,5016.2 L 1252.14,5015.43 L 1301.18,5015.43 L 1305.01,5016.2 L 1306.73,5017.12 L 2094.24,5804.36 L 2106.51,5812.56 L 2120.97,5815.43 L 2827.85,5815.43 L 2831.68,5816.2 L 2834.92,5818.37 L 2837.09,5821.62 L 2841.52,5832.34 L 2867.52,5858.39 L 2901.52,5872.5 L 2938.32,5872.54 L 2972.34,5858.48 L 2998.39,5832.48 L 3012.5,5798.48 L 3012.54,5761.69 L 2998.48,5727.66 L 2972.48,5701.61 L 2955.75,5694.67 L 2952.51,5692.5 L 2951.27,5690.98 L 2949.78,5687.38 L 2949.78,5683.48 L 2950.35,5681.6 L 2951.28,5679.88 L 2954.03,5677.12 L 2957.64,5675.63 L 4369.02,5675.43 L 4383.48,5672.56 L 4395.75,5664.36 L 4544.36,5515.76 L 4552.55,5503.49 L 4555.43,5489.02 L 4555.43,1185.5 L 4556.19,1181.67 L 4558.36,1178.43 L 4581.1,1163 L 4599.84,1134.96 L 4606.61,1100.91 L 4606.61,1099.1 L 4599.84,1065.04 L 4581.11,1037 L 4553.07,1018.27 L 4520,1011.69 L 4486.93,1018.27 L 4458.89,1037 L 4440.16,1065.04 L 4433.38,1099.08 L 4433.38,1100.92 L 4440.16,1134.96 L 4458.89,1163 L 4481.64,1178.43 L 4483.8,1181.67 L 4484.57,1185.5 L 4484.57,5471.18 L 4483.8,5475.01 L 4481.64,5478.25 L 4356.73,5602.88 L 4355.01,5603.81 L 4351.18,5604.57 L 2178.82,5604.57 L 2174.99,5603.81 L 2173.26,5602.88 L 1325.75,4755.64 L 1313.48,4747.45 L 1299.01,4744.57 L 1252.15,4744.57 L 1248.32,4743.81 L 1245.08,4741.64 L 1243.83,4740.12 L 1238.48,4727.66 L 1212.48,4701.61 L 1182.64,4689.22 L 1179.4,4687.05 L 1177.23,4683.81 L 1176.66,4681.93 L 1176.67,4678.03 L 1178.16,4674.43 L 1179.41,4672.91 L 1182.65,4670.75 L 1212.34,4658.48 L 1238.39,4632.48 L 1252.5,4598.48 L 1252.53,4561.68 L 1238.48,4527.66 L 1212.48,4501.61 L 1180.91,4488.3 L 1179.4,4487.05 L 1177.23,4483.81 L 1176.47,4479.98 L 1176.67,4478.03 L 1178.16,4474.43 L 1180.92,4471.67 L 1212.34,4458.48 L 1238.39,4432.48 L 1252.5,4398.48 L 1252.53,4361.68 L 1238.48,4327.66 L 1212.48,4301.61 L 1180.91,4288.3 L 1179.4,4287.05 L 1177.23,4283.81 L 1176.47,4279.98 L 1176.67,4278.03 L 1178.16,4274.43 L 1180.92,4271.67 L 1212.34,4258.48 L 1238.39,4232.48 L 1252.5,4198.48 L 1252.53,4161.68 L 1238.48,4127.66 L 1212.48,4101.61 L 1180.91,4088.3 L 1179.4,4087.05 L 1177.23,4083.81 L 1176.47,4079.98 L 1176.67,4078.03 L 1178.16,4074.43 L 1180.92,4071.67 L 1212.34,4058.48 L 1238.39,4032.48 L 1252.5,3998.48 L 1252.53,3961.68 L 1238.48,3927.66 L 1212.48,3901.61 L 1180.91,3888.3 L 1179.4,3887.05 L 1177.23,3883.81 L 1176.47,3879.98 L 1176.67,3878.03 L 1178.16,3874.43 L 1180.92,3871.67 L 1212.34,3858.48 L 1238.39,3832.48 L 1252.5,3798.48 L 1252.53,3761.68 L 1238.48,3727.66 L 1212.48,3701.61 L 1180.91,3688.3 L 1179.4,3687.05 L 1177.23,3683.81 L 1176.47,3679.98 L 1176.67,3678.03 L 1178.16,3674.43 L 1180.92,3671.67 L 1212.34,3658.48 L 1238.39,3632.48 L 1252.5,3598.48 L 1252.53,3561.68 L 1238.48,3527.66 L 1212.48,3501.61 L 1180.91,3488.3 L 1178.15,3485.54 L 1176.66,3481.93 L 1176.67,3478.03 L 1177.24,3476.15 L 1178.16,3474.43 L 1180.92,3471.67 L 1212.34,3458.48 L 1238.39,3432.48 L 1252.5,3398.48 L 1252.53,3361.68 L 1238.48,3327.66 L 1212.48,3301.61 L 1180.91,3288.3 L 1178.15,3285.54 L 1176.66,3281.93 L 1176.67,3278.03 L 1177.24,3276.15 L 1178.16,3274.43 L 1180.92,3271.67 L 1212.34,3258.48 L 1238.39,3232.48 L 1252.5,3198.48 L 1252.53,3161.68 L 1238.48,3127.66 L 1212.48,3101.61 L 1205.22,3098.6 L 1201.98,3096.43 L 1200.73,3094.92 L 1199.24,3091.31 L 1199.25,3087.41 L 1200.74,3083.81 L 1201.98,3082.29 L 1205.23,3080.13 L 1214.85,3076.14 L 1218.06,3066.35 L 1192.32,3040.61M 504.734,4560 L 501.05,4569.95 L 493.772,4581.62 L 484.292,4591.59 L 473,4599.45 L 460,4604.95 L 460,4675.37 L 466.816,4677.51 L 478.846,4684.19 L 489.284,4693.15 L 497.706,4704.03 L 503.766,4716.38 L 507.214,4729.7 L 507.912,4743.44 L 505.828,4757.04 L 501.05,4769.95 L 493.772,4781.62 L 484.292,4791.59 L 473,4799.45 L 460,4804.95 L 460,4875.37 L 466.816,4877.51 L 478.846,4884.19 L 489.284,4893.15 L 497.706,4904.03 L 503.766,4916.38 L 504.702,4920 L 575.266,4920 L 578.95,4910.05 L 586.228,4898.38 L 595.708,4888.41 L 607,4880.55 L 619.644,4875.12 L 633.122,4872.35 L 640,4872 L 653.688,4873.39 L 666.816,4877.51 L 678.846,4884.19 L 689.284,4893.15 L 697.706,4904.03 L 703.766,4916.38 L 704.702,4920 L 739,4920 L 743.412,4911.51 L 726.812,4876.09 L 695.574,4847.57 L 680.642,4841.39 L 677.398,4839.22 L 675.23,4835.98 L 674.47,4832.15 L 675.23,4828.32 L 677.398,4825.08 L 704.644,4806.64 L 722.528,4779.88 L 725.286,4777.12 L 727.016,4776.2 L 730.844,4775.43 L 821.18,4775.43 L 825.006,4776.2 L 828.25,4778.36 L 881.636,4831.75 L 883.804,4834.99 L 884.566,4838.82 L 884.566,5319.02 L 887.44,5333.49 L 895.638,5345.75 L 1034.24,5484.36 L 1046.51,5492.56 L 1060.97,5495.43 L 1369.8,5495.63 L 1373.41,5497.12 L 1376.16,5499.89 L 1381.52,5512.34 L 1407.52,5538.39 L 1441.52,5552.5 L 1478.32,5552.54 L 1512.34,5538.48 L 1538.39,5512.48 L 1552.5,5478.48 L 1552.53,5441.68 L 1538.48,5407.66 L 1512.48,5381.61 L 1478.48,5367.5 L 1441.68,5367.47 L 1407.66,5381.52 L 1381.61,5407.52 L 1376.17,5420.13 L 1373.41,5422.89 L 1369.81,5424.38 L 1078.82,5424.57 L 1074.99,5423.81 L 1071.75,5421.64 L 958.36,5308.25 L 956.192,5305.01 L 955.624,5303.13 L 955.432,4820.99 L 952.556,4806.52 L 944.358,4794.25 L 865.752,4715.64 L 853.484,4707.45 L 839.014,4704.57 L 728.892,4704.38 L 725.288,4702.88 L 722.528,4700.12 L 704.646,4673.36 L 677.398,4654.93 L 675.23,4651.68 L 674.47,4647.86 L 675.23,4644.03 L 677.398,4640.78 L 680.642,4638.62 L 695.572,4632.43 L 726.81,4603.92 L 743.414,4568.5 L 739,4560 L 704.734,4560 L 701.05,4569.95 L 693.772,4581.62 L 684.292,4591.59 L 673,4599.45 L 660.356,4604.88 L 646.878,4607.65 L 640,4608 L 626.312,4606.61 L 613.184,4602.49 L 601.154,4595.81 L 590.716,4586.85 L 582.294,4575.97 L 576.234,4563.62 L 575.298,4560 L 504.734,4560M 504.734,4960 L 501.05,4969.95 L 493.772,4981.62 L 484.292,4991.59 L 473,4999.45 L 460,5004.95 L 460,5038.97 L 468.756,5043.54 L 495.572,5032.43 L 526.81,5003.92 L 530.944,4995.1 L 532.004,4993.34 L 533.4,4991.83 L 535.076,4990.64 L 536.96,4989.82 L 538.972,4989.4 L 541.028,4989.4 L 543.04,4989.82 L 544.924,4990.64 L 546.598,4991.83 L 547.996,4993.34 L 549.054,4995.1 L 553.184,5003.92 L 584.422,5032.43 L 611.24,5043.54 L 620,5038.97 L 620,5004.63 L 613.184,5002.49 L 601.154,4995.81 L 590.716,4986.85 L 582.294,4975.97 L 576.234,4963.62 L 575.298,4960 L 504.734,4960M 420,4875.05 L 420,4804.63 L 413.184,4802.49 L 401.154,4795.81 L 390.716,4786.85 L 382.294,4775.97 L 376.234,4763.62 L 375.298,4760 L 340.998,4760 L 336.584,4768.5 L 353.184,4803.92 L 384.624,4832.62 L 386.004,4834.16 L 387.032,4835.97 L 387.668,4837.94 L 387.882,4840 L 387.668,4842.06 L 387.032,4844.04 L 386.002,4845.84 L 384.624,4847.39 L 353.186,4876.08 L 336.582,4911.5 L 340.994,4920 L 375.266,4920 L 378.95,4910.05 L 386.228,4898.38 L 395.708,4888.41 L 407,4880.55 L 420,4875.05M 375.298,4960 L 340.998,4960 L 336.584,4968.5 L 353.184,5003.92 L 384.422,5032.43 L 411.24,5043.54 L 420,5038.97 L 420,5004.63 L 413.184,5002.49 L 401.154,4995.81 L 390.716,4986.85 L 382.294,4975.97 L 376.234,4963.62 L 375.298,4960M 420,4675.05 L 420,4604.63 L 413.184,4602.49 L 401.154,4595.81 L 390.716,4586.85 L 382.294,4575.97 L 376.234,4563.62 L 375.298,4560 L 340.998,4560 L 336.584,4568.5 L 353.184,4603.92 L 384.624,4632.62 L 386.004,4634.16 L 387.032,4635.97 L 387.668,4637.94 L 387.882,4640 L 387.668,4642.06 L 387.032,4644.04 L 386.002,4645.84 L 384.624,4647.39 L 353.186,4676.08 L 336.582,4711.5 L 340.994,4720 L 375.266,4720 L 378.95,4710.05 L 386.228,4698.38 L 395.708,4688.41 L 407,4680.55 L 420,4675.05M 704.734,4960 L 701.05,4969.95 L 693.772,4981.62 L 684.292,4991.59 L 673,4999.45 L 660,5004.95 L 660,5038.97 L 668.756,5043.54 L 695.572,5032.43 L 726.81,5003.92 L 743.414,4968.5 L 739,4960 L 704.734,4960M 426.928,1480 L 426.928,1526.93 L 293.072,1526.93 L 293.072,1480 L 259.712,1480 L 253.07,1486.64 L 253.07,1534.89 L 259.158,1549.59 L 270.41,1560.84 L 285.11,1566.93 L 304.844,1566.93 L 308.67,1567.69 L 310.4,1568.62 L 313.158,1571.38 L 314.652,1574.98 L 314.65,1578.88 L 313.156,1582.49 L 310.398,1585.25 L 294.138,1596.11 L 274.55,1625.43 L 267.674,1660 L 274.548,1694.58 L 294.136,1723.89 L 323.45,1743.48 L 359.084,1750.76 L 362.328,1752.93 L 363.572,1754.45 L 364.496,1756.17 L 365.256,1760 L 364.496,1763.83 L 363.572,1765.56 L 360.812,1768.32 L 359.084,1769.24 L 323.454,1776.52 L 294.138,1796.11 L 274.55,1825.43 L 267.672,1860 L 274.548,1894.58 L 294.136,1923.89 L 323.45,1943.48 L 357.208,1950.19 L 359.996,1951.25 L 362.788,1950.19 L 396.542,1943.48 L 425.512,1924.36 L 429.338,1923.6 L 431.29,1923.79 L 434.894,1925.28 L 694.244,2184.36 L 706.512,2192.56 L 720.974,2195.43 L 921.18,2195.43 L 925.006,2196.2 L 926.734,2197.12 L 1069.78,2339.89 L 1071.95,2343.14 L 1072.71,2346.97 L 1071.94,2350.8 L 1067.5,2361.52 L 1067.46,2398.32 L 1081.52,2432.34 L 1107.52,2458.39 L 1139.09,2471.71 L 1140.6,2472.95 L 1142.77,2476.2 L 1143.52,2480.02 L 1142.76,2483.85 L 1140.59,2487.09 L 1139.07,2488.34 L 1107.66,2501.52 L 1081.61,2527.52 L 1067.5,2561.52 L 1067.46,2598.32 L 1081.52,2632.34 L 1107.52,2658.39 L 1139.09,2671.71 L 1140.6,2672.95 L 1142.77,2676.2 L 1143.52,2680.02 L 1142.76,2683.85 L 1140.59,2687.09 L 1139.07,2688.34 L 1107.66,2701.52 L 1081.61,2727.52 L 1067.5,2761.52 L 1067.46,2798.32 L 1081.52,2832.34 L 1107.52,2858.39 L 1116.51,2862.33 L 1119.26,2865.09 L 1120.18,2866.82 L 1120.75,2868.69 L 1120.75,2872.59 L 1119.26,2876.2 L 1116.5,2878.95 L 1105.14,2883.86 L 1101.93,2893.65 L 1127.67,2919.39 L 1138.71,2914.48 L 1152.8,2911.48 L 1167.2,2911.48 L 1181.29,2914.48 L 1192.33,2919.39 L 1218.07,2893.65 L 1214.94,2884.12 L 1204.77,2880.41 L 1201.38,2878.34 L 1200.06,2876.84 L 1198.43,2873.21 L 1198.35,2869.24 L 1199.82,2865.55 L 1201.07,2863.99 L 1204.37,2861.77 L 1212.34,2858.48 L 1238.39,2832.48 L 1252.5,2798.48 L 1252.53,2761.68 L 1238.48,2727.66 L 1212.48,2701.61 L 1182.64,2689.22 L 1179.4,2687.05 L 1177.23,2683.81 L 1176.66,2681.93 L 1176.67,2678.03 L 1178.16,2674.43 L 1180.92,2671.67 L 1182.65,2670.75 L 1212.34,2658.48 L 1238.39,2632.48 L 1243.83,2619.87 L 1246.59,2617.12 L 1248.31,2616.2 L 1252.14,2615.43 L 1339.02,2615.43 L 1353.48,2612.56 L 1365.75,2604.36 L 1444.36,2525.76 L 1452.55,2513.49 L 1455.43,2499.02 L 1455.43,2220.99 L 1452.56,2206.52 L 1444.36,2194.25 L 1245.75,1995.64 L 1233.48,1987.45 L 1219.01,1984.57 L 778.818,1984.57 L 774.99,1983.81 L 773.262,1982.88 L 453.774,1663.4 L 452.282,1659.79 L 445.448,1625.43 L 425.86,1596.11 L 408.082,1584 L 405.914,1580.76 L 405.154,1576.93 L 405.914,1573.1 L 406.838,1571.38 L 408.082,1569.86 L 411.326,1567.69 L 415.154,1566.93 L 434.884,1566.93 L 449.584,1560.84 L 460.836,1549.59 L 466.928,1534.89 L 466.928,1486.64 L 460.284,1480 L 426.928,1480M 293.072,1440 L 293.072,1393.07 L 340,1393.07 L 340,1359.72 L 333.356,1353.07 L 285.116,1353.07 L 270.412,1359.16 L 259.16,1370.41 L 253.07,1385.11 L 253.07,1433.36 L 259.71,1440 L 293.072,1440M 380,1393.07 L 426.928,1393.07 L 426.928,1440 L 460.286,1440 L 466.928,1433.36 L 466.928,1385.12 L 460.838,1370.42 L 449.586,1359.16 L 434.882,1353.07 L 386.642,1353.07 L 380,1359.71 L 380,1393.07M 293.072,1060 L 259.712,1060 L 253.07,1066.64 L 253.07,1114.89 L 259.158,1129.59 L 270.41,1140.84 L 285.11,1146.93 L 333.358,1146.93 L 340,1140.29 L 340,1106.93 L 293.072,1106.93 L 293.072,1060M 426.928,1060 L 426.928,1106.93 L 380,1106.93 L 380,1140.29 L 386.64,1146.93 L 434.884,1146.93 L 449.584,1140.84 L 460.836,1129.59 L 466.928,1114.89 L 466.928,1066.64 L 460.284,1060 L 426.928,1060M 2327.67,2519.39 L 2338.71,2514.48 L 2352.8,2511.48 L 2367.2,2511.48 L 2381.29,2514.48 L 2392.33,2519.39 L 2418.07,2493.65 L 2414.94,2484.12 L 2402.97,2479.55 L 2401.38,2478.34 L 2400.06,2476.84 L 2398.43,2473.21 L 2398.35,2469.24 L 2398.9,2467.32 L 2399.82,2465.55 L 2402.61,2462.72 L 2412.34,2458.48 L 2438.39,2432.48 L 2452.5,2398.48 L 2452.53,2361.68 L 2438.48,2327.66 L 2412.48,2301.61 L 2378.48,2287.5 L 2341.68,2287.47 L 2307.66,2301.52 L 2281.61,2327.52 L 2267.5,2361.52 L 2267.46,2398.32 L 2281.52,2432.34 L 2307.52,2458.39 L 2314.78,2461.4 L 2318.02,2463.57 L 2319.26,2465.09 L 2320.75,2468.69 L 2320.75,2472.59 L 2319.26,2476.2 L 2318.01,2477.71 L 2314.77,2479.88 L 2305.14,2483.86 L 2301.93,2493.65 L 2327.67,2519.39M 2294.35,2560.32 L 2297.06,2551.98 L 2299.49,2547.78 L 2273.65,2521.93 L 2264.11,2525.06 L 2251.27,2560.32 L 2294.35,2560.32M 2294.35,2599.68 L 2251.85,2599.68 L 2252.15,2606.58 L 2263.86,2634.86 L 2273.65,2638.07 L 2299.49,2612.23 L 2297.06,2608.02 L 2294.35,2599.68 z " style="fill-opacity:1.000000;fill:rgb(103,198,105);stroke:rgb(0,0,0);stroke-width:2"/></g>
<g fill-rule="evenodd"><path d="M 1228.9,2780 L 1227.39,2794.32 L 1222.94,2808.02 L 1215.74,2820.5 L 1206.1,2831.2 L 1194.45,2839.67 L 1181.29,2845.52 L 1167.2,2848.52 L 1152.8,2848.52 L 1138.71,2845.52 L 1125.55,2839.67 L 1113.9,2831.2 L 1104.26,2820.5 L 1097.06,2808.02 L 1092.61,2794.32 L 1091.1,2780 L 1092.61,2765.68 L 1097.06,2751.98 L 1104.26,2739.5 L 1113.9,2728.8 L 1125.55,2720.33 L 1138.71,2714.48 L 1152.8,2711.48 L 1167.2,2711.48 L 1181.29,2714.48 L 1194.45,2720.33 L 1206.1,2728.8 L 1215.74,2739.5 L 1222.94,2751.98 L 1227.39,2765.68 L 1228.9,2780 z " style="fill-opacity:1.000000;fill:rgb(115,81,255);stroke:rgb(0,0,0);stroke-width:2"/></g>
<g fill-rule="evenodd"><path d="M 1228.9,5180 L 1227.39,5194.32 L 1222.94,5208.02 L 1215.74,5220.5 L 1206.1,5231.2 L 1194.45,5239.67 L 1181.29,5245.52 L 1167.2,5248.52 L 1152.8,5248.52 L 1138.71,5245.52 L 1125.55,5239.67 L 1113.9,5231.2 L 1104.26,5220.5 L 1097.06,5208.02 L 1092.61,5194.32 L 1091.1,5180 L 1092.61,5165.68 L 1097.06,5151.98 L 1104.26,5139.5 L 1113.9,5128.8 L 1125.55,5120.33 L 1138.71,5114.48 L 1152.8,5111.48 L 1167.2,5111.48 L 1181.29,5114.48 L 1194.45,5120.33 L 1206.1,5128.8 L 1215.74,5139.5 L 1222.94,5151.98 L 1227.39,5165.68 L 1228.9,5180 z " style="fill-opacity:1.000000;fill:rgb(74,236,41);stroke:rgb(0,0,0);stroke-width:2"/></g>
<g fill-rule="evenodd"><path d="M 2428.9,2380 L 2427.39,2394.32 L 2422.94,2408.02 L 2415.74,2420.5 L 2406.1,2431.2 L 2394.45,2439.67 L 2381.29,2445.52 L 2367.2,2448.52 L 2352.8,2448.52 L 2338.71,2445.52 L 2325.55,2439.67 L 2313.9,2431.2 L 2304.26,2420.5 L 2297.06,2408.02 L 2292.61,2394.32 L 2291.1,2380 L 2292.61,2365.68 L 2297.06,2351.98 L 2304.26,2339.5 L 2313.9,2328.8 L 2325.55,2320.33 L 2338.71,2314.48 L 2352.8,2311.48 L 2367.2,2311.48 L 2381.29,2314.48 L 2394.45,2320.33 L 2406.1,2328.8 L 2415.74,2339.5 L 2422.94,2351.98 L 2427.39,2365.68 L 2428.9,2380 z " style="fill-opacity:1.000000;fill:rgb(205,186,171);stroke:rgb(0,0,0);stroke-width:2"/></g>
<g fill-rule="evenodd"><path d="M 3432.32,4460.61 L 3421.29,4465.52 L 3407.2,4468.52 L 3392.8,4468.52 L 3378.71,4465.52 L 3367.67,4460.61 L 3341.93,4486.35 L 3345.06,4495.88 L 3357.03,4500.46 L 3359.94,4503.17 L 3361.56,4506.79 L 3361.8,4508.77 L 3361.65,4510.77 L 3360.18,4514.46 L 3357.39,4517.29 L 3347.66,4521.52 L 3321.61,4547.53 L 3319.44,4552.26 L 3318.19,4553.77 L 3316.68,4555.01 L 3313.08,4556.5 L 3288.9,4556.69 L 3286.95,4556.5 L 3283.34,4555.01 L 3280.58,4552.24 L 3278.48,4547.66 L 3252.48,4521.61 L 3220.91,4508.3 L 3218.15,4505.54 L 3216.66,4501.93 L 3216.67,4498.03 L 3217.24,4496.15 L 3218.16,4494.43 L 3220.92,4491.67 L 3252.34,4478.48 L 3278.39,4452.48 L 3282.32,4443.5 L 3285.08,4440.74 L 3288.69,4439.25 L 3290.64,4439.06 L 3292.59,4439.25 L 3296.19,4440.74 L 3298.95,4443.5 L 3303.86,4454.86 L 3313.65,4458.07 L 3339.49,4432.23 L 3337.06,4428.02 L 3332.61,4414.32 L 3331.1,4400 L 3332.61,4385.68 L 3337.06,4371.98 L 3339.49,4367.78 L 3313.65,4341.93 L 3304.12,4345.06 L 3299.54,4357.03 L 3298.33,4358.62 L 3296.83,4359.94 L 3293.21,4361.57 L 3291.23,4361.81 L 3289.23,4361.65 L 3285.54,4360.18 L 3282.71,4357.39 L 3278.48,4347.66 L 3252.48,4321.61 L 3220.91,4308.3 L 3218.15,4305.54 L 3216.66,4301.93 L 3216.67,4298.03 L 3217.24,4296.15 L 3218.16,4294.43 L 3220.92,4291.67 L 3252.34,4278.48 L 3278.39,4252.48 L 3282.32,4243.5 L 3285.08,4240.74 L 3288.69,4239.25 L 3290.64,4239.06 L 3292.59,4239.25 L 3296.19,4240.74 L 3298.95,4243.5 L 3303.86,4254.86 L 3313.65,4258.07 L 3339.49,4232.23 L 3337.06,4228.02 L 3332.61,4214.32 L 3331.1,4200 L 3332.61,4185.68 L 3337.06,4171.98 L 3339.49,4167.78 L 3313.65,4141.93 L 3304.12,4145.06 L 3299.54,4157.03 L 3298.33,4158.62 L 3296.83,4159.94 L 3293.21,4161.57 L 3291.23,4161.81 L 3289.23,4161.65 L 3285.54,4160.18 L 3282.71,4157.39 L 3278.48,4147.66 L 3252.48,4121.61 L 3220.91,4108.3 L 3218.15,4105.54 L 3216.66,4101.93 L 3216.67,4098.03 L 3217.24,4096.15 L 3218.16,4094.43 L 3220.92,4091.67 L 3252.34,4078.48 L 3278.39,4052.48 L 3282.32,4043.5 L 3285.08,4040.74 L 3288.69,4039.25 L 3290.64,4039.06 L 3292.59,4039.25 L 3296.19,4040.74 L 3298.95,4043.5 L 3303.86,4054.86 L 3313.65,4058.07 L 3339.49,4032.23 L 3337.06,4028.02 L 3332.61,4014.32 L 3331.1,4000 L 3332.61,3985.68 L 3337.06,3971.98 L 3339.49,3967.78 L 3313.65,3941.93 L 3304.12,3945.06 L 3299.54,3957.03 L 3298.33,3958.62 L 3296.83,3959.94 L 3293.21,3961.57 L 3291.23,3961.81 L 3289.23,3961.65 L 3285.54,3960.18 L 3282.71,3957.39 L 3278.48,3947.66 L 3252.48,3921.61 L 3220.91,3908.3 L 3218.15,3905.54 L 3216.66,3901.93 L 3216.67,3898.03 L 3217.24,3896.15 L 3218.16,3894.43 L 3220.92,3891.67 L 3252.34,3878.48 L 3278.39,3852.48 L 3282.32,3843.5 L 3285.08,3840.74 L 3288.69,3839.25 L 3290.64,3839.06 L 3292.59,3839.25 L 3296.19,3840.74 L 3298.95,3843.5 L 3303.86,3854.86 L 3313.65,3858.07 L 3339.49,3832.23 L 3337.06,3828.02 L 3332.61,3814.32 L 3331.1,3800 L 3332.61,3785.68 L 3337.06,3771.98 L 3339.49,3767.78 L 3313.65,3741.93 L 3304.12,3745.06 L 3299.54,3757.03 L 3298.33,3758.62 L 3295.1,3760.94 L 3293.21,3761.57 L 3289.23,3761.65 L 3285.54,3760.18 L 3283.99,3758.93 L 3281.77,3755.63 L 3278.48,3747.66 L 3252.48,3721.61 L 3243.49,3717.67 L 3240.73,3714.92 L 3239.81,3713.19 L 3239.24,3711.31 L 3239.25,3707.41 L 3240.74,3703.81 L 3243.5,3701.05 L 3254.85,3696.14 L 3258.06,3686.35 L 3232.32,3660.61 L 3221.29,3665.52 L 3207.2,3668.52 L 3192.8,3668.52 L 3178.71,3665.52 L 3167.67,3660.61 L 3141.93,3686.35 L 3145.06,3695.88 L 3157.03,3700.46 L 3159.94,3703.17 L 3161.56,3706.79 L 3161.8,3708.77 L 3161.65,3710.77 L 3160.18,3714.46 L 3157.39,3717.29 L 3147.66,3721.52 L 3121.61,3747.52 L 3117.09,3758.4 L 3114.92,3761.64 L 3113.41,3762.89 L 3109.81,3764.38 L 3107.86,3764.57 L 3040.99,3764.57 L 3026.51,3767.44 L 3014.25,3775.64 L 2960.11,3829.78 L 2956.86,3831.95 L 2954.98,3832.52 L 2951.08,3832.52 L 2938.48,3827.5 L 2901.68,3827.47 L 2867.66,3841.52 L 2841.61,3867.52 L 2827.5,3901.52 L 2827.46,3938.32 L 2841.52,3972.34 L 2867.52,3998.39 L 2901.52,4012.5 L 2938.32,4012.54 L 2972.34,3998.48 L 2998.39,3972.48 L 3012.5,3938.48 L 3012.54,3901.68 L 3008.04,3890.79 L 3007.28,3886.97 L 3008.04,3883.15 L 3010.21,3879.9 L 3051.75,3838.36 L 3054.99,3836.2 L 3058.82,3835.43 L 3109.8,3835.63 L 3113.41,3837.12 L 3116.16,3839.89 L 3121.52,3852.34 L 3147.52,3878.39 L 3179.09,3891.71 L 3180.6,3892.95 L 3182.77,3896.2 L 3183.52,3900.02 L 3182.76,3903.85 L 3180.59,3907.09 L 3179.07,3908.34 L 3147.66,3921.52 L 3121.61,3947.52 L 3117.09,3958.4 L 3114.92,3961.64 L 3113.41,3962.89 L 3109.81,3964.38 L 3107.86,3964.57 L 3060.99,3964.57 L 3046.51,3967.44 L 3034.25,3975.64 L 2948.25,4061.64 L 2945.01,4063.81 L 2943.13,4064.38 L 2830.2,4064.38 L 2826.59,4062.88 L 2823.83,4060.12 L 2818.48,4047.66 L 2792.48,4021.61 L 2758.48,4007.5 L 2721.68,4007.47 L 2687.66,4021.52 L 2661.61,4047.52 L 2647.5,4081.52 L 2647.46,4118.32 L 2661.52,4152.34 L 2687.52,4178.39 L 2721.52,4192.5 L 2758.32,4192.54 L 2792.34,4178.48 L 2818.39,4152.48 L 2823.83,4139.87 L 2826.59,4137.12 L 2830.19,4135.63 L 2959.02,4135.43 L 2973.48,4132.56 L 2985.75,4124.36 L 3073.26,4037.12 L 3074.99,4036.2 L 3078.82,4035.43 L 3109.8,4035.63 L 3113.41,4037.12 L 3116.16,4039.89 L 3121.52,4052.34 L 3147.52,4078.39 L 3179.09,4091.71 L 3180.6,4092.95 L 3182.77,4096.2 L 3183.52,4100.02 L 3182.76,4103.85 L 3180.59,4107.09 L 3179.07,4108.34 L 3147.66,4121.52 L 3121.61,4147.52 L 3117.09,4158.4 L 3114.92,4161.64 L 3113.41,4162.89 L 3109.81,4164.38 L 3107.86,4164.57 L 2920.99,4164.57 L 2906.51,4167.44 L 2894.25,4175.64 L 2728.25,4341.64 L 2725.01,4343.81 L 2723.13,4344.38 L 2450.2,4344.38 L 2446.59,4342.88 L 2443.83,4340.12 L 2438.48,4327.66 L 2412.48,4301.61 L 2380.91,4288.3 L 2378.15,4285.54 L 2376.66,4281.93 L 2376.67,4278.03 L 2377.24,4276.15 L 2378.16,4274.43 L 2380.92,4271.67 L 2412.34,4258.48 L 2438.39,4232.48 L 2452.5,4198.48 L 2452.53,4161.68 L 2438.48,4127.66 L 2412.48,4101.61 L 2382.64,4089.22 L 2379.4,4087.05 L 2377.23,4083.81 L 2376.66,4081.93 L 2376.67,4078.03 L 2378.16,4074.43 L 2380.92,4071.67 L 2382.65,4070.75 L 2412.34,4058.48 L 2438.39,4032.48 L 2442.9,4021.6 L 2443.83,4019.87 L 2446.59,4017.12 L 2450.19,4015.63 L 2459.02,4015.43 L 2473.48,4012.56 L 2485.75,4004.36 L 2784.36,3705.76 L 2792.55,3693.49 L 2795.43,3679.02 L 2795.43,2698.82 L 2796.19,2694.99 L 2797.12,2693.27 L 2891.75,2598.36 L 2893.26,2597.12 L 2896.87,2595.63 L 3289.8,2595.63 L 3293.41,2597.12 L 3296.16,2599.89 L 3301.52,2612.34 L 3327.52,2638.39 L 3361.52,2652.5 L 3398.32,2652.54 L 3432.34,2638.48 L 3458.39,2612.48 L 3472.5,2578.48 L 3472.53,2541.68 L 3458.48,2507.66 L 3432.48,2481.61 L 3398.48,2467.5 L 3361.68,2467.47 L 3327.66,2481.52 L 3301.61,2507.52 L 3296.17,2520.13 L 3293.41,2522.89 L 3289.81,2524.38 L 2880.99,2524.57 L 2866.51,2527.44 L 2854.25,2535.64 L 2735.64,2654.25 L 2727.44,2666.52 L 2724.57,2680.98 L 2724.37,3663.13 L 2722.88,3666.74 L 2721.64,3668.25 L 2454.5,3935.12 L 2452.77,3936.05 L 2448.94,3936.8 L 2446.99,3936.61 L 2443.38,3935.12 L 2440.62,3932.35 L 2438.48,3927.66 L 2412.48,3901.61 L 2382.64,3889.22 L 2379.4,3887.05 L 2377.23,3883.81 L 2376.47,3879.98 L 2377.24,3876.15 L 2379.41,3872.91 L 2382.65,3870.75 L 2412.34,3858.48 L 2438.39,3832.48 L 2452.5,3798.48 L 2452.53,3761.68 L 2438.48,3727.66 L 2412.48,3701.61 L 2380.91,3688.3 L 2379.4,3687.05 L 2377.23,3683.81 L 2376.47,3679.98 L 2376.67,3678.03 L 2378.16,3674.43 L 2380.92,3671.67 L 2412.34,3658.48 L 2438.39,3632.48 L 2452.5,3598.48 L 2452.53,3561.68 L 2438.48,3527.66 L 2412.48,3501.61 L 2380.91,3488.3 L 2379.4,3487.05 L 2377.23,3483.81 L 2376.47,3479.98 L 2376.67,3478.03 L 2378.16,3474.43 L 2380.92,3471.67 L 2412.34,3458.48 L 2438.39,3432.48 L 2452.5,3398.48 L 2452.53,3361.68 L 2438.48,3327.66 L 2412.48,3301.61 L 2380.91,3288.3 L 2379.4,3287.05 L 2377.23,3283.81 L 2376.66,3281.93 L 2376.67,3278.03 L 2378.16,3274.43 L 2380.92,3271.67 L 2412.34,3258.48 L 2438.39,3232.48 L 2452.5,3198.48 L 2452.53,3161.71 L 2453.3,3157.89 L 2455.46,3154.65 L 2664.36,2945.76 L 2672.55,2933.49 L 2675.43,2919.02 L 2675.43,2478.82 L 2676.19,2474.99 L 2677.12,2473.27 L 2811.75,2338.36 L 2813.26,2337.12 L 2816.87,2335.63 L 3287.85,2335.43 L 3291.68,2336.2 L 3294.92,2338.37 L 3297.09,2341.62 L 3301.52,2352.34 L 3327.52,2378.39 L 3361.52,2392.5 L 3398.32,2392.54 L 3432.34,2378.48 L 3458.39,2352.48 L 3472.5,2318.48 L 3472.53,2281.68 L 3458.48,2247.66 L 3432.48,2221.61 L 3398.48,2207.5 L 3361.68,2207.47 L 3327.66,2221.52 L 3301.61,2247.52 L 3296.17,2260.13 L 3293.41,2262.89 L 3289.81,2264.38 L 2800.99,2264.57 L 2786.51,2267.44 L 2774.25,2275.64 L 2615.64,2434.25 L 2607.44,2446.52 L 2604.57,2460.98 L 2604.57,2901.18 L 2603.8,2905.01 L 2601.64,2908.25 L 2412.72,3096.9 L 2409.11,3098.39 L 2405.21,3098.39 L 2403.33,3097.82 L 2382.64,3089.22 L 2379.4,3087.05 L 2378.15,3085.54 L 2376.66,3081.93 L 2376.67,3078.03 L 2378.16,3074.43 L 2379.41,3072.91 L 2382.65,3070.75 L 2412.34,3058.48 L 2438.39,3032.48 L 2440.43,3027.55 L 2442.6,3024.31 L 2445.84,3022.15 L 2456.49,3019.83 L 2471.32,3009.93 L 2549.92,2931.32 L 2559.83,2916.5 L 2563.31,2899.02 L 2563.31,2402.08 L 2564.07,2398.26 L 2566.23,2395.01 L 2756.52,2204.99 L 2758.25,2204.07 L 2762.08,2203.31 L 2879.02,2203.31 L 2896.49,2199.83 L 2911.32,2189.93 L 3009.92,2091.32 L 3019.83,2076.5 L 3023.31,2059.02 L 3023.5,1820.56 L 3024.07,1818.69 L 3026.23,1815.44 L 3028.87,1813.6 L 3053.47,1789.04 L 3055.41,1786.23 L 3058.65,1784.07 L 3060.53,1783.5 L 3397.92,1783.31 L 3401.74,1784.07 L 3403.47,1784.99 L 3633.25,2014.62 L 3634.34,2016.4 L 3635.04,2018.37 L 3635.31,2020.45 L 3635.14,2022.53 L 3627.5,2041.52 L 3627.46,2078.32 L 3641.52,2112.34 L 3667.52,2138.39 L 3672.25,2140.56 L 3673.77,2141.81 L 3675.01,2143.32 L 3676.5,2146.92 L 3676.5,4419.87 L 3675.01,4423.48 L 3673.76,4424.99 L 3544.99,4553.77 L 3541.74,4555.93 L 3539.87,4556.5 L 3488.9,4556.69 L 3485.07,4555.93 L 3481.82,4553.76 L 3480.58,4552.24 L 3478.48,4547.66 L 3452.48,4521.61 L 3443.49,4517.67 L 3440.73,4514.92 L 3439.81,4513.19 L 3439.24,4511.31 L 3439.25,4507.41 L 3440.74,4503.81 L 3443.5,4501.05 L 3454.85,4496.14 L 3458.06,4486.35 L 3432.32,4460.61M 3460.51,3767.77 L 3462.94,3771.98 L 3467.39,3785.68 L 3468.9,3800 L 3467.39,3814.32 L 3462.94,3828.02 L 3460.51,3832.23 L 3486.35,3858.07 L 3495.88,3854.94 L 3509.73,3816.93 L 3507.85,3773.42 L 3496.14,3745.15 L 3486.35,3741.94 L 3460.51,3767.77M 3460.51,4367.77 L 3462.94,4371.98 L 3467.39,4385.68 L 3468.9,4400 L 3467.39,4414.32 L 3462.94,4428.02 L 3460.51,4432.23 L 3486.35,4458.07 L 3495.88,4454.94 L 3509.73,4416.93 L 3507.85,4373.42 L 3496.14,4345.15 L 3486.35,4341.94 L 3460.51,4367.77M 3460.51,4167.77 L 3462.94,4171.98 L 3467.39,4185.68 L 3468.9,4200 L 3467.39,4214.32 L 3462.94,4228.02 L 3460.51,4232.23 L 3486.35,4258.07 L 3495.88,4254.94 L 3509.73,4216.93 L 3507.85,4173.42 L 3496.14,4145.15 L 3486.35,4141.94 L 3460.51,4167.77M 3460.51,3967.77 L 3462.94,3971.98 L 3467.39,3985.68 L 3468.9,4000 L 3467.39,4014.32 L 3462.94,4028.02 L 3460.51,4032.23 L 3486.35,4058.07 L 3495.88,4054.94 L 3509.73,4016.93 L 3507.85,3973.42 L 3496.14,3945.15 L 3486.35,3941.94 L 3460.51,3967.77M 3139.49,3567.78 L 3113.65,3541.93 L 3104.11,3545.06 L 3090.26,3583.07 L 3092.15,3626.58 L 3103.86,3654.86 L 3113.65,3658.07 L 3139.49,3632.23 L 3137.06,3628.02 L 3132.61,3614.32 L 3131.1,3600 L 3132.61,3585.68 L 3137.06,3571.98 L 3139.49,3567.78M 3232.33,3539.39 L 3258.07,3513.65 L 3254.94,3504.12 L 3216.93,3490.27 L 3173.42,3492.15 L 3145.14,3503.86 L 3141.93,3513.65 L 3167.67,3539.39 L 3178.71,3534.48 L 3192.8,3531.48 L 3207.2,3531.48 L 3221.29,3534.48 L 3232.33,3539.39M 3460.51,3567.77 L 3462.94,3571.98 L 3467.39,3585.68 L 3468.9,3600 L 3467.39,3614.32 L 3462.94,3628.02 L 3460.51,3632.23 L 3486.35,3658.07 L 3495.88,3654.94 L 3509.73,3616.93 L 3507.85,3573.42 L 3496.14,3545.15 L 3486.35,3541.94 L 3460.51,3567.77M 3419.68,3665.86 L 3419.68,3734.13 L 3421.29,3734.48 L 3432.33,3739.39 L 3458.07,3713.65 L 3454.61,3703.12 L 3454.11,3700 L 3454.61,3696.88 L 3458.06,3686.35 L 3432.32,3660.61 L 3421.29,3665.52 L 3419.68,3665.86M 3419.68,4134.13 L 3421.29,4134.48 L 3432.33,4139.39 L 3458.07,4113.65 L 3454.61,4103.12 L 3454.11,4100 L 3454.61,4096.88 L 3458.06,4086.35 L 3432.32,4060.61 L 3421.29,4065.52 L 3419.68,4065.86 L 3419.68,4134.13M 3419.68,4334.13 L 3421.29,4334.48 L 3432.33,4339.39 L 3458.07,4313.65 L 3454.61,4303.12 L 3454.11,4300 L 3454.61,4296.88 L 3458.06,4286.35 L 3432.32,4260.61 L 3421.29,4265.52 L 3419.68,4265.86 L 3419.68,4334.13M 3419.68,3865.86 L 3419.68,3934.13 L 3421.29,3934.48 L 3432.33,3939.39 L 3458.07,3913.65 L 3454.61,3903.12 L 3454.11,3900 L 3454.61,3896.88 L 3458.06,3886.35 L 3432.32,3860.61 L 3421.29,3865.52 L 3419.68,3865.86M 3419.68,3491.27 L 3419.68,3534.13 L 3421.29,3534.48 L 3432.33,3539.39 L 3458.07,3513.65 L 3454.94,3504.12 L 3419.68,3491.27M 3380.32,3491.85 L 3373.42,3492.15 L 3345.14,3503.86 L 3341.93,3513.65 L 3367.67,3539.39 L 3378.71,3534.48 L 3380.32,3534.14 L 3380.32,3491.85M 3380.32,3665.87 L 3378.71,3665.52 L 3367.67,3660.61 L 3341.93,3686.35 L 3345.39,3696.88 L 3345.89,3700 L 3345.39,3703.12 L 3341.93,3713.65 L 3367.67,3739.39 L 3378.71,3734.48 L 3380.32,3734.14 L 3380.32,3665.87M 3380.32,4134.14 L 3380.32,4065.87 L 3378.71,4065.52 L 3367.67,4060.61 L 3341.93,4086.35 L 3345.39,4096.88 L 3345.89,4100 L 3345.39,4103.12 L 3341.93,4113.65 L 3367.67,4139.39 L 3378.71,4134.48 L 3380.32,4134.14M 3380.32,4334.14 L 3380.32,4265.87 L 3378.71,4265.52 L 3367.67,4260.61 L 3341.93,4286.35 L 3345.39,4296.88 L 3345.89,4300 L 3345.39,4303.12 L 3341.93,4313.65 L 3367.67,4339.39 L 3378.71,4334.48 L 3380.32,4334.14M 3380.32,3865.87 L 3378.71,3865.52 L 3367.67,3860.61 L 3341.93,3886.35 L 3345.39,3896.88 L 3345.89,3900 L 3345.39,3903.12 L 3341.93,3913.65 L 3367.67,3939.39 L 3378.71,3934.48 L 3380.32,3934.14 L 3380.32,3865.87M 3334.35,3619.68 L 3265.65,3619.68 L 3262.94,3628.02 L 3260.51,3632.23 L 3286.35,3658.07 L 3296.88,3654.61 L 3300,3654.11 L 3303.12,3654.61 L 3313.65,3658.07 L 3339.49,3632.23 L 3337.06,3628.02 L 3334.35,3619.68M 3334.35,3580.32 L 3337.06,3571.98 L 3339.49,3567.78 L 3313.65,3541.93 L 3303.12,3545.39 L 3300,3545.89 L 3296.88,3545.39 L 3286.35,3541.94 L 3260.51,3567.77 L 3262.94,3571.98 L 3265.65,3580.32 L 3334.35,3580.32 z " style="fill-opacity:1.000000;fill:rgb(242,251,227);stroke:rgb(0,0,0);stroke-width:2"/></g>
<g fill-rule="evenodd"><path d="M 1120.62,3123.92 L 1125.55,3120.33 L 1138.71,3114.48 L 1152.8,3111.48 L 1167.2,3111.48 L 1181.29,3114.48 L 1194.45,3120.33 L 1206.1,3128.8 L 1215.74,3139.5 L 1222.94,3151.98 L 1227.39,3165.68 L 1228.9,3180 L 1227.39,3194.32 L 1222.94,3208.02 L 1215.74,3220.5 L 1206.1,3231.2 L 1194.45,3239.67 L 1181.29,3245.52 L 1167.2,3248.52 L 1152.8,3248.52 L 1138.71,3245.52 L 1125.55,3239.67 L 1113.9,3231.2 L 1104.26,3220.5 L 1097.06,3208.02 L 1092.61,3194.32 L 1091.1,3180 L 1092.61,3165.68 L 1097.06,3151.98 L 1103.73,3140.43 L 931.648,2968.35 L 930.18,2966.56 L 929.088,2964.52 L 928.416,2962.31 L 928.19,2960 L 928.19,2824.89 L 815.106,2711.81 L 244.892,2711.81 L 111.81,2844.89 L 111.81,4235.11 L 204.89,4328.19 L 373.368,4328.19 L 374.172,4322.96 L 378.95,4310.05 L 386.228,4298.38 L 395.708,4288.41 L 407,4280.55 L 419.644,4275.12 L 433.122,4272.35 L 440,4272 L 453.688,4273.39 L 466.816,4277.51 L 478.846,4284.19 L 489.284,4293.15 L 497.706,4304.03 L 503.766,4316.38 L 507.214,4329.7 L 507.912,4343.44 L 505.828,4357.04 L 501.05,4369.95 L 493.772,4381.62 L 484.292,4391.59 L 473,4399.45 L 460.356,4404.88 L 446.878,4407.65 L 440,4408 L 426.312,4406.61 L 413.184,4402.49 L 401.154,4395.81 L 390.716,4386.85 L 382.294,4375.97 L 376.234,4363.62 L 373.178,4351.81 L 200,4351.81 L 197.694,4351.58 L 195.48,4350.91 L 193.438,4349.82 L 191.648,4348.35 L 91.648,4248.35 L 90.18,4246.56 L 89.088,4244.52 L 88.416,4242.31 L 88.19,4240 L 88.19,2840 L 88.416,2837.7 L 89.088,2835.48 L 90.178,2833.44 L 91.648,2831.65 L 231.648,2691.65 L 233.436,2690.18 L 235.478,2689.09 L 237.694,2688.42 L 240,2688.19 L 820,2688.19 L 822.304,2688.42 L 824.518,2689.09 L 826.56,2690.18 L 828.35,2691.65 L 948.35,2811.65 L 949.818,2813.44 L 950.91,2815.48 L 951.582,2817.7 L 951.81,2820 L 951.81,2955.11 L 1120.62,3123.92 z " style="fill-opacity:1.000000;fill:rgb(70,124,194);stroke:rgb(0,0,0);stroke-width:2"/></g>
<g fill-rule="evenodd"><path d="M 1120.62,4523.92 L 1125.55,4520.33 L 1138.71,4514.48 L 1152.8,4511.48 L 1167.2,4511.48 L 1181.29,4514.48 L 1194.45,4520.33 L 1206.1,4528.8 L 1215.74,4539.5 L 1222.94,4551.98 L 1227.39,4565.68 L 1228.9,4580 L 1227.39,4594.32 L 1222.94,4608.02 L 1215.74,4620.5 L 1206.1,4631.2 L 1194.45,4639.67 L 1181.29,4645.52 L 1167.2,4648.52 L 1152.8,4648.52 L 1138.71,4645.52 L 1125.55,4639.67 L 1113.9,4631.2 L 1104.26,4620.5 L 1097.06,4608.02 L 1092.61,4594.32 L 1091.1,4580 L 1092.61,4565.68 L 1097.06,4551.98 L 1103.73,4540.43 L 915.106,4351.81 L 706.632,4351.81 L 705.828,4357.04 L 701.05,4369.95 L 693.772,4381.62 L 684.292,4391.59 L 673,4399.45 L 660.356,4404.88 L 646.878,4407.65 L 640,4408 L 626.312,4406.61 L 613.184,4402.49 L 601.154,4395.81 L 590.716,4386.85 L 582.294,4375.97 L 576.234,4363.62 L 572.786,4350.3 L 572.088,4336.56 L 574.172,4322.96 L 578.95,4310.05 L 586.228,4298.38 L 595.708,4288.41 L 607,4280.55 L 619.644,4275.12 L 633.122,4272.35 L 640,4272 L 653.688,4273.39 L 666.816,4277.51 L 678.846,4284.19 L 689.284,4293.15 L 697.706,4304.03 L 703.766,4316.38 L 706.822,4328.19 L 920,4328.19 L 922.304,4328.42 L 924.518,4329.09 L 926.56,4330.18 L 928.35,4331.65 L 1120.62,4523.92 z " style="fill-opacity:1.000000;fill:rgb(84,248,27);stroke:rgb(0,0,0);stroke-width:2"/></g>
<g fill-rule="evenodd"><path d="M 706.632,4751.81 L 705.828,4757.04 L 701.05,4769.95 L 693.772,4781.62 L 684.292,4791.59 L 673,4799.45 L 660.356,4804.88 L 646.878,4807.65 L 640,4808 L 626.312,4806.61 L 613.184,4802.49 L 601.154,4795.81 L 590.716,4786.85 L 582.294,4775.97 L 576.234,4763.62 L 572.786,4750.3 L 572.088,4736.56 L 574.172,4722.96 L 578.95,4710.05 L 586.228,4698.38 L 595.708,4688.41 L 607,4680.55 L 619.644,4675.12 L 633.122,4672.35 L 640,4672 L 653.688,4673.39 L 666.816,4677.51 L 678.846,4684.19 L 689.284,4693.15 L 697.706,4704.03 L 703.766,4716.38 L 706.822,4728.19 L 840,4728.19 L 842.304,4728.42 L 844.518,4729.09 L 846.56,4730.18 L 848.35,4731.65 L 928.35,4811.65 L 929.818,4813.44 L 930.91,4815.48 L 931.582,4817.7 L 931.81,4820 L 931.81,5315.11 L 1064.89,5448.19 L 1392.34,5448.19 L 1392.61,5445.68 L 1397.06,5431.98 L 1404.26,5419.5 L 1413.9,5408.8 L 1425.55,5400.33 L 1438.71,5394.48 L 1452.8,5391.48 L 1467.2,5391.48 L 1481.29,5394.48 L 1494.45,5400.33 L 1506.1,5408.8 L 1515.74,5419.5 L 1522.94,5431.98 L 1527.39,5445.68 L 1528.9,5460 L 1527.39,5474.32 L 1522.94,5488.02 L 1515.74,5500.5 L 1506.1,5511.2 L 1494.45,5519.67 L 1481.29,5525.52 L 1467.2,5528.52 L 1452.8,5528.52 L 1438.71,5525.52 L 1425.55,5519.67 L 1413.9,5511.2 L 1404.26,5500.5 L 1397.06,5488.02 L 1392.61,5474.32 L 1392.35,5471.81 L 1060,5471.81 L 1057.69,5471.58 L 1055.48,5470.91 L 1053.44,5469.82 L 1051.65,5468.35 L 911.648,5328.35 L 910.18,5326.56 L 909.088,5324.52 L 908.416,5322.31 L 908.19,5320 L 908.19,4824.89 L 835.106,4751.81 L 706.632,4751.81 z " style="fill-opacity:1.000000;fill:rgb(232,231,141);stroke:rgb(0,0,0);stroke-width:2"/></g>
<g fill-rule="evenodd"><path d="M 1227.66,4791.81 L 1227.39,4794.32 L 1222.94,4808.02 L 1215.74,4820.5 L 1206.1,4831.2 L 1194.45,4839.67 L 1181.29,4845.52 L 1167.2,4848.52 L 1152.8,4848.52 L 1138.71,4845.52 L 1125.55,4839.67 L 1113.9,4831.2 L 1104.26,4820.5 L 1097.06,4808.02 L 1092.61,4794.32 L 1091.1,4780 L 1092.61,4765.68 L 1097.06,4751.98 L 1104.26,4739.5 L 1113.9,4728.8 L 1125.55,4720.33 L 1138.71,4714.48 L 1152.8,4711.48 L 1167.2,4711.48 L 1181.29,4714.48 L 1194.45,4720.33 L 1206.1,4728.8 L 1215.74,4739.5 L 1222.94,4751.98 L 1227.39,4765.68 L 1227.65,4768.19 L 1300,4768.19 L 1302.3,4768.42 L 1304.52,4769.09 L 1306.56,4770.18 L 1308.35,4771.65 L 2164.89,5628.19 L 4365.11,5628.19 L 4508.19,5485.11 L 4508.19,1161.79 L 4495.16,1157.89 L 4484.02,1151.7 L 4474.34,1143.4 L 4466.54,1133.32 L 4460.93,1121.88 L 4457.74,1109.54 L 4457.09,1096.81 L 4459.02,1084.21 L 4463.45,1072.26 L 4470.19,1061.44 L 4478.97,1052.21 L 4489.43,1044.92 L 4501.14,1039.9 L 4513.63,1037.33 L 4520,1037.01 L 4532.68,1038.3 L 4544.84,1042.11 L 4555.98,1048.3 L 4565.66,1056.6 L 4573.46,1066.68 L 4579.07,1078.12 L 4582.26,1090.46 L 4582.91,1103.19 L 4580.98,1115.79 L 4576.55,1127.74 L 4569.81,1138.56 L 4561.03,1147.79 L 4550.57,1155.08 L 4538.86,1160.1 L 4531.81,1161.55 L 4531.81,5490 L 4531.58,5492.31 L 4530.91,5494.52 L 4529.82,5496.56 L 4528.35,5498.35 L 4378.35,5648.35 L 4376.56,5649.82 L 4374.52,5650.91 L 4372.3,5651.58 L 4370,5651.81 L 2160,5651.81 L 2157.69,5651.58 L 2155.48,5650.91 L 2153.44,5649.82 L 2151.65,5648.35 L 1295.11,4791.81 L 1227.66,4791.81 z " style="fill-opacity:1.000000;fill:rgb(118,90,46);stroke:rgb(0,0,0);stroke-width:2"/></g>
<g fill-rule="evenodd"><path d="M 1227.66,4991.81 L 1227.39,4994.32 L 1222.94,5008.02 L 1215.74,5020.5 L 1206.1,5031.2 L 1194.45,5039.67 L 1181.29,5045.52 L 1167.2,5048.52 L 1152.8,5048.52 L 1138.71,5045.52 L 1125.55,5039.67 L 1113.9,5031.2 L 1104.26,5020.5 L 1097.06,5008.02 L 1092.61,4994.32 L 1091.1,4980 L 1092.61,4965.68 L 1097.06,4951.98 L 1104.26,4939.5 L 1113.9,4928.8 L 1125.55,4920.33 L 1138.71,4914.48 L 1152.8,4911.48 L 1167.2,4911.48 L 1181.29,4914.48 L 1194.45,4920.33 L 1206.1,4928.8 L 1215.74,4939.5 L 1222.94,4951.98 L 1227.39,4965.68 L 1227.65,4968.19 L 1320,4968.19 L 1322.3,4968.42 L 1324.52,4969.09 L 1326.56,4970.18 L 1328.35,4971.65 L 2124.89,5768.19 L 2852.34,5768.19 L 2852.61,5765.68 L 2857.06,5751.98 L 2864.26,5739.5 L 2873.9,5728.8 L 2885.55,5720.33 L 2898.71,5714.48 L 2912.8,5711.48 L 2927.2,5711.48 L 2941.29,5714.48 L 2954.45,5720.33 L 2966.1,5728.8 L 2975.74,5739.5 L 2982.94,5751.98 L 2987.39,5765.68 L 2988.9,5780 L 2987.39,5794.32 L 2982.94,5808.02 L 2975.74,5820.5 L 2966.1,5831.2 L 2954.45,5839.67 L 2941.29,5845.52 L 2927.2,5848.52 L 2912.8,5848.52 L 2898.71,5845.52 L 2885.55,5839.67 L 2873.9,5831.2 L 2864.26,5820.5 L 2857.06,5808.02 L 2852.61,5794.32 L 2852.35,5791.81 L 2120,5791.81 L 2117.69,5791.58 L 2115.48,5790.91 L 2113.44,5789.82 L 2111.65,5788.35 L 1315.11,4991.81 L 1227.66,4991.81 z " style="fill-opacity:1.000000;fill:rgb(99,51,159);stroke:rgb(0,0,0);stroke-width:2"/></g>
<g fill-rule="evenodd"><path d="M 1120.62,3723.92 L 1125.55,3720.33 L 1138.71,3714.48 L 1152.8,3711.48 L 1167.2,3711.48 L 1181.29,3714.48 L 1194.45,3720.33 L 1206.1,3728.8 L 1215.74,3739.5 L 1222.94,3751.98 L 1227.39,3765.68 L 1228.9,3780 L 1227.39,3794.32 L 1222.94,3808.02 L 1215.74,3820.5 L 1206.1,3831.2 L 1194.45,3839.67 L 1181.29,3845.52 L 1167.2,3848.52 L 1152.8,3848.52 L 1138.71,3845.52 L 1125.55,3839.67 L 1113.9,3831.2 L 1104.26,3820.5 L 1097.06,3808.02 L 1092.61,3794.32 L 1091.1,3780 L 1092.61,3765.68 L 1097.06,3751.98 L 1103.73,3740.43 L 771.648,3408.35 L 770.18,3406.56 L 769.088,3404.52 L 768.416,3402.31 L 768.19,3400 L 768.19,2964.89 L 695.106,2891.81 L 384.892,2891.81 L 291.81,2984.89 L 291.81,3675.11 L 344.89,3728.19 L 373.368,3728.19 L 374.172,3722.96 L 378.95,3710.05 L 386.228,3698.38 L 395.708,3688.41 L 407,3680.55 L 419.644,3675.12 L 433.122,3672.35 L 440,3672 L 453.688,3673.39 L 466.816,3677.51 L 478.846,3684.19 L 489.284,3693.15 L 497.706,3704.03 L 503.766,3716.38 L 507.214,3729.7 L 507.912,3743.44 L 505.828,3757.04 L 501.05,3769.95 L 493.772,3781.62 L 484.292,3791.59 L 473,3799.45 L 460.356,3804.88 L 446.878,3807.65 L 440,3808 L 426.312,3806.61 L 413.184,3802.49 L 401.154,3795.81 L 390.716,3786.85 L 382.294,3775.97 L 376.234,3763.62 L 373.178,3751.81 L 340,3751.81 L 337.694,3751.58 L 335.48,3750.91 L 333.438,3749.82 L 331.648,3748.35 L 271.648,3688.35 L 270.18,3686.56 L 269.088,3684.52 L 268.416,3682.31 L 268.19,3680 L 268.19,2980 L 268.416,2977.7 L 269.088,2975.48 L 270.178,2973.44 L 271.648,2971.65 L 371.648,2871.65 L 373.436,2870.18 L 375.478,2869.09 L 377.694,2868.42 L 380,2868.19 L 700,2868.19 L 702.304,2868.42 L 704.518,2869.09 L 706.56,2870.18 L 708.35,2871.65 L 788.35,2951.65 L 789.818,2953.44 L 790.91,2955.48 L 791.582,2957.7 L 791.81,2960 L 791.81,3395.11 L 1120.62,3723.92 z " style="fill-opacity:1.000000;fill:rgb(201,154,102);stroke:rgb(0,0,0);stroke-width:2"/></g>
<g fill-rule="evenodd"><path d="M 1120.62,3323.92 L 1125.55,3320.33 L 1138.71,3314.48 L 1152.8,3311.48 L 1167.2,3311.48 L 1181.29,3314.48 L 1194.45,3320.33 L 1206.1,3328.8 L 1215.74,3339.5 L 1222.94,3351.98 L 1227.39,3365.68 L 1228.9,3380 L 1227.39,3394.32 L 1222.94,3408.02 L 1215.74,3420.5 L 1206.1,3431.2 L 1194.45,3439.67 L 1181.29,3445.52 L 1167.2,3448.52 L 1152.8,3448.52 L 1138.71,3445.52 L 1125.55,3439.67 L 1113.9,3431.2 L 1104.26,3420.5 L 1097.06,3408.02 L 1092.61,3394.32 L 1091.1,3380 L 1092.61,3365.68 L 1097.06,3351.98 L 1103.73,3340.43 L 871.648,3108.35 L 870.18,3106.56 L 869.088,3104.52 L 868.416,3102.31 L 868.19,3100 L 868.19,2864.89 L 775.106,2771.81 L 284.892,2771.81 L 171.81,2884.89 L 171.81,4035.11 L 264.89,4128.19 L 373.368,4128.19 L 374.172,4122.96 L 378.95,4110.05 L 386.228,4098.38 L 395.708,4088.41 L 407,4080.55 L 419.644,4075.12 L 433.122,4072.35 L 440,4072 L 453.688,4073.39 L 466.816,4077.51 L 478.846,4084.19 L 489.284,4093.15 L 497.706,4104.03 L 503.766,4116.38 L 507.214,4129.7 L 507.912,4143.44 L 505.828,4157.04 L 501.05,4169.95 L 493.772,4181.62 L 484.292,4191.59 L 473,4199.45 L 460.356,4204.88 L 446.878,4207.65 L 440,4208 L 426.312,4206.61 L 413.184,4202.49 L 401.154,4195.81 L 390.716,4186.85 L 382.294,4175.97 L 376.234,4163.62 L 373.178,4151.81 L 260,4151.81 L 257.694,4151.58 L 255.48,4150.91 L 253.438,4149.82 L 251.648,4148.35 L 151.648,4048.35 L 150.18,4046.56 L 149.088,4044.52 L 148.416,4042.31 L 148.19,4040 L 148.19,2880 L 148.416,2877.7 L 149.088,2875.48 L 150.178,2873.44 L 151.648,2871.65 L 271.648,2751.65 L 273.436,2750.18 L 275.478,2749.09 L 277.694,2748.42 L 280,2748.19 L 780,2748.19 L 782.304,2748.42 L 784.518,2749.09 L 786.56,2750.18 L 788.35,2751.65 L 888.35,2851.65 L 889.818,2853.44 L 890.91,2855.48 L 891.582,2857.7 L 891.81,2860 L 891.81,3095.11 L 1120.62,3323.92 z " style="fill-opacity:1.000000;fill:rgb(50,13,183);stroke:rgb(0,0,0);stroke-width:2"/></g>
<g fill-rule="evenodd"><path d="M 1120.62,3523.92 L 1125.55,3520.33 L 1138.71,3514.48 L 1152.8,3511.48 L 1167.2,3511.48 L 1181.29,3514.48 L 1194.45,3520.33 L 1206.1,3528.8 L 1215.74,3539.5 L 1222.94,3551.98 L 1227.39,3565.68 L 1228.9,3580 L 1227.39,3594.32 L 1222.94,3608.02 L 1215.74,3620.5 L 1206.1,3631.2 L 1194.45,3639.67 L 1181.29,3645.52 L 1167.2,3648.52 L 1152.8,3648.52 L 1138.71,3645.52 L 1125.55,3639.67 L 1113.9,3631.2 L 1104.26,3620.5 L 1097.06,3608.02 L 1092.61,3594.32 L 1091.1,3580 L 1092.61,3565.68 L 1097.06,3551.98 L 1103.73,3540.43 L 818.892,3255.6 L 817.424,3253.81 L 816.332,3251.77 L 815.66,3249.55 L 815.434,3247.25 L 815.434,2912.14 L 735.106,2831.81 L 344.892,2831.81 L 244.564,2932.14 L 244.564,3847.86 L 324.888,3928.19 L 373.368,3928.19 L 374.172,3922.96 L 378.95,3910.05 L 386.228,3898.38 L 395.708,3888.41 L 407,3880.55 L 419.644,3875.12 L 433.122,3872.35 L 440,3872 L 453.688,3873.39 L 466.816,3877.51 L 478.846,3884.19 L 489.284,3893.15 L 497.706,3904.03 L 503.766,3916.38 L 507.214,3929.7 L 507.912,3943.44 L 505.828,3957.04 L 501.05,3969.95 L 493.772,3981.62 L 484.292,3991.59 L 473,3999.45 L 460.356,4004.88 L 446.878,4007.65 L 440,4008 L 426.312,4006.61 L 413.184,4002.49 L 401.154,3995.81 L 390.716,3986.85 L 382.294,3975.97 L 376.234,3963.62 L 373.178,3951.81 L 320,3951.81 L 317.694,3951.58 L 315.48,3950.91 L 313.438,3949.82 L 311.648,3948.35 L 224.402,3861.11 L 222.934,3859.32 L 221.842,3857.28 L 221.17,3855.06 L 220.944,3852.76 L 220.944,2927.25 L 221.17,2924.94 L 221.842,2922.73 L 222.932,2920.69 L 224.402,2918.9 L 331.648,2811.65 L 333.436,2810.18 L 335.478,2809.09 L 337.694,2808.42 L 340,2808.19 L 740,2808.19 L 742.304,2808.42 L 744.518,2809.09 L 746.56,2810.18 L 748.35,2811.65 L 835.594,2898.9 L 837.062,2900.69 L 838.154,2902.73 L 838.826,2904.94 L 839.054,2907.25 L 839.054,3242.35 L 1120.62,3523.92 z " style="fill-opacity:1.000000;fill:rgb(49,88,163);stroke:rgb(0,0,0);stroke-width:2"/></g>
<g fill-rule="evenodd"><path d="M 1120.62,4323.92 L 1125.55,4320.33 L 1138.71,4314.48 L 1152.8,4311.48 L 1167.2,4311.48 L 1181.29,4314.48 L 1194.45,4320.33 L 1206.1,4328.8 L 1215.74,4339.5 L 1222.94,4351.98 L 1227.39,4365.68 L 1228.9,4380 L 1227.39,4394.32 L 1222.94,4408.02 L 1215.74,4420.5 L 1206.1,4431.2 L 1194.45,4439.67 L 1181.29,4445.52 L 1167.2,4448.52 L 1152.8,4448.52 L 1138.71,4445.52 L 1125.55,4439.67 L 1113.9,4431.2 L 1104.26,4420.5 L 1097.06,4408.02 L 1092.61,4394.32 L 1091.1,4380 L 1092.61,4365.68 L 1097.06,4351.98 L 1103.73,4340.43 L 915.106,4151.81 L 706.632,4151.81 L 705.828,4157.04 L 701.05,4169.95 L 693.772,4181.62 L 684.292,4191.59 L 673,4199.45 L 660.356,4204.88 L 646.878,4207.65 L 640,4208 L 626.312,4206.61 L 613.184,4202.49 L 601.154,4195.81 L 590.716,4186.85 L 582.294,4175.97 L 576.234,4163.62 L 572.786,4150.3 L 572.088,4136.56 L 574.172,4122.96 L 578.95,4110.05 L 586.228,4098.38 L 595.708,4088.41 L 607,4080.55 L 619.644,4075.12 L 633.122,4072.35 L 640,4072 L 653.688,4073.39 L 666.816,4077.51 L 678.846,4084.19 L 689.284,4093.15 L 697.706,4104.03 L 703.766,4116.38 L 706.822,4128.19 L 920,4128.19 L 922.304,4128.42 L 924.518,4129.09 L 926.56,4130.18 L 928.35,4131.65 L 1120.62,4323.92 z " style="fill-opacity:1.000000;fill:rgb(90,37,93);stroke:rgb(0,0,0);stroke-width:2"/></g>
<g fill-rule="evenodd"><path d="M 1120.62,3923.92 L 1125.55,3920.33 L 1138.71,3914.48 L 1152.8,3911.48 L 1167.2,3911.48 L 1181.29,3914.48 L 1194.45,3920.33 L 1206.1,3928.8 L 1215.74,3939.5 L 1222.94,3951.98 L 1227.39,3965.68 L 1228.9,3980 L 1227.39,3994.32 L 1222.94,4008.02 L 1215.74,4020.5 L 1206.1,4031.2 L 1194.45,4039.67 L 1181.29,4045.52 L 1167.2,4048.52 L 1152.8,4048.52 L 1138.71,4045.52 L 1125.55,4039.67 L 1113.9,4031.2 L 1104.26,4020.5 L 1097.06,4008.02 L 1092.61,3994.32 L 1091.1,3980 L 1092.61,3965.68 L 1097.06,3951.98 L 1103.73,3940.43 L 915.106,3751.81 L 706.632,3751.81 L 705.828,3757.04 L 701.05,3769.95 L 693.772,3781.62 L 684.292,3791.59 L 673,3799.45 L 660.356,3804.88 L 646.878,3807.65 L 640,3808 L 626.312,3806.61 L 613.184,3802.49 L 601.154,3795.81 L 590.716,3786.85 L 582.294,3775.97 L 576.234,3763.62 L 572.786,3750.3 L 572.088,3736.56 L 574.172,3722.96 L 578.95,3710.05 L 586.228,3698.38 L 595.708,3688.41 L 607,3680.55 L 619.644,3675.12 L 633.122,3672.35 L 640,3672 L 653.688,3673.39 L 666.816,3677.51 L 678.846,3684.19 L 689.284,3693.15 L 697.706,3704.03 L 703.766,3716.38 L 706.822,3728.19 L 920,3728.19 L 922.304,3728.42 L 924.518,3729.09 L 926.56,3730.18 L 928.35,3731.65 L 1120.62,3923.92 z " style="fill-opacity:1.000000;fill:rgb(5,23,88);stroke:rgb(0,0,0);stroke-width:2"/></g>
<g fill-rule="evenodd"><path d="M 1120.62,4123.92 L 1125.55,4120.33 L 1138.71,4114.48 L 1152.8,4111.48 L 1167.2,4111.48 L 1181.29,4114.48 L 1194.45,4120.33 L 1206.1,4128.8 L 1215.74,4139.5 L 1222.94,4151.98 L 1227.39,4165.68 L 1228.9,4180 L 1227.39,4194.32 L 1222.94,4208.02 L 1215.74,4220.5 L 1206.1,4231.2 L 1194.45,4239.67 L 1181.29,4245.52 L 1167.2,4248.52 L 1152.8,4248.52 L 1138.71,4245.52 L 1125.55,4239.67 L 1113.9,4231.2 L 1104.26,4220.5 L 1097.06,4208.02 L 1092.61,4194.32 L 1091.1,4180 L 1092.61,4165.68 L 1097.06,4151.98 L 1103.73,4140.43 L 915.106,3951.81 L 706.632,3951.81 L 705.828,3957.04 L 701.05,3969.95 L 693.772,3981.62 L 684.292,3991.59 L 673,3999.45 L 660.356,4004.88 L 646.878,4007.65 L 640,4008 L 626.312,4006.61 L 613.184,4002.49 L 601.154,3995.81 L 590.716,3986.85 L 582.294,3975.97 L 576.234,3963.62 L 572.786,3950.3 L 572.088,3936.56 L 574.172,3922.96 L 578.95,3910.05 L 586.228,3898.38 L 595.708,3888.41 L 607,3880.55 L 619.644,3875.12 L 633.122,3872.35 L 640,3872 L 653.688,3873.39 L 666.816,3877.51 L 678.846,3884.19 L 689.284,3893.15 L 697.706,3904.03 L 703.766,3916.38 L 706.822,3928.19 L 920,3928.19 L 922.304,3928.42 L 924.518,3929.09 L 926.56,3930.18 L 928.35,3931.65 L 1120.62,4123.92 z " style="fill-opacity:1.000000;fill:rgb(233,94,212);stroke:rgb(0,0,0);stroke-width:2"/></g>
<g fill-rule="evenodd"><path d="M 1120.62,2323.92 L 1125.55,2320.33 L 1138.71,2314.48 L 1152.8,2311.48 L 1167.2,2311.48 L 1181.29,2314.48 L 1194.45,2320.33 L 1206.1,2328.8 L 1215.74,2339.5 L 1222.94,2351.98 L 1227.39,2365.68 L 1228.9,2380 L 1227.39,2394.32 L 1222.94,2408.02 L 1215.74,2420.5 L 1206.1,2431.2 L 1194.45,2439.67 L 1181.29,2445.52 L 1167.2,2448.52 L 1152.8,2448.52 L 1138.71,2445.52 L 1125.55,2439.67 L 1113.9,2431.2 L 1104.26,2420.5 L 1097.06,2408.02 L 1092.61,2394.32 L 1091.1,2380 L 1092.61,2365.68 L 1097.06,2351.98 L 1103.73,2340.43 L 935.106,2171.81 L 720,2171.81 L 717.694,2171.58 L 715.48,2170.91 L 713.438,2169.82 L 711.648,2168.35 L 423.516,1880.22 L 420.088,1889.48 L 412.924,1900.97 L 403.594,1910.78 L 392.48,1918.52 L 380.034,1923.86 L 366.77,1926.59 L 360,1926.93 L 346.528,1925.56 L 333.608,1921.51 L 321.768,1914.93 L 311.492,1906.11 L 303.202,1895.4 L 297.24,1883.25 L 293.844,1870.14 L 293.158,1856.61 L 295.21,1843.23 L 299.912,1830.53 L 307.076,1819.04 L 316.406,1809.22 L 327.52,1801.48 L 339.966,1796.14 L 353.23,1793.42 L 360,1793.07 L 373.472,1794.45 L 386.392,1798.5 L 398.232,1805.07 L 408.508,1813.89 L 416.798,1824.6 L 422.76,1836.76 L 426.16,1849.97 L 428.35,1851.65 L 724.888,2148.19 L 940,2148.19 L 942.304,2148.42 L 944.518,2149.09 L 946.56,2150.18 L 948.35,2151.65 L 1120.62,2323.92 z " style="fill-opacity:1.000000;fill:rgb(171,178,205);stroke:rgb(0,0,0);stroke-width:2"/></g>
<g fill-rule="evenodd"><path d="M 417.278,1693.98 L 412.924,1700.97 L 403.594,1710.78 L 392.48,1718.52 L 380.034,1723.86 L 366.77,1726.58 L 360,1726.93 L 346.528,1725.56 L 333.608,1721.5 L 321.768,1714.93 L 311.492,1706.11 L 303.202,1695.4 L 297.24,1683.24 L 293.844,1670.13 L 293.158,1656.61 L 295.21,1643.23 L 299.912,1630.53 L 307.076,1619.03 L 316.406,1609.22 L 327.52,1601.48 L 339.966,1596.14 L 353.23,1593.42 L 360,1593.07 L 373.472,1594.44 L 386.392,1598.5 L 398.232,1605.07 L 408.508,1613.89 L 416.798,1624.6 L 422.76,1636.76 L 426.156,1649.87 L 426.842,1663.39 L 425.946,1669.24 L 764.89,2008.19 L 1220,2008.19 L 1222.3,2008.42 L 1224.52,2009.09 L 1226.56,2010.18 L 1228.35,2011.65 L 1428.35,2211.65 L 1429.82,2213.44 L 1430.91,2215.48 L 1431.58,2217.7 L 1431.81,2220 L 1431.81,2500 L 1431.58,2502.31 L 1430.91,2504.52 L 1429.82,2506.56 L 1428.35,2508.35 L 1348.35,2588.35 L 1346.56,2589.82 L 1344.52,2590.91 L 1342.3,2591.58 L 1340,2591.81 L 1227.66,2591.81 L 1227.39,2594.32 L 1222.94,2608.02 L 1215.74,2620.5 L 1206.1,2631.2 L 1194.45,2639.67 L 1181.29,2645.52 L 1167.2,2648.52 L 1152.8,2648.52 L 1138.71,2645.52 L 1125.55,2639.67 L 1113.9,2631.2 L 1104.26,2620.5 L 1097.06,2608.02 L 1092.61,2594.32 L 1091.1,2580 L 1092.61,2565.68 L 1097.06,2551.98 L 1104.26,2539.5 L 1113.9,2528.8 L 1125.55,2520.33 L 1138.71,2514.48 L 1152.8,2511.48 L 1167.2,2511.48 L 1181.29,2514.48 L 1194.45,2520.33 L 1206.1,2528.8 L 1215.74,2539.5 L 1222.94,2551.98 L 1227.39,2565.68 L 1227.65,2568.19 L 1335.11,2568.19 L 1408.19,2495.11 L 1408.19,2224.89 L 1215.11,2031.81 L 760,2031.81 L 757.694,2031.58 L 755.48,2030.91 L 753.438,2029.82 L 751.648,2028.35 L 417.278,1693.98 z " style="fill-opacity:1.000000;fill:rgb(198,155,180);stroke:rgb(0,0,0);stroke-width:2"/></g>
<g fill-rule="evenodd"><path d="M 508,3520.32 L 575.148,3520.32 L 578.95,3510.05 L 586.228,3498.38 L 595.708,3488.41 L 607,3480.55 L 619.644,3475.12 L 633.122,3472.35 L 640,3472 L 653.688,3473.39 L 666.816,3477.51 L 678.846,3484.19 L 689.284,3493.15 L 697.706,3504.03 L 703.766,3516.38 L 707.214,3529.7 L 707.912,3543.44 L 705.828,3557.04 L 701.05,3569.95 L 693.772,3581.62 L 684.292,3591.59 L 673,3599.45 L 660.356,3604.88 L 646.878,3607.65 L 640,3608 L 626.312,3606.61 L 613.184,3602.49 L 601.154,3595.81 L 590.716,3586.85 L 582.294,3575.97 L 576.234,3563.62 L 575.218,3559.68 L 508,3559.68 L 508,3608 L 372,3608 L 372,3472 L 420.316,3472 L 420.316,3100 L 420.694,3096.16 L 421.814,3092.47 L 423.632,3089.07 L 426.08,3086.08 L 459.652,3052.51 L 457.06,3048.02 L 452.61,3034.32 L 451.104,3020 L 452.61,3005.68 L 457.06,2991.98 L 464.262,2979.5 L 473.9,2968.8 L 485.552,2960.33 L 498.71,2954.48 L 512.8,2951.48 L 527.2,2951.48 L 541.29,2954.48 L 554.448,2960.33 L 566.1,2968.8 L 575.738,2979.5 L 582.94,2991.98 L 587.39,3005.68 L 588.896,3020 L 587.39,3034.32 L 582.94,3048.02 L 575.738,3060.5 L 566.1,3071.2 L 554.448,3079.67 L 541.29,3085.52 L 527.2,3088.52 L 512.8,3088.52 L 498.71,3085.52 L 487.366,3080.47 L 459.684,3108.15 L 459.684,3472 L 508,3472 L 508,3520.32 z " style="fill-opacity:1.000000;fill:rgb(84,17,14);stroke:rgb(0,0,0);stroke-width:2"/></g>
<g fill-rule="evenodd"><path d="M 487.362,2299.53 L 498.71,2294.48 L 512.8,2291.48 L 527.2,2291.48 L 541.29,2294.48 L 554.448,2300.33 L 566.1,2308.8 L 575.738,2319.5 L 582.94,2331.98 L 585.648,2340.32 L 774.35,2340.32 L 777.06,2331.98 L 784.262,2319.5 L 793.9,2308.8 L 805.552,2300.33 L 818.71,2294.48 L 832.8,2291.48 L 847.2,2291.48 L 861.29,2294.48 L 874.448,2300.33 L 886.1,2308.8 L 895.738,2319.5 L 902.94,2331.98 L 907.39,2345.68 L 908.896,2360 L 907.39,2374.32 L 902.94,2388.02 L 895.738,2400.5 L 886.1,2411.2 L 874.448,2419.67 L 861.29,2425.52 L 847.2,2428.52 L 832.8,2428.52 L 818.71,2425.52 L 805.552,2419.67 L 793.9,2411.2 L 784.262,2400.5 L 777.06,2388.02 L 774.352,2379.68 L 585.65,2379.68 L 582.94,2388.02 L 575.738,2400.5 L 566.1,2411.2 L 554.448,2419.67 L 541.29,2425.52 L 527.2,2428.52 L 512.8,2428.52 L 498.71,2425.52 L 485.552,2419.67 L 473.9,2411.2 L 464.262,2400.5 L 457.06,2388.02 L 452.61,2374.32 L 451.104,2360 L 452.61,2345.68 L 457.06,2331.98 L 459.65,2327.49 L 346.08,2213.92 L 343.632,2210.94 L 341.814,2207.53 L 340.694,2203.84 L 340.316,2200 L 340.316,2123.61 L 333.608,2121.5 L 321.768,2114.93 L 311.492,2106.11 L 303.202,2095.4 L 297.24,2083.24 L 293.844,2070.13 L 293.158,2056.61 L 295.21,2043.23 L 299.912,2030.53 L 307.076,2019.03 L 316.406,2009.22 L 327.52,2001.48 L 339.966,1996.14 L 353.23,1993.42 L 360,1993.07 L 373.472,1994.44 L 386.392,1998.5 L 398.232,2005.07 L 408.508,2013.89 L 416.798,2024.6 L 422.76,2036.76 L 426.156,2049.87 L 426.842,2063.39 L 424.79,2076.77 L 420.088,2089.47 L 412.924,2100.97 L 403.594,2110.78 L 392.48,2118.52 L 379.684,2123.93 L 379.684,2191.85 L 487.362,2299.53 z " style="fill-opacity:1.000000;fill:rgb(130,116,65);stroke:rgb(0,0,0);stroke-width:2"/></g>
</svg>
