<?xml version="1.0" standalone="no"?>
<!DOCTYPE svg PUBLIC "-//W3C//DTD SVG 1.1//EN"
"http://www.w3.org/Graphics/SVG/1.1/DTD/svg11.dtd">
<svg width="7073" height="5533" viewBox="0 0 7073 5533" version="1.1"
xmlns="http://www.w3.org/2000/svg"
xmlns:xlink="http://www.w3.org/1999/xlink">
<g fill-rule="evenodd"><path d="M 5975.04,3304.81 L 5973.53,3319.13 L 5969.08,3332.83 L 5961.88,3345.3 L 5952.25,3356 L 5940.6,3364.46 L 5927.44,3370.32 L 5913.35,3373.32 L 5898.95,3373.32 L 5884.87,3370.32 L 5871.71,3364.46 L 5860.06,3356 L 5850.42,3345.3 L 5843.22,3332.83 L 5838.77,3319.13 L 5837.27,3304.81 L 5838.77,3290.49 L 5843.22,3276.79 L 5850.42,3264.32 L 5860.06,3253.61 L 5871.71,3245.15 L 5884.87,3239.29 L 5898.95,3236.3 L 5913.35,3236.3 L 5927.44,3239.29 L 5940.6,3245.15 L 5952.25,3253.61 L 5961.88,3264.32 L 5969.08,3276.79 L 5973.53,3290.49 L 5975.04,3304.81 z " style="fill-opacity:1.000000;fill:rgb(103,198,105);stroke:rgb(0,0,0);stroke-width:2"/></g>
<g fill-rule="evenodd"><path d="M 5975.04,3504.78 L 5973.53,3519.1 L 5969.08,3532.8 L 5961.88,3545.27 L 5952.25,3555.97 L 5940.6,3564.44 L 5927.44,3570.29 L 5913.35,3573.29 L 5898.95,3573.29 L 5884.87,3570.29 L 5871.71,3564.44 L 5860.06,3555.97 L 5850.42,3545.27 L 5843.22,3532.8 L 5838.77,3519.1 L 5837.27,3504.78 L 5838.77,3490.46 L 5843.22,3476.76 L 5850.42,3464.29 L 5860.06,3453.59 L 5871.71,3445.12 L 5884.87,3439.26 L 5898.95,3436.27 L 5913.35,3436.27 L 5927.44,3439.26 L 5940.6,3445.12 L 5952.25,3453.59 L 5961.88,3464.29 L 5969.08,3476.76 L 5973.53,3490.46 L 5975.04,3504.78 z " style="fill-opacity:1.000000;fill:rgb(115,81,255);stroke:rgb(0,0,0);stroke-width:2"/></g>
<g fill-rule="evenodd"><path d="M 5975.04,3904.72 L 5973.53,3919.04 L 5969.08,3932.74 L 5961.88,3945.21 L 5952.25,3955.91 L 5940.6,3964.38 L 5927.44,3970.23 L 5913.35,3973.23 L 5898.95,3973.23 L 5884.87,3970.23 L 5871.71,3964.38 L 5860.06,3955.91 L 5850.42,3945.21 L 5843.22,3932.74 L 5838.77,3919.04 L 5837.27,3904.72 L 5838.77,3890.4 L 5843.22,3876.7 L 5850.42,3864.23 L 5860.06,3853.53 L 5871.71,3845.06 L 5884.87,3839.2 L 5898.95,3836.21 L 5913.35,3836.21 L 5927.44,3839.2 L 5940.6,3845.06 L 5952.25,3853.53 L 5961.88,3864.23 L 5969.08,3876.7 L 5973.53,3890.4 L 5975.04,3904.72 z " style="fill-opacity:1.000000;fill:rgb(74,236,41);stroke:rgb(0,0,0);stroke-width:2"/></g>
<g fill-rule="evenodd"><path d="M 5975.04,3704.75 L 5973.53,3719.07 L 5969.08,3732.77 L 5961.88,3745.24 L 5952.25,3755.94 L 5940.6,3764.41 L 5927.44,3770.26 L 5913.35,3773.26 L 5898.95,3773.26 L 5884.87,3770.26 L 5871.71,3764.41 L 5860.06,3755.94 L 5850.42,3745.24 L 5843.22,3732.77 L 5838.77,3719.07 L 5837.27,3704.75 L 5838.77,3690.43 L 5843.22,3676.73 L 5850.42,3664.26 L 5860.06,3653.56 L 5871.71,3645.09 L 5884.87,3639.23 L 5898.95,3636.24 L 5913.35,3636.24 L 5927.44,3639.23 L 5940.6,3645.09 L 5952.25,3653.56 L 5961.88,3664.26 L 5969.08,3676.73 L 5973.53,3690.43 L 5975.04,3704.75 z " style="fill-opacity:1.000000;fill:rgb(205,186,171);stroke:rgb(0,0,0);stroke-width:2"/></g>
<g fill-rule="evenodd"><path d="M 5975.04,4304.66 L 5973.53,4318.98 L 5969.08,4332.68 L 5961.88,4345.15 L 5952.25,4355.85 L 5940.6,4364.32 L 5927.44,4370.18 L 5913.35,4373.17 L 5898.95,4373.17 L 5884.87,4370.18 L 5871.71,4364.32 L 5860.06,4355.85 L 5850.42,4345.15 L 5843.22,4332.68 L 5838.77,4318.98 L 5837.27,4304.66 L 5838.77,4290.34 L 5843.22,4276.64 L 5850.42,4264.17 L 5860.06,4253.47 L 5871.71,4245 L 5884.87,4239.15 L 5898.95,4236.15 L 5913.35,4236.15 L 5927.44,4239.15 L 5940.6,4245 L 5952.25,4253.47 L 5961.88,4264.17 L 5969.08,4276.64 L 5973.53,4290.34 L 5975.04,4304.66 z " style="fill-opacity:1.000000;fill:rgb(242,251,227);stroke:rgb(0,0,0);stroke-width:2"/></g>
<g fill-rule="evenodd"><path d="M 5975.04,4504.63 L 5973.53,4518.95 L 5969.08,4532.65 L 5961.88,4545.12 L 5952.25,4555.82 L 5940.6,4564.29 L 5927.44,4570.15 L 5913.35,4573.14 L 5898.95,4573.14 L 5884.87,4570.15 L 5871.71,4564.29 L 5860.06,4555.82 L 5850.42,4545.12 L 5843.22,4532.65 L 5838.77,4518.95 L 5837.27,4504.63 L 5838.77,4490.31 L 5843.22,4476.61 L 5850.42,4464.14 L 5860.06,4453.44 L 5871.71,4444.97 L 5884.87,4439.12 L 5898.95,4436.12 L 5913.35,4436.12 L 5927.44,4439.12 L 5940.6,4444.97 L 5952.25,4453.44 L 5961.88,4464.14 L 5969.08,4476.61 L 5973.53,4490.31 L 5975.04,4504.63 z " style="fill-opacity:1.000000;fill:rgb(70,124,194);stroke:rgb(0,0,0);stroke-width:2"/></g>
<g fill-rule="evenodd"><path d="M 5975.04,4104.69 L 5973.53,4119.01 L 5969.08,4132.71 L 5961.88,4145.18 L 5952.25,4155.88 L 5940.6,4164.35 L 5927.44,4170.2 L 5913.35,4173.2 L 5898.95,4173.2 L 5884.87,4170.2 L 5871.71,4164.35 L 5860.06,4155.88 L 5850.42,4145.18 L 5843.22,4132.71 L 5838.77,4119.01 L 5837.27,4104.69 L 5838.77,4090.37 L 5843.22,4076.67 L 5850.42,4064.2 L 5860.06,4053.5 L 5871.71,4045.03 L 5884.87,4039.18 L 5898.95,4036.18 L 5913.35,4036.18 L 5927.44,4039.18 L 5940.6,4045.03 L 5952.25,4053.5 L 5961.88,4064.2 L 5969.08,4076.67 L 5973.53,4090.37 L 5975.04,4104.69 z " style="fill-opacity:1.000000;fill:rgb(84,248,27);stroke:rgb(0,0,0);stroke-width:2"/></g>
<g fill-rule="evenodd"><path d="M 3175.45,4104.69 L 3173.94,4119.01 L 3169.49,4132.71 L 3162.29,4145.18 L 3152.66,4155.88 L 3141.01,4164.35 L 3127.85,4170.2 L 3113.76,4173.2 L 3099.36,4173.2 L 3085.28,4170.2 L 3072.12,4164.35 L 3060.47,4155.88 L 3050.83,4145.18 L 3043.63,4132.71 L 3039.18,4119.01 L 3037.68,4104.69 L 3039.18,4090.37 L 3043.63,4076.67 L 3050.83,4064.2 L 3060.47,4053.5 L 3072.12,4045.03 L 3085.28,4039.18 L 3099.36,4036.18 L 3113.76,4036.18 L 3127.85,4039.18 L 3141.01,4045.03 L 3152.66,4053.5 L 3162.29,4064.2 L 3169.49,4076.67 L 3173.94,4090.37 L 3175.45,4104.69 z " style="fill-opacity:1.000000;fill:rgb(232,231,141);stroke:rgb(0,0,0);stroke-width:2"/></g>
<g fill-rule="evenodd"><path d="M 2975.48,4104.69 L 2973.97,4119.01 L 2969.52,4132.71 L 2962.32,4145.18 L 2952.69,4155.88 L 2941.04,4164.35 L 2927.88,4170.2 L 2913.79,4173.2 L 2899.39,4173.2 L 2885.31,4170.2 L 2872.15,4164.35 L 2860.5,4155.88 L 2850.86,4145.18 L 2843.66,4132.71 L 2839.21,4119.01 L 2837.71,4104.69 L 2839.21,4090.37 L 2843.66,4076.67 L 2850.86,4064.2 L 2860.5,4053.5 L 2872.15,4045.03 L 2885.31,4039.18 L 2899.39,4036.18 L 2913.79,4036.18 L 2927.88,4039.18 L 2941.04,4045.03 L 2952.69,4053.5 L 2962.32,4064.2 L 2969.52,4076.67 L 2973.97,4090.37 L 2975.48,4104.69 z " style="fill-opacity:1.000000;fill:rgb(118,90,46);stroke:rgb(0,0,0);stroke-width:2"/></g>
<g fill-rule="evenodd"><path d="M 2975.48,4504.63 L 2973.97,4518.95 L 2969.52,4532.65 L 2962.32,4545.12 L 2952.69,4555.82 L 2941.04,4564.29 L 2927.88,4570.15 L 2913.79,4573.14 L 2899.39,4573.14 L 2885.31,4570.15 L 2872.15,4564.29 L 2860.5,4555.82 L 2850.86,4545.12 L 2843.66,4532.65 L 2839.21,4518.95 L 2837.71,4504.63 L 2839.21,4490.31 L 2843.66,4476.61 L 2850.86,4464.14 L 2860.5,4453.44 L 2872.15,4444.97 L 2885.31,4439.12 L 2899.39,4436.12 L 2913.79,4436.12 L 2927.88,4439.12 L 2941.04,4444.97 L 2952.69,4453.44 L 2962.32,4464.14 L 2969.52,4476.61 L 2973.97,4490.31 L 2975.48,4504.63 z " style="fill-opacity:1.000000;fill:rgb(99,51,159);stroke:rgb(0,0,0);stroke-width:2"/></g>
<g fill-rule="evenodd"><path d="M 3175.45,4504.63 L 3173.94,4518.95 L 3169.49,4532.65 L 3162.29,4545.12 L 3152.66,4555.82 L 3141.01,4564.29 L 3127.85,4570.15 L 3113.76,4573.14 L 3099.36,4573.14 L 3085.28,4570.15 L 3072.12,4564.29 L 3060.47,4555.82 L 3050.83,4545.12 L 3043.63,4532.65 L 3039.18,4518.95 L 3037.68,4504.63 L 3039.18,4490.31 L 3043.63,4476.61 L 3050.83,4464.14 L 3060.47,4453.44 L 3072.12,4444.97 L 3085.28,4439.12 L 3099.36,4436.12 L 3113.76,4436.12 L 3127.85,4439.12 L 3141.01,4444.97 L 3152.66,4453.44 L 3162.29,4464.14 L 3169.49,4476.61 L 3173.94,4490.31 L 3175.45,4504.63 z " style="fill-opacity:1.000000;fill:rgb(201,154,102);stroke:rgb(0,0,0);stroke-width:2"/></g>
<g fill-rule="evenodd"><path d="M 3175.45,4304.66 L 3173.94,4318.98 L 3169.49,4332.68 L 3162.29,4345.15 L 3152.66,4355.85 L 3141.01,4364.32 L 3127.85,4370.18 L 3113.76,4373.17 L 3099.36,4373.17 L 3085.28,4370.18 L 3072.12,4364.32 L 3060.47,4355.85 L 3050.83,4345.15 L 3043.63,4332.68 L 3039.18,4318.98 L 3037.68,4304.66 L 3039.18,4290.34 L 3043.63,4276.64 L 3050.83,4264.17 L 3060.47,4253.47 L 3072.12,4245 L 3085.28,4239.15 L 3099.36,4236.15 L 3113.76,4236.15 L 3127.85,4239.15 L 3141.01,4245 L 3152.66,4253.47 L 3162.29,4264.17 L 3169.49,4276.64 L 3173.94,4290.34 L 3175.45,4304.66 z " style="fill-opacity:1.000000;fill:rgb(50,13,183);stroke:rgb(0,0,0);stroke-width:2"/></g>
<g fill-rule="evenodd"><path d="M 2975.48,4304.66 L 2973.97,4318.98 L 2969.52,4332.68 L 2962.32,4345.15 L 2952.69,4355.85 L 2941.04,4364.32 L 2927.88,4370.18 L 2913.79,4373.17 L 2899.39,4373.17 L 2885.31,4370.18 L 2872.15,4364.32 L 2860.5,4355.85 L 2850.86,4345.15 L 2843.66,4332.68 L 2839.21,4318.98 L 2837.71,4304.66 L 2839.21,4290.34 L 2843.66,4276.64 L 2850.86,4264.17 L 2860.5,4253.47 L 2872.15,4245 L 2885.31,4239.15 L 2899.39,4236.15 L 2913.79,4236.15 L 2927.88,4239.15 L 2941.04,4245 L 2952.69,4253.47 L 2962.32,4264.17 L 2969.52,4276.64 L 2973.97,4290.34 L 2975.48,4304.66 z " style="fill-opacity:1.000000;fill:rgb(49,88,163);stroke:rgb(0,0,0);stroke-width:2"/></g>
<g fill-rule="evenodd"><path d="M 2975.48,3704.75 L 2973.97,3719.07 L 2969.52,3732.77 L 2962.32,3745.24 L 2952.69,3755.94 L 2941.04,3764.41 L 2927.88,3770.26 L 2913.79,3773.26 L 2899.39,3773.26 L 2885.31,3770.26 L 2872.15,3764.41 L 2860.5,3755.94 L 2850.86,3745.24 L 2843.66,3732.77 L 2839.21,3719.07 L 2837.71,3704.75 L 2839.21,3690.43 L 2843.66,3676.73 L 2850.86,3664.26 L 2860.5,3653.56 L 2872.15,3645.09 L 2885.31,3639.23 L 2899.39,3636.24 L 2913.79,3636.24 L 2927.88,3639.23 L 2941.04,3645.09 L 2952.69,3653.56 L 2962.32,3664.26 L 2969.52,3676.73 L 2973.97,3690.43 L 2975.48,3704.75 z " style="fill-opacity:1.000000;fill:rgb(90,37,93);stroke:rgb(0,0,0);stroke-width:2"/></g>
<g fill-rule="evenodd"><path d="M 3175.45,3704.75 L 3173.94,3719.07 L 3169.49,3732.77 L 3162.29,3745.24 L 3152.66,3755.94 L 3141.01,3764.41 L 3127.85,3770.26 L 3113.76,3773.26 L 3099.36,3773.26 L 3085.28,3770.26 L 3072.12,3764.41 L 3060.47,3755.94 L 3050.83,3745.24 L 3043.63,3732.77 L 3039.18,3719.07 L 3037.68,3704.75 L 3039.18,3690.43 L 3043.63,3676.73 L 3050.83,3664.26 L 3060.47,3653.56 L 3072.12,3645.09 L 3085.28,3639.23 L 3099.36,3636.24 L 3113.76,3636.24 L 3127.85,3639.23 L 3141.01,3645.09 L 3152.66,3653.56 L 3162.29,3664.26 L 3169.49,3676.73 L 3173.94,3690.43 L 3175.45,3704.75 z " style="fill-opacity:1.000000;fill:rgb(5,23,88);stroke:rgb(0,0,0);stroke-width:2"/></g>
<g fill-rule="evenodd"><path d="M 3175.45,3904.72 L 3173.94,3919.04 L 3169.49,3932.74 L 3162.29,3945.21 L 3152.66,3955.91 L 3141.01,3964.38 L 3127.85,3970.23 L 3113.76,3973.23 L 3099.36,3973.23 L 3085.28,3970.23 L 3072.12,3964.38 L 3060.47,3955.91 L 3050.83,3945.21 L 3043.63,3932.74 L 3039.18,3919.04 L 3037.68,3904.72 L 3039.18,3890.4 L 3043.63,3876.7 L 3050.83,3864.23 L 3060.47,3853.53 L 3072.12,3845.06 L 3085.28,3839.2 L 3099.36,3836.21 L 3113.76,3836.21 L 3127.85,3839.2 L 3141.01,3845.06 L 3152.66,3853.53 L 3162.29,3864.23 L 3169.49,3876.7 L 3173.94,3890.4 L 3175.45,3904.72 z " style="fill-opacity:1.000000;fill:rgb(233,94,212);stroke:rgb(0,0,0);stroke-width:2"/></g>
<g fill-rule="evenodd"><path d="M 2975.48,3904.72 L 2973.97,3919.04 L 2969.52,3932.74 L 2962.32,3945.21 L 2952.69,3955.91 L 2941.04,3964.38 L 2927.88,3970.23 L 2913.79,3973.23 L 2899.39,3973.23 L 2885.31,3970.23 L 2872.15,3964.38 L 2860.5,3955.91 L 2850.86,3945.21 L 2843.66,3932.74 L 2839.21,3919.04 L 2837.71,3904.72 L 2839.21,3890.4 L 2843.66,3876.7 L 2850.86,3864.23 L 2860.5,3853.53 L 2872.15,3845.06 L 2885.31,3839.2 L 2899.39,3836.21 L 2913.79,3836.21 L 2927.88,3839.2 L 2941.04,3845.06 L 2952.69,3853.53 L 2962.32,3864.23 L 2969.52,3876.7 L 2973.97,3890.4 L 2975.48,3904.72 z " style="fill-opacity:1.000000;fill:rgb(171,178,205);stroke:rgb(0,0,0);stroke-width:2"/></g>
<g fill-rule="evenodd"><path d="M 2975.48,3504.78 L 2973.97,3519.1 L 2969.52,3532.8 L 2962.32,3545.27 L 2952.69,3555.97 L 2941.04,3564.44 L 2927.88,3570.29 L 2913.79,3573.29 L 2899.39,3573.29 L 2885.31,3570.29 L 2872.15,3564.44 L 2860.5,3555.97 L 2850.86,3545.27 L 2843.66,3532.8 L 2839.21,3519.1 L 2837.71,3504.78 L 2839.21,3490.46 L 2843.66,3476.76 L 2850.86,3464.29 L 2860.5,3453.59 L 2872.15,3445.12 L 2885.31,3439.26 L 2899.39,3436.27 L 2913.79,3436.27 L 2927.88,3439.26 L 2941.04,3445.12 L 2952.69,3453.59 L 2962.32,3464.29 L 2969.52,3476.76 L 2973.97,3490.46 L 2975.48,3504.78 z " style="fill-opacity:1.000000;fill:rgb(198,155,180);stroke:rgb(0,0,0);stroke-width:2"/></g>
<g fill-rule="evenodd"><path d="M 3175.45,3504.78 L 3173.94,3519.1 L 3169.49,3532.8 L 3162.29,3545.27 L 3152.66,3555.97 L 3141.01,3564.44 L 3127.85,3570.29 L 3113.76,3573.29 L 3099.36,3573.29 L 3085.28,3570.29 L 3072.12,3564.44 L 3060.47,3555.97 L 3050.83,3545.27 L 3043.63,3532.8 L 3039.18,3519.1 L 3037.68,3504.78 L 3039.18,3490.46 L 3043.63,3476.76 L 3050.83,3464.29 L 3060.47,3453.59 L 3072.12,3445.12 L 3085.28,3439.26 L 3099.36,3436.27 L 3113.76,3436.27 L 3127.85,3439.26 L 3141.01,3445.12 L 3152.66,3453.59 L 3162.29,3464.29 L 3169.49,3476.76 L 3173.94,3490.46 L 3175.45,3504.78 z " style="fill-opacity:1.000000;fill:rgb(84,17,14);stroke:rgb(0,0,0);stroke-width:2"/></g>
<g fill-rule="evenodd"><path d="M 3175.45,3304.81 L 3173.94,3319.13 L 3169.49,3332.83 L 3162.29,3345.3 L 3152.66,3356 L 3141.01,3364.46 L 3127.85,3370.32 L 3113.76,3373.32 L 3099.36,3373.32 L 3085.28,3370.32 L 3072.12,3364.46 L 3060.47,3356 L 3050.83,3345.3 L 3043.63,3332.83 L 3039.18,3319.13 L 3037.68,3304.81 L 3039.18,3290.49 L 3043.63,3276.79 L 3050.83,3264.32 L 3060.47,3253.61 L 3072.12,3245.15 L 3085.28,3239.29 L 3099.36,3236.3 L 3113.76,3236.3 L 3127.85,3239.29 L 3141.01,3245.15 L 3152.66,3253.61 L 3162.29,3264.32 L 3169.49,3276.79 L 3173.94,3290.49 L 3175.45,3304.81 z " style="fill-opacity:1.000000;fill:rgb(130,116,65);stroke:rgb(0,0,0);stroke-width:2"/></g>
<g fill-rule="evenodd"><path d="M 2975.48,3304.81 L 2973.97,3319.13 L 2969.52,3332.83 L 2962.32,3345.3 L 2952.69,3356 L 2941.04,3364.46 L 2927.88,3370.32 L 2913.79,3373.32 L 2899.39,3373.32 L 2885.31,3370.32 L 2872.15,3364.46 L 2860.5,3356 L 2850.86,3345.3 L 2843.66,3332.83 L 2839.21,3319.13 L 2837.71,3304.81 L 2839.21,3290.49 L 2843.66,3276.79 L 2850.86,3264.32 L 2860.5,3253.61 L 2872.15,3245.15 L 2885.31,3239.29 L 2899.39,3236.3 L 2913.79,3236.3 L 2927.88,3239.29 L 2941.04,3245.15 L 2952.69,3253.61 L 2962.32,3264.32 L 2969.52,3276.79 L 2973.97,3290.49 L 2975.48,3304.81 z " style="fill-opacity:1.000000;fill:rgb(33,61,220);stroke:rgb(0,0,0);stroke-width:2"/></g>
<g fill-rule="evenodd"><path d="M 1015.77,2284.96 L 1014.26,2299.28 L 1009.81,2312.97 L 1002.61,2325.45 L 992.972,2336.15 L 981.322,2344.61 L 968.166,2350.47 L 954.078,2353.46 L 939.68,2353.46 L 925.592,2350.47 L 912.436,2344.61 L 900.786,2336.15 L 891.149,2325.45 L 883.948,2312.97 L 879.499,2299.28 L 877.993,2284.96 L 879.499,2270.63 L 883.948,2256.94 L 891.149,2244.47 L 900.786,2233.76 L 912.436,2225.3 L 925.592,2219.44 L 939.68,2216.45 L 954.078,2216.45 L 968.166,2219.44 L 981.322,2225.3 L 992.972,2233.76 L 1002.61,2244.47 L 1009.81,2256.94 L 1014.26,2270.63 L 1015.77,2284.96 z " style="fill-opacity:1.000000;fill:rgb(135,112,233);stroke:rgb(0,0,0);stroke-width:2"/></g>
<g fill-rule="evenodd"><path d="M 1015.77,2484.93 L 1014.26,2499.25 L 1009.81,2512.95 L 1002.61,2525.42 L 992.972,2536.12 L 981.322,2544.58 L 968.166,2550.44 L 954.078,2553.44 L 939.68,2553.44 L 925.592,2550.44 L 912.436,2544.58 L 900.786,2536.12 L 891.149,2525.42 L 883.948,2512.95 L 879.499,2499.25 L 877.993,2484.93 L 879.499,2470.61 L 883.948,2456.91 L 891.149,2444.44 L 900.786,2433.73 L 912.436,2425.27 L 925.592,2419.41 L 939.68,2416.42 L 954.078,2416.42 L 968.166,2419.41 L 981.322,2425.27 L 992.972,2433.73 L 1002.61,2444.44 L 1009.81,2456.91 L 1014.26,2470.61 L 1015.77,2484.93 z " style="fill-opacity:1.000000;fill:rgb(62,161,65);stroke:rgb(0,0,0);stroke-width:2"/></g>
<g fill-rule="evenodd"><path d="M 1015.77,2684.9 L 1014.26,2699.22 L 1009.81,2712.92 L 1002.61,2725.39 L 992.972,2736.09 L 981.322,2744.56 L 968.166,2750.41 L 954.078,2753.41 L 939.68,2753.41 L 925.592,2750.41 L 912.436,2744.56 L 900.786,2736.09 L 891.149,2725.39 L 883.948,2712.92 L 879.499,2699.22 L 877.993,2684.9 L 879.499,2670.58 L 883.948,2656.88 L 891.149,2644.41 L 900.786,2633.71 L 912.436,2625.24 L 925.592,2619.38 L 939.68,2616.39 L 954.078,2616.39 L 968.166,2619.38 L 981.322,2625.24 L 992.972,2633.71 L 1002.61,2644.41 L 1009.81,2656.88 L 1014.26,2670.58 L 1015.77,2684.9 z " style="fill-opacity:1.000000;fill:rgb(225,252,103);stroke:rgb(0,0,0);stroke-width:2"/></g>
<g fill-rule="evenodd"><path d="M 1015.77,2884.87 L 1014.26,2899.19 L 1009.81,2912.89 L 1002.61,2925.36 L 992.972,2936.06 L 981.322,2944.53 L 968.166,2950.38 L 954.078,2953.38 L 939.68,2953.38 L 925.592,2950.38 L 912.436,2944.53 L 900.786,2936.06 L 891.149,2925.36 L 883.948,2912.89 L 879.499,2899.19 L 877.993,2884.87 L 879.499,2870.55 L 883.948,2856.85 L 891.149,2844.38 L 900.786,2833.68 L 912.436,2825.21 L 925.592,2819.35 L 939.68,2816.36 L 954.078,2816.36 L 968.166,2819.35 L 981.322,2825.21 L 992.972,2833.68 L 1002.61,2844.38 L 1009.81,2856.85 L 1014.26,2870.55 L 1015.77,2884.87 z " style="fill-opacity:1.000000;fill:rgb(62,1,126);stroke:rgb(0,0,0);stroke-width:2"/></g>
<g fill-rule="evenodd"><path d="M 1015.77,3084.84 L 1014.26,3099.16 L 1009.81,3112.86 L 1002.61,3125.33 L 992.972,3136.03 L 981.322,3144.5 L 968.166,3150.35 L 954.078,3153.35 L 939.68,3153.35 L 925.592,3150.35 L 912.436,3144.5 L 900.786,3136.03 L 891.149,3125.33 L 883.948,3112.86 L 879.499,3099.16 L 877.993,3084.84 L 879.499,3070.52 L 883.948,3056.82 L 891.149,3044.35 L 900.786,3033.65 L 912.436,3025.18 L 925.592,3019.32 L 939.68,3016.33 L 954.078,3016.33 L 968.166,3019.32 L 981.322,3025.18 L 992.972,3033.65 L 1002.61,3044.35 L 1009.81,3056.82 L 1014.26,3070.52 L 1015.77,3084.84 z " style="fill-opacity:1.000000;fill:rgb(151,234,220);stroke:rgb(0,0,0);stroke-width:2"/></g>
<g fill-rule="evenodd"><path d="M 1015.77,3284.81 L 1014.26,3299.13 L 1009.81,3312.83 L 1002.61,3325.3 L 992.972,3336 L 981.322,3344.47 L 968.166,3350.32 L 954.078,3353.32 L 939.68,3353.32 L 925.592,3350.32 L 912.436,3344.47 L 900.786,3336 L 891.149,3325.3 L 883.948,3312.83 L 879.499,3299.13 L 877.993,3284.81 L 879.499,3270.49 L 883.948,3256.79 L 891.149,3244.32 L 900.786,3233.62 L 912.436,3225.15 L 925.592,3219.3 L 939.68,3216.3 L 954.078,3216.3 L 968.166,3219.3 L 981.322,3225.15 L 992.972,3233.62 L 1002.61,3244.32 L 1009.81,3256.79 L 1014.26,3270.49 L 1015.77,3284.81 z " style="fill-opacity:1.000000;fill:rgb(107,150,143);stroke:rgb(0,0,0);stroke-width:2"/></g>
<g fill-rule="evenodd"><path d="M 1015.77,3484.78 L 1014.26,3499.1 L 1009.81,3512.8 L 1002.61,3525.27 L 992.972,3535.97 L 981.322,3544.44 L 968.166,3550.3 L 954.078,3553.29 L 939.68,3553.29 L 925.592,3550.3 L 912.436,3544.44 L 900.786,3535.97 L 891.149,3525.27 L 883.948,3512.8 L 879.499,3499.1 L 877.993,3484.78 L 879.499,3470.46 L 883.948,3456.76 L 891.149,3444.29 L 900.786,3433.59 L 912.436,3425.12 L 925.592,3419.27 L 939.68,3416.27 L 954.078,3416.27 L 968.166,3419.27 L 981.322,3425.12 L 992.972,3433.59 L 1002.61,3444.29 L 1009.81,3456.76 L 1014.26,3470.46 L 1015.77,3484.78 z " style="fill-opacity:1.000000;fill:rgb(56,92,42);stroke:rgb(0,0,0);stroke-width:2"/></g>
<g fill-rule="evenodd"><path d="M 1015.77,3684.75 L 1014.26,3699.07 L 1009.81,3712.77 L 1002.61,3725.24 L 992.972,3735.94 L 981.322,3744.41 L 968.166,3750.27 L 954.078,3753.26 L 939.68,3753.26 L 925.592,3750.27 L 912.436,3744.41 L 900.786,3735.94 L 891.149,3725.24 L 883.948,3712.77 L 879.499,3699.07 L 877.993,3684.75 L 879.499,3670.43 L 883.948,3656.73 L 891.149,3644.26 L 900.786,3633.56 L 912.436,3625.09 L 925.592,3619.24 L 939.68,3616.24 L 954.078,3616.24 L 968.166,3619.24 L 981.322,3625.09 L 992.972,3633.56 L 1002.61,3644.26 L 1009.81,3656.73 L 1014.26,3670.43 L 1015.77,3684.75 z " style="fill-opacity:1.000000;fill:rgb(236,176,59);stroke:rgb(0,0,0);stroke-width:2"/></g>
<g fill-rule="evenodd"><path d="M 1015.77,3884.72 L 1014.26,3899.04 L 1009.81,3912.74 L 1002.61,3925.21 L 992.972,3935.91 L 981.322,3944.38 L 968.166,3950.24 L 954.078,3953.23 L 939.68,3953.23 L 925.592,3950.24 L 912.436,3944.38 L 900.786,3935.91 L 891.149,3925.21 L 883.948,3912.74 L 879.499,3899.04 L 877.993,3884.72 L 879.499,3870.4 L 883.948,3856.7 L 891.149,3844.23 L 900.786,3833.53 L 912.436,3825.07 L 925.592,3819.21 L 939.68,3816.21 L 954.078,3816.21 L 968.166,3819.21 L 981.322,3825.07 L 992.972,3833.53 L 1002.61,3844.23 L 1009.81,3856.7 L 1014.26,3870.4 L 1015.77,3884.72 z " style="fill-opacity:1.000000;fill:rgb(251,50,175);stroke:rgb(0,0,0);stroke-width:2"/></g>
<g fill-rule="evenodd"><path d="M 1015.77,4084.69 L 1014.26,4099.01 L 1009.81,4112.71 L 1002.61,4125.18 L 992.972,4135.89 L 981.322,4144.35 L 968.166,4150.21 L 954.078,4153.2 L 939.68,4153.2 L 925.592,4150.21 L 912.436,4144.35 L 900.786,4135.89 L 891.149,4125.18 L 883.948,4112.71 L 879.499,4099.01 L 877.993,4084.69 L 879.499,4070.37 L 883.948,4056.68 L 891.149,4044.2 L 900.786,4033.5 L 912.436,4025.04 L 925.592,4019.18 L 939.68,4016.19 L 954.078,4016.19 L 968.166,4019.18 L 981.322,4025.04 L 992.972,4033.5 L 1002.61,4044.2 L 1009.81,4056.68 L 1014.26,4070.37 L 1015.77,4084.69 z " style="fill-opacity:1.000000;fill:rgb(60,84,236);stroke:rgb(0,0,0);stroke-width:2"/></g>
<g fill-rule="evenodd"><path d="M 1015.77,4284.66 L 1014.26,4298.99 L 1009.81,4312.68 L 1002.61,4325.15 L 992.972,4335.86 L 981.322,4344.32 L 968.166,4350.18 L 954.078,4353.17 L 939.68,4353.17 L 925.592,4350.18 L 912.436,4344.32 L 900.786,4335.86 L 891.149,4325.15 L 883.948,4312.68 L 879.499,4298.99 L 877.993,4284.66 L 879.499,4270.34 L 883.948,4256.65 L 891.149,4244.17 L 900.786,4233.47 L 912.436,4225.01 L 925.592,4219.15 L 939.68,4216.16 L 954.078,4216.16 L 968.166,4219.15 L 981.322,4225.01 L 992.972,4233.47 L 1002.61,4244.17 L 1009.81,4256.65 L 1014.26,4270.34 L 1015.77,4284.66 z " style="fill-opacity:1.000000;fill:rgb(24,219,92);stroke:rgb(0,0,0);stroke-width:2"/></g>
<g fill-rule="evenodd"><path d="M 1015.77,4484.63 L 1014.26,4498.96 L 1009.81,4512.65 L 1002.61,4525.12 L 992.972,4535.83 L 981.322,4544.29 L 968.166,4550.15 L 954.078,4553.14 L 939.68,4553.14 L 925.592,4550.15 L 912.436,4544.29 L 900.786,4535.83 L 891.149,4525.12 L 883.948,4512.65 L 879.499,4498.96 L 877.993,4484.63 L 879.499,4470.31 L 883.948,4456.62 L 891.149,4444.14 L 900.786,4433.44 L 912.436,4424.98 L 925.592,4419.12 L 939.68,4416.13 L 954.078,4416.13 L 968.166,4419.12 L 981.322,4424.98 L 992.972,4433.44 L 1002.61,4444.14 L 1009.81,4456.62 L 1014.26,4470.31 L 1015.77,4484.63 z " style="fill-opacity:1.000000;fill:rgb(2,26,254);stroke:rgb(0,0,0);stroke-width:2"/></g>
<g fill-rule="evenodd"><path d="M 1015.77,4684.61 L 1014.26,4698.93 L 1009.81,4712.62 L 1002.61,4725.1 L 992.972,4735.8 L 981.322,4744.26 L 968.166,4750.12 L 954.078,4753.11 L 939.68,4753.11 L 925.592,4750.12 L 912.436,4744.26 L 900.786,4735.8 L 891.149,4725.1 L 883.948,4712.62 L 879.499,4698.93 L 877.993,4684.61 L 879.499,4670.28 L 883.948,4656.59 L 891.149,4644.12 L 900.786,4633.41 L 912.436,4624.95 L 925.592,4619.09 L 939.68,4616.1 L 954.078,4616.1 L 968.166,4619.09 L 981.322,4624.95 L 992.972,4633.41 L 1002.61,4644.12 L 1009.81,4656.59 L 1014.26,4670.28 L 1015.77,4684.61 z " style="fill-opacity:1.000000;fill:rgb(67,251,250);stroke:rgb(0,0,0);stroke-width:2"/></g>
<g fill-rule="evenodd"><path d="M 1015.77,4884.58 L 1014.26,4898.9 L 1009.81,4912.59 L 1002.61,4925.07 L 992.972,4935.77 L 981.322,4944.23 L 968.166,4950.09 L 954.078,4953.08 L 939.68,4953.08 L 925.592,4950.09 L 912.436,4944.23 L 900.786,4935.77 L 891.149,4925.07 L 883.948,4912.59 L 879.499,4898.9 L 877.993,4884.58 L 879.499,4870.25 L 883.948,4856.56 L 891.149,4844.09 L 900.786,4833.38 L 912.436,4824.92 L 925.592,4819.06 L 939.68,4816.07 L 954.078,4816.07 L 968.166,4819.06 L 981.322,4824.92 L 992.972,4833.38 L 1002.61,4844.09 L 1009.81,4856.56 L 1014.26,4870.25 L 1015.77,4884.58 z " style="fill-opacity:1.000000;fill:rgb(170,58,251);stroke:rgb(0,0,0);stroke-width:2"/></g>
<g fill-rule="evenodd"><path d="M 2215.59,4884.58 L 2214.08,4898.9 L 2209.63,4912.59 L 2202.43,4925.07 L 2192.8,4935.77 L 2181.15,4944.23 L 2167.99,4950.09 L 2153.9,4953.08 L 2139.5,4953.08 L 2125.42,4950.09 L 2112.26,4944.23 L 2100.61,4935.77 L 2090.97,4925.07 L 2083.77,4912.59 L 2079.32,4898.9 L 2077.82,4884.58 L 2079.32,4870.25 L 2083.77,4856.56 L 2090.97,4844.09 L 2100.61,4833.38 L 2112.26,4824.92 L 2125.42,4819.06 L 2139.5,4816.07 L 2153.9,4816.07 L 2167.99,4819.06 L 2181.15,4824.92 L 2192.8,4833.38 L 2202.43,4844.09 L 2209.63,4856.56 L 2214.08,4870.25 L 2215.59,4884.58 z " style="fill-opacity:1.000000;fill:rgb(41,209,230);stroke:rgb(0,0,0);stroke-width:2"/></g>
<g fill-rule="evenodd"><path d="M 2215.59,4684.61 L 2214.08,4698.93 L 2209.63,4712.62 L 2202.43,4725.1 L 2192.8,4735.8 L 2181.15,4744.26 L 2167.99,4750.12 L 2153.9,4753.11 L 2139.5,4753.11 L 2125.42,4750.12 L 2112.26,4744.26 L 2100.61,4735.8 L 2090.97,4725.1 L 2083.77,4712.62 L 2079.32,4698.93 L 2077.82,4684.61 L 2079.32,4670.28 L 2083.77,4656.59 L 2090.97,4644.12 L 2100.61,4633.41 L 2112.26,4624.95 L 2125.42,4619.09 L 2139.5,4616.1 L 2153.9,4616.1 L 2167.99,4619.09 L 2181.15,4624.95 L 2192.8,4633.41 L 2202.43,4644.12 L 2209.63,4656.59 L 2214.08,4670.28 L 2215.59,4684.61 z " style="fill-opacity:1.000000;fill:rgb(5,60,124);stroke:rgb(0,0,0);stroke-width:2"/></g>
<g fill-rule="evenodd"><path d="M 2215.59,4484.63 L 2214.08,4498.96 L 2209.63,4512.65 L 2202.43,4525.12 L 2192.8,4535.83 L 2181.15,4544.29 L 2167.99,4550.15 L 2153.9,4553.14 L 2139.5,4553.14 L 2125.42,4550.15 L 2112.26,4544.29 L 2100.61,4535.83 L 2090.97,4525.12 L 2083.77,4512.65 L 2079.32,4498.96 L 2077.82,4484.63 L 2079.32,4470.31 L 2083.77,4456.62 L 2090.97,4444.14 L 2100.61,4433.44 L 2112.26,4424.98 L 2125.42,4419.12 L 2139.5,4416.13 L 2153.9,4416.13 L 2167.99,4419.12 L 2181.15,4424.98 L 2192.8,4433.44 L 2202.43,4444.14 L 2209.63,4456.62 L 2214.08,4470.31 L 2215.59,4484.63 z " style="fill-opacity:1.000000;fill:rgb(148,117,216);stroke:rgb(0,0,0);stroke-width:2"/></g>
<g fill-rule="evenodd"><path d="M 2215.59,4284.66 L 2214.08,4298.99 L 2209.63,4312.68 L 2202.43,4325.15 L 2192.8,4335.86 L 2181.15,4344.32 L 2167.99,4350.18 L 2153.9,4353.17 L 2139.5,4353.17 L 2125.42,4350.18 L 2112.26,4344.32 L 2100.61,4335.86 L 2090.97,4325.15 L 2083.77,4312.68 L 2079.32,4298.99 L 2077.82,4284.66 L 2079.32,4270.34 L 2083.77,4256.65 L 2090.97,4244.17 L 2100.61,4233.47 L 2112.26,4225.01 L 2125.42,4219.15 L 2139.5,4216.16 L 2153.9,4216.16 L 2167.99,4219.15 L 2181.15,4225.01 L 2192.8,4233.47 L 2202.43,4244.17 L 2209.63,4256.65 L 2214.08,4270.34 L 2215.59,4284.66 z " style="fill-opacity:1.000000;fill:rgb(190,97,137);stroke:rgb(0,0,0);stroke-width:2"/></g>
<g fill-rule="evenodd"><path d="M 2215.59,4084.69 L 2214.08,4099.01 L 2209.63,4112.71 L 2202.43,4125.18 L 2192.8,4135.89 L 2181.15,4144.35 L 2167.99,4150.21 L 2153.9,4153.2 L 2139.5,4153.2 L 2125.42,4150.21 L 2112.26,4144.35 L 2100.61,4135.89 L 2090.97,4125.18 L 2083.77,4112.71 L 2079.32,4099.01 L 2077.82,4084.69 L 2079.32,4070.37 L 2083.77,4056.68 L 2090.97,4044.2 L 2100.61,4033.5 L 2112.26,4025.04 L 2125.42,4019.18 L 2139.5,4016.19 L 2153.9,4016.19 L 2167.99,4019.18 L 2181.15,4025.04 L 2192.8,4033.5 L 2202.43,4044.2 L 2209.63,4056.68 L 2214.08,4070.37 L 2215.59,4084.69 z " style="fill-opacity:1.000000;fill:rgb(249,92,187);stroke:rgb(0,0,0);stroke-width:2"/></g>
<g fill-rule="evenodd"><path d="M 2215.59,3884.72 L 2214.08,3899.04 L 2209.63,3912.74 L 2202.43,3925.21 L 2192.8,3935.91 L 2181.15,3944.38 L 2167.99,3950.24 L 2153.9,3953.23 L 2139.5,3953.23 L 2125.42,3950.24 L 2112.26,3944.38 L 2100.61,3935.91 L 2090.97,3925.21 L 2083.77,3912.74 L 2079.32,3899.04 L 2077.82,3884.72 L 2079.32,3870.4 L 2083.77,3856.7 L 2090.97,3844.23 L 2100.61,3833.53 L 2112.26,3825.07 L 2125.42,3819.21 L 2139.5,3816.21 L 2153.9,3816.21 L 2167.99,3819.21 L 2181.15,3825.07 L 2192.8,3833.53 L 2202.43,3844.23 L 2209.63,3856.7 L 2214.08,3870.4 L 2215.59,3884.72 z " style="fill-opacity:1.000000;fill:rgb(168,153,15);stroke:rgb(0,0,0);stroke-width:2"/></g>
<g fill-rule="evenodd"><path d="M 2215.59,3684.75 L 2214.08,3699.07 L 2209.63,3712.77 L 2202.43,3725.24 L 2192.8,3735.94 L 2181.15,3744.41 L 2167.99,3750.27 L 2153.9,3753.26 L 2139.5,3753.26 L 2125.42,3750.27 L 2112.26,3744.41 L 2100.61,3735.94 L 2090.97,3725.24 L 2083.77,3712.77 L 2079.32,3699.07 L 2077.82,3684.75 L 2079.32,3670.43 L 2083.77,3656.73 L 2090.97,3644.26 L 2100.61,3633.56 L 2112.26,3625.09 L 2125.42,3619.24 L 2139.5,3616.24 L 2153.9,3616.24 L 2167.99,3619.24 L 2181.15,3625.09 L 2192.8,3633.56 L 2202.43,3644.26 L 2209.63,3656.73 L 2214.08,3670.43 L 2215.59,3684.75 z " style="fill-opacity:1.000000;fill:rgb(149,177,235);stroke:rgb(0,0,0);stroke-width:2"/></g>
<g fill-rule="evenodd"><path d="M 2215.59,3484.78 L 2214.08,3499.1 L 2209.63,3512.8 L 2202.43,3525.27 L 2192.8,3535.97 L 2181.15,3544.44 L 2167.99,3550.3 L 2153.9,3553.29 L 2139.5,3553.29 L 2125.42,3550.3 L 2112.26,3544.44 L 2100.61,3535.97 L 2090.97,3525.27 L 2083.77,3512.8 L 2079.32,3499.1 L 2077.82,3484.78 L 2079.32,3470.46 L 2083.77,3456.76 L 2090.97,3444.29 L 2100.61,3433.59 L 2112.26,3425.12 L 2125.42,3419.27 L 2139.5,3416.27 L 2153.9,3416.27 L 2167.99,3419.27 L 2181.15,3425.12 L 2192.8,3433.59 L 2202.43,3444.29 L 2209.63,3456.76 L 2214.08,3470.46 L 2215.59,3484.78 z " style="fill-opacity:1.000000;fill:rgb(241,179,5);stroke:rgb(0,0,0);stroke-width:2"/></g>
<g fill-rule="evenodd"><path d="M 2215.59,3284.81 L 2214.08,3299.13 L 2209.63,3312.83 L 2202.43,3325.3 L 2192.8,3336 L 2181.15,3344.47 L 2167.99,3350.32 L 2153.9,3353.32 L 2139.5,3353.32 L 2125.42,3350.32 L 2112.26,3344.47 L 2100.61,3336 L 2090.97,3325.3 L 2083.77,3312.83 L 2079.32,3299.13 L 2077.82,3284.81 L 2079.32,3270.49 L 2083.77,3256.79 L 2090.97,3244.32 L 2100.61,3233.62 L 2112.26,3225.15 L 2125.42,3219.3 L 2139.5,3216.3 L 2153.9,3216.3 L 2167.99,3219.3 L 2181.15,3225.15 L 2192.8,3233.62 L 2202.43,3244.32 L 2209.63,3256.79 L 2214.08,3270.49 L 2215.59,3284.81 z " style="fill-opacity:1.000000;fill:rgb(239,247,0);stroke:rgb(0,0,0);stroke-width:2"/></g>
<g fill-rule="evenodd"><path d="M 2215.59,3084.84 L 2214.08,3099.16 L 2209.63,3112.86 L 2202.43,3125.33 L 2192.8,3136.03 L 2181.15,3144.5 L 2167.99,3150.35 L 2153.9,3153.35 L 2139.5,3153.35 L 2125.42,3150.35 L 2112.26,3144.5 L 2100.61,3136.03 L 2090.97,3125.33 L 2083.77,3112.86 L 2079.32,3099.16 L 2077.82,3084.84 L 2079.32,3070.52 L 2083.77,3056.82 L 2090.97,3044.35 L 2100.61,3033.65 L 2112.26,3025.18 L 2125.42,3019.32 L 2139.5,3016.33 L 2153.9,3016.33 L 2167.99,3019.32 L 2181.15,3025.18 L 2192.8,3033.65 L 2202.43,3044.35 L 2209.63,3056.82 L 2214.08,3070.52 L 2215.59,3084.84 z " style="fill-opacity:1.000000;fill:rgb(233,161,58);stroke:rgb(0,0,0);stroke-width:2"/></g>
<g fill-rule="evenodd"><path d="M 2215.59,2884.87 L 2214.08,2899.19 L 2209.63,2912.89 L 2202.43,2925.36 L 2192.8,2936.06 L 2181.15,2944.53 L 2167.99,2950.38 L 2153.9,2953.38 L 2139.5,2953.38 L 2125.42,2950.38 L 2112.26,2944.53 L 2100.61,2936.06 L 2090.97,2925.36 L 2083.77,2912.89 L 2079.32,2899.19 L 2077.82,2884.87 L 2079.32,2870.55 L 2083.77,2856.85 L 2090.97,2844.38 L 2100.61,2833.68 L 2112.26,2825.21 L 2125.42,2819.35 L 2139.5,2816.36 L 2153.9,2816.36 L 2167.99,2819.35 L 2181.15,2825.21 L 2192.8,2833.68 L 2202.43,2844.38 L 2209.63,2856.85 L 2214.08,2870.55 L 2215.59,2884.87 z " style="fill-opacity:1.000000;fill:rgb(229,202,11);stroke:rgb(0,0,0);stroke-width:2"/></g>
<g fill-rule="evenodd"><path d="M 2215.59,2684.9 L 2214.08,2699.22 L 2209.63,2712.92 L 2202.43,2725.39 L 2192.8,2736.09 L 2181.15,2744.56 L 2167.99,2750.41 L 2153.9,2753.41 L 2139.5,2753.41 L 2125.42,2750.41 L 2112.26,2744.56 L 2100.61,2736.09 L 2090.97,2725.39 L 2083.77,2712.92 L 2079.32,2699.22 L 2077.82,2684.9 L 2079.32,2670.58 L 2083.77,2656.88 L 2090.97,2644.41 L 2100.61,2633.71 L 2112.26,2625.24 L 2125.42,2619.38 L 2139.5,2616.39 L 2153.9,2616.39 L 2167.99,2619.38 L 2181.15,2625.24 L 2192.8,2633.71 L 2202.43,2644.41 L 2209.63,2656.88 L 2214.08,2670.58 L 2215.59,2684.9 z " style="fill-opacity:1.000000;fill:rgb(203,208,72);stroke:rgb(0,0,0);stroke-width:2"/></g>
<g fill-rule="evenodd"><path d="M 2215.59,2484.93 L 2214.08,2499.25 L 2209.63,2512.95 L 2202.43,2525.42 L 2192.8,2536.12 L 2181.15,2544.58 L 2167.99,2550.44 L 2153.9,2553.44 L 2139.5,2553.44 L 2125.42,2550.44 L 2112.26,2544.58 L 2100.61,2536.12 L 2090.97,2525.42 L 2083.77,2512.95 L 2079.32,2499.25 L 2077.82,2484.93 L 2079.32,2470.61 L 2083.77,2456.91 L 2090.97,2444.44 L 2100.61,2433.73 L 2112.26,2425.27 L 2125.42,2419.41 L 2139.5,2416.42 L 2153.9,2416.42 L 2167.99,2419.41 L 2181.15,2425.27 L 2192.8,2433.73 L 2202.43,2444.44 L 2209.63,2456.91 L 2214.08,2470.61 L 2215.59,2484.93 z " style="fill-opacity:1.000000;fill:rgb(71,100,189);stroke:rgb(0,0,0);stroke-width:2"/></g>
<g fill-rule="evenodd"><path d="M 2215.59,2284.96 L 2214.08,2299.28 L 2209.63,2312.97 L 2202.43,2325.45 L 2192.8,2336.15 L 2181.15,2344.61 L 2167.99,2350.47 L 2153.9,2353.46 L 2139.5,2353.46 L 2125.42,2350.47 L 2112.26,2344.61 L 2100.61,2336.15 L 2090.97,2325.45 L 2083.77,2312.97 L 2079.32,2299.28 L 2077.82,2284.96 L 2079.32,2270.63 L 2083.77,2256.94 L 2090.97,2244.47 L 2100.61,2233.76 L 2112.26,2225.3 L 2125.42,2219.44 L 2139.5,2216.45 L 2153.9,2216.45 L 2167.99,2219.44 L 2181.15,2225.3 L 2192.8,2233.76 L 2202.43,2244.47 L 2209.63,2256.94 L 2214.08,2270.63 L 2215.59,2284.96 z " style="fill-opacity:1.000000;fill:rgb(31,35,30);stroke:rgb(0,0,0);stroke-width:2"/></g>
<g fill-rule="evenodd"><path d="M 2215.59,2084.99 L 2214.08,2099.31 L 2209.63,2113 L 2202.43,2125.48 L 2192.8,2136.18 L 2181.15,2144.64 L 2167.99,2150.5 L 2153.9,2153.49 L 2139.5,2153.49 L 2125.42,2150.5 L 2112.26,2144.64 L 2100.61,2136.18 L 2090.97,2125.48 L 2083.77,2113 L 2079.32,2099.31 L 2077.82,2084.99 L 2079.32,2070.66 L 2083.77,2056.97 L 2090.97,2044.5 L 2100.61,2033.79 L 2112.26,2025.33 L 2125.42,2019.47 L 2139.5,2016.48 L 2153.9,2016.48 L 2167.99,2019.47 L 2181.15,2025.33 L 2192.8,2033.79 L 2202.43,2044.5 L 2209.63,2056.97 L 2214.08,2070.66 L 2215.59,2084.99 z " style="fill-opacity:1.000000;fill:rgb(168,28,123);stroke:rgb(0,0,0);stroke-width:2"/></g>
<g fill-rule="evenodd"><path d="M 1015.77,2084.99 L 1014.26,2099.31 L 1009.81,2113 L 1002.61,2125.48 L 992.972,2136.18 L 981.322,2144.64 L 968.166,2150.5 L 954.078,2153.49 L 939.68,2153.49 L 925.592,2150.5 L 912.436,2144.64 L 900.786,2136.18 L 891.149,2125.48 L 883.948,2113 L 879.499,2099.31 L 877.993,2084.99 L 879.499,2070.66 L 883.948,2056.97 L 891.149,2044.5 L 900.786,2033.79 L 912.436,2025.33 L 925.592,2019.47 L 939.68,2016.48 L 954.078,2016.48 L 968.166,2019.47 L 981.322,2025.33 L 992.972,2033.79 L 1002.61,2044.5 L 1009.81,2056.97 L 1014.26,2070.66 L 1015.77,2084.99 z " style="fill-opacity:1.000000;fill:rgb(100,197,20);stroke:rgb(0,0,0);stroke-width:2"/></g>
<g fill-rule="evenodd"><path d="M 6829.01,3904.72 L 6827.63,3917.81 L 6823.56,3930.34 L 6816.98,3941.74 L 6808.17,3951.52 L 6797.52,3959.26 L 6785.49,3964.62 L 6772.61,3967.36 L 6759.44,3967.36 L 6746.57,3964.62 L 6734.54,3959.26 L 6723.89,3951.52 L 6715.07,3941.74 L 6708.49,3930.34 L 6704.42,3917.81 L 6703.04,3904.72 L 6704.42,3891.63 L 6708.49,3879.1 L 6715.07,3867.7 L 6723.89,3857.91 L 6734.54,3850.18 L 6746.57,3844.82 L 6759.44,3842.08 L 6772.61,3842.08 L 6785.49,3844.82 L 6797.52,3850.18 L 6808.17,3857.91 L 6816.98,3867.7 L 6823.56,3879.1 L 6827.63,3891.63 L 6829.01,3904.72 z " style="fill-opacity:1.000000;fill:rgb(115,90,197);stroke:rgb(0,0,0);stroke-width:2"/></g>
<g fill-rule="evenodd"><path d="M 6166.12,3967.7 L 6153.44,3966.41 L 6141.28,3962.6 L 6130.14,3956.41 L 6120.47,3948.11 L 6112.67,3938.03 L 6107.05,3926.59 L 6103.86,3914.26 L 6103.21,3901.53 L 6105.14,3888.93 L 6109.57,3876.98 L 6116.31,3866.17 L 6125.09,3856.93 L 6135.55,3849.65 L 6147.26,3844.63 L 6159.74,3842.06 L 6166.12,3841.74 L 6178.79,3843.03 L 6190.95,3846.84 L 6202.09,3853.03 L 6211.76,3861.33 L 6219.56,3871.4 L 6225.18,3882.85 L 6228.37,3895.18 L 6229.02,3907.91 L 6227.09,3920.51 L 6222.66,3932.46 L 6215.92,3943.27 L 6207.14,3952.51 L 6196.68,3959.79 L 6184.97,3964.81 L 6172.49,3967.38 L 6166.12,3967.7 z " style="fill-opacity:1.000000;fill:rgb(94,75,121);stroke:rgb(0,0,0);stroke-width:2"/></g>
<g fill-rule="evenodd"><path d="M 138.997,3312.81 L 138.997,3176.83 L 274.977,3176.83 L 274.977,3312.81 L 138.997,3312.81 z " style="fill-opacity:1.000000;fill:rgb(99,59,112);stroke:rgb(0,0,0);stroke-width:2"/></g>
<g fill-rule="evenodd"><path d="M 406.958,3312.81 L 393.272,3311.41 L 380.146,3307.29 L 368.118,3300.62 L 357.681,3291.66 L 349.261,3280.78 L 343.201,3268.43 L 339.754,3255.11 L 339.056,3241.37 L 341.14,3227.77 L 345.917,3214.87 L 353.194,3203.2 L 362.673,3193.23 L 373.963,3185.37 L 386.605,3179.95 L 400.081,3177.18 L 406.958,3176.83 L 420.644,3178.22 L 433.77,3182.34 L 445.798,3189.01 L 456.235,3197.97 L 464.656,3208.85 L 470.715,3221.2 L 474.162,3234.52 L 474.86,3248.26 L 472.777,3261.86 L 467.999,3274.76 L 460.722,3286.43 L 451.244,3296.4 L 439.953,3304.26 L 427.311,3309.69 L 413.835,3312.46 L 406.958,3312.81 z " style="fill-opacity:1.000000;fill:rgb(100,36,17);stroke:rgb(0,0,0);stroke-width:2"/></g>
<g fill-rule="evenodd"><path d="M 206.987,3512.78 L 193.301,3511.38 L 180.175,3507.27 L 168.147,3500.59 L 157.711,3491.63 L 149.29,3480.75 L 143.231,3468.4 L 139.783,3455.08 L 139.085,3441.34 L 141.169,3427.75 L 145.946,3414.85 L 153.223,3403.17 L 162.702,3393.2 L 173.992,3385.34 L 186.634,3379.92 L 200.11,3377.15 L 206.987,3376.8 L 220.673,3378.19 L 233.799,3382.31 L 245.828,3388.98 L 256.264,3397.95 L 264.685,3408.82 L 270.744,3421.17 L 274.192,3434.49 L 274.889,3448.23 L 272.806,3461.83 L 268.028,3474.73 L 260.752,3486.4 L 251.273,3496.37 L 239.983,3504.23 L 227.34,3509.66 L 213.864,3512.43 L 206.987,3512.78 z " style="fill-opacity:1.000000;fill:rgb(158,9,220);stroke:rgb(0,0,0);stroke-width:2"/></g>
<g fill-rule="evenodd"><path d="M 406.958,3512.78 L 393.272,3511.38 L 380.146,3507.27 L 368.118,3500.59 L 357.681,3491.63 L 349.261,3480.75 L 343.201,3468.4 L 339.754,3455.08 L 339.056,3441.34 L 341.14,3427.75 L 345.917,3414.85 L 353.194,3403.17 L 362.673,3393.2 L 373.963,3385.34 L 386.605,3379.92 L 400.081,3377.15 L 406.958,3376.8 L 420.644,3378.19 L 433.77,3382.31 L 445.798,3388.98 L 456.235,3397.95 L 464.656,3408.82 L 470.715,3421.17 L 474.162,3434.49 L 474.86,3448.23 L 472.777,3461.83 L 467.999,3474.73 L 460.722,3486.4 L 451.244,3496.37 L 439.953,3504.23 L 427.311,3509.66 L 413.835,3512.43 L 406.958,3512.78 z " style="fill-opacity:1.000000;fill:rgb(170,212,172);stroke:rgb(0,0,0);stroke-width:2"/></g>
<g fill-rule="evenodd"><path d="M 206.987,3712.75 L 193.301,3711.36 L 180.175,3707.24 L 168.147,3700.56 L 157.711,3691.6 L 149.29,3680.72 L 143.231,3668.37 L 139.783,3655.05 L 139.085,3641.31 L 141.169,3627.72 L 145.946,3614.82 L 153.223,3603.14 L 162.702,3593.17 L 173.992,3585.31 L 186.634,3579.89 L 200.11,3577.12 L 206.987,3576.77 L 220.673,3578.16 L 233.799,3582.28 L 245.828,3588.96 L 256.264,3597.92 L 264.685,3608.79 L 270.744,3621.14 L 274.192,3634.46 L 274.889,3648.2 L 272.806,3661.8 L 268.028,3674.7 L 260.752,3686.37 L 251.273,3696.34 L 239.983,3704.2 L 227.34,3709.63 L 213.864,3712.4 L 206.987,3712.75 z " style="fill-opacity:1.000000;fill:rgb(242,27,16);stroke:rgb(0,0,0);stroke-width:2"/></g>
<g fill-rule="evenodd"><path d="M 406.958,3712.75 L 393.272,3711.36 L 380.146,3707.24 L 368.118,3700.56 L 357.681,3691.6 L 349.261,3680.72 L 343.201,3668.37 L 339.754,3655.05 L 339.056,3641.31 L 341.14,3627.72 L 345.917,3614.82 L 353.194,3603.14 L 362.673,3593.17 L 373.963,3585.31 L 386.605,3579.89 L 400.081,3577.12 L 406.958,3576.77 L 420.644,3578.16 L 433.77,3582.28 L 445.798,3588.96 L 456.235,3597.92 L 464.656,3608.79 L 470.715,3621.14 L 474.162,3634.46 L 474.86,3648.2 L 472.777,3661.8 L 467.999,3674.7 L 460.722,3686.37 L 451.244,3696.34 L 439.953,3704.2 L 427.311,3709.63 L 413.835,3712.4 L 406.958,3712.75 z " style="fill-opacity:1.000000;fill:rgb(175,59,51);stroke:rgb(0,0,0);stroke-width:2"/></g>
<g fill-rule="evenodd"><path d="M 206.987,3912.72 L 193.301,3911.33 L 180.175,3907.21 L 168.147,3900.53 L 157.711,3891.57 L 149.29,3880.69 L 143.231,3868.34 L 139.783,3855.02 L 139.085,3841.28 L 141.169,3827.69 L 145.946,3814.79 L 153.223,3803.11 L 162.702,3793.14 L 173.992,3785.28 L 186.634,3779.86 L 200.11,3777.09 L 206.987,3776.74 L 220.673,3778.13 L 233.799,3782.25 L 245.828,3788.93 L 256.264,3797.89 L 264.685,3808.77 L 270.744,3821.12 L 274.192,3834.43 L 274.889,3848.17 L 272.806,3861.77 L 268.028,3874.67 L 260.752,3886.34 L 251.273,3896.31 L 239.983,3904.17 L 227.34,3909.6 L 213.864,3912.37 L 206.987,3912.72 z " style="fill-opacity:1.000000;fill:rgb(205,227,80);stroke:rgb(0,0,0);stroke-width:2"/></g>
<g fill-rule="evenodd"><path d="M 406.958,3912.72 L 393.272,3911.33 L 380.146,3907.21 L 368.118,3900.53 L 357.681,3891.57 L 349.261,3880.69 L 343.201,3868.34 L 339.754,3855.02 L 339.056,3841.28 L 341.14,3827.69 L 345.917,3814.79 L 353.194,3803.11 L 362.673,3793.14 L 373.963,3785.28 L 386.605,3779.86 L 400.081,3777.09 L 406.958,3776.74 L 420.644,3778.13 L 433.77,3782.25 L 445.798,3788.93 L 456.235,3797.89 L 464.656,3808.77 L 470.715,3821.12 L 474.162,3834.43 L 474.86,3848.17 L 472.777,3861.77 L 467.999,3874.67 L 460.722,3886.34 L 451.244,3896.31 L 439.953,3904.17 L 427.311,3909.6 L 413.835,3912.37 L 406.958,3912.72 z " style="fill-opacity:1.000000;fill:rgb(72,71,21);stroke:rgb(0,0,0);stroke-width:2"/></g>
<g fill-rule="evenodd"><path d="M 206.987,4112.69 L 193.301,4111.3 L 180.175,4107.18 L 168.147,4100.5 L 157.711,4091.54 L 149.29,4080.66 L 143.231,4068.31 L 139.783,4054.99 L 139.085,4041.26 L 141.169,4027.66 L 145.946,4014.76 L 153.223,4003.08 L 162.702,3993.11 L 173.992,3985.25 L 186.634,3979.83 L 200.11,3977.06 L 206.987,3976.71 L 220.673,3978.1 L 233.799,3982.22 L 245.828,3988.9 L 256.264,3997.86 L 264.685,4008.74 L 270.744,4021.09 L 274.192,4034.4 L 274.889,4048.14 L 272.806,4061.74 L 268.028,4074.64 L 260.752,4086.31 L 251.273,4096.29 L 239.983,4104.14 L 227.34,4109.57 L 213.864,4112.34 L 206.987,4112.69 z " style="fill-opacity:1.000000;fill:rgb(92,187,111);stroke:rgb(0,0,0);stroke-width:2"/></g>
<g fill-rule="evenodd"><path d="M 406.958,4112.69 L 393.272,4111.3 L 380.146,4107.18 L 368.118,4100.5 L 357.681,4091.54 L 349.261,4080.66 L 343.201,4068.31 L 339.754,4054.99 L 339.056,4041.26 L 341.14,4027.66 L 345.917,4014.76 L 353.194,4003.08 L 362.673,3993.11 L 373.963,3985.25 L 386.605,3979.83 L 400.081,3977.06 L 406.958,3976.71 L 420.644,3978.1 L 433.77,3982.22 L 445.798,3988.9 L 456.235,3997.86 L 464.656,4008.74 L 470.715,4021.09 L 474.162,4034.4 L 474.86,4048.14 L 472.777,4061.74 L 467.999,4074.64 L 460.722,4086.31 L 451.244,4096.29 L 439.953,4104.14 L 427.311,4109.57 L 413.835,4112.34 L 406.958,4112.69 z " style="fill-opacity:1.000000;fill:rgb(34,25,186);stroke:rgb(0,0,0);stroke-width:2"/></g>
<g fill-rule="evenodd"><path d="M 206.987,4312.66 L 193.301,4311.27 L 180.175,4307.15 L 168.147,4300.47 L 157.711,4291.51 L 149.29,4280.63 L 143.231,4268.28 L 139.783,4254.96 L 139.085,4241.23 L 141.169,4227.63 L 145.946,4214.73 L 153.223,4203.05 L 162.702,4193.08 L 173.992,4185.22 L 186.634,4179.8 L 200.11,4177.03 L 206.987,4176.68 L 220.673,4178.07 L 233.799,4182.19 L 245.828,4188.87 L 256.264,4197.83 L 264.685,4208.71 L 270.744,4221.06 L 274.192,4234.38 L 274.889,4248.11 L 272.806,4261.71 L 268.028,4274.61 L 260.752,4286.29 L 251.273,4296.26 L 239.983,4304.11 L 227.34,4309.54 L 213.864,4312.31 L 206.987,4312.66 z " style="fill-opacity:1.000000;fill:rgb(155,125,245);stroke:rgb(0,0,0);stroke-width:2"/></g>
<g fill-rule="evenodd"><path d="M 406.958,4312.66 L 393.272,4311.27 L 380.146,4307.15 L 368.118,4300.47 L 357.681,4291.51 L 349.261,4280.63 L 343.201,4268.28 L 339.754,4254.96 L 339.056,4241.23 L 341.14,4227.63 L 345.917,4214.73 L 353.194,4203.05 L 362.673,4193.08 L 373.963,4185.22 L 386.605,4179.8 L 400.081,4177.03 L 406.958,4176.68 L 420.644,4178.07 L 433.77,4182.19 L 445.798,4188.87 L 456.235,4197.83 L 464.656,4208.71 L 470.715,4221.06 L 474.162,4234.38 L 474.86,4248.11 L 472.777,4261.71 L 467.999,4274.61 L 460.722,4286.29 L 451.244,4296.26 L 439.953,4304.11 L 427.311,4309.54 L 413.835,4312.31 L 406.958,4312.66 z " style="fill-opacity:1.000000;fill:rgb(11,225,26);stroke:rgb(0,0,0);stroke-width:2"/></g>
<g fill-rule="evenodd"><path d="M 206.987,4512.63 L 193.301,4511.24 L 180.175,4507.12 L 168.147,4500.44 L 157.711,4491.48 L 149.29,4480.6 L 143.231,4468.25 L 139.783,4454.93 L 139.085,4441.2 L 141.169,4427.6 L 145.946,4414.7 L 153.223,4403.02 L 162.702,4393.05 L 173.992,4385.2 L 186.634,4379.77 L 200.11,4377 L 206.987,4376.65 L 220.673,4378.04 L 233.799,4382.16 L 245.828,4388.84 L 256.264,4397.8 L 264.685,4408.68 L 270.744,4421.03 L 274.192,4434.35 L 274.889,4448.08 L 272.806,4461.68 L 268.028,4474.58 L 260.752,4486.26 L 251.273,4496.23 L 239.983,4504.09 L 227.34,4509.51 L 213.864,4512.28 L 206.987,4512.63 z " style="fill-opacity:1.000000;fill:rgb(28,127,35);stroke:rgb(0,0,0);stroke-width:2"/></g>
<g fill-rule="evenodd"><path d="M 406.958,4512.63 L 393.272,4511.24 L 380.146,4507.12 L 368.118,4500.44 L 357.681,4491.48 L 349.261,4480.6 L 343.201,4468.25 L 339.754,4454.93 L 339.056,4441.2 L 341.14,4427.6 L 345.917,4414.7 L 353.194,4403.02 L 362.673,4393.05 L 373.963,4385.2 L 386.605,4379.77 L 400.081,4377 L 406.958,4376.65 L 420.644,4378.04 L 433.77,4382.16 L 445.798,4388.84 L 456.235,4397.8 L 464.656,4408.68 L 470.715,4421.03 L 474.162,4434.35 L 474.86,4448.08 L 472.777,4461.68 L 467.999,4474.58 L 460.722,4486.26 L 451.244,4496.23 L 439.953,4504.09 L 427.311,4509.51 L 413.835,4512.28 L 406.958,4512.63 z " style="fill-opacity:1.000000;fill:rgb(248,41,248);stroke:rgb(0,0,0);stroke-width:2"/></g>
<g fill-rule="evenodd"><path d="M 206.987,4712.6 L 193.301,4711.21 L 180.175,4707.09 L 168.147,4700.41 L 157.711,4691.45 L 149.29,4680.57 L 143.231,4668.22 L 139.783,4654.91 L 139.085,4641.17 L 141.169,4627.57 L 145.946,4614.67 L 153.223,4603 L 162.702,4593.02 L 173.992,4585.17 L 186.634,4579.74 L 200.11,4576.97 L 206.987,4576.62 L 220.673,4578.01 L 233.799,4582.13 L 245.828,4588.81 L 256.264,4597.77 L 264.685,4608.65 L 270.744,4621 L 274.192,4634.32 L 274.889,4648.05 L 272.806,4661.65 L 268.028,4674.55 L 260.752,4686.23 L 251.273,4696.2 L 239.983,4704.06 L 227.34,4709.48 L 213.864,4712.25 L 206.987,4712.6 z " style="fill-opacity:1.000000;fill:rgb(164,27,19);stroke:rgb(0,0,0);stroke-width:2"/></g>
<g fill-rule="evenodd"><path d="M 406.958,4712.6 L 393.272,4711.21 L 380.146,4707.09 L 368.118,4700.41 L 357.681,4691.45 L 349.261,4680.57 L 343.201,4668.22 L 339.754,4654.91 L 339.056,4641.17 L 341.14,4627.57 L 345.917,4614.67 L 353.194,4603 L 362.673,4593.02 L 373.963,4585.17 L 386.605,4579.74 L 400.081,4576.97 L 406.958,4576.62 L 420.644,4578.01 L 433.77,4582.13 L 445.798,4588.81 L 456.235,4597.77 L 464.656,4608.65 L 470.715,4621 L 474.162,4634.32 L 474.86,4648.05 L 472.777,4661.65 L 467.999,4674.55 L 460.722,4686.23 L 451.244,4696.2 L 439.953,4704.06 L 427.311,4709.48 L 413.835,4712.25 L 406.958,4712.6 z " style="fill-opacity:1.000000;fill:rgb(181,202,78);stroke:rgb(0,0,0);stroke-width:2"/></g>
<g fill-rule="evenodd"><path d="M 3329.52,705.188 L 3328.14,718.282 L 3324.08,730.804 L 3317.49,742.206 L 3308.68,751.993 L 3298.03,759.732 L 3286,765.087 L 3273.12,767.825 L 3259.96,767.825 L 3247.08,765.087 L 3235.05,759.732 L 3224.4,751.993 L 3215.59,742.206 L 3209,730.804 L 3204.93,718.282 L 3203.56,705.188 L 3204.93,692.094 L 3209,679.572 L 3215.59,668.169 L 3224.4,658.383 L 3235.05,650.644 L 3247.08,645.289 L 3259.96,642.551 L 3273.12,642.551 L 3286,645.289 L 3298.03,650.644 L 3308.68,658.383 L 3317.49,668.169 L 3324.08,679.572 L 3328.14,692.094 L 3329.52,705.188 z " style="fill-opacity:1.000000;fill:rgb(232,152,50);stroke:rgb(0,0,0);stroke-width:2"/></g>
<g fill-rule="evenodd"><path d="M 3329.52,311.545 L 3328.14,324.639 L 3324.08,337.162 L 3317.49,348.564 L 3308.68,358.351 L 3298.03,366.089 L 3286,371.445 L 3273.12,374.182 L 3259.96,374.182 L 3247.08,371.445 L 3235.05,366.089 L 3224.4,358.351 L 3215.59,348.564 L 3209,337.162 L 3204.93,324.639 L 3203.56,311.545 L 3204.93,298.451 L 3209,285.929 L 3215.59,274.527 L 3224.4,264.74 L 3235.05,257.001 L 3247.08,251.646 L 3259.96,248.909 L 3273.12,248.909 L 3286,251.646 L 3298.03,257.001 L 3308.68,264.74 L 3317.49,274.527 L 3324.08,285.929 L 3328.14,298.451 L 3329.52,311.545 z " style="fill-opacity:1.000000;fill:rgb(56,224,121);stroke:rgb(0,0,0);stroke-width:2"/></g>
<g fill-rule="evenodd"><path d="M 6632.88,-0.000999854 L 6659.21,-0.000999854 L 6684.97,5.4742 L 6709.03,16.1846 L 6730.33,31.6624 L 6747.95,51.2335 L 6761.12,74.0382 L 6769.26,99.0845 L 6772.01,125.273 L 6769.26,151.461 L 6761.12,176.507 L 6747.95,199.312 L 6730.33,218.883 L 6709.03,234.361 L 6684.97,245.071 L 6659.21,250.546 L 6632.88,250.546 L 6607.12,245.071 L 6583.06,234.361 L 6561.76,218.883 L 6544.14,199.312 L 6530.97,176.507 L 6522.83,151.461 L 6520.08,125.273 L 6522.83,99.0845 L 6530.97,74.0382 L 6544.14,51.2335 L 6561.76,31.6624 L 6583.06,16.1846 L 6607.12,5.4742 L 6632.88,-0.000999854 z " style="fill-opacity:1.000000;fill:rgb(77,61,52);stroke:rgb(0,0,0);stroke-width:2"/></g>
<g fill-rule="evenodd"><path d="M 333.801,-0.000999854 L 360.133,-0.000999854 L 385.891,5.4742 L 409.948,16.1846 L 431.253,31.6624 L 448.874,51.2335 L 462.042,74.0382 L 470.179,99.0845 L 472.932,125.273 L 470.179,151.461 L 462.042,176.507 L 448.874,199.312 L 431.253,218.883 L 409.95,234.361 L 385.891,245.071 L 360.133,250.546 L 333.801,250.546 L 308.043,245.071 L 283.986,234.361 L 262.681,218.883 L 245.06,199.312 L 231.892,176.507 L 223.755,151.461 L 221.001,125.273 L 223.755,99.0845 L 231.892,74.0382 L 245.06,51.2335 L 262.681,31.6624 L 283.984,16.1846 L 308.043,5.4742 L 333.801,-0.000999854 z " style="fill-opacity:1.000000;fill:rgb(188,95,78);stroke:rgb(0,0,0);stroke-width:2"/></g>
<g fill-rule="evenodd"><path d="M 472.932,5374.5 L 470.179,5400.69 L 462.042,5425.74 L 448.874,5448.54 L 431.253,5468.11 L 409.95,5483.59 L 385.891,5494.3 L 360.133,5499.78 L 333.801,5499.78 L 308.043,5494.3 L 283.986,5483.59 L 262.681,5468.11 L 245.06,5448.54 L 231.892,5425.74 L 223.755,5400.69 L 221.001,5374.5 L 223.755,5348.32 L 231.892,5323.27 L 245.06,5300.47 L 262.681,5280.89 L 283.984,5265.42 L 308.043,5254.71 L 333.801,5249.23 L 360.133,5249.23 L 385.891,5254.71 L 409.948,5265.42 L 431.253,5280.89 L 448.874,5300.47 L 462.042,5323.27 L 470.179,5348.32 L 472.932,5374.5 z " style="fill-opacity:1.000000;fill:rgb(119,250,203);stroke:rgb(0,0,0);stroke-width:2"/></g>
<g fill-rule="evenodd"><path d="M 6772.01,5374.5 L 6769.26,5400.69 L 6761.12,5425.74 L 6747.95,5448.54 L 6730.33,5468.11 L 6709.03,5483.59 L 6684.97,5494.3 L 6659.21,5499.78 L 6632.88,5499.78 L 6607.12,5494.3 L 6583.06,5483.59 L 6561.76,5468.11 L 6544.14,5448.54 L 6530.97,5425.74 L 6522.83,5400.69 L 6520.08,5374.5 L 6522.83,5348.32 L 6530.97,5323.27 L 6544.14,5300.47 L 6561.76,5280.89 L 6583.06,5265.42 L 6607.12,5254.71 L 6632.88,5249.23 L 6659.21,5249.23 L 6684.97,5254.71 L 6709.03,5265.42 L 6730.33,5280.89 L 6747.95,5300.47 L 6761.12,5323.27 L 6769.26,5348.32 L 6772.01,5374.5 z " style="fill-opacity:1.000000;fill:rgb(108,5,172);stroke:rgb(0,0,0);stroke-width:2"/></g>
<g fill-rule="evenodd"><path d="M 5906.15,1685.05 L 5904.84,1697.52 L 5900.97,1709.45 L 5894.69,1720.31 L 5886.3,1729.63 L 5876.16,1737 L 5864.7,1742.1 L 5852.43,1744.71 L 5839.89,1744.71 L 5827.62,1742.1 L 5816.17,1737 L 5806.02,1729.63 L 5797.63,1720.31 L 5791.36,1709.45 L 5787.48,1697.52 L 5786.17,1685.05 L 5787.48,1672.57 L 5791.36,1660.65 L 5797.63,1649.79 L 5806.02,1640.46 L 5816.17,1633.09 L 5827.62,1627.99 L 5839.89,1625.39 L 5852.43,1625.39 L 5864.7,1627.99 L 5876.16,1633.09 L 5886.3,1640.46 L 5894.69,1649.79 L 5900.97,1660.65 L 5904.84,1672.57 L 5906.15,1685.05 z " style="fill-opacity:1.000000;fill:rgb(134,33,43);stroke:rgb(0,0,0);stroke-width:2"/></g>
<g fill-rule="evenodd"><path d="M 6106.12,1685.05 L 6104.81,1697.52 L 6100.94,1709.45 L 6094.67,1720.31 L 6086.27,1729.63 L 6076.13,1737 L 6064.67,1742.1 L 6052.4,1744.71 L 6039.86,1744.71 L 6027.6,1742.1 L 6016.14,1737 L 6005.99,1729.63 L 5997.6,1720.31 L 5991.33,1709.45 L 5987.45,1697.52 L 5986.14,1685.05 L 5987.45,1672.57 L 5991.33,1660.65 L 5997.6,1649.79 L 6005.99,1640.46 L 6016.14,1633.09 L 6027.6,1627.99 L 6039.86,1625.39 L 6052.4,1625.39 L 6064.67,1627.99 L 6076.13,1633.09 L 6086.27,1640.46 L 6094.67,1649.79 L 6100.94,1660.65 L 6104.81,1672.57 L 6106.12,1685.05 z " style="fill-opacity:1.000000;fill:rgb(170,26,85);stroke:rgb(0,0,0);stroke-width:2"/></g>
<g fill-rule="evenodd"><path d="M 6706.04,1685.05 L 6704.72,1697.52 L 6700.85,1709.45 L 6694.58,1720.31 L 6686.18,1729.63 L 6676.04,1737 L 6664.58,1742.1 L 6652.31,1744.71 L 6639.78,1744.71 L 6627.51,1742.1 L 6616.05,1737 L 6605.9,1729.63 L 6597.51,1720.31 L 6591.24,1709.45 L 6587.37,1697.52 L 6586.05,1685.05 L 6587.37,1672.57 L 6591.24,1660.65 L 6597.51,1649.79 L 6605.9,1640.46 L 6616.05,1633.09 L 6627.51,1627.99 L 6639.78,1625.39 L 6652.31,1625.39 L 6664.58,1627.99 L 6676.04,1633.09 L 6686.18,1640.46 L 6694.58,1649.79 L 6700.85,1660.65 L 6704.72,1672.57 L 6706.04,1685.05 z " style="fill-opacity:1.000000;fill:rgb(162,190,112);stroke:rgb(0,0,0);stroke-width:2"/></g>
<g fill-rule="evenodd"><path d="M 6706.04,1285.1 L 6704.72,1297.58 L 6700.85,1309.5 L 6694.58,1320.36 L 6686.18,1329.68 L 6676.04,1337.06 L 6664.58,1342.16 L 6652.31,1344.76 L 6639.78,1344.76 L 6627.51,1342.16 L 6616.05,1337.06 L 6605.9,1329.68 L 6597.51,1320.36 L 6591.24,1309.5 L 6587.37,1297.58 L 6586.05,1285.1 L 6587.37,1272.63 L 6591.24,1260.7 L 6597.51,1249.84 L 6605.9,1240.52 L 6616.05,1233.15 L 6627.51,1228.05 L 6639.78,1225.44 L 6652.31,1225.44 L 6664.58,1228.05 L 6676.04,1233.15 L 6686.18,1240.52 L 6694.58,1249.84 L 6700.85,1260.7 L 6704.72,1272.63 L 6706.04,1285.1 z " style="fill-opacity:1.000000;fill:rgb(181,115,59);stroke:rgb(0,0,0);stroke-width:2"/></g>
<g fill-rule="evenodd"><path d="M 6106.12,1285.1 L 6104.81,1297.58 L 6100.94,1309.5 L 6094.67,1320.36 L 6086.27,1329.68 L 6076.13,1337.06 L 6064.67,1342.16 L 6052.4,1344.76 L 6039.86,1344.76 L 6027.6,1342.16 L 6016.14,1337.06 L 6005.99,1329.68 L 5997.6,1320.36 L 5991.33,1309.5 L 5987.45,1297.58 L 5986.14,1285.1 L 5987.45,1272.63 L 5991.33,1260.7 L 5997.6,1249.84 L 6005.99,1240.52 L 6016.14,1233.15 L 6027.6,1228.05 L 6039.86,1225.44 L 6052.4,1225.44 L 6064.67,1228.05 L 6076.13,1233.15 L 6086.27,1240.52 L 6094.67,1249.84 L 6100.94,1260.7 L 6104.81,1272.63 L 6106.12,1285.1 z " style="fill-opacity:1.000000;fill:rgb(4,92,211);stroke:rgb(0,0,0);stroke-width:2"/></g>
<g fill-rule="evenodd"><path d="M 5906.15,1285.1 L 5904.84,1297.58 L 5900.97,1309.5 L 5894.69,1320.36 L 5886.3,1329.68 L 5876.16,1337.06 L 5864.7,1342.16 L 5852.43,1344.76 L 5839.89,1344.76 L 5827.62,1342.16 L 5816.17,1337.06 L 5806.02,1329.68 L 5797.63,1320.36 L 5791.36,1309.5 L 5787.48,1297.58 L 5786.17,1285.1 L 5787.48,1272.63 L 5791.36,1260.7 L 5797.63,1249.84 L 5806.02,1240.52 L 5816.17,1233.15 L 5827.62,1228.05 L 5839.89,1225.44 L 5852.43,1225.44 L 5864.7,1228.05 L 5876.16,1233.15 L 5886.3,1240.52 L 5894.69,1249.84 L 5900.97,1260.7 L 5904.84,1272.63 L 5906.15,1285.1 z " style="fill-opacity:1.000000;fill:rgb(54,148,179);stroke:rgb(0,0,0);stroke-width:2"/></g>
<g fill-rule="evenodd"><path d="M 7072.91,398.305 L 7072.91,532.141 L 6939.07,532.141 L 6939.07,398.305 L 7072.91,398.305 z " style="fill-opacity:1.000000;fill:rgb(175,226,240);stroke:rgb(0,0,0);stroke-width:2"/></g>
<g fill-rule="evenodd"><path d="M 7005.99,732.112 L 6992.52,730.74 L 6979.6,726.689 L 6967.77,720.118 L 6957.49,711.297 L 6949.2,700.59 L 6943.24,688.434 L 6939.85,675.326 L 6939.16,661.806 L 6941.21,648.422 L 6945.91,635.724 L 6953.08,624.234 L 6962.4,614.419 L 6973.52,606.684 L 6985.96,601.345 L 6999.22,598.619 L 7005.99,598.275 L 7019.46,599.647 L 7032.38,603.699 L 7044.22,610.27 L 7054.49,619.09 L 7062.78,629.797 L 7068.74,641.953 L 7072.14,655.061 L 7072.82,668.581 L 7070.77,681.965 L 7066.07,694.663 L 7058.91,706.154 L 7049.58,715.968 L 7038.47,723.703 L 7026.02,729.042 L 7012.76,731.768 L 7005.99,732.112 z " style="fill-opacity:1.000000;fill:rgb(228,158,79);stroke:rgb(0,0,0);stroke-width:2"/></g>
<g fill-rule="evenodd"><path d="M 7005.99,932.083 L 6992.52,930.711 L 6979.6,926.659 L 6967.77,920.088 L 6957.49,911.268 L 6949.2,900.561 L 6943.24,888.405 L 6939.85,875.297 L 6939.16,861.777 L 6941.21,848.393 L 6945.91,835.695 L 6953.08,824.204 L 6962.4,814.39 L 6973.52,806.655 L 6985.96,801.316 L 6999.22,798.59 L 7005.99,798.246 L 7019.46,799.618 L 7032.38,803.669 L 7044.22,810.24 L 7054.49,819.061 L 7062.78,829.768 L 7068.74,841.924 L 7072.14,855.032 L 7072.82,868.552 L 7070.77,881.936 L 7066.07,894.634 L 7058.91,906.124 L 7049.58,915.939 L 7038.47,923.674 L 7026.02,929.013 L 7012.76,931.739 L 7005.99,932.083 z " style="fill-opacity:1.000000;fill:rgb(50,21,73);stroke:rgb(0,0,0);stroke-width:2"/></g>
<g fill-rule="evenodd"><path d="M 7072.91,3117.91 L 7072.91,3251.74 L 6939.07,3251.74 L 6939.07,3117.91 L 7072.91,3117.91 z " style="fill-opacity:1.000000;fill:rgb(253,130,78);stroke:rgb(0,0,0);stroke-width:2"/></g>
<g fill-rule="evenodd"><path d="M 7005.99,3451.71 L 6992.52,3450.34 L 6979.6,3446.29 L 6967.77,3439.72 L 6957.49,3430.9 L 6949.2,3420.19 L 6943.24,3408.04 L 6939.85,3394.93 L 6939.16,3381.41 L 6941.21,3368.02 L 6945.91,3355.33 L 6953.08,3343.84 L 6962.4,3334.02 L 6973.52,3326.29 L 6985.96,3320.95 L 6999.22,3318.22 L 7005.99,3317.88 L 7019.46,3319.25 L 7032.38,3323.3 L 7044.22,3329.87 L 7054.49,3338.69 L 7062.78,3349.4 L 7068.74,3361.55 L 7072.14,3374.66 L 7072.82,3388.18 L 7070.77,3401.57 L 7066.07,3414.27 L 7058.91,3425.76 L 7049.58,3435.57 L 7038.47,3443.3 L 7026.02,3448.64 L 7012.76,3451.37 L 7005.99,3451.71 z " style="fill-opacity:1.000000;fill:rgb(169,8,112);stroke:rgb(0,0,0);stroke-width:2"/></g>
<g fill-rule="evenodd"><path d="M 7072.91,2478 L 7072.91,2611.84 L 6939.07,2611.84 L 6939.07,2478 L 7072.91,2478 z " style="fill-opacity:1.000000;fill:rgb(212,178,138);stroke:rgb(0,0,0);stroke-width:2"/></g>
<g fill-rule="evenodd"><path d="M 7005.99,2811.81 L 6992.52,2810.44 L 6979.6,2806.38 L 6967.77,2799.81 L 6957.49,2790.99 L 6949.2,2780.29 L 6943.24,2768.13 L 6939.85,2755.02 L 6939.16,2741.5 L 6941.21,2728.12 L 6945.91,2715.42 L 6953.08,2703.93 L 6962.4,2694.11 L 6973.52,2686.38 L 6985.96,2681.04 L 6999.22,2678.31 L 7005.99,2677.97 L 7019.46,2679.34 L 7032.38,2683.39 L 7044.22,2689.97 L 7054.49,2698.79 L 7062.78,2709.49 L 7068.74,2721.65 L 7072.14,2734.76 L 7072.82,2748.28 L 7070.77,2761.66 L 7066.07,2774.36 L 7058.91,2785.85 L 7049.58,2795.66 L 7038.47,2803.4 L 7026.02,2808.74 L 7012.76,2811.46 L 7005.99,2811.81 z " style="fill-opacity:1.000000;fill:rgb(41,84,72);stroke:rgb(0,0,0);stroke-width:2"/></g>
<g fill-rule="evenodd"><path d="M 0.0897105,678.264 L 133.926,678.264 L 133.926,812.1 L 0.0897105,812.1 L 0.0897105,678.264 z " style="fill-opacity:1.000000;fill:rgb(154,10,188);stroke:rgb(0,0,0);stroke-width:2"/></g>
<g fill-rule="evenodd"><path d="M 67.0079,612.129 L 53.5379,610.758 L 40.6198,606.706 L 28.7815,600.135 L 18.507,591.314 L 10.2182,580.608 L 4.2571,568.452 L 0.861598,555.344 L 0.175698,541.824 L 2.2274,528.44 L 6.92871,515.741 L 14.0917,504.251 L 23.4203,494.437 L 34.5327,486.702 L 46.9768,481.363 L 60.2389,478.637 L 67.0079,478.293 L 80.4779,479.665 L 93.3961,483.716 L 105.234,490.287 L 115.509,499.108 L 123.798,509.814 L 129.759,521.971 L 133.154,535.079 L 133.84,548.599 L 131.788,561.983 L 127.087,574.681 L 119.924,586.171 L 110.596,595.986 L 99.4832,603.721 L 87.039,609.06 L 73.7769,611.785 L 67.0079,612.129 z " style="fill-opacity:1.000000;fill:rgb(213,14,24);stroke:rgb(0,0,0);stroke-width:2"/></g>
<g fill-rule="evenodd"><path d="M 0.0897105,1098.2 L 133.926,1098.2 L 133.926,1232.04 L 0.0897105,1232.04 L 0.0897105,1098.2 z " style="fill-opacity:1.000000;fill:rgb(168,68,172);stroke:rgb(0,0,0);stroke-width:2"/></g>
<g fill-rule="evenodd"><path d="M 67.0079,1432.01 L 53.5379,1430.64 L 40.6198,1426.59 L 28.7815,1420.02 L 18.507,1411.19 L 10.2182,1400.49 L 4.2571,1388.33 L 0.861598,1375.22 L 0.175698,1361.7 L 2.2274,1348.32 L 6.92871,1335.62 L 14.0917,1324.13 L 23.4203,1314.32 L 34.5327,1306.58 L 46.9768,1301.24 L 60.2389,1298.52 L 67.0079,1298.17 L 80.4779,1299.54 L 93.3961,1303.6 L 105.234,1310.17 L 115.509,1318.99 L 123.798,1329.69 L 129.759,1341.85 L 133.154,1354.96 L 133.84,1368.48 L 131.788,1381.86 L 127.087,1394.56 L 119.924,1406.05 L 110.596,1415.87 L 99.4832,1423.6 L 87.039,1428.94 L 73.7769,1431.67 L 67.0079,1432.01 z " style="fill-opacity:1.000000;fill:rgb(91,243,142);stroke:rgb(0,0,0);stroke-width:2"/></g>
<g fill-rule="evenodd"><path d="M 67.0079,1631.98 L 53.5379,1630.61 L 40.6198,1626.56 L 28.7815,1619.99 L 18.507,1611.17 L 10.2182,1600.46 L 4.2571,1588.3 L 0.861598,1575.2 L 0.175698,1561.68 L 2.2274,1548.29 L 6.92871,1535.59 L 14.0917,1524.1 L 23.4203,1514.29 L 34.5327,1506.55 L 46.9768,1501.22 L 60.2389,1498.49 L 67.0079,1498.15 L 80.4779,1499.52 L 93.3961,1503.57 L 105.234,1510.14 L 115.509,1518.96 L 123.798,1529.67 L 129.759,1541.82 L 133.154,1554.93 L 133.84,1568.45 L 131.788,1581.84 L 127.087,1594.53 L 119.924,1606.02 L 110.596,1615.84 L 99.4832,1623.57 L 87.039,1628.91 L 73.7769,1631.64 L 67.0079,1631.98 z " style="fill-opacity:1.000000;fill:rgb(76,215,45);stroke:rgb(0,0,0);stroke-width:2"/></g>
<g fill-rule="evenodd"><path d="M 67.0079,1831.95 L 53.5379,1830.58 L 40.6198,1826.53 L 28.7815,1819.96 L 18.507,1811.14 L 10.2182,1800.43 L 4.2571,1788.27 L 0.861598,1775.17 L 0.175698,1761.65 L 2.2274,1748.26 L 6.92871,1735.56 L 14.0917,1724.07 L 23.4203,1714.26 L 34.5327,1706.52 L 46.9768,1701.18 L 60.2389,1698.46 L 67.0079,1698.11 L 80.4779,1699.49 L 93.3961,1703.54 L 105.234,1710.11 L 115.509,1718.93 L 123.798,1729.64 L 129.759,1741.79 L 133.154,1754.9 L 133.84,1768.42 L 131.788,1781.8 L 127.087,1794.5 L 119.924,1805.99 L 110.596,1815.81 L 99.4832,1823.54 L 87.039,1828.88 L 73.7769,1831.61 L 67.0079,1831.95 z " style="fill-opacity:1.000000;fill:rgb(155,9,66);stroke:rgb(0,0,0);stroke-width:2"/></g>
<g fill-rule="evenodd"><path d="M 1503.81,1108.12 L 1503.81,982.155 L 1629.77,982.155 L 1629.77,1108.12 L 1503.81,1108.12 z " style="fill-opacity:1.000000;fill:rgb(229,6,196);stroke:rgb(0,0,0);stroke-width:2"/></g>
<g fill-rule="evenodd"><path d="M 1629.77,1241.96 L 1628.39,1255.06 L 1624.33,1267.58 L 1617.74,1278.98 L 1608.93,1288.77 L 1598.28,1296.51 L 1586.25,1301.86 L 1573.37,1304.6 L 1560.21,1304.6 L 1547.33,1301.86 L 1535.3,1296.51 L 1524.65,1288.77 L 1515.84,1278.98 L 1509.25,1267.58 L 1505.18,1255.06 L 1503.81,1241.96 L 1505.18,1228.87 L 1509.25,1216.34 L 1515.84,1204.94 L 1524.65,1195.16 L 1535.3,1187.42 L 1547.33,1182.06 L 1560.21,1179.32 L 1573.37,1179.32 L 1586.25,1182.06 L 1598.28,1187.42 L 1608.93,1195.16 L 1617.74,1204.94 L 1624.33,1216.34 L 1628.39,1228.87 L 1629.77,1241.96 z " style="fill-opacity:1.000000;fill:rgb(51,175,205);stroke:rgb(0,0,0);stroke-width:2"/></g>
<g fill-rule="evenodd"><path d="M 2749.61,1445.08 L 2748.23,1458.17 L 2744.16,1470.7 L 2737.58,1482.1 L 2728.77,1491.88 L 2718.12,1499.62 L 2706.09,1504.98 L 2693.21,1507.72 L 2680.04,1507.72 L 2667.16,1504.98 L 2655.14,1499.62 L 2644.48,1491.88 L 2635.67,1482.1 L 2629.09,1470.7 L 2625.02,1458.17 L 2623.64,1445.08 L 2625.02,1431.99 L 2629.09,1419.46 L 2635.67,1408.06 L 2644.48,1398.27 L 2655.13,1390.54 L 2667.16,1385.18 L 2680.04,1382.44 L 2693.21,1382.44 L 2706.09,1385.18 L 2718.11,1390.54 L 2728.77,1398.27 L 2737.58,1408.06 L 2744.16,1419.46 L 2748.23,1431.99 L 2749.61,1445.08 z " style="fill-opacity:1.000000;fill:rgb(163,132,127);stroke:rgb(0,0,0);stroke-width:2"/></g>
<g fill-rule="evenodd"><path d="M 2749.61,1051.44 L 2748.23,1064.53 L 2744.16,1077.05 L 2737.58,1088.46 L 2728.77,1098.24 L 2718.12,1105.98 L 2706.09,1111.34 L 2693.21,1114.07 L 2680.04,1114.07 L 2667.16,1111.34 L 2655.14,1105.98 L 2644.48,1098.24 L 2635.67,1088.46 L 2629.09,1077.05 L 2625.02,1064.53 L 2623.64,1051.44 L 2625.02,1038.34 L 2629.09,1025.82 L 2635.67,1014.42 L 2644.48,1004.63 L 2655.13,996.893 L 2667.16,991.538 L 2680.04,988.8 L 2693.21,988.8 L 2706.09,991.538 L 2718.11,996.893 L 2728.77,1004.63 L 2737.58,1014.42 L 2744.16,1025.82 L 2748.23,1038.34 L 2749.61,1051.44 z " style="fill-opacity:1.000000;fill:rgb(45,173,212);stroke:rgb(0,0,0);stroke-width:2"/></g>
<g fill-rule="evenodd"><path d="M 5319.62,1851.63 L 5319.62,1678.43 L 5492.83,1678.43 L 5492.83,1851.63 L 5319.62,1851.63 z " style="fill-opacity:1.000000;fill:rgb(118,71,222);stroke:rgb(0,0,0);stroke-width:2"/></g>
<g fill-rule="evenodd"><path d="M 5406.23,1251.72 L 5388.79,1249.95 L 5372.08,1244.7 L 5356.76,1236.2 L 5343.46,1224.79 L 5332.73,1210.93 L 5325.02,1195.2 L 5320.62,1178.23 L 5319.74,1160.74 L 5322.39,1143.41 L 5328.48,1126.98 L 5337.74,1112.11 L 5349.82,1099.41 L 5364.2,1089.4 L 5380.3,1082.49 L 5397.47,1078.97 L 5406.23,1078.52 L 5423.66,1080.29 L 5440.38,1085.54 L 5455.7,1094.04 L 5468.99,1105.46 L 5479.72,1119.31 L 5487.44,1135.04 L 5491.83,1152.01 L 5492.72,1169.51 L 5490.06,1186.83 L 5483.98,1203.26 L 5474.71,1218.13 L 5462.63,1230.83 L 5448.25,1240.84 L 5432.15,1247.75 L 5414.99,1251.28 L 5406.23,1251.72 z " style="fill-opacity:1.000000;fill:rgb(50,28,236);stroke:rgb(0,0,0);stroke-width:2"/></g>
<g fill-rule="evenodd"><path d="M 7072.91,1838.09 L 7072.91,1971.93 L 6939.07,1971.93 L 6939.07,1838.09 L 7072.91,1838.09 z " style="fill-opacity:1.000000;fill:rgb(74,196,48);stroke:rgb(0,0,0);stroke-width:2"/></g>
<g fill-rule="evenodd"><path d="M 7005.99,2171.9 L 6992.52,2170.53 L 6979.6,2166.48 L 6967.77,2159.91 L 6957.49,2151.09 L 6949.2,2140.38 L 6943.24,2128.22 L 6939.85,2115.12 L 6939.16,2101.6 L 6941.21,2088.21 L 6945.91,2075.51 L 6953.08,2064.02 L 6962.4,2054.21 L 6973.52,2046.47 L 6985.96,2041.13 L 6999.22,2038.41 L 7005.99,2038.06 L 7019.46,2039.44 L 7032.38,2043.49 L 7044.22,2050.06 L 7054.49,2058.88 L 7062.78,2069.59 L 7068.74,2081.74 L 7072.14,2094.85 L 7072.82,2108.37 L 7070.77,2121.75 L 7066.07,2134.45 L 7058.91,2145.94 L 7049.58,2155.76 L 7038.47,2163.49 L 7026.02,2168.83 L 7012.76,2171.56 L 7005.99,2171.9 z " style="fill-opacity:1.000000;fill:rgb(246,32,35);stroke:rgb(0,0,0);stroke-width:2"/></g>
<g fill-rule="evenodd"><path d="M 7072.91,1198.19 L 7072.91,1332.02 L 6939.07,1332.02 L 6939.07,1198.19 L 7072.91,1198.19 z " style="fill-opacity:1.000000;fill:rgb(133,108,251);stroke:rgb(0,0,0);stroke-width:2"/></g>
<g fill-rule="evenodd"><path d="M 7005.99,1531.99 L 6992.52,1530.62 L 6979.6,1526.57 L 6967.77,1520 L 6957.49,1511.18 L 6949.2,1500.47 L 6943.24,1488.32 L 6939.85,1475.21 L 6939.16,1461.69 L 6941.21,1448.3 L 6945.91,1435.61 L 6953.08,1424.12 L 6962.4,1414.3 L 6973.52,1406.57 L 6985.96,1401.23 L 6999.22,1398.5 L 7005.99,1398.16 L 7019.46,1399.53 L 7032.38,1403.58 L 7044.22,1410.15 L 7054.49,1418.97 L 7062.78,1429.68 L 7068.74,1441.84 L 7072.14,1454.94 L 7072.82,1468.46 L 7070.77,1481.85 L 7066.07,1494.55 L 7058.91,1506.04 L 7049.58,1515.85 L 7038.47,1523.59 L 7026.02,1528.93 L 7012.76,1531.65 L 7005.99,1531.99 z " style="fill-opacity:1.000000;fill:rgb(178,7,4);stroke:rgb(0,0,0);stroke-width:2"/></g>
<g fill-rule="evenodd"><path d="M 7072.91,3837.8 L 7072.91,3971.64 L 6939.07,3971.64 L 6939.07,3837.8 L 7072.91,3837.8 z " style="fill-opacity:1.000000;fill:rgb(244,236,11);stroke:rgb(0,0,0);stroke-width:2"/></g>
<g fill-rule="evenodd"><path d="M 7005.99,4171.61 L 6992.52,4170.24 L 6979.6,4166.19 L 6967.77,4159.61 L 6957.49,4150.79 L 6949.2,4140.09 L 6943.24,4127.93 L 6939.85,4114.82 L 6939.16,4101.3 L 6941.21,4087.92 L 6945.91,4075.22 L 6953.08,4063.73 L 6962.4,4053.92 L 6973.52,4046.18 L 6985.96,4040.84 L 6999.22,4038.12 L 7005.99,4037.77 L 7019.46,4039.14 L 7032.38,4043.2 L 7044.22,4049.77 L 7054.49,4058.59 L 7062.78,4069.29 L 7068.74,4081.45 L 7072.14,4094.56 L 7072.82,4108.08 L 7070.77,4121.46 L 7066.07,4134.16 L 7058.91,4145.65 L 7049.58,4155.46 L 7038.47,4163.2 L 7026.02,4168.54 L 7012.76,4171.26 L 7005.99,4171.61 z " style="fill-opacity:1.000000;fill:rgb(185,32,186);stroke:rgb(0,0,0);stroke-width:2"/></g>
<g fill-rule="evenodd"><path d="M 7072.91,4437.71 L 7072.91,4571.55 L 6939.07,4571.55 L 6939.07,4437.71 L 7072.91,4437.71 z " style="fill-opacity:1.000000;fill:rgb(134,195,62);stroke:rgb(0,0,0);stroke-width:2"/></g>
<g fill-rule="evenodd"><path d="M 7005.99,4771.52 L 6992.52,4770.15 L 6979.6,4766.1 L 6967.77,4759.53 L 6957.49,4750.71 L 6949.2,4740 L 6943.24,4727.84 L 6939.85,4714.73 L 6939.16,4701.21 L 6941.21,4687.83 L 6945.91,4675.13 L 6953.08,4663.64 L 6962.4,4653.83 L 6973.52,4646.09 L 6985.96,4640.75 L 6999.22,4638.03 L 7005.99,4637.68 L 7019.46,4639.06 L 7032.38,4643.11 L 7044.22,4649.68 L 7054.49,4658.5 L 7062.78,4669.21 L 7068.74,4681.36 L 7072.14,4694.47 L 7072.82,4707.99 L 7070.77,4721.37 L 7066.07,4734.07 L 7058.91,4745.56 L 7049.58,4755.38 L 7038.47,4763.11 L 7026.02,4768.45 L 7012.76,4771.18 L 7005.99,4771.52 z " style="fill-opacity:1.000000;fill:rgb(5,241,236);stroke:rgb(0,0,0);stroke-width:2"/></g>
<g fill-rule="evenodd"><path d="M 5006.13,1205.11 L 5004.82,1217.55 L 5000.95,1229.45 L 4994.7,1240.28 L 4986.33,1249.58 L 4976.21,1256.93 L 4964.78,1262.02 L 4952.55,1264.62 L 4940.04,1264.62 L 4927.8,1262.02 L 4916.38,1256.93 L 4906.26,1249.58 L 4897.89,1240.28 L 4891.63,1229.45 L 4887.77,1217.55 L 4886.46,1205.11 L 4887.77,1192.68 L 4891.63,1180.78 L 4897.89,1169.95 L 4906.26,1160.65 L 4916.38,1153.3 L 4927.8,1148.21 L 4940.04,1145.61 L 4952.55,1145.61 L 4964.78,1148.21 L 4976.21,1153.3 L 4986.33,1160.65 L 4994.7,1169.95 L 5000.95,1180.78 L 5004.82,1192.68 L 5006.13,1205.11 z " style="fill-opacity:1.000000;fill:rgb(217,103,51);stroke:rgb(0,0,0);stroke-width:2"/></g>
<g fill-rule="evenodd"><path d="M 5006.13,1005.14 L 5004.82,1017.58 L 5000.95,1029.48 L 4994.7,1040.31 L 4986.33,1049.61 L 4976.21,1056.96 L 4964.78,1062.05 L 4952.55,1064.65 L 4940.04,1064.65 L 4927.8,1062.05 L 4916.38,1056.96 L 4906.26,1049.61 L 4897.89,1040.31 L 4891.63,1029.48 L 4887.77,1017.58 L 4886.46,1005.14 L 4887.77,992.706 L 4891.63,980.809 L 4897.89,969.975 L 4906.26,960.68 L 4916.38,953.327 L 4927.8,948.24 L 4940.04,945.639 L 4952.55,945.639 L 4964.78,948.24 L 4976.21,953.327 L 4986.33,960.68 L 4994.7,969.975 L 5000.95,980.809 L 5004.82,992.706 L 5006.13,1005.14 z " style="fill-opacity:1.000000;fill:rgb(183,153,80);stroke:rgb(0,0,0);stroke-width:2"/></g>
<g fill-rule="evenodd"><path d="M 4886.46,1464.92 L 4886.46,1345.25 L 5006.13,1345.25 L 5006.13,1464.92 L 4886.46,1464.92 z " style="fill-opacity:1.000000;fill:rgb(163,227,20);stroke:rgb(0,0,0);stroke-width:2"/></g>
<g fill-rule="evenodd"><path d="M 2167.4,1304.2 L 2155.51,1302.99 L 2144.1,1299.41 L 2133.65,1293.61 L 2124.57,1285.82 L 2117.25,1276.36 L 2111.99,1265.63 L 2108.99,1254.06 L 2108.39,1242.12 L 2110.2,1230.3 L 2114.35,1219.09 L 2120.67,1208.94 L 2128.91,1200.27 L 2138.72,1193.44 L 2149.71,1188.73 L 2161.42,1186.32 L 2245.99,1186.02 L 2257.88,1187.23 L 2269.29,1190.81 L 2279.74,1196.61 L 2288.82,1204.4 L 2296.14,1213.85 L 2301.4,1224.59 L 2304.4,1236.16 L 2305,1248.1 L 2303.19,1259.92 L 2299.04,1271.13 L 2292.72,1281.28 L 2284.48,1289.94 L 2274.66,1296.77 L 2263.68,1301.49 L 2251.97,1303.9 L 2167.4,1304.2 z " style="fill-opacity:1.000000;fill:rgb(211,217,52);stroke:rgb(0,0,0);stroke-width:2"/></g>
<g fill-rule="evenodd"><path d="M 2167.4,1104.23 L 2155.51,1103.02 L 2144.1,1099.44 L 2133.65,1093.64 L 2124.57,1085.85 L 2117.25,1076.39 L 2111.99,1065.66 L 2108.99,1054.08 L 2108.39,1042.15 L 2110.2,1030.33 L 2114.35,1019.12 L 2120.67,1008.97 L 2128.91,1000.3 L 2138.72,993.474 L 2149.71,988.758 L 2161.42,986.351 L 2245.99,986.047 L 2257.88,987.256 L 2269.29,990.836 L 2279.74,996.639 L 2288.82,1004.43 L 2296.14,1013.88 L 2301.4,1024.62 L 2304.4,1036.19 L 2305,1048.13 L 2303.19,1059.95 L 2299.04,1071.16 L 2292.72,1081.31 L 2284.48,1089.97 L 2274.66,1096.8 L 2263.68,1101.52 L 2251.97,1103.93 L 2167.4,1104.23 z " style="fill-opacity:1.000000;fill:rgb(247,94,160);stroke:rgb(0,0,0);stroke-width:2"/></g>
<g fill-rule="evenodd"><path d="M 2167.4,1504.17 L 2155.51,1502.96 L 2144.1,1499.38 L 2133.65,1493.58 L 2124.57,1485.79 L 2117.25,1476.33 L 2111.99,1465.6 L 2108.99,1454.03 L 2108.39,1442.09 L 2110.2,1430.27 L 2114.35,1419.06 L 2120.67,1408.91 L 2128.91,1400.24 L 2138.72,1393.42 L 2149.71,1388.7 L 2161.42,1386.29 L 2245.99,1385.99 L 2257.88,1387.2 L 2269.29,1390.78 L 2279.74,1396.58 L 2288.82,1404.37 L 2296.14,1413.82 L 2301.4,1424.56 L 2304.4,1436.13 L 2305,1448.07 L 2303.19,1459.89 L 2299.04,1471.1 L 2292.72,1481.25 L 2284.48,1489.91 L 2274.66,1496.74 L 2263.68,1501.46 L 2251.97,1503.87 L 2167.4,1504.17 z " style="fill-opacity:1.000000;fill:rgb(242,16,168);stroke:rgb(0,0,0);stroke-width:2"/></g>
<g fill-rule="evenodd"><path d="M 3563.5,868.156 L 3563.5,742.19 L 3689.47,742.19 L 3689.47,868.156 L 3563.5,868.156 z " style="fill-opacity:1.000000;fill:rgb(246,5,148);stroke:rgb(0,0,0);stroke-width:2"/></g>
<g fill-rule="evenodd"><path d="M 4426.37,268.244 L 4413.69,266.954 L 4401.53,263.138 L 4390.39,256.953 L 4380.72,248.653 L 4372.92,238.576 L 4367.31,227.134 L 4364.11,214.798 L 4363.47,202.071 L 4365.4,189.475 L 4369.82,177.525 L 4376.57,166.711 L 4385.35,157.474 L 4395.8,150.193 L 4407.52,145.168 L 4420,142.602 L 4426.37,142.278 L 4439.05,143.568 L 4451.21,147.383 L 4462.35,153.569 L 4472.02,161.869 L 4479.82,171.946 L 4485.43,183.388 L 4488.62,195.724 L 4489.27,208.45 L 4487.34,221.047 L 4482.92,232.997 L 4476.17,243.811 L 4467.39,253.048 L 4456.94,260.329 L 4445.22,265.354 L 4432.74,267.92 L 4426.37,268.244 z " style="fill-opacity:1.000000;fill:rgb(1,190,180);stroke:rgb(0,0,0);stroke-width:2"/></g>
<g fill-rule="evenodd"><path d="M 3826.46,868.156 L 3813.78,866.866 L 3801.62,863.051 L 3790.48,856.866 L 3780.81,848.565 L 3773.01,838.488 L 3767.4,827.046 L 3764.2,814.71 L 3763.56,801.984 L 3765.49,789.387 L 3769.91,777.437 L 3776.65,766.623 L 3785.43,757.386 L 3795.89,750.105 L 3807.6,745.08 L 3820.09,742.514 L 3826.46,742.19 L 3839.14,743.48 L 3851.29,747.296 L 3862.44,753.481 L 3872.11,761.781 L 3879.91,771.858 L 3885.52,783.3 L 3888.71,795.637 L 3889.36,808.363 L 3887.43,820.959 L 3883,832.909 L 3876.26,843.723 L 3867.48,852.96 L 3857.02,860.241 L 3845.31,865.266 L 3832.83,867.832 L 3826.46,868.156 z " style="fill-opacity:1.000000;fill:rgb(188,68,120);stroke:rgb(0,0,0);stroke-width:2"/></g>
<g fill-rule="evenodd"><path d="M 4226.4,268.244 L 4213.72,266.954 L 4201.56,263.138 L 4190.42,256.953 L 4180.75,248.653 L 4172.95,238.576 L 4167.34,227.134 L 4164.14,214.798 L 4163.5,202.071 L 4165.43,189.475 L 4169.85,177.525 L 4176.59,166.711 L 4185.38,157.474 L 4195.83,150.193 L 4207.55,145.168 L 4220.03,142.602 L 4226.4,142.278 L 4239.08,143.568 L 4251.24,147.383 L 4262.38,153.569 L 4272.05,161.869 L 4279.85,171.946 L 4285.46,183.388 L 4288.65,195.724 L 4289.3,208.45 L 4287.37,221.047 L 4282.94,232.997 L 4276.2,243.811 L 4267.42,253.048 L 4256.96,260.329 L 4245.25,265.354 L 4232.77,267.92 L 4226.4,268.244 z " style="fill-opacity:1.000000;fill:rgb(250,73,105);stroke:rgb(0,0,0);stroke-width:2"/></g>
<g fill-rule="evenodd"><path d="M 4026.43,868.156 L 4013.75,866.866 L 4001.59,863.051 L 3990.45,856.866 L 3980.78,848.565 L 3972.98,838.488 L 3967.37,827.046 L 3964.17,814.71 L 3963.53,801.984 L 3965.46,789.387 L 3969.88,777.437 L 3976.62,766.623 L 3985.4,757.386 L 3995.86,750.105 L 4007.58,745.08 L 4020.06,742.514 L 4026.43,742.19 L 4039.11,743.48 L 4051.26,747.296 L 4062.41,753.481 L 4072.08,761.781 L 4079.88,771.858 L 4085.49,783.3 L 4088.68,795.637 L 4089.33,808.363 L 4087.4,820.959 L 4082.97,832.909 L 4076.23,843.723 L 4067.45,852.96 L 4056.99,860.241 L 4045.28,865.266 L 4032.8,867.832 L 4026.43,868.156 z " style="fill-opacity:1.000000;fill:rgb(230,35,208);stroke:rgb(0,0,0);stroke-width:2"/></g>
<g fill-rule="evenodd"><path d="M 4026.43,268.244 L 4013.75,266.954 L 4001.59,263.138 L 3990.45,256.953 L 3980.78,248.653 L 3972.98,238.576 L 3967.37,227.134 L 3964.17,214.798 L 3963.53,202.071 L 3965.46,189.475 L 3969.88,177.525 L 3976.62,166.711 L 3985.4,157.474 L 3995.86,150.193 L 4007.58,145.168 L 4020.06,142.602 L 4026.43,142.278 L 4039.11,143.568 L 4051.26,147.383 L 4062.41,153.569 L 4072.08,161.869 L 4079.88,171.946 L 4085.49,183.388 L 4088.68,195.724 L 4089.33,208.45 L 4087.4,221.047 L 4082.97,232.997 L 4076.23,243.811 L 4067.45,253.048 L 4056.99,260.329 L 4045.28,265.354 L 4032.8,267.92 L 4026.43,268.244 z " style="fill-opacity:1.000000;fill:rgb(26,218,105);stroke:rgb(0,0,0);stroke-width:2"/></g>
<g fill-rule="evenodd"><path d="M 4226.4,868.156 L 4213.72,866.866 L 4201.56,863.051 L 4190.42,856.866 L 4180.75,848.565 L 4172.95,838.488 L 4167.34,827.046 L 4164.14,814.71 L 4163.5,801.984 L 4165.43,789.387 L 4169.85,777.437 L 4176.59,766.623 L 4185.38,757.386 L 4195.83,750.105 L 4207.55,745.08 L 4220.03,742.514 L 4226.4,742.19 L 4239.08,743.48 L 4251.24,747.296 L 4262.38,753.481 L 4272.05,761.781 L 4279.85,771.858 L 4285.46,783.3 L 4288.65,795.637 L 4289.3,808.363 L 4287.37,820.959 L 4282.94,832.909 L 4276.2,843.723 L 4267.42,852.96 L 4256.96,860.241 L 4245.25,865.266 L 4232.77,867.832 L 4226.4,868.156 z " style="fill-opacity:1.000000;fill:rgb(106,126,76);stroke:rgb(0,0,0);stroke-width:2"/></g>
<g fill-rule="evenodd"><path d="M 3826.46,268.244 L 3813.78,266.954 L 3801.62,263.138 L 3790.48,256.953 L 3780.81,248.653 L 3773.01,238.576 L 3767.4,227.134 L 3764.2,214.798 L 3763.56,202.071 L 3765.49,189.475 L 3769.91,177.525 L 3776.65,166.711 L 3785.43,157.474 L 3795.89,150.193 L 3807.6,145.168 L 3820.09,142.602 L 3826.46,142.278 L 3839.14,143.568 L 3851.29,147.383 L 3862.44,153.569 L 3872.11,161.869 L 3879.91,171.946 L 3885.52,183.388 L 3888.71,195.724 L 3889.36,208.45 L 3887.43,221.047 L 3883,232.997 L 3876.26,243.811 L 3867.48,253.048 L 3857.02,260.329 L 3845.31,265.354 L 3832.83,267.92 L 3826.46,268.244 z " style="fill-opacity:1.000000;fill:rgb(126,81,37);stroke:rgb(0,0,0);stroke-width:2"/></g>
<g fill-rule="evenodd"><path d="M 4426.37,868.156 L 4413.69,866.866 L 4401.53,863.051 L 4390.39,856.866 L 4380.72,848.565 L 4372.92,838.488 L 4367.31,827.046 L 4364.11,814.71 L 4363.47,801.984 L 4365.4,789.387 L 4369.82,777.437 L 4376.57,766.623 L 4385.35,757.386 L 4395.8,750.105 L 4407.52,745.08 L 4420,742.514 L 4426.37,742.19 L 4439.05,743.48 L 4451.21,747.296 L 4462.35,753.481 L 4472.02,761.781 L 4479.82,771.858 L 4485.43,783.3 L 4488.62,795.637 L 4489.27,808.363 L 4487.34,820.959 L 4482.92,832.909 L 4476.17,843.723 L 4467.39,852.96 L 4456.94,860.241 L 4445.22,865.266 L 4432.74,867.832 L 4426.37,868.156 z " style="fill-opacity:1.000000;fill:rgb(179,72,132);stroke:rgb(0,0,0);stroke-width:2"/></g>
<g fill-rule="evenodd"><path d="M 3626.49,268.244 L 3613.81,266.954 L 3601.65,263.138 L 3590.51,256.953 L 3580.84,248.653 L 3573.04,238.576 L 3567.43,227.134 L 3564.23,214.798 L 3563.59,202.071 L 3565.52,189.475 L 3569.94,177.525 L 3576.68,166.711 L 3585.46,157.474 L 3595.92,150.193 L 3607.63,145.168 L 3620.12,142.602 L 3626.49,142.278 L 3639.16,143.568 L 3651.32,147.383 L 3662.47,153.569 L 3672.14,161.869 L 3679.94,171.946 L 3685.55,183.388 L 3688.74,195.724 L 3689.39,208.45 L 3687.46,221.047 L 3683.03,232.997 L 3676.29,243.811 L 3667.51,253.048 L 3657.05,260.329 L 3645.34,265.354 L 3632.86,267.92 L 3626.49,268.244 z " style="fill-opacity:1.000000;fill:rgb(83,58,148);stroke:rgb(0,0,0);stroke-width:2"/></g>
<g fill-rule="evenodd"><path d="M 3153.48,1989.25 L 4739.4,1989.25 L 4743.38,1976.98 L 4750.58,1964.51 L 4760.22,1953.8 L 4771.87,1945.34 L 4785.03,1939.48 L 4799.12,1936.49 L 4813.51,1936.49 L 4827.6,1939.48 L 4840.76,1945.34 L 4852.41,1953.8 L 4862.04,1964.51 L 4869.24,1976.98 L 4873.69,1990.68 L 4875.2,2005 L 4873.69,2019.32 L 4869.24,2033.02 L 4862.04,2045.49 L 4852.41,2056.19 L 4840.76,2064.65 L 4827.6,2070.51 L 4813.51,2073.51 L 4799.12,2073.51 L 4785.03,2070.51 L 4771.87,2064.65 L 4760.22,2056.19 L 4750.58,2045.49 L 4743.38,2033.02 L 4739.4,2020.74 L 3153.48,2020.74 L 3149.5,2033.02 L 3142.3,2045.49 L 3132.66,2056.19 L 3121.01,2064.65 L 3107.85,2070.51 L 3093.76,2073.51 L 3079.37,2073.51 L 3065.28,2070.51 L 3052.12,2064.65 L 3040.47,2056.19 L 3030.84,2045.49 L 3023.64,2033.02 L 3019.19,2019.32 L 3017.68,2005 L 3019.19,1990.68 L 3023.64,1976.98 L 3030.84,1964.51 L 3040.47,1953.8 L 3052.12,1945.34 L 3065.28,1939.48 L 3079.37,1936.49 L 3093.76,1936.49 L 3107.85,1939.48 L 3121.01,1945.34 L 3132.66,1953.8 L 3142.3,1964.51 L 3149.5,1976.98 L 3153.48,1989.25 z " style="fill-opacity:1.000000;fill:rgb(251,49,153);stroke:rgb(0,0,0);stroke-width:2"/></g>
<g fill-rule="evenodd"><path d="M 3153.48,2249.21 L 4739.4,2249.21 L 4743.38,2236.94 L 4750.58,2224.47 L 4760.22,2213.77 L 4771.87,2205.3 L 4785.03,2199.45 L 4799.12,2196.45 L 4813.51,2196.45 L 4827.6,2199.45 L 4840.76,2205.3 L 4852.41,2213.77 L 4862.04,2224.47 L 4869.24,2236.94 L 4873.69,2250.64 L 4875.2,2264.96 L 4873.69,2279.28 L 4869.24,2292.98 L 4862.04,2305.45 L 4852.41,2316.15 L 4840.76,2324.62 L 4827.6,2330.47 L 4813.51,2333.47 L 4799.12,2333.47 L 4785.03,2330.47 L 4771.87,2324.62 L 4760.22,2316.15 L 4750.58,2305.45 L 4743.38,2292.98 L 4739.4,2280.71 L 3153.48,2280.71 L 3149.5,2292.98 L 3142.3,2305.45 L 3132.66,2316.15 L 3121.01,2324.62 L 3107.85,2330.47 L 3093.76,2333.47 L 3079.37,2333.47 L 3065.28,2330.47 L 3052.12,2324.62 L 3040.47,2316.15 L 3030.84,2305.45 L 3023.64,2292.98 L 3019.19,2279.28 L 3017.68,2264.96 L 3019.19,2250.64 L 3023.64,2236.94 L 3030.84,2224.47 L 3040.47,2213.77 L 3052.12,2205.3 L 3065.28,2199.45 L 3079.37,2196.45 L 3093.76,2196.45 L 3107.85,2199.45 L 3121.01,2205.3 L 3132.66,2213.77 L 3142.3,2224.47 L 3149.5,2236.94 L 3153.48,2249.21 z " style="fill-opacity:1.000000;fill:rgb(144,50,87);stroke:rgb(0,0,0);stroke-width:2"/></g>
<g fill-rule="evenodd"><path d="M 1331.07,4551.33 L 1325.53,4550.15 L 1312.38,4544.29 L 1300.73,4535.83 L 1291.09,4525.12 L 1283.89,4512.65 L 1279.44,4498.96 L 1277.93,4484.63 L 1279.44,4470.31 L 1283.89,4456.62 L 1291.09,4444.14 L 1300.73,4433.44 L 1312.38,4424.98 L 1325.53,4419.12 L 1339.62,4416.13 L 1354.02,4416.13 L 1368.11,4419.12 L 1381.26,4424.98 L 1392.91,4433.44 L 1402.55,4444.14 L 1409.75,4456.62 L 1414.2,4470.31 L 1415.71,4484.63 L 1414.2,4498.96 L 1409.75,4512.65 L 1402.55,4525.12 L 1392.91,4535.83 L 1381.26,4544.29 L 1368.11,4550.15 L 1362.57,4551.32 L 1362.57,5197.83 L 1368.11,5199.01 L 1381.26,5204.86 L 1392.91,5213.33 L 1402.55,5224.03 L 1409.75,5236.5 L 1414.2,5250.2 L 1415.71,5264.52 L 1414.2,5278.84 L 1409.75,5292.54 L 1402.55,5305.01 L 1392.91,5315.71 L 1381.26,5324.18 L 1368.11,5330.03 L 1354.02,5333.03 L 1339.62,5333.03 L 1325.53,5330.03 L 1312.38,5324.18 L 1300.73,5315.71 L 1291.09,5305.01 L 1283.89,5292.54 L 1279.44,5278.84 L 1277.93,5264.52 L 1279.44,5250.2 L 1283.89,5236.5 L 1291.09,5224.03 L 1300.73,5213.33 L 1312.38,5204.86 L 1325.53,5199.01 L 1331.07,5197.83 L 1331.07,4551.33 z " style="fill-opacity:1.000000;fill:rgb(68,238,155);stroke:rgb(0,0,0);stroke-width:2"/></g>
<g fill-rule="evenodd"><path d="M 2553.84,5533 L 2539.45,5533 L 2525.36,5530.01 L 2512.2,5524.15 L 2500.55,5515.68 L 2490.92,5504.98 L 2483.71,5492.51 L 2479.26,5478.81 L 2477.76,5464.49 L 2479.26,5450.17 L 2483.71,5436.47 L 2490.92,5424 L 2500.55,5413.3 L 2512.2,5404.83 L 2525.36,5398.98 L 2530.9,5397.8 L 2530.9,3691.45 L 2525.36,3690.27 L 2512.2,3684.42 L 2500.55,3675.95 L 2490.92,3665.25 L 2483.71,3652.78 L 2479.26,3639.08 L 2477.76,3624.76 L 2479.26,3610.44 L 2483.71,3596.74 L 2490.92,3584.27 L 2500.55,3573.57 L 2512.2,3565.1 L 2525.36,3559.25 L 2539.45,3556.25 L 2553.84,3556.25 L 2567.93,3559.25 L 2581.09,3565.1 L 2592.74,3573.57 L 2602.37,3584.27 L 2609.58,3596.74 L 2614.03,3610.44 L 2615.53,3624.76 L 2614.03,3639.08 L 2609.58,3652.78 L 2602.37,3665.25 L 2592.74,3675.95 L 2581.09,3684.42 L 2567.93,3690.27 L 2562.39,3691.45 L 2562.39,5397.8 L 2567.93,5398.98 L 2581.09,5404.83 L 2592.74,5413.3 L 2602.37,5424 L 2609.58,5436.47 L 2614.03,5450.17 L 2615.53,5464.49 L 2614.03,5478.81 L 2609.58,5492.51 L 2602.37,5504.98 L 2592.74,5515.68 L 2581.09,5524.15 L 2567.93,5530.01 L 2553.84,5533 z " style="fill-opacity:1.000000;fill:rgb(188,233,229);stroke:rgb(0,0,0);stroke-width:2"/></g>
<g fill-rule="evenodd"><path d="M 2402.41,4817.88 L 2407.96,4819.06 L 2421.11,4824.92 L 2432.76,4833.38 L 2442.4,4844.09 L 2449.6,4856.56 L 2454.05,4870.25 L 2455.55,4884.58 L 2454.05,4898.9 L 2449.6,4912.59 L 2442.4,4925.07 L 2432.76,4935.77 L 2421.11,4944.23 L 2407.96,4950.09 L 2393.87,4953.08 L 2379.47,4953.08 L 2365.38,4950.09 L 2352.23,4944.23 L 2340.58,4935.77 L 2330.94,4925.07 L 2323.74,4912.59 L 2319.29,4898.9 L 2317.78,4884.58 L 2319.29,4870.25 L 2323.74,4856.56 L 2330.94,4844.09 L 2340.58,4833.38 L 2352.23,4824.92 L 2365.38,4819.06 L 2370.92,4817.89 L 2370.92,3871.43 L 2365.38,3870.25 L 2352.23,3864.39 L 2340.58,3855.93 L 2330.94,3845.22 L 2323.74,3832.75 L 2319.29,3819.06 L 2317.78,3804.73 L 2319.29,3790.41 L 2323.74,3776.72 L 2330.94,3764.24 L 2340.58,3753.54 L 2352.23,3745.08 L 2365.38,3739.22 L 2379.47,3736.23 L 2393.87,3736.23 L 2407.96,3739.22 L 2421.11,3745.08 L 2432.76,3753.54 L 2442.4,3764.24 L 2449.6,3776.72 L 2454.05,3790.41 L 2455.55,3804.73 L 2454.05,3819.06 L 2449.6,3832.75 L 2442.4,3845.22 L 2432.76,3855.93 L 2421.11,3864.39 L 2407.96,3870.25 L 2402.41,3871.42 L 2402.41,4817.88 z " style="fill-opacity:1.000000;fill:rgb(37,207,8);stroke:rgb(0,0,0);stroke-width:2"/></g>
<g fill-rule="evenodd"><path d="M 4584.42,1419.34 L 4588.41,1407.06 L 4595.61,1394.59 L 4605.24,1383.89 L 4616.89,1375.42 L 4630.05,1369.57 L 4644.14,1366.57 L 4658.54,1366.57 L 4672.62,1369.57 L 4685.78,1375.42 L 4697.43,1383.89 L 4707.07,1394.59 L 4714.27,1407.06 L 4718.72,1420.76 L 4720.22,1435.08 L 4718.72,1449.4 L 4714.27,1463.1 L 4707.07,1475.57 L 4697.43,1486.27 L 4685.78,1494.74 L 4672.62,1500.6 L 4658.54,1503.59 L 4644.14,1503.59 L 4630.05,1500.6 L 4616.89,1494.74 L 4605.24,1486.27 L 4595.61,1475.57 L 4588.41,1463.1 L 4584.42,1450.83 L 3658.41,1450.83 L 3654.42,1463.1 L 3647.22,1475.57 L 3637.59,1486.27 L 3625.93,1494.74 L 3612.78,1500.6 L 3598.69,1503.59 L 3584.29,1503.59 L 3570.21,1500.6 L 3557.05,1494.74 L 3545.4,1486.27 L 3535.76,1475.57 L 3528.56,1463.1 L 3524.11,1449.4 L 3522.61,1435.08 L 3524.11,1420.76 L 3528.56,1407.06 L 3535.76,1394.59 L 3545.4,1383.89 L 3557.05,1375.42 L 3570.21,1369.57 L 3584.29,1366.57 L 3598.69,1366.57 L 3612.78,1369.57 L 3625.93,1375.42 L 3637.59,1383.89 L 3647.22,1394.59 L 3654.42,1407.06 L 3658.41,1419.34 L 4584.42,1419.34 z " style="fill-opacity:1.000000;fill:rgb(245,233,226);stroke:rgb(0,0,0);stroke-width:2"/></g>
<g fill-rule="evenodd"><path d="M 3332.18,2115.3 L 4560.7,2115.3 L 4563.41,2106.96 L 4570.61,2094.49 L 4580.25,2083.79 L 4591.9,2075.32 L 4605.05,2069.46 L 4619.14,2066.47 L 4633.54,2066.47 L 4647.63,2069.46 L 4660.78,2075.32 L 4672.43,2083.79 L 4682.07,2094.49 L 4689.27,2106.96 L 4693.72,2120.66 L 4695.23,2134.98 L 4693.72,2149.3 L 4689.27,2163 L 4682.07,2175.47 L 4672.43,2186.17 L 4660.78,2194.64 L 4647.63,2200.49 L 4633.54,2203.49 L 4619.14,2203.49 L 4605.05,2200.49 L 4591.9,2194.64 L 4580.25,2186.17 L 4570.61,2175.47 L 4563.41,2163 L 4560.7,2154.66 L 3332.18,2154.66 L 3329.47,2163 L 3322.27,2175.47 L 3312.63,2186.17 L 3300.98,2194.64 L 3287.83,2200.49 L 3273.74,2203.49 L 3259.34,2203.49 L 3245.25,2200.49 L 3232.1,2194.64 L 3220.45,2186.17 L 3210.81,2175.47 L 3203.61,2163 L 3199.16,2149.3 L 3197.65,2134.98 L 3199.16,2120.66 L 3203.61,2106.96 L 3210.81,2094.49 L 3220.45,2083.79 L 3232.1,2075.32 L 3245.25,2069.46 L 3259.34,2066.47 L 3273.74,2066.47 L 3287.83,2069.46 L 3300.98,2075.32 L 3312.63,2083.79 L 3322.27,2094.49 L 3329.47,2106.96 L 3332.18,2115.3 z " style="fill-opacity:1.000000;fill:rgb(94,83,96);stroke:rgb(0,0,0);stroke-width:2"/></g>
<g fill-rule="evenodd"><path d="M 3127.21,1030.46 L 4580.7,1030.46 L 4583.41,1022.12 L 4590.61,1009.65 L 4600.24,998.945 L 4611.89,990.48 L 4625.05,984.623 L 4639.14,981.629 L 4653.54,981.629 L 4667.62,984.623 L 4680.78,990.48 L 4692.43,998.945 L 4702.07,1009.65 L 4709.27,1022.12 L 4713.72,1035.82 L 4715.22,1050.14 L 4713.72,1064.46 L 4709.27,1078.16 L 4702.07,1090.63 L 4692.43,1101.33 L 4680.78,1109.79 L 4667.62,1115.65 L 4653.54,1118.65 L 4639.14,1118.65 L 4625.05,1115.65 L 4611.89,1109.79 L 4600.24,1101.33 L 4590.61,1090.63 L 4583.41,1078.16 L 4580.7,1069.82 L 3127.21,1069.82 L 3124.5,1078.16 L 3117.3,1090.63 L 3107.66,1101.33 L 3096.01,1109.79 L 3082.86,1115.65 L 3068.77,1118.65 L 3054.37,1118.65 L 3040.28,1115.65 L 3027.13,1109.79 L 3015.48,1101.33 L 3005.84,1090.63 L 2998.64,1078.16 L 2994.19,1064.46 L 2992.68,1050.14 L 2994.19,1035.82 L 2998.64,1022.12 L 3005.84,1009.65 L 3015.48,998.945 L 3027.13,990.48 L 3040.28,984.623 L 3054.37,981.629 L 3068.77,981.629 L 3082.86,984.623 L 3096.01,990.48 L 3107.66,998.945 L 3117.3,1009.65 L 3124.5,1022.12 L 3127.21,1030.46 z " style="fill-opacity:1.000000;fill:rgb(170,210,178);stroke:rgb(0,0,0);stroke-width:2"/></g>
<g fill-rule="evenodd"><path d="M 3172.2,3104.52 L 3169.49,3112.86 L 3162.29,3125.33 L 3152.66,3136.03 L 3141.01,3144.5 L 3127.85,3150.35 L 3113.76,3153.35 L 3099.36,3153.35 L 3085.28,3150.35 L 3072.12,3144.5 L 3060.47,3136.03 L 3050.83,3125.33 L 3043.63,3112.86 L 3039.18,3099.16 L 3037.68,3084.84 L 3039.18,3070.52 L 3043.63,3056.82 L 3050.83,3044.35 L 3060.47,3033.65 L 3072.12,3025.18 L 3085.28,3019.32 L 3099.36,3016.33 L 3113.76,3016.33 L 3127.85,3019.32 L 3141.01,3025.18 L 3152.66,3033.65 L 3162.29,3044.35 L 3169.49,3056.82 L 3172.2,3065.16 L 4300.74,3065.16 L 4303.45,3056.82 L 4310.65,3044.35 L 4320.29,3033.65 L 4331.94,3025.18 L 4345.09,3019.32 L 4359.18,3016.33 L 4373.58,3016.33 L 4387.67,3019.32 L 4400.82,3025.18 L 4412.47,3033.65 L 4422.11,3044.35 L 4429.31,3056.82 L 4433.76,3070.52 L 4435.26,3084.84 L 4433.76,3099.16 L 4429.31,3112.86 L 4422.11,3125.33 L 4412.47,3136.03 L 4400.82,3144.5 L 4387.67,3150.35 L 4373.58,3153.35 L 4359.18,3153.35 L 4345.09,3150.35 L 4331.94,3144.5 L 4320.29,3136.03 L 4310.65,3125.33 L 4303.45,3112.86 L 4300.74,3104.52 L 3172.2,3104.52 z " style="fill-opacity:1.000000;fill:rgb(208,133,250);stroke:rgb(0,0,0);stroke-width:2"/></g>
<g fill-rule="evenodd"><path d="M 3492.16,1784.71 L 3489.45,1793.05 L 3482.25,1805.52 L 3472.61,1816.23 L 3460.96,1824.69 L 3447.8,1830.55 L 3433.72,1833.54 L 3419.32,1833.54 L 3405.23,1830.55 L 3392.07,1824.69 L 3380.42,1816.23 L 3370.79,1805.52 L 3363.59,1793.05 L 3359.14,1779.35 L 3357.63,1765.03 L 3359.14,1750.71 L 3363.59,1737.01 L 3370.79,1724.54 L 3380.42,1713.84 L 3392.07,1705.38 L 3405.23,1699.52 L 3419.32,1696.52 L 3433.72,1696.52 L 3447.8,1699.52 L 3460.96,1705.38 L 3472.61,1713.84 L 3482.25,1724.54 L 3489.45,1737.01 L 3492.15,1745.35 L 4740.67,1745.35 L 4743.38,1737.01 L 4750.58,1724.54 L 4760.22,1713.84 L 4771.87,1705.38 L 4785.03,1699.52 L 4799.12,1696.52 L 4813.51,1696.52 L 4827.6,1699.52 L 4840.76,1705.38 L 4852.41,1713.84 L 4862.04,1724.54 L 4869.24,1737.01 L 4873.69,1750.71 L 4875.2,1765.03 L 4873.69,1779.35 L 4869.24,1793.05 L 4862.04,1805.52 L 4852.41,1816.23 L 4840.76,1824.69 L 4827.6,1830.55 L 4813.51,1833.54 L 4799.12,1833.54 L 4785.03,1830.55 L 4771.87,1824.69 L 4760.22,1816.23 L 4750.58,1805.52 L 4743.38,1793.05 L 4740.68,1784.71 L 3492.16,1784.71 z " style="fill-opacity:1.000000;fill:rgb(84,216,53);stroke:rgb(0,0,0);stroke-width:2"/></g>
<g fill-rule="evenodd"><path d="M 1127.17,5358.64 L 1127.17,4250.53 L 1125.56,4250.19 L 1112.41,4244.34 L 1100.76,4235.87 L 1091.12,4225.17 L 1083.92,4212.7 L 1079.47,4199 L 1077.96,4184.68 L 1079.47,4170.36 L 1083.92,4156.66 L 1091.12,4144.19 L 1100.76,4133.49 L 1112.41,4125.02 L 1125.56,4119.16 L 1139.65,4116.17 L 1154.05,4116.17 L 1168.14,4119.16 L 1181.29,4125.02 L 1192.94,4133.49 L 1202.58,4144.19 L 1209.78,4156.66 L 1214.23,4170.36 L 1215.74,4184.68 L 1214.23,4199 L 1209.78,4212.7 L 1202.58,4225.17 L 1192.94,4235.87 L 1181.29,4244.34 L 1168.14,4250.19 L 1166.53,4250.53 L 1166.53,5358.64 L 1168.14,5358.98 L 1181.29,5364.84 L 1192.94,5373.3 L 1202.58,5384.01 L 1209.78,5396.48 L 1214.23,5410.17 L 1215.74,5424.5 L 1214.23,5438.82 L 1209.78,5452.51 L 1202.58,5464.99 L 1192.94,5475.69 L 1181.29,5484.15 L 1168.14,5490.01 L 1154.05,5493 L 1139.65,5493 L 1125.56,5490.01 L 1112.41,5484.15 L 1100.76,5475.69 L 1091.12,5464.99 L 1083.92,5452.51 L 1079.47,5438.82 L 1077.96,5424.5 L 1079.47,5410.17 L 1083.92,5396.48 L 1091.12,5384.01 L 1100.76,5373.3 L 1112.41,5364.84 L 1125.56,5358.98 L 1127.17,5358.64 z " style="fill-opacity:1.000000;fill:rgb(232,212,102);stroke:rgb(0,0,0);stroke-width:2"/></g>
<g fill-rule="evenodd"><path d="M 226.669,2130.84 L 226.669,2639.04 L 228.274,2639.38 L 241.43,2645.24 L 253.081,2653.7 L 262.717,2664.4 L 269.918,2676.88 L 274.368,2690.57 L 275.873,2704.9 L 274.368,2719.22 L 269.918,2732.91 L 262.717,2745.39 L 253.081,2756.09 L 241.43,2764.55 L 228.274,2770.41 L 214.186,2773.4 L 199.788,2773.4 L 185.701,2770.41 L 172.544,2764.55 L 160.894,2756.09 L 151.258,2745.39 L 144.057,2732.91 L 139.607,2719.22 L 138.102,2704.9 L 139.607,2690.57 L 144.057,2676.88 L 151.258,2664.4 L 160.894,2653.7 L 172.544,2645.24 L 185.701,2639.38 L 187.306,2639.04 L 187.306,2130.85 L 185.701,2130.5 L 172.544,2124.65 L 160.894,2116.18 L 151.258,2105.48 L 144.057,2093.01 L 139.607,2079.31 L 138.102,2064.99 L 139.607,2050.67 L 144.057,2036.97 L 151.258,2024.5 L 160.894,2013.8 L 172.544,2005.33 L 185.701,1999.47 L 199.788,1996.48 L 214.186,1996.48 L 228.274,1999.47 L 241.43,2005.33 L 253.081,2013.8 L 262.717,2024.5 L 269.918,2036.97 L 274.368,2050.67 L 275.873,2064.99 L 274.368,2079.31 L 269.918,2093.01 L 262.717,2105.48 L 253.081,2116.18 L 241.43,2124.65 L 228.274,2130.5 L 226.669,2130.84 z " style="fill-opacity:1.000000;fill:rgb(130,100,152);stroke:rgb(0,0,0);stroke-width:2"/></g>
<g fill-rule="evenodd"><path d="M 506.628,1999.13 L 508.233,1999.47 L 521.389,2005.33 L 533.04,2013.8 L 542.676,2024.5 L 549.877,2036.97 L 554.327,2050.67 L 555.832,2064.99 L 554.327,2079.31 L 549.877,2093.01 L 542.676,2105.48 L 533.04,2116.18 L 521.389,2124.65 L 508.233,2130.5 L 494.145,2133.5 L 479.747,2133.5 L 465.66,2130.5 L 452.503,2124.65 L 440.853,2116.18 L 431.217,2105.48 L 424.016,2093.01 L 419.566,2079.31 L 418.061,2064.99 L 419.566,2050.67 L 424.016,2036.97 L 431.217,2024.5 L 440.853,2013.8 L 452.503,2005.33 L 465.66,1999.47 L 467.265,1999.13 L 467.265,1510.94 L 465.66,1510.59 L 452.503,1504.74 L 440.853,1496.27 L 431.217,1485.57 L 424.016,1473.1 L 419.566,1459.4 L 418.061,1445.08 L 419.566,1430.76 L 424.016,1417.06 L 431.217,1404.59 L 440.853,1393.89 L 452.503,1385.42 L 465.66,1379.57 L 479.747,1376.57 L 494.145,1376.57 L 508.233,1379.57 L 521.389,1385.42 L 533.04,1393.89 L 542.676,1404.59 L 549.877,1417.06 L 554.327,1430.76 L 555.832,1445.08 L 554.327,1459.4 L 549.877,1473.1 L 542.676,1485.57 L 533.04,1496.27 L 521.389,1504.74 L 508.233,1510.59 L 506.628,1510.93 L 506.628,1999.13 z " style="fill-opacity:1.000000;fill:rgb(217,168,135);stroke:rgb(0,0,0);stroke-width:2"/></g>
<g fill-rule="evenodd"><path d="M 3086.25,1579.2 L 3087.86,1579.54 L 3101.01,1585.39 L 3112.66,1593.86 L 3122.3,1604.56 L 3129.5,1617.03 L 3133.95,1630.73 L 3135.45,1645.05 L 3133.95,1659.37 L 3129.5,1673.07 L 3122.3,1685.54 L 3112.66,1696.24 L 3101.01,1704.71 L 3087.86,1710.57 L 3073.77,1713.56 L 3059.37,1713.56 L 3045.28,1710.57 L 3032.13,1704.71 L 3020.48,1696.24 L 3010.84,1685.54 L 3003.64,1673.07 L 2999.19,1659.37 L 2997.68,1645.05 L 2999.19,1630.73 L 3003.64,1617.03 L 3010.84,1604.56 L 3020.48,1593.86 L 3032.13,1585.39 L 3045.28,1579.54 L 3046.89,1579.2 L 3046.89,1310.97 L 3045.28,1310.62 L 3032.13,1304.77 L 3020.48,1296.3 L 3010.84,1285.6 L 3003.64,1273.13 L 2999.19,1259.43 L 2997.68,1245.11 L 2999.19,1230.79 L 3003.64,1217.09 L 3010.84,1204.62 L 3020.48,1193.92 L 3032.13,1185.45 L 3045.28,1179.59 L 3059.37,1176.6 L 3073.77,1176.6 L 3087.86,1179.59 L 3101.01,1185.45 L 3112.66,1193.92 L 3122.3,1204.62 L 3129.5,1217.09 L 3133.95,1230.79 L 3135.45,1245.11 L 3133.95,1259.43 L 3129.5,1273.13 L 3122.3,1285.6 L 3112.66,1296.3 L 3101.01,1304.77 L 3087.86,1310.62 L 3086.25,1310.96 L 3086.25,1579.2 z " style="fill-opacity:1.000000;fill:rgb(117,101,112);stroke:rgb(0,0,0);stroke-width:2"/></g>
<g fill-rule="evenodd"><path d="M 2466.97,1579.2 L 2466.97,1310.97 L 2465.37,1310.62 L 2452.21,1304.77 L 2440.56,1296.3 L 2430.92,1285.6 L 2423.72,1273.13 L 2419.27,1259.43 L 2417.77,1245.11 L 2419.27,1230.79 L 2423.72,1217.09 L 2430.92,1204.62 L 2440.56,1193.92 L 2452.21,1185.45 L 2465.37,1179.59 L 2479.45,1176.6 L 2493.85,1176.6 L 2507.94,1179.59 L 2521.1,1185.45 L 2532.75,1193.92 L 2542.38,1204.62 L 2549.58,1217.09 L 2554.03,1230.79 L 2555.54,1245.11 L 2554.03,1259.43 L 2549.58,1273.13 L 2542.38,1285.6 L 2532.75,1296.3 L 2521.1,1304.77 L 2507.94,1310.62 L 2506.33,1310.96 L 2506.33,1579.2 L 2507.94,1579.54 L 2521.1,1585.39 L 2532.75,1593.86 L 2542.38,1604.56 L 2549.58,1617.03 L 2554.03,1630.73 L 2555.54,1645.05 L 2554.03,1659.37 L 2549.58,1673.07 L 2542.38,1685.54 L 2532.75,1696.24 L 2521.1,1704.71 L 2507.94,1710.57 L 2493.85,1713.56 L 2479.45,1713.56 L 2465.37,1710.57 L 2452.21,1704.71 L 2440.56,1696.24 L 2430.92,1685.54 L 2423.72,1673.07 L 2419.27,1659.37 L 2417.77,1645.05 L 2419.27,1630.73 L 2423.72,1617.03 L 2430.92,1604.56 L 2440.56,1593.86 L 2452.21,1585.39 L 2465.37,1579.54 L 2466.97,1579.2 z " style="fill-opacity:1.000000;fill:rgb(90,138,63);stroke:rgb(0,0,0);stroke-width:2"/></g>
</svg>
