<?xml version="1.0" standalone="no"?>
<!DOCTYPE svg PUBLIC "-//W3C//DTD SVG 1.1//EN"
"http://www.w3.org/Graphics/SVG/1.1/DTD/svg11.dtd">
<svg width="7716" height="6236" viewBox="0 0 7716 6236" version="1.1"
xmlns="http://www.w3.org/2000/svg"
xmlns:xlink="http://www.w3.org/1999/xlink">
<g fill-rule="evenodd"><path d="M 0.0261056,118.106 L 2.29603,95.0646 L 9.01779,72.9094 L 19.9314,52.4901 L 34.6189,34.5928 L 52.5163,19.9053 L 72.9355,8.99168 L 95.0908,2.26992 L 118.132,0 L 7597.87,0 L 7620.91,2.26992 L 7643.06,8.99168 L 7663.48,19.9053 L 7681.38,34.5928 L 7696.07,52.4901 L 7706.98,72.9094 L 7713.7,95.0646 L 7715.97,118.106 L 7715.97,6117.89 L 7713.7,6140.94 L 7706.98,6163.09 L 7696.07,6183.51 L 7681.38,6201.41 L 7663.48,6216.09 L 7643.06,6227.01 L 7620.91,6233.73 L 7597.87,6236 L 118.132,6236 L 95.0908,6233.73 L 72.9355,6227.01 L 52.5163,6216.09 L 34.6189,6201.41 L 19.9314,6183.51 L 9.01779,6163.09 L 2.29603,6140.94 L 0.0261056,6117.89 L 0.0261056,118.106 z " style="fill-opacity:1.000000;fill:rgb(103,198,105);stroke:rgb(0,0,0);stroke-width:2"/></g>
</svg>
