<?xml version="1.0" standalone="no"?>
<!DOCTYPE svg PUBLIC "-//W3C//DTD SVG 1.1//EN"
"http://www.w3.org/Graphics/SVG/1.1/DTD/svg11.dtd">
<svg width="7786" height="6146" viewBox="0 0 7786 6146" version="1.1"
xmlns="http://www.w3.org/2000/svg"
xmlns:xlink="http://www.w3.org/1999/xlink">
<g fill-rule="evenodd"><path d="M 0.0293514,6146 L 0.0293514,0 L 7785.97,0 L 7785.97,6146 L 0.0293514,6146 z " style="fill-opacity:0.300000;fill:rgb(103,198,105);"/></g>
<g fill-rule="evenodd"><path d="M 0.0293514,118.106 L 2.29927,95.0646 L 9.02103,72.9094 L 19.9346,52.4901 L 34.6221,34.5928 L 52.5195,19.9053 L 72.9387,8.99168 L 95.0939,2.26992 L 118.135,0 L 7667.86,0 L 7690.91,2.26992 L 7713.06,8.99168 L 7733.48,19.9053 L 7751.38,34.5928 L 7766.07,52.4901 L 7776.98,72.9094 L 7783.7,95.0646 L 7785.97,118.106 L 7785.97,6027.89 L 7783.7,6050.94 L 7776.98,6073.09 L 7766.07,6093.51 L 7751.38,6111.41 L 7733.48,6126.09 L 7713.06,6137.01 L 7690.91,6143.73 L 7667.86,6146 L 118.135,6146 L 95.0939,6143.73 L 72.9387,6137.01 L 52.5195,6126.09 L 34.6221,6111.41 L 19.9346,6093.51 L 9.02103,6073.09 L 2.29927,6050.94 L 0.0293514,6027.89 L 0.0293514,118.106 z " style="fill-opacity:0.600000;fill:rgb(103,198,105);stroke:rgb(0,0,0);stroke-width:2"/></g>
<g fill-rule="evenodd"><path d="M 118.135,6027.89 L 118.135,118.106 L 7667.86,118.106 L 7667.86,6027.89 L 118.135,6027.89 z " style="fill-opacity:1.000000;fill:rgb(103,198,105);stroke:rgb(0,0,0);stroke-width:2"/></g>
</svg>
