G04 #@! TF.FileFunction,Legend,Top*
%FSLAX46Y46*%
G04 Gerber Fmt 4.6, Leading zero omitted, Abs format (unit mm)*
G04 Created by KiCad (PCBNEW 4.0.6-e0-6349~53~ubuntu16.04.1) date Mon May  1 16:02:50 2017*
%MOMM*%
%LPD*%
G01*
G04 APERTURE LIST*
%ADD10C,0.100000*%
%ADD11C,0.150000*%
%ADD12C,0.120000*%
%ADD13C,0.203200*%
G04 APERTURE END LIST*
D10*
D11*
X12192000Y48514000D02*
X32512000Y48514000D01*
X32512000Y48514000D02*
X32512000Y7874000D01*
X32512000Y7874000D02*
X12192000Y7874000D01*
X12192000Y7874000D02*
X12192000Y48514000D01*
D12*
X89062000Y21880000D02*
X89062000Y21550000D01*
X89062000Y21550000D02*
X82642000Y21550000D01*
X82642000Y21550000D02*
X82642000Y21880000D01*
X89062000Y23840000D02*
X89062000Y24170000D01*
X89062000Y24170000D02*
X82642000Y24170000D01*
X82642000Y24170000D02*
X82642000Y23840000D01*
X11658000Y36572000D02*
X11658000Y8132000D01*
X11658000Y8132000D02*
X2058000Y8132000D01*
X2058000Y8132000D02*
X2058000Y36572000D01*
X2058000Y36572000D02*
X11658000Y36572000D01*
X43902000Y63440000D02*
X43902000Y68560000D01*
X46522000Y63440000D02*
X46522000Y68560000D01*
X43902000Y63440000D02*
X44216000Y63440000D01*
X46208000Y63440000D02*
X46522000Y63440000D01*
X43902000Y68560000D02*
X44216000Y68560000D01*
X46208000Y68560000D02*
X46522000Y68560000D01*
D13*
X76708000Y49784000D02*
X76708000Y57404000D01*
X76708000Y57404000D02*
X89408000Y57404000D01*
X89408000Y57404000D02*
X89408000Y49784000D01*
X89408000Y49784000D02*
X76708000Y49784000D01*
D12*
X91380000Y65278000D02*
X91380000Y60138000D01*
X91380000Y60138000D02*
X94040000Y60138000D01*
X94040000Y60138000D02*
X94040000Y65278000D01*
X94040000Y65278000D02*
X91380000Y65278000D01*
X91380000Y66548000D02*
X91380000Y67878000D01*
X91380000Y67878000D02*
X92710000Y67878000D01*
X91380000Y30734000D02*
X91380000Y28134000D01*
X91380000Y28134000D02*
X94040000Y28134000D01*
X94040000Y28134000D02*
X94040000Y30734000D01*
X94040000Y30734000D02*
X91380000Y30734000D01*
X91380000Y32004000D02*
X91380000Y33334000D01*
X91380000Y33334000D02*
X92710000Y33334000D01*
X91380000Y38862000D02*
X91380000Y36262000D01*
X91380000Y36262000D02*
X94040000Y36262000D01*
X94040000Y36262000D02*
X94040000Y38862000D01*
X94040000Y38862000D02*
X91380000Y38862000D01*
X91380000Y40132000D02*
X91380000Y41462000D01*
X91380000Y41462000D02*
X92710000Y41462000D01*
X5902000Y64262000D02*
X5902000Y66862000D01*
X5902000Y66862000D02*
X3242000Y66862000D01*
X3242000Y66862000D02*
X3242000Y64262000D01*
X3242000Y64262000D02*
X5902000Y64262000D01*
X5902000Y62992000D02*
X5902000Y61662000D01*
X5902000Y61662000D02*
X4572000Y61662000D01*
X3242000Y56388000D02*
X3242000Y48708000D01*
X3242000Y48708000D02*
X5902000Y48708000D01*
X5902000Y48708000D02*
X5902000Y56388000D01*
X5902000Y56388000D02*
X3242000Y56388000D01*
X3242000Y57658000D02*
X3242000Y58988000D01*
X3242000Y58988000D02*
X4572000Y58988000D01*
X24603400Y55535137D02*
G75*
G03X24602000Y60329436I-981400J2396863D01*
G01*
X22640600Y55535137D02*
G75*
G02X22642000Y60329436I981400J2396863D01*
G01*
X22640600Y55535137D02*
G75*
G03X24602000Y55534564I981400J2396863D01*
G01*
X26172000Y57932000D02*
X21072000Y57932000D01*
X26172000Y57892000D02*
X21072000Y57892000D01*
X26171000Y57852000D02*
X21073000Y57852000D01*
X26170000Y57812000D02*
X21074000Y57812000D01*
X26168000Y57772000D02*
X21076000Y57772000D01*
X26165000Y57732000D02*
X21079000Y57732000D01*
X26161000Y57692000D02*
X21083000Y57692000D01*
X26157000Y57652000D02*
X24602000Y57652000D01*
X22642000Y57652000D02*
X21087000Y57652000D01*
X26153000Y57612000D02*
X24602000Y57612000D01*
X22642000Y57612000D02*
X21091000Y57612000D01*
X26147000Y57572000D02*
X24602000Y57572000D01*
X22642000Y57572000D02*
X21097000Y57572000D01*
X26141000Y57532000D02*
X24602000Y57532000D01*
X22642000Y57532000D02*
X21103000Y57532000D01*
X26135000Y57492000D02*
X24602000Y57492000D01*
X22642000Y57492000D02*
X21109000Y57492000D01*
X26128000Y57452000D02*
X24602000Y57452000D01*
X22642000Y57452000D02*
X21116000Y57452000D01*
X26120000Y57412000D02*
X24602000Y57412000D01*
X22642000Y57412000D02*
X21124000Y57412000D01*
X26111000Y57372000D02*
X24602000Y57372000D01*
X22642000Y57372000D02*
X21133000Y57372000D01*
X26102000Y57332000D02*
X24602000Y57332000D01*
X22642000Y57332000D02*
X21142000Y57332000D01*
X26092000Y57292000D02*
X24602000Y57292000D01*
X22642000Y57292000D02*
X21152000Y57292000D01*
X26082000Y57252000D02*
X24602000Y57252000D01*
X22642000Y57252000D02*
X21162000Y57252000D01*
X26070000Y57211000D02*
X24602000Y57211000D01*
X22642000Y57211000D02*
X21174000Y57211000D01*
X26058000Y57171000D02*
X24602000Y57171000D01*
X22642000Y57171000D02*
X21186000Y57171000D01*
X26046000Y57131000D02*
X24602000Y57131000D01*
X22642000Y57131000D02*
X21198000Y57131000D01*
X26032000Y57091000D02*
X24602000Y57091000D01*
X22642000Y57091000D02*
X21212000Y57091000D01*
X26018000Y57051000D02*
X24602000Y57051000D01*
X22642000Y57051000D02*
X21226000Y57051000D01*
X26004000Y57011000D02*
X24602000Y57011000D01*
X22642000Y57011000D02*
X21240000Y57011000D01*
X25988000Y56971000D02*
X24602000Y56971000D01*
X22642000Y56971000D02*
X21256000Y56971000D01*
X25972000Y56931000D02*
X24602000Y56931000D01*
X22642000Y56931000D02*
X21272000Y56931000D01*
X25955000Y56891000D02*
X24602000Y56891000D01*
X22642000Y56891000D02*
X21289000Y56891000D01*
X25937000Y56851000D02*
X24602000Y56851000D01*
X22642000Y56851000D02*
X21307000Y56851000D01*
X25918000Y56811000D02*
X24602000Y56811000D01*
X22642000Y56811000D02*
X21326000Y56811000D01*
X25898000Y56771000D02*
X24602000Y56771000D01*
X22642000Y56771000D02*
X21346000Y56771000D01*
X25878000Y56731000D02*
X24602000Y56731000D01*
X22642000Y56731000D02*
X21366000Y56731000D01*
X25856000Y56691000D02*
X24602000Y56691000D01*
X22642000Y56691000D02*
X21388000Y56691000D01*
X25834000Y56651000D02*
X24602000Y56651000D01*
X22642000Y56651000D02*
X21410000Y56651000D01*
X25811000Y56611000D02*
X24602000Y56611000D01*
X22642000Y56611000D02*
X21433000Y56611000D01*
X25787000Y56571000D02*
X24602000Y56571000D01*
X22642000Y56571000D02*
X21457000Y56571000D01*
X25762000Y56531000D02*
X24602000Y56531000D01*
X22642000Y56531000D02*
X21482000Y56531000D01*
X25735000Y56491000D02*
X24602000Y56491000D01*
X22642000Y56491000D02*
X21509000Y56491000D01*
X25708000Y56451000D02*
X24602000Y56451000D01*
X22642000Y56451000D02*
X21536000Y56451000D01*
X25680000Y56411000D02*
X24602000Y56411000D01*
X22642000Y56411000D02*
X21564000Y56411000D01*
X25650000Y56371000D02*
X24602000Y56371000D01*
X22642000Y56371000D02*
X21594000Y56371000D01*
X25619000Y56331000D02*
X24602000Y56331000D01*
X22642000Y56331000D02*
X21625000Y56331000D01*
X25587000Y56291000D02*
X24602000Y56291000D01*
X22642000Y56291000D02*
X21657000Y56291000D01*
X25554000Y56251000D02*
X24602000Y56251000D01*
X22642000Y56251000D02*
X21690000Y56251000D01*
X25519000Y56211000D02*
X24602000Y56211000D01*
X22642000Y56211000D02*
X21725000Y56211000D01*
X25483000Y56171000D02*
X24602000Y56171000D01*
X22642000Y56171000D02*
X21761000Y56171000D01*
X25445000Y56131000D02*
X24602000Y56131000D01*
X22642000Y56131000D02*
X21799000Y56131000D01*
X25405000Y56091000D02*
X24602000Y56091000D01*
X22642000Y56091000D02*
X21839000Y56091000D01*
X25364000Y56051000D02*
X24602000Y56051000D01*
X22642000Y56051000D02*
X21880000Y56051000D01*
X25321000Y56011000D02*
X24602000Y56011000D01*
X22642000Y56011000D02*
X21923000Y56011000D01*
X25276000Y55971000D02*
X24602000Y55971000D01*
X22642000Y55971000D02*
X21968000Y55971000D01*
X25228000Y55931000D02*
X24602000Y55931000D01*
X22642000Y55931000D02*
X22016000Y55931000D01*
X25178000Y55891000D02*
X24602000Y55891000D01*
X22642000Y55891000D02*
X22066000Y55891000D01*
X25126000Y55851000D02*
X24602000Y55851000D01*
X22642000Y55851000D02*
X22118000Y55851000D01*
X25070000Y55811000D02*
X24602000Y55811000D01*
X22642000Y55811000D02*
X22174000Y55811000D01*
X25012000Y55771000D02*
X24602000Y55771000D01*
X22642000Y55771000D02*
X22232000Y55771000D01*
X24949000Y55731000D02*
X24602000Y55731000D01*
X22642000Y55731000D02*
X22295000Y55731000D01*
X24883000Y55691000D02*
X22361000Y55691000D01*
X24811000Y55651000D02*
X22433000Y55651000D01*
X24734000Y55611000D02*
X22510000Y55611000D01*
X24650000Y55571000D02*
X22594000Y55571000D01*
X24556000Y55531000D02*
X22688000Y55531000D01*
X24451000Y55491000D02*
X22793000Y55491000D01*
X24329000Y55451000D02*
X22915000Y55451000D01*
X24181000Y55411000D02*
X23063000Y55411000D01*
X23976000Y55371000D02*
X23268000Y55371000D01*
X23622000Y61382000D02*
X23622000Y60182000D01*
X24272000Y60782000D02*
X22972000Y60782000D01*
X36536000Y54042000D02*
X36536000Y59162000D01*
X39156000Y54042000D02*
X39156000Y59162000D01*
X36536000Y54042000D02*
X36850000Y54042000D01*
X38842000Y54042000D02*
X39156000Y54042000D01*
X36536000Y59162000D02*
X36850000Y59162000D01*
X38842000Y59162000D02*
X39156000Y59162000D01*
X71110000Y51188000D02*
X70980000Y51188000D01*
X70980000Y51188000D02*
X70980000Y56508000D01*
X70980000Y56508000D02*
X71110000Y56508000D01*
X73670000Y51188000D02*
X73800000Y51188000D01*
X73800000Y51188000D02*
X73800000Y56508000D01*
X73800000Y56508000D02*
X73670000Y56508000D01*
X70980000Y52028000D02*
X73800000Y52028000D01*
X91380000Y46990000D02*
X91380000Y44390000D01*
X91380000Y44390000D02*
X94040000Y44390000D01*
X94040000Y44390000D02*
X94040000Y46990000D01*
X94040000Y46990000D02*
X91380000Y46990000D01*
X91380000Y48260000D02*
X91380000Y49590000D01*
X91380000Y49590000D02*
X92710000Y49590000D01*
X91380000Y55118000D02*
X91380000Y52518000D01*
X91380000Y52518000D02*
X94040000Y52518000D01*
X94040000Y52518000D02*
X94040000Y55118000D01*
X94040000Y55118000D02*
X91380000Y55118000D01*
X91380000Y56388000D02*
X91380000Y57718000D01*
X91380000Y57718000D02*
X92710000Y57718000D01*
X91380000Y21590000D02*
X91380000Y18990000D01*
X91380000Y18990000D02*
X94040000Y18990000D01*
X94040000Y18990000D02*
X94040000Y21590000D01*
X94040000Y21590000D02*
X91380000Y21590000D01*
X91380000Y22860000D02*
X91380000Y24190000D01*
X91380000Y24190000D02*
X92710000Y24190000D01*
X91380000Y13970000D02*
X91380000Y11370000D01*
X91380000Y11370000D02*
X94040000Y11370000D01*
X94040000Y11370000D02*
X94040000Y13970000D01*
X94040000Y13970000D02*
X91380000Y13970000D01*
X91380000Y15240000D02*
X91380000Y16570000D01*
X91380000Y16570000D02*
X92710000Y16570000D01*
X68398000Y55350000D02*
X68398000Y58950000D01*
X67670795Y54825816D02*
G75*
G03X68398000Y55350000I-1122795J2324184D01*
G01*
X65449193Y54793600D02*
G75*
G02X63948000Y57150000I1098807J2356400D01*
G01*
X65449193Y59506400D02*
G75*
G03X63948000Y57150000I1098807J-2356400D01*
G01*
X67670795Y59474184D02*
G75*
G02X68398000Y58950000I-1122795J-2324184D01*
G01*
D11*
X34798000Y58166000D02*
X33655000Y58166000D01*
X34798000Y55118000D02*
X33655000Y55118000D01*
X33655000Y51308000D02*
X29972000Y51308000D01*
X29972000Y51308000D02*
X29972000Y61976000D01*
X29972000Y61976000D02*
X33655000Y61976000D01*
X34798000Y51308000D02*
X33655000Y51308000D01*
X33655000Y51308000D02*
X33655000Y61976000D01*
X33655000Y61976000D02*
X34798000Y61976000D01*
X34798000Y56642000D02*
X34798000Y61976000D01*
X34798000Y56642000D02*
X34798000Y51308000D01*
X38944000Y37860000D02*
X80944000Y37860000D01*
X80944000Y37860000D02*
X80944000Y7860000D01*
X80944000Y7860000D02*
X38944000Y7860000D01*
X38944000Y7860000D02*
X38944000Y37860000D01*
D12*
X48394000Y65040000D02*
X48394000Y63270000D01*
X48394000Y63270000D02*
X61334000Y63270000D01*
X61334000Y63270000D02*
X61334000Y68810000D01*
X61334000Y68810000D02*
X48394000Y68810000D01*
X48394000Y68810000D02*
X48394000Y67040000D01*
X48394000Y67040000D02*
G75*
G02X48394000Y65040000I0J-1000000D01*
G01*
D11*
X21590095Y28741619D02*
X21590095Y27932095D01*
X21637714Y27836857D01*
X21685333Y27789238D01*
X21780571Y27741619D01*
X21971048Y27741619D01*
X22066286Y27789238D01*
X22113905Y27836857D01*
X22161524Y27932095D01*
X22161524Y28741619D01*
X23161524Y27741619D02*
X22590095Y27741619D01*
X22875809Y27741619D02*
X22875809Y28741619D01*
X22780571Y28598762D01*
X22685333Y28503524D01*
X22590095Y28455905D01*
X85685334Y20097619D02*
X85352000Y20573810D01*
X85113905Y20097619D02*
X85113905Y21097619D01*
X85494858Y21097619D01*
X85590096Y21050000D01*
X85637715Y21002381D01*
X85685334Y20907143D01*
X85685334Y20764286D01*
X85637715Y20669048D01*
X85590096Y20621429D01*
X85494858Y20573810D01*
X85113905Y20573810D01*
X86637715Y20097619D02*
X86066286Y20097619D01*
X86352000Y20097619D02*
X86352000Y21097619D01*
X86256762Y20954762D01*
X86161524Y20859524D01*
X86066286Y20811905D01*
X12660381Y22018667D02*
X13374667Y22018667D01*
X13517524Y21971047D01*
X13612762Y21875809D01*
X13660381Y21732952D01*
X13660381Y21637714D01*
X13660381Y23018667D02*
X13660381Y22447238D01*
X13660381Y22732952D02*
X12660381Y22732952D01*
X12803238Y22637714D01*
X12898476Y22542476D01*
X12946095Y22447238D01*
D12*
X4320381Y31507715D02*
X4320381Y30936286D01*
X4320381Y31222000D02*
X3320381Y31222000D01*
X3463238Y31126762D01*
X3558476Y31031524D01*
X3606095Y30936286D01*
D11*
X43259143Y65833334D02*
X43306762Y65785715D01*
X43354381Y65642858D01*
X43354381Y65547620D01*
X43306762Y65404762D01*
X43211524Y65309524D01*
X43116286Y65261905D01*
X42925810Y65214286D01*
X42782952Y65214286D01*
X42592476Y65261905D01*
X42497238Y65309524D01*
X42402000Y65404762D01*
X42354381Y65547620D01*
X42354381Y65642858D01*
X42402000Y65785715D01*
X42449619Y65833334D01*
X42354381Y66166667D02*
X42354381Y66785715D01*
X42735333Y66452381D01*
X42735333Y66595239D01*
X42782952Y66690477D01*
X42830571Y66738096D01*
X42925810Y66785715D01*
X43163905Y66785715D01*
X43259143Y66738096D01*
X43306762Y66690477D01*
X43354381Y66595239D01*
X43354381Y66309524D01*
X43306762Y66214286D01*
X43259143Y66166667D01*
X86804667Y75737619D02*
X86471333Y76213810D01*
X86233238Y75737619D02*
X86233238Y76737619D01*
X86614191Y76737619D01*
X86709429Y76690000D01*
X86757048Y76642381D01*
X86804667Y76547143D01*
X86804667Y76404286D01*
X86757048Y76309048D01*
X86709429Y76261429D01*
X86614191Y76213810D01*
X86233238Y76213810D01*
X87233238Y76261429D02*
X87566572Y76261429D01*
X87709429Y75737619D02*
X87233238Y75737619D01*
X87233238Y76737619D01*
X87709429Y76737619D01*
X88471334Y76261429D02*
X88138000Y76261429D01*
X88138000Y75737619D02*
X88138000Y76737619D01*
X88614191Y76737619D01*
X89138000Y76737619D02*
X89138000Y76499524D01*
X88899905Y76594762D02*
X89138000Y76499524D01*
X89376096Y76594762D01*
X88995143Y76309048D02*
X89138000Y76499524D01*
X89280858Y76309048D01*
X89899905Y76737619D02*
X89899905Y76499524D01*
X89661810Y76594762D02*
X89899905Y76499524D01*
X90138001Y76594762D01*
X89757048Y76309048D02*
X89899905Y76499524D01*
X90042763Y76309048D01*
X6794667Y75737619D02*
X6461333Y76213810D01*
X6223238Y75737619D02*
X6223238Y76737619D01*
X6604191Y76737619D01*
X6699429Y76690000D01*
X6747048Y76642381D01*
X6794667Y76547143D01*
X6794667Y76404286D01*
X6747048Y76309048D01*
X6699429Y76261429D01*
X6604191Y76213810D01*
X6223238Y76213810D01*
X7223238Y76261429D02*
X7556572Y76261429D01*
X7699429Y75737619D02*
X7223238Y75737619D01*
X7223238Y76737619D01*
X7699429Y76737619D01*
X8461334Y76261429D02*
X8128000Y76261429D01*
X8128000Y75737619D02*
X8128000Y76737619D01*
X8604191Y76737619D01*
X9128000Y76737619D02*
X9128000Y76499524D01*
X8889905Y76594762D02*
X9128000Y76499524D01*
X9366096Y76594762D01*
X8985143Y76309048D02*
X9128000Y76499524D01*
X9270858Y76309048D01*
X9889905Y76737619D02*
X9889905Y76499524D01*
X9651810Y76594762D02*
X9889905Y76499524D01*
X10128001Y76594762D01*
X9747048Y76309048D02*
X9889905Y76499524D01*
X10032763Y76309048D01*
X6794667Y7157619D02*
X6461333Y7633810D01*
X6223238Y7157619D02*
X6223238Y8157619D01*
X6604191Y8157619D01*
X6699429Y8110000D01*
X6747048Y8062381D01*
X6794667Y7967143D01*
X6794667Y7824286D01*
X6747048Y7729048D01*
X6699429Y7681429D01*
X6604191Y7633810D01*
X6223238Y7633810D01*
X7223238Y7681429D02*
X7556572Y7681429D01*
X7699429Y7157619D02*
X7223238Y7157619D01*
X7223238Y8157619D01*
X7699429Y8157619D01*
X8461334Y7681429D02*
X8128000Y7681429D01*
X8128000Y7157619D02*
X8128000Y8157619D01*
X8604191Y8157619D01*
X9128000Y8157619D02*
X9128000Y7919524D01*
X8889905Y8014762D02*
X9128000Y7919524D01*
X9366096Y8014762D01*
X8985143Y7729048D02*
X9128000Y7919524D01*
X9270858Y7729048D01*
X9889905Y8157619D02*
X9889905Y7919524D01*
X9651810Y8014762D02*
X9889905Y7919524D01*
X10128001Y8014762D01*
X9747048Y7729048D02*
X9889905Y7919524D01*
X10032763Y7729048D01*
X86804667Y7157619D02*
X86471333Y7633810D01*
X86233238Y7157619D02*
X86233238Y8157619D01*
X86614191Y8157619D01*
X86709429Y8110000D01*
X86757048Y8062381D01*
X86804667Y7967143D01*
X86804667Y7824286D01*
X86757048Y7729048D01*
X86709429Y7681429D01*
X86614191Y7633810D01*
X86233238Y7633810D01*
X87233238Y7681429D02*
X87566572Y7681429D01*
X87709429Y7157619D02*
X87233238Y7157619D01*
X87233238Y8157619D01*
X87709429Y8157619D01*
X88471334Y7681429D02*
X88138000Y7681429D01*
X88138000Y7157619D02*
X88138000Y8157619D01*
X88614191Y8157619D01*
X89138000Y8157619D02*
X89138000Y7919524D01*
X88899905Y8014762D02*
X89138000Y7919524D01*
X89376096Y8014762D01*
X88995143Y7729048D02*
X89138000Y7919524D01*
X89280858Y7729048D01*
X89899905Y8157619D02*
X89899905Y7919524D01*
X89661810Y8014762D02*
X89899905Y7919524D01*
X90138001Y8014762D01*
X89757048Y7729048D02*
X89899905Y7919524D01*
X90042763Y7729048D01*
X92376667Y69425619D02*
X92376667Y68711333D01*
X92329047Y68568476D01*
X92233809Y68473238D01*
X92090952Y68425619D01*
X91995714Y68425619D01*
X92995714Y68997048D02*
X92900476Y69044667D01*
X92852857Y69092286D01*
X92805238Y69187524D01*
X92805238Y69235143D01*
X92852857Y69330381D01*
X92900476Y69378000D01*
X92995714Y69425619D01*
X93186191Y69425619D01*
X93281429Y69378000D01*
X93329048Y69330381D01*
X93376667Y69235143D01*
X93376667Y69187524D01*
X93329048Y69092286D01*
X93281429Y69044667D01*
X93186191Y68997048D01*
X92995714Y68997048D01*
X92900476Y68949429D01*
X92852857Y68901810D01*
X92805238Y68806571D01*
X92805238Y68616095D01*
X92852857Y68520857D01*
X92900476Y68473238D01*
X92995714Y68425619D01*
X93186191Y68425619D01*
X93281429Y68473238D01*
X93329048Y68520857D01*
X93376667Y68616095D01*
X93376667Y68806571D01*
X93329048Y68901810D01*
X93281429Y68949429D01*
X93186191Y68997048D01*
X92376667Y34881619D02*
X92376667Y34167333D01*
X92329047Y34024476D01*
X92233809Y33929238D01*
X92090952Y33881619D01*
X91995714Y33881619D01*
X93329048Y34881619D02*
X92852857Y34881619D01*
X92805238Y34405429D01*
X92852857Y34453048D01*
X92948095Y34500667D01*
X93186191Y34500667D01*
X93281429Y34453048D01*
X93329048Y34405429D01*
X93376667Y34310190D01*
X93376667Y34072095D01*
X93329048Y33976857D01*
X93281429Y33929238D01*
X93186191Y33881619D01*
X92948095Y33881619D01*
X92852857Y33929238D01*
X92805238Y33976857D01*
X92376667Y43009619D02*
X92376667Y42295333D01*
X92329047Y42152476D01*
X92233809Y42057238D01*
X92090952Y42009619D01*
X91995714Y42009619D01*
X93281429Y42676286D02*
X93281429Y42009619D01*
X93043333Y43057238D02*
X92805238Y42342952D01*
X93424286Y42342952D01*
X4238667Y61209619D02*
X4238667Y60495333D01*
X4191047Y60352476D01*
X4095809Y60257238D01*
X3952952Y60209619D01*
X3857714Y60209619D01*
X4619619Y61209619D02*
X5238667Y61209619D01*
X4905333Y60828667D01*
X5048191Y60828667D01*
X5143429Y60781048D01*
X5191048Y60733429D01*
X5238667Y60638190D01*
X5238667Y60400095D01*
X5191048Y60304857D01*
X5143429Y60257238D01*
X5048191Y60209619D01*
X4762476Y60209619D01*
X4667238Y60257238D01*
X4619619Y60304857D01*
X4238667Y60535619D02*
X4238667Y59821333D01*
X4191047Y59678476D01*
X4095809Y59583238D01*
X3952952Y59535619D01*
X3857714Y59535619D01*
X4667238Y60440381D02*
X4714857Y60488000D01*
X4810095Y60535619D01*
X5048191Y60535619D01*
X5143429Y60488000D01*
X5191048Y60440381D01*
X5238667Y60345143D01*
X5238667Y60249905D01*
X5191048Y60107048D01*
X4619619Y59535619D01*
X5238667Y59535619D01*
X27539143Y57765334D02*
X27586762Y57717715D01*
X27634381Y57574858D01*
X27634381Y57479620D01*
X27586762Y57336762D01*
X27491524Y57241524D01*
X27396286Y57193905D01*
X27205810Y57146286D01*
X27062952Y57146286D01*
X26872476Y57193905D01*
X26777238Y57241524D01*
X26682000Y57336762D01*
X26634381Y57479620D01*
X26634381Y57574858D01*
X26682000Y57717715D01*
X26729619Y57765334D01*
X27634381Y58717715D02*
X27634381Y58146286D01*
X27634381Y58432000D02*
X26634381Y58432000D01*
X26777238Y58336762D01*
X26872476Y58241524D01*
X26920095Y58146286D01*
X35893143Y56435334D02*
X35940762Y56387715D01*
X35988381Y56244858D01*
X35988381Y56149620D01*
X35940762Y56006762D01*
X35845524Y55911524D01*
X35750286Y55863905D01*
X35559810Y55816286D01*
X35416952Y55816286D01*
X35226476Y55863905D01*
X35131238Y55911524D01*
X35036000Y56006762D01*
X34988381Y56149620D01*
X34988381Y56244858D01*
X35036000Y56387715D01*
X35083619Y56435334D01*
X35083619Y56816286D02*
X35036000Y56863905D01*
X34988381Y56959143D01*
X34988381Y57197239D01*
X35036000Y57292477D01*
X35083619Y57340096D01*
X35178857Y57387715D01*
X35274095Y57387715D01*
X35416952Y57340096D01*
X35988381Y56768667D01*
X35988381Y57387715D01*
X70432381Y53109905D02*
X69432381Y53109905D01*
X69432381Y53348000D01*
X69480000Y53490858D01*
X69575238Y53586096D01*
X69670476Y53633715D01*
X69860952Y53681334D01*
X70003810Y53681334D01*
X70194286Y53633715D01*
X70289524Y53586096D01*
X70384762Y53490858D01*
X70432381Y53348000D01*
X70432381Y53109905D01*
X70432381Y54633715D02*
X70432381Y54062286D01*
X70432381Y54348000D02*
X69432381Y54348000D01*
X69575238Y54252762D01*
X69670476Y54157524D01*
X69718095Y54062286D01*
X92376667Y51137619D02*
X92376667Y50423333D01*
X92329047Y50280476D01*
X92233809Y50185238D01*
X92090952Y50137619D01*
X91995714Y50137619D01*
X93281429Y51137619D02*
X93090952Y51137619D01*
X92995714Y51090000D01*
X92948095Y51042381D01*
X92852857Y50899524D01*
X92805238Y50709048D01*
X92805238Y50328095D01*
X92852857Y50232857D01*
X92900476Y50185238D01*
X92995714Y50137619D01*
X93186191Y50137619D01*
X93281429Y50185238D01*
X93329048Y50232857D01*
X93376667Y50328095D01*
X93376667Y50566190D01*
X93329048Y50661429D01*
X93281429Y50709048D01*
X93186191Y50756667D01*
X92995714Y50756667D01*
X92900476Y50709048D01*
X92852857Y50661429D01*
X92805238Y50566190D01*
X92376667Y59265619D02*
X92376667Y58551333D01*
X92329047Y58408476D01*
X92233809Y58313238D01*
X92090952Y58265619D01*
X91995714Y58265619D01*
X92757619Y59265619D02*
X93424286Y59265619D01*
X92995714Y58265619D01*
X92376667Y25737619D02*
X92376667Y25023333D01*
X92329047Y24880476D01*
X92233809Y24785238D01*
X92090952Y24737619D01*
X91995714Y24737619D01*
X92900476Y24737619D02*
X93090952Y24737619D01*
X93186191Y24785238D01*
X93233810Y24832857D01*
X93329048Y24975714D01*
X93376667Y25166190D01*
X93376667Y25547143D01*
X93329048Y25642381D01*
X93281429Y25690000D01*
X93186191Y25737619D01*
X92995714Y25737619D01*
X92900476Y25690000D01*
X92852857Y25642381D01*
X92805238Y25547143D01*
X92805238Y25309048D01*
X92852857Y25213810D01*
X92900476Y25166190D01*
X92995714Y25118571D01*
X93186191Y25118571D01*
X93281429Y25166190D01*
X93329048Y25213810D01*
X93376667Y25309048D01*
X91900477Y18117619D02*
X91900477Y17403333D01*
X91852857Y17260476D01*
X91757619Y17165238D01*
X91614762Y17117619D01*
X91519524Y17117619D01*
X92900477Y17117619D02*
X92329048Y17117619D01*
X92614762Y17117619D02*
X92614762Y18117619D01*
X92519524Y17974762D01*
X92424286Y17879524D01*
X92329048Y17831905D01*
X93519524Y18117619D02*
X93614763Y18117619D01*
X93710001Y18070000D01*
X93757620Y18022381D01*
X93805239Y17927143D01*
X93852858Y17736667D01*
X93852858Y17498571D01*
X93805239Y17308095D01*
X93757620Y17212857D01*
X93710001Y17165238D01*
X93614763Y17117619D01*
X93519524Y17117619D01*
X93424286Y17165238D01*
X93376667Y17212857D01*
X93329048Y17308095D01*
X93281429Y17498571D01*
X93281429Y17736667D01*
X93329048Y17927143D01*
X93376667Y18022381D01*
X93424286Y18070000D01*
X93519524Y18117619D01*
X63535619Y57054762D02*
X63488000Y56959524D01*
X63392762Y56864286D01*
X63249905Y56721429D01*
X63202286Y56626190D01*
X63202286Y56530952D01*
X63440381Y56578571D02*
X63392762Y56483333D01*
X63297524Y56388095D01*
X63107048Y56340476D01*
X62773714Y56340476D01*
X62583238Y56388095D01*
X62488000Y56483333D01*
X62440381Y56578571D01*
X62440381Y56769048D01*
X62488000Y56864286D01*
X62583238Y56959524D01*
X62773714Y57007143D01*
X63107048Y57007143D01*
X63297524Y56959524D01*
X63392762Y56864286D01*
X63440381Y56769048D01*
X63440381Y56578571D01*
X63440381Y57959524D02*
X63440381Y57388095D01*
X63440381Y57673809D02*
X62440381Y57673809D01*
X62583238Y57578571D01*
X62678476Y57483333D01*
X62726095Y57388095D01*
X36282381Y55880095D02*
X37091905Y55880095D01*
X37187143Y55927714D01*
X37234762Y55975333D01*
X37282381Y56070571D01*
X37282381Y56261048D01*
X37234762Y56356286D01*
X37187143Y56403905D01*
X37091905Y56451524D01*
X36282381Y56451524D01*
X36377619Y56880095D02*
X36330000Y56927714D01*
X36282381Y57022952D01*
X36282381Y57261048D01*
X36330000Y57356286D01*
X36377619Y57403905D01*
X36472857Y57451524D01*
X36568095Y57451524D01*
X36710952Y57403905D01*
X37282381Y56832476D01*
X37282381Y57451524D01*
X59182095Y22907619D02*
X59182095Y22098095D01*
X59229714Y22002857D01*
X59277333Y21955238D01*
X59372571Y21907619D01*
X59563048Y21907619D01*
X59658286Y21955238D01*
X59705905Y22002857D01*
X59753524Y22098095D01*
X59753524Y22907619D01*
X60658286Y22574286D02*
X60658286Y21907619D01*
X60420190Y22955238D02*
X60182095Y22240952D01*
X60801143Y22240952D01*
X46846381Y65278095D02*
X47655905Y65278095D01*
X47751143Y65325714D01*
X47798762Y65373333D01*
X47846381Y65468571D01*
X47846381Y65659048D01*
X47798762Y65754286D01*
X47751143Y65801905D01*
X47655905Y65849524D01*
X46846381Y65849524D01*
X46846381Y66230476D02*
X46846381Y66849524D01*
X47227333Y66516190D01*
X47227333Y66659048D01*
X47274952Y66754286D01*
X47322571Y66801905D01*
X47417810Y66849524D01*
X47655905Y66849524D01*
X47751143Y66801905D01*
X47798762Y66754286D01*
X47846381Y66659048D01*
X47846381Y66373333D01*
X47798762Y66278095D01*
X47751143Y66230476D01*
M02*
