G04 #@! TF.FileFunction,Copper,L1,Top,Signal*
%FSLAX46Y46*%
G04 Gerber Fmt 4.6, Leading zero omitted, Abs format (unit mm)*
G04 Created by KiCad (PCBNEW 4.0.6-e0-6349~53~ubuntu16.04.1) date Sat May  6 13:12:07 2017*
%MOMM*%
%LPD*%
G01*
G04 APERTURE LIST*
%ADD10C,0.100000*%
%ADD11C,1.750000*%
%ADD12C,1.600000*%
%ADD13O,1.600000X1.600000*%
%ADD14R,1.727200X1.727200*%
%ADD15O,1.727200X1.727200*%
%ADD16C,3.200000*%
%ADD17C,1.524000*%
%ADD18R,1.700000X1.700000*%
%ADD19O,1.700000X1.700000*%
%ADD20R,1.600000X1.600000*%
%ADD21R,2.200000X2.200000*%
%ADD22O,2.200000X2.200000*%
%ADD23C,1.520000*%
%ADD24R,1.520000X1.520000*%
%ADD25O,2.499360X1.501140*%
%ADD26C,0.500000*%
%ADD27C,0.400000*%
G04 APERTURE END LIST*
D10*
D11*
X78740000Y30480000D03*
X78740000Y27940000D03*
X78740000Y22860000D03*
X78740000Y25400000D03*
X78740000Y17780000D03*
X78740000Y15240000D03*
X78740000Y20320000D03*
X43180000Y20320000D03*
X40640000Y20320000D03*
X40640000Y15240000D03*
X43180000Y15240000D03*
X43180000Y17780000D03*
X40640000Y17780000D03*
X40640000Y25400000D03*
X43180000Y25400000D03*
X43180000Y22860000D03*
X40640000Y22860000D03*
X40640000Y27940000D03*
X43180000Y27940000D03*
X43180000Y30480000D03*
X40640000Y30480000D03*
X15748000Y43434000D03*
X15748000Y40894000D03*
X15748000Y38354000D03*
X15748000Y35814000D03*
X15748000Y33274000D03*
X15748000Y30734000D03*
X15748000Y28194000D03*
X15748000Y25654000D03*
X15748000Y23114000D03*
X15748000Y20574000D03*
X15748000Y18034000D03*
X15748000Y15494000D03*
X15748000Y12954000D03*
X15748000Y10414000D03*
X30988000Y10414000D03*
X30988000Y12954000D03*
X30988000Y15494000D03*
X30988000Y18034000D03*
X30988000Y20574000D03*
X30988000Y23114000D03*
X30988000Y25654000D03*
X30988000Y28194000D03*
X30988000Y30734000D03*
X30988000Y33274000D03*
X30988000Y35814000D03*
X30988000Y38354000D03*
X30988000Y40894000D03*
X30988000Y43434000D03*
X30988000Y45974000D03*
X15748000Y45974000D03*
D12*
X89662000Y22860000D03*
D13*
X82042000Y22860000D03*
D14*
X6350000Y31242000D03*
D15*
X8890000Y31242000D03*
X6350000Y28702000D03*
X8890000Y28702000D03*
X6350000Y26162000D03*
X8890000Y26162000D03*
X6350000Y23622000D03*
X8890000Y23622000D03*
X6350000Y21082000D03*
X8890000Y21082000D03*
X6350000Y18542000D03*
X8890000Y18542000D03*
X6350000Y16002000D03*
X8890000Y16002000D03*
X6350000Y13462000D03*
X8890000Y13462000D03*
D12*
X45212000Y63500000D03*
X45212000Y68500000D03*
D16*
X88138000Y70866000D03*
X8128000Y70866000D03*
X8128000Y4191000D03*
X88138000Y4191000D03*
D17*
X77978000Y51054000D03*
X80518000Y51054000D03*
X88138000Y51054000D03*
X88138000Y56134000D03*
X80518000Y56134000D03*
X77978000Y56134000D03*
D18*
X92710000Y66548000D03*
D19*
X92710000Y64008000D03*
X92710000Y61468000D03*
D18*
X92710000Y32004000D03*
D19*
X92710000Y29464000D03*
D18*
X92710000Y40132000D03*
D19*
X92710000Y37592000D03*
D18*
X4572000Y62992000D03*
D19*
X4572000Y65532000D03*
D18*
X4572000Y57658000D03*
D19*
X4572000Y55118000D03*
X4572000Y52578000D03*
X4572000Y50038000D03*
D20*
X23622000Y59182000D03*
D12*
X23622000Y56682000D03*
X37846000Y54102000D03*
X37846000Y59102000D03*
D21*
X72390000Y50038000D03*
D22*
X72390000Y57658000D03*
D18*
X92710000Y48260000D03*
D19*
X92710000Y45720000D03*
D18*
X92710000Y56388000D03*
D19*
X92710000Y53848000D03*
D18*
X92710000Y22860000D03*
D19*
X92710000Y20320000D03*
D18*
X92710000Y15240000D03*
D19*
X92710000Y12700000D03*
D23*
X66548000Y57150000D03*
X66548000Y59690000D03*
D24*
X66548000Y54610000D03*
D25*
X31750000Y56642000D03*
X31750000Y59182000D03*
X31750000Y54102000D03*
D20*
X49784000Y62230000D03*
D13*
X59944000Y69850000D03*
X52324000Y62230000D03*
X57404000Y69850000D03*
X54864000Y62230000D03*
X54864000Y69850000D03*
X57404000Y62230000D03*
X52324000Y69850000D03*
X59944000Y62230000D03*
X49784000Y69850000D03*
D11*
X45212000Y45339000D03*
X62484000Y45339000D03*
X35306000Y56642000D03*
X35306000Y51562000D03*
X42608500Y59118500D03*
X62738000Y59118500D03*
X18288000Y3556000D03*
X18288000Y19304000D03*
X59182000Y33274000D03*
X43180000Y33274000D03*
X42672000Y51562000D03*
X42672000Y56642000D03*
X6350000Y38100000D03*
X6350000Y46228000D03*
X9906000Y46228000D03*
X9906000Y54102000D03*
X47244000Y50038000D03*
X64770000Y50038000D03*
X64770000Y46990000D03*
X42926000Y46990000D03*
X42926000Y43688000D03*
X64770000Y43688000D03*
X62801500Y54229000D03*
X49339500Y54229000D03*
X36068000Y26416000D03*
X36068000Y3048000D03*
X34036000Y10414000D03*
X34036000Y24130000D03*
X20828000Y15494000D03*
X20828000Y5588000D03*
D26*
X45212000Y45339000D02*
X62484000Y45339000D01*
X35306000Y51562000D02*
X35306000Y51435000D01*
X35306000Y51435000D02*
X35306000Y56642000D01*
X42608500Y59118500D02*
X59372500Y59118500D01*
X59372500Y59118500D02*
X62738000Y59118500D01*
X18288000Y3556000D02*
X18288000Y19304000D01*
X59182000Y33274000D02*
X43180000Y33274000D01*
X42672000Y56642000D02*
X42672000Y51562000D01*
X6350000Y46228000D02*
X6350000Y38100000D01*
X9906000Y54102000D02*
X9906000Y46228000D01*
X64770000Y50038000D02*
X47244000Y50038000D01*
D27*
X42926000Y46990000D02*
X64770000Y46990000D01*
X42926000Y43688000D02*
X64770000Y43688000D01*
X62801500Y54229000D02*
X49339500Y54229000D01*
X36068000Y26416000D02*
X36068000Y3048000D01*
X34036000Y24130000D02*
X34036000Y10414000D01*
X20828000Y5588000D02*
X20828000Y15494000D01*
M02*
