<?xml version="1.0" standalone="no"?>
<!DOCTYPE svg PUBLIC "-//W3C//DTD SVG 1.1//EN"
"http://www.w3.org/Graphics/SVG/1.1/DTD/svg11.dtd">
<svg width="7550" height="5910" viewBox="0 0 7550 5910" version="1.1"
xmlns="http://www.w3.org/2000/svg"
xmlns:xlink="http://www.w3.org/1999/xlink">
<g fill-rule="evenodd"><path d="M 6268.9,3510 L 6267.39,3524.32 L 6262.94,3538.02 L 6255.74,3550.5 L 6246.1,3561.2 L 6234.45,3569.67 L 6221.29,3575.52 L 6207.2,3578.52 L 6192.8,3578.52 L 6178.71,3575.52 L 6165.55,3569.67 L 6153.9,3561.2 L 6144.26,3550.5 L 6137.06,3538.02 L 6132.61,3524.32 L 6131.1,3510 L 6132.61,3495.68 L 6137.06,3481.98 L 6144.26,3469.5 L 6153.9,3458.8 L 6165.55,3450.33 L 6178.71,3444.48 L 6192.8,3441.48 L 6207.2,3441.48 L 6221.29,3444.48 L 6234.45,3450.33 L 6246.1,3458.8 L 6255.74,3469.5 L 6262.94,3481.98 L 6267.39,3495.68 L 6268.9,3510 z " style="fill-opacity:1.000000;fill:rgb(103,198,105);stroke:rgb(0,0,0);stroke-width:2"/></g>
<g fill-rule="evenodd"><path d="M 6268.9,3710 L 6267.39,3724.32 L 6262.94,3738.02 L 6255.74,3750.5 L 6246.1,3761.2 L 6234.45,3769.67 L 6221.29,3775.52 L 6207.2,3778.52 L 6192.8,3778.52 L 6178.71,3775.52 L 6165.55,3769.67 L 6153.9,3761.2 L 6144.26,3750.5 L 6137.06,3738.02 L 6132.61,3724.32 L 6131.1,3710 L 6132.61,3695.68 L 6137.06,3681.98 L 6144.26,3669.5 L 6153.9,3658.8 L 6165.55,3650.33 L 6178.71,3644.48 L 6192.8,3641.48 L 6207.2,3641.48 L 6221.29,3644.48 L 6234.45,3650.33 L 6246.1,3658.8 L 6255.74,3669.5 L 6262.94,3681.98 L 6267.39,3695.68 L 6268.9,3710 z " style="fill-opacity:1.000000;fill:rgb(115,81,255);stroke:rgb(0,0,0);stroke-width:2"/></g>
<g fill-rule="evenodd"><path d="M 6268.9,4110 L 6267.39,4124.32 L 6262.94,4138.02 L 6255.74,4150.5 L 6246.1,4161.2 L 6234.45,4169.67 L 6221.29,4175.52 L 6207.2,4178.52 L 6192.8,4178.52 L 6178.71,4175.52 L 6165.55,4169.67 L 6153.9,4161.2 L 6144.26,4150.5 L 6137.06,4138.02 L 6132.61,4124.32 L 6131.1,4110 L 6132.61,4095.68 L 6137.06,4081.98 L 6144.26,4069.5 L 6153.9,4058.8 L 6165.55,4050.33 L 6178.71,4044.48 L 6192.8,4041.48 L 6207.2,4041.48 L 6221.29,4044.48 L 6234.45,4050.33 L 6246.1,4058.8 L 6255.74,4069.5 L 6262.94,4081.98 L 6267.39,4095.68 L 6268.9,4110 z " style="fill-opacity:1.000000;fill:rgb(74,236,41);stroke:rgb(0,0,0);stroke-width:2"/></g>
<g fill-rule="evenodd"><path d="M 6268.9,3910 L 6267.39,3924.32 L 6262.94,3938.02 L 6255.74,3950.5 L 6246.1,3961.2 L 6234.45,3969.67 L 6221.29,3975.52 L 6207.2,3978.52 L 6192.8,3978.52 L 6178.71,3975.52 L 6165.55,3969.67 L 6153.9,3961.2 L 6144.26,3950.5 L 6137.06,3938.02 L 6132.61,3924.32 L 6131.1,3910 L 6132.61,3895.68 L 6137.06,3881.98 L 6144.26,3869.5 L 6153.9,3858.8 L 6165.55,3850.33 L 6178.71,3844.48 L 6192.8,3841.48 L 6207.2,3841.48 L 6221.29,3844.48 L 6234.45,3850.33 L 6246.1,3858.8 L 6255.74,3869.5 L 6262.94,3881.98 L 6267.39,3895.68 L 6268.9,3910 z " style="fill-opacity:1.000000;fill:rgb(205,186,171);stroke:rgb(0,0,0);stroke-width:2"/></g>
<g fill-rule="evenodd"><path d="M 6268.9,4510 L 6267.39,4524.32 L 6262.94,4538.02 L 6255.74,4550.5 L 6246.1,4561.2 L 6234.45,4569.67 L 6221.29,4575.52 L 6207.2,4578.52 L 6192.8,4578.52 L 6178.71,4575.52 L 6165.55,4569.67 L 6153.9,4561.2 L 6144.26,4550.5 L 6137.06,4538.02 L 6132.61,4524.32 L 6131.1,4510 L 6132.61,4495.68 L 6137.06,4481.98 L 6144.26,4469.5 L 6153.9,4458.8 L 6165.55,4450.33 L 6178.71,4444.48 L 6192.8,4441.48 L 6207.2,4441.48 L 6221.29,4444.48 L 6234.45,4450.33 L 6246.1,4458.8 L 6255.74,4469.5 L 6262.94,4481.98 L 6267.39,4495.68 L 6268.9,4510 z " style="fill-opacity:1.000000;fill:rgb(242,251,227);stroke:rgb(0,0,0);stroke-width:2"/></g>
<g fill-rule="evenodd"><path d="M 6268.9,4710 L 6267.39,4724.32 L 6262.94,4738.02 L 6255.74,4750.5 L 6246.1,4761.2 L 6234.45,4769.67 L 6221.29,4775.52 L 6207.2,4778.52 L 6192.8,4778.52 L 6178.71,4775.52 L 6165.55,4769.67 L 6153.9,4761.2 L 6144.26,4750.5 L 6137.06,4738.02 L 6132.61,4724.32 L 6131.1,4710 L 6132.61,4695.68 L 6137.06,4681.98 L 6144.26,4669.5 L 6153.9,4658.8 L 6165.55,4650.33 L 6178.71,4644.48 L 6192.8,4641.48 L 6207.2,4641.48 L 6221.29,4644.48 L 6234.45,4650.33 L 6246.1,4658.8 L 6255.74,4669.5 L 6262.94,4681.98 L 6267.39,4695.68 L 6268.9,4710 z " style="fill-opacity:1.000000;fill:rgb(70,124,194);stroke:rgb(0,0,0);stroke-width:2"/></g>
<g fill-rule="evenodd"><path d="M 6268.9,4310 L 6267.39,4324.32 L 6262.94,4338.02 L 6255.74,4350.5 L 6246.1,4361.2 L 6234.45,4369.67 L 6221.29,4375.52 L 6207.2,4378.52 L 6192.8,4378.52 L 6178.71,4375.52 L 6165.55,4369.67 L 6153.9,4361.2 L 6144.26,4350.5 L 6137.06,4338.02 L 6132.61,4324.32 L 6131.1,4310 L 6132.61,4295.68 L 6137.06,4281.98 L 6144.26,4269.5 L 6153.9,4258.8 L 6165.55,4250.33 L 6178.71,4244.48 L 6192.8,4241.48 L 6207.2,4241.48 L 6221.29,4244.48 L 6234.45,4250.33 L 6246.1,4258.8 L 6255.74,4269.5 L 6262.94,4281.98 L 6267.39,4295.68 L 6268.9,4310 z " style="fill-opacity:1.000000;fill:rgb(84,248,27);stroke:rgb(0,0,0);stroke-width:2"/></g>
<g fill-rule="evenodd"><path d="M 3468.9,4310 L 3467.39,4324.32 L 3462.94,4338.02 L 3455.74,4350.5 L 3446.1,4361.2 L 3434.45,4369.67 L 3421.29,4375.52 L 3407.2,4378.52 L 3392.8,4378.52 L 3378.71,4375.52 L 3365.55,4369.67 L 3353.9,4361.2 L 3344.26,4350.5 L 3337.06,4338.02 L 3332.61,4324.32 L 3331.1,4310 L 3332.61,4295.68 L 3337.06,4281.98 L 3344.26,4269.5 L 3353.9,4258.8 L 3365.55,4250.33 L 3378.71,4244.48 L 3392.8,4241.48 L 3407.2,4241.48 L 3421.29,4244.48 L 3434.45,4250.33 L 3446.1,4258.8 L 3455.74,4269.5 L 3462.94,4281.98 L 3467.39,4295.68 L 3468.9,4310 z " style="fill-opacity:1.000000;fill:rgb(232,231,141);stroke:rgb(0,0,0);stroke-width:2"/></g>
<g fill-rule="evenodd"><path d="M 3268.9,4310 L 3267.39,4324.32 L 3262.94,4338.02 L 3255.74,4350.5 L 3246.1,4361.2 L 3234.45,4369.67 L 3221.29,4375.52 L 3207.2,4378.52 L 3192.8,4378.52 L 3178.71,4375.52 L 3165.55,4369.67 L 3153.9,4361.2 L 3144.26,4350.5 L 3137.06,4338.02 L 3132.61,4324.32 L 3131.1,4310 L 3132.61,4295.68 L 3137.06,4281.98 L 3144.26,4269.5 L 3153.9,4258.8 L 3165.55,4250.33 L 3178.71,4244.48 L 3192.8,4241.48 L 3207.2,4241.48 L 3221.29,4244.48 L 3234.45,4250.33 L 3246.1,4258.8 L 3255.74,4269.5 L 3262.94,4281.98 L 3267.39,4295.68 L 3268.9,4310 z " style="fill-opacity:1.000000;fill:rgb(118,90,46);stroke:rgb(0,0,0);stroke-width:2"/></g>
<g fill-rule="evenodd"><path d="M 3268.9,4710 L 3267.39,4724.32 L 3262.94,4738.02 L 3255.74,4750.5 L 3246.1,4761.2 L 3234.45,4769.67 L 3221.29,4775.52 L 3207.2,4778.52 L 3192.8,4778.52 L 3178.71,4775.52 L 3165.55,4769.67 L 3153.9,4761.2 L 3144.26,4750.5 L 3137.06,4738.02 L 3132.61,4724.32 L 3131.1,4710 L 3132.61,4695.68 L 3137.06,4681.98 L 3144.26,4669.5 L 3153.9,4658.8 L 3165.55,4650.33 L 3178.71,4644.48 L 3192.8,4641.48 L 3207.2,4641.48 L 3221.29,4644.48 L 3234.45,4650.33 L 3246.1,4658.8 L 3255.74,4669.5 L 3262.94,4681.98 L 3267.39,4695.68 L 3268.9,4710 z " style="fill-opacity:1.000000;fill:rgb(99,51,159);stroke:rgb(0,0,0);stroke-width:2"/></g>
<g fill-rule="evenodd"><path d="M 3468.9,4710 L 3467.39,4724.32 L 3462.94,4738.02 L 3455.74,4750.5 L 3446.1,4761.2 L 3434.45,4769.67 L 3421.29,4775.52 L 3407.2,4778.52 L 3392.8,4778.52 L 3378.71,4775.52 L 3365.55,4769.67 L 3353.9,4761.2 L 3344.26,4750.5 L 3337.06,4738.02 L 3332.61,4724.32 L 3331.1,4710 L 3332.61,4695.68 L 3337.06,4681.98 L 3344.26,4669.5 L 3353.9,4658.8 L 3365.55,4650.33 L 3378.71,4644.48 L 3392.8,4641.48 L 3407.2,4641.48 L 3421.29,4644.48 L 3434.45,4650.33 L 3446.1,4658.8 L 3455.74,4669.5 L 3462.94,4681.98 L 3467.39,4695.68 L 3468.9,4710 z " style="fill-opacity:1.000000;fill:rgb(201,154,102);stroke:rgb(0,0,0);stroke-width:2"/></g>
<g fill-rule="evenodd"><path d="M 3468.9,4510 L 3467.39,4524.32 L 3462.94,4538.02 L 3455.74,4550.5 L 3446.1,4561.2 L 3434.45,4569.67 L 3421.29,4575.52 L 3407.2,4578.52 L 3392.8,4578.52 L 3378.71,4575.52 L 3365.55,4569.67 L 3353.9,4561.2 L 3344.26,4550.5 L 3337.06,4538.02 L 3332.61,4524.32 L 3331.1,4510 L 3332.61,4495.68 L 3337.06,4481.98 L 3344.26,4469.5 L 3353.9,4458.8 L 3365.55,4450.33 L 3378.71,4444.48 L 3392.8,4441.48 L 3407.2,4441.48 L 3421.29,4444.48 L 3434.45,4450.33 L 3446.1,4458.8 L 3455.74,4469.5 L 3462.94,4481.98 L 3467.39,4495.68 L 3468.9,4510 z " style="fill-opacity:1.000000;fill:rgb(50,13,183);stroke:rgb(0,0,0);stroke-width:2"/></g>
<g fill-rule="evenodd"><path d="M 3268.9,4510 L 3267.39,4524.32 L 3262.94,4538.02 L 3255.74,4550.5 L 3246.1,4561.2 L 3234.45,4569.67 L 3221.29,4575.52 L 3207.2,4578.52 L 3192.8,4578.52 L 3178.71,4575.52 L 3165.55,4569.67 L 3153.9,4561.2 L 3144.26,4550.5 L 3137.06,4538.02 L 3132.61,4524.32 L 3131.1,4510 L 3132.61,4495.68 L 3137.06,4481.98 L 3144.26,4469.5 L 3153.9,4458.8 L 3165.55,4450.33 L 3178.71,4444.48 L 3192.8,4441.48 L 3207.2,4441.48 L 3221.29,4444.48 L 3234.45,4450.33 L 3246.1,4458.8 L 3255.74,4469.5 L 3262.94,4481.98 L 3267.39,4495.68 L 3268.9,4510 z " style="fill-opacity:1.000000;fill:rgb(49,88,163);stroke:rgb(0,0,0);stroke-width:2"/></g>
<g fill-rule="evenodd"><path d="M 3268.9,3910 L 3267.39,3924.32 L 3262.94,3938.02 L 3255.74,3950.5 L 3246.1,3961.2 L 3234.45,3969.67 L 3221.29,3975.52 L 3207.2,3978.52 L 3192.8,3978.52 L 3178.71,3975.52 L 3165.55,3969.67 L 3153.9,3961.2 L 3144.26,3950.5 L 3137.06,3938.02 L 3132.61,3924.32 L 3131.1,3910 L 3132.61,3895.68 L 3137.06,3881.98 L 3144.26,3869.5 L 3153.9,3858.8 L 3165.55,3850.33 L 3178.71,3844.48 L 3192.8,3841.48 L 3207.2,3841.48 L 3221.29,3844.48 L 3234.45,3850.33 L 3246.1,3858.8 L 3255.74,3869.5 L 3262.94,3881.98 L 3267.39,3895.68 L 3268.9,3910 z " style="fill-opacity:1.000000;fill:rgb(90,37,93);stroke:rgb(0,0,0);stroke-width:2"/></g>
<g fill-rule="evenodd"><path d="M 3468.9,3910 L 3467.39,3924.32 L 3462.94,3938.02 L 3455.74,3950.5 L 3446.1,3961.2 L 3434.45,3969.67 L 3421.29,3975.52 L 3407.2,3978.52 L 3392.8,3978.52 L 3378.71,3975.52 L 3365.55,3969.67 L 3353.9,3961.2 L 3344.26,3950.5 L 3337.06,3938.02 L 3332.61,3924.32 L 3331.1,3910 L 3332.61,3895.68 L 3337.06,3881.98 L 3344.26,3869.5 L 3353.9,3858.8 L 3365.55,3850.33 L 3378.71,3844.48 L 3392.8,3841.48 L 3407.2,3841.48 L 3421.29,3844.48 L 3434.45,3850.33 L 3446.1,3858.8 L 3455.74,3869.5 L 3462.94,3881.98 L 3467.39,3895.68 L 3468.9,3910 z " style="fill-opacity:1.000000;fill:rgb(5,23,88);stroke:rgb(0,0,0);stroke-width:2"/></g>
<g fill-rule="evenodd"><path d="M 3468.9,4110 L 3467.39,4124.32 L 3462.94,4138.02 L 3455.74,4150.5 L 3446.1,4161.2 L 3434.45,4169.67 L 3421.29,4175.52 L 3407.2,4178.52 L 3392.8,4178.52 L 3378.71,4175.52 L 3365.55,4169.67 L 3353.9,4161.2 L 3344.26,4150.5 L 3337.06,4138.02 L 3332.61,4124.32 L 3331.1,4110 L 3332.61,4095.68 L 3337.06,4081.98 L 3344.26,4069.5 L 3353.9,4058.8 L 3365.55,4050.33 L 3378.71,4044.48 L 3392.8,4041.48 L 3407.2,4041.48 L 3421.29,4044.48 L 3434.45,4050.33 L 3446.1,4058.8 L 3455.74,4069.5 L 3462.94,4081.98 L 3467.39,4095.68 L 3468.9,4110 z " style="fill-opacity:1.000000;fill:rgb(233,94,212);stroke:rgb(0,0,0);stroke-width:2"/></g>
<g fill-rule="evenodd"><path d="M 3268.9,4110 L 3267.39,4124.32 L 3262.94,4138.02 L 3255.74,4150.5 L 3246.1,4161.2 L 3234.45,4169.67 L 3221.29,4175.52 L 3207.2,4178.52 L 3192.8,4178.52 L 3178.71,4175.52 L 3165.55,4169.67 L 3153.9,4161.2 L 3144.26,4150.5 L 3137.06,4138.02 L 3132.61,4124.32 L 3131.1,4110 L 3132.61,4095.68 L 3137.06,4081.98 L 3144.26,4069.5 L 3153.9,4058.8 L 3165.55,4050.33 L 3178.71,4044.48 L 3192.8,4041.48 L 3207.2,4041.48 L 3221.29,4044.48 L 3234.45,4050.33 L 3246.1,4058.8 L 3255.74,4069.5 L 3262.94,4081.98 L 3267.39,4095.68 L 3268.9,4110 z " style="fill-opacity:1.000000;fill:rgb(171,178,205);stroke:rgb(0,0,0);stroke-width:2"/></g>
<g fill-rule="evenodd"><path d="M 3268.9,3710 L 3267.39,3724.32 L 3262.94,3738.02 L 3255.74,3750.5 L 3246.1,3761.2 L 3234.45,3769.67 L 3221.29,3775.52 L 3207.2,3778.52 L 3192.8,3778.52 L 3178.71,3775.52 L 3165.55,3769.67 L 3153.9,3761.2 L 3144.26,3750.5 L 3137.06,3738.02 L 3132.61,3724.32 L 3131.1,3710 L 3132.61,3695.68 L 3137.06,3681.98 L 3144.26,3669.5 L 3153.9,3658.8 L 3165.55,3650.33 L 3178.71,3644.48 L 3192.8,3641.48 L 3207.2,3641.48 L 3221.29,3644.48 L 3234.45,3650.33 L 3246.1,3658.8 L 3255.74,3669.5 L 3262.94,3681.98 L 3267.39,3695.68 L 3268.9,3710 z " style="fill-opacity:1.000000;fill:rgb(198,155,180);stroke:rgb(0,0,0);stroke-width:2"/></g>
<g fill-rule="evenodd"><path d="M 3468.9,3710 L 3467.39,3724.32 L 3462.94,3738.02 L 3455.74,3750.5 L 3446.1,3761.2 L 3434.45,3769.67 L 3421.29,3775.52 L 3407.2,3778.52 L 3392.8,3778.52 L 3378.71,3775.52 L 3365.55,3769.67 L 3353.9,3761.2 L 3344.26,3750.5 L 3337.06,3738.02 L 3332.61,3724.32 L 3331.1,3710 L 3332.61,3695.68 L 3337.06,3681.98 L 3344.26,3669.5 L 3353.9,3658.8 L 3365.55,3650.33 L 3378.71,3644.48 L 3392.8,3641.48 L 3407.2,3641.48 L 3421.29,3644.48 L 3434.45,3650.33 L 3446.1,3658.8 L 3455.74,3669.5 L 3462.94,3681.98 L 3467.39,3695.68 L 3468.9,3710 z " style="fill-opacity:1.000000;fill:rgb(84,17,14);stroke:rgb(0,0,0);stroke-width:2"/></g>
<g fill-rule="evenodd"><path d="M 3468.9,3510 L 3467.39,3524.32 L 3462.94,3538.02 L 3455.74,3550.5 L 3446.1,3561.2 L 3434.45,3569.67 L 3421.29,3575.52 L 3407.2,3578.52 L 3392.8,3578.52 L 3378.71,3575.52 L 3365.55,3569.67 L 3353.9,3561.2 L 3344.26,3550.5 L 3337.06,3538.02 L 3332.61,3524.32 L 3331.1,3510 L 3332.61,3495.68 L 3337.06,3481.98 L 3344.26,3469.5 L 3353.9,3458.8 L 3365.55,3450.33 L 3378.71,3444.48 L 3392.8,3441.48 L 3407.2,3441.48 L 3421.29,3444.48 L 3434.45,3450.33 L 3446.1,3458.8 L 3455.74,3469.5 L 3462.94,3481.98 L 3467.39,3495.68 L 3468.9,3510 z " style="fill-opacity:1.000000;fill:rgb(130,116,65);stroke:rgb(0,0,0);stroke-width:2"/></g>
<g fill-rule="evenodd"><path d="M 3268.9,3510 L 3267.39,3524.32 L 3262.94,3538.02 L 3255.74,3550.5 L 3246.1,3561.2 L 3234.45,3569.67 L 3221.29,3575.52 L 3207.2,3578.52 L 3192.8,3578.52 L 3178.71,3575.52 L 3165.55,3569.67 L 3153.9,3561.2 L 3144.26,3550.5 L 3137.06,3538.02 L 3132.61,3524.32 L 3131.1,3510 L 3132.61,3495.68 L 3137.06,3481.98 L 3144.26,3469.5 L 3153.9,3458.8 L 3165.55,3450.33 L 3178.71,3444.48 L 3192.8,3441.48 L 3207.2,3441.48 L 3221.29,3444.48 L 3234.45,3450.33 L 3246.1,3458.8 L 3255.74,3469.5 L 3262.94,3481.98 L 3267.39,3495.68 L 3268.9,3510 z " style="fill-opacity:1.000000;fill:rgb(33,61,220);stroke:rgb(0,0,0);stroke-width:2"/></g>
<g fill-rule="evenodd"><path d="M 1308.9,2490 L 1307.39,2504.32 L 1302.94,2518.02 L 1295.74,2530.5 L 1286.1,2541.2 L 1274.45,2549.67 L 1261.29,2555.52 L 1247.2,2558.52 L 1232.8,2558.52 L 1218.71,2555.52 L 1205.55,2549.67 L 1193.9,2541.2 L 1184.26,2530.5 L 1177.06,2518.02 L 1172.61,2504.32 L 1171.1,2490 L 1172.61,2475.68 L 1177.06,2461.98 L 1184.26,2449.5 L 1193.9,2438.8 L 1205.55,2430.33 L 1218.71,2424.48 L 1232.8,2421.48 L 1247.2,2421.48 L 1261.29,2424.48 L 1274.45,2430.33 L 1286.1,2438.8 L 1295.74,2449.5 L 1302.94,2461.98 L 1307.39,2475.68 L 1308.9,2490 z " style="fill-opacity:1.000000;fill:rgb(135,112,233);stroke:rgb(0,0,0);stroke-width:2"/></g>
<g fill-rule="evenodd"><path d="M 1308.9,2690 L 1307.39,2704.32 L 1302.94,2718.02 L 1295.74,2730.5 L 1286.1,2741.2 L 1274.45,2749.67 L 1261.29,2755.52 L 1247.2,2758.52 L 1232.8,2758.52 L 1218.71,2755.52 L 1205.55,2749.67 L 1193.9,2741.2 L 1184.26,2730.5 L 1177.06,2718.02 L 1172.61,2704.32 L 1171.1,2690 L 1172.61,2675.68 L 1177.06,2661.98 L 1184.26,2649.5 L 1193.9,2638.8 L 1205.55,2630.33 L 1218.71,2624.48 L 1232.8,2621.48 L 1247.2,2621.48 L 1261.29,2624.48 L 1274.45,2630.33 L 1286.1,2638.8 L 1295.74,2649.5 L 1302.94,2661.98 L 1307.39,2675.68 L 1308.9,2690 z " style="fill-opacity:1.000000;fill:rgb(62,161,65);stroke:rgb(0,0,0);stroke-width:2"/></g>
<g fill-rule="evenodd"><path d="M 1308.9,2890 L 1307.39,2904.32 L 1302.94,2918.02 L 1295.74,2930.5 L 1286.1,2941.2 L 1274.45,2949.67 L 1261.29,2955.52 L 1247.2,2958.52 L 1232.8,2958.52 L 1218.71,2955.52 L 1205.55,2949.67 L 1193.9,2941.2 L 1184.26,2930.5 L 1177.06,2918.02 L 1172.61,2904.32 L 1171.1,2890 L 1172.61,2875.68 L 1177.06,2861.98 L 1184.26,2849.5 L 1193.9,2838.8 L 1205.55,2830.33 L 1218.71,2824.48 L 1232.8,2821.48 L 1247.2,2821.48 L 1261.29,2824.48 L 1274.45,2830.33 L 1286.1,2838.8 L 1295.74,2849.5 L 1302.94,2861.98 L 1307.39,2875.68 L 1308.9,2890 z " style="fill-opacity:1.000000;fill:rgb(225,252,103);stroke:rgb(0,0,0);stroke-width:2"/></g>
<g fill-rule="evenodd"><path d="M 1308.9,3090 L 1307.39,3104.32 L 1302.94,3118.02 L 1295.74,3130.5 L 1286.1,3141.2 L 1274.45,3149.67 L 1261.29,3155.52 L 1247.2,3158.52 L 1232.8,3158.52 L 1218.71,3155.52 L 1205.55,3149.67 L 1193.9,3141.2 L 1184.26,3130.5 L 1177.06,3118.02 L 1172.61,3104.32 L 1171.1,3090 L 1172.61,3075.68 L 1177.06,3061.98 L 1184.26,3049.5 L 1193.9,3038.8 L 1205.55,3030.33 L 1218.71,3024.48 L 1232.8,3021.48 L 1247.2,3021.48 L 1261.29,3024.48 L 1274.45,3030.33 L 1286.1,3038.8 L 1295.74,3049.5 L 1302.94,3061.98 L 1307.39,3075.68 L 1308.9,3090 z " style="fill-opacity:1.000000;fill:rgb(62,1,126);stroke:rgb(0,0,0);stroke-width:2"/></g>
<g fill-rule="evenodd"><path d="M 1308.9,3290 L 1307.39,3304.32 L 1302.94,3318.02 L 1295.74,3330.5 L 1286.1,3341.2 L 1274.45,3349.67 L 1261.29,3355.52 L 1247.2,3358.52 L 1232.8,3358.52 L 1218.71,3355.52 L 1205.55,3349.67 L 1193.9,3341.2 L 1184.26,3330.5 L 1177.06,3318.02 L 1172.61,3304.32 L 1171.1,3290 L 1172.61,3275.68 L 1177.06,3261.98 L 1184.26,3249.5 L 1193.9,3238.8 L 1205.55,3230.33 L 1218.71,3224.48 L 1232.8,3221.48 L 1247.2,3221.48 L 1261.29,3224.48 L 1274.45,3230.33 L 1286.1,3238.8 L 1295.74,3249.5 L 1302.94,3261.98 L 1307.39,3275.68 L 1308.9,3290 z " style="fill-opacity:1.000000;fill:rgb(151,234,220);stroke:rgb(0,0,0);stroke-width:2"/></g>
<g fill-rule="evenodd"><path d="M 1308.9,3490 L 1307.39,3504.32 L 1302.94,3518.02 L 1295.74,3530.5 L 1286.1,3541.2 L 1274.45,3549.67 L 1261.29,3555.52 L 1247.2,3558.52 L 1232.8,3558.52 L 1218.71,3555.52 L 1205.55,3549.67 L 1193.9,3541.2 L 1184.26,3530.5 L 1177.06,3518.02 L 1172.61,3504.32 L 1171.1,3490 L 1172.61,3475.68 L 1177.06,3461.98 L 1184.26,3449.5 L 1193.9,3438.8 L 1205.55,3430.33 L 1218.71,3424.48 L 1232.8,3421.48 L 1247.2,3421.48 L 1261.29,3424.48 L 1274.45,3430.33 L 1286.1,3438.8 L 1295.74,3449.5 L 1302.94,3461.98 L 1307.39,3475.68 L 1308.9,3490 z " style="fill-opacity:1.000000;fill:rgb(107,150,143);stroke:rgb(0,0,0);stroke-width:2"/></g>
<g fill-rule="evenodd"><path d="M 1308.9,3690 L 1307.39,3704.32 L 1302.94,3718.02 L 1295.74,3730.5 L 1286.1,3741.2 L 1274.45,3749.67 L 1261.29,3755.52 L 1247.2,3758.52 L 1232.8,3758.52 L 1218.71,3755.52 L 1205.55,3749.67 L 1193.9,3741.2 L 1184.26,3730.5 L 1177.06,3718.02 L 1172.61,3704.32 L 1171.1,3690 L 1172.61,3675.68 L 1177.06,3661.98 L 1184.26,3649.5 L 1193.9,3638.8 L 1205.55,3630.33 L 1218.71,3624.48 L 1232.8,3621.48 L 1247.2,3621.48 L 1261.29,3624.48 L 1274.45,3630.33 L 1286.1,3638.8 L 1295.74,3649.5 L 1302.94,3661.98 L 1307.39,3675.68 L 1308.9,3690 z " style="fill-opacity:1.000000;fill:rgb(56,92,42);stroke:rgb(0,0,0);stroke-width:2"/></g>
<g fill-rule="evenodd"><path d="M 1308.9,3890 L 1307.39,3904.32 L 1302.94,3918.02 L 1295.74,3930.5 L 1286.1,3941.2 L 1274.45,3949.67 L 1261.29,3955.52 L 1247.2,3958.52 L 1232.8,3958.52 L 1218.71,3955.52 L 1205.55,3949.67 L 1193.9,3941.2 L 1184.26,3930.5 L 1177.06,3918.02 L 1172.61,3904.32 L 1171.1,3890 L 1172.61,3875.68 L 1177.06,3861.98 L 1184.26,3849.5 L 1193.9,3838.8 L 1205.55,3830.33 L 1218.71,3824.48 L 1232.8,3821.48 L 1247.2,3821.48 L 1261.29,3824.48 L 1274.45,3830.33 L 1286.1,3838.8 L 1295.74,3849.5 L 1302.94,3861.98 L 1307.39,3875.68 L 1308.9,3890 z " style="fill-opacity:1.000000;fill:rgb(236,176,59);stroke:rgb(0,0,0);stroke-width:2"/></g>
<g fill-rule="evenodd"><path d="M 1308.9,4090 L 1307.39,4104.32 L 1302.94,4118.02 L 1295.74,4130.5 L 1286.1,4141.2 L 1274.45,4149.67 L 1261.29,4155.52 L 1247.2,4158.52 L 1232.8,4158.52 L 1218.71,4155.52 L 1205.55,4149.67 L 1193.9,4141.2 L 1184.26,4130.5 L 1177.06,4118.02 L 1172.61,4104.32 L 1171.1,4090 L 1172.61,4075.68 L 1177.06,4061.98 L 1184.26,4049.5 L 1193.9,4038.8 L 1205.55,4030.33 L 1218.71,4024.48 L 1232.8,4021.48 L 1247.2,4021.48 L 1261.29,4024.48 L 1274.45,4030.33 L 1286.1,4038.8 L 1295.74,4049.5 L 1302.94,4061.98 L 1307.39,4075.68 L 1308.9,4090 z " style="fill-opacity:1.000000;fill:rgb(251,50,175);stroke:rgb(0,0,0);stroke-width:2"/></g>
<g fill-rule="evenodd"><path d="M 1308.9,4290 L 1307.39,4304.32 L 1302.94,4318.02 L 1295.74,4330.5 L 1286.1,4341.2 L 1274.45,4349.67 L 1261.29,4355.52 L 1247.2,4358.52 L 1232.8,4358.52 L 1218.71,4355.52 L 1205.55,4349.67 L 1193.9,4341.2 L 1184.26,4330.5 L 1177.06,4318.02 L 1172.61,4304.32 L 1171.1,4290 L 1172.61,4275.68 L 1177.06,4261.98 L 1184.26,4249.5 L 1193.9,4238.8 L 1205.55,4230.33 L 1218.71,4224.48 L 1232.8,4221.48 L 1247.2,4221.48 L 1261.29,4224.48 L 1274.45,4230.33 L 1286.1,4238.8 L 1295.74,4249.5 L 1302.94,4261.98 L 1307.39,4275.68 L 1308.9,4290 z " style="fill-opacity:1.000000;fill:rgb(60,84,236);stroke:rgb(0,0,0);stroke-width:2"/></g>
<g fill-rule="evenodd"><path d="M 1308.9,4490 L 1307.39,4504.32 L 1302.94,4518.02 L 1295.74,4530.5 L 1286.1,4541.2 L 1274.45,4549.67 L 1261.29,4555.52 L 1247.2,4558.52 L 1232.8,4558.52 L 1218.71,4555.52 L 1205.55,4549.67 L 1193.9,4541.2 L 1184.26,4530.5 L 1177.06,4518.02 L 1172.61,4504.32 L 1171.1,4490 L 1172.61,4475.68 L 1177.06,4461.98 L 1184.26,4449.5 L 1193.9,4438.8 L 1205.55,4430.33 L 1218.71,4424.48 L 1232.8,4421.48 L 1247.2,4421.48 L 1261.29,4424.48 L 1274.45,4430.33 L 1286.1,4438.8 L 1295.74,4449.5 L 1302.94,4461.98 L 1307.39,4475.68 L 1308.9,4490 z " style="fill-opacity:1.000000;fill:rgb(24,219,92);stroke:rgb(0,0,0);stroke-width:2"/></g>
<g fill-rule="evenodd"><path d="M 1308.9,4690 L 1307.39,4704.32 L 1302.94,4718.02 L 1295.74,4730.5 L 1286.1,4741.2 L 1274.45,4749.67 L 1261.29,4755.52 L 1247.2,4758.52 L 1232.8,4758.52 L 1218.71,4755.52 L 1205.55,4749.67 L 1193.9,4741.2 L 1184.26,4730.5 L 1177.06,4718.02 L 1172.61,4704.32 L 1171.1,4690 L 1172.61,4675.68 L 1177.06,4661.98 L 1184.26,4649.5 L 1193.9,4638.8 L 1205.55,4630.33 L 1218.71,4624.48 L 1232.8,4621.48 L 1247.2,4621.48 L 1261.29,4624.48 L 1274.45,4630.33 L 1286.1,4638.8 L 1295.74,4649.5 L 1302.94,4661.98 L 1307.39,4675.68 L 1308.9,4690 z " style="fill-opacity:1.000000;fill:rgb(2,26,254);stroke:rgb(0,0,0);stroke-width:2"/></g>
<g fill-rule="evenodd"><path d="M 1308.9,4890 L 1307.39,4904.32 L 1302.94,4918.02 L 1295.74,4930.5 L 1286.1,4941.2 L 1274.45,4949.67 L 1261.29,4955.52 L 1247.2,4958.52 L 1232.8,4958.52 L 1218.71,4955.52 L 1205.55,4949.67 L 1193.9,4941.2 L 1184.26,4930.5 L 1177.06,4918.02 L 1172.61,4904.32 L 1171.1,4890 L 1172.61,4875.68 L 1177.06,4861.98 L 1184.26,4849.5 L 1193.9,4838.8 L 1205.55,4830.33 L 1218.71,4824.48 L 1232.8,4821.48 L 1247.2,4821.48 L 1261.29,4824.48 L 1274.45,4830.33 L 1286.1,4838.8 L 1295.74,4849.5 L 1302.94,4861.98 L 1307.39,4875.68 L 1308.9,4890 z " style="fill-opacity:1.000000;fill:rgb(67,251,250);stroke:rgb(0,0,0);stroke-width:2"/></g>
<g fill-rule="evenodd"><path d="M 1308.9,5090 L 1307.39,5104.32 L 1302.94,5118.02 L 1295.74,5130.5 L 1286.1,5141.2 L 1274.45,5149.67 L 1261.29,5155.52 L 1247.2,5158.52 L 1232.8,5158.52 L 1218.71,5155.52 L 1205.55,5149.67 L 1193.9,5141.2 L 1184.26,5130.5 L 1177.06,5118.02 L 1172.61,5104.32 L 1171.1,5090 L 1172.61,5075.68 L 1177.06,5061.98 L 1184.26,5049.5 L 1193.9,5038.8 L 1205.55,5030.33 L 1218.71,5024.48 L 1232.8,5021.48 L 1247.2,5021.48 L 1261.29,5024.48 L 1274.45,5030.33 L 1286.1,5038.8 L 1295.74,5049.5 L 1302.94,5061.98 L 1307.39,5075.68 L 1308.9,5090 z " style="fill-opacity:1.000000;fill:rgb(170,58,251);stroke:rgb(0,0,0);stroke-width:2"/></g>
<g fill-rule="evenodd"><path d="M 2508.9,5090 L 2507.39,5104.32 L 2502.94,5118.02 L 2495.74,5130.5 L 2486.1,5141.2 L 2474.45,5149.67 L 2461.29,5155.52 L 2447.2,5158.52 L 2432.8,5158.52 L 2418.71,5155.52 L 2405.55,5149.67 L 2393.9,5141.2 L 2384.26,5130.5 L 2377.06,5118.02 L 2372.61,5104.32 L 2371.1,5090 L 2372.61,5075.68 L 2377.06,5061.98 L 2384.26,5049.5 L 2393.9,5038.8 L 2405.55,5030.33 L 2418.71,5024.48 L 2432.8,5021.48 L 2447.2,5021.48 L 2461.29,5024.48 L 2474.45,5030.33 L 2486.1,5038.8 L 2495.74,5049.5 L 2502.94,5061.98 L 2507.39,5075.68 L 2508.9,5090 z " style="fill-opacity:1.000000;fill:rgb(41,209,230);stroke:rgb(0,0,0);stroke-width:2"/></g>
<g fill-rule="evenodd"><path d="M 2508.9,4890 L 2507.39,4904.32 L 2502.94,4918.02 L 2495.74,4930.5 L 2486.1,4941.2 L 2474.45,4949.67 L 2461.29,4955.52 L 2447.2,4958.52 L 2432.8,4958.52 L 2418.71,4955.52 L 2405.55,4949.67 L 2393.9,4941.2 L 2384.26,4930.5 L 2377.06,4918.02 L 2372.61,4904.32 L 2371.1,4890 L 2372.61,4875.68 L 2377.06,4861.98 L 2384.26,4849.5 L 2393.9,4838.8 L 2405.55,4830.33 L 2418.71,4824.48 L 2432.8,4821.48 L 2447.2,4821.48 L 2461.29,4824.48 L 2474.45,4830.33 L 2486.1,4838.8 L 2495.74,4849.5 L 2502.94,4861.98 L 2507.39,4875.68 L 2508.9,4890 z " style="fill-opacity:1.000000;fill:rgb(5,60,124);stroke:rgb(0,0,0);stroke-width:2"/></g>
<g fill-rule="evenodd"><path d="M 2508.9,4690 L 2507.39,4704.32 L 2502.94,4718.02 L 2495.74,4730.5 L 2486.1,4741.2 L 2474.45,4749.67 L 2461.29,4755.52 L 2447.2,4758.52 L 2432.8,4758.52 L 2418.71,4755.52 L 2405.55,4749.67 L 2393.9,4741.2 L 2384.26,4730.5 L 2377.06,4718.02 L 2372.61,4704.32 L 2371.1,4690 L 2372.61,4675.68 L 2377.06,4661.98 L 2384.26,4649.5 L 2393.9,4638.8 L 2405.55,4630.33 L 2418.71,4624.48 L 2432.8,4621.48 L 2447.2,4621.48 L 2461.29,4624.48 L 2474.45,4630.33 L 2486.1,4638.8 L 2495.74,4649.5 L 2502.94,4661.98 L 2507.39,4675.68 L 2508.9,4690 z " style="fill-opacity:1.000000;fill:rgb(148,117,216);stroke:rgb(0,0,0);stroke-width:2"/></g>
<g fill-rule="evenodd"><path d="M 2508.9,4490 L 2507.39,4504.32 L 2502.94,4518.02 L 2495.74,4530.5 L 2486.1,4541.2 L 2474.45,4549.67 L 2461.29,4555.52 L 2447.2,4558.52 L 2432.8,4558.52 L 2418.71,4555.52 L 2405.55,4549.67 L 2393.9,4541.2 L 2384.26,4530.5 L 2377.06,4518.02 L 2372.61,4504.32 L 2371.1,4490 L 2372.61,4475.68 L 2377.06,4461.98 L 2384.26,4449.5 L 2393.9,4438.8 L 2405.55,4430.33 L 2418.71,4424.48 L 2432.8,4421.48 L 2447.2,4421.48 L 2461.29,4424.48 L 2474.45,4430.33 L 2486.1,4438.8 L 2495.74,4449.5 L 2502.94,4461.98 L 2507.39,4475.68 L 2508.9,4490 z " style="fill-opacity:1.000000;fill:rgb(190,97,137);stroke:rgb(0,0,0);stroke-width:2"/></g>
<g fill-rule="evenodd"><path d="M 2508.9,4290 L 2507.39,4304.32 L 2502.94,4318.02 L 2495.74,4330.5 L 2486.1,4341.2 L 2474.45,4349.67 L 2461.29,4355.52 L 2447.2,4358.52 L 2432.8,4358.52 L 2418.71,4355.52 L 2405.55,4349.67 L 2393.9,4341.2 L 2384.26,4330.5 L 2377.06,4318.02 L 2372.61,4304.32 L 2371.1,4290 L 2372.61,4275.68 L 2377.06,4261.98 L 2384.26,4249.5 L 2393.9,4238.8 L 2405.55,4230.33 L 2418.71,4224.48 L 2432.8,4221.48 L 2447.2,4221.48 L 2461.29,4224.48 L 2474.45,4230.33 L 2486.1,4238.8 L 2495.74,4249.5 L 2502.94,4261.98 L 2507.39,4275.68 L 2508.9,4290 z " style="fill-opacity:1.000000;fill:rgb(249,92,187);stroke:rgb(0,0,0);stroke-width:2"/></g>
<g fill-rule="evenodd"><path d="M 2508.9,4090 L 2507.39,4104.32 L 2502.94,4118.02 L 2495.74,4130.5 L 2486.1,4141.2 L 2474.45,4149.67 L 2461.29,4155.52 L 2447.2,4158.52 L 2432.8,4158.52 L 2418.71,4155.52 L 2405.55,4149.67 L 2393.9,4141.2 L 2384.26,4130.5 L 2377.06,4118.02 L 2372.61,4104.32 L 2371.1,4090 L 2372.61,4075.68 L 2377.06,4061.98 L 2384.26,4049.5 L 2393.9,4038.8 L 2405.55,4030.33 L 2418.71,4024.48 L 2432.8,4021.48 L 2447.2,4021.48 L 2461.29,4024.48 L 2474.45,4030.33 L 2486.1,4038.8 L 2495.74,4049.5 L 2502.94,4061.98 L 2507.39,4075.68 L 2508.9,4090 z " style="fill-opacity:1.000000;fill:rgb(168,153,15);stroke:rgb(0,0,0);stroke-width:2"/></g>
<g fill-rule="evenodd"><path d="M 2508.9,3890 L 2507.39,3904.32 L 2502.94,3918.02 L 2495.74,3930.5 L 2486.1,3941.2 L 2474.45,3949.67 L 2461.29,3955.52 L 2447.2,3958.52 L 2432.8,3958.52 L 2418.71,3955.52 L 2405.55,3949.67 L 2393.9,3941.2 L 2384.26,3930.5 L 2377.06,3918.02 L 2372.61,3904.32 L 2371.1,3890 L 2372.61,3875.68 L 2377.06,3861.98 L 2384.26,3849.5 L 2393.9,3838.8 L 2405.55,3830.33 L 2418.71,3824.48 L 2432.8,3821.48 L 2447.2,3821.48 L 2461.29,3824.48 L 2474.45,3830.33 L 2486.1,3838.8 L 2495.74,3849.5 L 2502.94,3861.98 L 2507.39,3875.68 L 2508.9,3890 z " style="fill-opacity:1.000000;fill:rgb(149,177,235);stroke:rgb(0,0,0);stroke-width:2"/></g>
<g fill-rule="evenodd"><path d="M 2508.9,3690 L 2507.39,3704.32 L 2502.94,3718.02 L 2495.74,3730.5 L 2486.1,3741.2 L 2474.45,3749.67 L 2461.29,3755.52 L 2447.2,3758.52 L 2432.8,3758.52 L 2418.71,3755.52 L 2405.55,3749.67 L 2393.9,3741.2 L 2384.26,3730.5 L 2377.06,3718.02 L 2372.61,3704.32 L 2371.1,3690 L 2372.61,3675.68 L 2377.06,3661.98 L 2384.26,3649.5 L 2393.9,3638.8 L 2405.55,3630.33 L 2418.71,3624.48 L 2432.8,3621.48 L 2447.2,3621.48 L 2461.29,3624.48 L 2474.45,3630.33 L 2486.1,3638.8 L 2495.74,3649.5 L 2502.94,3661.98 L 2507.39,3675.68 L 2508.9,3690 z " style="fill-opacity:1.000000;fill:rgb(241,179,5);stroke:rgb(0,0,0);stroke-width:2"/></g>
<g fill-rule="evenodd"><path d="M 2508.9,3490 L 2507.39,3504.32 L 2502.94,3518.02 L 2495.74,3530.5 L 2486.1,3541.2 L 2474.45,3549.67 L 2461.29,3555.52 L 2447.2,3558.52 L 2432.8,3558.52 L 2418.71,3555.52 L 2405.55,3549.67 L 2393.9,3541.2 L 2384.26,3530.5 L 2377.06,3518.02 L 2372.61,3504.32 L 2371.1,3490 L 2372.61,3475.68 L 2377.06,3461.98 L 2384.26,3449.5 L 2393.9,3438.8 L 2405.55,3430.33 L 2418.71,3424.48 L 2432.8,3421.48 L 2447.2,3421.48 L 2461.29,3424.48 L 2474.45,3430.33 L 2486.1,3438.8 L 2495.74,3449.5 L 2502.94,3461.98 L 2507.39,3475.68 L 2508.9,3490 z " style="fill-opacity:1.000000;fill:rgb(239,247,0);stroke:rgb(0,0,0);stroke-width:2"/></g>
<g fill-rule="evenodd"><path d="M 2508.9,3290 L 2507.39,3304.32 L 2502.94,3318.02 L 2495.74,3330.5 L 2486.1,3341.2 L 2474.45,3349.67 L 2461.29,3355.52 L 2447.2,3358.52 L 2432.8,3358.52 L 2418.71,3355.52 L 2405.55,3349.67 L 2393.9,3341.2 L 2384.26,3330.5 L 2377.06,3318.02 L 2372.61,3304.32 L 2371.1,3290 L 2372.61,3275.68 L 2377.06,3261.98 L 2384.26,3249.5 L 2393.9,3238.8 L 2405.55,3230.33 L 2418.71,3224.48 L 2432.8,3221.48 L 2447.2,3221.48 L 2461.29,3224.48 L 2474.45,3230.33 L 2486.1,3238.8 L 2495.74,3249.5 L 2502.94,3261.98 L 2507.39,3275.68 L 2508.9,3290 z " style="fill-opacity:1.000000;fill:rgb(233,161,58);stroke:rgb(0,0,0);stroke-width:2"/></g>
<g fill-rule="evenodd"><path d="M 2508.9,3090 L 2507.39,3104.32 L 2502.94,3118.02 L 2495.74,3130.5 L 2486.1,3141.2 L 2474.45,3149.67 L 2461.29,3155.52 L 2447.2,3158.52 L 2432.8,3158.52 L 2418.71,3155.52 L 2405.55,3149.67 L 2393.9,3141.2 L 2384.26,3130.5 L 2377.06,3118.02 L 2372.61,3104.32 L 2371.1,3090 L 2372.61,3075.68 L 2377.06,3061.98 L 2384.26,3049.5 L 2393.9,3038.8 L 2405.55,3030.33 L 2418.71,3024.48 L 2432.8,3021.48 L 2447.2,3021.48 L 2461.29,3024.48 L 2474.45,3030.33 L 2486.1,3038.8 L 2495.74,3049.5 L 2502.94,3061.98 L 2507.39,3075.68 L 2508.9,3090 z " style="fill-opacity:1.000000;fill:rgb(229,202,11);stroke:rgb(0,0,0);stroke-width:2"/></g>
<g fill-rule="evenodd"><path d="M 2508.9,2890 L 2507.39,2904.32 L 2502.94,2918.02 L 2495.74,2930.5 L 2486.1,2941.2 L 2474.45,2949.67 L 2461.29,2955.52 L 2447.2,2958.52 L 2432.8,2958.52 L 2418.71,2955.52 L 2405.55,2949.67 L 2393.9,2941.2 L 2384.26,2930.5 L 2377.06,2918.02 L 2372.61,2904.32 L 2371.1,2890 L 2372.61,2875.68 L 2377.06,2861.98 L 2384.26,2849.5 L 2393.9,2838.8 L 2405.55,2830.33 L 2418.71,2824.48 L 2432.8,2821.48 L 2447.2,2821.48 L 2461.29,2824.48 L 2474.45,2830.33 L 2486.1,2838.8 L 2495.74,2849.5 L 2502.94,2861.98 L 2507.39,2875.68 L 2508.9,2890 z " style="fill-opacity:1.000000;fill:rgb(203,208,72);stroke:rgb(0,0,0);stroke-width:2"/></g>
<g fill-rule="evenodd"><path d="M 2508.9,2690 L 2507.39,2704.32 L 2502.94,2718.02 L 2495.74,2730.5 L 2486.1,2741.2 L 2474.45,2749.67 L 2461.29,2755.52 L 2447.2,2758.52 L 2432.8,2758.52 L 2418.71,2755.52 L 2405.55,2749.67 L 2393.9,2741.2 L 2384.26,2730.5 L 2377.06,2718.02 L 2372.61,2704.32 L 2371.1,2690 L 2372.61,2675.68 L 2377.06,2661.98 L 2384.26,2649.5 L 2393.9,2638.8 L 2405.55,2630.33 L 2418.71,2624.48 L 2432.8,2621.48 L 2447.2,2621.48 L 2461.29,2624.48 L 2474.45,2630.33 L 2486.1,2638.8 L 2495.74,2649.5 L 2502.94,2661.98 L 2507.39,2675.68 L 2508.9,2690 z " style="fill-opacity:1.000000;fill:rgb(71,100,189);stroke:rgb(0,0,0);stroke-width:2"/></g>
<g fill-rule="evenodd"><path d="M 2508.9,2490 L 2507.39,2504.32 L 2502.94,2518.02 L 2495.74,2530.5 L 2486.1,2541.2 L 2474.45,2549.67 L 2461.29,2555.52 L 2447.2,2558.52 L 2432.8,2558.52 L 2418.71,2555.52 L 2405.55,2549.67 L 2393.9,2541.2 L 2384.26,2530.5 L 2377.06,2518.02 L 2372.61,2504.32 L 2371.1,2490 L 2372.61,2475.68 L 2377.06,2461.98 L 2384.26,2449.5 L 2393.9,2438.8 L 2405.55,2430.33 L 2418.71,2424.48 L 2432.8,2421.48 L 2447.2,2421.48 L 2461.29,2424.48 L 2474.45,2430.33 L 2486.1,2438.8 L 2495.74,2449.5 L 2502.94,2461.98 L 2507.39,2475.68 L 2508.9,2490 z " style="fill-opacity:1.000000;fill:rgb(31,35,30);stroke:rgb(0,0,0);stroke-width:2"/></g>
<g fill-rule="evenodd"><path d="M 2508.9,2290 L 2507.39,2304.32 L 2502.94,2318.02 L 2495.74,2330.5 L 2486.1,2341.2 L 2474.45,2349.67 L 2461.29,2355.52 L 2447.2,2358.52 L 2432.8,2358.52 L 2418.71,2355.52 L 2405.55,2349.67 L 2393.9,2341.2 L 2384.26,2330.5 L 2377.06,2318.02 L 2372.61,2304.32 L 2371.1,2290 L 2372.61,2275.68 L 2377.06,2261.98 L 2384.26,2249.5 L 2393.9,2238.8 L 2405.55,2230.33 L 2418.71,2224.48 L 2432.8,2221.48 L 2447.2,2221.48 L 2461.29,2224.48 L 2474.45,2230.33 L 2486.1,2238.8 L 2495.74,2249.5 L 2502.94,2261.98 L 2507.39,2275.68 L 2508.9,2290 z " style="fill-opacity:1.000000;fill:rgb(168,28,123);stroke:rgb(0,0,0);stroke-width:2"/></g>
<g fill-rule="evenodd"><path d="M 1308.9,2290 L 1307.39,2304.32 L 1302.94,2318.02 L 1295.74,2330.5 L 1286.1,2341.2 L 1274.45,2349.67 L 1261.29,2355.52 L 1247.2,2358.52 L 1232.8,2358.52 L 1218.71,2355.52 L 1205.55,2349.67 L 1193.9,2341.2 L 1184.26,2330.5 L 1177.06,2318.02 L 1172.61,2304.32 L 1171.1,2290 L 1172.61,2275.68 L 1177.06,2261.98 L 1184.26,2249.5 L 1193.9,2238.8 L 1205.55,2230.33 L 1218.71,2224.48 L 1232.8,2221.48 L 1247.2,2221.48 L 1261.29,2224.48 L 1274.45,2230.33 L 1286.1,2238.8 L 1295.74,2249.5 L 1302.94,2261.98 L 1307.39,2275.68 L 1308.9,2290 z " style="fill-opacity:1.000000;fill:rgb(100,197,20);stroke:rgb(0,0,0);stroke-width:2"/></g>
<g fill-rule="evenodd"><path d="M 7122.99,4110 L 7121.61,4123.1 L 7117.55,4135.62 L 7110.96,4147.02 L 7102.15,4156.81 L 7091.5,4164.55 L 7079.46,4169.91 L 7066.58,4172.65 L 7053.42,4172.65 L 7040.54,4169.91 L 7028.51,4164.55 L 7017.85,4156.81 L 7009.04,4147.02 L 7002.45,4135.62 L 6998.39,4123.1 L 6997.01,4110 L 6998.39,4096.9 L 7002.45,4084.38 L 7009.04,4072.98 L 7017.85,4063.19 L 7028.5,4055.45 L 7040.54,4050.09 L 7053.42,4047.35 L 7066.58,4047.35 L 7079.46,4050.09 L 7091.49,4055.45 L 7102.15,4063.19 L 7110.96,4072.98 L 7117.55,4084.38 L 7121.61,4096.9 L 7122.99,4110 z " style="fill-opacity:1.000000;fill:rgb(115,90,197);stroke:rgb(0,0,0);stroke-width:2"/></g>
<g fill-rule="evenodd"><path d="M 6460,4172.99 L 6447.32,4171.7 L 6435.16,4167.89 L 6424.02,4161.7 L 6414.34,4153.4 L 6406.54,4143.32 L 6400.93,4131.88 L 6397.74,4119.54 L 6397.09,4106.81 L 6399.02,4094.21 L 6403.45,4082.26 L 6410.19,4071.44 L 6418.97,4062.21 L 6429.43,4054.92 L 6441.14,4049.9 L 6453.63,4047.33 L 6460,4047.01 L 6472.68,4048.3 L 6484.84,4052.11 L 6495.98,4058.3 L 6505.66,4066.6 L 6513.46,4076.68 L 6519.07,4088.12 L 6522.26,4100.46 L 6522.91,4113.19 L 6520.98,4125.79 L 6516.55,4137.74 L 6509.81,4148.56 L 6501.03,4157.79 L 6490.57,4165.08 L 6478.86,4170.1 L 6466.37,4172.67 L 6460,4172.99 z " style="fill-opacity:1.000000;fill:rgb(94,75,121);stroke:rgb(0,0,0);stroke-width:2"/></g>
<g fill-rule="evenodd"><path d="M 432,3518 L 432,3382 L 568,3382 L 568,3518 L 432,3518 z " style="fill-opacity:1.000000;fill:rgb(99,59,112);stroke:rgb(0,0,0);stroke-width:2"/></g>
<g fill-rule="evenodd"><path d="M 700,3518 L 686.312,3516.61 L 673.184,3512.49 L 661.154,3505.81 L 650.716,3496.85 L 642.294,3485.97 L 636.234,3473.62 L 632.786,3460.3 L 632.088,3446.56 L 634.172,3432.96 L 638.95,3420.05 L 646.228,3408.38 L 655.708,3398.41 L 667,3390.55 L 679.644,3385.12 L 693.122,3382.35 L 700,3382 L 713.688,3383.39 L 726.816,3387.51 L 738.846,3394.19 L 749.284,3403.15 L 757.706,3414.03 L 763.766,3426.38 L 767.214,3439.7 L 767.912,3453.44 L 765.828,3467.04 L 761.05,3479.95 L 753.772,3491.62 L 744.292,3501.59 L 733,3509.45 L 720.356,3514.88 L 706.878,3517.65 L 700,3518 z " style="fill-opacity:1.000000;fill:rgb(100,36,17);stroke:rgb(0,0,0);stroke-width:2"/></g>
<g fill-rule="evenodd"><path d="M 500,3718 L 486.312,3716.61 L 473.184,3712.49 L 461.154,3705.81 L 450.716,3696.85 L 442.294,3685.97 L 436.234,3673.62 L 432.786,3660.3 L 432.088,3646.56 L 434.172,3632.96 L 438.95,3620.05 L 446.228,3608.38 L 455.708,3598.41 L 467,3590.55 L 479.644,3585.12 L 493.122,3582.35 L 500,3582 L 513.688,3583.39 L 526.816,3587.51 L 538.846,3594.19 L 549.284,3603.15 L 557.706,3614.03 L 563.766,3626.38 L 567.214,3639.7 L 567.912,3653.44 L 565.828,3667.04 L 561.05,3679.95 L 553.772,3691.62 L 544.292,3701.59 L 533,3709.45 L 520.356,3714.88 L 506.878,3717.65 L 500,3718 z " style="fill-opacity:1.000000;fill:rgb(158,9,220);stroke:rgb(0,0,0);stroke-width:2"/></g>
<g fill-rule="evenodd"><path d="M 700,3718 L 686.312,3716.61 L 673.184,3712.49 L 661.154,3705.81 L 650.716,3696.85 L 642.294,3685.97 L 636.234,3673.62 L 632.786,3660.3 L 632.088,3646.56 L 634.172,3632.96 L 638.95,3620.05 L 646.228,3608.38 L 655.708,3598.41 L 667,3590.55 L 679.644,3585.12 L 693.122,3582.35 L 700,3582 L 713.688,3583.39 L 726.816,3587.51 L 738.846,3594.19 L 749.284,3603.15 L 757.706,3614.03 L 763.766,3626.38 L 767.214,3639.7 L 767.912,3653.44 L 765.828,3667.04 L 761.05,3679.95 L 753.772,3691.62 L 744.292,3701.59 L 733,3709.45 L 720.356,3714.88 L 706.878,3717.65 L 700,3718 z " style="fill-opacity:1.000000;fill:rgb(170,212,172);stroke:rgb(0,0,0);stroke-width:2"/></g>
<g fill-rule="evenodd"><path d="M 500,3918 L 486.312,3916.61 L 473.184,3912.49 L 461.154,3905.81 L 450.716,3896.85 L 442.294,3885.97 L 436.234,3873.62 L 432.786,3860.3 L 432.088,3846.56 L 434.172,3832.96 L 438.95,3820.05 L 446.228,3808.38 L 455.708,3798.41 L 467,3790.55 L 479.644,3785.12 L 493.122,3782.35 L 500,3782 L 513.688,3783.39 L 526.816,3787.51 L 538.846,3794.19 L 549.284,3803.15 L 557.706,3814.03 L 563.766,3826.38 L 567.214,3839.7 L 567.912,3853.44 L 565.828,3867.04 L 561.05,3879.95 L 553.772,3891.62 L 544.292,3901.59 L 533,3909.45 L 520.356,3914.88 L 506.878,3917.65 L 500,3918 z " style="fill-opacity:1.000000;fill:rgb(242,27,16);stroke:rgb(0,0,0);stroke-width:2"/></g>
<g fill-rule="evenodd"><path d="M 700,3918 L 686.312,3916.61 L 673.184,3912.49 L 661.154,3905.81 L 650.716,3896.85 L 642.294,3885.97 L 636.234,3873.62 L 632.786,3860.3 L 632.088,3846.56 L 634.172,3832.96 L 638.95,3820.05 L 646.228,3808.38 L 655.708,3798.41 L 667,3790.55 L 679.644,3785.12 L 693.122,3782.35 L 700,3782 L 713.688,3783.39 L 726.816,3787.51 L 738.846,3794.19 L 749.284,3803.15 L 757.706,3814.03 L 763.766,3826.38 L 767.214,3839.7 L 767.912,3853.44 L 765.828,3867.04 L 761.05,3879.95 L 753.772,3891.62 L 744.292,3901.59 L 733,3909.45 L 720.356,3914.88 L 706.878,3917.65 L 700,3918 z " style="fill-opacity:1.000000;fill:rgb(175,59,51);stroke:rgb(0,0,0);stroke-width:2"/></g>
<g fill-rule="evenodd"><path d="M 500,4118 L 486.312,4116.61 L 473.184,4112.49 L 461.154,4105.81 L 450.716,4096.85 L 442.294,4085.97 L 436.234,4073.62 L 432.786,4060.3 L 432.088,4046.56 L 434.172,4032.96 L 438.95,4020.05 L 446.228,4008.38 L 455.708,3998.41 L 467,3990.55 L 479.644,3985.12 L 493.122,3982.35 L 500,3982 L 513.688,3983.39 L 526.816,3987.51 L 538.846,3994.19 L 549.284,4003.15 L 557.706,4014.03 L 563.766,4026.38 L 567.214,4039.7 L 567.912,4053.44 L 565.828,4067.04 L 561.05,4079.95 L 553.772,4091.62 L 544.292,4101.59 L 533,4109.45 L 520.356,4114.88 L 506.878,4117.65 L 500,4118 z " style="fill-opacity:1.000000;fill:rgb(205,227,80);stroke:rgb(0,0,0);stroke-width:2"/></g>
<g fill-rule="evenodd"><path d="M 700,4118 L 686.312,4116.61 L 673.184,4112.49 L 661.154,4105.81 L 650.716,4096.85 L 642.294,4085.97 L 636.234,4073.62 L 632.786,4060.3 L 632.088,4046.56 L 634.172,4032.96 L 638.95,4020.05 L 646.228,4008.38 L 655.708,3998.41 L 667,3990.55 L 679.644,3985.12 L 693.122,3982.35 L 700,3982 L 713.688,3983.39 L 726.816,3987.51 L 738.846,3994.19 L 749.284,4003.15 L 757.706,4014.03 L 763.766,4026.38 L 767.214,4039.7 L 767.912,4053.44 L 765.828,4067.04 L 761.05,4079.95 L 753.772,4091.62 L 744.292,4101.59 L 733,4109.45 L 720.356,4114.88 L 706.878,4117.65 L 700,4118 z " style="fill-opacity:1.000000;fill:rgb(72,71,21);stroke:rgb(0,0,0);stroke-width:2"/></g>
<g fill-rule="evenodd"><path d="M 500,4318 L 486.312,4316.61 L 473.184,4312.49 L 461.154,4305.81 L 450.716,4296.85 L 442.294,4285.97 L 436.234,4273.62 L 432.786,4260.3 L 432.088,4246.56 L 434.172,4232.96 L 438.95,4220.05 L 446.228,4208.38 L 455.708,4198.41 L 467,4190.55 L 479.644,4185.12 L 493.122,4182.35 L 500,4182 L 513.688,4183.39 L 526.816,4187.51 L 538.846,4194.19 L 549.284,4203.15 L 557.706,4214.03 L 563.766,4226.38 L 567.214,4239.7 L 567.912,4253.44 L 565.828,4267.04 L 561.05,4279.95 L 553.772,4291.62 L 544.292,4301.59 L 533,4309.45 L 520.356,4314.88 L 506.878,4317.65 L 500,4318 z " style="fill-opacity:1.000000;fill:rgb(92,187,111);stroke:rgb(0,0,0);stroke-width:2"/></g>
<g fill-rule="evenodd"><path d="M 700,4318 L 686.312,4316.61 L 673.184,4312.49 L 661.154,4305.81 L 650.716,4296.85 L 642.294,4285.97 L 636.234,4273.62 L 632.786,4260.3 L 632.088,4246.56 L 634.172,4232.96 L 638.95,4220.05 L 646.228,4208.38 L 655.708,4198.41 L 667,4190.55 L 679.644,4185.12 L 693.122,4182.35 L 700,4182 L 713.688,4183.39 L 726.816,4187.51 L 738.846,4194.19 L 749.284,4203.15 L 757.706,4214.03 L 763.766,4226.38 L 767.214,4239.7 L 767.912,4253.44 L 765.828,4267.04 L 761.05,4279.95 L 753.772,4291.62 L 744.292,4301.59 L 733,4309.45 L 720.356,4314.88 L 706.878,4317.65 L 700,4318 z " style="fill-opacity:1.000000;fill:rgb(34,25,186);stroke:rgb(0,0,0);stroke-width:2"/></g>
<g fill-rule="evenodd"><path d="M 500,4518 L 486.312,4516.61 L 473.184,4512.49 L 461.154,4505.81 L 450.716,4496.85 L 442.294,4485.97 L 436.234,4473.62 L 432.786,4460.3 L 432.088,4446.56 L 434.172,4432.96 L 438.95,4420.05 L 446.228,4408.38 L 455.708,4398.41 L 467,4390.55 L 479.644,4385.12 L 493.122,4382.35 L 500,4382 L 513.688,4383.39 L 526.816,4387.51 L 538.846,4394.19 L 549.284,4403.15 L 557.706,4414.03 L 563.766,4426.38 L 567.214,4439.7 L 567.912,4453.44 L 565.828,4467.04 L 561.05,4479.95 L 553.772,4491.62 L 544.292,4501.59 L 533,4509.45 L 520.356,4514.88 L 506.878,4517.65 L 500,4518 z " style="fill-opacity:1.000000;fill:rgb(155,125,245);stroke:rgb(0,0,0);stroke-width:2"/></g>
<g fill-rule="evenodd"><path d="M 700,4518 L 686.312,4516.61 L 673.184,4512.49 L 661.154,4505.81 L 650.716,4496.85 L 642.294,4485.97 L 636.234,4473.62 L 632.786,4460.3 L 632.088,4446.56 L 634.172,4432.96 L 638.95,4420.05 L 646.228,4408.38 L 655.708,4398.41 L 667,4390.55 L 679.644,4385.12 L 693.122,4382.35 L 700,4382 L 713.688,4383.39 L 726.816,4387.51 L 738.846,4394.19 L 749.284,4403.15 L 757.706,4414.03 L 763.766,4426.38 L 767.214,4439.7 L 767.912,4453.44 L 765.828,4467.04 L 761.05,4479.95 L 753.772,4491.62 L 744.292,4501.59 L 733,4509.45 L 720.356,4514.88 L 706.878,4517.65 L 700,4518 z " style="fill-opacity:1.000000;fill:rgb(11,225,26);stroke:rgb(0,0,0);stroke-width:2"/></g>
<g fill-rule="evenodd"><path d="M 500,4718 L 486.312,4716.61 L 473.184,4712.49 L 461.154,4705.81 L 450.716,4696.85 L 442.294,4685.97 L 436.234,4673.62 L 432.786,4660.3 L 432.088,4646.56 L 434.172,4632.96 L 438.95,4620.05 L 446.228,4608.38 L 455.708,4598.41 L 467,4590.55 L 479.644,4585.12 L 493.122,4582.35 L 500,4582 L 513.688,4583.39 L 526.816,4587.51 L 538.846,4594.19 L 549.284,4603.15 L 557.706,4614.03 L 563.766,4626.38 L 567.214,4639.7 L 567.912,4653.44 L 565.828,4667.04 L 561.05,4679.95 L 553.772,4691.62 L 544.292,4701.59 L 533,4709.45 L 520.356,4714.88 L 506.878,4717.65 L 500,4718 z " style="fill-opacity:1.000000;fill:rgb(28,127,35);stroke:rgb(0,0,0);stroke-width:2"/></g>
<g fill-rule="evenodd"><path d="M 700,4718 L 686.312,4716.61 L 673.184,4712.49 L 661.154,4705.81 L 650.716,4696.85 L 642.294,4685.97 L 636.234,4673.62 L 632.786,4660.3 L 632.088,4646.56 L 634.172,4632.96 L 638.95,4620.05 L 646.228,4608.38 L 655.708,4598.41 L 667,4590.55 L 679.644,4585.12 L 693.122,4582.35 L 700,4582 L 713.688,4583.39 L 726.816,4587.51 L 738.846,4594.19 L 749.284,4603.15 L 757.706,4614.03 L 763.766,4626.38 L 767.214,4639.7 L 767.912,4653.44 L 765.828,4667.04 L 761.05,4679.95 L 753.772,4691.62 L 744.292,4701.59 L 733,4709.45 L 720.356,4714.88 L 706.878,4717.65 L 700,4718 z " style="fill-opacity:1.000000;fill:rgb(248,41,248);stroke:rgb(0,0,0);stroke-width:2"/></g>
<g fill-rule="evenodd"><path d="M 500,4918 L 486.312,4916.61 L 473.184,4912.49 L 461.154,4905.81 L 450.716,4896.85 L 442.294,4885.97 L 436.234,4873.62 L 432.786,4860.3 L 432.088,4846.56 L 434.172,4832.96 L 438.95,4820.05 L 446.228,4808.38 L 455.708,4798.41 L 467,4790.55 L 479.644,4785.12 L 493.122,4782.35 L 500,4782 L 513.688,4783.39 L 526.816,4787.51 L 538.846,4794.19 L 549.284,4803.15 L 557.706,4814.03 L 563.766,4826.38 L 567.214,4839.7 L 567.912,4853.44 L 565.828,4867.04 L 561.05,4879.95 L 553.772,4891.62 L 544.292,4901.59 L 533,4909.45 L 520.356,4914.88 L 506.878,4917.65 L 500,4918 z " style="fill-opacity:1.000000;fill:rgb(164,27,19);stroke:rgb(0,0,0);stroke-width:2"/></g>
<g fill-rule="evenodd"><path d="M 700,4918 L 686.312,4916.61 L 673.184,4912.49 L 661.154,4905.81 L 650.716,4896.85 L 642.294,4885.97 L 636.234,4873.62 L 632.786,4860.3 L 632.088,4846.56 L 634.172,4832.96 L 638.95,4820.05 L 646.228,4808.38 L 655.708,4798.41 L 667,4790.55 L 679.644,4785.12 L 693.122,4782.35 L 700,4782 L 713.688,4783.39 L 726.816,4787.51 L 738.846,4794.19 L 749.284,4803.15 L 757.706,4814.03 L 763.766,4826.38 L 767.214,4839.7 L 767.912,4853.44 L 765.828,4867.04 L 761.05,4879.95 L 753.772,4891.62 L 744.292,4901.59 L 733,4909.45 L 720.356,4914.88 L 706.878,4917.65 L 700,4918 z " style="fill-opacity:1.000000;fill:rgb(181,202,78);stroke:rgb(0,0,0);stroke-width:2"/></g>
<g fill-rule="evenodd"><path d="M 3622.99,910 L 3621.61,923.096 L 3617.55,935.62 L 3610.96,947.024 L 3602.15,956.812 L 3591.5,964.552 L 3579.46,969.908 L 3566.58,972.646 L 3553.42,972.646 L 3540.54,969.908 L 3528.51,964.552 L 3517.85,956.812 L 3509.04,947.024 L 3502.45,935.62 L 3498.39,923.096 L 3497.01,910 L 3498.39,896.904 L 3502.45,884.38 L 3509.04,872.976 L 3517.85,863.188 L 3528.5,855.448 L 3540.54,850.092 L 3553.42,847.354 L 3566.58,847.354 L 3579.46,850.092 L 3591.49,855.448 L 3602.15,863.188 L 3610.96,872.976 L 3617.55,884.38 L 3621.61,896.904 L 3622.99,910 z " style="fill-opacity:1.000000;fill:rgb(232,152,50);stroke:rgb(0,0,0);stroke-width:2"/></g>
<g fill-rule="evenodd"><path d="M 3622.99,516.3 L 3621.61,529.396 L 3617.55,541.92 L 3610.96,553.324 L 3602.15,563.112 L 3591.5,570.852 L 3579.46,576.208 L 3566.58,578.946 L 3553.42,578.946 L 3540.54,576.208 L 3528.51,570.852 L 3517.85,563.112 L 3509.04,553.324 L 3502.45,541.92 L 3498.39,529.396 L 3497.01,516.3 L 3498.39,503.204 L 3502.45,490.68 L 3509.04,479.276 L 3517.85,469.488 L 3528.5,461.748 L 3540.54,456.392 L 3553.42,453.654 L 3566.58,453.654 L 3579.46,456.392 L 3591.49,461.748 L 3602.15,469.488 L 3610.96,479.276 L 3617.55,490.68 L 3621.61,503.204 L 3622.99,516.3 z " style="fill-opacity:1.000000;fill:rgb(56,224,121);stroke:rgb(0,0,0);stroke-width:2"/></g>
<g fill-rule="evenodd"><path d="M 7065.98,330 L 7063.23,356.192 L 7055.09,381.242 L 7041.92,404.05 L 7024.3,423.624 L 7002.99,439.104 L 6978.93,449.816 L 6953.17,455.292 L 6926.83,455.292 L 6901.07,449.816 L 6877.01,439.104 L 6855.7,423.624 L 6838.08,404.05 L 6824.91,381.242 L 6816.77,356.192 L 6814.02,330 L 6816.77,303.808 L 6824.91,278.758 L 6838.08,255.95 L 6855.7,236.376 L 6877.01,220.896 L 6901.07,210.184 L 6926.83,204.708 L 6953.17,204.708 L 6978.93,210.184 L 7002.99,220.896 L 7024.3,236.376 L 7041.92,255.95 L 7055.09,278.758 L 7063.23,303.808 L 7065.98,330 z " style="fill-opacity:1.000000;fill:rgb(77,61,52);stroke:rgb(0,0,0);stroke-width:2"/></g>
<g fill-rule="evenodd"><path d="M 765.984,330 L 763.23,356.192 L 755.092,381.242 L 741.922,404.05 L 724.298,423.624 L 702.992,439.104 L 678.93,449.816 L 653.168,455.292 L 626.832,455.292 L 601.07,449.816 L 577.01,439.104 L 555.702,423.624 L 538.078,404.05 L 524.908,381.242 L 516.77,356.192 L 514.016,330 L 516.77,303.808 L 524.908,278.758 L 538.078,255.95 L 555.702,236.376 L 577.008,220.896 L 601.07,210.184 L 626.832,204.708 L 653.168,204.708 L 678.93,210.184 L 702.99,220.896 L 724.298,236.376 L 741.922,255.95 L 755.092,278.758 L 763.23,303.808 L 765.984,330 z " style="fill-opacity:1.000000;fill:rgb(188,95,78);stroke:rgb(0,0,0);stroke-width:2"/></g>
<g fill-rule="evenodd"><path d="M 765.984,5580 L 763.23,5606.19 L 755.092,5631.24 L 741.922,5654.05 L 724.298,5673.62 L 702.992,5689.1 L 678.93,5699.82 L 653.168,5705.29 L 626.832,5705.29 L 601.07,5699.82 L 577.01,5689.1 L 555.702,5673.62 L 538.078,5654.05 L 524.908,5631.24 L 516.77,5606.19 L 514.016,5580 L 516.77,5553.81 L 524.908,5528.76 L 538.078,5505.95 L 555.702,5486.38 L 577.008,5470.9 L 601.07,5460.18 L 626.832,5454.71 L 653.168,5454.71 L 678.93,5460.18 L 702.99,5470.9 L 724.298,5486.38 L 741.922,5505.95 L 755.092,5528.76 L 763.23,5553.81 L 765.984,5580 z " style="fill-opacity:1.000000;fill:rgb(119,250,203);stroke:rgb(0,0,0);stroke-width:2"/></g>
<g fill-rule="evenodd"><path d="M 7065.98,5580 L 7063.23,5606.19 L 7055.09,5631.24 L 7041.92,5654.05 L 7024.3,5673.62 L 7002.99,5689.1 L 6978.93,5699.82 L 6953.17,5705.29 L 6926.83,5705.29 L 6901.07,5699.82 L 6877.01,5689.1 L 6855.7,5673.62 L 6838.08,5654.05 L 6824.91,5631.24 L 6816.77,5606.19 L 6814.02,5580 L 6816.77,5553.81 L 6824.91,5528.76 L 6838.08,5505.95 L 6855.7,5486.38 L 6877.01,5470.9 L 6901.07,5460.18 L 6926.83,5454.71 L 6953.17,5454.71 L 6978.93,5460.18 L 7002.99,5470.9 L 7024.3,5486.38 L 7041.92,5505.95 L 7055.09,5528.76 L 7063.23,5553.81 L 7065.98,5580 z " style="fill-opacity:1.000000;fill:rgb(108,5,172);stroke:rgb(0,0,0);stroke-width:2"/></g>
<g fill-rule="evenodd"><path d="M 6200,1890 L 6198.69,1902.48 L 6194.81,1914.41 L 6188.54,1925.27 L 6180.15,1934.59 L 6170,1941.96 L 6158.54,1947.06 L 6146.27,1949.67 L 6133.73,1949.67 L 6121.46,1947.06 L 6110,1941.96 L 6099.85,1934.59 L 6091.46,1925.27 L 6085.19,1914.41 L 6081.31,1902.48 L 6080,1890 L 6081.31,1877.53 L 6085.19,1865.6 L 6091.46,1854.74 L 6099.85,1845.41 L 6110,1838.04 L 6121.46,1832.94 L 6133.73,1830.33 L 6146.27,1830.33 L 6158.54,1832.94 L 6170,1838.04 L 6180.15,1845.41 L 6188.54,1854.74 L 6194.81,1865.6 L 6198.69,1877.53 L 6200,1890 z " style="fill-opacity:1.000000;fill:rgb(134,33,43);stroke:rgb(0,0,0);stroke-width:2"/></g>
<g fill-rule="evenodd"><path d="M 6400,1890 L 6398.69,1902.48 L 6394.81,1914.41 L 6388.54,1925.27 L 6380.15,1934.59 L 6370,1941.96 L 6358.54,1947.06 L 6346.27,1949.67 L 6333.73,1949.67 L 6321.46,1947.06 L 6310,1941.96 L 6299.85,1934.59 L 6291.46,1925.27 L 6285.19,1914.41 L 6281.31,1902.48 L 6280,1890 L 6281.31,1877.53 L 6285.19,1865.6 L 6291.46,1854.74 L 6299.85,1845.41 L 6310,1838.04 L 6321.46,1832.94 L 6333.73,1830.33 L 6346.27,1830.33 L 6358.54,1832.94 L 6370,1838.04 L 6380.15,1845.41 L 6388.54,1854.74 L 6394.81,1865.6 L 6398.69,1877.53 L 6400,1890 z " style="fill-opacity:1.000000;fill:rgb(170,26,85);stroke:rgb(0,0,0);stroke-width:2"/></g>
<g fill-rule="evenodd"><path d="M 7000,1890 L 6998.69,1902.48 L 6994.81,1914.41 L 6988.54,1925.27 L 6980.15,1934.59 L 6970,1941.96 L 6958.54,1947.06 L 6946.27,1949.67 L 6933.73,1949.67 L 6921.46,1947.06 L 6910,1941.96 L 6899.85,1934.59 L 6891.46,1925.27 L 6885.19,1914.41 L 6881.31,1902.48 L 6880,1890 L 6881.31,1877.53 L 6885.19,1865.6 L 6891.46,1854.74 L 6899.85,1845.41 L 6910,1838.04 L 6921.46,1832.94 L 6933.73,1830.33 L 6946.27,1830.33 L 6958.54,1832.94 L 6970,1838.04 L 6980.15,1845.41 L 6988.54,1854.74 L 6994.81,1865.6 L 6998.69,1877.53 L 7000,1890 z " style="fill-opacity:1.000000;fill:rgb(162,190,112);stroke:rgb(0,0,0);stroke-width:2"/></g>
<g fill-rule="evenodd"><path d="M 7000,1490 L 6998.69,1502.47 L 6994.81,1514.4 L 6988.54,1525.27 L 6980.15,1534.59 L 6970,1541.96 L 6958.54,1547.06 L 6946.27,1549.67 L 6933.73,1549.67 L 6921.46,1547.06 L 6910,1541.96 L 6899.85,1534.59 L 6891.46,1525.27 L 6885.19,1514.4 L 6881.31,1502.47 L 6880,1490 L 6881.31,1477.53 L 6885.19,1465.6 L 6891.46,1454.73 L 6899.85,1445.41 L 6910,1438.04 L 6921.46,1432.94 L 6933.73,1430.33 L 6946.27,1430.33 L 6958.54,1432.94 L 6970,1438.04 L 6980.15,1445.41 L 6988.54,1454.73 L 6994.81,1465.6 L 6998.69,1477.53 L 7000,1490 z " style="fill-opacity:1.000000;fill:rgb(181,115,59);stroke:rgb(0,0,0);stroke-width:2"/></g>
<g fill-rule="evenodd"><path d="M 6400,1490 L 6398.69,1502.47 L 6394.81,1514.4 L 6388.54,1525.27 L 6380.15,1534.59 L 6370,1541.96 L 6358.54,1547.06 L 6346.27,1549.67 L 6333.73,1549.67 L 6321.46,1547.06 L 6310,1541.96 L 6299.85,1534.59 L 6291.46,1525.27 L 6285.19,1514.4 L 6281.31,1502.47 L 6280,1490 L 6281.31,1477.53 L 6285.19,1465.6 L 6291.46,1454.73 L 6299.85,1445.41 L 6310,1438.04 L 6321.46,1432.94 L 6333.73,1430.33 L 6346.27,1430.33 L 6358.54,1432.94 L 6370,1438.04 L 6380.15,1445.41 L 6388.54,1454.73 L 6394.81,1465.6 L 6398.69,1477.53 L 6400,1490 z " style="fill-opacity:1.000000;fill:rgb(4,92,211);stroke:rgb(0,0,0);stroke-width:2"/></g>
<g fill-rule="evenodd"><path d="M 6200,1490 L 6198.69,1502.47 L 6194.81,1514.4 L 6188.54,1525.27 L 6180.15,1534.59 L 6170,1541.96 L 6158.54,1547.06 L 6146.27,1549.67 L 6133.73,1549.67 L 6121.46,1547.06 L 6110,1541.96 L 6099.85,1534.59 L 6091.46,1525.27 L 6085.19,1514.4 L 6081.31,1502.47 L 6080,1490 L 6081.31,1477.53 L 6085.19,1465.6 L 6091.46,1454.73 L 6099.85,1445.41 L 6110,1438.04 L 6121.46,1432.94 L 6133.73,1430.33 L 6146.27,1430.33 L 6158.54,1432.94 L 6170,1438.04 L 6180.15,1445.41 L 6188.54,1454.73 L 6194.81,1465.6 L 6198.69,1477.53 L 6200,1490 z " style="fill-opacity:1.000000;fill:rgb(54,148,179);stroke:rgb(0,0,0);stroke-width:2"/></g>
<g fill-rule="evenodd"><path d="M 7233.07,736.928 L 7233.07,603.072 L 7366.93,603.072 L 7366.93,736.928 L 7233.07,736.928 z " style="fill-opacity:1.000000;fill:rgb(175,226,240);stroke:rgb(0,0,0);stroke-width:2"/></g>
<g fill-rule="evenodd"><path d="M 7300,936.928 L 7286.53,935.556 L 7273.61,931.504 L 7261.77,924.932 L 7251.49,916.11 L 7243.2,905.402 L 7237.24,893.244 L 7233.84,880.134 L 7233.16,866.612 L 7235.21,853.226 L 7239.91,840.526 L 7247.08,829.034 L 7256.41,819.218 L 7267.52,811.482 L 7279.97,806.142 L 7293.23,803.416 L 7300,803.072 L 7313.47,804.444 L 7326.39,808.496 L 7338.23,815.068 L 7348.51,823.89 L 7356.8,834.598 L 7362.76,846.756 L 7366.16,859.866 L 7366.84,873.388 L 7364.79,886.774 L 7360.09,899.474 L 7352.92,910.966 L 7343.59,920.782 L 7332.48,928.518 L 7320.03,933.858 L 7306.77,936.584 L 7300,936.928 z " style="fill-opacity:1.000000;fill:rgb(228,158,79);stroke:rgb(0,0,0);stroke-width:2"/></g>
<g fill-rule="evenodd"><path d="M 7300,1136.93 L 7286.53,1135.56 L 7273.61,1131.5 L 7261.77,1124.93 L 7251.49,1116.11 L 7243.2,1105.4 L 7237.24,1093.24 L 7233.84,1080.13 L 7233.16,1066.61 L 7235.21,1053.23 L 7239.91,1040.53 L 7247.08,1029.03 L 7256.41,1019.22 L 7267.52,1011.48 L 7279.97,1006.14 L 7293.23,1003.42 L 7300,1003.07 L 7313.47,1004.44 L 7326.39,1008.5 L 7338.23,1015.07 L 7348.51,1023.89 L 7356.8,1034.6 L 7362.76,1046.76 L 7366.16,1059.87 L 7366.84,1073.39 L 7364.79,1086.77 L 7360.09,1099.47 L 7352.92,1110.97 L 7343.59,1120.78 L 7332.48,1128.52 L 7320.03,1133.86 L 7306.77,1136.58 L 7300,1136.93 z " style="fill-opacity:1.000000;fill:rgb(50,21,73);stroke:rgb(0,0,0);stroke-width:2"/></g>
<g fill-rule="evenodd"><path d="M 7233.07,3456.93 L 7233.07,3323.07 L 7366.93,3323.07 L 7366.93,3456.93 L 7233.07,3456.93 z " style="fill-opacity:1.000000;fill:rgb(253,130,78);stroke:rgb(0,0,0);stroke-width:2"/></g>
<g fill-rule="evenodd"><path d="M 7300,3656.93 L 7286.53,3655.56 L 7273.61,3651.5 L 7261.77,3644.93 L 7251.49,3636.11 L 7243.2,3625.4 L 7237.24,3613.24 L 7233.84,3600.13 L 7233.16,3586.61 L 7235.21,3573.23 L 7239.91,3560.53 L 7247.08,3549.03 L 7256.41,3539.22 L 7267.52,3531.48 L 7279.97,3526.14 L 7293.23,3523.42 L 7300,3523.07 L 7313.47,3524.44 L 7326.39,3528.5 L 7338.23,3535.07 L 7348.51,3543.89 L 7356.8,3554.6 L 7362.76,3566.76 L 7366.16,3579.87 L 7366.84,3593.39 L 7364.79,3606.77 L 7360.09,3619.47 L 7352.92,3630.97 L 7343.59,3640.78 L 7332.48,3648.52 L 7320.03,3653.86 L 7306.77,3656.58 L 7300,3656.93 z " style="fill-opacity:1.000000;fill:rgb(169,8,112);stroke:rgb(0,0,0);stroke-width:2"/></g>
<g fill-rule="evenodd"><path d="M 7233.07,2816.93 L 7233.07,2683.07 L 7366.93,2683.07 L 7366.93,2816.93 L 7233.07,2816.93 z " style="fill-opacity:1.000000;fill:rgb(212,178,138);stroke:rgb(0,0,0);stroke-width:2"/></g>
<g fill-rule="evenodd"><path d="M 7300,3016.93 L 7286.53,3015.56 L 7273.61,3011.5 L 7261.77,3004.93 L 7251.49,2996.11 L 7243.2,2985.4 L 7237.24,2973.24 L 7233.84,2960.13 L 7233.16,2946.61 L 7235.21,2933.23 L 7239.91,2920.53 L 7247.08,2909.03 L 7256.41,2899.22 L 7267.52,2891.48 L 7279.97,2886.14 L 7293.23,2883.42 L 7300,2883.07 L 7313.47,2884.44 L 7326.39,2888.5 L 7338.23,2895.07 L 7348.51,2903.89 L 7356.8,2914.6 L 7362.76,2926.76 L 7366.16,2939.87 L 7366.84,2953.39 L 7364.79,2966.77 L 7360.09,2979.47 L 7352.92,2990.97 L 7343.59,3000.78 L 7332.48,3008.52 L 7320.03,3013.86 L 7306.77,3016.58 L 7300,3016.93 z " style="fill-opacity:1.000000;fill:rgb(41,84,72);stroke:rgb(0,0,0);stroke-width:2"/></g>
<g fill-rule="evenodd"><path d="M 293.072,1016.93 L 293.072,883.072 L 426.928,883.072 L 426.928,1016.93 L 293.072,1016.93 z " style="fill-opacity:1.000000;fill:rgb(154,10,188);stroke:rgb(0,0,0);stroke-width:2"/></g>
<g fill-rule="evenodd"><path d="M 360,816.928 L 346.528,815.556 L 333.608,811.504 L 321.768,804.932 L 311.492,796.11 L 303.202,785.402 L 297.24,773.244 L 293.844,760.134 L 293.158,746.612 L 295.21,733.226 L 299.912,720.526 L 307.076,709.034 L 316.406,699.218 L 327.52,691.482 L 339.966,686.142 L 353.23,683.416 L 360,683.072 L 373.472,684.444 L 386.392,688.496 L 398.232,695.068 L 408.508,703.89 L 416.798,714.598 L 422.76,726.756 L 426.156,739.866 L 426.842,753.388 L 424.79,766.774 L 420.088,779.474 L 412.924,790.966 L 403.594,800.782 L 392.48,808.518 L 380.034,813.858 L 366.77,816.584 L 360,816.928 z " style="fill-opacity:1.000000;fill:rgb(213,14,24);stroke:rgb(0,0,0);stroke-width:2"/></g>
<g fill-rule="evenodd"><path d="M 293.072,1436.93 L 293.072,1303.07 L 426.928,1303.07 L 426.928,1436.93 L 293.072,1436.93 z " style="fill-opacity:1.000000;fill:rgb(168,68,172);stroke:rgb(0,0,0);stroke-width:2"/></g>
<g fill-rule="evenodd"><path d="M 360,1636.93 L 346.528,1635.56 L 333.608,1631.5 L 321.768,1624.93 L 311.492,1616.11 L 303.202,1605.4 L 297.24,1593.24 L 293.844,1580.13 L 293.158,1566.61 L 295.21,1553.23 L 299.912,1540.53 L 307.076,1529.03 L 316.406,1519.22 L 327.52,1511.48 L 339.966,1506.14 L 353.23,1503.42 L 360,1503.07 L 373.472,1504.44 L 386.392,1508.5 L 398.232,1515.07 L 408.508,1523.89 L 416.798,1534.6 L 422.76,1546.76 L 426.156,1559.87 L 426.842,1573.39 L 424.79,1586.77 L 420.088,1599.47 L 412.924,1610.97 L 403.594,1620.78 L 392.48,1628.52 L 380.034,1633.86 L 366.77,1636.58 L 360,1636.93 z " style="fill-opacity:1.000000;fill:rgb(91,243,142);stroke:rgb(0,0,0);stroke-width:2"/></g>
<g fill-rule="evenodd"><path d="M 360,1836.93 L 346.528,1835.56 L 333.608,1831.51 L 321.768,1824.93 L 311.492,1816.11 L 303.202,1805.4 L 297.24,1793.25 L 293.844,1780.14 L 293.158,1766.61 L 295.21,1753.23 L 299.912,1740.53 L 307.076,1729.04 L 316.406,1719.22 L 327.52,1711.48 L 339.966,1706.14 L 353.23,1703.42 L 360,1703.07 L 373.472,1704.45 L 386.392,1708.5 L 398.232,1715.07 L 408.508,1723.89 L 416.798,1734.6 L 422.76,1746.76 L 426.156,1759.87 L 426.842,1773.39 L 424.79,1786.78 L 420.088,1799.48 L 412.924,1810.97 L 403.594,1820.78 L 392.48,1828.52 L 380.034,1833.86 L 366.77,1836.59 L 360,1836.93 z " style="fill-opacity:1.000000;fill:rgb(76,215,45);stroke:rgb(0,0,0);stroke-width:2"/></g>
<g fill-rule="evenodd"><path d="M 360,2036.93 L 346.528,2035.56 L 333.608,2031.5 L 321.768,2024.93 L 311.492,2016.11 L 303.202,2005.4 L 297.24,1993.24 L 293.844,1980.13 L 293.158,1966.61 L 295.21,1953.23 L 299.912,1940.53 L 307.076,1929.03 L 316.406,1919.22 L 327.52,1911.48 L 339.966,1906.14 L 353.23,1903.42 L 360,1903.07 L 373.472,1904.44 L 386.392,1908.5 L 398.232,1915.07 L 408.508,1923.89 L 416.798,1934.6 L 422.76,1946.76 L 426.156,1959.87 L 426.842,1973.39 L 424.79,1986.77 L 420.088,1999.47 L 412.924,2010.97 L 403.594,2020.78 L 392.48,2028.52 L 380.034,2033.86 L 366.77,2036.58 L 360,2036.93 z " style="fill-opacity:1.000000;fill:rgb(155,9,66);stroke:rgb(0,0,0);stroke-width:2"/></g>
<g fill-rule="evenodd"><path d="M 1797.01,1312.99 L 1797.01,1187.01 L 1922.99,1187.01 L 1922.99,1312.99 L 1797.01,1312.99 z " style="fill-opacity:1.000000;fill:rgb(229,6,196);stroke:rgb(0,0,0);stroke-width:2"/></g>
<g fill-rule="evenodd"><path d="M 1922.99,1446.85 L 1921.61,1459.95 L 1917.55,1472.47 L 1910.96,1483.88 L 1902.15,1493.66 L 1891.5,1501.4 L 1879.46,1506.76 L 1866.58,1509.5 L 1853.42,1509.5 L 1840.54,1506.76 L 1828.51,1501.4 L 1817.85,1493.66 L 1809.04,1483.88 L 1802.45,1472.47 L 1798.39,1459.95 L 1797.01,1446.85 L 1798.39,1433.76 L 1802.45,1421.23 L 1809.04,1409.83 L 1817.85,1400.04 L 1828.5,1392.3 L 1840.54,1386.94 L 1853.42,1384.21 L 1866.58,1384.21 L 1879.46,1386.94 L 1891.49,1392.3 L 1902.15,1400.04 L 1910.96,1409.83 L 1917.55,1421.23 L 1921.61,1433.76 L 1922.99,1446.85 z " style="fill-opacity:1.000000;fill:rgb(51,175,205);stroke:rgb(0,0,0);stroke-width:2"/></g>
<g fill-rule="evenodd"><path d="M 3042.99,1650 L 3041.61,1663.1 L 3037.55,1675.62 L 3030.96,1687.02 L 3022.15,1696.81 L 3011.5,1704.55 L 2999.46,1709.91 L 2986.58,1712.65 L 2973.42,1712.65 L 2960.54,1709.91 L 2948.51,1704.55 L 2937.85,1696.81 L 2929.04,1687.02 L 2922.45,1675.62 L 2918.39,1663.1 L 2917.01,1650 L 2918.39,1636.9 L 2922.45,1624.38 L 2929.04,1612.98 L 2937.85,1603.19 L 2948.5,1595.45 L 2960.54,1590.09 L 2973.42,1587.35 L 2986.58,1587.35 L 2999.46,1590.09 L 3011.49,1595.45 L 3022.15,1603.19 L 3030.96,1612.98 L 3037.55,1624.38 L 3041.61,1636.9 L 3042.99,1650 z " style="fill-opacity:1.000000;fill:rgb(163,132,127);stroke:rgb(0,0,0);stroke-width:2"/></g>
<g fill-rule="evenodd"><path d="M 3042.99,1256.3 L 3041.61,1269.4 L 3037.55,1281.92 L 3030.96,1293.32 L 3022.15,1303.11 L 3011.5,1310.85 L 2999.46,1316.21 L 2986.58,1318.95 L 2973.42,1318.95 L 2960.54,1316.21 L 2948.51,1310.85 L 2937.85,1303.11 L 2929.04,1293.32 L 2922.45,1281.92 L 2918.39,1269.4 L 2917.01,1256.3 L 2918.39,1243.2 L 2922.45,1230.68 L 2929.04,1219.28 L 2937.85,1209.49 L 2948.5,1201.75 L 2960.54,1196.39 L 2973.42,1193.65 L 2986.58,1193.65 L 2999.46,1196.39 L 3011.49,1201.75 L 3022.15,1209.49 L 3030.96,1219.28 L 3037.55,1230.68 L 3041.61,1243.2 L 3042.99,1256.3 z " style="fill-opacity:1.000000;fill:rgb(45,173,212);stroke:rgb(0,0,0);stroke-width:2"/></g>
<g fill-rule="evenodd"><path d="M 5613.39,2056.61 L 5613.39,1883.39 L 5786.61,1883.39 L 5786.61,2056.61 L 5613.39,2056.61 z " style="fill-opacity:1.000000;fill:rgb(118,71,222);stroke:rgb(0,0,0);stroke-width:2"/></g>
<g fill-rule="evenodd"><path d="M 5700,1456.61 L 5682.57,1454.84 L 5665.84,1449.59 L 5650.52,1441.09 L 5637.22,1429.67 L 5626.5,1415.81 L 5618.78,1400.08 L 5614.39,1383.11 L 5613.5,1365.61 L 5616.15,1348.29 L 5622.24,1331.86 L 5631.51,1316.98 L 5643.58,1304.28 L 5657.97,1294.27 L 5674.07,1287.36 L 5691.24,1283.83 L 5700,1283.39 L 5717.43,1285.16 L 5734.16,1290.41 L 5749.48,1298.91 L 5762.78,1310.33 L 5773.5,1324.19 L 5781.22,1339.92 L 5785.61,1356.89 L 5786.5,1374.39 L 5783.85,1391.71 L 5777.76,1408.14 L 5768.49,1423.02 L 5756.42,1435.72 L 5742.03,1445.73 L 5725.93,1452.64 L 5708.76,1456.17 L 5700,1456.61 z " style="fill-opacity:1.000000;fill:rgb(50,28,236);stroke:rgb(0,0,0);stroke-width:2"/></g>
<g fill-rule="evenodd"><path d="M 7233.07,2176.93 L 7233.07,2043.07 L 7366.93,2043.07 L 7366.93,2176.93 L 7233.07,2176.93 z " style="fill-opacity:1.000000;fill:rgb(74,196,48);stroke:rgb(0,0,0);stroke-width:2"/></g>
<g fill-rule="evenodd"><path d="M 7300,2376.93 L 7286.53,2375.56 L 7273.61,2371.5 L 7261.77,2364.93 L 7251.49,2356.11 L 7243.2,2345.4 L 7237.24,2333.24 L 7233.84,2320.13 L 7233.16,2306.61 L 7235.21,2293.23 L 7239.91,2280.53 L 7247.08,2269.03 L 7256.41,2259.22 L 7267.52,2251.48 L 7279.97,2246.14 L 7293.23,2243.42 L 7300,2243.07 L 7313.47,2244.44 L 7326.39,2248.5 L 7338.23,2255.07 L 7348.51,2263.89 L 7356.8,2274.6 L 7362.76,2286.76 L 7366.16,2299.87 L 7366.84,2313.39 L 7364.79,2326.77 L 7360.09,2339.47 L 7352.92,2350.97 L 7343.59,2360.78 L 7332.48,2368.52 L 7320.03,2373.86 L 7306.77,2376.58 L 7300,2376.93 z " style="fill-opacity:1.000000;fill:rgb(246,32,35);stroke:rgb(0,0,0);stroke-width:2"/></g>
<g fill-rule="evenodd"><path d="M 7233.07,1536.93 L 7233.07,1403.07 L 7366.93,1403.07 L 7366.93,1536.93 L 7233.07,1536.93 z " style="fill-opacity:1.000000;fill:rgb(133,108,251);stroke:rgb(0,0,0);stroke-width:2"/></g>
<g fill-rule="evenodd"><path d="M 7300,1736.93 L 7286.53,1735.56 L 7273.61,1731.5 L 7261.77,1724.93 L 7251.49,1716.11 L 7243.2,1705.4 L 7237.24,1693.24 L 7233.84,1680.13 L 7233.16,1666.61 L 7235.21,1653.23 L 7239.91,1640.53 L 7247.08,1629.03 L 7256.41,1619.22 L 7267.52,1611.48 L 7279.97,1606.14 L 7293.23,1603.42 L 7300,1603.07 L 7313.47,1604.44 L 7326.39,1608.5 L 7338.23,1615.07 L 7348.51,1623.89 L 7356.8,1634.6 L 7362.76,1646.76 L 7366.16,1659.87 L 7366.84,1673.39 L 7364.79,1686.77 L 7360.09,1699.47 L 7352.92,1710.97 L 7343.59,1720.78 L 7332.48,1728.52 L 7320.03,1733.86 L 7306.77,1736.58 L 7300,1736.93 z " style="fill-opacity:1.000000;fill:rgb(178,7,4);stroke:rgb(0,0,0);stroke-width:2"/></g>
<g fill-rule="evenodd"><path d="M 7233.07,4176.93 L 7233.07,4043.07 L 7366.93,4043.07 L 7366.93,4176.93 L 7233.07,4176.93 z " style="fill-opacity:1.000000;fill:rgb(244,236,11);stroke:rgb(0,0,0);stroke-width:2"/></g>
<g fill-rule="evenodd"><path d="M 7300,4376.93 L 7286.53,4375.56 L 7273.61,4371.5 L 7261.77,4364.93 L 7251.49,4356.11 L 7243.2,4345.4 L 7237.24,4333.24 L 7233.84,4320.13 L 7233.16,4306.61 L 7235.21,4293.23 L 7239.91,4280.53 L 7247.08,4269.03 L 7256.41,4259.22 L 7267.52,4251.48 L 7279.97,4246.14 L 7293.23,4243.42 L 7300,4243.07 L 7313.47,4244.44 L 7326.39,4248.5 L 7338.23,4255.07 L 7348.51,4263.89 L 7356.8,4274.6 L 7362.76,4286.76 L 7366.16,4299.87 L 7366.84,4313.39 L 7364.79,4326.77 L 7360.09,4339.47 L 7352.92,4350.97 L 7343.59,4360.78 L 7332.48,4368.52 L 7320.03,4373.86 L 7306.77,4376.58 L 7300,4376.93 z " style="fill-opacity:1.000000;fill:rgb(185,32,186);stroke:rgb(0,0,0);stroke-width:2"/></g>
<g fill-rule="evenodd"><path d="M 7233.07,4776.93 L 7233.07,4643.07 L 7366.93,4643.07 L 7366.93,4776.93 L 7233.07,4776.93 z " style="fill-opacity:1.000000;fill:rgb(134,195,62);stroke:rgb(0,0,0);stroke-width:2"/></g>
<g fill-rule="evenodd"><path d="M 7300,4976.93 L 7286.53,4975.56 L 7273.61,4971.5 L 7261.77,4964.93 L 7251.49,4956.11 L 7243.2,4945.4 L 7237.24,4933.24 L 7233.84,4920.13 L 7233.16,4906.61 L 7235.21,4893.23 L 7239.91,4880.53 L 7247.08,4869.03 L 7256.41,4859.22 L 7267.52,4851.48 L 7279.97,4846.14 L 7293.23,4843.42 L 7300,4843.07 L 7313.47,4844.44 L 7326.39,4848.5 L 7338.23,4855.07 L 7348.51,4863.89 L 7356.8,4874.6 L 7362.76,4886.76 L 7366.16,4899.87 L 7366.84,4913.39 L 7364.79,4926.77 L 7360.09,4939.47 L 7352.92,4950.97 L 7343.59,4960.78 L 7332.48,4968.52 L 7320.03,4973.86 L 7306.77,4976.58 L 7300,4976.93 z " style="fill-opacity:1.000000;fill:rgb(5,241,236);stroke:rgb(0,0,0);stroke-width:2"/></g>
<g fill-rule="evenodd"><path d="M 5299.84,1410 L 5298.53,1422.44 L 5294.67,1434.34 L 5288.41,1445.17 L 5280.04,1454.47 L 5269.92,1461.82 L 5258.49,1466.91 L 5246.25,1469.51 L 5233.75,1469.51 L 5221.51,1466.91 L 5210.08,1461.82 L 5199.96,1454.47 L 5191.59,1445.17 L 5185.33,1434.34 L 5181.47,1422.44 L 5180.16,1410 L 5181.47,1397.56 L 5185.33,1385.66 L 5191.59,1374.83 L 5199.96,1365.53 L 5210.08,1358.18 L 5221.51,1353.09 L 5233.75,1350.49 L 5246.25,1350.49 L 5258.49,1353.09 L 5269.92,1358.18 L 5280.04,1365.53 L 5288.41,1374.83 L 5294.67,1385.66 L 5298.53,1397.56 L 5299.84,1410 z " style="fill-opacity:1.000000;fill:rgb(217,103,51);stroke:rgb(0,0,0);stroke-width:2"/></g>
<g fill-rule="evenodd"><path d="M 5299.84,1210 L 5298.53,1222.44 L 5294.67,1234.34 L 5288.41,1245.17 L 5280.04,1254.47 L 5269.92,1261.82 L 5258.49,1266.91 L 5246.25,1269.51 L 5233.75,1269.51 L 5221.51,1266.91 L 5210.08,1261.82 L 5199.96,1254.47 L 5191.59,1245.17 L 5185.33,1234.34 L 5181.47,1222.44 L 5180.16,1210 L 5181.47,1197.56 L 5185.33,1185.66 L 5191.59,1174.83 L 5199.96,1165.53 L 5210.08,1158.18 L 5221.51,1153.09 L 5233.75,1150.49 L 5246.25,1150.49 L 5258.49,1153.09 L 5269.92,1158.18 L 5280.04,1165.53 L 5288.41,1174.83 L 5294.67,1185.66 L 5298.53,1197.56 L 5299.84,1210 z " style="fill-opacity:1.000000;fill:rgb(183,153,80);stroke:rgb(0,0,0);stroke-width:2"/></g>
<g fill-rule="evenodd"><path d="M 5180.16,1669.84 L 5180.16,1550.16 L 5299.84,1550.16 L 5299.84,1669.84 L 5180.16,1669.84 z " style="fill-opacity:1.000000;fill:rgb(163,227,20);stroke:rgb(0,0,0);stroke-width:2"/></g>
<g fill-rule="evenodd"><path d="M 2460.7,1509.1 L 2448.8,1507.89 L 2437.39,1504.31 L 2426.94,1498.51 L 2417.87,1490.72 L 2410.55,1481.26 L 2405.28,1470.52 L 2402.28,1458.95 L 2401.68,1447.01 L 2403.49,1435.19 L 2407.64,1423.97 L 2413.97,1413.83 L 2422.2,1405.16 L 2432.02,1398.33 L 2443.01,1393.61 L 2454.72,1391.2 L 2539.3,1390.9 L 2551.2,1392.11 L 2562.61,1395.69 L 2573.06,1401.49 L 2582.13,1409.28 L 2589.45,1418.74 L 2594.72,1429.48 L 2597.72,1441.05 L 2598.32,1452.99 L 2596.51,1464.81 L 2592.36,1476.03 L 2586.03,1486.17 L 2577.8,1494.84 L 2567.98,1501.67 L 2556.99,1506.39 L 2545.28,1508.8 L 2460.7,1509.1 z " style="fill-opacity:1.000000;fill:rgb(211,217,52);stroke:rgb(0,0,0);stroke-width:2"/></g>
<g fill-rule="evenodd"><path d="M 2460.7,1309.1 L 2448.8,1307.89 L 2437.39,1304.31 L 2426.94,1298.51 L 2417.87,1290.72 L 2410.55,1281.26 L 2405.28,1270.52 L 2402.28,1258.95 L 2401.68,1247.01 L 2403.49,1235.19 L 2407.64,1223.97 L 2413.97,1213.83 L 2422.2,1205.16 L 2432.02,1198.33 L 2443.01,1193.61 L 2454.72,1191.2 L 2539.3,1190.9 L 2551.2,1192.11 L 2562.61,1195.69 L 2573.06,1201.49 L 2582.13,1209.28 L 2589.45,1218.74 L 2594.72,1229.48 L 2597.72,1241.05 L 2598.32,1252.99 L 2596.51,1264.81 L 2592.36,1276.03 L 2586.03,1286.17 L 2577.8,1294.84 L 2567.98,1301.67 L 2556.99,1306.39 L 2545.28,1308.8 L 2460.7,1309.1 z " style="fill-opacity:1.000000;fill:rgb(247,94,160);stroke:rgb(0,0,0);stroke-width:2"/></g>
<g fill-rule="evenodd"><path d="M 2460.7,1709.1 L 2448.8,1707.89 L 2437.39,1704.31 L 2426.94,1698.51 L 2417.87,1690.72 L 2410.55,1681.26 L 2405.28,1670.52 L 2402.28,1658.95 L 2401.68,1647.01 L 2403.49,1635.19 L 2407.64,1623.97 L 2413.97,1613.83 L 2422.2,1605.16 L 2432.02,1598.33 L 2443.01,1593.61 L 2454.72,1591.2 L 2539.3,1590.9 L 2551.2,1592.11 L 2562.61,1595.69 L 2573.06,1601.49 L 2582.13,1609.28 L 2589.45,1618.74 L 2594.72,1629.48 L 2597.72,1641.05 L 2598.32,1652.99 L 2596.51,1664.81 L 2592.36,1676.03 L 2586.03,1686.17 L 2577.8,1694.84 L 2567.98,1701.67 L 2556.99,1706.39 L 2545.28,1708.8 L 2460.7,1709.1 z " style="fill-opacity:1.000000;fill:rgb(242,16,168);stroke:rgb(0,0,0);stroke-width:2"/></g>
<g fill-rule="evenodd"><path d="M 3857.01,1072.99 L 3857.01,947.008 L 3982.99,947.008 L 3982.99,1072.99 L 3857.01,1072.99 z " style="fill-opacity:1.000000;fill:rgb(246,5,148);stroke:rgb(0,0,0);stroke-width:2"/></g>
<g fill-rule="evenodd"><path d="M 4720,472.992 L 4707.32,471.702 L 4695.16,467.886 L 4684.02,461.7 L 4674.34,453.398 L 4666.54,443.32 L 4660.93,431.876 L 4657.74,419.538 L 4657.09,406.81 L 4659.02,394.212 L 4663.45,382.26 L 4670.19,371.444 L 4678.97,362.206 L 4689.43,354.924 L 4701.14,349.898 L 4713.63,347.332 L 4720,347.008 L 4732.68,348.298 L 4744.84,352.114 L 4755.98,358.3 L 4765.66,366.602 L 4773.46,376.68 L 4779.07,388.124 L 4782.26,400.462 L 4782.91,413.19 L 4780.98,425.788 L 4776.55,437.74 L 4769.81,448.556 L 4761.03,457.794 L 4750.57,465.076 L 4738.86,470.102 L 4726.37,472.668 L 4720,472.992 z " style="fill-opacity:1.000000;fill:rgb(1,190,180);stroke:rgb(0,0,0);stroke-width:2"/></g>
<g fill-rule="evenodd"><path d="M 4120,1072.99 L 4107.32,1071.7 L 4095.16,1067.89 L 4084.02,1061.7 L 4074.34,1053.4 L 4066.54,1043.32 L 4060.93,1031.88 L 4057.74,1019.54 L 4057.09,1006.81 L 4059.02,994.212 L 4063.45,982.26 L 4070.19,971.444 L 4078.97,962.206 L 4089.43,954.924 L 4101.14,949.898 L 4113.63,947.332 L 4120,947.008 L 4132.68,948.298 L 4144.84,952.114 L 4155.98,958.3 L 4165.66,966.602 L 4173.46,976.68 L 4179.07,988.124 L 4182.26,1000.46 L 4182.91,1013.19 L 4180.98,1025.79 L 4176.55,1037.74 L 4169.81,1048.56 L 4161.03,1057.79 L 4150.57,1065.08 L 4138.86,1070.1 L 4126.37,1072.67 L 4120,1072.99 z " style="fill-opacity:1.000000;fill:rgb(188,68,120);stroke:rgb(0,0,0);stroke-width:2"/></g>
<g fill-rule="evenodd"><path d="M 4520,472.992 L 4507.32,471.702 L 4495.16,467.886 L 4484.02,461.7 L 4474.34,453.398 L 4466.54,443.32 L 4460.93,431.876 L 4457.74,419.538 L 4457.09,406.81 L 4459.02,394.212 L 4463.45,382.26 L 4470.19,371.444 L 4478.97,362.206 L 4489.43,354.924 L 4501.14,349.898 L 4513.63,347.332 L 4520,347.008 L 4532.68,348.298 L 4544.84,352.114 L 4555.98,358.3 L 4565.66,366.602 L 4573.46,376.68 L 4579.07,388.124 L 4582.26,400.462 L 4582.91,413.19 L 4580.98,425.788 L 4576.55,437.74 L 4569.81,448.556 L 4561.03,457.794 L 4550.57,465.076 L 4538.86,470.102 L 4526.37,472.668 L 4520,472.992 z " style="fill-opacity:1.000000;fill:rgb(250,73,105);stroke:rgb(0,0,0);stroke-width:2"/></g>
<g fill-rule="evenodd"><path d="M 4320,1072.99 L 4307.32,1071.7 L 4295.16,1067.89 L 4284.02,1061.7 L 4274.34,1053.4 L 4266.54,1043.32 L 4260.93,1031.88 L 4257.74,1019.54 L 4257.09,1006.81 L 4259.02,994.212 L 4263.45,982.26 L 4270.19,971.444 L 4278.97,962.206 L 4289.43,954.924 L 4301.14,949.898 L 4313.63,947.332 L 4320,947.008 L 4332.68,948.298 L 4344.84,952.114 L 4355.98,958.3 L 4365.66,966.602 L 4373.46,976.68 L 4379.07,988.124 L 4382.26,1000.46 L 4382.91,1013.19 L 4380.98,1025.79 L 4376.55,1037.74 L 4369.81,1048.56 L 4361.03,1057.79 L 4350.57,1065.08 L 4338.86,1070.1 L 4326.37,1072.67 L 4320,1072.99 z " style="fill-opacity:1.000000;fill:rgb(230,35,208);stroke:rgb(0,0,0);stroke-width:2"/></g>
<g fill-rule="evenodd"><path d="M 4320,472.992 L 4307.32,471.702 L 4295.16,467.886 L 4284.02,461.7 L 4274.34,453.398 L 4266.54,443.32 L 4260.93,431.876 L 4257.74,419.538 L 4257.09,406.81 L 4259.02,394.212 L 4263.45,382.26 L 4270.19,371.444 L 4278.97,362.206 L 4289.43,354.924 L 4301.14,349.898 L 4313.63,347.332 L 4320,347.008 L 4332.68,348.298 L 4344.84,352.114 L 4355.98,358.3 L 4365.66,366.602 L 4373.46,376.68 L 4379.07,388.124 L 4382.26,400.462 L 4382.91,413.19 L 4380.98,425.788 L 4376.55,437.74 L 4369.81,448.556 L 4361.03,457.794 L 4350.57,465.076 L 4338.86,470.102 L 4326.37,472.668 L 4320,472.992 z " style="fill-opacity:1.000000;fill:rgb(26,218,105);stroke:rgb(0,0,0);stroke-width:2"/></g>
<g fill-rule="evenodd"><path d="M 4520,1072.99 L 4507.32,1071.7 L 4495.16,1067.89 L 4484.02,1061.7 L 4474.34,1053.4 L 4466.54,1043.32 L 4460.93,1031.88 L 4457.74,1019.54 L 4457.09,1006.81 L 4459.02,994.212 L 4463.45,982.26 L 4470.19,971.444 L 4478.97,962.206 L 4489.43,954.924 L 4501.14,949.898 L 4513.63,947.332 L 4520,947.008 L 4532.68,948.298 L 4544.84,952.114 L 4555.98,958.3 L 4565.66,966.602 L 4573.46,976.68 L 4579.07,988.124 L 4582.26,1000.46 L 4582.91,1013.19 L 4580.98,1025.79 L 4576.55,1037.74 L 4569.81,1048.56 L 4561.03,1057.79 L 4550.57,1065.08 L 4538.86,1070.1 L 4526.37,1072.67 L 4520,1072.99 z " style="fill-opacity:1.000000;fill:rgb(106,126,76);stroke:rgb(0,0,0);stroke-width:2"/></g>
<g fill-rule="evenodd"><path d="M 4120,472.992 L 4107.32,471.702 L 4095.16,467.886 L 4084.02,461.7 L 4074.34,453.398 L 4066.54,443.32 L 4060.93,431.876 L 4057.74,419.538 L 4057.09,406.81 L 4059.02,394.212 L 4063.45,382.26 L 4070.19,371.444 L 4078.97,362.206 L 4089.43,354.924 L 4101.14,349.898 L 4113.63,347.332 L 4120,347.008 L 4132.68,348.298 L 4144.84,352.114 L 4155.98,358.3 L 4165.66,366.602 L 4173.46,376.68 L 4179.07,388.124 L 4182.26,400.462 L 4182.91,413.19 L 4180.98,425.788 L 4176.55,437.74 L 4169.81,448.556 L 4161.03,457.794 L 4150.57,465.076 L 4138.86,470.102 L 4126.37,472.668 L 4120,472.992 z " style="fill-opacity:1.000000;fill:rgb(126,81,37);stroke:rgb(0,0,0);stroke-width:2"/></g>
<g fill-rule="evenodd"><path d="M 4720,1072.99 L 4707.32,1071.7 L 4695.16,1067.89 L 4684.02,1061.7 L 4674.34,1053.4 L 4666.54,1043.32 L 4660.93,1031.88 L 4657.74,1019.54 L 4657.09,1006.81 L 4659.02,994.212 L 4663.45,982.26 L 4670.19,971.444 L 4678.97,962.206 L 4689.43,954.924 L 4701.14,949.898 L 4713.63,947.332 L 4720,947.008 L 4732.68,948.298 L 4744.84,952.114 L 4755.98,958.3 L 4765.66,966.602 L 4773.46,976.68 L 4779.07,988.124 L 4782.26,1000.46 L 4782.91,1013.19 L 4780.98,1025.79 L 4776.55,1037.74 L 4769.81,1048.56 L 4761.03,1057.79 L 4750.57,1065.08 L 4738.86,1070.1 L 4726.37,1072.67 L 4720,1072.99 z " style="fill-opacity:1.000000;fill:rgb(179,72,132);stroke:rgb(0,0,0);stroke-width:2"/></g>
<g fill-rule="evenodd"><path d="M 3920,472.992 L 3907.32,471.702 L 3895.16,467.886 L 3884.02,461.7 L 3874.34,453.398 L 3866.54,443.32 L 3860.93,431.876 L 3857.74,419.538 L 3857.09,406.81 L 3859.02,394.212 L 3863.45,382.26 L 3870.19,371.444 L 3878.97,362.206 L 3889.43,354.924 L 3901.14,349.898 L 3913.63,347.332 L 3920,347.008 L 3932.68,348.298 L 3944.84,352.114 L 3955.98,358.3 L 3965.66,366.602 L 3973.46,376.68 L 3979.07,388.124 L 3982.26,400.462 L 3982.91,413.19 L 3980.98,425.788 L 3976.55,437.74 L 3969.81,448.556 L 3961.03,457.794 L 3950.57,465.076 L 3938.86,470.102 L 3926.37,472.668 L 3920,472.992 z " style="fill-opacity:1.000000;fill:rgb(83,58,148);stroke:rgb(0,0,0);stroke-width:2"/></g>
<g fill-rule="evenodd"><path d="M 3446.93,2194.25 L 5033.07,2194.25 L 5037.06,2181.98 L 5044.26,2169.5 L 5053.9,2158.8 L 5065.55,2150.33 L 5078.71,2144.48 L 5092.8,2141.48 L 5107.2,2141.48 L 5121.29,2144.48 L 5134.45,2150.33 L 5146.1,2158.8 L 5155.74,2169.5 L 5162.94,2181.98 L 5167.39,2195.68 L 5168.9,2210 L 5167.39,2224.32 L 5162.94,2238.02 L 5155.74,2250.5 L 5146.1,2261.2 L 5134.45,2269.67 L 5121.29,2275.52 L 5107.2,2278.52 L 5092.8,2278.52 L 5078.71,2275.52 L 5065.55,2269.67 L 5053.9,2261.2 L 5044.26,2250.5 L 5037.06,2238.02 L 5033.07,2225.75 L 3446.93,2225.75 L 3442.94,2238.02 L 3435.74,2250.5 L 3426.1,2261.2 L 3414.45,2269.67 L 3401.29,2275.52 L 3387.2,2278.52 L 3372.8,2278.52 L 3358.71,2275.52 L 3345.55,2269.67 L 3333.9,2261.2 L 3324.26,2250.5 L 3317.06,2238.02 L 3312.61,2224.32 L 3311.1,2210 L 3312.61,2195.68 L 3317.06,2181.98 L 3324.26,2169.5 L 3333.9,2158.8 L 3345.55,2150.33 L 3358.71,2144.48 L 3372.8,2141.48 L 3387.2,2141.48 L 3401.29,2144.48 L 3414.45,2150.33 L 3426.1,2158.8 L 3435.74,2169.5 L 3442.94,2181.98 L 3446.93,2194.25 z " style="fill-opacity:1.000000;fill:rgb(251,49,153);stroke:rgb(0,0,0);stroke-width:2"/></g>
<g fill-rule="evenodd"><path d="M 3446.93,2454.25 L 5033.07,2454.25 L 5037.06,2441.98 L 5044.26,2429.5 L 5053.9,2418.8 L 5065.55,2410.33 L 5078.71,2404.48 L 5092.8,2401.48 L 5107.2,2401.48 L 5121.29,2404.48 L 5134.45,2410.33 L 5146.1,2418.8 L 5155.74,2429.5 L 5162.94,2441.98 L 5167.39,2455.68 L 5168.9,2470 L 5167.39,2484.32 L 5162.94,2498.02 L 5155.74,2510.5 L 5146.1,2521.2 L 5134.45,2529.67 L 5121.29,2535.52 L 5107.2,2538.52 L 5092.8,2538.52 L 5078.71,2535.52 L 5065.55,2529.67 L 5053.9,2521.2 L 5044.26,2510.5 L 5037.06,2498.02 L 5033.07,2485.75 L 3446.93,2485.75 L 3442.94,2498.02 L 3435.74,2510.5 L 3426.1,2521.2 L 3414.45,2529.67 L 3401.29,2535.52 L 3387.2,2538.52 L 3372.8,2538.52 L 3358.71,2535.52 L 3345.55,2529.67 L 3333.9,2521.2 L 3324.26,2510.5 L 3317.06,2498.02 L 3312.61,2484.32 L 3311.1,2470 L 3312.61,2455.68 L 3317.06,2441.98 L 3324.26,2429.5 L 3333.9,2418.8 L 3345.55,2410.33 L 3358.71,2404.48 L 3372.8,2401.48 L 3387.2,2401.48 L 3401.29,2404.48 L 3414.45,2410.33 L 3426.1,2418.8 L 3435.74,2429.5 L 3442.94,2441.98 L 3446.93,2454.25 z " style="fill-opacity:1.000000;fill:rgb(144,50,87);stroke:rgb(0,0,0);stroke-width:2"/></g>
<g fill-rule="evenodd"><path d="M 1624.25,4756.7 L 1618.71,4755.52 L 1605.55,4749.67 L 1593.9,4741.2 L 1584.26,4730.5 L 1577.06,4718.02 L 1572.61,4704.32 L 1571.1,4690 L 1572.61,4675.68 L 1577.06,4661.98 L 1584.26,4649.5 L 1593.9,4638.8 L 1605.55,4630.33 L 1618.71,4624.48 L 1632.8,4621.48 L 1647.2,4621.48 L 1661.29,4624.48 L 1674.45,4630.33 L 1686.1,4638.8 L 1695.74,4649.5 L 1702.94,4661.98 L 1707.39,4675.68 L 1708.9,4690 L 1707.39,4704.32 L 1702.94,4718.02 L 1695.74,4730.5 L 1686.1,4741.2 L 1674.45,4749.67 L 1661.29,4755.52 L 1655.75,4756.7 L 1655.75,5403.3 L 1661.29,5404.48 L 1674.45,5410.33 L 1686.1,5418.8 L 1695.74,5429.5 L 1702.94,5441.98 L 1707.39,5455.68 L 1708.9,5470 L 1707.39,5484.32 L 1702.94,5498.02 L 1695.74,5510.5 L 1686.1,5521.2 L 1674.45,5529.67 L 1661.29,5535.52 L 1647.2,5538.52 L 1632.8,5538.52 L 1618.71,5535.52 L 1605.55,5529.67 L 1593.9,5521.2 L 1584.26,5510.5 L 1577.06,5498.02 L 1572.61,5484.32 L 1571.1,5470 L 1572.61,5455.68 L 1577.06,5441.98 L 1584.26,5429.5 L 1593.9,5418.8 L 1605.55,5410.33 L 1618.71,5404.48 L 1624.25,5403.3 L 1624.25,4756.7 z " style="fill-opacity:1.000000;fill:rgb(68,238,155);stroke:rgb(0,0,0);stroke-width:2"/></g>
<g fill-rule="evenodd"><path d="M 2855.75,5603.3 L 2861.29,5604.48 L 2874.45,5610.33 L 2886.1,5618.8 L 2895.74,5629.5 L 2902.94,5641.98 L 2907.39,5655.68 L 2908.9,5670 L 2907.39,5684.32 L 2902.94,5698.02 L 2895.74,5710.5 L 2886.1,5721.2 L 2874.45,5729.67 L 2861.29,5735.52 L 2847.2,5738.52 L 2832.8,5738.52 L 2818.71,5735.52 L 2805.55,5729.67 L 2793.9,5721.2 L 2784.26,5710.5 L 2777.06,5698.02 L 2772.61,5684.32 L 2771.1,5670 L 2772.61,5655.68 L 2777.06,5641.98 L 2784.26,5629.5 L 2793.9,5618.8 L 2805.55,5610.33 L 2818.71,5604.48 L 2824.25,5603.3 L 2824.25,3896.7 L 2818.71,3895.52 L 2805.55,3889.67 L 2793.9,3881.2 L 2784.26,3870.5 L 2777.06,3858.02 L 2772.61,3844.32 L 2771.1,3830 L 2772.61,3815.68 L 2777.06,3801.98 L 2784.26,3789.5 L 2793.9,3778.8 L 2805.55,3770.33 L 2818.71,3764.48 L 2832.8,3761.48 L 2847.2,3761.48 L 2861.29,3764.48 L 2874.45,3770.33 L 2886.1,3778.8 L 2895.74,3789.5 L 2902.94,3801.98 L 2907.39,3815.68 L 2908.9,3830 L 2907.39,3844.32 L 2902.94,3858.02 L 2895.74,3870.5 L 2886.1,3881.2 L 2874.45,3889.67 L 2861.29,3895.52 L 2855.75,3896.7 L 2855.75,5603.3 z " style="fill-opacity:1.000000;fill:rgb(188,233,229);stroke:rgb(0,0,0);stroke-width:2"/></g>
<g fill-rule="evenodd"><path d="M 2695.75,5023.3 L 2701.29,5024.48 L 2714.45,5030.33 L 2726.1,5038.8 L 2735.74,5049.5 L 2742.94,5061.98 L 2747.39,5075.68 L 2748.9,5090 L 2747.39,5104.32 L 2742.94,5118.02 L 2735.74,5130.5 L 2726.1,5141.2 L 2714.45,5149.67 L 2701.29,5155.52 L 2687.2,5158.52 L 2672.8,5158.52 L 2658.71,5155.52 L 2645.55,5149.67 L 2633.9,5141.2 L 2624.26,5130.5 L 2617.06,5118.02 L 2612.61,5104.32 L 2611.1,5090 L 2612.61,5075.68 L 2617.06,5061.98 L 2624.26,5049.5 L 2633.9,5038.8 L 2645.55,5030.33 L 2658.71,5024.48 L 2664.25,5023.3 L 2664.25,4076.7 L 2658.71,4075.52 L 2645.55,4069.67 L 2633.9,4061.2 L 2624.26,4050.5 L 2617.06,4038.02 L 2612.61,4024.32 L 2611.1,4010 L 2612.61,3995.68 L 2617.06,3981.98 L 2624.26,3969.5 L 2633.9,3958.8 L 2645.55,3950.33 L 2658.71,3944.48 L 2672.8,3941.48 L 2687.2,3941.48 L 2701.29,3944.48 L 2714.45,3950.33 L 2726.1,3958.8 L 2735.74,3969.5 L 2742.94,3981.98 L 2747.39,3995.68 L 2748.9,4010 L 2747.39,4024.32 L 2742.94,4038.02 L 2735.74,4050.5 L 2726.1,4061.2 L 2714.45,4069.67 L 2701.29,4075.52 L 2695.75,4076.7 L 2695.75,5023.3 z " style="fill-opacity:1.000000;fill:rgb(37,207,8);stroke:rgb(0,0,0);stroke-width:2"/></g>
<g fill-rule="evenodd"><path d="M 4878.07,1624.25 L 4882.06,1611.98 L 4889.26,1599.5 L 4898.9,1588.8 L 4910.55,1580.33 L 4923.71,1574.48 L 4937.8,1571.48 L 4952.2,1571.48 L 4966.29,1574.48 L 4979.45,1580.33 L 4991.1,1588.8 L 5000.74,1599.5 L 5007.94,1611.98 L 5012.39,1625.68 L 5013.9,1640 L 5012.39,1654.32 L 5007.94,1668.02 L 5000.74,1680.5 L 4991.1,1691.2 L 4979.45,1699.67 L 4966.29,1705.52 L 4952.2,1708.52 L 4937.8,1708.52 L 4923.71,1705.52 L 4910.55,1699.67 L 4898.9,1691.2 L 4889.26,1680.5 L 4882.06,1668.02 L 4878.07,1655.75 L 3951.93,1655.75 L 3947.94,1668.02 L 3940.74,1680.5 L 3931.1,1691.2 L 3919.45,1699.67 L 3906.29,1705.52 L 3892.2,1708.52 L 3877.8,1708.52 L 3863.71,1705.52 L 3850.55,1699.67 L 3838.9,1691.2 L 3829.26,1680.5 L 3822.06,1668.02 L 3817.61,1654.32 L 3816.1,1640 L 3817.61,1625.68 L 3822.06,1611.98 L 3829.26,1599.5 L 3838.9,1588.8 L 3850.55,1580.33 L 3863.71,1574.48 L 3877.8,1571.48 L 3892.2,1571.48 L 3906.29,1574.48 L 3919.45,1580.33 L 3931.1,1588.8 L 3940.74,1599.5 L 3947.94,1611.98 L 3951.93,1624.25 L 4878.07,1624.25 z " style="fill-opacity:1.000000;fill:rgb(245,233,226);stroke:rgb(0,0,0);stroke-width:2"/></g>
<g fill-rule="evenodd"><path d="M 3625.65,2320.32 L 4854.35,2320.32 L 4857.06,2311.98 L 4864.26,2299.5 L 4873.9,2288.8 L 4885.55,2280.33 L 4898.71,2274.48 L 4912.8,2271.48 L 4927.2,2271.48 L 4941.29,2274.48 L 4954.45,2280.33 L 4966.1,2288.8 L 4975.74,2299.5 L 4982.94,2311.98 L 4987.39,2325.68 L 4988.9,2340 L 4987.39,2354.32 L 4982.94,2368.02 L 4975.74,2380.5 L 4966.1,2391.2 L 4954.45,2399.67 L 4941.29,2405.52 L 4927.2,2408.52 L 4912.8,2408.52 L 4898.71,2405.52 L 4885.55,2399.67 L 4873.9,2391.2 L 4864.26,2380.5 L 4857.06,2368.02 L 4854.35,2359.68 L 3625.65,2359.68 L 3622.94,2368.02 L 3615.74,2380.5 L 3606.1,2391.2 L 3594.45,2399.67 L 3581.29,2405.52 L 3567.2,2408.52 L 3552.8,2408.52 L 3538.71,2405.52 L 3525.55,2399.67 L 3513.9,2391.2 L 3504.26,2380.5 L 3497.06,2368.02 L 3492.61,2354.32 L 3491.1,2340 L 3492.61,2325.68 L 3497.06,2311.98 L 3504.26,2299.5 L 3513.9,2288.8 L 3525.55,2280.33 L 3538.71,2274.48 L 3552.8,2271.48 L 3567.2,2271.48 L 3581.29,2274.48 L 3594.45,2280.33 L 3606.1,2288.8 L 3615.74,2299.5 L 3622.94,2311.98 L 3625.65,2320.32 z " style="fill-opacity:1.000000;fill:rgb(94,83,96);stroke:rgb(0,0,0);stroke-width:2"/></g>
<g fill-rule="evenodd"><path d="M 3420.65,1235.32 L 4874.35,1235.32 L 4877.06,1226.98 L 4884.26,1214.5 L 4893.9,1203.8 L 4905.55,1195.33 L 4918.71,1189.48 L 4932.8,1186.48 L 4947.2,1186.48 L 4961.29,1189.48 L 4974.45,1195.33 L 4986.1,1203.8 L 4995.74,1214.5 L 5002.94,1226.98 L 5007.39,1240.68 L 5008.9,1255 L 5007.39,1269.32 L 5002.94,1283.02 L 4995.74,1295.5 L 4986.1,1306.2 L 4974.45,1314.67 L 4961.29,1320.52 L 4947.2,1323.52 L 4932.8,1323.52 L 4918.71,1320.52 L 4905.55,1314.67 L 4893.9,1306.2 L 4884.26,1295.5 L 4877.06,1283.02 L 4874.35,1274.68 L 3420.65,1274.68 L 3417.94,1283.02 L 3410.74,1295.5 L 3401.1,1306.2 L 3389.45,1314.67 L 3376.29,1320.52 L 3362.2,1323.52 L 3347.8,1323.52 L 3333.71,1320.52 L 3320.55,1314.67 L 3308.9,1306.2 L 3299.26,1295.5 L 3292.06,1283.02 L 3287.61,1269.32 L 3286.1,1255 L 3287.61,1240.68 L 3292.06,1226.98 L 3299.26,1214.5 L 3308.9,1203.8 L 3320.55,1195.33 L 3333.71,1189.48 L 3347.8,1186.48 L 3362.2,1186.48 L 3376.29,1189.48 L 3389.45,1195.33 L 3401.1,1203.8 L 3410.74,1214.5 L 3417.94,1226.98 L 3420.65,1235.32 z " style="fill-opacity:1.000000;fill:rgb(170,210,178);stroke:rgb(0,0,0);stroke-width:2"/></g>
<g fill-rule="evenodd"><path d="M 3465.65,3309.68 L 3462.94,3318.02 L 3455.74,3330.5 L 3446.1,3341.2 L 3434.45,3349.67 L 3421.29,3355.52 L 3407.2,3358.52 L 3392.8,3358.52 L 3378.71,3355.52 L 3365.55,3349.67 L 3353.9,3341.2 L 3344.26,3330.5 L 3337.06,3318.02 L 3332.61,3304.32 L 3331.1,3290 L 3332.61,3275.68 L 3337.06,3261.98 L 3344.26,3249.5 L 3353.9,3238.8 L 3365.55,3230.33 L 3378.71,3224.48 L 3392.8,3221.48 L 3407.2,3221.48 L 3421.29,3224.48 L 3434.45,3230.33 L 3446.1,3238.8 L 3455.74,3249.5 L 3462.94,3261.98 L 3465.65,3270.32 L 4594.35,3270.32 L 4597.06,3261.98 L 4604.26,3249.5 L 4613.9,3238.8 L 4625.55,3230.33 L 4638.71,3224.48 L 4652.8,3221.48 L 4667.2,3221.48 L 4681.29,3224.48 L 4694.45,3230.33 L 4706.1,3238.8 L 4715.74,3249.5 L 4722.94,3261.98 L 4727.39,3275.68 L 4728.9,3290 L 4727.39,3304.32 L 4722.94,3318.02 L 4715.74,3330.5 L 4706.1,3341.2 L 4694.45,3349.67 L 4681.29,3355.52 L 4667.2,3358.52 L 4652.8,3358.52 L 4638.71,3355.52 L 4625.55,3349.67 L 4613.9,3341.2 L 4604.26,3330.5 L 4597.06,3318.02 L 4594.35,3309.68 L 3465.65,3309.68 z " style="fill-opacity:1.000000;fill:rgb(208,133,250);stroke:rgb(0,0,0);stroke-width:2"/></g>
<g fill-rule="evenodd"><path d="M 3785.65,1989.68 L 3782.94,1998.02 L 3775.74,2010.5 L 3766.1,2021.2 L 3754.45,2029.67 L 3741.29,2035.52 L 3727.2,2038.52 L 3712.8,2038.52 L 3698.71,2035.52 L 3685.55,2029.67 L 3673.9,2021.2 L 3664.26,2010.5 L 3657.06,1998.02 L 3652.61,1984.32 L 3651.1,1970 L 3652.61,1955.68 L 3657.06,1941.98 L 3664.26,1929.5 L 3673.9,1918.8 L 3685.55,1910.33 L 3698.71,1904.48 L 3712.8,1901.48 L 3727.2,1901.48 L 3741.29,1904.48 L 3754.45,1910.33 L 3766.1,1918.8 L 3775.74,1929.5 L 3782.94,1941.98 L 3785.65,1950.32 L 5034.35,1950.32 L 5037.06,1941.98 L 5044.26,1929.5 L 5053.9,1918.8 L 5065.55,1910.33 L 5078.71,1904.48 L 5092.8,1901.48 L 5107.2,1901.48 L 5121.29,1904.48 L 5134.45,1910.33 L 5146.1,1918.8 L 5155.74,1929.5 L 5162.94,1941.98 L 5167.39,1955.68 L 5168.9,1970 L 5167.39,1984.32 L 5162.94,1998.02 L 5155.74,2010.5 L 5146.1,2021.2 L 5134.45,2029.67 L 5121.29,2035.52 L 5107.2,2038.52 L 5092.8,2038.52 L 5078.71,2035.52 L 5065.55,2029.67 L 5053.9,2021.2 L 5044.26,2010.5 L 5037.06,1998.02 L 5034.35,1989.68 L 3785.65,1989.68 z " style="fill-opacity:1.000000;fill:rgb(84,216,53);stroke:rgb(0,0,0);stroke-width:2"/></g>
<g fill-rule="evenodd"><path d="M 1420.32,5564.14 L 1420.32,4455.87 L 1418.71,4455.52 L 1405.55,4449.67 L 1393.9,4441.2 L 1384.26,4430.5 L 1377.06,4418.02 L 1372.61,4404.32 L 1371.1,4390 L 1372.61,4375.68 L 1377.06,4361.98 L 1384.26,4349.5 L 1393.9,4338.8 L 1405.55,4330.33 L 1418.71,4324.48 L 1432.8,4321.48 L 1447.2,4321.48 L 1461.29,4324.48 L 1474.45,4330.33 L 1486.1,4338.8 L 1495.74,4349.5 L 1502.94,4361.98 L 1507.39,4375.68 L 1508.9,4390 L 1507.39,4404.32 L 1502.94,4418.02 L 1495.74,4430.5 L 1486.1,4441.2 L 1474.45,4449.67 L 1461.29,4455.52 L 1459.68,4455.86 L 1459.68,5564.13 L 1461.29,5564.48 L 1474.45,5570.33 L 1486.1,5578.8 L 1495.74,5589.5 L 1502.94,5601.98 L 1507.39,5615.68 L 1508.9,5630 L 1507.39,5644.32 L 1502.94,5658.02 L 1495.74,5670.5 L 1486.1,5681.2 L 1474.45,5689.67 L 1461.29,5695.52 L 1447.2,5698.52 L 1432.8,5698.52 L 1418.71,5695.52 L 1405.55,5689.67 L 1393.9,5681.2 L 1384.26,5670.5 L 1377.06,5658.02 L 1372.61,5644.32 L 1371.1,5630 L 1372.61,5615.68 L 1377.06,5601.98 L 1384.26,5589.5 L 1393.9,5578.8 L 1405.55,5570.33 L 1418.71,5564.48 L 1420.32,5564.14 z " style="fill-opacity:1.000000;fill:rgb(232,212,102);stroke:rgb(0,0,0);stroke-width:2"/></g>
<g fill-rule="evenodd"><path d="M 519.684,2335.86 L 519.684,2844.13 L 521.29,2844.48 L 534.448,2850.33 L 546.1,2858.8 L 555.738,2869.5 L 562.94,2881.98 L 567.39,2895.68 L 568.896,2910 L 567.39,2924.32 L 562.94,2938.02 L 555.738,2950.5 L 546.1,2961.2 L 534.448,2969.67 L 521.29,2975.52 L 507.2,2978.52 L 492.8,2978.52 L 478.71,2975.52 L 465.552,2969.67 L 453.9,2961.2 L 444.262,2950.5 L 437.06,2938.02 L 432.61,2924.32 L 431.104,2910 L 432.61,2895.68 L 437.06,2881.98 L 444.262,2869.5 L 453.9,2858.8 L 465.552,2850.33 L 478.71,2844.48 L 480.316,2844.14 L 480.316,2335.87 L 478.71,2335.52 L 465.552,2329.67 L 453.9,2321.2 L 444.262,2310.5 L 437.06,2298.02 L 432.61,2284.32 L 431.104,2270 L 432.61,2255.68 L 437.06,2241.98 L 444.262,2229.5 L 453.9,2218.8 L 465.552,2210.33 L 478.71,2204.48 L 492.8,2201.48 L 507.2,2201.48 L 521.29,2204.48 L 534.448,2210.33 L 546.1,2218.8 L 555.738,2229.5 L 562.94,2241.98 L 567.39,2255.68 L 568.896,2270 L 567.39,2284.32 L 562.94,2298.02 L 555.738,2310.5 L 546.1,2321.2 L 534.448,2329.67 L 521.29,2335.52 L 519.684,2335.86 z " style="fill-opacity:1.000000;fill:rgb(130,100,152);stroke:rgb(0,0,0);stroke-width:2"/></g>
<g fill-rule="evenodd"><path d="M 799.684,2204.13 L 801.29,2204.48 L 814.448,2210.33 L 826.1,2218.8 L 835.738,2229.5 L 842.94,2241.98 L 847.39,2255.68 L 848.896,2270 L 847.39,2284.32 L 842.94,2298.02 L 835.738,2310.5 L 826.1,2321.2 L 814.448,2329.67 L 801.29,2335.52 L 787.2,2338.52 L 772.8,2338.52 L 758.71,2335.52 L 745.552,2329.67 L 733.9,2321.2 L 724.262,2310.5 L 717.06,2298.02 L 712.61,2284.32 L 711.104,2270 L 712.61,2255.68 L 717.06,2241.98 L 724.262,2229.5 L 733.9,2218.8 L 745.552,2210.33 L 758.71,2204.48 L 760.316,2204.14 L 760.316,1715.87 L 758.71,1715.52 L 745.552,1709.67 L 733.9,1701.2 L 724.262,1690.5 L 717.06,1678.02 L 712.61,1664.32 L 711.104,1650 L 712.61,1635.68 L 717.06,1621.98 L 724.262,1609.5 L 733.9,1598.8 L 745.552,1590.33 L 758.71,1584.48 L 772.8,1581.48 L 787.2,1581.48 L 801.29,1584.48 L 814.448,1590.33 L 826.1,1598.8 L 835.738,1609.5 L 842.94,1621.98 L 847.39,1635.68 L 848.896,1650 L 847.39,1664.32 L 842.94,1678.02 L 835.738,1690.5 L 826.1,1701.2 L 814.448,1709.67 L 801.29,1715.52 L 799.684,1715.86 L 799.684,2204.13 z " style="fill-opacity:1.000000;fill:rgb(217,168,135);stroke:rgb(0,0,0);stroke-width:2"/></g>
<g fill-rule="evenodd"><path d="M 3379.68,1784.14 L 3381.29,1784.48 L 3394.45,1790.34 L 3406.1,1798.8 L 3415.74,1809.51 L 3422.94,1821.98 L 3427.39,1835.68 L 3428.9,1850 L 3427.39,1864.33 L 3422.94,1878.02 L 3415.74,1890.5 L 3406.1,1901.2 L 3394.45,1909.67 L 3381.29,1915.53 L 3367.2,1918.52 L 3352.8,1918.52 L 3338.71,1915.53 L 3325.55,1909.67 L 3313.9,1901.2 L 3304.26,1890.5 L 3297.06,1878.02 L 3292.61,1864.33 L 3291.1,1850 L 3292.61,1835.68 L 3297.06,1821.98 L 3304.26,1809.51 L 3313.9,1798.8 L 3325.55,1790.34 L 3338.71,1784.48 L 3340.32,1784.14 L 3340.32,1515.87 L 3338.71,1515.52 L 3325.55,1509.67 L 3313.9,1501.2 L 3304.26,1490.5 L 3297.06,1478.02 L 3292.61,1464.32 L 3291.1,1450 L 3292.61,1435.68 L 3297.06,1421.98 L 3304.26,1409.5 L 3313.9,1398.8 L 3325.55,1390.33 L 3338.71,1384.48 L 3352.8,1381.48 L 3367.2,1381.48 L 3381.29,1384.48 L 3394.45,1390.33 L 3406.1,1398.8 L 3415.74,1409.5 L 3422.94,1421.98 L 3427.39,1435.68 L 3428.9,1450 L 3427.39,1464.32 L 3422.94,1478.02 L 3415.74,1490.5 L 3406.1,1501.2 L 3394.45,1509.67 L 3381.29,1515.52 L 3379.68,1515.86 L 3379.68,1784.14 z " style="fill-opacity:1.000000;fill:rgb(117,101,112);stroke:rgb(0,0,0);stroke-width:2"/></g>
<g fill-rule="evenodd"><path d="M 2760.32,1784.14 L 2760.32,1515.87 L 2758.71,1515.52 L 2745.55,1509.67 L 2733.9,1501.2 L 2724.26,1490.5 L 2717.06,1478.02 L 2712.61,1464.32 L 2711.1,1450 L 2712.61,1435.68 L 2717.06,1421.98 L 2724.26,1409.5 L 2733.9,1398.8 L 2745.55,1390.33 L 2758.71,1384.48 L 2772.8,1381.48 L 2787.2,1381.48 L 2801.29,1384.48 L 2814.45,1390.33 L 2826.1,1398.8 L 2835.74,1409.5 L 2842.94,1421.98 L 2847.39,1435.68 L 2848.9,1450 L 2847.39,1464.32 L 2842.94,1478.02 L 2835.74,1490.5 L 2826.1,1501.2 L 2814.45,1509.67 L 2801.29,1515.52 L 2799.68,1515.86 L 2799.68,1784.14 L 2801.29,1784.48 L 2814.45,1790.34 L 2826.1,1798.8 L 2835.74,1809.51 L 2842.94,1821.98 L 2847.39,1835.68 L 2848.9,1850 L 2847.39,1864.33 L 2842.94,1878.02 L 2835.74,1890.5 L 2826.1,1901.2 L 2814.45,1909.67 L 2801.29,1915.53 L 2787.2,1918.52 L 2772.8,1918.52 L 2758.71,1915.53 L 2745.55,1909.67 L 2733.9,1901.2 L 2724.26,1890.5 L 2717.06,1878.02 L 2712.61,1864.33 L 2711.1,1850 L 2712.61,1835.68 L 2717.06,1821.98 L 2724.26,1809.51 L 2733.9,1798.8 L 2745.55,1790.34 L 2758.71,1784.48 L 2760.32,1784.14 z " style="fill-opacity:1.000000;fill:rgb(90,138,63);stroke:rgb(0,0,0);stroke-width:2"/></g>
</svg>
