<?xml version="1.0" standalone="no"?>
<!DOCTYPE svg PUBLIC "-//W3C//DTD SVG 1.1//EN"
"http://www.w3.org/Graphics/SVG/1.1/DTD/svg11.dtd">
<svg width="7420" height="5940" viewBox="0 0 7420 5940" version="1.1"
xmlns="http://www.w3.org/2000/svg"
xmlns:xlink="http://www.w3.org/1999/xlink">
<g fill-rule="evenodd"><path d="M 0.118833,9.99741 L 0.878712,6.17202 L 1.80256,4.44429 L 3.04637,2.92853 L 6.28985,0.760879 L 10.1172,-0.000999841 L 7409.88,-0.000999841 L 7413.71,0.760879 L 7416.95,2.92853 L 7418.2,4.44429 L 7419.12,6.17202 L 7419.88,9.99741 L 7419.88,5930 L 7419.66,5932.08 L 7419.02,5934.07 L 7417.31,5936.69 L 7414.88,5938.66 L 7412.97,5939.51 L 7409.88,5940 L 10.1172,5940 L 6.28985,5939.24 L 3.04637,5937.07 L 1.80256,5935.56 L 0.878712,5933.83 L 0.118833,5930 L 0.118833,2810.02 L 0.118833,9.99741M 460.883,5699.19 L 483.61,5754.19 L 525.651,5796.31 L 580.61,5819.13 L 640.111,5819.18 L 695.114,5796.45 L 737.229,5754.41 L 760.05,5699.45 L 760.104,5639.95 L 737.377,5584.95 L 695.336,5542.83 L 640.377,5520.01 L 580.876,5519.96 L 525.873,5542.69 L 483.758,5584.73 L 460.937,5639.69 L 460.883,5699.19M 300.617,2201.44 L 398.287,2299.38 L 399.781,2302.99 L 399.971,2304.94 L 399.779,2306.89 L 398.025,2311.62 L 397.991,2348.42 L 412.045,2382.43 L 438.043,2408.48 L 472.034,2422.59 L 508.828,2422.62 L 542.844,2408.57 L 568.888,2382.57 L 571.06,2377.84 L 572.302,2376.33 L 573.817,2375.08 L 577.421,2373.59 L 721.576,2373.4 L 725.403,2374.16 L 728.649,2376.33 L 729.893,2377.85 L 731.994,2382.43 L 757.992,2408.48 L 791.983,2422.59 L 828.777,2422.62 L 862.793,2408.57 L 888.837,2382.57 L 902.949,2348.58 L 902.983,2311.79 L 888.929,2277.77 L 862.931,2251.73 L 828.941,2237.61 L 792.147,2237.58 L 758.13,2251.63 L 732.086,2277.63 L 729.915,2282.36 L 728.671,2283.88 L 725.429,2286.04 L 721.606,2286.8 L 577.447,2286.61 L 573.841,2285.12 L 572.326,2283.87 L 571.082,2282.35 L 568.98,2277.77 L 542.982,2251.73 L 508.992,2237.61 L 472.198,2237.58 L 467.31,2239.39 L 465.361,2239.58 L 463.413,2239.39 L 459.812,2237.89 L 376.767,2155.12 L 374.599,2151.88 L 374.031,2150 L 373.839,2114.44 L 374.599,2110.61 L 376.767,2107.37 L 378.283,2106.13 L 396.388,2094.03 L 415.973,2064.72 L 422.85,2030.15 L 415.975,1995.58 L 396.39,1966.27 L 367.078,1946.68 L 333.328,1939.97 L 330.538,1938.91 L 327.749,1939.97 L 294,1946.68 L 264.689,1966.27 L 245.104,1995.58 L 238.229,2030.15 L 245.102,2064.72 L 264.687,2094.03 L 282.794,2106.13 L 285.553,2108.89 L 286.477,2110.61 L 287.239,2114.44 L 287.239,2169.15 L 290.713,2186.62 L 300.617,2201.44M 1190.92,2982.22 L 1216.75,3008.06 L 1226.28,3004.93 L 1240.13,2966.93 L 1238.24,2923.43 L 1226.53,2895.16 L 1216.75,2891.95 L 1190.92,2917.78 L 1193.34,2921.98 L 1197.79,2935.68 L 1199.3,2950 L 1197.79,2964.32 L 1193.34,2978.02 L 1190.92,2982.22M 1162.73,3010.6 L 1151.7,3015.51 L 1137.61,3018.51 L 1123.21,3018.51 L 1109.13,3015.51 L 1095.97,3009.66 L 1084.32,3001.19 L 1074.68,2990.49 L 1067.48,2978.02 L 1063.03,2964.32 L 1061.53,2950 L 1063.03,2935.68 L 1067.48,2921.98 L 1069.91,2917.78 L 1044.07,2891.94 L 1034.54,2895.07 L 1020.69,2933.08 L 1022.05,2969.06 L 1020.67,2972.78 L 1019.45,2974.36 L 1017.94,2975.67 L 1014.31,2977.27 L 1010.33,2977.32 L 1008.42,2976.76 L 1005.11,2974.57 L 948.802,2918.26 L 946.634,2915.02 L 945.874,2911.19 L 945.874,2791.01 L 942.999,2776.55 L 934.802,2764.28 L 816.215,2645.69 L 803.949,2637.5 L 789.481,2634.62 L 211.545,2634.62 L 197.075,2637.49 L 184.809,2645.69 L 46.2255,2784.28 L 38.0288,2796.54 L 35.1533,2811 L 35.1533,4208.82 L 38.0268,4223.28 L 46.2235,4235.55 L 144.814,4334.14 L 157.08,4342.34 L 171.54,4345.21 L 319.696,4345.21 L 323.521,4345.97 L 326.765,4348.14 L 345.888,4376.41 L 373.131,4394.85 L 375.299,4398.09 L 376.059,4401.92 L 375.867,4403.87 L 374.375,4407.48 L 371.616,4410.23 L 354.96,4417.34 L 323.727,4445.85 L 307.126,4481.26 L 311.537,4489.76 L 345.804,4489.76 L 349.487,4479.81 L 356.764,4468.14 L 366.243,4458.17 L 377.533,4450.31 L 390.175,4444.88 L 403.651,4442.11 L 410.527,4441.76 L 424.213,4443.16 L 437.339,4447.27 L 449.367,4453.95 L 459.804,4462.91 L 468.224,4473.79 L 474.283,4486.14 L 475.219,4489.76 L 545.772,4489.76 L 549.455,4479.81 L 556.732,4468.14 L 566.211,4458.17 L 577.501,4450.31 L 590.143,4444.88 L 603.619,4442.11 L 610.496,4441.76 L 624.181,4443.16 L 637.307,4447.27 L 649.335,4453.95 L 659.772,4462.91 L 668.192,4473.79 L 674.251,4486.14 L 675.187,4489.76 L 709.48,4489.76 L 713.891,4481.26 L 697.294,4445.85 L 666.061,4417.34 L 649.401,4410.23 L 646.644,4407.47 L 645.152,4403.87 L 644.96,4401.92 L 645.72,4398.09 L 647.888,4394.85 L 675.129,4376.42 L 694.252,4348.14 L 697.498,4345.97 L 701.325,4345.21 L 871.634,4345.21 L 875.459,4345.97 L 878.703,4348.14 L 1041.45,4511.16 L 1042.94,4514.77 L 1042.94,4518.67 L 1037.92,4531.27 L 1037.89,4568.06 L 1051.94,4602.08 L 1077.94,4628.12 L 1109.5,4641.44 L 1112.26,4644.2 L 1113.75,4647.8 L 1113.75,4651.71 L 1113.17,4653.58 L 1111,4656.82 L 1109.49,4658.07 L 1078.08,4671.25 L 1052.04,4697.25 L 1037.92,4731.24 L 1037.89,4768.03 L 1051.94,4802.05 L 1077.94,4828.09 L 1109.5,4841.41 L 1111.02,4842.65 L 1113.18,4845.9 L 1113.94,4849.72 L 1113.17,4853.55 L 1111,4856.79 L 1109.49,4858.03 L 1078.08,4871.22 L 1052.04,4897.22 L 1037.92,4931.21 L 1037.89,4968 L 1051.94,5002.02 L 1077.94,5028.06 L 1109.5,5041.37 L 1112.26,5044.13 L 1113.75,5047.74 L 1113.75,5051.64 L 1113.17,5053.52 L 1111,5056.76 L 1109.49,5058 L 1078.08,5071.19 L 1052.04,5097.18 L 1037.92,5131.17 L 1037.89,5167.97 L 1051.94,5201.98 L 1077.94,5228.03 L 1111.93,5242.14 L 1148.73,5242.17 L 1182.74,5228.12 L 1208.79,5202.12 L 1222.9,5168.13 L 1222.93,5131.34 L 1208.88,5097.32 L 1182.88,5071.28 L 1153.05,5058.89 L 1149.81,5056.72 L 1147.64,5053.47 L 1147.07,5051.6 L 1147.08,5047.7 L 1147.65,5045.82 L 1149.82,5042.58 L 1153.06,5040.41 L 1182.74,5028.15 L 1208.79,5002.15 L 1214.23,4989.55 L 1216.99,4986.79 L 1218.71,4985.87 L 1222.54,4985.11 L 1271.57,4985.11 L 1275.4,4985.87 L 1277.12,4986.8 L 2064.51,5773.91 L 2076.77,5782.11 L 2091.23,5784.98 L 2797.99,5784.98 L 2801.82,5785.75 L 2805.07,5787.92 L 2807.23,5791.17 L 2811.66,5801.89 L 2837.66,5827.93 L 2871.65,5842.04 L 2908.45,5842.08 L 2942.46,5828.02 L 2968.51,5802.03 L 2982.62,5768.04 L 2982.65,5731.24 L 2968.6,5697.23 L 2942.6,5671.18 L 2925.88,5664.24 L 2922.64,5662.07 L 2921.4,5660.55 L 2919.91,5656.95 L 2919.91,5653.05 L 2920.48,5651.17 L 2921.4,5649.45 L 2924.16,5646.69 L 2927.76,5645.2 L 4338.92,5645.01 L 4353.38,5642.13 L 4365.65,5633.94 L 4514.23,5485.35 L 4522.43,5473.09 L 4525.3,5458.62 L 4525.3,1155.79 L 4526.06,1151.96 L 4528.23,1148.72 L 4550.97,1133.29 L 4569.7,1105.26 L 4576.48,1071.21 L 4576.48,1069.4 L 4569.71,1035.35 L 4550.97,1007.31 L 4522.94,988.582 L 4489.88,982.007 L 4456.81,988.58 L 4428.78,1007.31 L 4410.05,1035.35 L 4403.28,1069.38 L 4403.28,1071.22 L 4410.05,1105.26 L 4428.78,1133.29 L 4451.52,1148.72 L 4453.69,1151.96 L 4454.45,1155.79 L 4454.45,5440.79 L 4453.69,5444.61 L 4451.52,5447.86 L 4326.64,5572.47 L 4324.91,5573.39 L 4321.08,5574.15 L 2149.07,5574.15 L 2145.24,5573.39 L 2143.51,5572.47 L 1296.14,4725.36 L 1283.87,4717.17 L 1269.4,4714.29 L 1222.55,4714.29 L 1218.72,4713.53 L 1215.48,4711.36 L 1214.23,4709.84 L 1208.88,4697.38 L 1182.88,4671.34 L 1153.05,4658.95 L 1149.81,4656.78 L 1147.64,4653.54 L 1147.07,4651.66 L 1147.08,4647.76 L 1148.57,4644.16 L 1149.82,4642.64 L 1153.06,4640.48 L 1182.74,4628.22 L 1208.79,4602.22 L 1222.9,4568.23 L 1222.93,4531.43 L 1208.88,4497.42 L 1182.88,4471.37 L 1151.32,4458.06 L 1149.81,4456.82 L 1147.64,4453.57 L 1146.88,4449.74 L 1147.08,4447.79 L 1148.57,4444.19 L 1151.33,4441.43 L 1182.74,4428.25 L 1208.79,4402.25 L 1222.9,4368.26 L 1222.93,4331.47 L 1208.88,4297.45 L 1182.88,4271.4 L 1151.32,4258.09 L 1149.81,4256.85 L 1147.64,4253.6 L 1146.88,4249.77 L 1147.08,4247.82 L 1148.57,4244.22 L 1151.33,4241.47 L 1182.74,4228.28 L 1208.79,4202.28 L 1222.9,4168.29 L 1222.93,4131.5 L 1208.88,4097.48 L 1182.88,4071.44 L 1151.32,4058.12 L 1149.81,4056.88 L 1147.64,4053.63 L 1146.88,4049.81 L 1147.08,4047.86 L 1148.57,4044.25 L 1151.33,4041.5 L 1182.74,4028.31 L 1208.79,4002.31 L 1222.9,3968.32 L 1222.93,3931.53 L 1208.88,3897.51 L 1182.88,3871.47 L 1151.32,3858.15 L 1149.81,3856.91 L 1147.64,3853.67 L 1146.88,3849.84 L 1147.08,3847.89 L 1148.57,3844.28 L 1151.33,3841.53 L 1182.74,3828.34 L 1208.79,3802.35 L 1222.9,3768.35 L 1222.93,3731.56 L 1208.88,3697.54 L 1182.88,3671.5 L 1151.32,3658.19 L 1149.81,3656.94 L 1147.64,3653.7 L 1146.88,3649.87 L 1147.08,3647.92 L 1148.57,3644.32 L 1151.33,3641.56 L 1182.74,3628.38 L 1208.79,3602.38 L 1222.9,3568.39 L 1222.93,3531.59 L 1208.88,3497.58 L 1182.88,3471.53 L 1151.32,3458.22 L 1148.56,3455.46 L 1147.07,3451.85 L 1147.08,3447.95 L 1147.65,3446.08 L 1148.57,3444.35 L 1151.33,3441.59 L 1182.74,3428.41 L 1208.79,3402.41 L 1222.9,3368.42 L 1222.93,3331.62 L 1208.88,3297.61 L 1182.88,3271.56 L 1151.32,3258.25 L 1148.56,3255.49 L 1147.07,3251.89 L 1147.08,3247.98 L 1147.65,3246.11 L 1148.57,3244.38 L 1151.33,3241.62 L 1182.74,3228.44 L 1208.79,3202.44 L 1222.9,3168.45 L 1222.93,3131.66 L 1208.88,3097.64 L 1182.88,3071.6 L 1175.62,3068.58 L 1172.38,3066.41 L 1171.14,3064.9 L 1169.65,3061.3 L 1169.65,3057.39 L 1171.15,3053.79 L 1172.39,3052.28 L 1175.63,3050.11 L 1185.26,3046.13 L 1188.47,3036.34 L 1162.73,3010.6M 475.251,4529.75 L 471.568,4539.69 L 464.291,4551.37 L 454.812,4561.34 L 443.522,4569.2 L 430.524,4574.69 L 430.524,4645.1 L 437.339,4647.24 L 449.367,4653.92 L 459.804,4662.88 L 468.224,4673.76 L 474.283,4686.11 L 477.731,4699.43 L 478.429,4713.16 L 476.345,4726.76 L 471.568,4739.66 L 464.291,4751.34 L 454.812,4761.31 L 443.522,4769.17 L 430.524,4774.66 L 430.524,4845.07 L 437.339,4847.21 L 449.367,4853.89 L 459.804,4862.85 L 468.224,4873.73 L 474.283,4886.08 L 475.219,4889.69 L 545.772,4889.69 L 549.455,4879.75 L 556.732,4868.07 L 566.211,4858.1 L 577.501,4850.24 L 590.143,4844.82 L 603.619,4842.05 L 610.496,4841.7 L 624.181,4843.09 L 637.307,4847.21 L 649.335,4853.89 L 659.772,4862.85 L 668.192,4873.73 L 674.251,4886.08 L 675.187,4889.69 L 709.48,4889.69 L 713.891,4881.2 L 697.294,4845.79 L 666.061,4817.28 L 651.131,4811.09 L 647.888,4808.93 L 645.72,4805.68 L 644.96,4801.86 L 645.72,4798.03 L 647.888,4794.79 L 675.129,4776.35 L 693.01,4749.59 L 695.768,4746.84 L 697.498,4745.91 L 701.325,4745.15 L 791.647,4745.15 L 795.472,4745.91 L 798.716,4748.08 L 852.093,4801.46 L 854.261,4804.7 L 855.023,4808.53 L 855.023,5288.65 L 857.896,5303.11 L 866.093,5315.38 L 1004.68,5453.96 L 1016.94,5462.16 L 1031.4,5465.03 L 1340.18,5465.23 L 1343.78,5466.72 L 1346.54,5469.49 L 1351.9,5481.94 L 1377.89,5507.98 L 1411.88,5522.1 L 1448.68,5522.13 L 1482.69,5508.08 L 1508.74,5482.08 L 1522.85,5448.09 L 1522.88,5411.29 L 1508.83,5377.28 L 1482.83,5351.23 L 1448.84,5337.12 L 1412.05,5337.09 L 1378.03,5351.14 L 1351.99,5377.14 L 1346.54,5389.74 L 1343.79,5392.5 L 1340.19,5393.99 L 1049.24,5394.18 L 1045.42,5393.42 L 1042.17,5391.25 L 928.805,5277.88 L 926.637,5274.64 L 926.069,5272.77 L 925.877,4790.7 L 923.002,4776.23 L 914.805,4763.96 L 836.212,4685.37 L 823.946,4677.17 L 809.478,4674.29 L 699.373,4674.1 L 695.77,4672.61 L 693.01,4669.85 L 675.131,4643.1 L 647.888,4624.66 L 645.72,4621.42 L 644.96,4617.59 L 645.72,4613.77 L 647.888,4610.52 L 651.131,4608.35 L 666.059,4602.17 L 697.292,4573.66 L 713.893,4538.25 L 709.48,4529.75 L 675.219,4529.75 L 671.536,4539.69 L 664.259,4551.37 L 654.781,4561.34 L 643.49,4569.2 L 630.848,4574.62 L 617.373,4577.39 L 610.496,4577.74 L 596.81,4576.35 L 583.684,4572.23 L 571.656,4565.55 L 561.219,4556.59 L 552.799,4545.72 L 546.74,4533.37 L 545.804,4529.75 L 475.251,4529.75M 475.251,4929.69 L 471.568,4939.63 L 464.291,4951.3 L 454.812,4961.27 L 443.522,4969.13 L 430.524,4974.63 L 430.524,5008.64 L 439.279,5013.21 L 466.091,5002.11 L 497.324,4973.6 L 501.457,4964.78 L 502.517,4963.02 L 503.913,4961.51 L 505.588,4960.32 L 507.472,4959.5 L 509.484,4959.08 L 511.539,4959.08 L 513.551,4959.5 L 515.435,4960.33 L 517.108,4961.51 L 518.506,4963.02 L 519.564,4964.78 L 523.693,4973.6 L 554.926,5002.1 L 581.74,5013.21 L 590.499,5008.64 L 590.499,4974.31 L 583.684,4972.17 L 571.656,4965.49 L 561.219,4956.53 L 552.799,4945.65 L 546.74,4933.3 L 545.804,4929.69 L 475.251,4929.69M 390.531,4844.75 L 390.531,4774.34 L 383.716,4772.2 L 371.688,4765.52 L 361.251,4756.56 L 352.831,4745.68 L 346.772,4733.33 L 345.836,4729.72 L 311.541,4729.72 L 307.128,4738.21 L 323.725,4773.63 L 355.16,4802.32 L 356.54,4803.87 L 357.568,4805.67 L 358.204,4807.64 L 358.418,4809.71 L 358.204,4811.77 L 357.568,4813.74 L 356.538,4815.54 L 355.16,4817.09 L 323.727,4845.78 L 307.126,4881.2 L 311.537,4889.69 L 345.804,4889.69 L 349.487,4879.75 L 356.764,4868.07 L 366.243,4858.1 L 377.533,4850.24 L 390.531,4844.75M 345.836,4929.69 L 311.541,4929.69 L 307.128,4938.18 L 323.725,4973.6 L 354.958,5002.1 L 381.772,5013.21 L 390.531,5008.64 L 390.531,4974.31 L 383.716,4972.17 L 371.688,4965.49 L 361.251,4956.53 L 352.831,4945.65 L 346.772,4933.3 L 345.836,4929.69M 390.531,4644.78 L 390.531,4574.37 L 383.716,4572.23 L 371.688,4565.55 L 361.251,4556.59 L 352.831,4545.72 L 346.772,4533.37 L 345.836,4529.75 L 311.541,4529.75 L 307.128,4538.25 L 323.725,4573.66 L 355.16,4602.35 L 356.54,4603.9 L 357.568,4605.7 L 358.204,4607.68 L 358.418,4609.74 L 358.204,4611.8 L 357.568,4613.77 L 356.538,4615.57 L 355.16,4617.12 L 323.727,4645.82 L 307.126,4681.23 L 311.537,4689.72 L 345.804,4689.72 L 349.487,4679.78 L 356.764,4668.11 L 366.243,4658.14 L 377.533,4650.28 L 390.531,4644.78M 675.219,4929.69 L 671.536,4939.63 L 664.259,4951.3 L 654.781,4961.27 L 643.49,4969.13 L 630.492,4974.63 L 630.492,5008.64 L 639.247,5013.21 L 666.059,5002.11 L 697.292,4973.6 L 713.893,4938.18 L 709.48,4929.69 L 675.219,4929.69M 397.458,1450.24 L 397.458,1497.16 L 263.623,1497.16 L 263.623,1450.24 L 230.268,1450.24 L 223.627,1456.88 L 223.627,1505.12 L 229.714,1519.82 L 240.964,1531.07 L 255.662,1537.16 L 275.393,1537.16 L 279.218,1537.92 L 280.948,1538.84 L 283.706,1541.6 L 285.199,1545.21 L 285.197,1549.11 L 283.704,1552.71 L 280.946,1555.47 L 264.689,1566.33 L 245.104,1595.64 L 238.229,1630.21 L 245.102,1664.78 L 264.687,1694.09 L 293.996,1713.68 L 329.624,1720.96 L 332.868,1723.13 L 334.112,1724.64 L 335.035,1726.37 L 335.795,1730.2 L 335.035,1734.02 L 334.112,1735.75 L 331.352,1738.51 L 329.624,1739.43 L 294,1746.71 L 264.689,1766.3 L 245.104,1795.61 L 238.227,1830.18 L 245.102,1864.75 L 264.687,1894.06 L 293.996,1913.65 L 327.749,1920.36 L 330.536,1921.41 L 333.328,1920.36 L 367.076,1913.65 L 396.042,1894.53 L 399.867,1893.77 L 401.819,1893.96 L 405.422,1895.45 L 664.731,2154.49 L 676.997,2162.68 L 691.457,2165.56 L 891.631,2165.56 L 895.456,2166.32 L 897.184,2167.25 L 1040.21,2310 L 1042.37,2313.24 L 1043.13,2317.07 L 1042.37,2320.9 L 1037.92,2331.62 L 1037.89,2368.41 L 1051.94,2402.43 L 1077.94,2428.47 L 1109.5,2441.79 L 1111.02,2443.03 L 1113.18,2446.28 L 1113.94,2450.1 L 1113.17,2453.93 L 1111,2457.17 L 1109.49,2458.42 L 1078.08,2471.6 L 1052.04,2497.6 L 1037.92,2531.59 L 1037.89,2568.38 L 1051.94,2602.4 L 1077.94,2628.44 L 1109.5,2641.76 L 1111.02,2643 L 1113.18,2646.25 L 1113.94,2650.07 L 1113.17,2653.9 L 1111,2657.14 L 1109.49,2658.38 L 1078.08,2671.57 L 1052.04,2697.57 L 1037.92,2731.56 L 1037.89,2768.35 L 1051.94,2802.37 L 1077.94,2828.41 L 1086.93,2832.35 L 1089.68,2835.11 L 1090.6,2836.84 L 1091.17,2838.71 L 1091.17,2842.61 L 1089.68,2846.22 L 1086.92,2848.97 L 1075.57,2853.88 L 1072.35,2863.66 L 1098.09,2889.4 L 1109.13,2884.49 L 1123.21,2881.49 L 1137.61,2881.49 L 1151.7,2884.49 L 1162.73,2889.4 L 1188.47,2863.67 L 1185.34,2854.14 L 1175.17,2850.43 L 1171.78,2848.36 L 1170.46,2846.86 L 1168.84,2843.23 L 1168.75,2839.26 L 1170.22,2835.57 L 1171.48,2834.01 L 1174.78,2831.79 L 1182.74,2828.5 L 1208.79,2802.5 L 1222.9,2768.51 L 1222.93,2731.72 L 1208.88,2697.7 L 1182.88,2671.66 L 1153.05,2659.27 L 1149.81,2657.1 L 1147.64,2653.86 L 1147.07,2651.98 L 1147.08,2648.08 L 1148.57,2644.48 L 1151.33,2641.72 L 1153.06,2640.8 L 1182.74,2628.53 L 1208.79,2602.54 L 1214.23,2589.93 L 1216.99,2587.18 L 1218.71,2586.26 L 1222.54,2585.49 L 1309.41,2585.49 L 1323.86,2582.62 L 1336.13,2574.42 L 1414.72,2495.83 L 1422.92,2483.56 L 1425.8,2469.09 L 1425.8,2191.11 L 1422.92,2176.64 L 1414.73,2164.38 L 1216.15,1965.8 L 1203.89,1957.61 L 1189.42,1954.73 L 749.292,1954.73 L 745.464,1953.97 L 743.736,1953.04 L 424.299,1633.61 L 422.808,1630 L 415.975,1595.64 L 396.39,1566.33 L 378.615,1554.23 L 376.447,1550.98 L 375.687,1547.16 L 376.447,1543.33 L 377.371,1541.6 L 378.615,1540.09 L 381.858,1537.92 L 385.685,1537.16 L 405.412,1537.16 L 420.11,1531.07 L 431.36,1519.82 L 437.451,1505.12 L 437.451,1456.88 L 430.808,1450.24 L 397.458,1450.24M 263.623,1410.25 L 263.623,1363.33 L 310.543,1363.33 L 310.543,1329.98 L 303.9,1323.33 L 255.668,1323.33 L 240.966,1329.42 L 229.716,1340.67 L 223.627,1355.37 L 223.627,1403.61 L 230.266,1410.25 L 263.623,1410.25M 350.537,1363.33 L 397.458,1363.33 L 397.458,1410.25 L 430.81,1410.25 L 437.451,1403.61 L 437.451,1355.38 L 431.362,1340.67 L 420.112,1329.42 L 405.41,1323.33 L 357.178,1323.33 L 350.537,1329.97 L 350.537,1363.33M 263.623,1030.31 L 230.268,1030.31 L 223.627,1036.95 L 223.627,1085.19 L 229.714,1099.88 L 240.964,1111.13 L 255.662,1117.22 L 303.902,1117.22 L 310.543,1110.58 L 310.543,1077.23 L 263.623,1077.23 L 263.623,1030.31M 397.458,1030.31 L 397.458,1077.23 L 350.537,1077.23 L 350.537,1110.58 L 357.176,1117.22 L 405.412,1117.22 L 420.11,1111.14 L 431.36,1099.89 L 437.451,1085.18 L 437.451,1036.95 L 430.808,1030.31 L 397.458,1030.31M 2297.9,2489.47 L 2308.94,2484.55 L 2323.02,2481.56 L 2337.42,2481.56 L 2351.51,2484.55 L 2362.54,2489.46 L 2388.28,2463.73 L 2385.15,2454.2 L 2373.18,2449.63 L 2371.59,2448.42 L 2370.27,2446.92 L 2368.65,2443.29 L 2368.56,2439.32 L 2369.11,2437.4 L 2370.03,2435.63 L 2372.82,2432.8 L 2382.55,2428.57 L 2408.6,2402.57 L 2422.71,2368.58 L 2422.74,2331.78 L 2408.69,2297.77 L 2382.69,2271.72 L 2348.7,2257.61 L 2311.9,2257.58 L 2277.89,2271.63 L 2251.84,2297.63 L 2237.73,2331.62 L 2237.7,2368.41 L 2251.75,2402.43 L 2277.75,2428.47 L 2285.01,2431.49 L 2288.25,2433.66 L 2289.49,2435.17 L 2290.98,2438.78 L 2290.98,2442.68 L 2289.48,2446.28 L 2288.24,2447.79 L 2285,2449.96 L 2275.37,2453.94 L 2272.16,2463.73 L 2297.9,2489.47M 2264.58,2530.38 L 2267.29,2522.05 L 2269.72,2517.85 L 2243.88,2492.01 L 2234.35,2495.14 L 2221.51,2530.38 L 2264.58,2530.38M 2264.58,2569.75 L 2222.09,2569.75 L 2222.39,2576.64 L 2234.1,2604.91 L 2243.88,2608.12 L 2269.72,2582.29 L 2267.29,2578.08 L 2264.58,2569.75 z " style="fill-opacity:1.000000;fill:rgb(103,198,105);stroke:rgb(0,0,0);stroke-width:2"/></g>
<g fill-rule="evenodd"><path d="M 1199.3,2750.03 L 1197.79,2764.35 L 1193.34,2778.05 L 1186.14,2790.52 L 1176.51,2801.22 L 1164.86,2809.69 L 1151.7,2815.55 L 1137.61,2818.54 L 1123.21,2818.54 L 1109.13,2815.55 L 1095.97,2809.69 L 1084.32,2801.22 L 1074.68,2790.52 L 1067.48,2778.05 L 1063.03,2764.35 L 1061.53,2750.03 L 1063.03,2735.71 L 1067.48,2722.02 L 1074.68,2709.54 L 1084.32,2698.84 L 1095.97,2690.38 L 1109.13,2684.52 L 1123.21,2681.53 L 1137.61,2681.53 L 1151.7,2684.52 L 1164.86,2690.38 L 1176.51,2698.84 L 1186.14,2709.54 L 1193.34,2722.02 L 1197.79,2735.71 L 1199.3,2750.03 z " style="fill-opacity:1.000000;fill:rgb(115,81,255);stroke:rgb(0,0,0);stroke-width:2"/></g>
<g fill-rule="evenodd"><path d="M 1199.3,5149.65 L 1197.79,5163.97 L 1193.34,5177.67 L 1186.14,5190.14 L 1176.51,5200.84 L 1164.86,5209.31 L 1151.7,5215.16 L 1137.61,5218.16 L 1123.21,5218.16 L 1109.13,5215.16 L 1095.97,5209.31 L 1084.32,5200.84 L 1074.68,5190.14 L 1067.48,5177.67 L 1063.03,5163.97 L 1061.53,5149.65 L 1063.03,5135.33 L 1067.48,5121.63 L 1074.68,5109.16 L 1084.32,5098.46 L 1095.97,5089.99 L 1109.13,5084.14 L 1123.21,5081.14 L 1137.61,5081.14 L 1151.7,5084.14 L 1164.86,5089.99 L 1176.51,5098.46 L 1186.14,5109.16 L 1193.34,5121.63 L 1197.79,5135.33 L 1199.3,5149.65 z " style="fill-opacity:1.000000;fill:rgb(74,236,41);stroke:rgb(0,0,0);stroke-width:2"/></g>
<g fill-rule="evenodd"><path d="M 2399.11,2350.1 L 2397.6,2364.42 L 2393.15,2378.11 L 2385.95,2390.59 L 2376.31,2401.29 L 2364.66,2409.75 L 2351.51,2415.61 L 2337.42,2418.6 L 2323.02,2418.6 L 2308.94,2415.61 L 2295.78,2409.75 L 2284.13,2401.29 L 2274.49,2390.59 L 2267.29,2378.11 L 2262.84,2364.42 L 2261.34,2350.1 L 2262.84,2335.78 L 2267.29,2322.08 L 2274.49,2309.61 L 2284.13,2298.9 L 2295.78,2290.44 L 2308.94,2284.58 L 2323.02,2281.59 L 2337.42,2281.59 L 2351.51,2284.58 L 2364.66,2290.44 L 2376.31,2298.9 L 2385.95,2309.61 L 2393.15,2322.08 L 2397.6,2335.78 L 2399.11,2350.1 z " style="fill-opacity:1.000000;fill:rgb(205,186,171);stroke:rgb(0,0,0);stroke-width:2"/></g>
<g fill-rule="evenodd"><path d="M 3402.37,4430.38 L 3391.34,4435.29 L 3377.25,4438.28 L 3362.86,4438.28 L 3348.77,4435.29 L 3337.74,4430.38 L 3312,4456.11 L 3315.12,4465.64 L 3327.09,4470.22 L 3330,4472.92 L 3331.63,4476.55 L 3331.87,4478.53 L 3331.71,4480.52 L 3330.24,4484.21 L 3327.45,4487.04 L 3317.72,4491.28 L 3291.68,4517.28 L 3289.51,4522.01 L 3288.26,4523.52 L 3286.75,4524.76 L 3283.15,4526.25 L 3258.97,4526.44 L 3257.02,4526.25 L 3253.41,4524.76 L 3250.66,4521.99 L 3248.55,4517.41 L 3222.56,4491.37 L 3190.99,4478.06 L 3188.24,4475.3 L 3186.75,4471.69 L 3186.75,4467.79 L 3187.32,4465.91 L 3188.25,4464.19 L 3191.01,4461.43 L 3222.42,4448.24 L 3248.46,4422.25 L 3252.4,4413.26 L 3255.16,4410.51 L 3258.76,4409.02 L 3260.71,4408.83 L 3262.66,4409.02 L 3266.26,4410.51 L 3269.02,4413.27 L 3273.93,4424.62 L 3283.72,4427.83 L 3309.55,4402 L 3307.13,4397.79 L 3302.68,4384.1 L 3301.17,4369.78 L 3302.68,4355.45 L 3307.13,4341.76 L 3309.55,4337.56 L 3283.72,4311.72 L 3274.19,4314.85 L 3269.61,4326.82 L 3268.41,4328.41 L 3266.91,4329.72 L 3263.28,4331.35 L 3261.3,4331.59 L 3259.31,4331.43 L 3255.62,4329.96 L 3252.79,4327.17 L 3248.55,4317.45 L 3222.56,4291.4 L 3190.99,4278.09 L 3188.24,4275.33 L 3186.75,4271.72 L 3186.75,4267.82 L 3187.32,4265.95 L 3188.25,4264.22 L 3191.01,4261.46 L 3222.42,4248.28 L 3248.46,4222.28 L 3252.4,4213.3 L 3255.16,4210.54 L 3258.76,4209.05 L 3260.71,4208.86 L 3262.66,4209.05 L 3266.26,4210.54 L 3269.02,4213.3 L 3273.93,4224.65 L 3283.72,4227.87 L 3309.55,4202.03 L 3307.13,4197.82 L 3302.68,4184.13 L 3301.17,4169.81 L 3302.68,4155.49 L 3307.13,4141.79 L 3309.55,4137.59 L 3283.72,4111.75 L 3274.19,4114.88 L 3269.61,4126.85 L 3268.41,4128.44 L 3266.91,4129.76 L 3263.28,4131.38 L 3261.3,4131.62 L 3259.31,4131.47 L 3255.62,4130 L 3252.79,4127.2 L 3248.55,4117.48 L 3222.56,4091.43 L 3190.99,4078.12 L 3188.24,4075.36 L 3186.75,4071.75 L 3186.75,4067.85 L 3187.32,4065.98 L 3188.25,4064.25 L 3191.01,4061.49 L 3222.42,4048.31 L 3248.46,4022.31 L 3252.4,4013.33 L 3255.16,4010.57 L 3258.76,4009.08 L 3260.71,4008.89 L 3262.66,4009.08 L 3266.26,4010.58 L 3269.02,4013.33 L 3273.93,4024.69 L 3283.72,4027.9 L 3309.55,4002.06 L 3307.13,3997.86 L 3302.68,3984.16 L 3301.17,3969.84 L 3302.68,3955.52 L 3307.13,3941.82 L 3309.55,3937.62 L 3283.72,3911.78 L 3274.19,3914.91 L 3269.61,3926.88 L 3268.41,3928.47 L 3266.91,3929.79 L 3263.28,3931.41 L 3261.3,3931.65 L 3259.31,3931.5 L 3255.62,3930.03 L 3252.79,3927.24 L 3248.55,3917.51 L 3222.56,3891.47 L 3190.99,3878.15 L 3188.24,3875.39 L 3186.75,3871.79 L 3186.75,3867.89 L 3187.32,3866.01 L 3188.25,3864.28 L 3191.01,3861.53 L 3222.42,3848.34 L 3248.46,3822.34 L 3252.4,3813.36 L 3255.16,3810.6 L 3258.76,3809.11 L 3260.71,3808.92 L 3262.66,3809.11 L 3266.26,3810.61 L 3269.02,3813.37 L 3273.93,3824.72 L 3283.72,3827.93 L 3309.55,3802.09 L 3307.13,3797.89 L 3302.68,3784.19 L 3301.17,3769.87 L 3302.68,3755.55 L 3307.13,3741.85 L 3309.55,3737.65 L 3283.72,3711.81 L 3274.19,3714.94 L 3269.61,3726.91 L 3268.41,3728.5 L 3265.17,3730.81 L 3263.28,3731.44 L 3259.31,3731.53 L 3255.62,3730.06 L 3254.06,3728.81 L 3251.84,3725.51 L 3248.55,3717.54 L 3222.56,3691.5 L 3213.57,3687.56 L 3210.82,3684.8 L 3209.89,3683.07 L 3209.33,3681.2 L 3209.33,3677.3 L 3210.82,3673.69 L 3213.58,3670.94 L 3224.93,3666.03 L 3228.14,3656.24 L 3202.41,3630.5 L 3191.37,3635.42 L 3177.29,3638.41 L 3162.89,3638.41 L 3148.8,3635.42 L 3137.77,3630.5 L 3112.03,3656.24 L 3115.16,3665.77 L 3127.12,3670.34 L 3130.03,3673.05 L 3131.66,3676.68 L 3131.9,3678.66 L 3131.74,3680.65 L 3130.27,3684.34 L 3127.48,3687.17 L 3117.75,3691.41 L 3091.71,3717.4 L 3087.19,3728.28 L 3085.03,3731.52 L 3083.51,3732.76 L 3079.91,3734.25 L 3077.96,3734.44 L 3011.1,3734.44 L 2996.63,3737.32 L 2984.36,3745.52 L 2930.23,3799.65 L 2926.98,3801.82 L 2925.11,3802.39 L 2921.21,3802.39 L 2908.61,3797.37 L 2871.82,3797.33 L 2837.8,3811.39 L 2811.76,3837.38 L 2797.64,3871.37 L 2797.61,3908.17 L 2811.66,3942.19 L 2837.66,3968.23 L 2871.65,3982.34 L 2908.45,3982.37 L 2942.46,3968.32 L 2968.51,3942.32 L 2982.62,3908.33 L 2982.65,3871.53 L 2978.15,3860.65 L 2977.4,3856.83 L 2978.16,3853 L 2980.32,3849.76 L 3021.86,3808.23 L 3025.1,3806.06 L 3028.93,3805.3 L 3079.9,3805.49 L 3083.51,3806.99 L 3086.27,3809.75 L 3091.62,3822.2 L 3117.62,3848.25 L 3149.18,3861.56 L 3150.69,3862.81 L 3152.86,3866.05 L 3153.61,3869.88 L 3152.85,3873.7 L 3150.68,3876.95 L 3149.16,3878.19 L 3117.75,3891.37 L 3091.71,3917.37 L 3087.19,3928.25 L 3085.03,3931.49 L 3083.51,3932.73 L 3079.91,3934.22 L 3077.96,3934.41 L 3031.1,3934.41 L 3016.63,3937.29 L 3004.36,3945.48 L 2918.38,4031.47 L 2915.13,4033.64 L 2913.26,4034.2 L 2800.34,4034.2 L 2796.74,4032.71 L 2793.98,4029.95 L 2788.63,4017.49 L 2762.63,3991.45 L 2728.64,3977.34 L 2691.84,3977.3 L 2657.83,3991.36 L 2631.78,4017.36 L 2617.67,4051.35 L 2617.64,4088.14 L 2631.69,4122.16 L 2657.69,4148.2 L 2691.68,4162.31 L 2728.47,4162.35 L 2762.49,4148.29 L 2788.53,4122.29 L 2793.98,4109.69 L 2796.73,4106.93 L 2800.34,4105.44 L 2929.15,4105.25 L 2943.61,4102.38 L 2955.87,4094.18 L 3043.37,4006.95 L 3045.1,4006.03 L 3048.93,4005.27 L 3079.9,4005.46 L 3083.51,4006.96 L 3086.27,4009.72 L 3091.62,4022.17 L 3117.62,4048.22 L 3149.18,4061.53 L 3150.69,4062.77 L 3152.86,4066.02 L 3153.61,4069.85 L 3152.85,4073.67 L 3150.68,4076.92 L 3149.16,4078.16 L 3117.75,4091.34 L 3091.71,4117.34 L 3087.19,4128.22 L 3085.03,4131.46 L 3083.51,4132.7 L 3079.91,4134.19 L 3077.96,4134.38 L 2891.12,4134.38 L 2876.65,4137.26 L 2864.38,4145.45 L 2698.41,4311.42 L 2695.17,4313.59 L 2693.29,4314.16 L 2420.41,4314.16 L 2416.8,4312.66 L 2414.04,4309.9 L 2408.69,4297.45 L 2382.69,4271.4 L 2351.13,4258.09 L 2348.37,4255.33 L 2346.88,4251.73 L 2346.89,4247.82 L 2347.46,4245.95 L 2348.38,4244.22 L 2351.14,4241.47 L 2382.55,4228.28 L 2408.6,4202.28 L 2422.71,4168.29 L 2422.74,4131.5 L 2408.69,4097.48 L 2382.69,4071.44 L 2352.86,4059.05 L 2349.61,4056.88 L 2347.45,4053.63 L 2346.88,4051.76 L 2346.89,4047.86 L 2348.38,4044.25 L 2351.14,4041.5 L 2352.87,4040.57 L 2382.55,4028.31 L 2408.6,4002.31 L 2413.11,3991.44 L 2414.04,3989.71 L 2416.79,3986.95 L 2420.4,3985.46 L 2429.23,3985.27 L 2443.69,3982.4 L 2455.95,3974.2 L 2754.51,3675.64 L 2762.71,3663.38 L 2765.58,3648.91 L 2765.58,2668.87 L 2766.34,2665.04 L 2767.27,2663.31 L 2861.88,2568.43 L 2863.4,2567.18 L 2867,2565.69 L 3259.87,2565.69 L 3263.48,2567.19 L 3266.24,2569.95 L 3271.59,2582.4 L 3297.59,2608.45 L 3331.58,2622.56 L 3368.37,2622.59 L 3402.39,2608.54 L 3428.43,2582.54 L 3442.54,2548.55 L 3442.58,2511.75 L 3428.52,2477.74 L 3402.53,2451.69 L 3368.54,2437.58 L 3331.74,2437.55 L 3297.73,2451.6 L 3271.68,2477.6 L 3266.24,2490.21 L 3263.48,2492.96 L 3259.88,2494.45 L 2851.12,2494.64 L 2836.66,2497.52 L 2824.39,2505.71 L 2705.8,2624.3 L 2697.61,2636.57 L 2694.73,2651.02 L 2694.54,3633.03 L 2693.04,3636.63 L 2691.8,3638.15 L 2424.7,3904.97 L 2422.97,3905.89 L 2419.15,3906.65 L 2417.19,3906.46 L 2413.59,3904.97 L 2410.83,3902.2 L 2408.69,3897.51 L 2382.69,3871.47 L 2352.86,3859.08 L 2349.61,3856.91 L 2347.45,3853.67 L 2346.69,3849.84 L 2347.46,3846.01 L 2349.63,3842.77 L 2352.87,3840.61 L 2382.55,3828.34 L 2408.6,3802.35 L 2422.71,3768.35 L 2422.74,3731.56 L 2408.69,3697.54 L 2382.69,3671.5 L 2351.13,3658.19 L 2349.61,3656.94 L 2347.45,3653.7 L 2346.69,3649.87 L 2346.89,3647.92 L 2348.38,3644.32 L 2351.14,3641.56 L 2382.55,3628.38 L 2408.6,3602.38 L 2422.71,3568.39 L 2422.74,3531.59 L 2408.69,3497.58 L 2382.69,3471.53 L 2351.13,3458.22 L 2349.61,3456.97 L 2347.45,3453.73 L 2346.69,3449.9 L 2346.89,3447.95 L 2348.38,3444.35 L 2351.14,3441.59 L 2382.55,3428.41 L 2408.6,3402.41 L 2422.71,3368.42 L 2422.74,3331.62 L 2408.69,3297.61 L 2382.69,3271.56 L 2351.13,3258.25 L 2349.61,3257.01 L 2347.45,3253.76 L 2346.88,3251.89 L 2346.89,3247.98 L 2348.38,3244.38 L 2351.14,3241.62 L 2382.55,3228.44 L 2408.6,3202.44 L 2422.71,3168.45 L 2422.74,3131.68 L 2423.5,3127.86 L 2425.67,3124.62 L 2634.53,2915.76 L 2642.73,2903.5 L 2645.6,2889.03 L 2645.6,2448.9 L 2646.36,2445.08 L 2647.29,2443.35 L 2781.9,2308.47 L 2783.41,2307.22 L 2787.01,2305.73 L 3257.92,2305.54 L 3261.75,2306.3 L 3264.99,2308.47 L 3267.16,2311.72 L 3271.59,2322.44 L 3297.59,2348.49 L 3331.58,2362.6 L 3368.37,2362.63 L 3402.39,2348.58 L 3428.43,2322.58 L 3442.54,2288.59 L 3442.58,2251.8 L 3428.52,2217.78 L 3402.53,2191.74 L 3368.54,2177.62 L 3331.74,2177.59 L 3297.73,2191.64 L 3271.68,2217.64 L 3266.24,2230.25 L 3263.48,2233 L 3259.88,2234.49 L 2771.14,2234.68 L 2756.67,2237.56 L 2744.4,2245.76 L 2585.82,2404.34 L 2577.62,2416.6 L 2574.75,2431.06 L 2574.75,2871.2 L 2573.99,2875.02 L 2571.82,2878.27 L 2382.93,3066.88 L 2379.33,3068.37 L 2375.42,3068.37 L 2373.55,3067.8 L 2352.86,3059.21 L 2349.61,3057.04 L 2348.37,3055.52 L 2346.88,3051.92 L 2346.89,3048.02 L 2348.38,3044.41 L 2349.63,3042.9 L 2352.87,3040.73 L 2382.55,3028.47 L 2408.6,3002.47 L 2410.64,2997.54 L 2412.81,2994.31 L 2416.05,2992.14 L 2426.7,2989.83 L 2441.52,2979.92 L 2520.11,2901.33 L 2530.02,2886.51 L 2533.5,2869.03 L 2533.5,2372.18 L 2534.26,2368.35 L 2536.42,2365.11 L 2726.68,2175.12 L 2728.41,2174.19 L 2732.24,2173.43 L 2849.16,2173.43 L 2866.63,2169.96 L 2881.45,2160.05 L 2980.04,2061.46 L 2989.94,2046.64 L 2993.42,2029.16 L 2993.61,1790.75 L 2994.18,1788.87 L 2996.35,1785.63 L 2998.98,1783.79 L 3023.58,1759.23 L 3025.52,1756.43 L 3028.76,1754.26 L 3030.64,1753.69 L 3367.97,1753.5 L 3371.8,1754.26 L 3373.53,1755.19 L 3603.27,1984.77 L 3604.36,1986.56 L 3605.05,1988.53 L 3605.33,1990.6 L 3605.16,1992.68 L 3597.52,2011.67 L 3597.48,2048.46 L 3611.54,2082.48 L 3637.54,2108.53 L 3642.26,2110.7 L 3643.78,2111.94 L 3645.02,2113.45 L 3646.51,2117.06 L 3646.51,4389.64 L 3645.02,4393.25 L 3643.77,4394.76 L 3515.02,4523.52 L 3511.78,4525.68 L 3509.9,4526.25 L 3458.94,4526.44 L 3455.11,4525.68 L 3451.87,4523.51 L 3450.62,4521.99 L 3448.52,4517.41 L 3422.52,4491.37 L 3413.54,4487.43 L 3410.78,4484.67 L 3409.86,4482.94 L 3409.29,4481.07 L 3409.3,4477.17 L 3410.79,4473.57 L 3413.55,4470.81 L 3424.9,4465.9 L 3428.11,4456.12 L 3402.37,4430.38M 3430.56,3737.65 L 3432.99,3741.85 L 3437.44,3755.55 L 3438.94,3769.87 L 3437.44,3784.19 L 3432.99,3797.89 L 3430.56,3802.09 L 3456.39,3827.93 L 3465.92,3824.8 L 3479.77,3786.8 L 3477.89,3743.3 L 3466.18,3715.03 L 3456.39,3711.82 L 3430.56,3737.65M 3430.56,4337.55 L 3432.99,4341.76 L 3437.44,4355.45 L 3438.94,4369.78 L 3437.44,4384.1 L 3432.99,4397.79 L 3430.56,4402 L 3456.39,4427.84 L 3465.92,4424.71 L 3479.77,4386.7 L 3477.89,4343.2 L 3466.18,4314.93 L 3456.39,4311.72 L 3430.56,4337.55M 3430.56,4137.58 L 3432.99,4141.79 L 3437.44,4155.49 L 3438.94,4169.81 L 3437.44,4184.13 L 3432.99,4197.82 L 3430.56,4202.03 L 3456.39,4227.87 L 3465.92,4224.74 L 3479.77,4186.73 L 3477.89,4143.23 L 3466.18,4114.96 L 3456.39,4111.75 L 3430.56,4137.58M 3430.56,3937.62 L 3432.99,3941.82 L 3437.44,3955.52 L 3438.94,3969.84 L 3437.44,3984.16 L 3432.99,3997.86 L 3430.56,4002.06 L 3456.39,4027.9 L 3465.92,4024.77 L 3479.77,3986.77 L 3477.89,3943.26 L 3466.18,3915 L 3456.39,3911.78 L 3430.56,3937.62M 3109.58,3537.68 L 3083.75,3511.85 L 3074.22,3514.98 L 3060.37,3552.98 L 3062.25,3596.48 L 3073.96,3624.75 L 3083.75,3627.96 L 3109.59,3602.13 L 3107.16,3597.92 L 3102.71,3584.22 L 3101.2,3569.9 L 3102.71,3555.58 L 3107.16,3541.88 L 3109.58,3537.68M 3202.41,3509.3 L 3228.14,3483.57 L 3225.02,3474.03 L 3187.01,3460.19 L 3143.51,3462.07 L 3115.24,3473.78 L 3112.03,3483.57 L 3137.76,3509.3 L 3148.8,3504.39 L 3162.89,3501.4 L 3177.29,3501.4 L 3191.37,3504.39 L 3202.41,3509.3M 3430.56,3537.68 L 3432.99,3541.88 L 3437.44,3555.58 L 3438.94,3569.9 L 3437.44,3584.22 L 3432.99,3597.92 L 3430.56,3602.13 L 3456.39,3627.96 L 3465.92,3624.83 L 3479.77,3586.83 L 3477.89,3543.33 L 3466.18,3515.06 L 3456.39,3511.85 L 3430.56,3537.68M 3389.74,3635.76 L 3389.74,3704.02 L 3391.34,3704.36 L 3402.38,3709.27 L 3428.11,3683.54 L 3424.66,3673.01 L 3424.16,3669.89 L 3424.66,3666.77 L 3428.11,3656.24 L 3402.37,3630.5 L 3391.34,3635.42 L 3389.74,3635.76M 3389.74,4103.95 L 3391.34,4104.29 L 3402.38,4109.2 L 3428.11,4083.47 L 3424.66,4072.94 L 3424.16,4069.82 L 3424.66,4066.71 L 3428.11,4056.18 L 3402.37,4030.44 L 3391.34,4035.35 L 3389.74,4035.69 L 3389.74,4103.95M 3389.74,4303.92 L 3391.34,4304.26 L 3402.38,4309.17 L 3428.11,4283.44 L 3424.66,4272.91 L 3424.16,4269.79 L 3424.66,4266.67 L 3428.11,4256.15 L 3402.37,4230.41 L 3391.34,4235.32 L 3389.74,4235.66 L 3389.74,4303.92M 3389.74,3835.72 L 3389.74,3903.98 L 3391.34,3904.33 L 3402.38,3909.24 L 3428.11,3883.5 L 3424.66,3872.97 L 3424.16,3869.86 L 3424.66,3866.74 L 3428.11,3856.21 L 3402.37,3830.47 L 3391.34,3835.38 L 3389.74,3835.72M 3389.74,3461.19 L 3389.74,3504.05 L 3391.34,3504.39 L 3402.38,3509.3 L 3428.11,3483.57 L 3424.98,3474.03 L 3389.74,3461.19M 3350.38,3461.77 L 3343.48,3462.07 L 3315.21,3473.78 L 3312,3483.57 L 3337.73,3509.3 L 3348.77,3504.39 L 3350.38,3504.05 L 3350.38,3461.77M 3350.38,3635.76 L 3348.77,3635.42 L 3337.74,3630.5 L 3312,3656.24 L 3315.45,3666.77 L 3315.95,3669.89 L 3315.45,3673.01 L 3312,3683.53 L 3337.73,3709.27 L 3348.77,3704.36 L 3350.38,3704.02 L 3350.38,3635.76M 3350.38,4103.95 L 3350.38,4035.69 L 3348.77,4035.35 L 3337.74,4030.44 L 3312,4056.18 L 3315.45,4066.71 L 3315.95,4069.82 L 3315.45,4072.94 L 3312,4083.47 L 3337.73,4109.21 L 3348.77,4104.29 L 3350.38,4103.95M 3350.38,4303.92 L 3350.38,4235.66 L 3348.77,4235.32 L 3337.74,4230.41 L 3312,4256.15 L 3315.45,4266.67 L 3315.95,4269.79 L 3315.45,4272.91 L 3312,4283.44 L 3337.73,4309.18 L 3348.77,4304.26 L 3350.38,4303.92M 3350.38,3835.73 L 3348.77,3835.38 L 3337.74,3830.47 L 3312,3856.21 L 3315.45,3866.74 L 3315.95,3869.86 L 3315.45,3872.97 L 3312,3883.5 L 3337.73,3909.24 L 3348.77,3904.33 L 3350.38,3903.99 L 3350.38,3835.73M 3304.42,3589.58 L 3235.73,3589.58 L 3233.02,3597.92 L 3230.59,3602.13 L 3256.42,3627.96 L 3266.95,3624.51 L 3270.07,3624.01 L 3273.19,3624.51 L 3283.72,3627.96 L 3309.55,3602.13 L 3307.13,3597.92 L 3304.42,3589.58M 3304.42,3550.22 L 3307.13,3541.88 L 3309.55,3537.68 L 3283.72,3511.85 L 3273.19,3515.3 L 3270.07,3515.8 L 3266.95,3515.3 L 3256.42,3511.85 L 3230.59,3537.68 L 3233.02,3541.88 L 3235.73,3550.22 L 3304.42,3550.22 z " style="fill-opacity:1.000000;fill:rgb(242,251,227);stroke:rgb(0,0,0);stroke-width:2"/></g>
<g fill-rule="evenodd"><path d="M 1091.04,3093.9 L 1095.97,3090.31 L 1109.13,3084.46 L 1123.21,3081.46 L 1137.61,3081.46 L 1151.7,3084.46 L 1164.86,3090.31 L 1176.51,3098.78 L 1186.14,3109.48 L 1193.34,3121.95 L 1197.79,3135.65 L 1199.3,3149.97 L 1197.79,3164.29 L 1193.34,3177.99 L 1186.14,3190.46 L 1176.51,3201.16 L 1164.86,3209.63 L 1151.7,3215.48 L 1137.61,3218.48 L 1123.21,3218.48 L 1109.13,3215.48 L 1095.97,3209.63 L 1084.32,3201.16 L 1074.68,3190.46 L 1067.48,3177.99 L 1063.03,3164.29 L 1061.53,3149.97 L 1063.03,3135.65 L 1067.48,3121.95 L 1074.15,3110.41 L 902.097,2938.36 L 900.629,2936.57 L 899.538,2934.52 L 898.866,2932.31 L 898.64,2930 L 898.64,2794.92 L 785.574,2681.85 L 215.451,2681.85 L 82.3897,2814.91 L 82.3897,4204.91 L 175.455,4297.98 L 343.906,4297.98 L 344.71,4292.74 L 349.487,4279.84 L 356.764,4268.17 L 366.243,4258.2 L 377.533,4250.34 L 390.175,4244.91 L 403.651,4242.15 L 410.527,4241.8 L 424.213,4243.19 L 437.339,4247.31 L 449.367,4253.98 L 459.804,4262.94 L 468.224,4273.82 L 474.283,4286.17 L 477.731,4299.49 L 478.429,4313.23 L 476.345,4326.83 L 471.568,4339.73 L 464.291,4351.4 L 454.812,4361.37 L 443.522,4369.23 L 430.88,4374.65 L 417.404,4377.42 L 410.527,4377.77 L 396.842,4376.38 L 383.716,4372.26 L 371.688,4365.59 L 361.251,4356.63 L 352.831,4345.75 L 346.772,4333.4 L 343.716,4321.59 L 170.566,4321.59 L 168.26,4321.37 L 166.046,4320.69 L 164.005,4319.6 L 162.215,4318.14 L 62.2309,4218.15 L 60.7632,4216.36 L 59.6713,4214.32 L 58.9995,4212.11 L 58.7735,4209.8 L 58.7735,2810.02 L 58.9995,2807.72 L 59.6713,2805.51 L 60.7612,2803.46 L 62.2309,2801.67 L 202.209,2661.7 L 203.996,2660.23 L 206.038,2659.14 L 208.254,2658.47 L 210.559,2658.24 L 790.467,2658.24 L 792.771,2658.47 L 794.984,2659.14 L 797.026,2660.23 L 798.816,2661.7 L 918.797,2781.68 L 920.264,2783.47 L 921.356,2785.51 L 922.028,2787.72 L 922.256,2790.03 L 922.256,2925.12 L 1091.04,3093.9 z " style="fill-opacity:1.000000;fill:rgb(70,124,194);stroke:rgb(0,0,0);stroke-width:2"/></g>
<g fill-rule="evenodd"><path d="M 1091.04,4493.68 L 1095.97,4490.09 L 1109.13,4484.23 L 1123.21,4481.24 L 1137.61,4481.24 L 1151.7,4484.23 L 1164.86,4490.09 L 1176.51,4498.55 L 1186.14,4509.26 L 1193.34,4521.73 L 1197.79,4535.42 L 1199.3,4549.75 L 1197.79,4564.07 L 1193.34,4577.76 L 1186.14,4590.24 L 1176.51,4600.94 L 1164.86,4609.4 L 1151.7,4615.26 L 1137.61,4618.25 L 1123.21,4618.25 L 1109.13,4615.26 L 1095.97,4609.4 L 1084.32,4600.94 L 1074.68,4590.24 L 1067.48,4577.76 L 1063.03,4564.07 L 1061.53,4549.75 L 1063.03,4535.42 L 1067.48,4521.73 L 1074.15,4510.18 L 885.558,4321.59 L 677.117,4321.59 L 676.313,4326.83 L 671.536,4339.73 L 664.259,4351.4 L 654.781,4361.37 L 643.49,4369.23 L 630.848,4374.65 L 617.373,4377.42 L 610.496,4377.77 L 596.81,4376.38 L 583.684,4372.26 L 571.656,4365.59 L 561.219,4356.63 L 552.799,4345.75 L 546.74,4333.4 L 543.292,4320.08 L 542.594,4306.34 L 544.678,4292.74 L 549.455,4279.84 L 556.732,4268.17 L 566.211,4258.2 L 577.501,4250.34 L 590.143,4244.91 L 603.619,4242.15 L 610.496,4241.8 L 624.181,4243.19 L 637.307,4247.31 L 649.335,4253.98 L 659.772,4262.94 L 668.192,4273.82 L 674.251,4286.17 L 677.307,4297.98 L 890.451,4297.98 L 892.755,4298.2 L 894.968,4298.88 L 897.01,4299.97 L 898.8,4301.44 L 1091.04,4493.68 z " style="fill-opacity:1.000000;fill:rgb(84,248,27);stroke:rgb(0,0,0);stroke-width:2"/></g>
<g fill-rule="evenodd"><path d="M 677.117,4721.53 L 676.313,4726.76 L 671.536,4739.66 L 664.259,4751.34 L 654.781,4761.31 L 643.49,4769.17 L 630.848,4774.59 L 617.373,4777.36 L 610.496,4777.71 L 596.81,4776.32 L 583.684,4772.2 L 571.656,4765.52 L 561.219,4756.56 L 552.799,4745.68 L 546.74,4733.33 L 543.292,4720.02 L 542.594,4706.28 L 544.678,4692.68 L 549.455,4679.78 L 556.732,4668.11 L 566.211,4658.14 L 577.501,4650.28 L 590.143,4644.85 L 603.619,4642.08 L 610.496,4641.73 L 624.181,4643.12 L 637.307,4647.24 L 649.335,4653.92 L 659.772,4662.88 L 668.192,4673.76 L 674.251,4686.11 L 677.307,4697.91 L 810.464,4697.91 L 812.767,4698.14 L 814.981,4698.81 L 817.023,4699.9 L 818.812,4701.37 L 898.8,4781.36 L 900.267,4783.15 L 901.359,4785.19 L 902.031,4787.4 L 902.259,4789.71 L 902.259,5284.74 L 1035.32,5417.8 L 1362.72,5417.8 L 1362.99,5415.28 L 1367.44,5401.59 L 1374.64,5389.12 L 1384.27,5378.41 L 1395.92,5369.95 L 1409.08,5364.09 L 1423.17,5361.1 L 1437.56,5361.1 L 1451.65,5364.09 L 1464.81,5369.95 L 1476.46,5378.41 L 1486.09,5389.12 L 1493.3,5401.59 L 1497.74,5415.28 L 1499.25,5429.61 L 1497.74,5443.93 L 1493.3,5457.62 L 1486.09,5470.1 L 1476.46,5480.8 L 1464.81,5489.26 L 1451.65,5495.12 L 1437.56,5498.11 L 1423.17,5498.11 L 1409.08,5495.12 L 1395.92,5489.26 L 1384.27,5480.8 L 1374.64,5470.1 L 1367.44,5457.62 L 1362.99,5443.93 L 1362.72,5441.41 L 1030.43,5441.41 L 1028.12,5441.19 L 1025.91,5440.52 L 1023.87,5439.42 L 1022.08,5437.96 L 882.1,5297.98 L 880.633,5296.19 L 879.541,5294.15 L 878.869,5291.93 L 878.643,5289.63 L 878.643,4794.6 L 805.571,4721.53 L 677.117,4721.53 z " style="fill-opacity:1.000000;fill:rgb(232,231,141);stroke:rgb(0,0,0);stroke-width:2"/></g>
<g fill-rule="evenodd"><path d="M 1198.06,4761.52 L 1197.79,4764.04 L 1193.34,4777.73 L 1186.14,4790.2 L 1176.51,4800.91 L 1164.86,4809.37 L 1151.7,4815.23 L 1137.61,4818.22 L 1123.21,4818.22 L 1109.13,4815.23 L 1095.97,4809.37 L 1084.32,4800.91 L 1074.68,4790.2 L 1067.48,4777.73 L 1063.03,4764.04 L 1061.53,4749.71 L 1063.03,4735.39 L 1067.48,4721.7 L 1074.68,4709.23 L 1084.32,4698.52 L 1095.97,4690.06 L 1109.13,4684.2 L 1123.21,4681.21 L 1137.61,4681.21 L 1151.7,4684.2 L 1164.86,4690.06 L 1176.51,4698.52 L 1186.14,4709.23 L 1193.34,4721.7 L 1197.79,4735.39 L 1198.06,4737.91 L 1270.39,4737.91 L 1272.69,4738.13 L 1274.91,4738.81 L 1276.95,4739.9 L 1278.74,4741.37 L 2135.14,5597.77 L 4335.01,5597.77 L 4478.07,5454.71 L 4478.07,1132.08 L 4465.04,1128.18 L 4453.9,1121.99 L 4444.23,1113.69 L 4436.43,1103.62 L 4430.82,1092.17 L 4427.62,1079.84 L 4426.98,1067.11 L 4428.91,1054.52 L 4433.33,1042.56 L 4440.07,1031.75 L 4448.85,1022.51 L 4459.31,1015.23 L 4471.02,1010.21 L 4483.51,1007.64 L 4489.88,1007.32 L 4502.56,1008.61 L 4514.71,1012.42 L 4525.86,1018.61 L 4535.53,1026.91 L 4543.33,1036.99 L 4548.94,1048.43 L 4552.13,1060.76 L 4552.78,1073.49 L 4550.85,1086.09 L 4546.42,1098.04 L 4539.68,1108.85 L 4530.9,1118.09 L 4520.44,1125.37 L 4508.73,1130.39 L 4501.69,1131.84 L 4501.69,5459.6 L 4501.46,5461.91 L 4500.79,5464.12 L 4499.69,5466.16 L 4498.23,5467.95 L 4348.25,5617.93 L 4346.46,5619.4 L 4344.42,5620.49 L 4342.2,5621.16 L 4339.9,5621.39 L 2130.25,5621.39 L 2127.95,5621.16 L 2125.73,5620.49 L 2123.69,5619.4 L 2121.9,5617.93 L 1265.5,4761.52 L 1198.06,4761.52 z " style="fill-opacity:1.000000;fill:rgb(118,90,46);stroke:rgb(0,0,0);stroke-width:2"/></g>
<g fill-rule="evenodd"><path d="M 1198.06,4961.49 L 1197.79,4964 L 1193.34,4977.7 L 1186.14,4990.17 L 1176.51,5000.87 L 1164.86,5009.34 L 1151.7,5015.2 L 1137.61,5018.19 L 1123.21,5018.19 L 1109.13,5015.2 L 1095.97,5009.34 L 1084.32,5000.87 L 1074.68,4990.17 L 1067.48,4977.7 L 1063.03,4964 L 1061.53,4949.68 L 1063.03,4935.36 L 1067.48,4921.67 L 1074.68,4909.19 L 1084.32,4898.49 L 1095.97,4890.03 L 1109.13,4884.17 L 1123.21,4881.18 L 1137.61,4881.18 L 1151.7,4884.17 L 1164.86,4890.03 L 1176.51,4898.49 L 1186.14,4909.19 L 1193.34,4921.67 L 1197.79,4935.36 L 1198.06,4937.87 L 1290.39,4937.87 L 1292.69,4938.1 L 1294.9,4938.77 L 1296.95,4939.87 L 1298.74,4941.33 L 2095.15,5737.75 L 2822.49,5737.75 L 2822.75,5735.23 L 2827.2,5721.54 L 2834.4,5709.07 L 2844.04,5698.36 L 2855.69,5689.9 L 2868.85,5684.04 L 2882.93,5681.05 L 2897.33,5681.05 L 2911.42,5684.04 L 2924.58,5689.9 L 2936.23,5698.36 L 2945.86,5709.07 L 2953.06,5721.54 L 2957.51,5735.23 L 2959.02,5749.56 L 2957.51,5763.88 L 2953.06,5777.57 L 2945.86,5790.04 L 2936.23,5800.75 L 2924.58,5809.21 L 2911.42,5815.07 L 2897.33,5818.06 L 2882.93,5818.06 L 2868.85,5815.07 L 2855.69,5809.21 L 2844.04,5800.75 L 2834.4,5790.04 L 2827.2,5777.57 L 2822.75,5763.88 L 2822.49,5761.36 L 2090.26,5761.36 L 2087.95,5761.14 L 2085.74,5760.47 L 2083.7,5759.37 L 2081.91,5757.91 L 1285.49,4961.49 L 1198.06,4961.49 z " style="fill-opacity:1.000000;fill:rgb(99,51,159);stroke:rgb(0,0,0);stroke-width:2"/></g>
<g fill-rule="evenodd"><path d="M 1091.04,3693.8 L 1095.97,3690.22 L 1109.13,3684.36 L 1123.21,3681.37 L 1137.61,3681.37 L 1151.7,3684.36 L 1164.86,3690.22 L 1176.51,3698.68 L 1186.14,3709.38 L 1193.34,3721.86 L 1197.79,3735.55 L 1199.3,3749.87 L 1197.79,3764.2 L 1193.34,3777.89 L 1186.14,3790.36 L 1176.51,3801.07 L 1164.86,3809.53 L 1151.7,3815.39 L 1137.61,3818.38 L 1123.21,3818.38 L 1109.13,3815.39 L 1095.97,3809.53 L 1084.32,3801.07 L 1074.68,3790.36 L 1067.48,3777.89 L 1063.03,3764.2 L 1061.53,3749.87 L 1063.03,3735.55 L 1067.48,3721.86 L 1074.15,3710.31 L 742.123,3378.28 L 740.655,3376.5 L 739.563,3374.45 L 738.891,3372.24 L 738.665,3369.93 L 738.665,2934.9 L 665.593,2861.83 L 355.428,2861.83 L 262.361,2954.89 L 262.361,3645 L 315.433,3698.07 L 343.906,3698.07 L 344.71,3692.84 L 349.487,3679.94 L 356.764,3668.26 L 366.243,3658.29 L 377.533,3650.44 L 390.175,3645.01 L 403.651,3642.24 L 410.527,3641.89 L 424.213,3643.28 L 437.339,3647.4 L 449.367,3654.08 L 459.804,3663.04 L 468.224,3673.92 L 474.283,3686.27 L 477.731,3699.59 L 478.429,3713.32 L 476.345,3726.92 L 471.568,3739.82 L 464.291,3751.5 L 454.812,3761.47 L 443.522,3769.32 L 430.88,3774.75 L 417.404,3777.52 L 410.527,3777.87 L 396.842,3776.48 L 383.716,3772.36 L 371.688,3765.68 L 361.251,3756.72 L 352.831,3745.84 L 346.772,3733.49 L 343.716,3721.69 L 310.543,3721.69 L 308.238,3721.46 L 306.024,3720.79 L 303.982,3719.7 L 302.193,3718.23 L 242.202,3658.24 L 240.735,3656.45 L 239.643,3654.41 L 238.971,3652.2 L 238.745,3649.89 L 238.745,2950 L 238.971,2947.7 L 239.643,2945.48 L 240.733,2943.44 L 242.202,2941.65 L 342.186,2841.67 L 343.974,2840.2 L 346.016,2839.11 L 348.231,2838.44 L 350.537,2838.21 L 670.486,2838.21 L 672.79,2838.44 L 675.003,2839.11 L 677.045,2840.2 L 678.835,2841.67 L 758.822,2921.66 L 760.29,2923.45 L 761.382,2925.49 L 762.053,2927.7 L 762.281,2930 L 762.281,3365.05 L 1091.04,3693.8 z " style="fill-opacity:1.000000;fill:rgb(201,154,102);stroke:rgb(0,0,0);stroke-width:2"/></g>
<g fill-rule="evenodd"><path d="M 1091.04,3293.87 L 1095.97,3290.28 L 1109.13,3284.42 L 1123.21,3281.43 L 1137.61,3281.43 L 1151.7,3284.42 L 1164.86,3290.28 L 1176.51,3298.75 L 1186.14,3309.45 L 1193.34,3321.92 L 1197.79,3335.62 L 1199.3,3349.94 L 1197.79,3364.26 L 1193.34,3377.96 L 1186.14,3390.43 L 1176.51,3401.13 L 1164.86,3409.59 L 1151.7,3415.45 L 1137.61,3418.44 L 1123.21,3418.44 L 1109.13,3415.45 L 1095.97,3409.59 L 1084.32,3401.13 L 1074.68,3390.43 L 1067.48,3377.96 L 1063.03,3364.26 L 1061.53,3349.94 L 1063.03,3335.62 L 1067.48,3321.92 L 1074.15,3310.38 L 842.107,3078.33 L 840.639,3076.54 L 839.547,3074.5 L 838.875,3072.29 L 838.649,3069.98 L 838.649,2834.91 L 745.58,2741.84 L 255.444,2741.84 L 142.38,2854.91 L 142.38,4004.94 L 235.445,4098.01 L 343.906,4098.01 L 344.71,4092.78 L 349.487,4079.88 L 356.764,4068.2 L 366.243,4058.23 L 377.533,4050.37 L 390.175,4044.95 L 403.651,4042.18 L 410.527,4041.83 L 424.213,4043.22 L 437.339,4047.34 L 449.367,4054.02 L 459.804,4062.98 L 468.224,4073.85 L 474.283,4086.2 L 477.731,4099.52 L 478.429,4113.26 L 476.345,4126.86 L 471.568,4139.76 L 464.291,4151.43 L 454.812,4161.4 L 443.522,4169.26 L 430.88,4174.69 L 417.404,4177.46 L 410.527,4177.81 L 396.842,4176.41 L 383.716,4172.29 L 371.688,4165.62 L 361.251,4156.66 L 352.831,4145.78 L 346.772,4133.43 L 343.716,4121.62 L 230.556,4121.62 L 228.251,4121.4 L 226.037,4120.73 L 223.995,4119.63 L 222.205,4118.17 L 122.221,4018.18 L 120.754,4016.39 L 119.662,4014.35 L 118.99,4012.14 L 118.764,4009.83 L 118.764,2850.02 L 118.99,2847.72 L 119.662,2845.5 L 120.752,2843.46 L 122.221,2841.67 L 242.202,2721.69 L 243.99,2720.22 L 246.032,2719.13 L 248.247,2718.46 L 250.553,2718.23 L 750.473,2718.23 L 752.777,2718.46 L 754.991,2719.13 L 757.032,2720.22 L 758.822,2721.69 L 858.806,2821.67 L 860.274,2823.46 L 861.366,2825.5 L 862.038,2827.72 L 862.266,2830.02 L 862.266,3065.09 L 1091.04,3293.87 z " style="fill-opacity:1.000000;fill:rgb(50,13,183);stroke:rgb(0,0,0);stroke-width:2"/></g>
<g fill-rule="evenodd"><path d="M 1091.04,3493.83 L 1095.97,3490.25 L 1109.13,3484.39 L 1123.21,3481.4 L 1137.61,3481.4 L 1151.7,3484.39 L 1164.86,3490.25 L 1176.51,3498.71 L 1186.14,3509.42 L 1193.34,3521.89 L 1197.79,3535.58 L 1199.3,3549.91 L 1197.79,3564.23 L 1193.34,3577.92 L 1186.14,3590.4 L 1176.51,3601.1 L 1164.86,3609.56 L 1151.7,3615.42 L 1137.61,3618.41 L 1123.21,3618.41 L 1109.13,3615.42 L 1095.97,3609.56 L 1084.32,3601.1 L 1074.68,3590.4 L 1067.48,3577.92 L 1063.03,3564.23 L 1061.53,3549.91 L 1063.03,3535.58 L 1067.48,3521.89 L 1074.15,3510.35 L 789.359,3225.56 L 787.891,3223.77 L 786.8,3221.72 L 786.128,3219.51 L 785.902,3217.2 L 785.902,2882.15 L 705.586,2801.83 L 315.435,2801.83 L 215.123,2902.15 L 215.123,3817.73 L 295.434,3898.04 L 343.906,3898.04 L 344.71,3892.81 L 349.487,3879.91 L 356.764,3868.23 L 366.243,3858.26 L 377.533,3850.4 L 390.175,3844.98 L 403.651,3842.21 L 410.527,3841.86 L 424.213,3843.25 L 437.339,3847.37 L 449.367,3854.05 L 459.804,3863.01 L 468.224,3873.89 L 474.283,3886.24 L 477.731,3899.55 L 478.429,3913.29 L 476.345,3926.89 L 471.568,3939.79 L 464.291,3951.46 L 454.812,3961.43 L 443.522,3969.29 L 430.88,3974.72 L 417.404,3977.49 L 410.527,3977.84 L 396.842,3976.45 L 383.716,3972.33 L 371.688,3965.65 L 361.251,3956.69 L 352.831,3945.81 L 346.772,3933.46 L 343.716,3921.66 L 290.547,3921.66 L 288.241,3921.43 L 286.027,3920.76 L 283.986,3919.67 L 282.196,3918.2 L 194.964,3830.97 L 193.496,3829.18 L 192.404,3827.14 L 191.732,3824.92 L 191.506,3822.62 L 191.506,2897.26 L 191.732,2894.95 L 192.404,2892.74 L 193.494,2890.7 L 194.964,2888.91 L 302.193,2781.68 L 303.98,2780.21 L 306.022,2779.12 L 308.238,2778.45 L 310.543,2778.22 L 710.48,2778.22 L 712.783,2778.45 L 714.997,2779.12 L 717.039,2780.21 L 718.828,2781.68 L 806.058,2868.91 L 807.526,2870.7 L 808.618,2872.74 L 809.29,2874.96 L 809.518,2877.26 L 809.518,3212.31 L 1091.04,3493.83 z " style="fill-opacity:1.000000;fill:rgb(49,88,163);stroke:rgb(0,0,0);stroke-width:2"/></g>
<g fill-rule="evenodd"><path d="M 1091.04,4293.71 L 1095.97,4290.12 L 1109.13,4284.26 L 1123.21,4281.27 L 1137.61,4281.27 L 1151.7,4284.26 L 1164.86,4290.12 L 1176.51,4298.59 L 1186.14,4309.29 L 1193.34,4321.76 L 1197.79,4335.46 L 1199.3,4349.78 L 1197.79,4364.1 L 1193.34,4377.8 L 1186.14,4390.27 L 1176.51,4400.97 L 1164.86,4409.43 L 1151.7,4415.29 L 1137.61,4418.29 L 1123.21,4418.29 L 1109.13,4415.29 L 1095.97,4409.43 L 1084.32,4400.97 L 1074.68,4390.27 L 1067.48,4377.8 L 1063.03,4364.1 L 1061.53,4349.78 L 1063.03,4335.46 L 1067.48,4321.76 L 1074.15,4310.22 L 885.558,4121.62 L 677.117,4121.62 L 676.313,4126.86 L 671.536,4139.76 L 664.259,4151.43 L 654.781,4161.4 L 643.49,4169.26 L 630.848,4174.69 L 617.373,4177.46 L 610.496,4177.81 L 596.81,4176.41 L 583.684,4172.29 L 571.656,4165.62 L 561.219,4156.66 L 552.799,4145.78 L 546.74,4133.43 L 543.292,4120.11 L 542.594,4106.37 L 544.678,4092.78 L 549.455,4079.88 L 556.732,4068.2 L 566.211,4058.23 L 577.501,4050.37 L 590.143,4044.95 L 603.619,4042.18 L 610.496,4041.83 L 624.181,4043.22 L 637.307,4047.34 L 649.335,4054.02 L 659.772,4062.98 L 668.192,4073.85 L 674.251,4086.2 L 677.307,4098.01 L 890.451,4098.01 L 892.755,4098.24 L 894.968,4098.91 L 897.01,4100 L 898.8,4101.47 L 1091.04,4293.71 z " style="fill-opacity:1.000000;fill:rgb(90,37,93);stroke:rgb(0,0,0);stroke-width:2"/></g>
<g fill-rule="evenodd"><path d="M 1091.04,3893.77 L 1095.97,3890.19 L 1109.13,3884.33 L 1123.21,3881.33 L 1137.61,3881.33 L 1151.7,3884.33 L 1164.86,3890.19 L 1176.51,3898.65 L 1186.14,3909.35 L 1193.34,3921.82 L 1197.79,3935.52 L 1199.3,3949.84 L 1197.79,3964.16 L 1193.34,3977.86 L 1186.14,3990.33 L 1176.51,4001.03 L 1164.86,4009.5 L 1151.7,4015.36 L 1137.61,4018.35 L 1123.21,4018.35 L 1109.13,4015.36 L 1095.97,4009.5 L 1084.32,4001.03 L 1074.68,3990.33 L 1067.48,3977.86 L 1063.03,3964.16 L 1061.53,3949.84 L 1063.03,3935.52 L 1067.48,3921.82 L 1074.15,3910.28 L 885.558,3721.69 L 677.117,3721.69 L 676.313,3726.92 L 671.536,3739.82 L 664.259,3751.5 L 654.781,3761.47 L 643.49,3769.32 L 630.848,3774.75 L 617.373,3777.52 L 610.496,3777.87 L 596.81,3776.48 L 583.684,3772.36 L 571.656,3765.68 L 561.219,3756.72 L 552.799,3745.84 L 546.74,3733.49 L 543.292,3720.17 L 542.594,3706.44 L 544.678,3692.84 L 549.455,3679.94 L 556.732,3668.26 L 566.211,3658.29 L 577.501,3650.44 L 590.143,3645.01 L 603.619,3642.24 L 610.496,3641.89 L 624.181,3643.28 L 637.307,3647.4 L 649.335,3654.08 L 659.772,3663.04 L 668.192,3673.92 L 674.251,3686.27 L 677.307,3698.07 L 890.451,3698.07 L 892.755,3698.3 L 894.968,3698.97 L 897.01,3700.06 L 898.8,3701.53 L 1091.04,3893.77 z " style="fill-opacity:1.000000;fill:rgb(5,23,88);stroke:rgb(0,0,0);stroke-width:2"/></g>
<g fill-rule="evenodd"><path d="M 1091.04,4093.74 L 1095.97,4090.15 L 1109.13,4084.3 L 1123.21,4081.3 L 1137.61,4081.3 L 1151.7,4084.3 L 1164.86,4090.15 L 1176.51,4098.62 L 1186.14,4109.32 L 1193.34,4121.79 L 1197.79,4135.49 L 1199.3,4149.81 L 1197.79,4164.13 L 1193.34,4177.83 L 1186.14,4190.3 L 1176.51,4201 L 1164.86,4209.47 L 1151.7,4215.32 L 1137.61,4218.32 L 1123.21,4218.32 L 1109.13,4215.32 L 1095.97,4209.47 L 1084.32,4201 L 1074.68,4190.3 L 1067.48,4177.83 L 1063.03,4164.13 L 1061.53,4149.81 L 1063.03,4135.49 L 1067.48,4121.79 L 1074.15,4110.25 L 885.558,3921.66 L 677.117,3921.66 L 676.313,3926.89 L 671.536,3939.79 L 664.259,3951.46 L 654.781,3961.43 L 643.49,3969.29 L 630.848,3974.72 L 617.373,3977.49 L 610.496,3977.84 L 596.81,3976.45 L 583.684,3972.33 L 571.656,3965.65 L 561.219,3956.69 L 552.799,3945.81 L 546.74,3933.46 L 543.292,3920.14 L 542.594,3906.4 L 544.678,3892.81 L 549.455,3879.91 L 556.732,3868.23 L 566.211,3858.26 L 577.501,3850.4 L 590.143,3844.98 L 603.619,3842.21 L 610.496,3841.86 L 624.181,3843.25 L 637.307,3847.37 L 649.335,3854.05 L 659.772,3863.01 L 668.192,3873.89 L 674.251,3886.24 L 677.307,3898.04 L 890.451,3898.04 L 892.755,3898.27 L 894.968,3898.94 L 897.01,3900.03 L 898.8,3901.5 L 1091.04,4093.74 z " style="fill-opacity:1.000000;fill:rgb(233,94,212);stroke:rgb(0,0,0);stroke-width:2"/></g>
<g fill-rule="evenodd"><path d="M 1091.04,2294.03 L 1095.97,2290.44 L 1109.13,2284.58 L 1123.21,2281.59 L 1137.61,2281.59 L 1151.7,2284.58 L 1164.86,2290.44 L 1176.51,2298.9 L 1186.14,2309.61 L 1193.34,2322.08 L 1197.79,2335.78 L 1199.3,2350.1 L 1197.79,2364.42 L 1193.34,2378.11 L 1186.14,2390.59 L 1176.51,2401.29 L 1164.86,2409.75 L 1151.7,2415.61 L 1137.61,2418.6 L 1123.21,2418.6 L 1109.13,2415.61 L 1095.97,2409.75 L 1084.32,2401.29 L 1074.68,2390.59 L 1067.48,2378.11 L 1063.03,2364.42 L 1061.53,2350.1 L 1063.03,2335.78 L 1067.48,2322.08 L 1074.15,2310.54 L 905.555,2141.94 L 690.483,2141.94 L 688.177,2141.71 L 685.964,2141.04 L 683.922,2139.95 L 682.132,2138.48 L 394.046,1850.39 L 390.619,1859.65 L 383.456,1871.14 L 374.127,1880.96 L 363.015,1888.69 L 350.571,1894.03 L 337.309,1896.75 L 330.54,1897.1 L 317.07,1895.73 L 304.152,1891.68 L 292.314,1885.1 L 282.04,1876.28 L 273.751,1865.58 L 267.79,1853.42 L 264.395,1840.31 L 263.709,1826.79 L 265.761,1813.41 L 270.462,1800.71 L 277.625,1789.22 L 286.953,1779.41 L 298.065,1771.67 L 310.509,1766.33 L 323.771,1763.61 L 330.54,1763.26 L 344.01,1764.64 L 356.928,1768.69 L 368.766,1775.26 L 379.04,1784.08 L 387.329,1794.79 L 393.29,1806.94 L 396.69,1820.15 L 398.879,1821.83 L 695.37,2118.32 L 910.448,2118.32 L 912.751,2118.55 L 914.965,2119.22 L 917.007,2120.32 L 918.797,2121.78 L 1091.04,2294.03 z " style="fill-opacity:1.000000;fill:rgb(171,178,205);stroke:rgb(0,0,0);stroke-width:2"/></g>
<g fill-rule="evenodd"><path d="M 387.809,1664.19 L 383.456,1671.17 L 374.127,1680.99 L 363.015,1688.72 L 350.571,1694.06 L 337.309,1696.78 L 330.54,1697.13 L 317.07,1695.76 L 304.152,1691.71 L 292.314,1685.13 L 282.04,1676.31 L 273.751,1665.61 L 267.79,1653.45 L 264.395,1640.34 L 263.709,1626.82 L 265.761,1613.44 L 270.462,1600.74 L 277.625,1589.25 L 286.953,1579.44 L 298.065,1571.7 L 310.509,1566.36 L 323.771,1563.64 L 330.54,1563.29 L 344.01,1564.67 L 356.928,1568.72 L 368.766,1575.29 L 379.04,1584.11 L 387.329,1594.82 L 393.29,1606.97 L 396.686,1620.08 L 397.372,1633.6 L 396.476,1639.45 L 735.366,1978.35 L 1190.4,1978.35 L 1192.71,1978.57 L 1194.92,1979.25 L 1196.96,1980.34 L 1198.75,1981.81 L 1398.72,2181.77 L 1400.19,2183.56 L 1401.28,2185.6 L 1401.95,2187.82 L 1402.18,2190.12 L 1402.18,2470.08 L 1401.95,2472.38 L 1401.28,2474.6 L 1400.19,2476.64 L 1398.72,2478.43 L 1318.73,2558.42 L 1316.94,2559.89 L 1314.9,2560.98 L 1312.69,2561.65 L 1310.38,2561.87 L 1198.06,2561.87 L 1197.79,2564.39 L 1193.34,2578.08 L 1186.14,2590.55 L 1176.51,2601.26 L 1164.86,2609.72 L 1151.7,2615.58 L 1137.61,2618.57 L 1123.21,2618.57 L 1109.13,2615.58 L 1095.97,2609.72 L 1084.32,2601.26 L 1074.68,2590.55 L 1067.48,2578.08 L 1063.03,2564.39 L 1061.53,2550.06 L 1063.03,2535.74 L 1067.48,2522.05 L 1074.68,2509.58 L 1084.32,2498.87 L 1095.97,2490.41 L 1109.13,2484.55 L 1123.21,2481.56 L 1137.61,2481.56 L 1151.7,2484.55 L 1164.86,2490.41 L 1176.51,2498.87 L 1186.14,2509.58 L 1193.34,2522.05 L 1197.79,2535.74 L 1198.06,2538.26 L 1305.49,2538.26 L 1378.56,2465.19 L 1378.56,2195.02 L 1185.51,2001.96 L 730.477,2001.96 L 728.171,2001.74 L 725.957,2001.06 L 723.916,1999.97 L 722.126,1998.5 L 387.809,1664.19 z " style="fill-opacity:1.000000;fill:rgb(198,155,180);stroke:rgb(0,0,0);stroke-width:2"/></g>
<g fill-rule="evenodd"><path d="M 478.517,3490.23 L 545.654,3490.23 L 549.455,3479.97 L 556.732,3468.3 L 566.211,3458.33 L 577.501,3450.47 L 590.143,3445.04 L 603.619,3442.27 L 610.496,3441.92 L 624.181,3443.31 L 637.307,3447.43 L 649.335,3454.11 L 659.772,3463.07 L 668.192,3473.95 L 674.251,3486.3 L 677.699,3499.62 L 678.397,3513.36 L 676.313,3526.95 L 671.536,3539.85 L 664.259,3551.53 L 654.781,3561.5 L 643.49,3569.36 L 630.848,3574.78 L 617.373,3577.55 L 610.496,3577.9 L 596.81,3576.51 L 583.684,3572.39 L 571.656,3565.71 L 561.219,3556.75 L 552.799,3545.87 L 546.74,3533.52 L 545.724,3529.59 L 478.517,3529.59 L 478.517,3577.9 L 342.538,3577.9 L 342.538,3441.92 L 390.847,3441.92 L 390.847,3069.98 L 391.225,3066.14 L 392.344,3062.45 L 394.162,3059.05 L 396.61,3056.07 L 430.176,3022.5 L 427.585,3018.01 L 423.135,3004.32 L 421.63,2989.99 L 423.135,2975.67 L 427.585,2961.98 L 434.786,2949.51 L 444.422,2938.8 L 456.072,2930.34 L 469.228,2924.48 L 483.316,2921.49 L 497.714,2921.49 L 511.801,2924.48 L 524.957,2930.34 L 536.607,2938.8 L 546.244,2949.51 L 553.445,2961.98 L 557.894,2975.67 L 559.4,2989.99 L 557.894,3004.32 L 553.445,3018.01 L 546.244,3030.48 L 536.607,3041.19 L 524.957,3049.65 L 511.801,3055.51 L 497.714,3058.5 L 483.316,3058.5 L 469.228,3055.51 L 457.886,3050.46 L 430.208,3078.13 L 430.208,3441.92 L 478.517,3441.92 L 478.517,3490.23 z " style="fill-opacity:1.000000;fill:rgb(84,17,14);stroke:rgb(0,0,0);stroke-width:2"/></g>
<g fill-rule="evenodd"><path d="M 457.882,2269.64 L 469.228,2264.59 L 483.316,2261.59 L 497.714,2261.59 L 511.801,2264.59 L 524.957,2270.44 L 536.607,2278.91 L 546.244,2289.61 L 553.445,2302.08 L 556.152,2310.42 L 744.824,2310.42 L 747.534,2302.08 L 754.735,2289.61 L 764.371,2278.91 L 776.021,2270.44 L 789.177,2264.59 L 803.265,2261.59 L 817.663,2261.59 L 831.75,2264.59 L 844.906,2270.44 L 856.556,2278.91 L 866.193,2289.61 L 873.394,2302.08 L 877.843,2315.78 L 879.349,2330.1 L 877.843,2344.42 L 873.394,2358.12 L 866.193,2370.59 L 856.556,2381.29 L 844.906,2389.76 L 831.75,2395.61 L 817.663,2398.61 L 803.265,2398.61 L 789.177,2395.61 L 776.021,2389.76 L 764.371,2381.29 L 754.735,2370.59 L 747.534,2358.12 L 744.826,2349.78 L 556.154,2349.78 L 553.445,2358.12 L 546.244,2370.59 L 536.607,2381.29 L 524.957,2389.76 L 511.801,2395.61 L 497.714,2398.61 L 483.316,2398.61 L 469.228,2395.61 L 456.072,2389.76 L 444.422,2381.29 L 434.786,2370.59 L 427.585,2358.12 L 423.135,2344.42 L 421.63,2330.1 L 423.135,2315.78 L 427.585,2302.08 L 430.174,2297.6 L 316.622,2184.04 L 314.175,2181.06 L 312.357,2177.66 L 311.237,2173.97 L 310.859,2170.13 L 310.859,2093.75 L 304.152,2091.64 L 292.314,2085.07 L 282.04,2076.25 L 273.751,2065.54 L 267.79,2053.39 L 264.395,2040.28 L 263.709,2026.76 L 265.761,2013.38 L 270.462,2000.68 L 277.625,1989.19 L 286.953,1979.37 L 298.065,1971.64 L 310.509,1966.3 L 323.771,1963.57 L 330.54,1963.23 L 344.01,1964.6 L 356.928,1968.65 L 368.766,1975.22 L 379.04,1984.05 L 387.329,1994.75 L 393.29,2006.91 L 396.686,2020.02 L 397.372,2033.54 L 395.32,2046.92 L 390.619,2059.62 L 383.456,2071.11 L 374.127,2080.92 L 363.015,2088.66 L 350.221,2094.07 L 350.221,2161.97 L 457.882,2269.64 z " style="fill-opacity:1.000000;fill:rgb(130,116,65);stroke:rgb(0,0,0);stroke-width:2"/></g>
</svg>
