M48
;DRILL file {KiCad 4.0.6-e0-6349~53~ubuntu16.04.1} date Sun May 21 18:04:46 2017
;FORMAT={3:3/ absolute / metric / suppress leading zeros}
FMAT,2
METRIC,TZ
T1C0.800
T2C1.000
T3C1.001
T4C1.016
T5C1.100
T6C3.200
%
G90
G05
M71
T1
X12446Y58126
X12446Y55626
X12446Y49403
X12446Y22733
X16256Y64008
X16256Y53213
X25146Y62103
X25146Y57103
X38354Y67818
X38354Y41148
X48006Y32893
X50546Y18923
X50546Y16383
X50546Y13843
X50546Y11303
X50546Y8763
X51181Y65278
X51181Y58928
X51816Y25273
X56816Y25273
X58166Y18923
X58166Y16383
X58166Y13843
X58166Y11303
X58166Y8763
X61976Y32893
X63881Y59563
X64516Y29718
X64516Y27178
X64516Y24638
X78486Y59563
X80899Y21463
X80899Y13843
X85598Y54483
X90551Y21463
X90551Y13843
X93218Y54483
T2
X6096Y58166
X6096Y55626
X6096Y49403
X6096Y46863
X6096Y44323
X6096Y41783
X6096Y35433
X6096Y32893
X6096Y30353
X6096Y27813
X6096Y25273
X6096Y15113
X6096Y12573
X8636Y35433
X8636Y32893
X8636Y30353
X8636Y27813
X8636Y25273
X16256Y45593
X16256Y43053
X16256Y40513
X16256Y37973
X16256Y35433
X16256Y32893
X16256Y30353
X16256Y27813
X16256Y25273
X16256Y22733
X16256Y20193
X16256Y17653
X16256Y15113
X16256Y12573
X16256Y10033
X16256Y7493
X16256Y4953
X31496Y45593
X31496Y43053
X31496Y40513
X31496Y37973
X31496Y35433
X31496Y32893
X31496Y30353
X31496Y27813
X31496Y25273
X31496Y22733
X31496Y20193
X31496Y17653
X31496Y15113
X31496Y12573
X31496Y10033
X31496Y7493
X31496Y4953
X36576Y22733
X36576Y16383
X39116Y22733
X39116Y16383
X43942Y62103
X43942Y59563
X43942Y57023
X43942Y54483
X43942Y51943
X43942Y49403
X43942Y46863
X46482Y62103
X46482Y59563
X46482Y57023
X46482Y54483
X46482Y51943
X46482Y49403
X46482Y46863
X58166Y3556
X60706Y3556
X66421Y3556
X68961Y3556
X74676Y3556
X77216Y3556
X79756Y3556
X80899Y10795
X82042Y62103
X82042Y59563
X82042Y57023
X82042Y54483
X82042Y51943
X82042Y49403
X82042Y46863
X88519Y8255
X93599Y10795
X96393Y54483
X96393Y51943
X96393Y46736
X96393Y44196
X96393Y32893
X96393Y30353
X96393Y24638
X96393Y22098
T3
X20066Y62103
X20066Y59563
X20066Y57023
T4
X74676Y29718
X74676Y24638
X77216Y29718
X77216Y24638
X84836Y29718
X84836Y24638
T5
X69596Y33147
X77216Y33147
T6
X3556Y65786
X3556Y3556
X96266Y65786
X96266Y3556
T0
M30
