<?xml version="1.0" standalone="no"?>
 <!DOCTYPE svg PUBLIC "-//W3C//DTD SVG 1.1//EN" 
 "http://www.w3.org/Graphics/SVG/1.1/DTD/svg11.dtd"> 
<svg xmlns="http://www.w3.org/2000/svg" version="1.1" 
    width="12.6898cm" height="5.38988cm" viewBox="0 0 49960 21220 ">
<title>SVG Picture created as SignalGenerator-brd.svg date 2016/11/05 13:16:23 </title>
  <desc>Picture generated by PCBNEW </desc>
<g style="fill:#000000; fill-opacity:1;stroke:#000000; stroke-opacity:1;
stroke-linecap:round; stroke-linejoin:round; "
 transform="translate(0 0) scale(1 1)">
</g>
<g style="fill:#000000; fill-opacity:0.0; 
stroke:#000000; stroke-width:-0.000393701; stroke-opacity:1; 
stroke-linecap:round; stroke-linejoin:round;">
</g>
<g style="fill:#008484; fill-opacity:0.0; 
stroke:#008484; stroke-width:-0.000393701; stroke-opacity:1; 
stroke-linecap:round; stroke-linejoin:round;">
</g>
<g style="fill:#008484; fill-opacity:0.0; 
stroke:#008484; stroke-width:118.11; stroke-opacity:1; 
stroke-linecap:round; stroke-linejoin:round;">
<path d="M10447 13908
L10334 13908
L10278 13937
L10250 13965
L10194 14049
L10165 14161
L10165 14386
L10194 14443
L10222 14471
L10278 14499
L10390 14499
L10447 14471
L10475 14443
L10503 14386
L10503 14246
L10475 14190
L10447 14161
L10390 14133
L10278 14133
L10222 14161
L10194 14190
L10165 14246
" />
<path d="M18321 11113
L18208 11113
L18152 11141
L18124 11169
L18068 11254
L18039 11366
L18039 11591
L18068 11647
L18096 11676
L18152 11704
L18264 11704
L18321 11676
L18349 11647
L18377 11591
L18377 11451
L18349 11394
L18321 11366
L18264 11338
L18152 11338
L18096 11366
L18068 11394
L18039 11451
" />
<path d="M38782 8397
L38501 8397
L38473 8678
L38501 8650
L38557 8622
L38697 8622
L38754 8650
L38782 8678
L38810 8734
L38810 8875
L38782 8931
L38754 8959
L38697 8987
L38557 8987
L38501 8959
L38473 8931
" />
<path d="M24648 7412
L24367 7412
L24339 7694
L24367 7665
L24423 7637
L24564 7637
L24620 7665
L24648 7694
L24676 7750
L24676 7890
L24648 7947
L24620 7975
L24564 8003
L24423 8003
L24367 7975
L24339 7947
" />
<path d="M9794 3121
L10188 3121
L9935 3712
" />
<path d="M10413 3655
L10441 3683
L10413 3712
L10385 3683
L10413 3655
L10413 3712
" />
<path d="M10975 3121
L10694 3121
L10666 3402
L10694 3374
L10750 3346
L10891 3346
L10947 3374
L10975 3402
L11003 3458
L11003 3599
L10975 3655
L10947 3683
L10891 3712
L10750 3712
L10694 3683
L10666 3655
" />
</g>
<g style="fill:#000000; fill-opacity:0.0; 
stroke:#000000; stroke-width:118.11; stroke-opacity:1; 
stroke-linecap:round; stroke-linejoin:round;">
</g>
<g style="fill:#C2C200; fill-opacity:0.0; 
stroke:#C2C200; stroke-width:118.11; stroke-opacity:1; 
stroke-linecap:round; stroke-linejoin:round;">
</g>
<g style="fill:#C2C200; fill-opacity:0.0; 
stroke:#C2C200; stroke-width:39.3701; stroke-opacity:1; 
stroke-linecap:round; stroke-linejoin:round;">
<path d="M31200 19
L31200 20925
" />
<circle cx="38602.4" cy="8720.47" r="1033.42" /> 
<path d="M24468 295
L24468 21200
" />
<circle cx="24468.5" cy="7696.85" r="1033.42" /> 
<path d="M10334 177
L10334 21082
" />
<circle cx="10334.6" cy="14192.9" r="1181.76" /> 
<path d="M8169 11633
L12460 11633
" />
<path d="M12460 11633
L12460 16751
" />
<path d="M12460 16751
L8169 16751
" />
<path d="M8169 16751
L8169 11633
" />
<path d="M10334 11633
L10334 16751
" />
<path d="M8169 14192
L12460 14192
" />
<path d="M36437 14192
L40728 14192
" />
<path d="M38602 11633
L38602 16751
" />
<path d="M36437 16751
L36437 11633
" />
<path d="M40728 16751
L36437 16751
" />
<path d="M40728 11633
L40728 16751
" />
<path d="M36437 11633
L40728 11633
" />
<path d="M38602 98
L38602 21003
" />
<circle cx="38602.4" cy="14192.9" r="1181.76" /> 
<path d="M10334 3208
L10334 3720
" />
<path d="M17736 3287
L17736 3641
" />
<path d="M24468 3169
L24468 3720
" />
<path d="M728 3444
L49389 3444
" />
<circle cx="38602.4" cy="3444.88" r="2000.14" /> 
<circle cx="38602.4" cy="3444.88" r="1608.4" /> 
<circle cx="31200.8" cy="3444.88" r="1608.4" /> 
<circle cx="31200.8" cy="3444.88" r="2000.14" /> 
<circle cx="17736.2" cy="3405.51" r="2000.14" /> 
<circle cx="17736.2" cy="3405.51" r="1608.4" /> 
<circle cx="24468.5" cy="3484.25" r="2000.14" /> 
<circle cx="24468.5" cy="3444.88" r="1608.4" /> 
<circle cx="10334.6" cy="3405.51" r="1608.4" /> 
<circle cx="10334.6" cy="3405.51" r="2000.14" /> 
<path d="M43011 216
L43011 21122
" />
<path d="M6003 216
L6003 21082
" />
<path d="M4232 17933
L4232 17342
" />
<path d="M44822 17933
L4232 17933
" />
<path d="M44822 17342
L44822 17933
" />
<path d="M4232 17342
L44822 17342
" />
<circle cx="30807.1" cy="11437" r="1181.76" /> 
<circle cx="18208.7" cy="11437" r="1186.99" /> 
<circle cx="18208.7" cy="11437" r="4099.22" /> 
<circle cx="30885.8" cy="11397.6" r="3965.25" /> 
<path d="M30807 11043
L30807 11988
" />
<path d="M18208 11161
L18208 11791
" />
<path d="M48562 11437
L48562 11397
" />
<path d="M19 11437
L48562 11437
" />
<path d="M1279 14192
L49940 14192
" />
<circle cx="5767.72" cy="19626" r="788.385" /> 
<circle cx="43208.7" cy="19626" r="788.385" /> 
<circle cx="5767.72" cy="1870.08" r="788.385" /> 
<circle cx="43208.7" cy="1870.08" r="788.385" /> 
<path d="M4232 21082
L4232 216
" />
<path d="M44783 21082
L4232 21082
" />
<path d="M44783 216
L44783 21082
" />
<path d="M4232 216
L44783 216
" />
</g> 
</svg>
