<?xml version="1.0" standalone="no"?>
<!DOCTYPE svg PUBLIC "-//W3C//DTD SVG 1.1//EN"
"http://www.w3.org/Graphics/SVG/1.1/DTD/svg11.dtd">
<svg width="5552.09" height="3302.09" viewBox="0 0 5552.09 3302.09" version="1.1"
xmlns="http://www.w3.org/2000/svg"
xmlns:xlink="http://www.w3.org/1999/xlink">
<circle cx="626.047" cy="2676.05" r="31.0078" style=""/>
<circle cx="822.898" cy="2676.05" r="31.0078" style=""/>
<circle cx="926.047" cy="2326.05" r="31.0078" style=""/>
<circle cx="532.346" cy="2326.05" r="31.0078" style=""/>
<circle cx="576.047" cy="2076.05" r="31.0078" style=""/>
<circle cx="826.047" cy="1919.75" r="31.0078" style=""/>
<circle cx="1126.05" cy="1726.05" r="31.0078" style=""/>
<circle cx="1326.05" cy="1926.05" r="31.0078" style=""/>
<circle cx="1719.75" cy="1926.05" r="31.0078" style=""/>
<circle cx="1726.05" cy="1726.05" r="31.0078" style=""/>
<circle cx="2076.05" cy="1876.05" r="31.0078" style=""/>
<circle cx="2272.9" cy="1876.05" r="31.0078" style=""/>
<circle cx="2476.05" cy="2026.05" r="31.0078" style=""/>
<circle cx="2676.05" cy="1976.05" r="31.0078" style=""/>
<circle cx="3076.05" cy="1926.05" r="31.0078" style=""/>
<circle cx="3469.75" cy="1926.05" r="31.0078" style=""/>
<circle cx="3476.05" cy="1726.05" r="31.0078" style=""/>
<circle cx="3826.05" cy="1876.05" r="31.0078" style=""/>
<circle cx="4022.9" cy="1876.05" r="31.0078" style=""/>
<circle cx="4126.05" cy="2226.05" r="31.0078" style=""/>
<circle cx="4126.05" cy="2426.05" r="31.0078" style=""/>
<circle cx="4326.05" cy="2676.05" r="31.0078" style=""/>
<circle cx="3732.35" cy="2426.05" r="31.0078" style=""/>
<circle cx="3732.35" cy="2226.05" r="31.0078" style=""/>
<circle cx="3526.05" cy="2676.05" r="31.0078" style=""/>
<circle cx="2576.05" cy="2676.05" r="31.0078" style=""/>
<circle cx="2376.05" cy="2426.05" r="31.0078" style=""/>
<circle cx="2376.05" cy="2226.05" r="31.0078" style=""/>
<circle cx="1982.35" cy="2226.05" r="31.0078" style=""/>
<circle cx="1982.35" cy="2426.05" r="31.0078" style=""/>
<circle cx="1776.05" cy="2676.05" r="31.0078" style=""/>
<circle cx="2476.05" cy="1426.05" r="31.0078" style=""/>
<circle cx="2676.05" cy="876.047" r="31.0078" style=""/>
<circle cx="3476.05" cy="1226.05" r="31.0078" style=""/>
<circle cx="3926.05" cy="1426.05" r="31.0078" style=""/>
<circle cx="3926.05" cy="1032.35" r="31.0078" style=""/>
<circle cx="3926.05" cy="626.047" r="31.0078" style=""/>
<circle cx="3926.05" cy="232.347" r="31.0078" style=""/>
<circle cx="4626.05" cy="226.047" r="31.0078" style=""/>
<circle cx="4626.05" cy="619.748" r="31.0078" style=""/>
<circle cx="4626.05" cy="1032.35" r="31.0078" style=""/>
<circle cx="4626.05" cy="1426.05" r="31.0078" style=""/>
<circle cx="1726.05" cy="1226.05" r="31.0078" style=""/>
<circle cx="1326.05" cy="969.748" r="31.0078" style=""/>
<circle cx="1076.05" cy="976.047" r="31.0078" style=""/>
<circle cx="1126.05" cy="1226.05" r="31.0078" style=""/>
<circle cx="826.047" cy="969.748" r="31.0078" style=""/>
<circle cx="576.047" cy="976.047" r="31.0078" style=""/>
<circle cx="576.047" cy="1276.05" r="31.0078" style=""/>
<circle cx="826.047" cy="1526.05" r="31.0078" style=""/>
<circle cx="826.047" cy="576.047" r="31.0078" style=""/>
<circle cx="1076.05" cy="176.047" r="31.0078" style=""/>
<circle cx="1326.05" cy="576.047" r="31.0078" style=""/>
<circle cx="576.047" cy="176.047" r="31.0078" style=""/>
<circle cx="4226.05" cy="1426.05" r="31.5116" style=""/>
<circle cx="4224.47" cy="1226.05" r="31.5116" style=""/>
<circle cx="4224.47" cy="1029.2" r="31.5116" style=""/>
<circle cx="4326.05" cy="626.047" r="31.5116" style=""/>
<circle cx="4326.05" cy="426.047" r="31.5116" style=""/>
<circle cx="4326.05" cy="226.047" r="31.5116" style=""/>
<circle cx="226.047" cy="2526.05" r="38.7597" style=""/>
<circle cx="226.047" cy="2326.05" r="38.7597" style=""/>
<circle cx="226.047" cy="1926.05" r="38.7597" style=""/>
<circle cx="226.047" cy="1726.05" r="38.7597" style=""/>
<circle cx="226.047" cy="926.047" r="38.7597" style=""/>
<circle cx="226.047" cy="726.047" r="38.7597" style=""/>
<circle cx="226.047" cy="526.047" r="38.7597" style=""/>
<circle cx="1782.27" cy="2976.05" r="38.7597" style=""/>
<circle cx="2582.27" cy="2976.05" r="38.7597" style=""/>
<circle cx="3532.27" cy="2976.05" r="38.7597" style=""/>
<circle cx="4332.27" cy="2976.05" r="38.7597" style=""/>
<circle cx="5076.05" cy="2426.05" r="38.7597" style=""/>
<circle cx="5076.05" cy="2226.05" r="38.7597" style=""/>
<circle cx="5076.05" cy="1126.05" r="38.7597" style=""/>
<circle cx="5076.05" cy="926.047" r="38.7597" style=""/>
<circle cx="5076.05" cy="726.047" r="38.7597" style=""/>
<circle cx="1726.05" cy="1032.27" r="38.7984" style=""/>
<circle cx="1726.05" cy="232.268" r="38.7984" style=""/>
<circle cx="3476.05" cy="232.268" r="38.7984" style=""/>
<circle cx="3476.05" cy="1032.27" r="38.7984" style=""/>
</svg>
