<?xml version="1.0" standalone="no"?>
<!DOCTYPE svg PUBLIC "-//W3C//DTD SVG 1.1//EN"
"http://www.w3.org/Graphics/SVG/1.1/DTD/svg11.dtd">
<svg width="6150" height="3250" viewBox="0 0 6150 3250" version="1.1"
xmlns="http://www.w3.org/2000/svg"
xmlns:xlink="http://www.w3.org/1999/xlink">
<g fill-rule="evenodd"><path d="M 0,10 L 0.76,6.174 L 2.928,2.93 L 6.172,0.762 L 8.048,0.194 L 6140,0 L 6143.83,0.762 L 6147.07,2.93 L 6148.31,4.446 L 6149.24,6.174 L 6150,10 L 6150,3240 L 6149.78,3242.08 L 6149.13,3244.07 L 6147.43,3246.69 L 6145,3248.66 L 6143.09,3249.51 L 6140,3250 L 10,3250 L 6.172,3249.24 L 2.928,3247.07 L 1.684,3245.56 L 0.76,3243.83 L 0,3240 L 0,728.102 L 0,10M 1899.31,423.352 L 1932.67,456.772 L 1976.28,474.88 L 2023.5,474.924 L 2067.15,456.89 L 2100.57,423.528 L 2105.27,412.21 L 2107.44,408.97 L 2110.68,406.806 L 2114.5,406.044 L 3185.47,406.044 L 3189.3,406.808 L 3192.55,408.978 L 3194.71,412.226 L 3199.31,423.352 L 3232.67,456.772 L 3276.28,474.88 L 3323.5,474.924 L 3367.15,456.89 L 3400.57,423.528 L 3407.84,406.01 L 3410.01,402.77 L 3413.25,400.606 L 3417.08,399.844 L 4275.21,399.844 L 4279.04,400.606 L 4282.28,402.774 L 4447.23,567.718 L 4449.39,570.962 L 4449.96,572.838 L 4450.16,1355.71 L 4449.39,1359.54 L 4448.47,1361.27 L 4446.09,1363.91 L 4436.39,1387.29 L 4436.36,1412.6 L 4446.03,1435.99 L 4463.91,1453.91 L 4487.29,1463.61 L 4512.59,1463.64 L 4535.99,1453.97 L 4553.9,1436.09 L 4563.61,1412.71 L 4563.63,1387.41 L 4553.97,1364.01 L 4551.52,1361.29 L 4550.6,1359.56 L 4549.84,1355.74 L 4549.84,550.988 L 4545.87,531.006 L 4534.55,514.062 L 4335.94,315.456 L 4319,304.134 L 4299.01,300.158 L 3411.96,300.158 L 3408.13,299.396 L 3404.89,297.226 L 3402.72,293.976 L 3400.69,289.052 L 3367.32,255.632 L 3323.71,237.524 L 3276.5,237.48 L 3232.85,255.514 L 3199.43,288.876 L 3194.73,300.194 L 3192.56,303.434 L 3189.32,305.6 L 3185.49,306.358 L 2114.53,306.358 L 2110.7,305.596 L 2107.45,303.426 L 2105.28,300.178 L 2100.69,289.052 L 2067.32,255.632 L 2023.71,237.524 L 1976.5,237.48 L 1932.85,255.514 L 1899.43,288.876 L 1881.32,332.488 L 1881.28,379.704 L 1899.31,423.352M 563.6,1880 L 597.918,1880 L 602.464,1871.39 L 591.558,1845.06 L 570.994,1822.49 L 569,1819.21 L 568.388,1815.42 L 568.638,1813.51 L 570.2,1810.01 L 572.968,1807.35 L 576.536,1805.93 L 581.684,1804.96 L 595.356,1796.16 L 604.492,1782.79 L 607.908,1765.92 L 607.908,1759.84 L 608.668,1756.02 L 610.836,1752.77 L 612.352,1751.53 L 615.956,1750.04 L 807.57,1750.04 L 809.448,1750.61 L 812.694,1752.78 L 813.936,1754.3 L 815.784,1758.27 L 844.73,1787.26 L 882.572,1802.98 L 923.538,1803.01 L 961.412,1787.36 L 990.408,1758.42 L 992.324,1753.81 L 994.494,1750.57 L 997.74,1748.4 L 1001.57,1747.65 L 1005.39,1748.41 L 1008.64,1750.58 L 1010.8,1753.83 L 1012.64,1758.27 L 1041.58,1787.26 L 1079.42,1802.98 L 1120.39,1803.01 L 1158.26,1787.36 L 1187.26,1758.42 L 1189.18,1754.29 L 1190.43,1752.77 L 1193.67,1750.61 L 1197.5,1749.84 L 1211.18,1750.04 L 1214.78,1751.53 L 1217.54,1754.29 L 1219.03,1757.89 L 1219.03,1761.8 L 1215,1772.04 L 1215,1773.36 L 1221.64,1780 L 1284.65,1780 L 1288.05,1778.62 L 1290,1778.43 L 1310,1778.43 L 1311.95,1778.62 L 1315.34,1780 L 1378.36,1780 L 1385,1773.36 L 1385,1772.05 L 1378.91,1757.34 L 1376.97,1755.13 L 1376.05,1753.39 L 1375.3,1749.53 L 1376.09,1745.68 L 1382.56,1735.87 L 1385.98,1718.99 L 1385.98,1680.94 L 1383.03,1665.24 L 1376.65,1655.34 L 1375.76,1653.61 L 1375.06,1649.79 L 1375.87,1646 L 1382.56,1635.87 L 1385.98,1618.99 L 1385.98,1580.94 L 1383.03,1565.24 L 1376.65,1555.34 L 1375.76,1553.61 L 1375.06,1549.79 L 1375.87,1546 L 1382.56,1535.87 L 1385.98,1518.99 L 1385.98,1480.94 L 1383.03,1465.24 L 1374.23,1451.57 L 1360.86,1442.44 L 1343.99,1439.02 L 1255.93,1439.02 L 1240.24,1441.97 L 1230.12,1448.49 L 1228.39,1449.37 L 1224.61,1450.08 L 1222.68,1449.87 L 1219.13,1448.38 L 1202.77,1432.29 L 1200.6,1429.04 L 1199.84,1425.21 L 1199.84,1259.84 L 1200.6,1256.02 L 1202.77,1252.77 L 1204.29,1251.53 L 1206.01,1250.61 L 1209.84,1249.84 L 1334.04,1250.04 L 1337.64,1251.53 L 1339.16,1252.77 L 1341.33,1256.02 L 1342.09,1259.84 L 1342.09,1266.01 L 1345.04,1281.69 L 1353.84,1295.36 L 1367.21,1304.5 L 1384.07,1307.91 L 1516,1307.91 L 1531.68,1304.96 L 1545.36,1296.16 L 1554.49,1282.79 L 1555.81,1276.28 L 1557.27,1272.75 L 1558.47,1271.26 L 1561.61,1269.1 L 1565.33,1268.27 L 1569.09,1268.89 L 1572.35,1270.87 L 1595.05,1291.56 L 1621.38,1302.47 L 1630,1297.92 L 1630,1263.51 L 1623.61,1261.5 L 1611.77,1254.93 L 1601.49,1246.11 L 1593.2,1235.4 L 1587.24,1223.24 L 1583.84,1210.13 L 1583.16,1196.61 L 1585.21,1183.23 L 1589.91,1170.53 L 1597.08,1159.03 L 1606.41,1149.22 L 1617.52,1141.48 L 1630,1136.14 L 1630,1102.08 L 1621.39,1097.54 L 1595.05,1108.44 L 1572.49,1129.01 L 1569.21,1131 L 1565.42,1131.61 L 1561.68,1130.75 L 1560,1129.8 L 1557.34,1127.03 L 1555.92,1123.46 L 1554.96,1118.32 L 1546.16,1104.64 L 1532.79,1095.51 L 1515.92,1092.09 L 1384,1092.09 L 1368.31,1095.04 L 1354.64,1103.84 L 1345.5,1117.21 L 1342.09,1134.07 L 1341.9,1142.11 L 1340.4,1145.71 L 1339.16,1147.23 L 1335.92,1149.4 L 1332.09,1150.16 L 1207.89,1149.97 L 1204.29,1148.47 L 1201.53,1145.71 L 1200.6,1143.99 L 1199.84,1140.16 L 1199.84,1024.79 L 1200.6,1020.96 L 1202.77,1017.72 L 1217.71,1002.77 L 1220.96,1000.61 L 1224.79,999.844 L 2477.16,1000.04 L 2479.04,1000.61 L 2482.28,1002.77 L 2547.23,1067.72 L 2549.39,1070.96 L 2550.16,1074.79 L 2550.16,1431.81 L 2549.96,1433.78 L 2548.45,1437.41 L 2545.65,1440.17 L 2543.9,1441.09 L 2540.24,1441.97 L 2526.57,1450.77 L 2517.44,1464.14 L 2514.02,1481 L 2514.02,1519.08 L 2516.97,1534.76 L 2523.34,1544.66 L 2524.77,1548.27 L 2524.93,1550.21 L 2524.13,1554.01 L 2517.44,1564.14 L 2514.02,1581 L 2514.02,1619.39 L 2513.26,1623.22 L 2511.09,1626.46 L 2509.57,1627.71 L 2507.85,1628.63 L 2504.02,1629.39 L 2500.19,1628.63 L 2498.46,1627.71 L 2435.94,1565.46 L 2419,1554.13 L 2399.01,1550.16 L 2342.52,1549.97 L 2338.92,1548.47 L 2336.16,1545.72 L 2335.23,1543.99 L 2334.47,1540.16 L 2335.23,1536.33 L 2337.4,1533.09 L 2434.54,1435.94 L 2445.87,1419 L 2449.84,1399.02 L 2450.03,1392.34 L 2451.53,1388.74 L 2454.29,1385.98 L 2456.57,1384.83 L 2484.72,1356.72 L 2499.98,1319.98 L 2500.02,1280.2 L 2484.82,1243.43 L 2456.72,1215.28 L 2419.98,1200.02 L 2380.2,1199.98 L 2343.43,1215.18 L 2315.27,1243.28 L 2300.02,1280.02 L 2299.98,1319.8 L 2307.46,1338.44 L 2307.63,1340.48 L 2307.38,1342.52 L 2306.73,1344.45 L 2305.69,1346.22 L 2304.32,1347.74 L 2302.66,1348.94 L 2300.8,1349.79 L 2298.8,1350.23 L 2296.75,1350.26 L 2294.74,1349.88 L 2282.19,1346.1 L 2256.21,1372.07 L 2257.55,1374.38 L 2261.61,1386.9 L 2262.99,1400 L 2261.61,1413.1 L 2257.55,1425.62 L 2250.96,1437.02 L 2242.15,1446.81 L 2231.5,1454.55 L 2219.46,1459.91 L 2206.58,1462.65 L 2193.42,1462.65 L 2180.54,1459.91 L 2168.51,1454.55 L 2157.85,1446.81 L 2149.04,1437.02 L 2142.45,1425.62 L 2138.39,1413.1 L 2137.01,1400 L 2138.39,1386.9 L 2142.45,1374.38 L 2143.79,1372.07 L 2117.81,1346.09 L 2106.52,1349.49 L 2103.3,1350.89 L 2101.32,1351.14 L 2099.32,1350.99 L 2097.4,1350.44 L 2095.62,1349.52 L 2094.07,1348.27 L 2092.79,1346.73 L 2090.51,1341.74 L 2061.57,1312.74 L 2057.43,1310.82 L 2055.92,1309.57 L 2053.75,1306.33 L 2052.99,1302.5 L 2052.99,1269.43 L 2053.75,1265.6 L 2054.68,1263.87 L 2057.44,1261.11 L 2067.15,1256.89 L 2100.57,1223.53 L 2118.68,1179.92 L 2118.72,1132.7 L 2100.69,1089.05 L 2067.32,1055.63 L 2023.71,1037.52 L 1976.5,1037.48 L 1932.85,1055.51 L 1899.43,1088.88 L 1881.32,1132.49 L 1881.28,1179.7 L 1899.31,1223.35 L 1932.67,1256.77 L 1947.14,1262.78 L 1950.38,1264.95 L 1952.54,1268.19 L 1953.31,1272.01 L 1953.31,1302.47 L 1952.54,1306.3 L 1950.37,1309.55 L 1948.86,1310.79 L 1944.89,1312.64 L 1915.89,1341.58 L 1900.17,1379.43 L 1900.13,1420.39 L 1900.78,1422.45 L 1900.97,1424.4 L 1900.21,1428.23 L 1899.28,1429.96 L 1882.3,1447.21 L 1879.03,1449.39 L 1875.17,1450.14 L 1871.32,1449.35 L 1860.86,1442.44 L 1843.99,1439.02 L 1755.93,1439.02 L 1740.24,1441.97 L 1726.57,1450.77 L 1717.44,1464.14 L 1714.02,1481 L 1714.02,1519.08 L 1716.97,1534.76 L 1723.34,1544.66 L 1724.77,1548.27 L 1724.93,1550.21 L 1724.13,1554.01 L 1717.44,1564.14 L 1714.02,1581 L 1714.02,1619.08 L 1716.97,1634.76 L 1723.34,1644.66 L 1724.77,1648.27 L 1724.93,1650.21 L 1724.13,1654.01 L 1717.44,1664.14 L 1714.02,1681 L 1714.02,1719.08 L 1716.97,1734.76 L 1723.34,1744.66 L 1724.77,1748.27 L 1724.93,1750.21 L 1724.13,1754.01 L 1717.44,1764.14 L 1714.02,1781 L 1714.02,1819.08 L 1716.97,1834.76 L 1725.77,1848.43 L 1739.13,1857.57 L 1744.01,1858.75 L 1745.73,1859.67 L 1748.48,1862.43 L 1749.96,1866.03 L 1750.16,2099.02 L 1754.13,2119 L 1765.45,2135.94 L 1814.06,2184.55 L 1831,2195.87 L 1850.97,2199.84 L 2349.02,2199.84 L 2368.72,2196.12 L 2372.55,2196.89 L 2380.02,2199.98 L 2419.8,2200.02 L 2456.57,2184.83 L 2484.72,2156.72 L 2499.98,2119.98 L 2500.02,2080.2 L 2484.82,2043.43 L 2456.72,2015.28 L 2419.98,2000.02 L 2380.2,1999.98 L 2343.43,2015.18 L 2335.75,2022.84 L 2332.51,2025 L 2328.68,2025.76 L 2326.73,2025.56 L 2323.13,2024.07 L 2320.37,2021.31 L 2318.88,2017.7 L 2318.72,1982.7 L 2300.69,1939.05 L 2267.32,1905.63 L 2255.85,1900.68 L 2253.2,1898.16 L 2251.64,1894.86 L 2251.36,1891.22 L 2253.91,1882.2 L 2227.88,1856.16 L 2219.46,1859.91 L 2206.58,1862.65 L 2193.42,1862.65 L 2180.54,1859.91 L 2168.51,1854.55 L 2157.85,1846.81 L 2149.04,1837.02 L 2142.45,1825.62 L 2138.39,1813.1 L 2137.01,1800 L 2138.39,1786.9 L 2142.45,1774.38 L 2143.79,1772.07 L 2117.81,1746.09 L 2106.52,1749.49 L 2103.3,1750.89 L 2101.32,1751.14 L 2099.32,1750.99 L 2097.4,1750.44 L 2095.62,1749.52 L 2094.07,1748.27 L 2092.79,1746.73 L 2090.51,1741.74 L 2061.56,1712.74 L 2053.16,1709.25 L 2049.91,1707.08 L 2047.75,1703.83 L 2047.18,1701.96 L 2047.18,1698.06 L 2047.75,1696.18 L 2049.92,1692.94 L 2051.44,1691.69 L 2061.41,1687.37 L 2090.41,1658.42 L 2092.32,1653.81 L 2094.49,1650.57 L 2097.74,1648.4 L 2099.62,1647.84 L 2103.52,1647.84 L 2107.12,1649.34 L 2108.64,1650.58 L 2110.8,1653.83 L 2112.64,1658.27 L 2141.58,1687.26 L 2150.5,1691.18 L 2153.26,1693.94 L 2154.75,1697.54 L 2154.75,1701.44 L 2153.25,1705.05 L 2152.01,1706.56 L 2148.84,1708.69 L 2146.09,1717.81 L 2172.12,1743.84 L 2180.54,1740.09 L 2193.42,1737.35 L 2206.58,1737.35 L 2219.46,1740.09 L 2227.88,1743.84 L 2253.91,1717.81 L 2251.24,1708.96 L 2247.99,1706.97 L 2246.67,1705.47 L 2245.67,1703.74 L 2245.03,1701.84 L 2244.78,1699.86 L 2244.94,1697.86 L 2245.48,1695.94 L 2246.4,1694.16 L 2247.66,1692.6 L 2249.2,1691.33 L 2258.26,1687.36 L 2287.26,1658.42 L 2289.18,1654.29 L 2291.94,1651.53 L 2295.54,1650.04 L 2297.5,1649.84 L 2377.16,1650.04 L 2379.04,1650.61 L 2382.28,1652.77 L 2464.06,1734.55 L 2481,1745.87 L 2500.97,1749.84 L 2511.18,1750.04 L 2513.05,1750.61 L 2516.3,1752.77 L 2518.47,1756.02 L 2519.23,1759.84 L 2518.47,1763.67 L 2515,1772.04 L 2515,1773.36 L 2521.64,1780 L 2584.65,1780 L 2588.05,1778.62 L 2590,1778.43 L 2610,1778.43 L 2611.95,1778.62 L 2615.34,1780 L 2678.36,1780 L 2685,1773.36 L 2685,1772.05 L 2678.91,1757.34 L 2676.97,1755.13 L 2676.05,1753.39 L 2675.3,1749.53 L 2676.09,1745.68 L 2682.56,1735.87 L 2685.98,1718.99 L 2685.98,1680.94 L 2683.03,1665.24 L 2681.61,1661.66 L 2681.66,1657.79 L 2682.24,1655.93 L 2683.17,1654.22 L 2685.93,1651.5 L 2689.51,1650.03 L 2699.02,1649.84 L 2718.99,1645.87 L 2735.94,1634.55 L 2784.54,1585.94 L 2795.87,1569 L 2799.84,1549.02 L 2799.84,1000.99 L 2795.87,981.006 L 2784.55,964.062 L 2635.94,815.456 L 2619,804.134 L 2599.01,800.158 L 1424.79,800.158 L 1420.96,799.398 L 1417.71,797.23 L 885.94,265.456 L 868.996,254.134 L 849.014,250.158 L 615.956,249.966 L 612.352,248.474 L 610.836,247.23 L 608.668,243.986 L 607.908,240.158 L 607.908,234.008 L 604.956,218.316 L 596.156,204.644 L 582.79,195.508 L 565.92,192.092 L 434.004,192.092 L 418.312,195.044 L 404.64,203.844 L 395.504,217.21 L 392.09,234.07 L 392.09,366.006 L 395.04,381.688 L 403.84,395.36 L 417.206,404.496 L 422.4,405.742 L 424.124,406.67 L 425.634,407.916 L 427.792,411.16 L 428.544,414.984 L 428.35,416.932 L 426.856,420.53 L 425.612,422.044 L 422.236,424.53 L 399.098,459.158 L 390.976,500 L 399.096,540.844 L 422.234,575.472 L 448.894,593.508 L 451.042,596.666 L 451.85,600.398 L 451.2,604.162 L 449.186,607.408 L 446.104,609.66 L 436.65,614.098 L 408.44,645.054 L 397.53,671.388 L 402.076,680 L 436.404,680 L 439.912,670.528 L 447.076,659.036 L 456.406,649.22 L 467.52,641.484 L 479.966,636.144 L 493.23,633.418 L 500,633.074 L 513.472,634.446 L 526.392,638.498 L 538.232,645.07 L 548.508,653.892 L 556.798,664.6 L 562.76,676.758 L 563.598,680 L 597.918,680 L 602.464,671.39 L 591.558,645.056 L 563.348,614.1 L 553.892,609.66 L 550.808,607.406 L 548.796,604.162 L 548.146,600.398 L 548.954,596.666 L 551.102,593.508 L 577.76,575.474 L 591.916,554.29 L 594.674,551.532 L 596.404,550.606 L 600.232,549.844 L 727.162,550.038 L 729.038,550.606 L 732.282,552.774 L 748.47,569.234 L 749.394,570.962 L 750.156,574.788 L 750.156,1199.02 L 754.128,1219 L 765.45,1235.94 L 1109.45,1579.94 L 1111.62,1583.19 L 1112.38,1587.01 L 1112.18,1588.97 L 1110.69,1592.57 L 1107.93,1595.33 L 1106.2,1596.25 L 1102.37,1597.01 L 1079.61,1596.99 L 1041.73,1612.64 L 1012.74,1641.58 L 1010.82,1646.19 L 1008.65,1649.44 L 1005.4,1651.6 L 1001.58,1652.36 L 997.752,1651.59 L 994.51,1649.42 L 992.344,1646.18 L 990.51,1641.74 L 961.566,1612.74 L 923.722,1597.03 L 882.758,1596.99 L 844.884,1612.64 L 815.888,1641.58 L 813.962,1645.72 L 812.718,1647.23 L 811.204,1648.48 L 807.6,1649.97 L 617.908,1650.16 L 614.08,1649.4 L 612.352,1648.47 L 610.836,1647.23 L 608.668,1643.99 L 607.908,1640.16 L 607.908,1634.01 L 604.956,1618.32 L 596.156,1604.64 L 582.79,1595.51 L 565.92,1592.09 L 434.004,1592.09 L 418.312,1595.04 L 404.64,1603.84 L 395.504,1617.21 L 392.09,1634.07 L 392.09,1766.01 L 395.04,1781.69 L 403.84,1795.36 L 417.206,1804.5 L 423.724,1805.82 L 427.248,1807.27 L 429.972,1809.94 L 430.902,1811.61 L 431.736,1815.33 L 431.606,1817.25 L 431.114,1819.1 L 429.13,1822.35 L 408.44,1845.05 L 397.53,1871.39 L 402.076,1880 L 436.404,1880 L 439.912,1870.53 L 447.076,1859.03 L 456.406,1849.22 L 467.52,1841.48 L 479.966,1836.14 L 493.23,1833.42 L 500,1833.07 L 513.472,1834.44 L 526.392,1838.5 L 538.232,1845.07 L 548.508,1853.89 L 556.798,1864.6 L 562.76,1876.76 L 563.6,1880M 563.596,1920 L 560.088,1929.47 L 552.924,1940.97 L 543.594,1950.78 L 532.48,1958.52 L 520,1963.86 L 520,1997.96 L 528.348,2002.34 L 563.346,1985.91 L 591.556,1954.95 L 602.466,1928.62 L 597.92,1920 L 563.596,1920M 436.4,1920 L 402.078,1920 L 397.532,1928.61 L 408.438,1954.95 L 436.648,1985.9 L 471.648,2002.34 L 480,1997.96 L 480,1963.51 L 473.608,1961.5 L 461.768,1954.93 L 451.492,1946.11 L 443.202,1935.4 L 437.24,1923.24 L 436.4,1920M 1280,1820 L 1221.64,1820 L 1215,1826.64 L 1215,1827.96 L 1221.09,1842.66 L 1232.34,1853.91 L 1247.04,1860 L 1273.36,1860 L 1280,1853.36 L 1280,1820M 1345,1820 L 1320,1820 L 1320,1853.36 L 1326.64,1860 L 1352.95,1860 L 1367.66,1853.91 L 1378.91,1842.66 L 1385,1827.96 L 1385,1826.64 L 1378.36,1820 L 1345,1820M 2256.21,1827.93 L 2282.19,1853.91 L 2291.02,1851.25 L 2303.85,1815.56 L 2301.89,1774.39 L 2291.3,1748.84 L 2282.19,1746.1 L 2256.21,1772.07 L 2257.55,1774.38 L 2261.61,1786.9 L 2262.99,1800 L 2261.61,1813.1 L 2257.55,1825.62 L 2256.21,1827.93M 2580,1820 L 2521.64,1820 L 2515,1826.64 L 2515,1827.96 L 2521.09,1842.66 L 2532.34,1853.91 L 2547.04,1860 L 2573.36,1860 L 2580,1853.36 L 2580,1820M 2645,1820 L 2620,1820 L 2620,1853.36 L 2626.64,1860 L 2652.95,1860 L 2667.66,1853.91 L 2678.91,1842.66 L 2685,1827.96 L 2685,1826.64 L 2678.36,1820 L 2645,1820M 563.598,720 L 560.088,729.476 L 552.924,740.968 L 543.594,750.784 L 532.48,758.52 L 520,763.866 L 520,797.956 L 528.348,802.34 L 563.346,785.906 L 591.556,754.95 L 602.466,728.616 L 597.92,720 L 563.598,720M 436.4,720 L 402.078,720 L 397.532,728.614 L 408.438,754.948 L 436.648,785.904 L 471.648,802.342 L 480,797.958 L 480,763.512 L 473.608,761.506 L 461.768,754.934 L 451.492,746.112 L 443.202,735.404 L 437.24,723.246 L 436.4,720M 1713.6,1220 L 1710.09,1229.47 L 1702.92,1240.97 L 1693.59,1250.78 L 1682.48,1258.52 L 1670,1263.86 L 1670,1297.92 L 1678.61,1302.47 L 1704.94,1291.56 L 1735.9,1263.35 L 1752.34,1228.35 L 1747.95,1220 L 1713.6,1220M 2227.88,1343.84 L 2253.91,1317.81 L 2251.25,1308.98 L 2215.56,1296.15 L 2174.38,1298.11 L 2148.84,1308.7 L 2146.09,1317.81 L 2172.12,1343.84 L 2180.54,1340.09 L 2193.42,1337.35 L 2206.58,1337.35 L 2219.46,1340.09 L 2227.88,1343.84M 1713.6,1180 L 1747.95,1180 L 1752.34,1171.65 L 1735.9,1136.65 L 1704.95,1108.44 L 1678.61,1097.53 L 1670,1102.08 L 1670,1136.49 L 1676.39,1138.5 L 1688.23,1145.07 L 1698.51,1153.89 L 1706.8,1164.6 L 1712.76,1176.76 L 1713.6,1180M 4246.93,2672.07 L 4220.96,2646.09 L 4212.13,2648.75 L 4199.3,2684.44 L 4201.26,2725.62 L 4211.84,2751.16 L 4220.95,2753.91 L 4246.94,2727.93 L 4245.6,2725.62 L 4241.53,2713.1 L 4240.16,2700 L 4241.53,2686.9 L 4245.6,2674.38 L 4246.93,2672.07M 4331.02,2643.84 L 4357.06,2617.81 L 4354.4,2608.98 L 4318.71,2596.15 L 4277.53,2598.11 L 4251.99,2608.7 L 4249.24,2617.81 L 4275.27,2643.84 L 4283.68,2640.09 L 4296.56,2637.35 L 4309.73,2637.35 L 4322.61,2640.09 L 4331.02,2643.84M 4359.36,2672.07 L 4360.69,2674.38 L 4364.76,2686.9 L 4366.14,2700 L 4364.76,2713.1 L 4360.69,2725.62 L 4359.36,2727.93 L 4385.34,2753.91 L 4396.62,2750.51 L 4399.84,2749.11 L 4401.83,2748.86 L 4403.82,2749.02 L 4405.75,2749.56 L 4407.52,2750.48 L 4409.08,2751.74 L 4410.36,2753.28 L 4412.63,2758.26 L 4441.58,2787.26 L 4445.71,2789.19 L 4447.23,2790.43 L 4448.47,2791.95 L 4449.96,2795.55 L 4449.96,2977.17 L 4448.47,2980.77 L 4447.23,2982.29 L 4432.28,2997.23 L 4429.04,2999.4 L 4427.16,2999.97 L 3768.59,3000.16 L 3764.76,2999.4 L 3761.51,2997.23 L 3614.98,2850.42 L 3613.49,2846.82 L 3613.49,2842.91 L 3618.68,2829.92 L 3618.72,2782.7 L 3600.69,2739.05 L 3567.32,2705.63 L 3523.71,2687.52 L 3476.5,2687.48 L 3432.85,2705.51 L 3399.43,2738.88 L 3394.73,2750.19 L 3392.56,2753.43 L 3389.32,2755.6 L 3385.49,2756.36 L 2314.53,2756.36 L 2310.7,2755.6 L 2307.45,2753.43 L 2305.28,2750.18 L 2300.69,2739.05 L 2267.32,2705.63 L 2223.71,2687.52 L 2176.5,2687.48 L 2132.85,2705.51 L 2099.43,2738.88 L 2081.32,2782.49 L 2081.28,2829.7 L 2099.31,2873.35 L 2132.67,2906.77 L 2176.28,2924.88 L 2223.5,2924.92 L 2267.15,2906.89 L 2300.57,2873.53 L 2305.27,2862.21 L 2307.44,2858.97 L 2310.68,2856.81 L 2314.5,2856.04 L 3387.42,2856.24 L 3391.03,2857.73 L 3393.79,2860.5 L 3399.31,2873.35 L 3432.67,2906.77 L 3476.28,2924.88 L 3523.5,2924.93 L 3536.71,2919.68 L 3540.61,2919.68 L 3544.21,2921.17 L 3707.86,3084.55 L 3724.8,3095.87 L 3744.77,3099.84 L 4449.02,3099.84 L 4468.99,3095.87 L 4485.94,3084.55 L 4534.54,3035.94 L 4545.87,3019 L 4549.84,2999.02 L 4550.03,2795.58 L 4550.6,2793.7 L 4552.77,2790.46 L 4554.29,2789.22 L 4558.26,2787.37 L 4588.27,2757.41 L 4589.78,2756.17 L 4593.39,2754.68 L 4597.29,2754.68 L 4599.16,2755.25 L 4600.89,2756.18 L 4603.65,2758.94 L 4605.14,2762.54 L 4608.62,2780.06 L 4630.06,2812.14 L 4662.15,2833.59 L 4700,2841.11 L 4737.84,2833.59 L 4769.93,2812.15 L 4792.93,2778.08 L 4796.17,2775.91 L 4798.05,2775.34 L 4801.95,2775.34 L 4805.56,2776.84 L 4808.31,2779.6 L 4830.06,2812.14 L 4845.71,2822.6 L 4848.47,2825.36 L 4849.39,2827.09 L 4850.16,2830.92 L 4850.16,2849.02 L 4854.13,2869 L 4865.45,2885.94 L 4964.06,2984.55 L 4981,2995.87 L 5000.97,2999.84 L 5249.02,2999.84 L 5268.99,2995.87 L 5285.94,2984.55 L 5334.54,2935.94 L 5345.87,2919 L 5349.84,2899.02 L 5350.03,2842.52 L 5351.53,2838.92 L 5352.77,2837.4 L 5356.01,2835.24 L 5359.84,2834.47 L 5361.79,2834.67 L 5363.67,2835.24 L 5366.91,2837.4 L 5414.06,2884.55 L 5431,2895.87 L 5450.97,2899.84 L 5649.02,2899.84 L 5668.99,2895.87 L 5685.94,2884.55 L 5767.12,2803.64 L 5768.85,2802.71 L 5772.68,2801.95 L 5798.68,2806.93 L 5801.31,2806.93 L 5843.13,2798.61 L 5877.76,2775.47 L 5900.9,2740.85 L 5909.02,2700 L 5900.9,2659.16 L 5877.76,2624.53 L 5851.1,2606.5 L 5848.95,2603.34 L 5848.15,2599.61 L 5848.79,2595.84 L 5850.81,2592.6 L 5853.89,2590.34 L 5863.35,2585.91 L 5891.56,2554.95 L 5902.47,2528.62 L 5897.92,2520 L 5863.6,2520 L 5860.09,2529.47 L 5852.92,2540.97 L 5843.59,2550.78 L 5832.48,2558.52 L 5820.03,2563.86 L 5806.77,2566.58 L 5800,2566.93 L 5786.53,2565.56 L 5773.61,2561.5 L 5761.77,2554.93 L 5751.49,2546.11 L 5743.2,2535.4 L 5737.24,2523.24 L 5736.4,2520 L 5702.08,2520 L 5697.53,2528.61 L 5708.44,2554.95 L 5736.65,2585.9 L 5746.1,2590.34 L 5749.19,2592.6 L 5751.2,2595.84 L 5751.71,2597.69 L 5751.63,2601.51 L 5750.12,2605.02 L 5747.41,2607.71 L 5722.24,2624.53 L 5699.1,2659.16 L 5690.97,2700 L 5696.32,2726.9 L 5696.32,2730.8 L 5694.83,2734.41 L 5632.28,2797.23 L 5629.04,2799.4 L 5625.21,2800.16 L 5558.8,2800.16 L 5556.75,2799.95 L 5554.78,2799.31 L 5552.98,2798.29 L 5551.43,2796.92 L 5550.2,2795.26 L 5549.34,2793.39 L 5548.87,2791.37 L 5548.84,2789.31 L 5550.76,2782.2 L 5524.73,2756.16 L 5516.31,2759.91 L 5503.43,2762.65 L 5490.27,2762.65 L 5477.39,2759.91 L 5465.36,2754.55 L 5454.7,2746.81 L 5445.89,2737.02 L 5439.3,2725.62 L 5435.24,2713.1 L 5433.86,2700 L 5435.24,2686.9 L 5439.3,2674.38 L 5440.64,2672.07 L 5414.66,2646.09 L 5403.37,2649.49 L 5400.15,2650.89 L 5398.17,2651.14 L 5396.17,2650.99 L 5394.25,2650.44 L 5392.47,2649.52 L 5390.92,2648.27 L 5389.64,2646.73 L 5387.36,2641.74 L 5358.42,2612.74 L 5320.57,2597.03 L 5279.61,2596.99 L 5241.73,2612.64 L 5211.68,2642.64 L 5210.08,2643.94 L 5208.24,2644.88 L 5206.25,2645.43 L 5204.19,2645.55 L 5202.15,2645.25 L 5200.21,2644.54 L 5198.46,2643.44 L 5196.98,2642.01 L 5195.81,2640.31 L 5187.94,2614.46 L 5163.55,2584.32 L 5128.6,2565.5 L 5120,2570.42 L 5120,2605.41 L 5126.03,2607.64 L 5136.17,2613.97 L 5144.84,2622.2 L 5151.67,2632.02 L 5156.39,2643.01 L 5158.8,2654.72 L 5159.1,2739.3 L 5157.89,2751.2 L 5154.31,2762.61 L 5148.51,2773.06 L 5140.72,2782.13 L 5131.26,2789.45 L 5120,2794.85 L 5120,2829.58 L 5128.6,2834.51 L 5129.07,2834.41 L 5163.55,2815.68 L 5187.94,2785.55 L 5195.04,2761.56 L 5195.83,2759.66 L 5196.99,2757.95 L 5198.48,2756.52 L 5200.23,2755.42 L 5202.17,2754.71 L 5204.21,2754.41 L 5206.28,2754.54 L 5208.27,2755.09 L 5210.1,2756.03 L 5211.71,2757.34 L 5241.58,2787.26 L 5245.71,2789.19 L 5247.23,2790.43 L 5249.39,2793.67 L 5250.16,2797.5 L 5250.16,2875.21 L 5249.39,2879.04 L 5247.23,2882.29 L 5232.28,2897.23 L 5229.04,2899.4 L 5225.21,2900.16 L 5024.79,2900.16 L 5020.96,2899.4 L 5017.71,2897.23 L 4956.19,2835.7 L 4954.02,2832.46 L 4953.45,2830.58 L 4953.45,2826.68 L 4954.94,2823.08 L 4956.19,2821.56 L 4969.93,2812.14 L 4991.62,2779.69 L 4992.71,2777.54 L 4994.04,2775.99 L 4995.65,2774.74 L 4997.49,2773.84 L 4999.47,2773.34 L 5001.5,2773.24 L 5003.52,2773.57 L 5005.43,2774.29 L 5007.15,2775.39 L 5008.61,2776.81 L 5009.75,2778.5 L 5010.53,2780.39 L 5012.05,2785.55 L 5036.44,2815.68 L 5070.92,2834.41 L 5071.4,2834.51 L 5080,2829.59 L 5080,2794.59 L 5073.97,2792.36 L 5063.83,2786.03 L 5055.16,2777.8 L 5048.33,2767.98 L 5043.61,2756.99 L 5041.2,2745.28 L 5040.9,2660.7 L 5042.11,2648.8 L 5045.69,2637.39 L 5051.49,2626.94 L 5059.28,2617.87 L 5068.74,2610.55 L 5080,2605.15 L 5080,2570.42 L 5071.4,2565.5 L 5036.45,2584.32 L 5012.05,2614.46 L 5010.53,2619.61 L 5009.75,2621.5 L 5008.61,2623.19 L 5007.15,2624.62 L 5005.43,2625.71 L 5003.52,2626.44 L 5001.5,2626.76 L 4999.47,2626.67 L 4997.49,2626.16 L 4995.66,2625.27 L 4994.04,2624.02 L 4992.72,2622.47 L 4991.62,2620.31 L 4969.93,2587.86 L 4937.85,2566.42 L 4900,2558.89 L 4862.15,2566.42 L 4830.06,2587.86 L 4808.31,2620.41 L 4807.07,2621.92 L 4803.83,2624.09 L 4800,2624.85 L 4796.17,2624.09 L 4794.44,2623.17 L 4791.68,2620.41 L 4769.93,2587.86 L 4737.85,2566.42 L 4700,2558.89 L 4662.15,2566.42 L 4630.06,2587.86 L 4608.62,2619.95 L 4604.56,2639.39 L 4602.39,2642.63 L 4599.14,2644.8 L 4597.27,2645.37 L 4593.36,2645.36 L 4589.76,2643.87 L 4558.42,2612.74 L 4520.57,2597.03 L 4479.61,2596.99 L 4441.73,2612.64 L 4412.74,2641.58 L 4410.4,2646.71 L 4409.16,2648.22 L 4405.91,2650.39 L 4404.04,2650.96 L 4400.14,2650.95 L 4396.55,2649.47 L 4385.34,2646.1 L 4359.36,2672.07M 4275.27,2756.16 L 4249.24,2782.19 L 4251.9,2791.02 L 4287.59,2803.85 L 4328.76,2801.89 L 4354.31,2791.31 L 4357.05,2782.2 L 4331.02,2756.16 L 4322.61,2759.91 L 4309.73,2762.65 L 4296.56,2762.65 L 4283.68,2759.91 L 4275.27,2756.16M 3443.79,1772.07 L 3417.81,1746.09 L 3406.52,1749.49 L 3403.3,1750.89 L 3401.32,1751.14 L 3399.32,1750.99 L 3397.4,1750.44 L 3395.62,1749.52 L 3394.07,1748.27 L 3392.79,1746.73 L 3390.51,1741.74 L 3361.56,1712.74 L 3351.43,1708.32 L 3348.67,1705.56 L 3347.75,1703.83 L 3347.18,1701.96 L 3347.18,1698.06 L 3347.75,1696.18 L 3349.92,1692.94 L 3353.17,1690.77 L 3361.41,1687.37 L 3390.41,1658.42 L 3393.25,1652.08 L 3394.49,1650.57 L 3397.74,1648.4 L 3399.62,1647.84 L 3403.52,1647.84 L 3407.12,1649.34 L 3409.88,1652.1 L 3412.64,1658.27 L 3441.58,1687.26 L 3450.5,1691.18 L 3453.26,1693.94 L 3454.75,1697.54 L 3454.75,1701.44 L 3453.25,1705.05 L 3452.01,1706.56 L 3448.84,1708.69 L 3446.09,1717.81 L 3472.12,1743.84 L 3480.54,1740.09 L 3493.42,1737.35 L 3506.58,1737.35 L 3519.46,1740.09 L 3527.88,1743.84 L 3553.91,1717.81 L 3551.24,1708.96 L 3547.99,1706.97 L 3546.67,1705.47 L 3545.67,1703.74 L 3545.03,1701.84 L 3544.78,1699.86 L 3544.94,1697.86 L 3545.48,1695.94 L 3546.4,1694.16 L 3547.66,1692.6 L 3549.2,1691.33 L 3558.26,1687.36 L 3587.26,1658.42 L 3589.18,1654.29 L 3590.43,1652.77 L 3593.67,1650.61 L 3597.5,1649.84 L 5682.09,1649.84 L 5685.92,1650.61 L 5687.64,1651.53 L 5689.16,1652.77 L 5691.33,1656.02 L 5692.09,1659.84 L 5692.09,1666.01 L 5695.04,1681.69 L 5703.84,1695.36 L 5717.21,1704.5 L 5723.72,1705.82 L 5727.25,1707.27 L 5729.97,1709.94 L 5731.5,1713.43 L 5731.61,1717.25 L 5730.28,1720.82 L 5708.44,1745.05 L 5697.53,1771.39 L 5702.08,1780 L 5736.4,1780 L 5739.91,1770.53 L 5747.08,1759.03 L 5756.41,1749.22 L 5767.52,1741.48 L 5779.97,1736.14 L 5793.23,1733.42 L 5800,1733.07 L 5813.47,1734.44 L 5826.39,1738.5 L 5838.23,1745.07 L 5848.51,1753.89 L 5856.8,1764.6 L 5862.76,1776.76 L 5863.6,1780 L 5897.92,1780 L 5902.46,1771.39 L 5891.56,1745.06 L 5870.99,1722.49 L 5869,1719.21 L 5868.39,1715.42 L 5869.25,1711.68 L 5871.46,1708.54 L 5872.97,1707.35 L 5876.54,1705.93 L 5881.68,1704.96 L 5895.36,1696.16 L 5904.49,1682.79 L 5907.91,1665.92 L 5907.91,1534.01 L 5904.96,1518.32 L 5896.16,1504.64 L 5882.79,1495.51 L 5865.92,1492.09 L 5734,1492.09 L 5718.31,1495.04 L 5704.64,1503.84 L 5695.5,1517.21 L 5692.09,1534.07 L 5692.09,1540.16 L 5691.33,1543.99 L 5689.16,1547.23 L 5687.64,1548.47 L 5685.92,1549.4 L 5682.09,1550.16 L 3642.52,1549.97 L 3638.92,1548.47 L 3636.16,1545.72 L 3635.23,1543.99 L 3634.66,1542.11 L 3634.66,1538.21 L 3636.16,1534.6 L 3734.54,1435.94 L 3745.87,1419 L 3749.84,1399.02 L 3750.03,1392.34 L 3751.53,1388.74 L 3754.29,1385.98 L 3756.57,1384.83 L 3784.72,1356.72 L 3799.98,1319.98 L 3800.02,1280.2 L 3784.82,1243.43 L 3756.72,1215.28 L 3719.98,1200.02 L 3680.2,1199.98 L 3643.43,1215.18 L 3615.27,1243.28 L 3600.02,1280.02 L 3599.98,1319.8 L 3607.46,1338.44 L 3607.63,1340.48 L 3607.38,1342.52 L 3606.73,1344.45 L 3605.69,1346.22 L 3604.32,1347.74 L 3602.66,1348.94 L 3600.8,1349.79 L 3598.8,1350.23 L 3596.75,1350.26 L 3594.74,1349.88 L 3582.19,1346.1 L 3556.21,1372.07 L 3557.55,1374.38 L 3561.61,1386.9 L 3562.99,1400 L 3561.61,1413.1 L 3557.55,1425.62 L 3550.96,1437.02 L 3542.15,1446.81 L 3531.5,1454.55 L 3519.46,1459.91 L 3506.58,1462.65 L 3493.42,1462.65 L 3480.54,1459.91 L 3468.51,1454.55 L 3457.85,1446.81 L 3449.04,1437.02 L 3442.45,1425.62 L 3438.39,1413.1 L 3437.01,1400 L 3438.39,1386.9 L 3442.45,1374.38 L 3443.79,1372.07 L 3417.81,1346.09 L 3406.52,1349.49 L 3403.3,1350.89 L 3401.32,1351.14 L 3399.32,1350.99 L 3397.4,1350.44 L 3395.62,1349.52 L 3394.07,1348.27 L 3392.79,1346.73 L 3390.51,1341.74 L 3361.56,1312.74 L 3356.01,1310.43 L 3352.77,1308.26 L 3351.52,1306.75 L 3350.03,1303.15 L 3349.84,1270.73 L 3350.03,1268.78 L 3351.53,1265.17 L 3354.29,1262.41 L 3356.02,1261.49 L 3367.15,1256.89 L 3400.57,1223.53 L 3418.68,1179.92 L 3418.72,1132.7 L 3400.69,1089.05 L 3367.32,1055.63 L 3323.71,1037.52 L 3276.5,1037.48 L 3232.85,1055.51 L 3199.43,1088.88 L 3181.32,1132.49 L 3181.28,1179.7 L 3199.31,1223.35 L 3232.67,1256.77 L 3243.99,1261.47 L 3247.23,1263.64 L 3249.39,1266.88 L 3250.16,1270.71 L 3250.16,1303.77 L 3249.39,1307.6 L 3247.22,1310.85 L 3245.12,1312.4 L 3215.89,1341.58 L 3200.17,1379.43 L 3200.13,1420.39 L 3200.78,1422.45 L 3200.97,1424.4 L 3200.21,1428.23 L 3199.28,1429.96 L 3182.3,1447.21 L 3179.03,1449.39 L 3175.17,1450.14 L 3171.32,1449.35 L 3160.86,1442.44 L 3143.99,1439.02 L 3055.93,1439.02 L 3040.24,1441.97 L 3026.57,1450.77 L 3017.44,1464.14 L 3014.02,1481 L 3014.02,1519.08 L 3016.97,1534.76 L 3023.34,1544.66 L 3024.77,1548.27 L 3024.93,1550.21 L 3024.13,1554.01 L 3017.44,1564.14 L 3014.02,1581 L 3014.02,1619.08 L 3016.97,1634.76 L 3023.34,1644.66 L 3024.77,1648.27 L 3024.93,1650.21 L 3024.13,1654.01 L 3017.44,1664.14 L 3014.02,1681 L 3014.02,1719.08 L 3016.97,1734.76 L 3023.34,1744.66 L 3024.77,1748.27 L 3024.93,1750.21 L 3024.13,1754.01 L 3017.44,1764.14 L 3014.02,1781 L 3014.02,1819.08 L 3016.97,1834.76 L 3025.77,1848.43 L 3039.13,1857.57 L 3044.01,1858.75 L 3045.73,1859.67 L 3048.48,1862.43 L 3049.96,1866.03 L 3050.16,2049.02 L 3054.13,2069 L 3065.45,2085.94 L 3164.06,2184.55 L 3181,2195.87 L 3200.97,2199.84 L 3649.02,2199.84 L 3668.72,2196.12 L 3672.55,2196.89 L 3680.02,2199.98 L 3719.8,2200.02 L 3756.57,2184.83 L 3784.72,2156.72 L 3799.98,2119.98 L 3800.02,2080.2 L 3784.82,2043.43 L 3756.72,2015.28 L 3719.98,2000.02 L 3680.2,1999.98 L 3643.43,2015.18 L 3635.75,2022.84 L 3632.51,2025 L 3628.68,2025.76 L 3626.73,2025.56 L 3623.13,2024.07 L 3620.37,2021.31 L 3618.88,2017.7 L 3618.72,1982.7 L 3600.69,1939.05 L 3567.32,1905.63 L 3555.85,1900.68 L 3553.2,1898.16 L 3551.64,1894.86 L 3551.36,1891.22 L 3553.91,1882.2 L 3527.88,1856.16 L 3519.46,1859.91 L 3506.58,1862.65 L 3493.42,1862.65 L 3480.54,1859.91 L 3468.51,1854.55 L 3457.85,1846.81 L 3449.04,1837.02 L 3442.45,1825.62 L 3438.39,1813.1 L 3437.01,1800 L 3438.39,1786.9 L 3442.45,1774.38 L 3443.79,1772.07M 3556.21,1827.93 L 3582.19,1853.91 L 3591.02,1851.25 L 3603.85,1815.56 L 3601.89,1774.39 L 3591.3,1748.84 L 3582.19,1746.1 L 3556.21,1772.07 L 3557.55,1774.38 L 3561.61,1786.9 L 3562.99,1800 L 3561.61,1813.1 L 3557.55,1825.62 L 3556.21,1827.93M 4243.78,2272.07 L 4217.81,2246.09 L 4208.98,2248.75 L 4196.15,2284.44 L 4198.11,2325.62 L 4208.69,2351.16 L 4217.81,2353.91 L 4243.79,2327.93 L 4242.45,2325.62 L 4238.39,2313.1 L 4237.01,2300 L 4238.39,2286.9 L 4242.45,2274.38 L 4243.78,2272.07M 4327.88,2243.84 L 4353.91,2217.81 L 4351.25,2208.98 L 4315.56,2196.15 L 4274.38,2198.11 L 4248.84,2208.7 L 4246.09,2217.81 L 4272.12,2243.84 L 4280.54,2240.09 L 4293.42,2237.35 L 4306.58,2237.35 L 4319.46,2240.09 L 4327.88,2243.84M 4356.21,2327.93 L 4382.19,2353.91 L 4393.47,2350.51 L 4396.69,2349.11 L 4398.68,2348.86 L 4400.67,2349.02 L 4402.6,2349.56 L 4404.37,2350.48 L 4405.93,2351.74 L 4407.21,2353.28 L 4409.48,2358.26 L 4438.43,2387.26 L 4476.27,2402.98 L 4517.24,2403.01 L 4555.11,2387.36 L 4584.11,2358.42 L 4586.03,2354.29 L 4587.28,2352.77 L 4590.52,2350.61 L 4594.41,2349.84 L 4598.23,2350.61 L 4599.96,2351.53 L 4602.72,2354.29 L 4604.21,2357.89 L 4608.62,2380.06 L 4630.06,2412.14 L 4662.15,2433.59 L 4700,2441.11 L 4737.84,2433.59 L 4769.93,2412.15 L 4791.62,2379.69 L 4792.71,2377.54 L 4794.04,2375.99 L 4795.65,2374.74 L 4797.49,2373.84 L 4799.47,2373.34 L 4801.5,2373.24 L 4803.52,2373.57 L 4805.43,2374.29 L 4807.15,2375.39 L 4808.61,2376.81 L 4809.75,2378.5 L 4810.53,2380.39 L 4812.05,2385.55 L 4836.44,2415.68 L 4870.92,2434.41 L 4871.4,2434.51 L 4880,2429.59 L 4880,2394.59 L 4873.97,2392.36 L 4863.83,2386.03 L 4855.16,2377.8 L 4848.33,2367.98 L 4843.61,2356.99 L 4841.2,2345.28 L 4840.9,2260.7 L 4842.11,2248.8 L 4845.69,2237.39 L 4851.49,2226.94 L 4859.28,2217.87 L 4868.74,2210.55 L 4880,2205.15 L 4880,2170.42 L 4871.4,2165.5 L 4870.92,2165.59 L 4836.45,2184.32 L 4812.05,2214.46 L 4810.53,2219.61 L 4809.75,2221.5 L 4808.61,2223.19 L 4807.15,2224.62 L 4805.43,2225.71 L 4803.52,2226.44 L 4801.5,2226.76 L 4799.47,2226.67 L 4797.49,2226.16 L 4795.66,2225.27 L 4794.04,2224.02 L 4792.72,2222.47 L 4791.62,2220.31 L 4769.93,2187.86 L 4737.85,2166.42 L 4700,2158.89 L 4662.15,2166.42 L 4630.06,2187.86 L 4608.62,2219.95 L 4604.21,2242.11 L 4602.72,2245.72 L 4599.96,2248.47 L 4596.36,2249.97 L 4592.43,2249.97 L 4590.55,2249.4 L 4587.3,2247.23 L 4586.06,2245.71 L 4584.21,2241.74 L 4555.27,2212.74 L 4551.13,2210.82 L 4549.62,2209.57 L 4547.45,2206.33 L 4546.69,2202.5 L 4546.69,1847.43 L 4547.45,1843.6 L 4548.38,1841.87 L 4553.9,1836.09 L 4563.61,1812.71 L 4563.63,1787.41 L 4553.97,1764.01 L 4536.09,1746.1 L 4512.71,1736.39 L 4487.4,1736.37 L 4464.01,1746.03 L 4446.09,1763.91 L 4436.39,1787.29 L 4436.36,1812.6 L 4446.25,1836.52 L 4447.01,1840.34 L 4446.81,2204.42 L 4445.32,2208.03 L 4444.07,2209.55 L 4442.56,2210.79 L 4438.59,2212.64 L 4409.59,2241.58 L 4407.25,2246.71 L 4404.49,2249.47 L 4400.89,2250.96 L 4396.99,2250.95 L 4393.4,2249.47 L 4382.19,2246.1 L 4356.21,2272.07 L 4357.55,2274.38 L 4361.61,2286.9 L 4362.99,2300 L 4361.61,2313.1 L 4357.55,2325.62 L 4356.21,2327.93M 4272.12,2356.16 L 4246.09,2382.19 L 4248.75,2391.02 L 4284.44,2403.85 L 4325.61,2401.89 L 4351.16,2391.31 L 4353.9,2382.19 L 4327.88,2356.16 L 4319.46,2359.91 L 4306.58,2362.65 L 4293.42,2362.65 L 4280.54,2359.91 L 4272.12,2356.16M 5736.4,2480 L 5739.91,2470.53 L 5747.08,2459.03 L 5756.41,2449.22 L 5767.52,2441.48 L 5779.97,2436.14 L 5793.23,2433.42 L 5800,2433.07 L 5813.47,2434.44 L 5826.39,2438.5 L 5838.23,2445.07 L 5848.51,2453.89 L 5856.8,2464.6 L 5862.76,2476.76 L 5863.6,2480 L 5897.92,2480 L 5902.46,2471.39 L 5891.56,2445.06 L 5870.99,2422.49 L 5869,2419.21 L 5868.39,2415.42 L 5869.25,2411.68 L 5871.46,2408.54 L 5872.97,2407.35 L 5876.54,2405.93 L 5881.68,2404.96 L 5895.36,2396.16 L 5904.49,2382.79 L 5907.91,2365.92 L 5907.91,2234.01 L 5904.96,2218.32 L 5896.16,2204.64 L 5882.79,2195.51 L 5865.92,2192.09 L 5816.72,2192.09 L 5812.89,2191.33 L 5811.16,2190.41 L 5635.94,2015.46 L 5619,2004.13 L 5599.01,2000.16 L 5350.99,2000.16 L 5331,2004.13 L 5314.06,2015.45 L 5268.6,2060.91 L 5257.28,2077.85 L 5253.31,2097.83 L 5253.11,2204.42 L 5251.62,2208.03 L 5250.37,2209.55 L 5248.86,2210.79 L 5244.89,2212.64 L 5215.89,2241.58 L 5213.96,2245.72 L 5212.72,2247.23 L 5211.2,2248.48 L 5207.6,2249.97 L 5205.59,2250.16 L 5201.76,2249.4 L 5200.04,2248.47 L 5197.28,2245.72 L 5195.78,2242.11 L 5191.38,2219.95 L 5169.93,2187.86 L 5137.85,2166.42 L 5100,2158.89 L 5062.15,2166.42 L 5030.06,2187.86 L 5008.38,2220.31 L 5007.28,2222.47 L 5005.95,2224.02 L 5004.34,2225.27 L 5002.51,2226.16 L 5000.53,2226.67 L 4998.49,2226.76 L 4996.48,2226.44 L 4994.57,2225.71 L 4992.85,2224.62 L 4991.39,2223.19 L 4990.24,2221.5 L 4989.47,2219.61 L 4987.94,2214.46 L 4963.55,2184.32 L 4929.08,2165.59 L 4928.6,2165.5 L 4920,2170.42 L 4920,2205.41 L 4926.03,2207.64 L 4936.17,2213.97 L 4944.84,2222.2 L 4951.67,2232.02 L 4956.39,2243.01 L 4958.8,2254.72 L 4959.1,2339.3 L 4957.89,2351.2 L 4954.31,2362.61 L 4948.51,2373.06 L 4940.72,2382.13 L 4931.26,2389.45 L 4920,2394.85 L 4920,2429.58 L 4928.6,2434.51 L 4929.07,2434.41 L 4963.55,2415.68 L 4987.94,2385.55 L 4989.47,2380.39 L 4990.24,2378.5 L 4991.39,2376.81 L 4992.85,2375.39 L 4994.57,2374.29 L 4996.48,2373.57 L 4998.49,2373.24 L 5000.53,2373.34 L 5002.51,2373.84 L 5004.34,2374.74 L 5005.95,2375.99 L 5007.28,2377.54 L 5008.38,2379.69 L 5030.06,2412.14 L 5062.15,2433.59 L 5100,2441.11 L 5137.84,2433.59 L 5169.93,2412.15 L 5191.37,2380.06 L 5196.35,2356.02 L 5198.52,2352.77 L 5201.76,2350.61 L 5205.59,2349.84 L 5207.57,2350.04 L 5209.45,2350.61 L 5212.69,2352.78 L 5213.94,2354.3 L 5215.78,2358.27 L 5244.73,2387.26 L 5282.57,2402.98 L 5323.54,2403.01 L 5361.41,2387.36 L 5390.41,2358.42 L 5392.74,2353.3 L 5393.99,2351.78 L 5397.23,2349.62 L 5399.11,2349.05 L 5403.01,2349.05 L 5406.59,2350.53 L 5417.81,2353.91 L 5443.79,2327.93 L 5442.45,2325.62 L 5438.39,2313.1 L 5437.01,2300 L 5438.39,2286.9 L 5442.45,2274.38 L 5443.78,2272.07 L 5417.81,2246.09 L 5406.52,2249.49 L 5403.3,2250.89 L 5401.32,2251.14 L 5399.32,2250.99 L 5397.4,2250.44 L 5395.62,2249.52 L 5394.07,2248.27 L 5392.79,2246.73 L 5390.51,2241.74 L 5361.57,2212.74 L 5357.43,2210.82 L 5355.92,2209.57 L 5353.75,2206.33 L 5352.99,2202.5 L 5353.18,2119.69 L 5353.75,2117.81 L 5355.92,2114.57 L 5369.23,2101.53 L 5370.96,2100.61 L 5374.79,2099.84 L 5575.21,2099.84 L 5579.04,2100.61 L 5582.28,2102.77 L 5691.91,2212.41 L 5694.09,2215.66 L 5694.66,2217.55 L 5694.64,2221.46 L 5692.09,2234.07 L 5692.09,2366.01 L 5695.04,2381.69 L 5703.84,2395.36 L 5717.21,2404.5 L 5723.72,2405.82 L 5727.25,2407.27 L 5729.97,2409.94 L 5731.5,2413.43 L 5731.74,2415.33 L 5731.11,2419.1 L 5729.13,2422.35 L 5708.44,2445.05 L 5697.53,2471.39 L 5702.08,2480 L 5736.4,2480M 5524.73,2643.84 L 5550.76,2617.81 L 5548.1,2608.98 L 5512.41,2596.15 L 5471.23,2598.11 L 5445.69,2608.7 L 5442.94,2617.81 L 5468.97,2643.84 L 5477.39,2640.09 L 5490.27,2637.35 L 5503.43,2637.35 L 5516.31,2640.09 L 5524.73,2643.84M 5553.06,2672.07 L 5554.4,2674.38 L 5558.46,2686.9 L 5559.84,2700 L 5558.46,2713.1 L 5554.4,2725.62 L 5553.06,2727.93 L 5579.04,2753.91 L 5587.87,2751.25 L 5600.7,2715.56 L 5598.74,2674.39 L 5588.15,2648.84 L 5579.04,2646.1 L 5553.06,2672.07M 5527.88,2243.84 L 5553.91,2217.81 L 5551.25,2208.98 L 5515.56,2196.15 L 5474.38,2198.11 L 5448.84,2208.7 L 5446.09,2217.81 L 5472.12,2243.84 L 5480.54,2240.09 L 5493.42,2237.35 L 5506.58,2237.35 L 5519.46,2240.09 L 5527.88,2243.84M 5556.21,2327.93 L 5582.19,2353.91 L 5591.02,2351.25 L 5603.85,2315.56 L 5601.89,2274.39 L 5591.3,2248.84 L 5582.19,2246.1 L 5556.21,2272.07 L 5557.55,2274.38 L 5561.61,2286.9 L 5562.99,2300 L 5561.61,2313.1 L 5557.55,2325.62 L 5556.21,2327.93M 5472.12,2356.16 L 5446.09,2382.19 L 5448.75,2391.02 L 5484.44,2403.85 L 5525.61,2401.89 L 5551.16,2391.31 L 5553.9,2382.19 L 5527.88,2356.16 L 5519.46,2359.91 L 5506.58,2362.65 L 5493.42,2362.65 L 5480.54,2359.91 L 5472.12,2356.16M 5736.4,1820 L 5702.08,1820 L 5697.53,1828.61 L 5708.44,1854.95 L 5736.65,1885.9 L 5771.65,1902.34 L 5780,1897.96 L 5780,1863.51 L 5773.61,1861.5 L 5761.77,1854.93 L 5751.49,1846.11 L 5743.2,1835.4 L 5737.24,1823.24 L 5736.4,1820M 5820,1863.86 L 5820,1897.96 L 5828.35,1902.34 L 5863.35,1885.91 L 5891.56,1854.95 L 5902.47,1828.62 L 5897.92,1820 L 5863.6,1820 L 5860.09,1829.47 L 5852.92,1840.97 L 5843.59,1850.78 L 5832.48,1858.52 L 5820,1863.86M 3472.12,1343.84 L 3480.54,1340.09 L 3493.42,1337.35 L 3506.58,1337.35 L 3519.46,1340.09 L 3527.88,1343.84 L 3553.91,1317.81 L 3551.25,1308.98 L 3515.56,1296.15 L 3474.38,1298.11 L 3448.84,1308.7 L 3446.09,1317.81 L 3472.12,1343.84 z " style="fill-opacity:1.000000;fill:rgb(103,198,105);stroke:rgb(0,0,0);stroke-width:2"/></g>
<g fill-rule="evenodd"><path d="M 4759.1,2739.3 L 4757.89,2751.2 L 4754.31,2762.61 L 4748.51,2773.06 L 4740.72,2782.13 L 4731.26,2789.45 L 4720.52,2794.72 L 4708.95,2797.72 L 4697.01,2798.32 L 4685.19,2796.51 L 4673.97,2792.36 L 4663.83,2786.03 L 4655.16,2777.8 L 4648.33,2767.98 L 4643.61,2756.99 L 4641.2,2745.28 L 4640.9,2660.7 L 4642.11,2648.8 L 4645.69,2637.39 L 4651.49,2626.94 L 4659.28,2617.87 L 4668.74,2610.55 L 4679.48,2605.28 L 4691.05,2602.28 L 4702.99,2601.68 L 4714.81,2603.49 L 4726.03,2607.64 L 4736.17,2613.97 L 4744.84,2622.2 L 4751.67,2632.02 L 4756.39,2643.01 L 4758.8,2654.72 L 4759.1,2739.3 z " style="fill-opacity:1.000000;fill:rgb(115,81,255);stroke:rgb(0,0,0);stroke-width:2"/></g>
<g fill-rule="evenodd"><path d="M 2077.67,366.042 L 2076.98,372.562 L 2071.9,388.21 L 2063.67,402.458 L 2052.66,414.684 L 2039.35,424.356 L 2024.32,431.048 L 2008.23,434.468 L 1991.77,434.468 L 1975.68,431.048 L 1960.65,424.356 L 1947.34,414.684 L 1936.33,402.458 L 1928.1,388.21 L 1923.02,372.562 L 1921.3,356.2 L 1923.02,339.838 L 1928.1,324.19 L 1936.33,309.942 L 1947.34,297.716 L 1960.65,288.044 L 1975.68,281.352 L 1991.77,277.932 L 2008.23,277.932 L 2024.32,281.352 L 2039.35,288.044 L 2052.66,297.716 L 2063.67,309.942 L 2071.9,324.19 L 2076.98,339.838 L 2077.66,346.358 L 3222.33,346.358 L 3223.02,339.838 L 3228.1,324.19 L 3236.33,309.942 L 3247.34,297.716 L 3260.65,288.044 L 3275.68,281.352 L 3291.77,277.932 L 3308.23,277.932 L 3324.32,281.352 L 3339.35,288.044 L 3352.66,297.716 L 3363.67,309.942 L 3371.9,324.19 L 3377.01,340.158 L 4300,340.158 L 4303.77,340.908 L 4306.96,343.042 L 4506.96,543.042 L 4509.09,546.234 L 4509.65,548.08 L 4509.84,1378.67 L 4511.81,1379.54 L 4515.81,1382.45 L 4519.11,1386.12 L 4521.58,1390.39 L 4523.1,1395.09 L 4523.62,1400 L 4523.1,1404.91 L 4521.58,1409.61 L 4519.11,1413.88 L 4515.81,1417.55 L 4511.81,1420.46 L 4507.3,1422.46 L 4502.47,1423.49 L 4497.53,1423.49 L 4492.7,1422.46 L 4488.19,1420.46 L 4484.19,1417.55 L 4480.89,1413.88 L 4478.42,1409.61 L 4476.9,1404.91 L 4476.38,1400 L 4476.9,1395.09 L 4478.42,1390.39 L 4480.89,1386.12 L 4484.19,1382.45 L 4488.19,1379.54 L 4490.16,1378.67 L 4490.16,554.078 L 4295.92,359.842 L 3378.32,359.842 L 3376.98,372.562 L 3371.9,388.21 L 3363.67,402.458 L 3352.66,414.684 L 3339.35,424.356 L 3324.32,431.048 L 3308.23,434.468 L 3291.77,434.468 L 3275.68,431.048 L 3260.65,424.356 L 3247.34,414.684 L 3236.33,402.458 L 3228.1,388.21 L 3223.02,372.562 L 3222.34,366.042 L 2077.67,366.042 z " style="fill-opacity:1.000000;fill:rgb(74,236,41);stroke:rgb(0,0,0);stroke-width:2"/></g>
<g fill-rule="evenodd"><path d="M 2277.67,2816.04 L 2276.98,2822.56 L 2271.9,2838.21 L 2263.67,2852.46 L 2252.66,2864.68 L 2239.35,2874.36 L 2224.32,2881.05 L 2208.23,2884.47 L 2191.77,2884.47 L 2175.68,2881.05 L 2160.65,2874.36 L 2147.34,2864.68 L 2136.33,2852.46 L 2128.1,2838.21 L 2123.02,2822.56 L 2121.3,2806.2 L 2123.02,2789.84 L 2128.1,2774.19 L 2136.33,2759.94 L 2147.34,2747.72 L 2160.65,2738.04 L 2175.68,2731.35 L 2191.77,2727.93 L 2208.23,2727.93 L 2224.32,2731.35 L 2239.35,2738.04 L 2252.66,2747.72 L 2263.67,2759.94 L 2271.9,2774.19 L 2276.98,2789.84 L 2277.66,2796.36 L 3422.33,2796.36 L 3423.02,2789.84 L 3428.1,2774.19 L 3436.33,2759.94 L 3447.34,2747.72 L 3460.65,2738.04 L 3475.68,2731.35 L 3491.77,2727.93 L 3508.23,2727.93 L 3524.32,2731.35 L 3539.35,2738.04 L 3552.66,2747.72 L 3563.67,2759.94 L 3571.9,2774.19 L 3576.98,2789.84 L 3578.7,2806.2 L 3576.98,2822.56 L 3571.9,2838.21 L 3563.67,2852.46 L 3562.01,2854.3 L 3747.87,3040.16 L 4445.92,3040.16 L 4490.16,2995.92 L 4490.16,2761.95 L 4480.54,2759.91 L 4468.51,2754.55 L 4457.85,2746.81 L 4449.04,2737.02 L 4442.45,2725.62 L 4438.39,2713.1 L 4437.01,2700 L 4438.39,2686.9 L 4442.45,2674.38 L 4449.04,2662.98 L 4457.85,2653.19 L 4468.5,2645.45 L 4480.54,2640.09 L 4493.42,2637.35 L 4506.58,2637.35 L 4519.46,2640.09 L 4531.49,2645.45 L 4542.15,2653.19 L 4550.96,2662.98 L 4557.55,2674.38 L 4561.61,2686.9 L 4562.99,2700 L 4561.61,2713.1 L 4557.55,2725.62 L 4550.96,2737.02 L 4542.15,2746.81 L 4531.5,2754.55 L 4519.46,2759.91 L 4509.84,2761.95 L 4509.84,3000 L 4509.09,3003.77 L 4506.96,3006.96 L 4456.96,3056.96 L 4453.76,3059.09 L 4450,3059.84 L 3741.88,3059.65 L 3740.03,3059.09 L 3736.84,3056.96 L 3547.97,2868.09 L 3539.35,2874.36 L 3524.32,2881.05 L 3508.23,2884.47 L 3491.77,2884.47 L 3475.68,2881.05 L 3460.65,2874.36 L 3447.34,2864.68 L 3436.33,2852.46 L 3428.1,2838.21 L 3423.02,2822.56 L 3422.34,2816.04 L 2277.67,2816.04 z " style="fill-opacity:1.000000;fill:rgb(205,186,171);stroke:rgb(0,0,0);stroke-width:2"/></g>
<g fill-rule="evenodd"><path d="M 3090.16,1820 L 3055,1820 L 3055,1780 L 3145,1780 L 3145,1820 L 3109.84,1820 L 3109.84,2045.92 L 3204.07,2140.16 L 3645.92,2140.16 L 3651.23,2134.86 L 3645.19,2124.4 L 3641.31,2112.47 L 3640,2100 L 3641.31,2087.53 L 3645.19,2075.6 L 3651.46,2064.73 L 3659.85,2055.41 L 3670,2048.04 L 3681.46,2042.94 L 3693.73,2040.33 L 3706.27,2040.33 L 3718.54,2042.94 L 3730,2048.04 L 3740.15,2055.41 L 3748.54,2064.73 L 3754.81,2075.6 L 3758.69,2087.53 L 3760,2100 L 3758.69,2112.47 L 3754.81,2124.4 L 3748.54,2135.27 L 3740.15,2144.59 L 3730,2151.96 L 3718.54,2157.06 L 3706.27,2159.67 L 3693.73,2159.67 L 3681.46,2157.06 L 3670,2151.96 L 3665.34,2148.58 L 3655.47,2158.18 L 3651.92,2159.65 L 3650,2159.84 L 3200,2159.84 L 3196.23,2159.09 L 3193.04,2156.96 L 3093.04,2056.96 L 3090.9,2053.77 L 3090.16,2050 L 3090.16,1820 z " style="fill-opacity:1.000000;fill:rgb(242,251,227);stroke:rgb(0,0,0);stroke-width:2"/></g>
<g fill-rule="evenodd"><path d="M 2261.96,1609.84 L 2261.61,1613.1 L 2257.55,1625.62 L 2250.96,1637.02 L 2242.15,1646.81 L 2231.5,1654.55 L 2219.46,1659.91 L 2206.58,1662.65 L 2193.42,1662.65 L 2180.54,1659.91 L 2168.51,1654.55 L 2157.85,1646.81 L 2149.04,1637.02 L 2142.45,1625.62 L 2138.39,1613.1 L 2137.01,1600 L 2138.39,1586.9 L 2142.45,1574.38 L 2149.04,1562.98 L 2157.85,1553.19 L 2168.5,1545.45 L 2180.54,1540.09 L 2193.42,1537.35 L 2206.58,1537.35 L 2219.46,1540.09 L 2231.49,1545.45 L 2242.15,1553.19 L 2250.96,1562.98 L 2257.55,1574.38 L 2261.61,1586.9 L 2261.96,1590.16 L 2400,1590.16 L 2403.77,1590.91 L 2406.96,1593.04 L 2504.07,1690.16 L 2555,1690.16 L 2555,1680 L 2645,1680 L 2645,1720 L 2555,1720 L 2555,1709.84 L 2500,1709.84 L 2496.23,1709.09 L 2493.04,1706.96 L 2395.92,1609.84 L 2261.96,1609.84 z " style="fill-opacity:1.000000;fill:rgb(70,124,194);stroke:rgb(0,0,0);stroke-width:2"/></g>
<g fill-rule="evenodd"><path d="M 1941.19,1609.84 L 1845,1609.84 L 1845,1620 L 1755,1620 L 1755,1580 L 1845,1580 L 1845,1590.16 L 1941.19,1590.16 L 1941.53,1586.9 L 1945.6,1574.38 L 1952.19,1562.98 L 1961,1553.19 L 1971.65,1545.45 L 1983.68,1540.09 L 1996.56,1537.35 L 2009.73,1537.35 L 2022.61,1540.09 L 2034.64,1545.45 L 2039.93,1549.29 L 2096.19,1493.04 L 2097.68,1491.82 L 2101.23,1490.35 L 2295.92,1490.16 L 2390.16,1395.92 L 2390.16,1358.91 L 2381.46,1357.06 L 2370,1351.96 L 2359.85,1344.59 L 2351.46,1335.27 L 2345.19,1324.4 L 2341.31,1312.47 L 2340,1300 L 2341.31,1287.53 L 2345.19,1275.6 L 2351.46,1264.73 L 2359.85,1255.41 L 2370,1248.04 L 2381.46,1242.94 L 2393.73,1240.33 L 2406.27,1240.33 L 2418.54,1242.94 L 2430,1248.04 L 2440.15,1255.41 L 2448.54,1264.73 L 2454.81,1275.6 L 2458.69,1287.53 L 2460,1300 L 2458.69,1312.47 L 2454.81,1324.4 L 2448.54,1335.27 L 2440.15,1344.59 L 2430,1351.96 L 2418.54,1357.06 L 2409.84,1358.91 L 2409.84,1400 L 2409.09,1403.77 L 2408.18,1405.47 L 2305.47,1508.18 L 2301.92,1509.65 L 2300,1509.84 L 2107.22,1509.84 L 2054.1,1562.97 L 2060.69,1574.38 L 2064.76,1586.9 L 2066.14,1600 L 2064.76,1613.1 L 2060.69,1625.62 L 2054.11,1637.02 L 2045.3,1646.81 L 2034.64,1654.55 L 2022.61,1659.91 L 2009.73,1662.65 L 1996.56,1662.65 L 1983.68,1659.91 L 1971.65,1654.55 L 1961,1646.81 L 1952.19,1637.02 L 1945.6,1625.62 L 1941.53,1613.1 L 1941.19,1609.84 z " style="fill-opacity:1.000000;fill:rgb(84,248,27);stroke:rgb(0,0,0);stroke-width:2"/></g>
<g fill-rule="evenodd"><path d="M 566.928,1690.16 L 841.19,1690.16 L 841.534,1686.9 L 845.602,1674.38 L 852.188,1662.98 L 861,1653.19 L 871.652,1645.45 L 883.684,1640.09 L 896.564,1637.35 L 909.732,1637.35 L 922.612,1640.09 L 934.642,1645.45 L 945.296,1653.19 L 954.108,1662.98 L 960.694,1674.38 L 964.762,1686.9 L 966.14,1700 L 964.762,1713.1 L 960.694,1725.62 L 954.108,1737.02 L 945.296,1746.81 L 934.644,1754.55 L 922.612,1759.91 L 909.732,1762.65 L 896.564,1762.65 L 883.684,1759.91 L 871.654,1754.55 L 861,1746.81 L 852.188,1737.02 L 845.602,1725.62 L 841.534,1713.1 L 841.192,1709.84 L 566.928,1709.84 L 566.928,1766.93 L 433.072,1766.93 L 433.072,1633.07 L 566.928,1633.07 L 566.928,1690.16 z " style="fill-opacity:1.000000;fill:rgb(232,231,141);stroke:rgb(0,0,0);stroke-width:2"/></g>
<g fill-rule="evenodd"><path d="M 1255,1690.16 L 1255,1680 L 1345,1680 L 1345,1720 L 1255,1720 L 1255,1709.84 L 1161.96,1709.84 L 1161.61,1713.1 L 1157.55,1725.62 L 1150.96,1737.02 L 1142.15,1746.81 L 1131.5,1754.55 L 1119.46,1759.91 L 1106.58,1762.65 L 1093.42,1762.65 L 1080.54,1759.91 L 1068.51,1754.55 L 1057.85,1746.81 L 1049.04,1737.02 L 1042.45,1725.62 L 1038.39,1713.1 L 1037.01,1700 L 1038.39,1686.9 L 1042.45,1674.38 L 1049.04,1662.98 L 1057.85,1653.19 L 1068.5,1645.45 L 1080.54,1640.09 L 1093.42,1637.35 L 1106.58,1637.35 L 1119.46,1640.09 L 1131.49,1645.45 L 1142.15,1653.19 L 1150.96,1662.98 L 1157.55,1674.38 L 1161.61,1686.9 L 1161.96,1690.16 L 1255,1690.16 z " style="fill-opacity:1.000000;fill:rgb(118,90,46);stroke:rgb(0,0,0);stroke-width:2"/></g>
<g fill-rule="evenodd"><path d="M 1790.16,1820 L 1755,1820 L 1755,1780 L 1845,1780 L 1845,1820 L 1809.84,1820 L 1809.84,2095.93 L 1854.07,2140.16 L 2345.92,2140.16 L 2351.23,2134.86 L 2345.19,2124.4 L 2341.31,2112.47 L 2340,2100 L 2341.31,2087.53 L 2345.19,2075.6 L 2351.46,2064.73 L 2359.85,2055.41 L 2370,2048.04 L 2381.46,2042.94 L 2393.73,2040.33 L 2406.27,2040.33 L 2418.54,2042.94 L 2430,2048.04 L 2440.15,2055.41 L 2448.54,2064.73 L 2454.81,2075.6 L 2458.69,2087.53 L 2460,2100 L 2458.69,2112.47 L 2454.81,2124.4 L 2448.54,2135.27 L 2440.15,2144.59 L 2430,2151.96 L 2418.54,2157.06 L 2406.27,2159.67 L 2393.73,2159.67 L 2381.46,2157.06 L 2370,2151.96 L 2365.34,2148.58 L 2355.47,2158.18 L 2351.92,2159.65 L 2350,2159.84 L 1850,2159.84 L 1846.23,2159.09 L 1843.04,2156.96 L 1793.04,2106.96 L 1790.91,2103.77 L 1790.35,2101.92 L 1790.16,1820 z " style="fill-opacity:1.000000;fill:rgb(99,51,159);stroke:rgb(0,0,0);stroke-width:2"/></g>
<g fill-rule="evenodd"><path d="M 1845,1709.84 L 1845,1720 L 1755,1720 L 1755,1680 L 1845,1680 L 1845,1690.16 L 1901.92,1690.35 L 1903.77,1690.91 L 1906.96,1693.04 L 1964.53,1750.62 L 1971.65,1745.45 L 1983.68,1740.09 L 1996.56,1737.35 L 2009.73,1737.35 L 2022.61,1740.09 L 2034.64,1745.45 L 2045.3,1753.19 L 2054.11,1762.98 L 2060.69,1774.38 L 2064.76,1786.9 L 2066.14,1800 L 2064.76,1813.1 L 2060.69,1825.62 L 2054.11,1837.02 L 2052.61,1838.69 L 2106.96,1893.04 L 2109.09,1896.23 L 2109.65,1898.08 L 2109.84,1902.13 L 2152.03,1944.31 L 2160.65,1938.04 L 2175.68,1931.35 L 2191.77,1927.93 L 2208.23,1927.93 L 2224.32,1931.35 L 2239.35,1938.04 L 2252.66,1947.72 L 2263.67,1959.94 L 2271.9,1974.19 L 2276.98,1989.84 L 2278.7,2006.2 L 2276.98,2022.56 L 2271.9,2038.21 L 2263.67,2052.46 L 2252.66,2064.68 L 2239.35,2074.36 L 2224.32,2081.05 L 2208.23,2084.47 L 2191.77,2084.47 L 2175.68,2081.05 L 2160.65,2074.36 L 2147.34,2064.68 L 2136.33,2052.46 L 2128.1,2038.21 L 2123.02,2022.56 L 2121.3,2006.2 L 2123.02,1989.84 L 2128.1,1974.19 L 2136.33,1959.94 L 2137.98,1958.11 L 2093.04,1913.16 L 2090.91,1909.97 L 2090.35,1908.12 L 2090.16,1904.08 L 2038.11,1852.03 L 2034.64,1854.55 L 2022.61,1859.91 L 2009.73,1862.65 L 1996.56,1862.65 L 1983.68,1859.91 L 1971.65,1854.55 L 1961,1846.81 L 1952.19,1837.02 L 1945.6,1825.62 L 1941.53,1813.1 L 1940.16,1800 L 1941.53,1786.9 L 1945.6,1774.38 L 1951.04,1764.96 L 1895.92,1709.84 L 1845,1709.84 z " style="fill-opacity:1.000000;fill:rgb(201,154,102);stroke:rgb(0,0,0);stroke-width:2"/></g>
<g fill-rule="evenodd"><path d="M 1383.07,1190.16 L 1383.07,1133.07 L 1516.93,1133.07 L 1516.93,1266.93 L 1383.07,1266.93 L 1383.07,1209.84 L 1159.84,1209.84 L 1159.84,1445.93 L 1204.07,1490.16 L 1255,1490.16 L 1255,1480 L 1345,1480 L 1345,1520 L 1255,1520 L 1255,1509.84 L 1200,1509.84 L 1198.08,1509.65 L 1194.53,1508.18 L 1143.04,1456.96 L 1140.91,1453.77 L 1140.35,1451.92 L 1140.16,1000 L 1140.91,996.236 L 1143.04,993.042 L 1193.04,943.042 L 1196.23,940.908 L 1200,940.158 L 2501.92,940.348 L 2503.77,940.908 L 2506.96,943.042 L 2606.96,1043.04 L 2609.09,1046.23 L 2609.65,1048.08 L 2609.84,1480 L 2645,1480 L 2645,1520 L 2555,1520 L 2555,1480 L 2590.16,1480 L 2590.16,1054.08 L 2495.92,959.842 L 1204.08,959.842 L 1159.84,1004.08 L 1159.84,1190.16 L 1383.07,1190.16 z " style="fill-opacity:1.000000;fill:rgb(50,13,183);stroke:rgb(0,0,0);stroke-width:2"/></g>
<g fill-rule="evenodd"><path d="M 1255,1590.16 L 1255,1580 L 1345,1580 L 1345,1620 L 1255,1620 L 1255,1609.84 L 1200,1609.84 L 1198.08,1609.65 L 1194.53,1608.18 L 793.04,1206.96 L 790.906,1203.77 L 790.158,1200 L 790.158,554.078 L 745.922,509.842 L 565.854,509.842 L 564.79,516.774 L 560.088,529.474 L 552.924,540.966 L 543.594,550.782 L 532.48,558.518 L 520.034,563.858 L 506.77,566.584 L 500,566.928 L 486.528,565.556 L 473.608,561.504 L 461.768,554.932 L 451.492,546.11 L 443.202,535.402 L 437.24,523.244 L 433.844,510.134 L 433.158,496.612 L 435.21,483.226 L 439.912,470.526 L 447.076,459.034 L 456.406,449.218 L 467.52,441.482 L 479.966,436.142 L 493.23,433.416 L 500,433.072 L 513.472,434.444 L 526.392,438.496 L 538.232,445.068 L 548.508,453.89 L 556.798,464.598 L 562.76,476.756 L 566.17,490.158 L 751.92,490.348 L 753.766,490.908 L 756.958,493.042 L 808.182,544.534 L 809.092,546.234 L 809.842,550 L 809.842,1195.93 L 1204.07,1590.16 L 1255,1590.16 z " style="fill-opacity:1.000000;fill:rgb(49,88,163);stroke:rgb(0,0,0);stroke-width:2"/></g>
<g fill-rule="evenodd"><path d="M 566.928,309.842 L 566.928,366.928 L 433.072,366.928 L 433.072,233.072 L 566.928,233.072 L 566.928,290.158 L 850,290.158 L 853.766,290.908 L 855.466,291.818 L 1404.07,840.158 L 2600,840.158 L 2603.77,840.908 L 2605.47,841.818 L 2756.96,993.042 L 2759.09,996.234 L 2759.65,998.08 L 2759.84,1550 L 2759.09,1553.77 L 2758.18,1555.47 L 2706.96,1606.96 L 2703.76,1609.09 L 2700,1609.84 L 2645,1609.84 L 2645,1620 L 2555,1620 L 2555,1580 L 2645,1580 L 2645,1590.16 L 2695.92,1590.16 L 2740.16,1545.92 L 2740.16,1004.08 L 2595.92,859.842 L 1398.08,859.654 L 1396.23,859.094 L 1393.04,856.96 L 845.922,309.842 L 566.928,309.842 z " style="fill-opacity:1.000000;fill:rgb(90,37,93);stroke:rgb(0,0,0);stroke-width:2"/></g>
<g fill-rule="evenodd"><path d="M 2012.99,1233.45 L 2012.99,1338.05 L 2022.61,1340.09 L 2034.64,1345.45 L 2045.3,1353.19 L 2054.11,1362.98 L 2060.69,1374.38 L 2064.76,1386.9 L 2066.14,1400 L 2064.76,1413.1 L 2060.69,1425.62 L 2054.11,1437.02 L 2045.3,1446.81 L 2034.64,1454.55 L 2022.61,1459.91 L 2009.73,1462.65 L 1996.56,1462.65 L 1983.68,1459.91 L 1971.65,1454.55 L 1964.54,1449.38 L 1906.96,1506.96 L 1903.76,1509.09 L 1901.92,1509.65 L 1845,1509.84 L 1845,1520 L 1755,1520 L 1755,1480 L 1845,1480 L 1845,1490.16 L 1895.92,1490.16 L 1951.04,1435.04 L 1945.6,1425.62 L 1941.53,1413.1 L 1940.16,1400 L 1941.53,1386.9 L 1945.6,1374.38 L 1952.19,1362.98 L 1961,1353.19 L 1971.65,1345.45 L 1983.68,1340.09 L 1993.31,1338.05 L 1993.31,1234.47 L 1991.77,1234.47 L 1975.68,1231.05 L 1960.65,1224.36 L 1947.34,1214.68 L 1936.33,1202.46 L 1928.1,1188.21 L 1923.02,1172.56 L 1921.3,1156.2 L 1923.02,1139.84 L 1928.1,1124.19 L 1936.33,1109.94 L 1947.34,1097.72 L 1960.65,1088.04 L 1975.68,1081.35 L 1991.77,1077.93 L 2008.23,1077.93 L 2024.32,1081.35 L 2039.35,1088.04 L 2052.66,1097.72 L 2063.67,1109.94 L 2071.9,1124.19 L 2076.98,1139.84 L 2078.7,1156.2 L 2076.98,1172.56 L 2071.9,1188.21 L 2063.67,1202.46 L 2052.66,1214.68 L 2039.35,1224.36 L 2024.32,1231.05 L 2012.99,1233.45 z " style="fill-opacity:1.000000;fill:rgb(5,23,88);stroke:rgb(0,0,0);stroke-width:2"/></g>
<g fill-rule="evenodd"><path d="M 5733.07,1590.16 L 5733.07,1533.07 L 5866.93,1533.07 L 5866.93,1666.93 L 5733.07,1666.93 L 5733.07,1609.84 L 3561.96,1609.84 L 3561.61,1613.1 L 3557.55,1625.62 L 3550.96,1637.02 L 3542.15,1646.81 L 3531.5,1654.55 L 3519.46,1659.91 L 3506.58,1662.65 L 3493.42,1662.65 L 3480.54,1659.91 L 3468.51,1654.55 L 3457.85,1646.81 L 3449.04,1637.02 L 3442.45,1625.62 L 3438.39,1613.1 L 3437.01,1600 L 3438.39,1586.9 L 3442.45,1574.38 L 3449.04,1562.98 L 3457.85,1553.19 L 3468.5,1545.45 L 3480.54,1540.09 L 3493.42,1537.35 L 3506.58,1537.35 L 3519.46,1540.09 L 3531.49,1545.45 L 3542.15,1553.19 L 3550.96,1562.98 L 3557.55,1574.38 L 3561.61,1586.9 L 3561.96,1590.16 L 5733.07,1590.16 z " style="fill-opacity:1.000000;fill:rgb(233,94,212);stroke:rgb(0,0,0);stroke-width:2"/></g>
<g fill-rule="evenodd"><path d="M 3241.19,1609.84 L 3145,1609.84 L 3145,1620 L 3055,1620 L 3055,1580 L 3145,1580 L 3145,1590.16 L 3241.19,1590.16 L 3241.53,1586.9 L 3245.6,1574.38 L 3252.19,1562.98 L 3261,1553.19 L 3271.65,1545.45 L 3283.68,1540.09 L 3296.56,1537.35 L 3309.73,1537.35 L 3322.61,1540.09 L 3334.64,1545.45 L 3339.94,1549.29 L 3393.04,1496.19 L 3394.53,1494.97 L 3398.08,1493.5 L 3592.77,1493.31 L 3690.16,1395.92 L 3690.16,1358.91 L 3681.46,1357.06 L 3670,1351.96 L 3659.85,1344.59 L 3651.46,1335.27 L 3645.19,1324.4 L 3641.31,1312.47 L 3640,1300 L 3641.31,1287.53 L 3645.19,1275.6 L 3651.46,1264.73 L 3659.85,1255.41 L 3670,1248.04 L 3681.46,1242.94 L 3693.73,1240.33 L 3706.27,1240.33 L 3718.54,1242.94 L 3730,1248.04 L 3740.15,1255.41 L 3748.54,1264.73 L 3754.81,1275.6 L 3758.69,1287.53 L 3760,1300 L 3758.69,1312.47 L 3754.81,1324.4 L 3748.54,1335.27 L 3740.15,1344.59 L 3730,1351.96 L 3718.54,1357.06 L 3709.84,1358.91 L 3709.84,1400 L 3709.09,1403.77 L 3708.18,1405.47 L 3602.32,1511.33 L 3598.77,1512.8 L 3596.85,1512.99 L 3404.08,1512.99 L 3354.1,1562.97 L 3360.69,1574.38 L 3364.76,1586.9 L 3366.14,1600 L 3364.76,1613.1 L 3360.69,1625.62 L 3354.11,1637.02 L 3345.3,1646.81 L 3334.64,1654.55 L 3322.61,1659.91 L 3309.73,1662.65 L 3296.56,1662.65 L 3283.68,1659.91 L 3271.65,1654.55 L 3261,1646.81 L 3252.19,1637.02 L 3245.6,1625.62 L 3241.53,1613.1 L 3241.19,1609.84 z " style="fill-opacity:1.000000;fill:rgb(171,178,205);stroke:rgb(0,0,0);stroke-width:2"/></g>
<g fill-rule="evenodd"><path d="M 4558.81,2290.16 L 4641.01,2290.16 L 4640.9,2260.7 L 4642.11,2248.8 L 4645.69,2237.39 L 4651.49,2226.94 L 4659.28,2217.87 L 4668.74,2210.55 L 4679.48,2205.28 L 4691.05,2202.28 L 4702.99,2201.68 L 4714.81,2203.49 L 4726.03,2207.64 L 4736.17,2213.97 L 4744.84,2222.2 L 4751.67,2232.02 L 4756.39,2243.01 L 4758.8,2254.72 L 4759.1,2339.3 L 4757.89,2351.2 L 4754.31,2362.61 L 4748.51,2373.06 L 4740.72,2382.13 L 4731.26,2389.45 L 4720.52,2394.72 L 4708.95,2397.72 L 4697.01,2398.32 L 4685.19,2396.51 L 4673.97,2392.36 L 4663.83,2386.03 L 4655.16,2377.8 L 4648.33,2367.98 L 4643.61,2356.99 L 4641.2,2345.28 L 4641.08,2309.84 L 4558.81,2309.84 L 4558.46,2313.1 L 4554.4,2325.62 L 4547.81,2337.02 L 4539,2346.81 L 4528.35,2354.55 L 4516.31,2359.91 L 4503.43,2362.65 L 4490.27,2362.65 L 4477.39,2359.91 L 4465.36,2354.55 L 4454.7,2346.81 L 4445.89,2337.02 L 4439.3,2325.62 L 4435.24,2313.1 L 4433.86,2300 L 4435.24,2286.9 L 4439.3,2274.38 L 4445.89,2262.98 L 4454.7,2253.19 L 4465.35,2245.45 L 4477.39,2240.09 L 4487.01,2238.05 L 4487.01,1819.6 L 4484.19,1817.55 L 4480.89,1813.88 L 4478.42,1809.61 L 4476.9,1804.91 L 4476.38,1800 L 4476.9,1795.09 L 4478.42,1790.39 L 4480.89,1786.12 L 4484.19,1782.45 L 4488.19,1779.54 L 4492.7,1777.54 L 4497.53,1776.51 L 4502.47,1776.51 L 4507.3,1777.54 L 4511.81,1779.54 L 4515.81,1782.45 L 4519.11,1786.12 L 4521.58,1790.39 L 4523.1,1795.09 L 4523.62,1800 L 4523.1,1804.91 L 4521.58,1809.61 L 4519.11,1813.88 L 4515.81,1817.55 L 4511.81,1820.46 L 4506.69,1822.59 L 4506.69,2238.05 L 4516.31,2240.09 L 4528.34,2245.45 L 4539,2253.19 L 4547.81,2262.98 L 4554.4,2274.38 L 4558.46,2286.9 L 4558.81,2290.16 z " style="fill-opacity:1.000000;fill:rgb(198,155,180);stroke:rgb(0,0,0);stroke-width:2"/></g>
<g fill-rule="evenodd"><path d="M 3145,1709.84 L 3145,1720 L 3055,1720 L 3055,1680 L 3145,1680 L 3145,1690.16 L 3201.92,1690.35 L 3203.77,1690.91 L 3206.96,1693.04 L 3264.53,1750.62 L 3271.65,1745.45 L 3283.68,1740.09 L 3296.56,1737.35 L 3309.73,1737.35 L 3322.61,1740.09 L 3334.64,1745.45 L 3345.3,1753.19 L 3354.11,1762.98 L 3360.69,1774.38 L 3364.76,1786.9 L 3366.14,1800 L 3364.76,1813.1 L 3360.69,1825.62 L 3354.11,1837.02 L 3352.61,1838.69 L 3406.96,1893.04 L 3409.09,1896.23 L 3409.65,1898.08 L 3409.84,1902.13 L 3452.03,1944.31 L 3460.65,1938.04 L 3475.68,1931.35 L 3491.77,1927.93 L 3508.23,1927.93 L 3524.32,1931.35 L 3539.35,1938.04 L 3552.66,1947.72 L 3563.67,1959.94 L 3571.9,1974.19 L 3576.98,1989.84 L 3578.7,2006.2 L 3576.98,2022.56 L 3571.9,2038.21 L 3563.67,2052.46 L 3552.66,2064.68 L 3539.35,2074.36 L 3524.32,2081.05 L 3508.23,2084.47 L 3491.77,2084.47 L 3475.68,2081.05 L 3460.65,2074.36 L 3447.34,2064.68 L 3436.33,2052.46 L 3428.1,2038.21 L 3423.02,2022.56 L 3421.3,2006.2 L 3423.02,1989.84 L 3428.1,1974.19 L 3436.33,1959.94 L 3437.98,1958.11 L 3393.04,1913.16 L 3390.91,1909.97 L 3390.35,1908.12 L 3390.16,1904.08 L 3338.11,1852.03 L 3334.64,1854.55 L 3322.61,1859.91 L 3309.73,1862.65 L 3296.56,1862.65 L 3283.68,1859.91 L 3271.65,1854.55 L 3261,1846.81 L 3252.19,1837.02 L 3245.6,1825.62 L 3241.53,1813.1 L 3240.16,1800 L 3241.53,1786.9 L 3245.6,1774.38 L 3251.04,1764.96 L 3195.92,1709.84 L 3145,1709.84 z " style="fill-opacity:1.000000;fill:rgb(84,17,14);stroke:rgb(0,0,0);stroke-width:2"/></g>
<g fill-rule="evenodd"><path d="M 5350.95,2737.03 L 5454.07,2840.16 L 5645.92,2840.16 L 5746.47,2739.62 L 5743.2,2735.4 L 5737.24,2723.24 L 5733.84,2710.13 L 5733.16,2696.61 L 5735.21,2683.23 L 5739.91,2670.53 L 5747.08,2659.03 L 5756.41,2649.22 L 5767.52,2641.48 L 5779.97,2636.14 L 5793.23,2633.42 L 5800,2633.07 L 5813.47,2634.44 L 5826.39,2638.5 L 5838.23,2645.07 L 5848.51,2653.89 L 5856.8,2664.6 L 5862.76,2676.76 L 5866.16,2689.87 L 5866.84,2703.39 L 5864.79,2716.77 L 5860.09,2729.47 L 5852.92,2740.97 L 5843.59,2750.78 L 5832.48,2758.52 L 5820.03,2763.86 L 5806.77,2766.58 L 5800,2766.93 L 5786.53,2765.56 L 5773.61,2761.5 L 5761.77,2754.93 L 5760.27,2753.65 L 5656.96,2856.96 L 5653.76,2859.09 L 5651.92,2859.65 L 5450,2859.84 L 5446.23,2859.09 L 5443.04,2856.96 L 5336.79,2750.71 L 5331.5,2754.55 L 5319.46,2759.91 L 5309.84,2761.95 L 5309.84,2900 L 5309.09,2903.77 L 5306.96,2906.96 L 5255.47,2958.18 L 5251.92,2959.65 L 5250,2959.84 L 5000,2959.84 L 4996.23,2959.09 L 4993.04,2956.96 L 4893.04,2856.96 L 4890.91,2853.77 L 4890.16,2850 L 4890.16,2797.27 L 4885.19,2796.51 L 4873.97,2792.36 L 4863.83,2786.03 L 4855.16,2777.8 L 4848.33,2767.98 L 4843.61,2756.99 L 4841.2,2745.28 L 4840.9,2660.7 L 4842.11,2648.8 L 4845.69,2637.39 L 4851.49,2626.94 L 4859.28,2617.87 L 4868.74,2610.55 L 4879.48,2605.28 L 4891.05,2602.28 L 4902.99,2601.68 L 4914.81,2603.49 L 4926.03,2607.64 L 4936.17,2613.97 L 4944.84,2622.2 L 4951.67,2632.02 L 4956.39,2643.01 L 4958.8,2654.72 L 4959.1,2739.3 L 4957.89,2751.2 L 4954.31,2762.61 L 4948.51,2773.06 L 4940.72,2782.13 L 4931.26,2789.45 L 4920.52,2794.72 L 4909.84,2797.49 L 4909.84,2845.93 L 5004.07,2940.16 L 5245.92,2940.16 L 5290.16,2895.92 L 5290.16,2761.95 L 5280.54,2759.91 L 5268.51,2754.55 L 5257.85,2746.81 L 5249.04,2737.02 L 5242.45,2725.62 L 5238.39,2713.1 L 5237.01,2700 L 5238.39,2686.9 L 5242.45,2674.38 L 5249.04,2662.98 L 5257.85,2653.19 L 5268.5,2645.45 L 5280.54,2640.09 L 5293.42,2637.35 L 5306.58,2637.35 L 5319.46,2640.09 L 5331.49,2645.45 L 5342.15,2653.19 L 5350.96,2662.98 L 5357.55,2674.38 L 5361.61,2686.9 L 5362.99,2700 L 5361.61,2713.1 L 5357.55,2725.62 L 5350.95,2737.03 z " style="fill-opacity:1.000000;fill:rgb(130,116,65);stroke:rgb(0,0,0);stroke-width:2"/></g>
<g fill-rule="evenodd"><path d="M 5293.31,2238.05 L 5293.49,2094.93 L 5294.05,2093.09 L 5296.19,2089.89 L 5344.53,2041.82 L 5346.23,2040.91 L 5350,2040.16 L 5601.92,2040.35 L 5603.77,2040.91 L 5606.96,2043.04 L 5796.99,2233.07 L 5866.93,2233.07 L 5866.93,2366.93 L 5733.07,2366.93 L 5733.07,2233.07 L 5769.15,2233.07 L 5595.92,2059.84 L 5354.08,2059.84 L 5312.99,2100.93 L 5312.99,2238.05 L 5322.61,2240.09 L 5334.64,2245.45 L 5345.3,2253.19 L 5354.11,2262.98 L 5360.69,2274.38 L 5364.76,2286.9 L 5366.14,2300 L 5364.76,2313.1 L 5360.69,2325.62 L 5354.11,2337.02 L 5345.3,2346.81 L 5334.64,2354.55 L 5322.61,2359.91 L 5309.73,2362.65 L 5296.56,2362.65 L 5283.68,2359.91 L 5271.65,2354.55 L 5261,2346.81 L 5252.19,2337.02 L 5245.6,2325.62 L 5241.53,2313.1 L 5241.19,2309.84 L 5158.99,2309.84 L 5159.1,2339.3 L 5157.89,2351.2 L 5154.31,2362.61 L 5148.51,2373.06 L 5140.72,2382.13 L 5131.26,2389.45 L 5120.52,2394.72 L 5108.95,2397.72 L 5097.01,2398.32 L 5085.19,2396.51 L 5073.97,2392.36 L 5063.83,2386.03 L 5055.16,2377.8 L 5048.33,2367.98 L 5043.61,2356.99 L 5041.2,2345.28 L 5040.9,2260.7 L 5042.11,2248.8 L 5045.69,2237.39 L 5051.49,2226.94 L 5059.28,2217.87 L 5068.74,2210.55 L 5079.48,2205.28 L 5091.05,2202.28 L 5102.99,2201.68 L 5114.81,2203.49 L 5126.03,2207.64 L 5136.17,2213.97 L 5144.84,2222.2 L 5151.67,2232.02 L 5156.39,2243.01 L 5158.8,2254.72 L 5158.92,2290.16 L 5241.19,2290.16 L 5241.53,2286.9 L 5245.6,2274.38 L 5252.19,2262.98 L 5261,2253.19 L 5271.65,2245.45 L 5283.68,2240.09 L 5293.31,2238.05 z " style="fill-opacity:1.000000;fill:rgb(33,61,220);stroke:rgb(0,0,0);stroke-width:2"/></g>
<g fill-rule="evenodd"><path d="M 3290.16,1234.13 L 3275.68,1231.05 L 3260.65,1224.36 L 3247.34,1214.68 L 3236.33,1202.46 L 3228.1,1188.21 L 3223.02,1172.56 L 3221.3,1156.2 L 3223.02,1139.84 L 3228.1,1124.19 L 3236.33,1109.94 L 3247.34,1097.72 L 3260.65,1088.04 L 3275.68,1081.35 L 3291.77,1077.93 L 3308.23,1077.93 L 3324.32,1081.35 L 3339.35,1088.04 L 3352.66,1097.72 L 3363.67,1109.94 L 3371.9,1124.19 L 3376.98,1139.84 L 3378.7,1156.2 L 3376.98,1172.56 L 3371.9,1188.21 L 3363.67,1202.46 L 3352.66,1214.68 L 3339.35,1224.36 L 3324.32,1231.05 L 3309.84,1234.12 L 3309.84,1337.38 L 3322.61,1340.09 L 3334.64,1345.45 L 3345.3,1353.19 L 3354.11,1362.98 L 3360.69,1374.38 L 3364.76,1386.9 L 3366.14,1400 L 3364.76,1413.1 L 3360.69,1425.62 L 3354.11,1437.02 L 3345.3,1446.81 L 3334.64,1454.55 L 3322.61,1459.91 L 3309.73,1462.65 L 3296.56,1462.65 L 3283.68,1459.91 L 3271.65,1454.55 L 3264.54,1449.38 L 3206.96,1506.96 L 3203.76,1509.09 L 3201.92,1509.65 L 3145,1509.84 L 3145,1520 L 3055,1520 L 3055,1480 L 3145,1480 L 3145,1490.16 L 3195.92,1490.16 L 3251.04,1435.04 L 3245.6,1425.62 L 3241.53,1413.1 L 3240.16,1400 L 3241.53,1386.9 L 3245.6,1374.38 L 3252.19,1362.98 L 3261,1353.19 L 3271.65,1345.45 L 3283.68,1340.09 L 3290.16,1338.72 L 3290.16,1234.13 z " style="fill-opacity:1.000000;fill:rgb(135,112,233);stroke:rgb(0,0,0);stroke-width:2"/></g>
</svg>
