<?xml version="1.0" standalone="no"?>
<!DOCTYPE svg PUBLIC "-//W3C//DTD SVG 1.1//EN"
"http://www.w3.org/Graphics/SVG/1.1/DTD/svg11.dtd">
<svg width="6366" height="3466" viewBox="0 0 6366 3466" version="1.1"
xmlns="http://www.w3.org/2000/svg"
xmlns:xlink="http://www.w3.org/1999/xlink">
<g fill-rule="evenodd"><path d="M 1881.22,1507.08 L 1860.22,1511.56 L 1835.47,1517.84 L 1830.77,1519.09 L 1816.65,1523.04 L 1807.78,1525.27 L 1800.18,1526.96 L 1783.37,1531.82 L 1771.39,1536.16 L 1756.34,1542.83 L 1745.1,1548.8 L 1744.02,1549.38 L 1730.02,1556.98 L 1716.32,1563.49 L 1708.09,1566.9 L 1699.87,1563.5 L 1686.16,1556.98 L 1672.17,1549.38 L 1671.08,1548.8 L 1659.84,1542.83 L 1644.8,1536.16 L 1632.82,1531.82 L 1616.02,1526.96 L 1608.41,1525.27 L 1599.53,1523.04 L 1585.41,1519.09 L 1580.72,1517.84 L 1555.97,1511.56 L 1534.96,1507.09 L 1533.93,1505.29 L 1528.31,1494.27 L 1523.88,1482.72 L 1518.79,1467.07 L 1513.66,1442.93 L 1513.02,1436.84 L 1516.84,1426.05 L 1526.21,1403.37 L 1533.72,1387.62 L 1543.58,1369.42 L 1552.42,1354.99 L 1562.82,1339.84 L 1572.93,1326.68 L 1584.07,1313.62 L 1595.4,1301.69 L 1596.44,1300.6 L 1611.27,1294.97 L 1627.73,1289.62 L 1641.92,1285.81 L 1658.37,1282.31 L 1671.21,1280.27 L 1687.66,1278.54 L 1699.87,1277.9 L 1716.32,1277.9 L 1728.52,1278.54 L 1744.97,1280.27 L 1757.82,1282.31 L 1774.27,1285.81 L 1788.45,1289.62 L 1804.91,1294.97 L 1821.26,1301.26 L 1837.71,1308.59 L 1857.27,1318.59 L 1873.72,1328.08 L 1889.48,1338.36 L 1892.31,1345.72 L 1897.39,1361.37 L 1902.52,1385.51 L 1904.24,1401.88 L 1904.89,1414.22 L 1904.24,1426.57 L 1902.52,1442.93 L 1897.39,1467.07 L 1892.31,1482.72 L 1887.87,1494.27 L 1882.26,1505.29 L 1881.22,1507.08 z " style="fill-opacity:1.000000;fill:rgb(103,198,105);stroke:rgb(0,0,0);stroke-width:2"/></g>
<g fill-rule="evenodd"><path d="M 598.946,1328.91 L 597.958,1328.6 L 576.001,1319.18 L 564.858,1312.99 L 545.255,1299.35 L 535.584,1291.05 L 519.109,1273.72 L 511.31,1263.64 L 498.674,1243.37 L 496.017,1237.95 L 474.71,1237.95 L 473.304,1240.58 L 458.617,1258.48 L 440.72,1273.16 L 420.301,1284.08 L 398.147,1290.8 L 375.106,1293.07 L 241.259,1293.07 L 236.507,1292.6 L 214.338,1267.26 L 203.761,1251.88 L 195.11,1236.5 L 188.378,1221.11 L 183.572,1205.73 L 180.687,1190.35 L 179.727,1174.96 L 179.727,1041.12 L 182.74,1013.87 L 191.788,986.629 L 195.166,986.979 L 213.602,989.831 L 226.676,992.599 L 241.013,996.691 L 241.259,996.781 L 249.72,999.431 L 263.261,1002.94 L 270.833,1004.5 L 284.372,1006.57 L 291.282,1007.27 L 304.823,1007.96 L 309.86,1008.03 L 316.64,1007.85 L 321.712,1007.53 L 335.253,1006.15 L 342.434,1005.05 L 355.977,1002.27 L 364.051,1000.17 L 375.106,996.705 L 377.612,995.955 L 387.793,993.069 L 403.834,989.633 L 416.81,987.661 L 436.832,996.201 L 456.855,1008.05 L 608.163,1008.05 L 616.867,1008.26 L 619.183,1008.38 L 628.486,1009.08 L 633.936,1008.53 L 647.329,1007.67 L 653.709,1007.51 L 667.048,1007.68 L 679.793,1008.33 L 697.88,1010.17 L 710.623,1012.13 L 729.682,1016.05 L 742.427,1019.35 L 763.198,1025.89 L 774.021,1029.9 L 785.516,1029.9 L 805.861,1022.17 L 819.026,1017.89 L 838.963,1012.53 L 852.132,1009.73 L 867.071,1007.21 L 870.925,1008.31 L 885.29,1012.56 L 901.561,1018.3 L 914.728,1023.75 L 927.341,1029.75 L 939.41,1036.31 L 949.562,1042.52 L 960.599,1050.11 L 969.105,1056.63 L 979.15,1065.2 L 986.581,1072.26 L 995.649,1081.81 L 1002.39,1089.71 L 1010.48,1100.25 L 1016.84,1109.51 L 1023.91,1121.05 L 1030.01,1132.3 L 1033.51,1139.65 L 1033.38,1145.19 L 1033.37,1145.37 L 1033.06,1158 L 1033.05,1158.25 L 1032.73,1170.25 L 1032.95,1170.77 L 1038.81,1182.35 L 1045.36,1193.81 L 1051.42,1203.28 L 1058.94,1213.79 L 1065.31,1221.82 L 1073.75,1231.4 L 1080.66,1238.49 L 1090.02,1247.16 L 1097.77,1253.64 L 1108.05,1261.39 L 1117.1,1267.52 L 1128.32,1274.32 L 1139.29,1280.22 L 1151.51,1286.02 L 1161.65,1290.36 L 1168.17,1292.87 L 1180.17,1296.96 L 1194.04,1301.12 L 1214.75,1306.17 L 1229.87,1309.08 L 1252.31,1312.18 L 1261.49,1321.37 L 1261.65,1327.32 L 1261.81,1330.44 L 1264.34,1356.65 L 1264.76,1359.5 L 1268.75,1379.71 L 1269.41,1382.33 L 1271.13,1388.72 L 1273.43,1396.66 L 1274.01,1398.6 L 1274.15,1399.07 L 1274.72,1400.99 L 1276.75,1408.02 L 1278.09,1412.99 L 1278.67,1415.31 L 1281.27,1428.31 L 1281.61,1430.63 L 1282.85,1443.17 L 1282.97,1445.48 L 1283.12,1451.72 L 1283.12,2132.36 L 1290.38,2146.26 L 1295.57,2160.17 L 1298.68,2174.07 L 1299.71,2187.97 L 1299.71,2227.97 L 1297.66,2247.51 L 1276.75,2257.97 L 1253.12,2257.97 L 1163.13,2257.97 L 1139.5,2257.97 L 1130.4,2254.21 L 1121.31,2242.04 L 1114.13,2227.97 L 1097.56,2187.97 L 1091.59,2170.62 L 1087.34,2151.55 L 1084.8,2130.76 L 1083.98,2108.26 L 1078.21,2094.33 L 1078.21,2063.17 L 1080.19,2050.65 L 1082.72,2026.67 L 1083.41,2013.5 L 1083.41,1989.87 L 1082.72,1976.7 L 1080.19,1952.72 L 1078.21,1940.21 L 1078.21,1749.79 L 1087.9,1717.85 L 1098.3,1691.59 L 1104.82,1665.34 L 1106.55,1655.44 L 1108.7,1638.18 L 1109.14,1620.92 L 1108.07,1575.98 L 1104.63,1545.1 L 1097.84,1510.96 L 1094.98,1498.59 L 1076.91,1477.95 L 1056.18,1459.97 L 1044.6,1445.97 L 1031.85,1433.13 L 1017.94,1421.46 L 1002.86,1410.95 L 963.963,1386.27 L 952.464,1379.78 L 905.163,1332.48 L 901.561,1332.48 L 889.214,1331.84 L 877.002,1329.9 L 876.944,1329.89 L 865.557,1320.42 L 852.726,1308.96 L 847.566,1303.99 L 837.277,1294.73 L 821.838,1281.74 L 811.461,1273.62 L 795.502,1262.02 L 791.81,1259.4 L 784.15,1258.11 L 779.465,1257.42 L 773.665,1259.04 L 761.786,1262.19 L 759.214,1262.89 L 742.223,1267.65 L 729.57,1271.78 L 716.077,1276.85 L 704.365,1281.88 L 691.408,1288.17 L 685.753,1291.06 L 679.667,1294.34 L 668.552,1299.79 L 662.306,1302.56 L 649.339,1307.73 L 646.729,1308.66 L 636.01,1312.82 L 613.263,1322.4 L 598.946,1328.91 z " style="fill-opacity:1.000000;fill:rgb(115,81,255);stroke:rgb(0,0,0);stroke-width:2"/></g>
<g fill-rule="evenodd"><path d="M 236.295,737.933 L 241.581,735.665 L 264.373,728.516 L 277.636,725.79 L 295.419,723.524 L 302.189,723.18 L 320.148,723.634 L 333.619,725.006 L 356.995,729.812 L 369.915,733.863 L 391.889,743.291 L 403.728,749.862 L 423.341,763.516 L 433.617,772.337 L 439.132,778.141 L 908.144,778.141 L 919.774,778.717 L 922.078,778.945 L 944.748,783.46 L 946.962,784.132 L 968.355,792.998 L 970.396,794.09 L 989.595,806.917 L 991.385,808.385 L 1000,816.194 L 1161.14,977.326 L 1170.08,977.554 L 1182.76,978.844 L 1206.17,983.656 L 1218.33,987.471 L 1240.28,996.895 L 1251.43,1003.08 L 1271.03,1016.72 L 1276.97,1021.83 L 1282.28,1021.83 L 1286.93,1017.17 L 1296.54,1009.39 L 1307.19,1001.65 L 1317.57,994.913 L 1328.59,989.295 L 1340.62,983.94 L 1364.09,976.314 L 1376.97,973.576 L 1389.18,971.642 L 1401.53,970.994 L 1414.7,970.994 L 1427.04,971.642 L 1439.25,973.576 L 1452.13,976.314 L 1475.61,983.944 L 1487.64,989.299 L 1509.02,1001.64 L 1519.67,1009.38 L 1529.28,1017.16 L 1533.94,1021.83 L 2551.74,1021.83 L 2563.37,1022.4 L 2565.67,1022.63 L 2588.34,1027.15 L 2590.56,1027.82 L 2611.95,1036.68 L 2613.99,1037.78 L 2633.19,1050.6 L 2634.98,1052.07 L 2643.6,1059.88 L 3049.87,1466.15 L 3057.68,1474.77 L 3059.15,1476.56 L 3071.98,1495.76 L 3073.07,1497.8 L 3081.93,1519.19 L 3082.61,1521.41 L 3087.12,1544.08 L 3087.35,1546.38 L 3087.93,1558.01 L 3087.93,2106.17 L 3101.21,2122.36 L 3112.12,2142.78 L 3118.84,2164.93 L 3121.11,2187.97 L 3121.11,2227.97 L 3118.84,2251.01 L 3116.73,2257.97 L 3003.01,2257.97 L 2913.02,2257.97 L 2889.38,2257.97 L 2880.29,2254.21 L 2872.83,2244.57 L 2866.6,2233.71 L 2866.42,2227.97 L 2866.42,2187.97 L 2867.46,2174.07 L 2870.57,2160.17 L 2875.76,2146.26 L 2883.02,2132.36 L 2883.02,1589.08 L 2849.44,1508.02 L 2848.2,1505.21 L 2847.15,1502.99 L 2844.56,1498.14 L 2843.33,1496.09 L 2840.55,1491.94 L 2839.16,1490.06 L 2836.18,1486.42 L 2834.62,1484.7 L 2833.02,1483.02 L 2537.09,1187.09 L 2531.36,1184.72 L 2529.31,1183.93 L 2527,1183.1 L 2523.29,1181.97 L 2520.97,1181.39 L 2517.54,1180.71 L 2515.23,1180.36 L 2511.97,1180.04 L 2509.65,1179.93 L 2508.04,1179.89 L 1558.1,1179.89 L 1556.49,1179.93 L 1554.17,1180.04 L 1550.92,1180.36 L 1548.6,1180.71 L 1545.17,1181.39 L 1542.85,1181.97 L 1539.13,1183.1 L 1536.82,1183.93 L 1534.78,1184.72 L 1495.29,1201.08 L 1490.72,1207.04 L 1485.78,1212.81 L 1476.72,1222.37 L 1471.3,1227.51 L 1461.26,1236.09 L 1455,1240.88 L 1443.97,1248.47 L 1436.39,1253.1 L 1424.32,1259.66 L 1414.7,1264.24 L 1401.53,1269.69 L 1388.82,1274.17 L 1374.45,1278.43 L 1357.07,1282.57 L 1341.36,1285.48 L 1316.77,1288.67 L 1299.51,1290.02 L 1292.05,1290.45 L 1286.94,1286.31 L 1286.25,1285.63 L 1284.75,1287.2 L 1266.63,1302.76 L 1256.17,1310.04 L 1252.31,1312.18 L 1229.87,1309.08 L 1214.75,1306.17 L 1194.04,1301.12 L 1180.17,1296.96 L 1168.17,1292.87 L 1161.65,1290.36 L 1151.51,1286.02 L 1139.29,1280.22 L 1128.32,1274.32 L 1117.1,1267.52 L 1108.05,1261.39 L 1097.77,1253.64 L 1090.02,1247.16 L 1080.66,1238.49 L 1073.75,1231.4 L 1065.31,1221.82 L 1058.94,1213.79 L 1051.42,1203.28 L 1045.36,1193.81 L 1038.81,1182.35 L 1032.95,1170.77 L 1032.73,1170.25 L 1033.05,1158.25 L 1033.06,1158 L 1033.37,1145.37 L 1033.38,1145.19 L 1033.51,1139.65 L 1030.01,1132.3 L 1023.91,1121.05 L 1016.84,1109.51 L 1010.48,1100.25 L 1002.39,1089.71 L 995.649,1081.81 L 986.581,1072.26 L 979.15,1065.2 L 969.105,1056.63 L 960.599,1050.11 L 949.562,1042.52 L 939.41,1036.31 L 927.341,1029.75 L 914.728,1023.75 L 901.561,1018.3 L 885.29,1012.56 L 870.925,1008.31 L 867.071,1007.21 L 852.132,1009.73 L 838.963,1012.53 L 819.026,1017.89 L 805.861,1022.17 L 785.516,1029.9 L 774.021,1029.9 L 763.198,1025.89 L 742.427,1019.35 L 729.682,1016.05 L 710.623,1012.13 L 697.88,1010.17 L 679.793,1008.33 L 667.048,1007.68 L 653.709,1007.51 L 647.329,1007.67 L 633.936,1008.53 L 628.486,1009.08 L 619.183,1008.38 L 616.867,1008.26 L 608.163,1008.05 L 456.855,1008.05 L 436.832,996.201 L 416.81,987.661 L 403.834,989.633 L 387.793,993.069 L 377.612,995.955 L 375.106,996.705 L 364.051,1000.17 L 355.977,1002.27 L 342.434,1005.05 L 335.253,1006.15 L 321.712,1007.53 L 316.64,1007.85 L 309.86,1008.03 L 304.823,1007.96 L 291.282,1007.27 L 284.372,1006.57 L 270.833,1004.5 L 263.261,1002.94 L 249.72,999.431 L 241.259,996.781 L 241.013,996.691 L 226.676,992.599 L 213.602,989.831 L 195.166,986.979 L 191.788,986.629 L 188.374,974.352 L 185.234,960.813 L 182.842,947.508 L 181.117,933.965 L 180.151,921.326 L 179.809,907.788 L 180.127,895.281 L 181.159,881.74 L 182.804,868.847 L 185.23,855.306 L 188.464,841.407 L 192.34,827.865 L 197.661,812.342 L 203.069,798.799 L 211.363,780.806 L 218.436,767.265 L 231.161,745.723 L 236.295,737.933 z " style="fill-opacity:1.000000;fill:rgb(74,236,41);stroke:rgb(0,0,0);stroke-width:2"/></g>
<g fill-rule="evenodd"><path d="M 1100.03,2563.91 L 1098.68,2564.79 L 1087.66,2570.4 L 1075.63,2575.76 L 1052.16,2583.38 L 1039.28,2586.12 L 1034.91,2586.81 L 1034.91,2632.1 L 1034.91,2632.11 L 1043.72,2641.89 L 1058.22,2661.85 L 1064.81,2673.25 L 1070.43,2684.28 L 1074.86,2695.83 L 1078.93,2708.36 L 1084.06,2732.48 L 1085.44,2745.58 L 1086.08,2757.94 L 1085.44,2770.29 L 1084.06,2783.39 L 1078.93,2807.52 L 1074.86,2820.04 L 1070.43,2831.59 L 1064.81,2842.62 L 1058.22,2854.02 L 1043.72,2873.98 L 1034.91,2883.76 L 1026.17,2892.51 L 1016.56,2900.29 L 1005.91,2908.03 L 995.537,2914.76 L 984.518,2920.38 L 972.486,2925.74 L 949.014,2933.36 L 936.135,2936.1 L 923.923,2938.03 L 911.578,2938.68 L 898.411,2938.68 L 886.064,2938.03 L 873.853,2936.1 L 860.973,2933.36 L 837.495,2925.73 L 830.695,2922.7 L 830.025,2910.13 L 827.228,2876.18 L 824.808,2857.11 L 822.05,2841.48 L 818.536,2826.92 L 816.658,2820.92 L 815.568,2817.17 L 812.038,2804.01 L 810.255,2795.64 L 808.169,2782.47 L 807.363,2774.82 L 806.673,2761.65 L 806.673,2754.22 L 807.363,2741.05 L 808.169,2733.4 L 810.255,2720.24 L 812.038,2711.87 L 815.568,2698.7 L 816.658,2694.95 L 818.536,2688.95 L 822.05,2674.4 L 824.806,2658.77 L 825.494,2654.6 L 817.566,2635.26 L 806.575,2615.92 L 806.575,2511.1 L 806.783,2502.62 L 806.829,2501.65 L 806.891,2500.31 L 807.191,2493.02 L 807.303,2490.69 L 807.731,2482.82 L 807.845,2480.43 L 808.173,2472.51 L 808.291,2470.06 L 808.777,2461.05 L 808.899,2458.49 L 809.305,2448.88 L 809.433,2446.18 L 810.049,2434.64 L 810.187,2431.75 L 810.603,2422.03 L 813.132,2419.24 L 827.192,2405.18 L 827.695,2395.6 L 829.073,2382.5 L 834.201,2358.38 L 838.269,2345.86 L 842.703,2334.3 L 848.322,2323.28 L 854.908,2311.87 L 869.409,2291.92 L 878.22,2282.13 L 886.96,2273.39 L 888.096,2272.47 L 901.787,2272.79 L 919.05,2274.15 L 942.724,2277.21 L 958.437,2280.13 L 975.078,2284.09 L 989.443,2288.35 L 1001.55,2292.62 L 1014.72,2298.07 L 1023.84,2302.41 L 1035.91,2308.96 L 1043.06,2313.34 L 1054.09,2320.92 L 1059.96,2325.42 L 1070.01,2334 L 1075.09,2338.82 L 1076.15,2339.94 L 1078.48,2342.28 L 1080.16,2343.89 L 1084.72,2347.87 L 1085.25,2348.29 L 1087.08,2349.8 L 1090.55,2352.77 L 1092.77,2354.6 L 1094.72,2356.14 L 1096.12,2357.23 L 1102.08,2357.76 L 1104.4,2357.87 L 1108.13,2357.96 L 1139.5,2357.96 L 1163.13,2357.96 L 1253.12,2357.96 L 1276.75,2357.96 L 1287.89,2362.73 L 1299.03,2369.32 L 1321.31,2387.96 L 1358.12,2424.77 L 1361.35,2427.96 L 1366.91,2433.35 L 1290.62,2465.14 L 1271.87,2471 L 1253.12,2472.95 L 1238.12,2474.2 L 1223.12,2477.95 L 1218.12,2477.95 L 1204.38,2478.9 L 1190.63,2481.73 L 1176.88,2486.46 L 1163.13,2493.08 L 1124.65,2514.24 L 1124.08,2514.74 L 1122,2519.34 L 1118.25,2527.95 L 1112.42,2540.28 L 1105.71,2553.45 L 1100.03,2563.91 z " style="fill-opacity:1.000000;fill:rgb(205,186,171);stroke:rgb(0,0,0);stroke-width:2"/></g>
<g fill-rule="evenodd"><path d="M 514.005,2558.32 L 513.647,2557.92 L 504.374,2548.29 L 489.965,2534.15 L 468.796,2526.96 L 412.124,2541.62 L 393.615,2545.22 L 375.106,2546.41 L 374.008,2546.41 L 350.112,2548.41 L 326.215,2554.4 L 302.321,2564.37 L 278.424,2578.34 L 259.842,2582.92 L 241.259,2589.24 L 235.097,2591.62 L 210.873,2562.44 L 193.568,2533.25 L 187.512,2518.66 L 183.186,2504.07 L 180.591,2489.47 L 179.727,2474.88 L 179.727,2341.03 L 180.687,2325.65 L 183.572,2310.27 L 188.378,2294.88 L 195.11,2279.5 L 203.761,2264.12 L 214.338,2248.74 L 236.507,2223.4 L 241.259,2222.93 L 375.106,2222.93 L 398.147,2225.2 L 420.301,2231.92 L 440.72,2242.84 L 458.617,2257.52 L 473.304,2275.42 L 474.706,2278.05 L 488.625,2278.05 L 493.283,2273.39 L 502.89,2265.61 L 513.541,2257.87 L 523.915,2251.13 L 534.936,2245.51 L 546.967,2240.16 L 570.44,2232.53 L 583.319,2229.79 L 595.53,2227.86 L 607.877,2227.21 L 621.045,2227.21 L 633.39,2227.86 L 645.601,2229.79 L 658.48,2232.53 L 681.959,2240.16 L 693.988,2245.52 L 715.367,2257.86 L 726.02,2265.6 L 735.631,2273.38 L 744.377,2282.13 L 753.188,2291.92 L 767.689,2311.87 L 774.275,2323.28 L 779.895,2334.3 L 784.328,2345.86 L 788.396,2358.38 L 793.524,2382.5 L 794.902,2395.6 L 795.404,2405.18 L 800.019,2409.8 L 807.825,2418.41 L 809.293,2420.2 L 810.599,2422.16 L 810.187,2431.75 L 810.049,2434.64 L 809.433,2446.18 L 809.305,2448.88 L 808.899,2458.49 L 808.777,2461.05 L 808.291,2470.06 L 808.173,2472.51 L 807.845,2480.43 L 807.731,2482.82 L 807.303,2490.69 L 807.191,2493.02 L 806.891,2500.31 L 806.829,2501.65 L 806.783,2502.62 L 806.575,2511.1 L 806.575,2615.92 L 817.566,2635.26 L 825.494,2654.6 L 824.806,2658.77 L 822.05,2674.4 L 818.536,2688.95 L 816.658,2694.95 L 815.568,2698.7 L 812.038,2711.87 L 810.255,2720.24 L 808.169,2733.4 L 807.363,2741.05 L 806.673,2754.22 L 806.673,2761.65 L 807.363,2774.82 L 808.169,2782.47 L 810.255,2795.64 L 812.038,2804.01 L 815.568,2817.17 L 816.658,2820.92 L 818.536,2826.92 L 822.05,2841.48 L 824.808,2857.11 L 827.228,2876.18 L 830.025,2910.13 L 830.677,2922.37 L 816.34,2930.04 L 794.186,2936.76 L 771.145,2939.03 L 645.169,2939.03 L 622.127,2936.76 L 599.972,2930.04 L 579.553,2919.12 L 561.656,2904.44 L 546.969,2886.54 L 536.056,2866.12 L 529.334,2843.97 L 527.067,2820.92 L 527.067,2694.95 L 527.765,2687.85 L 529.42,2680.68 L 539.044,2644.16 L 546.969,2629.33 L 561.656,2611.44 L 578.245,2597.82 L 578.245,2585.04 L 570.44,2583.38 L 546.961,2575.75 L 534.932,2570.4 L 514.005,2558.32 z " style="fill-opacity:1.000000;fill:rgb(242,251,227);stroke:rgb(0,0,0);stroke-width:2"/></g>
<g fill-rule="evenodd"><path d="M 1888.85,1337.95 L 1873.72,1328.08 L 1857.27,1318.59 L 1837.71,1308.59 L 1821.26,1301.26 L 1804.91,1294.97 L 1788.45,1289.62 L 1774.27,1285.81 L 1757.82,1282.31 L 1744.97,1280.27 L 1728.52,1278.54 L 1716.32,1277.9 L 1699.87,1277.9 L 1687.66,1278.54 L 1671.21,1280.27 L 1658.37,1282.31 L 1641.92,1285.81 L 1627.73,1289.62 L 1611.27,1294.97 L 1596.44,1300.6 L 1595.4,1301.69 L 1584.07,1313.62 L 1572.93,1326.68 L 1562.82,1339.84 L 1552.42,1354.99 L 1543.58,1369.42 L 1533.72,1387.62 L 1526.21,1403.37 L 1516.84,1426.05 L 1513.02,1436.84 L 1488.03,1461.83 L 1488.03,1587.06 L 1487.1,1592.4 L 1483.77,1624.56 L 1484.98,1656.72 L 1483.25,1693.74 L 1487.58,1730.76 L 1488.03,1733 L 1488.03,2307.96 L 1487.45,2319.58 L 1487.23,2321.89 L 1482.71,2344.57 L 1482.04,2346.79 L 1473.17,2368.18 L 1472.08,2370.22 L 1459.25,2389.42 L 1457.78,2391.21 L 1441.36,2407.64 L 1439.57,2409.1 L 1420.37,2421.93 L 1418.33,2423.02 L 1396.93,2431.89 L 1394.72,2432.56 L 1375.79,2436.32 L 1373.09,2435.48 L 1371.74,2435.01 L 1369.34,2434.18 L 1366.91,2433.35 L 1361.35,2427.96 L 1358.12,2424.77 L 1321.31,2387.96 L 1299.03,2369.32 L 1287.89,2362.73 L 1276.75,2357.96 L 1253.12,2357.96 L 1163.13,2357.96 L 1139.5,2357.96 L 1108.13,2357.96 L 1104.4,2357.87 L 1102.08,2357.76 L 1096.12,2357.23 L 1094.72,2356.14 L 1092.77,2354.6 L 1090.55,2352.77 L 1087.08,2349.8 L 1085.25,2348.29 L 1084.72,2347.87 L 1080.16,2343.89 L 1078.48,2342.28 L 1076.15,2339.94 L 1075.09,2338.82 L 1070.01,2334 L 1059.96,2325.42 L 1054.09,2320.92 L 1043.06,2313.34 L 1035.91,2308.96 L 1023.84,2302.41 L 1014.72,2298.07 L 1001.55,2292.62 L 989.443,2288.35 L 975.078,2284.09 L 958.437,2280.13 L 942.724,2277.21 L 919.05,2274.15 L 901.787,2272.79 L 888.928,2272.49 L 816.28,2199.84 L 808.473,2191.22 L 807.005,2189.43 L 794.178,2170.23 L 793.086,2168.19 L 784.22,2146.8 L 783.548,2144.58 L 782.466,2139.14 L 766.665,2152.7 L 756.206,2159.98 L 735.295,2171.59 L 723.582,2176.62 L 700.792,2183.77 L 688.308,2186.33 L 670.527,2188.6 L 664.156,2188.92 L 646.205,2188.47 L 633.526,2187.18 L 610.117,2182.37 L 597.958,2178.55 L 576.001,2169.13 L 564.858,2162.94 L 545.255,2149.3 L 535.584,2141 L 532.636,2137.89 L 474.71,2137.89 L 473.304,2140.52 L 458.617,2158.42 L 440.72,2173.11 L 420.301,2184.02 L 398.147,2190.74 L 375.106,2193.01 L 241.259,2193.01 L 236.509,2192.54 L 214.338,2167.2 L 203.761,2151.82 L 195.11,2136.44 L 188.378,2121.06 L 183.572,2105.67 L 180.687,2090.29 L 179.727,2074.91 L 179.727,1941.06 L 180.793,1924.86 L 183.992,1908.65 L 189.326,1892.45 L 196.794,1876.24 L 204.239,1874.32 L 222.748,1870.73 L 241.259,1869.53 L 242.357,1869.53 L 266.251,1867.53 L 290.148,1861.55 L 314.042,1851.57 L 337.939,1837.6 L 356.521,1833.02 L 375.106,1826.7 L 382.826,1823.72 L 398.147,1825.23 L 420.301,1831.95 L 440.72,1842.86 L 458.617,1857.55 L 473.304,1875.44 L 474.706,1878.07 L 532.406,1878.07 L 549.653,1863.27 L 560.112,1855.98 L 581.023,1844.38 L 592.736,1839.35 L 615.527,1832.2 L 628.01,1829.64 L 645.791,1827.37 L 652.163,1827.05 L 670.114,1827.5 L 682.793,1828.79 L 706.201,1833.6 L 718.36,1837.42 L 740.317,1846.84 L 751.46,1853.03 L 771.063,1866.67 L 777.009,1871.77 L 782.308,1871.77 L 786.966,1867.12 L 796.573,1859.33 L 807.225,1851.59 L 817.598,1844.86 L 828.619,1839.24 L 840.651,1833.89 L 848.016,1831.49 L 851.712,1831.44 L 865.257,1831.59 L 878.664,1831.34 L 896.253,1830.49 L 901.561,1830.3 L 914.728,1829.99 L 937.769,1830.65 L 941.274,1830.94 L 951.046,1831.51 L 970.6,1832.25 L 975.642,1833.89 L 987.671,1839.25 L 1009.05,1851.59 L 1019.7,1859.33 L 1029.31,1867.11 L 1038.06,1875.86 L 1046.87,1885.64 L 1061.37,1905.6 L 1067.96,1917 L 1073.58,1928.03 L 1078.01,1939.58 L 1078.21,1940.2 L 1080.19,1952.72 L 1082.72,1976.7 L 1083.41,1989.87 L 1083.41,2013.5 L 1082.72,2026.67 L 1080.19,2050.65 L 1078.21,2063.17 L 1078.01,2063.79 L 1073.58,2075.34 L 1068.73,2084.84 L 1078.21,2094.32 L 1083.98,2108.26 L 1084.8,2130.76 L 1087.34,2151.55 L 1091.59,2170.62 L 1097.56,2187.97 L 1114.13,2227.97 L 1121.31,2242.04 L 1130.4,2254.21 L 1139.5,2257.97 L 1163.13,2257.97 L 1253.12,2257.97 L 1276.75,2257.97 L 1297.66,2247.51 L 1299.71,2227.97 L 1299.71,2187.97 L 1298.68,2174.07 L 1295.57,2160.17 L 1290.38,2146.26 L 1283.12,2132.36 L 1283.12,1451.72 L 1282.97,1445.48 L 1282.85,1443.17 L 1281.61,1430.63 L 1281.27,1428.31 L 1278.67,1415.31 L 1278.09,1412.99 L 1276.75,1408.02 L 1274.72,1400.99 L 1274.15,1399.07 L 1274.01,1398.6 L 1273.43,1396.66 L 1271.13,1388.72 L 1269.41,1382.33 L 1268.75,1379.71 L 1264.76,1359.5 L 1264.34,1356.65 L 1261.81,1330.44 L 1261.65,1327.32 L 1261.49,1321.41 L 1266.25,1316.16 L 1291.95,1290.46 L 1299.51,1290.02 L 1316.77,1288.67 L 1341.36,1285.48 L 1357.07,1282.57 L 1374.45,1278.43 L 1388.82,1274.17 L 1401.53,1269.69 L 1414.7,1264.24 L 1424.32,1259.66 L 1436.39,1253.1 L 1443.97,1248.47 L 1455,1240.88 L 1461.26,1236.09 L 1471.3,1227.51 L 1476.72,1222.37 L 1485.78,1212.81 L 1490.72,1207.04 L 1495.29,1201.08 L 1534.78,1184.72 L 1536.82,1183.93 L 1539.13,1183.1 L 1542.85,1181.97 L 1545.17,1181.39 L 1548.6,1180.71 L 1550.92,1180.36 L 1554.17,1180.04 L 1556.49,1179.93 L 1558.1,1179.89 L 2508.04,1179.89 L 2509.65,1179.93 L 2511.97,1180.04 L 2515.23,1180.36 L 2517.54,1180.71 L 2520.97,1181.39 L 2523.29,1181.97 L 2527,1183.1 L 2529.31,1183.93 L 2531.36,1184.72 L 2537.09,1187.09 L 2833.02,1483.02 L 2834.62,1484.7 L 2836.18,1486.42 L 2839.16,1490.06 L 2840.55,1491.94 L 2843.33,1496.09 L 2844.56,1498.14 L 2847.15,1502.99 L 2848.2,1505.21 L 2849.44,1508.02 L 2883.02,1589.08 L 2883.02,2132.36 L 2875.76,2146.26 L 2870.57,2160.17 L 2867.46,2174.07 L 2866.42,2187.97 L 2866.42,2227.97 L 2866.6,2233.71 L 2872.83,2244.57 L 2880.29,2254.21 L 2889.38,2257.97 L 2913.02,2257.97 L 3003.01,2257.97 L 3116.73,2257.97 L 3118.84,2264.92 L 3121.11,2287.96 L 3121.11,2327.96 L 3118.84,2351 L 3116.73,2357.96 L 3003.01,2357.96 L 2913.02,2357.96 L 2889.38,2357.96 L 2878.73,2357.96 L 2858.02,2349.38 L 2855.24,2348.15 L 2853.01,2347.1 L 2848.14,2344.5 L 2846.09,2343.28 L 2841.94,2340.5 L 2840.06,2339.1 L 2836.42,2336.12 L 2834.7,2334.57 L 2833.02,2332.96 L 2783.02,2282.97 L 2781.38,2281.32 L 2779.73,2279.68 L 2776.3,2276.24 L 2774.59,2274.53 L 2770.59,2270.54 L 2768.74,2268.68 L 2763.58,2263.52 L 2763.55,2263.5 L 2761.46,2261.41 L 2761.43,2261.38 L 2758.02,2257.97 L 2678.11,2178.06 L 2678.11,1561.83 L 2454.23,1337.95 L 1888.85,1337.95 z " style="fill-opacity:1.000000;fill:rgb(70,124,194);stroke:rgb(0,0,0);stroke-width:2"/></g>
<g fill-rule="evenodd"><path d="M 1549.37,2457.95 L 1663.1,2457.95 L 1688.88,2457.95 L 1689.23,2458.01 L 1694.17,2458.79 L 1700.2,2459.43 L 1705.14,2459.69 L 1708.09,2459.77 L 1753.09,2459.77 L 1770.72,2462.52 L 1788.35,2470.8 L 1797.78,2487.95 L 1802.55,2499.48 L 1802.38,2502.8 L 1802.38,2513.11 L 1803.07,2526.28 L 1803.17,2527.95 L 1803.79,2536.95 L 1803.88,2550.77 L 1803.13,2564.59 L 1801.42,2580.78 L 1799.58,2592.66 L 1802.23,2600.06 L 1807.29,2613.23 L 1815.84,2632.38 L 1822.55,2645.55 L 1835.76,2668.34 L 1838.01,2671.8 L 1838.01,2804.12 L 1911.89,2878.01 L 2432.29,2878.01 L 2449.53,2863.2 L 2459.99,2855.92 L 2471.27,2849.66 L 2482,2846.88 L 2494.75,2844.26 L 2517.19,2840.81 L 2529.93,2839.51 L 2546.24,2838.48 L 2552.62,2838.31 L 2568.86,2838.52 L 2581.61,2839.17 L 2603.61,2841.41 L 2616.35,2843.36 L 2639.45,2848.12 L 2645.39,2849.66 L 2651.34,2852.96 L 2670.94,2866.61 L 2680.61,2874.91 L 2697.09,2892.24 L 2704.89,2902.32 L 2717.52,2922.59 L 2723.14,2934.03 L 2731.44,2956.45 L 2734.63,2968.79 L 2738.25,2992.4 L 2738.9,3005.12 L 2737.68,3028.99 L 2735.75,3041.59 L 2729.77,3064.72 L 2725.34,3076.67 L 2714.81,3098.13 L 2708.07,3108.95 L 2693.45,3127.85 L 2684.66,3137.08 L 2666.54,3152.64 L 2656.09,3159.92 L 2635.17,3171.53 L 2623.46,3176.55 L 2600.67,3183.7 L 2588.19,3186.27 L 2570.41,3188.53 L 2564.04,3188.86 L 2546.08,3188.4 L 2533.41,3187.11 L 2510,3182.3 L 2497.84,3178.49 L 2475.88,3169.06 L 2464.74,3162.88 L 2445.13,3149.23 L 2435.46,3140.93 L 2432.52,3137.83 L 1858.08,3137.83 L 1846.56,3137.27 L 1844.26,3137.04 L 1821.48,3132.52 L 1819.26,3131.84 L 1797.87,3122.98 L 1795.83,3121.89 L 1776.63,3109.06 L 1774.84,3107.59 L 1766.22,3099.78 L 1616.23,2949.79 L 1608.42,2941.18 L 1606.95,2939.39 L 1594.13,2920.19 L 1593.03,2918.14 L 1584.17,2896.75 L 1583.5,2894.54 L 1578.97,2871.76 L 1578.74,2869.45 L 1578.18,2857.93 L 1578.18,2609.75 L 1564.9,2593.57 L 1553.98,2573.15 L 1547.26,2550.99 L 1544.99,2527.95 L 1544.99,2487.95 L 1547.26,2464.91 L 1549.37,2457.95 z " style="fill-opacity:1.000000;fill:rgb(84,248,27);stroke:rgb(0,0,0);stroke-width:2"/></g>
<g fill-rule="evenodd"><path d="M 2678.11,2178.05 L 2758.02,2257.97 L 2761.43,2261.38 L 2761.46,2261.41 L 2763.55,2263.5 L 2763.58,2263.52 L 2768.74,2268.68 L 2770.59,2270.54 L 2774.59,2274.53 L 2776.3,2276.24 L 2779.73,2279.68 L 2781.38,2281.32 L 2783.02,2282.97 L 2833.02,2332.96 L 2834.7,2334.57 L 2836.42,2336.12 L 2840.06,2339.1 L 2841.94,2340.5 L 2846.09,2343.28 L 2848.14,2344.5 L 2853.01,2347.1 L 2855.24,2348.15 L 2858.02,2349.38 L 2878.73,2357.96 L 2889.38,2357.96 L 2913.02,2357.96 L 3003.01,2357.96 L 3116.73,2357.96 L 3118.84,2364.92 L 3121.11,2387.96 L 3121.11,2427.96 L 3120.75,2431.71 L 3040.51,2465.14 L 3021.76,2471 L 3003.01,2472.95 L 2988.01,2474.2 L 2973.01,2477.95 L 2970.36,2477.95 L 2956.98,2478.85 L 2943.61,2481.53 L 2940.9,2482.26 L 2926.96,2486.95 L 2913.02,2493.55 L 2874.5,2514.46 L 2858.48,2529.3 L 2858.02,2529.76 L 2849.91,2537.47 L 2846.5,2537.31 L 2844.19,2537.08 L 2821.41,2532.55 L 2819.2,2531.88 L 2797.81,2523.02 L 2795.76,2521.92 L 2776.57,2509.1 L 2774.78,2507.63 L 2766.16,2499.82 L 2729.99,2463.66 L 2728.23,2456.32 L 2720.98,2431.72 L 2716.11,2417.96 L 2714.4,2413.29 L 2700.42,2399.6 L 2687.25,2387.75 L 2674.21,2377.14 L 2661.04,2367.57 L 2651.7,2361.48 L 2638.53,2353.88 L 2631.78,2350.43 L 2618.61,2344.56 L 2613.63,2342.65 L 2600.46,2338.37 L 2596.68,2337.35 L 2583.51,2334.55 L 2580.47,2334.07 L 2567.31,2332.69 L 2564.62,2332.54 L 2551.46,2332.54 L 2548.77,2332.69 L 2535.6,2334.07 L 2532.57,2334.55 L 2519.4,2337.35 L 2515.61,2338.37 L 2502.45,2342.65 L 2497.47,2344.56 L 2484.3,2350.43 L 2477.55,2353.88 L 2470.48,2357.96 L 2395.62,2357.96 L 2388.55,2362.04 L 2381.79,2365.5 L 2368.62,2371.36 L 2363.64,2373.28 L 2350.48,2377.56 L 2346.7,2378.57 L 2333.53,2381.37 L 2330.49,2381.85 L 2317.32,2383.24 L 2314.64,2383.38 L 2301.47,2383.38 L 2298.79,2383.24 L 2285.62,2381.85 L 2282.58,2381.37 L 2269.41,2378.57 L 2265.63,2377.56 L 2252.47,2373.28 L 2247.49,2371.36 L 2234.32,2365.5 L 2227.56,2362.04 L 2214.4,2354.44 L 2205.05,2348.35 L 2191.88,2338.78 L 2178.84,2328.17 L 2165.67,2316.32 L 2147.12,2297.66 L 2133.95,2283.03 L 2129.92,2278.11 L 2134.12,2258.38 L 2138.19,2245.86 L 2142.62,2234.31 L 2145.34,2228.98 L 2113.05,2196.69 L 2107.83,2190.93 L 2107.79,2188.35 L 2107.77,2186 L 2107.74,2183.03 L 2107.37,2162.39 L 2107.34,2159.75 L 2107.33,2158.32 L 2107.3,2155.72 L 2107,2139.19 L 2106.97,2136.76 L 2106.97,2135.77 L 2106.94,2133.36 L 2106.68,2118.89 L 2106.65,2116.56 L 2106.64,2115.63 L 2106.62,2113.31 L 2106.52,2107.98 L 2106.49,2104.83 L 2106.49,2100 L 2117.48,2080.67 L 2125.41,2061.33 L 2124.73,2057.16 L 2121.97,2041.53 L 2118.45,2026.97 L 2116.58,2020.97 L 2115.49,2017.22 L 2111.96,2004.06 L 2110.17,1995.69 L 2108.09,1982.52 L 2107.28,1974.87 L 2106.59,1961.71 L 2106.59,1954.27 L 2107.28,1941.1 L 2108.09,1933.45 L 2110.17,1920.29 L 2111.96,1911.92 L 2115.49,1898.75 L 2116.58,1895 L 2118.45,1889 L 2121.97,1874.45 L 2124.72,1858.82 L 2127.14,1839.75 L 2129.94,1805.78 L 2130.61,1793.22 L 2137.42,1790.19 L 2160.89,1782.56 L 2173.77,1779.82 L 2185.98,1777.89 L 2198.33,1777.24 L 2211.5,1777.24 L 2223.84,1777.89 L 2236.05,1779.82 L 2248.93,1782.56 L 2272.41,1790.19 L 2284.44,1795.55 L 2305.82,1807.89 L 2316.47,1815.63 L 2326.08,1823.41 L 2334.83,1832.16 L 2343.64,1841.95 L 2358.14,1861.9 L 2364.73,1873.31 L 2370.35,1884.33 L 2374.78,1895.88 L 2378.85,1908.41 L 2383.97,1932.53 L 2385.35,1945.63 L 2386,1957.99 L 2385.35,1970.34 L 2383.97,1983.44 L 2378.85,2007.57 L 2374.78,2020.09 L 2370.34,2031.64 L 2364.73,2042.67 L 2358.14,2054.07 L 2349.61,2065.81 L 2399.92,2116.11 L 2407.72,2124.73 L 2409.19,2126.52 L 2422.02,2145.72 L 2423.11,2147.76 L 2431.98,2169.15 L 2432.65,2171.37 L 2433.98,2178.05 L 2678.11,2178.05 z " style="fill-opacity:1.000000;fill:rgb(232,231,141);stroke:rgb(0,0,0);stroke-width:2"/></g>
<g fill-rule="evenodd"><path d="M 2129.87,2278.05 L 2133.95,2283.03 L 2147.12,2297.66 L 2165.67,2316.32 L 2178.84,2328.17 L 2191.88,2338.78 L 2205.05,2348.35 L 2214.4,2354.44 L 2227.56,2362.04 L 2234.32,2365.5 L 2247.49,2371.36 L 2252.47,2373.28 L 2265.63,2377.56 L 2269.41,2378.57 L 2282.58,2381.37 L 2285.62,2381.85 L 2298.79,2383.24 L 2301.47,2383.38 L 2314.64,2383.38 L 2317.32,2383.24 L 2330.49,2381.85 L 2333.53,2381.37 L 2346.7,2378.57 L 2350.48,2377.56 L 2363.64,2373.28 L 2368.62,2371.36 L 2381.79,2365.5 L 2388.55,2362.04 L 2395.62,2357.96 L 2470.48,2357.96 L 2477.55,2353.88 L 2484.3,2350.43 L 2497.47,2344.56 L 2502.45,2342.65 L 2515.61,2338.37 L 2519.4,2337.35 L 2532.57,2334.55 L 2535.6,2334.07 L 2548.77,2332.69 L 2551.46,2332.54 L 2564.62,2332.54 L 2567.31,2332.69 L 2580.47,2334.07 L 2583.51,2334.55 L 2596.68,2337.35 L 2600.46,2338.37 L 2613.63,2342.65 L 2618.61,2344.56 L 2631.78,2350.43 L 2638.53,2353.88 L 2651.7,2361.48 L 2661.04,2367.57 L 2674.21,2377.14 L 2687.25,2387.75 L 2700.42,2399.6 L 2714.4,2413.29 L 2716.11,2417.96 L 2720.98,2431.72 L 2728.23,2456.32 L 2729.99,2463.65 L 2727.91,2470.06 L 2723.47,2481.61 L 2717.85,2492.64 L 2711.27,2504.04 L 2696.77,2524 L 2687.96,2533.79 L 2679.21,2542.53 L 2669.61,2550.31 L 2658.96,2558.05 L 2648.58,2564.79 L 2646.86,2565.67 L 2636.67,2568.4 L 2623.5,2571.2 L 2600.25,2574.89 L 2587.09,2576.28 L 2564.62,2577.46 L 2551.46,2577.46 L 2528.99,2576.28 L 2515.82,2574.89 L 2492.57,2571.2 L 2479.4,2568.4 L 2471.27,2566.22 L 2457.13,2558.06 L 2446.48,2550.32 L 2436.87,2542.53 L 2432.2,2537.87 L 2138.42,2537.87 L 2065.09,2507.5 L 2056.76,2499.6 L 2043.59,2487.74 L 2030.55,2477.13 L 2017.38,2467.57 L 2014.37,2465.45 L 2010.17,2462.6 L 2008.27,2461.34 L 2007.99,2461.16 L 2000.96,2456.14 L 1999.01,2454.59 L 1996.79,2452.76 L 1993.32,2449.79 L 1991.49,2448.29 L 1990.96,2447.86 L 1986.4,2443.88 L 1984.72,2442.28 L 1982.39,2439.94 L 1981.33,2438.81 L 1976.25,2433.99 L 1966.2,2425.42 L 1960.33,2420.92 L 1949.3,2413.33 L 1942.15,2408.96 L 1940.31,2407.96 L 1928.9,2407.96 L 1920.96,2407.96 L 1907.79,2407.96 L 1901.38,2407.96 L 1900.01,2407.23 L 1887.94,2400.68 L 1881.94,2397.01 L 1870.91,2389.42 L 1866.04,2385.69 L 1856,2377.12 L 1851.82,2373.15 L 1850.54,2371.8 L 1848.63,2369.88 L 1845.27,2366.67 L 1842.28,2364.02 L 1841.04,2362.99 L 1837.6,2359.9 L 1837.49,2359.8 L 1832.7,2355.6 L 1829.6,2353.14 L 1828.65,2353 L 1822.19,2352.36 L 1817.56,2352.13 L 1814.38,2352.05 L 1774.58,2352.05 L 1763.83,2355.13 L 1753.09,2356.15 L 1708.09,2356.15 L 1705.13,2356.23 L 1700.19,2356.49 L 1694.17,2357.12 L 1689.23,2357.9 L 1688.88,2357.96 L 1663.1,2357.96 L 1549.37,2357.96 L 1547.26,2351 L 1544.99,2327.96 L 1544.99,2287.96 L 1547.26,2264.92 L 1549.37,2257.97 L 1663.1,2257.97 L 1688.88,2257.97 L 1694.74,2258.88 L 1699.68,2259.4 L 1705.62,2259.71 L 1710.56,2259.71 L 1716.51,2259.4 L 1721.44,2258.88 L 1727.3,2257.97 L 1753.09,2257.97 L 1776.72,2257.97 L 1795.32,2248.99 L 1813.91,2234.94 L 1816.38,2228.59 L 1816.62,2227.97 L 1821.44,2215.43 L 1827.83,2201.03 L 1828.01,2194.35 L 1828.12,2192.04 L 1828.38,2187.97 L 1829.21,2177.06 L 1829.37,2174.69 L 1830.38,2158.14 L 1830.52,2155.59 L 1831.12,2142.84 L 1834.79,2137.82 L 1836.15,2135.94 L 1837.52,2134.02 L 1841.43,2128.73 L 1845.5,2123.42 L 1856.83,2106.92 L 1863.9,2095.37 L 1868.53,2087.44 L 1865.38,2074.84 L 1862.49,2061.3 L 1859.16,2042.41 L 1857.35,2029.37 L 1856.51,2020.97 L 1855.2,2010.82 L 1853.11,1997.65 L 1848.91,1977.97 L 1845.38,1964.8 L 1838.36,1943.25 L 1833.31,1930.09 L 1826.98,1915.93 L 1826.98,1895 L 1829.25,1871.96 L 1835.97,1849.8 L 1846.89,1829.38 L 1848.19,1827.8 L 1903.39,1784.82 L 1922.04,1779.17 L 1945.09,1776.9 L 2071.06,1776.9 L 2094.1,1779.17 L 2116.26,1785.89 L 2130.59,1793.55 L 2129.94,1805.78 L 2127.14,1839.75 L 2124.72,1858.82 L 2121.97,1874.45 L 2118.45,1889 L 2116.58,1895 L 2115.49,1898.75 L 2111.96,1911.92 L 2110.17,1920.29 L 2108.09,1933.45 L 2107.28,1941.1 L 2106.59,1954.27 L 2106.59,1961.71 L 2107.28,1974.87 L 2108.09,1982.52 L 2110.17,1995.69 L 2111.96,2004.06 L 2115.49,2017.22 L 2116.58,2020.97 L 2118.45,2026.97 L 2121.97,2041.53 L 2124.73,2057.16 L 2125.41,2061.33 L 2117.48,2080.67 L 2106.49,2100 L 2106.49,2104.83 L 2106.52,2107.98 L 2106.62,2113.31 L 2106.64,2115.63 L 2106.65,2116.56 L 2106.68,2118.89 L 2106.94,2133.36 L 2106.97,2135.77 L 2106.97,2136.76 L 2107,2139.19 L 2107.3,2155.72 L 2107.33,2158.32 L 2107.34,2159.75 L 2107.37,2162.39 L 2107.74,2183.03 L 2107.77,2186 L 2107.79,2188.35 L 2107.83,2191.12 L 2107.7,2191.27 L 2099.93,2199.84 L 2074.97,2224.8 L 2079.81,2234.31 L 2084.25,2245.86 L 2088.31,2258.38 L 2092.49,2278.05 L 2129.87,2278.05 z " style="fill-opacity:1.000000;fill:rgb(118,90,46);stroke:rgb(0,0,0);stroke-width:2"/></g>
<g fill-rule="evenodd"><path d="M 4486.04,2437.88 L 4482.03,2432.89 L 4468.87,2418.26 L 4450.31,2399.6 L 4437.14,2387.75 L 4424.1,2377.14 L 4410.93,2367.57 L 4401.59,2361.48 L 4388.42,2353.88 L 4381.67,2350.43 L 4368.5,2344.56 L 4363.52,2342.65 L 4350.35,2338.37 L 4346.57,2337.35 L 4333.4,2334.55 L 4330.36,2334.07 L 4317.2,2332.69 L 4314.51,2332.54 L 4301.35,2332.54 L 4298.66,2332.69 L 4285.49,2334.07 L 4282.45,2334.55 L 4269.29,2337.35 L 4265.5,2338.37 L 4252.34,2342.65 L 4247.36,2344.56 L 4234.19,2350.43 L 4227.44,2353.88 L 4220.37,2357.96 L 4145.5,2357.96 L 4138.44,2362.04 L 4131.68,2365.5 L 4118.51,2371.36 L 4113.53,2373.28 L 4100.37,2377.56 L 4096.59,2378.57 L 4083.42,2381.37 L 4080.38,2381.85 L 4067.21,2383.24 L 4064.53,2383.38 L 4051.36,2383.38 L 4048.68,2383.24 L 4035.51,2381.85 L 4032.47,2381.37 L 4019.3,2378.57 L 4015.52,2377.56 L 4002.36,2373.28 L 3997.37,2371.36 L 3984.21,2365.5 L 3977.45,2362.04 L 3964.28,2354.44 L 3954.94,2348.35 L 3941.77,2338.78 L 3928.73,2328.17 L 3915.56,2316.32 L 3897,2297.66 L 3883.84,2283.03 L 3879.81,2278.11 L 3884.01,2258.38 L 3888.08,2245.86 L 3892.51,2234.31 L 3895.22,2228.98 L 3862.94,2196.69 L 3857.72,2190.93 L 3857.68,2188.35 L 3857.66,2186 L 3857.63,2183.03 L 3857.26,2162.39 L 3857.23,2159.75 L 3857.22,2158.32 L 3857.19,2155.72 L 3856.89,2139.19 L 3856.86,2136.76 L 3856.86,2135.77 L 3856.83,2133.36 L 3856.57,2118.89 L 3856.54,2116.56 L 3856.53,2115.63 L 3856.51,2113.31 L 3856.41,2107.98 L 3856.38,2104.83 L 3856.38,2100 L 3867.37,2080.67 L 3875.3,2061.33 L 3874.61,2057.16 L 3871.86,2041.53 L 3868.34,2026.97 L 3866.46,2020.97 L 3865.37,2017.22 L 3861.84,2004.06 L 3860.06,1995.69 L 3857.98,1982.52 L 3857.17,1974.87 L 3856.48,1961.71 L 3856.48,1954.27 L 3857.17,1941.1 L 3857.98,1933.45 L 3860.06,1920.29 L 3861.84,1911.92 L 3865.37,1898.75 L 3866.46,1895 L 3868.34,1889 L 3871.86,1874.45 L 3874.61,1858.82 L 3877.03,1839.75 L 3879.83,1805.78 L 3880.5,1793.22 L 3887.31,1790.19 L 3910.78,1782.56 L 3923.66,1779.82 L 3935.87,1777.89 L 3948.22,1777.24 L 3961.38,1777.24 L 3973.73,1777.89 L 3985.94,1779.82 L 3998.82,1782.56 L 4022.3,1790.19 L 4034.33,1795.55 L 4055.71,1807.89 L 4066.36,1815.63 L 4075.97,1823.41 L 4084.72,1832.16 L 4093.53,1841.95 L 4108.03,1861.9 L 4114.61,1873.31 L 4120.23,1884.33 L 4124.67,1895.88 L 4128.74,1908.41 L 4133.86,1932.53 L 4135.24,1945.63 L 4135.89,1957.99 L 4135.24,1970.34 L 4133.86,1983.44 L 4128.74,2007.57 L 4124.67,2020.09 L 4120.23,2031.64 L 4114.61,2042.67 L 4108.03,2054.07 L 4099.5,2065.81 L 4149.8,2116.11 L 4157.61,2124.73 L 4159.08,2126.52 L 4171.91,2145.72 L 4173,2147.76 L 4181.86,2169.15 L 4182.54,2171.37 L 4183.87,2178.05 L 5891.29,2178.05 L 5892.69,2175.43 L 5907.38,2157.53 L 5925.28,2142.84 L 5945.7,2131.93 L 5967.85,2125.21 L 5990.89,2122.94 L 6124.74,2122.94 L 6129.49,2123.4 L 6151.66,2148.74 L 6162.24,2164.12 L 6170.89,2179.51 L 6177.62,2194.89 L 6182.43,2210.27 L 6185.31,2225.66 L 6186.27,2241.04 L 6186.27,2374.89 L 6185.21,2391.09 L 6182.01,2407.3 L 6176.67,2423.5 L 6169.2,2439.7 L 6161.76,2441.63 L 6143.25,2445.22 L 6124.74,2446.42 L 6123.64,2446.42 L 6099.75,2448.41 L 6075.85,2454.4 L 6051.96,2464.38 L 6028.06,2478.35 L 6009.48,2482.93 L 5990.89,2489.25 L 5983.18,2492.23 L 5967.85,2490.72 L 5945.7,2484 L 5925.28,2473.09 L 5907.38,2458.4 L 5892.69,2440.5 L 5891.29,2437.88 L 4486.04,2437.88 z " style="fill-opacity:1.000000;fill:rgb(99,51,159);stroke:rgb(0,0,0);stroke-width:2"/></g>
<g fill-rule="evenodd"><path d="M 3837.73,2878.01 L 3859.65,2882.38 L 3864.28,2883.07 L 3886.33,2885.24 L 3890.96,2885.47 L 3901.75,2885.73 L 4185.33,2885.73 L 4187.61,2884.75 L 4208.92,2876.84 L 4221.66,2872.84 L 4240.89,2867.85 L 4253.64,2865.23 L 4271.53,2862.48 L 4284.28,2861.18 L 4297.24,2860.36 L 4303.62,2860.2 L 4316.53,2860.36 L 4329.28,2861.01 L 4346.79,2862.79 L 4359.53,2864.75 L 4378,2868.55 L 4390.74,2871.85 L 4410.89,2878.19 L 4423.63,2882.91 L 4425.65,2883.67 L 4439.92,2897.7 L 4440.96,2898.71 L 4449.16,2906.66 L 4452.85,2910.33 L 4465.73,2923.41 L 4469.79,2927.43 L 4473.03,2934.03 L 4481.33,2956.45 L 4484.52,2968.79 L 4488.14,2992.4 L 4488.79,3005.12 L 4488.23,3016.19 L 4476.58,3027.31 L 4463.83,3038.25 L 4445.88,3052.21 L 4433.13,3061.08 L 4419.22,3069.78 L 4406.48,3076.85 L 4395.42,3082.3 L 4382.67,3087.77 L 4373.61,3091.13 L 4360.87,3095.13 L 4353.15,3097.14 L 4340.4,3099.76 L 4333.52,3100.81 L 4320.78,3102.11 L 4315.92,3102.42 L 4309.54,3102.58 L 4304.71,3102.52 L 4291.97,3101.87 L 4285.34,3101.2 L 4272.59,3099.24 L 4265.36,3097.75 L 4252.61,3094.45 L 4244.29,3091.83 L 4231.55,3087.11 L 4221.57,3082.82 L 4209.73,3077.01 L 3607.97,3077.01 L 3602.37,3076.87 L 3600.06,3076.76 L 3588.63,3075.63 L 3586.32,3075.29 L 3574.52,3072.93 L 3572.2,3072.35 L 3559.73,3068.56 L 3557.42,3067.73 L 3550.74,3065.16 L 3432.52,3016.19 L 3366.12,2949.79 L 3358.31,2941.18 L 3356.84,2939.39 L 3344.02,2920.19 L 3342.92,2918.14 L 3334.06,2896.75 L 3333.39,2894.54 L 3328.86,2871.76 L 3328.63,2869.45 L 3328.07,2857.93 L 3328.07,2609.75 L 3314.79,2593.57 L 3303.87,2573.15 L 3297.15,2550.99 L 3294.88,2527.95 L 3294.88,2487.95 L 3297.15,2464.91 L 3299.26,2457.95 L 3412.99,2457.95 L 3438.77,2457.95 L 3439.12,2458.01 L 3444.06,2458.79 L 3450.09,2459.43 L 3455.03,2459.69 L 3457.98,2459.77 L 3502.98,2459.77 L 3520.61,2462.52 L 3538.24,2470.8 L 3547.66,2487.95 L 3552.44,2499.48 L 3552.26,2502.8 L 3552.26,2513.11 L 3552.95,2526.28 L 3553.06,2527.95 L 3553.68,2536.95 L 3553.77,2550.77 L 3553.02,2564.59 L 3551.31,2580.78 L 3549.47,2592.66 L 3552.12,2600.06 L 3557.18,2613.23 L 3565.73,2632.38 L 3572.44,2645.55 L 3585.65,2668.34 L 3587.89,2671.8 L 3587.89,2804.12 L 3661.78,2878.01 L 3837.73,2878.01 z " style="fill-opacity:1.000000;fill:rgb(201,154,102);stroke:rgb(0,0,0);stroke-width:2"/></g>
<g fill-rule="evenodd"><path d="M 3879.76,2278.05 L 3883.84,2283.03 L 3897,2297.66 L 3915.56,2316.32 L 3928.73,2328.17 L 3941.77,2338.78 L 3954.94,2348.35 L 3964.28,2354.44 L 3977.45,2362.04 L 3984.21,2365.5 L 3997.37,2371.36 L 4002.36,2373.28 L 4015.52,2377.56 L 4019.3,2378.57 L 4032.47,2381.37 L 4035.51,2381.85 L 4048.68,2383.24 L 4051.36,2383.38 L 4064.53,2383.38 L 4067.21,2383.24 L 4080.38,2381.85 L 4083.42,2381.37 L 4096.59,2378.57 L 4100.37,2377.56 L 4113.53,2373.28 L 4118.51,2371.36 L 4131.68,2365.5 L 4138.44,2362.04 L 4145.5,2357.96 L 4220.37,2357.96 L 4227.44,2353.88 L 4234.19,2350.43 L 4247.36,2344.56 L 4252.34,2342.65 L 4265.5,2338.37 L 4269.29,2337.35 L 4282.45,2334.55 L 4285.49,2334.07 L 4298.66,2332.69 L 4301.35,2332.54 L 4314.51,2332.54 L 4317.2,2332.69 L 4330.36,2334.07 L 4333.4,2334.55 L 4346.57,2337.35 L 4350.35,2338.37 L 4363.52,2342.65 L 4368.5,2344.56 L 4381.67,2350.43 L 4388.42,2353.88 L 4401.59,2361.48 L 4410.93,2367.57 L 4424.1,2377.14 L 4437.14,2387.75 L 4450.31,2399.6 L 4468.87,2418.26 L 4482.03,2432.89 L 4486.04,2437.87 L 4481.86,2457.54 L 4477.8,2470.06 L 4473.36,2481.61 L 4467.74,2492.64 L 4461.16,2504.04 L 4446.66,2524 L 4437.84,2533.79 L 4429.1,2542.53 L 4419.5,2550.31 L 4408.85,2558.05 L 4398.47,2564.79 L 4387.45,2570.4 L 4375.42,2575.76 L 4351.95,2583.38 L 4339.07,2586.12 L 4326.86,2588.06 L 4314.51,2588.7 L 4301.35,2588.7 L 4289,2588.06 L 4276.79,2586.12 L 4263.91,2583.38 L 4240.43,2575.75 L 4228.4,2570.4 L 4207.02,2558.06 L 4196.37,2550.32 L 4186.75,2542.53 L 4182.09,2537.87 L 3888.31,2537.87 L 3814.98,2507.5 L 3806.65,2499.6 L 3793.48,2487.74 L 3780.44,2477.13 L 3767.27,2467.57 L 3764.26,2465.45 L 3760.06,2462.6 L 3758.16,2461.34 L 3757.88,2461.16 L 3750.85,2456.14 L 3748.9,2454.59 L 3746.68,2452.76 L 3743.2,2449.79 L 3741.38,2448.29 L 3740.85,2447.86 L 3736.29,2443.88 L 3734.61,2442.28 L 3732.28,2439.94 L 3731.22,2438.81 L 3726.14,2433.99 L 3716.09,2425.42 L 3710.22,2420.92 L 3699.19,2413.33 L 3692.04,2408.96 L 3690.2,2407.96 L 3678.79,2407.96 L 3670.85,2407.96 L 3657.68,2407.96 L 3651.27,2407.96 L 3649.9,2407.23 L 3637.83,2400.68 L 3631.83,2397.01 L 3620.79,2389.42 L 3615.93,2385.69 L 3605.89,2377.12 L 3601.71,2373.15 L 3600.43,2371.8 L 3598.52,2369.88 L 3595.16,2366.67 L 3592.17,2364.02 L 3590.93,2362.99 L 3587.49,2359.9 L 3587.38,2359.8 L 3582.59,2355.6 L 3579.49,2353.14 L 3578.54,2353 L 3572.08,2352.36 L 3567.45,2352.13 L 3564.27,2352.05 L 3524.47,2352.05 L 3513.72,2355.13 L 3502.98,2356.15 L 3457.98,2356.15 L 3455.02,2356.23 L 3450.08,2356.49 L 3444.06,2357.12 L 3439.12,2357.9 L 3438.77,2357.96 L 3412.99,2357.96 L 3299.26,2357.96 L 3297.15,2351 L 3294.88,2327.96 L 3294.88,2287.96 L 3297.15,2264.92 L 3299.26,2257.97 L 3412.99,2257.97 L 3438.77,2257.97 L 3444.63,2258.88 L 3449.57,2259.4 L 3455.51,2259.71 L 3460.45,2259.71 L 3466.4,2259.4 L 3471.33,2258.88 L 3477.19,2257.97 L 3502.98,2257.97 L 3526.61,2257.97 L 3545.21,2248.99 L 3563.8,2234.94 L 3566.27,2228.59 L 3566.51,2227.97 L 3571.33,2215.43 L 3577.72,2201.03 L 3577.9,2194.35 L 3578.01,2192.04 L 3578.26,2187.97 L 3579.1,2177.06 L 3579.26,2174.69 L 3580.27,2158.14 L 3580.41,2155.59 L 3581.01,2142.84 L 3584.68,2137.82 L 3586.04,2135.94 L 3587.4,2134.02 L 3591.32,2128.73 L 3595.39,2123.42 L 3606.72,2106.92 L 3613.79,2095.37 L 3618.41,2087.44 L 3615.27,2074.84 L 3612.38,2061.3 L 3609.05,2042.41 L 3607.24,2029.37 L 3606.4,2020.97 L 3605.09,2010.82 L 3603,1997.65 L 3598.8,1977.97 L 3595.27,1964.8 L 3588.25,1943.25 L 3583.2,1930.09 L 3576.87,1915.93 L 3576.87,1895 L 3579.14,1871.96 L 3585.86,1849.8 L 3596.78,1829.38 L 3598.08,1827.8 L 3653.28,1784.82 L 3671.93,1779.17 L 3694.98,1776.9 L 3820.95,1776.9 L 3843.99,1779.17 L 3866.15,1785.89 L 3880.48,1793.55 L 3879.83,1805.78 L 3877.03,1839.75 L 3874.61,1858.82 L 3871.86,1874.45 L 3868.34,1889 L 3866.46,1895 L 3865.37,1898.75 L 3861.84,1911.92 L 3860.06,1920.29 L 3857.98,1933.45 L 3857.17,1941.1 L 3856.48,1954.27 L 3856.48,1961.71 L 3857.17,1974.87 L 3857.98,1982.52 L 3860.06,1995.69 L 3861.84,2004.06 L 3865.37,2017.22 L 3866.46,2020.97 L 3868.34,2026.97 L 3871.86,2041.53 L 3874.61,2057.16 L 3875.3,2061.33 L 3867.37,2080.67 L 3856.38,2100 L 3856.38,2104.83 L 3856.41,2107.98 L 3856.51,2113.31 L 3856.53,2115.63 L 3856.54,2116.56 L 3856.57,2118.89 L 3856.83,2133.36 L 3856.86,2135.77 L 3856.86,2136.76 L 3856.89,2139.19 L 3857.19,2155.72 L 3857.22,2158.32 L 3857.23,2159.75 L 3857.26,2162.39 L 3857.63,2183.03 L 3857.66,2186 L 3857.68,2188.35 L 3857.72,2191.12 L 3857.59,2191.27 L 3849.82,2199.84 L 3824.86,2224.8 L 3829.7,2234.31 L 3834.13,2245.86 L 3838.2,2258.38 L 3842.38,2278.05 L 3879.76,2278.05 z " style="fill-opacity:1.000000;fill:rgb(50,13,183);stroke:rgb(0,0,0);stroke-width:2"/></g>
<g fill-rule="evenodd"><path d="M 1826.52,1914.88 L 1833.31,1930.09 L 1838.36,1943.25 L 1845.38,1964.8 L 1848.91,1977.97 L 1853.11,1997.65 L 1855.2,2010.82 L 1856.51,2020.97 L 1857.35,2029.37 L 1859.16,2042.41 L 1862.49,2061.3 L 1865.38,2074.84 L 1868.53,2087.44 L 1863.9,2095.37 L 1856.83,2106.92 L 1845.5,2123.42 L 1841.43,2128.73 L 1837.52,2134.02 L 1836.15,2135.94 L 1834.79,2137.82 L 1831.12,2142.84 L 1830.52,2155.59 L 1830.38,2158.14 L 1829.37,2174.69 L 1829.21,2177.06 L 1828.38,2187.97 L 1828.12,2192.04 L 1828.01,2194.35 L 1827.83,2201.03 L 1821.44,2215.43 L 1816.62,2227.97 L 1816.38,2228.59 L 1813.91,2234.94 L 1795.32,2248.99 L 1776.72,2257.97 L 1753.09,2257.97 L 1727.3,2257.97 L 1721.44,2258.88 L 1716.51,2259.4 L 1710.56,2259.71 L 1705.62,2259.71 L 1699.68,2259.4 L 1694.74,2258.88 L 1688.88,2257.97 L 1663.1,2257.97 L 1549.37,2257.97 L 1547.26,2251.01 L 1544.99,2227.97 L 1544.99,2187.97 L 1547.26,2164.93 L 1553.3,2145.05 L 1548.28,2136.36 L 1542.66,2125.34 L 1538.22,2113.79 L 1534.16,2101.26 L 1529.03,2077.14 L 1527.65,2064.04 L 1527,2051.68 L 1527.65,2039.32 L 1529.03,2026.23 L 1534.16,2002.1 L 1538.22,1989.58 L 1542.66,1978.03 L 1548.28,1967 L 1554.86,1955.6 L 1569.36,1935.64 L 1578.18,1925.85 L 1586.92,1917.11 L 1596.52,1909.33 L 1607.17,1901.59 L 1617.55,1894.86 L 1628.57,1889.24 L 1640.6,1883.88 L 1664.07,1876.26 L 1676.95,1873.52 L 1689.16,1871.59 L 1701.51,1870.94 L 1714.68,1870.94 L 1727.02,1871.59 L 1739.23,1873.52 L 1752.11,1876.26 L 1775.59,1883.89 L 1787.62,1889.24 L 1809,1901.59 L 1819.65,1909.32 L 1826.52,1914.88 z " style="fill-opacity:1.000000;fill:rgb(49,88,163);stroke:rgb(0,0,0);stroke-width:2"/></g>
<g fill-rule="evenodd"><path d="M 3432.51,3016.19 L 3550.74,3065.16 L 3557.42,3067.73 L 3559.73,3068.56 L 3572.2,3072.35 L 3574.52,3072.93 L 3586.32,3075.29 L 3588.63,3075.63 L 3600.06,3076.76 L 3602.37,3076.87 L 3607.97,3077.01 L 4209.73,3077.01 L 4221.57,3082.82 L 4231.55,3087.11 L 4244.29,3091.83 L 4252.61,3094.45 L 4265.36,3097.75 L 4272.59,3099.24 L 4285.34,3101.2 L 4291.97,3101.87 L 4304.71,3102.52 L 4309.54,3102.58 L 4315.92,3102.42 L 4320.78,3102.11 L 4333.52,3100.81 L 4340.4,3099.76 L 4353.15,3097.14 L 4360.87,3095.13 L 4373.61,3091.13 L 4382.67,3087.77 L 4395.42,3082.3 L 4406.48,3076.85 L 4419.22,3069.78 L 4433.13,3061.08 L 4445.88,3052.21 L 4463.83,3038.25 L 4476.58,3027.31 L 4488.22,3016.19 L 4714.99,3016.19 L 4766.17,2982.07 L 4766.17,2887.8 L 4756.46,2877.02 L 4741.95,2857.05 L 4733.72,2842.81 L 4732.9,2841.19 L 4732.9,2817.24 L 4732.9,2799.94 L 4732.9,2778.4 L 4732.9,2761.86 L 4732.9,2741.61 L 4732.9,2725.07 L 4732.9,2703.53 L 4732.9,2686.23 L 4732.9,2662.29 L 4733.72,2660.67 L 4741.95,2646.42 L 4756.46,2626.46 L 4767.46,2614.23 L 4785.81,2597.72 L 4799.12,2588.04 L 4809.49,2581.31 L 4820.51,2575.69 L 4835.54,2569 L 4859.02,2561.37 L 4875.11,2557.95 L 4899.67,2555.37 L 4916.12,2555.37 L 4940.67,2557.95 L 4956.76,2561.37 L 4968.7,2564.57 L 4980.24,2569 L 4995.27,2575.69 L 5006.29,2581.31 L 5016.66,2588.04 L 5029.97,2597.71 L 5039.57,2605.49 L 5048.32,2614.23 L 5059.32,2626.46 L 5073.83,2646.42 L 5082.06,2660.67 L 5087.67,2671.69 L 5092.1,2683.24 L 5097.19,2698.88 L 5102.32,2723.03 L 5104.04,2739.39 L 5104.69,2751.74 L 5104.04,2764.08 L 5102.32,2780.44 L 5097.19,2804.59 L 5092.1,2820.24 L 5087.67,2831.79 L 5082.06,2842.81 L 5073.83,2857.05 L 5059.32,2877.02 L 5049.61,2887.8 L 5049.61,3057.92 L 5049.04,3069.53 L 5048.58,3074.15 L 5044.05,3096.87 L 5042.71,3101.31 L 5033.85,3122.66 L 5031.67,3126.75 L 5018.76,3146.04 L 5015.82,3149.63 L 4999.39,3166.02 L 4995.81,3168.95 L 4986.5,3175.84 L 4905.56,3229.8 L 4822.57,3254.93 L 4813.58,3257.41 L 4808.96,3258.57 L 4791.79,3261.98 L 4787.17,3262.66 L 4770.68,3264.29 L 4766.06,3264.51 L 4757.9,3264.71 L 3208,3264.71 L 3199.86,3264.52 L 3195.23,3264.29 L 3178.6,3262.65 L 3173.97,3261.96 L 3156.85,3258.55 L 3152.22,3257.39 L 3133.92,3251.82 L 3129.29,3250.16 L 3119.52,3246.39 L 3079.45,3229.79 L 2699.32,2849.66 L 2645.39,2849.66 L 2639.45,2848.12 L 2616.35,2843.36 L 2603.61,2841.41 L 2581.61,2839.17 L 2568.86,2838.52 L 2552.62,2838.31 L 2546.24,2838.48 L 2529.93,2839.51 L 2517.19,2840.81 L 2494.75,2844.26 L 2482,2846.88 L 2471.27,2849.66 L 2108.07,2849.66 L 2096.54,2849.1 L 2091.93,2848.65 L 2069.12,2844.11 L 2064.69,2842.76 L 2043.37,2833.93 L 2039.29,2831.75 L 2020.02,2818.88 L 2016.44,2815.94 L 2007.85,2808.15 L 1886.3,2686.6 L 1883.24,2686.12 L 1870.36,2683.38 L 1846.88,2675.75 L 1838.01,2671.8 L 1835.76,2668.34 L 1822.55,2645.55 L 1815.84,2632.38 L 1807.29,2613.23 L 1802.23,2600.06 L 1799.58,2592.66 L 1801.42,2580.78 L 1803.13,2564.59 L 1803.88,2550.77 L 1803.79,2536.95 L 1803.17,2527.95 L 1803.07,2526.28 L 1802.38,2513.11 L 1802.38,2502.8 L 1802.55,2499.48 L 1797.78,2487.95 L 1788.35,2470.8 L 1770.72,2462.52 L 1753.09,2459.77 L 1708.09,2459.77 L 1705.14,2459.69 L 1700.2,2459.43 L 1694.17,2458.79 L 1689.23,2458.01 L 1688.88,2457.95 L 1663.1,2457.95 L 1549.37,2457.95 L 1547.26,2451 L 1544.99,2427.96 L 1544.99,2387.96 L 1547.26,2364.92 L 1549.37,2357.96 L 1663.1,2357.96 L 1688.88,2357.96 L 1689.23,2357.9 L 1694.17,2357.12 L 1700.19,2356.49 L 1705.13,2356.23 L 1708.09,2356.15 L 1753.09,2356.15 L 1763.83,2355.13 L 1774.58,2352.05 L 1814.38,2352.05 L 1817.56,2352.13 L 1822.19,2352.36 L 1828.65,2353 L 1829.6,2353.14 L 1832.7,2355.6 L 1837.49,2359.8 L 1837.6,2359.9 L 1841.04,2362.99 L 1842.28,2364.02 L 1845.27,2366.67 L 1848.63,2369.88 L 1850.54,2371.8 L 1851.82,2373.15 L 1856,2377.12 L 1866.04,2385.69 L 1870.91,2389.42 L 1881.94,2397.01 L 1887.94,2400.68 L 1900.01,2407.23 L 1901.38,2407.96 L 1907.79,2407.96 L 1920.96,2407.96 L 1928.9,2407.96 L 1940.31,2407.96 L 1942.15,2408.96 L 1949.3,2413.33 L 1960.33,2420.92 L 1966.2,2425.42 L 1976.25,2433.99 L 1981.33,2438.81 L 1982.39,2439.94 L 1984.72,2442.28 L 1986.4,2443.88 L 1990.96,2447.86 L 1991.49,2448.29 L 1993.32,2449.79 L 1996.79,2452.76 L 1999.01,2454.59 L 2000.96,2456.14 L 2007.99,2461.16 L 2008.27,2461.34 L 2010.17,2462.6 L 2014.37,2465.45 L 2017.38,2467.57 L 2030.55,2477.13 L 2043.59,2487.74 L 2056.76,2499.6 L 2065.09,2507.5 L 2138.42,2537.87 L 2166.76,2566.22 L 2471.26,2566.22 L 2479.4,2568.4 L 2492.57,2571.2 L 2515.82,2574.89 L 2528.99,2576.28 L 2551.46,2577.46 L 2564.62,2577.46 L 2587.09,2576.28 L 2600.25,2574.89 L 2623.5,2571.2 L 2636.67,2568.4 L 2644.81,2566.22 L 2758.03,2566.22 L 2769.61,2566.79 L 2774.21,2567.24 L 2796.97,2571.77 L 2801.4,2573.12 L 2822.72,2581.95 L 2826.8,2584.13 L 2846.07,2597.01 L 2849.65,2599.94 L 2857.54,2607.09 L 2858.06,2607.9 L 2872.26,2627.45 L 2888.24,2645.22 L 2900.74,2657.72 L 2918.12,2673.38 L 2937.21,2687.34 L 2938.77,2688.25 L 3266.7,3016.19 L 3432.51,3016.19 z " style="fill-opacity:1.000000;fill:rgb(90,37,93);stroke:rgb(0,0,0);stroke-width:2"/></g>
<g fill-rule="evenodd"><path d="M 3593.39,399.817 L 1866.79,399.817 L 1849.82,416.792 L 1849.82,478.208 L 1859.53,488.993 L 1874.03,508.956 L 1882.26,523.203 L 1887.87,534.224 L 1892.31,545.771 L 1897.39,561.418 L 1902.52,585.565 L 1904.24,601.926 L 1904.89,614.273 L 1904.24,626.618 L 1902.52,642.979 L 1897.39,667.126 L 1892.31,682.773 L 1887.87,694.322 L 1882.26,705.341 L 1874.03,719.588 L 1859.53,739.551 L 1848.52,751.776 L 1830.18,768.293 L 1816.87,777.965 L 1806.49,784.702 L 1795.47,790.318 L 1780.44,797.009 L 1756.96,804.637 L 1740.87,808.057 L 1716.32,810.637 L 1699.87,810.637 L 1675.32,808.057 L 1659.22,804.637 L 1647.28,801.437 L 1635.74,797.007 L 1620.71,790.316 L 1599.33,777.971 L 1586.02,768.299 L 1576.41,760.518 L 1567.67,751.776 L 1556.66,739.551 L 1542.15,719.588 L 1533.93,705.341 L 1528.31,694.32 L 1523.88,682.773 L 1518.79,667.126 L 1513.66,642.979 L 1511.94,626.618 L 1511.3,614.273 L 1511.94,601.926 L 1513.66,585.565 L 1518.79,561.418 L 1523.88,545.771 L 1528.31,534.224 L 1533.93,523.203 L 1542.15,508.956 L 1556.66,488.993 L 1566.37,478.208 L 1566.37,358.087 L 1566.73,348.85 L 1567.02,345.154 L 1570.68,323.827 L 1571.96,319.058 L 1575.78,307.3 L 1580.81,296.003 L 1583.05,291.603 L 1589.24,280.886 L 1596.52,270.875 L 1599.63,267.039 L 1607.88,257.876 L 1629.54,236.209 L 1740.32,190.326 L 1747.25,187.648 L 1751.88,185.99 L 1764.83,182.052 L 1769.46,180.893 L 1781.5,178.493 L 1786.13,177.805 L 1797.74,176.657 L 1802.37,176.429 L 1808.09,176.289 L 3851.66,176.289 L 3857.38,176.429 L 3862,176.657 L 3873.62,177.805 L 3878.25,178.493 L 3890.28,180.893 L 3894.91,182.052 L 3907.84,185.984 L 3912.47,187.64 L 3919.43,190.326 L 4030.19,236.205 L 4072.23,278.246 L 4082.78,279.918 L 4095.66,282.656 L 4119.14,290.286 L 4131.17,295.641 L 4152.55,307.984 L 4163.2,315.724 L 4163.99,316.358 L 4259.01,316.358 L 4261.01,314.906 L 4282.39,302.565 L 4292.89,297.887 L 4304.43,293.455 L 4316.38,290.256 L 4327.63,287.866 L 4352.18,285.284 L 4363.67,285.284 L 4388.22,287.866 L 4399.47,290.256 L 4411.42,293.455 L 4422.97,297.891 L 4433.47,302.569 L 4454.83,314.9 L 4464.13,321.658 L 4473.75,329.443 L 4482.5,338.193 L 4490.19,346.736 L 4504.69,366.699 L 4510.44,376.656 L 4520.49,399.211 L 4524.04,410.146 L 4527.24,422.089 L 4529.17,434.3 L 4530.38,445.734 L 4531.02,458.083 L 4530.38,470.43 L 4529.17,481.863 L 4527.24,494.077 L 4524.04,506.018 L 4520.49,516.953 L 4510.44,539.508 L 4504.69,549.465 L 4490.19,569.428 L 4482.5,577.971 L 4473.75,586.717 L 4464.14,594.5 L 4454.84,601.258 L 4433.46,613.599 L 4422.96,618.277 L 4411.41,622.708 L 4399.47,625.908 L 4388.22,628.298 L 4363.67,630.878 L 4352.18,630.878 L 4327.63,628.298 L 4316.38,625.908 L 4304.43,622.706 L 4292.88,618.273 L 4282.38,613.595 L 4261.02,601.264 L 4259.01,599.804 L 4163.99,599.804 L 4163.21,600.434 L 4152.56,608.173 L 4142.19,614.911 L 4131.17,620.527 L 4119.14,625.882 L 4095.66,633.508 L 4082.78,636.246 L 4079.72,636.73 L 4049.68,666.774 L 4049.68,677.487 L 4030.74,698.416 L 4020.08,711.583 L 4007.57,728.722 L 3999.02,741.891 L 3991.32,755.17 L 3984.62,768.335 L 3979.89,778.921 L 3974.84,792.09 L 3971.99,800.823 L 3968.46,813.99 L 3966.85,821.54 L 3964.76,834.707 L 3964.04,841.565 L 3963.35,854.732 L 3963.35,861.381 L 3964.04,874.548 L 3964.76,881.406 L 3966.85,894.573 L 3968.46,902.123 L 3971.99,915.29 L 3974.84,924.023 L 3979.89,937.193 L 3984.62,947.782 L 3991.33,960.949 L 3999.02,974.22 L 4007.57,987.387 L 4020.08,1004.53 L 4028.13,1014.47 L 4031.08,1016.08 L 4044.58,1022.78 L 4249.25,1227.45 L 4259.96,1231.89 L 4278.85,1240.88 L 4293.93,1249.06 L 4309.31,1258.47 L 4323.1,1267.95 L 4336.09,1277.91 L 4348.64,1288.63 L 4360.03,1299.44 L 4371.36,1311.38 L 4381.69,1323.48 L 4391.8,1336.65 L 4401.46,1350.72 L 4410.3,1365.15 L 4419.5,1382.12 L 4427.01,1397.87 L 4435.77,1419.1 L 4441.86,1436.28 L 4444.41,1444.96 L 4441.03,1460.88 L 4435.95,1476.52 L 4431.51,1488.07 L 4425.9,1499.09 L 4417.67,1513.34 L 4403.16,1533.3 L 4392.16,1545.53 L 4373.81,1562.04 L 4360.51,1571.71 L 4350.13,1578.45 L 4339.11,1584.07 L 4324.08,1590.76 L 4300.6,1598.39 L 4284.51,1601.81 L 4259.96,1604.39 L 4243.51,1604.39 L 4218.95,1601.81 L 4202.86,1598.39 L 4190.92,1595.19 L 4179.38,1590.76 L 4164.35,1584.07 L 4142.97,1571.72 L 4129.65,1562.05 L 4120.05,1554.27 L 4111.31,1545.53 L 4100.3,1533.3 L 4085.79,1513.34 L 4077.57,1499.09 L 4071.95,1488.07 L 4067.52,1476.52 L 4062.43,1460.88 L 4057.3,1436.73 L 4055.58,1420.37 L 4055.14,1411.86 L 3807.74,1164.46 L 3799.95,1155.87 L 3797.02,1152.29 L 3784.15,1133.02 L 3781.96,1128.94 L 3773.13,1107.62 L 3771.78,1103.19 L 3767.24,1080.38 L 3766.79,1075.77 L 3766.23,1064.24 L 3766.23,1038.83 L 3775.11,1027.85 L 3790.15,1007.61 L 3801.75,990.349 L 3810.89,973.088 L 3817.58,955.829 L 3821.82,938.568 L 3829.65,893.621 L 3831.23,872.597 L 3830.16,827.649 L 3828.05,808.691 L 3821.26,774.555 L 3813.3,748.552 L 3799.77,722.548 L 3795.14,706.035 L 3788.82,689.522 L 3771.08,656.496 L 3783.78,632.284 L 3792.97,608.071 L 3795.64,599.372 L 3796.47,596.582 L 3797.6,594.912 L 3807.59,580.043 L 3810.21,576.003 L 3818.5,562.866 L 3820.91,558.907 L 3828.56,545.913 L 3829.82,543.735 L 3830.89,541.84 L 3834.95,535.076 L 3854.2,504.736 L 3863.49,488.275 L 3871.37,470.404 L 3874.92,461.235 L 3859.32,425.981 L 3844.68,399.219 L 3825.35,370.278 L 3812.19,353.378 L 3793.06,345.868 L 3773.93,341.484 L 3753.69,338.505 L 3738.08,337.301 L 3722.48,338.287 L 3706.88,341.464 L 3691.27,346.832 L 3651.23,363.415 L 3628.69,374.574 L 3606.15,389.375 L 3593.39,399.817 z " style="fill-opacity:1.000000;fill:rgb(5,23,88);stroke:rgb(0,0,0);stroke-width:2"/></g>
<g fill-rule="evenodd"><path d="M 4449.55,1049.23 L 4449.93,1049.66 L 4457.92,1058.04 L 4557.91,1158.04 L 4566.3,1166.02 L 4566.71,1166.4 L 4808.11,1407.8 L 4811.66,1411.51 L 4817.45,1417.82 L 4826.05,1428.36 L 4833.38,1439.82 L 4835.6,1443.78 L 4840.69,1453.97 L 4979.37,1768.71 L 4980.24,1769.05 L 4995.27,1775.74 L 5006.29,1781.36 L 5016.66,1788.09 L 5029.97,1797.76 L 5039.57,1805.54 L 5048.32,1814.28 L 5059.32,1826.51 L 5073.83,1846.47 L 5082.06,1860.72 L 5087.67,1871.74 L 5092.1,1883.29 L 5097.19,1898.93 L 5102.32,1923.08 L 5104.04,1939.44 L 5104.69,1951.79 L 5104.04,1964.13 L 5102.32,1980.49 L 5097.19,2004.64 L 5092.1,2020.29 L 5087.67,2031.84 L 5082.06,2042.86 L 5073.83,2057.1 L 5059.32,2077.07 L 5048.32,2089.29 L 5029.97,2105.81 L 5016.66,2115.48 L 5006.29,2122.22 L 4995.27,2127.83 L 4980.24,2134.52 L 4956.76,2142.15 L 4940.67,2145.57 L 4916.12,2148.15 L 4899.67,2148.15 L 4875.11,2145.57 L 4859.02,2142.15 L 4847.08,2138.95 L 4835.54,2134.52 L 4820.51,2127.83 L 4799.12,2115.49 L 4785.81,2105.81 L 4776.2,2098.03 L 4767.46,2089.29 L 4756.46,2077.07 L 4741.95,2057.1 L 4733.72,2042.86 L 4732.9,2041.24 L 4732.08,2042.86 L 4723.85,2057.1 L 4709.35,2077.07 L 4698.34,2089.29 L 4679.99,2105.81 L 4666.69,2115.48 L 4656.31,2122.22 L 4645.29,2127.83 L 4630.26,2134.52 L 4606.78,2142.15 L 4590.69,2145.57 L 4566.14,2148.15 L 4549.69,2148.15 L 4525.13,2145.57 L 4509.04,2142.15 L 4497.1,2138.95 L 4485.56,2134.52 L 4470.53,2127.83 L 4449.15,2115.49 L 4435.83,2105.81 L 4426.23,2098.03 L 4417.49,2089.29 L 4406.48,2077.07 L 4391.97,2057.1 L 4383.75,2042.86 L 4378.13,2031.84 L 4373.7,2020.29 L 4368.61,2004.64 L 4363.48,1980.49 L 4361.76,1964.13 L 4361.12,1951.79 L 4361.76,1939.44 L 4363.48,1923.08 L 4368.61,1898.93 L 4373.7,1883.29 L 4378.13,1871.74 L 4383.75,1860.72 L 4391.97,1846.47 L 4406.48,1826.51 L 4417.49,1814.28 L 4435.83,1797.77 L 4449.14,1788.09 L 4459.51,1781.36 L 4466.52,1777.79 L 4544.2,1544.75 L 4444.41,1444.96 L 4441.86,1436.28 L 4435.77,1419.1 L 4427.01,1397.87 L 4419.5,1382.12 L 4410.3,1365.15 L 4401.46,1350.72 L 4391.8,1336.65 L 4381.69,1323.48 L 4371.36,1311.38 L 4360.03,1299.44 L 4348.64,1288.63 L 4336.09,1277.91 L 4323.1,1267.95 L 4309.31,1258.47 L 4293.93,1249.06 L 4278.85,1240.88 L 4259.96,1231.89 L 4249.25,1227.45 L 4044.58,1022.78 L 4031.08,1016.08 L 4028.13,1014.47 L 4020.08,1004.53 L 4007.57,987.387 L 3999.02,974.22 L 3991.33,960.949 L 3984.62,947.782 L 3979.89,937.193 L 3974.84,924.023 L 3971.99,915.29 L 3968.46,902.123 L 3966.85,894.573 L 3964.76,881.406 L 3964.04,874.548 L 3963.35,861.381 L 3963.35,854.732 L 3964.04,841.565 L 3964.76,834.707 L 3966.85,821.54 L 3968.46,813.99 L 3971.99,800.823 L 3974.84,792.09 L 3979.89,778.921 L 3984.62,768.335 L 3991.32,755.17 L 3999.02,741.891 L 4007.57,728.722 L 4020.08,711.583 L 4030.74,698.416 L 4049.76,677.395 L 4051.36,677.311 L 4064.53,677.311 L 4076.87,677.959 L 4089.08,679.893 L 4101.96,682.631 L 4125.44,690.26 L 4137.47,695.616 L 4158.85,707.959 L 4169.5,715.699 L 4170.29,716.333 L 4259.01,716.333 L 4261.01,714.881 L 4282.39,702.539 L 4292.89,697.862 L 4304.43,693.43 L 4316.38,690.23 L 4327.63,687.84 L 4352.18,685.259 L 4363.67,685.259 L 4388.22,687.84 L 4399.47,690.23 L 4411.42,693.43 L 4422.97,697.866 L 4433.47,702.543 L 4454.83,714.875 L 4456.83,716.331 L 4456.84,727.14 L 4456.86,731.64 L 4457.19,758.068 L 4457.21,760.932 L 4457.21,773.551 L 4457.23,776.383 L 4457.45,791.838 L 4457.46,793.944 L 4457.46,805.123 L 4457.48,807.213 L 4457.65,817.858 L 4457.66,819.602 L 4457.66,829.953 L 4457.68,831.687 L 4457.82,840.183 L 4457.84,841.775 L 4457.84,851.744 L 4457.85,853.334 L 4457.99,861.205 L 4458,862.795 L 4458,872.765 L 4458.02,874.357 L 4458.16,882.852 L 4458.17,884.586 L 4458.17,894.937 L 4458.19,896.681 L 4458.36,907.326 L 4458.37,909.416 L 4458.37,920.596 L 4458.39,922.701 L 4458.61,938.156 L 4458.63,940.988 L 4458.63,941.032 L 4454.23,952.496 L 4451.98,958.049 L 4448.42,966.471 L 4446.68,970.444 L 4446.28,971.332 L 4441.5,982.872 L 4438,992.055 L 4435.83,997.553 L 4431.29,1008.69 L 4428.57,1015.75 L 4422.96,1018.25 L 4419.78,1019.47 L 4449.55,1049.23 z " style="fill-opacity:1.000000;fill:rgb(233,94,212);stroke:rgb(0,0,0);stroke-width:2"/></g>
<g fill-rule="evenodd"><path d="M 3837.75,2878.01 L 3837.06,2877.73 L 3832.98,2875.54 L 3813.71,2862.67 L 3810.13,2859.73 L 3801.54,2851.95 L 3636.19,2686.6 L 3633.13,2686.12 L 3620.25,2683.38 L 3596.77,2675.75 L 3587.89,2671.8 L 3585.65,2668.34 L 3572.44,2645.55 L 3565.73,2632.38 L 3557.18,2613.23 L 3552.12,2600.06 L 3549.47,2592.66 L 3551.31,2580.78 L 3553.02,2564.59 L 3553.77,2550.77 L 3553.68,2536.95 L 3553.06,2527.95 L 3552.95,2526.28 L 3552.26,2513.11 L 3552.26,2502.8 L 3552.44,2499.48 L 3547.66,2487.95 L 3538.24,2470.8 L 3520.61,2462.52 L 3502.98,2459.77 L 3457.98,2459.77 L 3455.03,2459.69 L 3450.09,2459.43 L 3444.06,2458.79 L 3439.12,2458.01 L 3438.77,2457.95 L 3412.99,2457.95 L 3299.26,2457.95 L 3297.15,2451 L 3294.88,2427.96 L 3294.88,2387.96 L 3297.15,2364.92 L 3299.26,2357.96 L 3412.99,2357.96 L 3438.77,2357.96 L 3439.12,2357.9 L 3444.06,2357.12 L 3450.08,2356.49 L 3455.02,2356.23 L 3457.98,2356.15 L 3502.98,2356.15 L 3513.72,2355.13 L 3524.47,2352.05 L 3564.27,2352.05 L 3567.45,2352.13 L 3572.08,2352.36 L 3578.54,2353 L 3579.49,2353.14 L 3582.59,2355.6 L 3587.38,2359.8 L 3587.49,2359.9 L 3590.93,2362.99 L 3592.17,2364.02 L 3595.16,2366.67 L 3598.52,2369.88 L 3600.43,2371.8 L 3601.71,2373.15 L 3605.89,2377.12 L 3615.93,2385.69 L 3620.79,2389.42 L 3631.83,2397.01 L 3637.83,2400.68 L 3649.9,2407.23 L 3651.27,2407.96 L 3657.68,2407.96 L 3670.85,2407.96 L 3678.79,2407.96 L 3690.2,2407.96 L 3692.04,2408.96 L 3699.19,2413.33 L 3710.22,2420.92 L 3716.09,2425.42 L 3726.14,2433.99 L 3731.22,2438.81 L 3732.28,2439.94 L 3734.61,2442.28 L 3736.29,2443.88 L 3740.85,2447.86 L 3741.38,2448.29 L 3743.2,2449.79 L 3746.68,2452.76 L 3748.9,2454.59 L 3750.85,2456.14 L 3757.88,2461.16 L 3758.16,2461.34 L 3760.06,2462.6 L 3764.26,2465.45 L 3767.27,2467.57 L 3780.44,2477.13 L 3793.48,2487.74 L 3806.65,2499.6 L 3814.98,2507.5 L 3888.31,2537.87 L 3960.45,2610.01 L 4422.17,2610.01 L 4435.83,2597.72 L 4449.14,2588.04 L 4459.51,2581.31 L 4470.53,2575.69 L 4485.56,2569 L 4509.04,2561.37 L 4525.13,2557.95 L 4549.69,2555.37 L 4566.14,2555.37 L 4590.69,2557.95 L 4606.78,2561.37 L 4618.72,2564.57 L 4630.27,2569 L 4645.3,2575.69 L 4656.31,2581.31 L 4666.68,2588.04 L 4679.99,2597.71 L 4689.6,2605.49 L 4698.34,2614.23 L 4709.35,2626.46 L 4723.85,2646.42 L 4732.08,2660.67 L 4732.9,2662.28 L 4732.9,2686.23 L 4732.9,2703.53 L 4732.9,2725.07 L 4732.9,2741.61 L 4732.9,2761.86 L 4732.9,2778.4 L 4732.9,2799.94 L 4732.9,2817.24 L 4732.9,2841.19 L 4732.08,2842.81 L 4723.85,2857.05 L 4709.35,2877.02 L 4698.34,2889.24 L 4679.99,2905.76 L 4666.69,2915.43 L 4656.31,2922.17 L 4645.29,2927.78 L 4630.26,2934.47 L 4606.78,2942.1 L 4590.69,2945.52 L 4566.14,2948.1 L 4549.69,2948.1 L 4525.13,2945.52 L 4509.04,2942.1 L 4497.1,2938.9 L 4485.56,2934.47 L 4470.53,2927.78 L 4469.6,2927.25 L 4465.73,2923.41 L 4452.85,2910.33 L 4449.16,2906.66 L 4440.96,2898.71 L 4439.92,2897.7 L 4425.65,2883.67 L 4423.63,2882.91 L 4410.89,2878.19 L 4390.74,2871.85 L 4378,2868.55 L 4359.53,2864.75 L 4346.79,2862.79 L 4329.28,2861.01 L 4316.53,2860.36 L 4303.62,2860.2 L 4297.24,2860.36 L 4284.28,2861.18 L 4271.53,2862.48 L 4253.64,2865.23 L 4240.89,2867.85 L 4221.66,2872.84 L 4208.92,2876.84 L 4187.61,2884.75 L 4185.33,2885.73 L 3901.75,2885.73 L 3890.96,2885.47 L 3886.33,2885.24 L 3864.28,2883.07 L 3859.65,2882.38 L 3837.75,2878.01 z " style="fill-opacity:1.000000;fill:rgb(171,178,205);stroke:rgb(0,0,0);stroke-width:2"/></g>
<g fill-rule="evenodd"><path d="M 3576.41,1914.88 L 3583.2,1930.09 L 3588.25,1943.25 L 3595.27,1964.8 L 3598.8,1977.97 L 3603,1997.65 L 3605.09,2010.82 L 3606.4,2020.97 L 3607.24,2029.37 L 3609.05,2042.41 L 3612.38,2061.3 L 3615.27,2074.84 L 3618.41,2087.44 L 3613.79,2095.37 L 3606.72,2106.92 L 3595.39,2123.42 L 3591.32,2128.73 L 3587.4,2134.02 L 3586.04,2135.94 L 3584.68,2137.82 L 3581.01,2142.84 L 3580.41,2155.59 L 3580.27,2158.14 L 3579.26,2174.69 L 3579.1,2177.06 L 3578.26,2187.97 L 3578.01,2192.04 L 3577.9,2194.35 L 3577.72,2201.03 L 3571.33,2215.43 L 3566.51,2227.97 L 3566.27,2228.59 L 3563.8,2234.94 L 3545.21,2248.99 L 3526.61,2257.97 L 3502.98,2257.97 L 3477.19,2257.97 L 3471.33,2258.88 L 3466.4,2259.4 L 3460.45,2259.71 L 3455.51,2259.71 L 3449.57,2259.4 L 3444.63,2258.88 L 3438.77,2257.97 L 3412.99,2257.97 L 3299.26,2257.97 L 3297.15,2251.01 L 3294.88,2227.97 L 3294.88,2187.97 L 3297.15,2164.93 L 3303.18,2145.05 L 3298.17,2136.36 L 3292.55,2125.34 L 3288.11,2113.79 L 3284.05,2101.26 L 3278.92,2077.14 L 3278.44,2072.57 L 3157.78,1951.91 L 3150,1943.32 L 3147.06,1939.74 L 3134.19,1920.47 L 3132.01,1916.39 L 3123.17,1895.07 L 3121.82,1890.64 L 3117.29,1867.83 L 3116.83,1863.22 L 3116.27,1851.69 L 3116.27,1608.01 L 3116.84,1596.48 L 3117.29,1591.87 L 3121.81,1569.11 L 3123.15,1564.68 L 3132.02,1543.28 L 3134.21,1539.19 L 3147.06,1519.97 L 3150,1516.39 L 3157.78,1507.8 L 3255.11,1410.47 L 3254.99,1408.02 L 3255.63,1395.68 L 3257.35,1379.31 L 3262.48,1355.17 L 3267.57,1339.52 L 3272,1327.97 L 3277.62,1316.95 L 3285.84,1302.71 L 3300.35,1282.74 L 3311.36,1270.52 L 3329.7,1254 L 3343.01,1244.33 L 3353.38,1237.59 L 3364.4,1231.98 L 3379.43,1225.28 L 3402.91,1217.66 L 3419.01,1214.24 L 3443.56,1211.66 L 3460.01,1211.66 L 3484.56,1214.24 L 3500.65,1217.66 L 3512.59,1220.86 L 3524.14,1225.29 L 3539.17,1231.98 L 3550.18,1237.59 L 3560.55,1244.32 L 3573.86,1253.99 L 3583.47,1261.78 L 3592.21,1270.52 L 3603.22,1282.74 L 3617.72,1302.71 L 3625.95,1316.95 L 3631.56,1327.97 L 3636,1339.52 L 3641.08,1355.17 L 3646.21,1379.31 L 3647.93,1395.68 L 3648.58,1408.02 L 3647.93,1420.37 L 3646.21,1436.73 L 3641.08,1460.88 L 3636,1476.52 L 3631.56,1488.07 L 3625.95,1499.09 L 3624.27,1502 L 3605.89,1506.51 L 3582.43,1513.21 L 3581.27,1513.54 L 3562.51,1518.78 L 3559.36,1519.63 L 3545.64,1523.21 L 3529.2,1528.56 L 3516.66,1533.52 L 3501.79,1540.58 L 3491.07,1546.54 L 3489.78,1547.25 L 3474.71,1555.44 L 3460.01,1562.43 L 3453.17,1565.26 L 3446.96,1567.98 L 3431.95,1586.77 L 3419.42,1608.04 L 3409.36,1631.79 L 3401.78,1658.01 L 3397.19,1665.67 L 3395.32,1696.02 L 3397.49,1726.37 L 3399.72,1737.22 L 3399.72,1793 L 3478.57,1871.85 L 3489.12,1873.52 L 3502,1876.26 L 3525.48,1883.89 L 3537.51,1889.24 L 3558.89,1901.59 L 3569.54,1909.32 L 3576.41,1914.88 z " style="fill-opacity:1.000000;fill:rgb(198,155,180);stroke:rgb(0,0,0);stroke-width:2"/></g>
<g fill-rule="evenodd"><path d="M 5386.84,916.32 L 5390.99,920.04 L 5417.9,938.974 L 5444.81,952.718 L 5484.85,969.304 L 5500.46,974.674 L 5516.06,977.852 L 5531.67,978.84 L 5547.27,977.636 L 5567.51,974.654 L 5583.77,971.13 L 5600.03,965.345 L 5616.29,957.299 L 5632.55,946.996 L 5655.24,931.045 L 5667.46,911.776 L 5678.97,891.385 L 5682.83,882.626 L 5807.61,757.844 L 5816.17,750.08 L 5819.75,747.143 L 5839.05,734.251 L 5843.13,732.07 L 5864.46,723.23 L 5868.9,721.884 L 5891.64,717.356 L 5896.25,716.902 L 5907.83,716.333 L 5939.78,716.333 L 5946.75,710.345 L 5957.87,702.609 L 5978.77,691.008 L 5991.22,685.668 L 6014.01,678.519 L 6027.27,675.793 L 6045.05,673.527 L 6051.82,673.183 L 6069.78,673.637 L 6083.25,675.009 L 6106.63,679.815 L 6119.55,683.867 L 6129.7,688.22 L 6137.66,700.254 L 6145.63,713.795 L 6155.91,733.401 L 6162.13,746.945 L 6168.8,763.584 L 6173.42,777.125 L 6177.62,791.758 L 6180.76,805.297 L 6183.16,818.602 L 6184.88,832.145 L 6185.85,844.784 L 6186.19,858.322 L 6185.87,870.829 L 6184.84,884.37 L 6183.19,897.263 L 6180.77,910.804 L 6177.53,924.703 L 6173.66,938.244 L 6168.34,953.767 L 6162.93,967.311 L 6154.64,985.303 L 6147.56,998.845 L 6134.84,1020.39 L 6129.7,1028.18 L 6124.42,1030.44 L 6101.62,1037.59 L 6088.36,1040.32 L 6070.58,1042.59 L 6063.81,1042.93 L 6045.85,1042.48 L 6032.38,1041.1 L 6009,1036.3 L 5996.08,1032.25 L 5974.11,1022.82 L 5962.27,1016.25 L 5955.07,1011.24 L 5808.05,1158.26 L 5799.46,1166.04 L 5795.88,1168.98 L 5776.65,1181.83 L 5772.57,1184.01 L 5751.16,1192.88 L 5746.73,1194.23 L 5723.98,1198.75 L 5719.37,1199.2 L 5707.84,1199.77 L 5257.87,1199.77 L 5246.34,1199.2 L 5241.73,1198.75 L 5218.92,1194.21 L 5214.49,1192.87 L 5193.17,1184.03 L 5189.09,1181.85 L 5169.82,1168.98 L 5166.24,1166.04 L 5157.65,1158.26 L 5057.88,1058.48 L 4958.1,1158.26 L 4949.52,1166.04 L 4945.94,1168.98 L 4926.71,1181.83 L 4922.62,1184.01 L 4901.22,1192.88 L 4896.79,1194.23 L 4874.03,1198.75 L 4869.42,1199.2 L 4857.89,1199.77 L 4657.91,1199.77 L 4646.38,1199.2 L 4641.77,1198.75 L 4618.96,1194.21 L 4614.53,1192.87 L 4593.21,1184.03 L 4589.13,1181.85 L 4569.86,1168.98 L 4566.68,1166.37 L 4566.3,1166.02 L 4557.91,1158.04 L 4457.92,1058.04 L 4449.93,1049.66 L 4449.58,1049.27 L 4446.98,1046.1 L 4434.1,1026.83 L 4431.92,1022.74 L 4428.79,1015.19 L 4431.29,1008.69 L 4435.83,997.553 L 4438,992.055 L 4441.5,982.872 L 4446.28,971.332 L 4446.68,970.444 L 4448.42,966.471 L 4451.98,958.049 L 4454.23,952.496 L 4458.63,941.032 L 4458.63,940.988 L 4458.61,938.156 L 4458.39,922.701 L 4458.37,920.596 L 4458.37,909.416 L 4458.36,907.326 L 4458.19,896.681 L 4458.17,894.937 L 4458.17,884.586 L 4458.16,882.852 L 4458.02,874.357 L 4458,872.765 L 4458,862.795 L 4457.99,861.205 L 4457.85,853.334 L 4457.84,851.744 L 4457.84,841.775 L 4457.82,840.183 L 4457.68,831.687 L 4457.66,829.953 L 4457.66,819.602 L 4457.65,817.858 L 4457.48,807.213 L 4457.46,805.123 L 4457.46,793.944 L 4457.45,791.838 L 4457.23,776.383 L 4457.21,773.551 L 4457.21,760.932 L 4457.19,758.068 L 4456.86,731.64 L 4456.84,727.14 L 4456.83,716.333 L 4461,713.307 L 4482.37,700.966 L 4492.88,696.288 L 4504.42,691.856 L 4516.37,688.656 L 4527.61,686.266 L 4552.17,683.685 L 4563.66,683.685 L 4588.21,686.266 L 4599.46,688.656 L 4611.4,691.856 L 4622.95,696.292 L 4633.46,700.97 L 4654.81,713.301 L 4664.12,720.058 L 4673.74,727.844 L 4682.48,736.593 L 4690.18,745.137 L 4704.68,765.099 L 4710.43,775.057 L 4718.22,792.554 L 4717.24,798.663 L 4715.54,811.307 L 4714.95,816.688 L 4706.99,835.033 L 4702.19,847.096 L 4695.64,865.179 L 4692.02,876.358 L 4687.42,892.523 L 4684.67,903.717 L 4683.05,911.478 L 4680.83,920.816 L 4679.52,925.713 L 4689.15,948.978 L 4696.63,964.549 L 4712.99,976.026 L 4729.36,984.37 L 4747.03,991.691 L 4762.14,996.385 L 4777.25,997.949 L 4819.69,997.949 L 4832.53,996.819 L 4833.95,995.897 L 4850.81,984.63 L 4860.72,976.516 L 4874.78,962.451 L 4882.9,952.544 L 4894.16,935.683 L 4901.73,921.426 L 4919.31,878.98 L 4925.85,859.033 L 4924.55,850.656 L 4921.82,837.127 L 4917.78,820.942 L 4917.39,819.34 L 4913.78,804.325 L 4912.96,800.763 L 4908.17,779.209 L 4904.05,763.01 L 4904.65,761.972 L 4919.15,742.015 L 4927.96,732.228 L 4936.7,723.486 L 4946.31,715.705 L 4956.96,707.965 L 4967.33,701.229 L 4978.36,695.612 L 4990.39,690.256 L 5013.86,682.631 L 5026.74,679.893 L 5038.95,677.959 L 5051.3,677.311 L 5064.46,677.311 L 5076.81,677.959 L 5089.02,679.893 L 5101.9,682.631 L 5125.38,690.26 L 5137.41,695.616 L 5158.79,707.959 L 5169.44,715.699 L 5179.05,723.48 L 5187.8,732.228 L 5196.61,742.015 L 5211.11,761.972 L 5217.69,773.375 L 5223.31,784.4 L 5227.75,795.953 L 5231.82,808.477 L 5236.94,832.603 L 5237.42,837.175 L 5316.57,916.32 L 5386.84,916.32 z " style="fill-opacity:1.000000;fill:rgb(84,17,14);stroke:rgb(0,0,0);stroke-width:2"/></g>
<g fill-rule="evenodd"><path d="M 5085.63,236.207 L 5125.69,219.612 L 5135.44,215.848 L 5140.07,214.192 L 5158.39,208.619 L 5163.02,207.459 L 5180.15,204.041 L 5184.78,203.353 L 5201.36,201.715 L 5206,201.487 L 5214.17,201.287 L 5757.84,201.287 L 5766.01,201.487 L 5770.64,201.715 L 5787.23,203.355 L 5791.86,204.043 L 5808.98,207.459 L 5813.61,208.619 L 5831.91,214.182 L 5836.54,215.84 L 5846.31,219.612 L 5886.37,236.203 L 5936.91,286.742 L 5945.7,282.046 L 5967.85,275.325 L 5990.89,273.055 L 6124.74,273.055 L 6129.49,273.521 L 6151.66,298.859 L 6162.24,314.242 L 6170.89,329.625 L 6177.62,345.008 L 6182.43,360.391 L 6185.31,375.774 L 6186.27,391.157 L 6186.27,525.005 L 6185.31,540.388 L 6182.43,555.771 L 6177.62,571.154 L 6170.89,586.537 L 6162.24,601.92 L 6151.66,617.303 L 6129.49,642.639 L 6124.74,643.107 L 5990.89,643.107 L 5967.85,640.839 L 5945.7,634.118 L 5925.28,623.204 L 5907.38,608.517 L 5899.92,599.42 L 5896.3,599.242 L 5891.69,598.79 L 5868.88,594.252 L 5864.45,592.906 L 5843.13,584.071 L 5839.05,581.889 L 5819.78,569.018 L 5816.2,566.08 L 5807.61,558.297 L 5699.13,449.813 L 5272.87,449.813 L 5243.72,478.96 L 5243.24,483.535 L 5238.11,507.662 L 5234.05,520.185 L 5229.61,531.738 L 5223.99,542.764 L 5217.41,554.167 L 5202.91,574.124 L 5194.09,583.911 L 5185.35,592.654 L 5175.75,600.434 L 5165.1,608.173 L 5154.72,614.911 L 5143.7,620.527 L 5131.67,625.882 L 5108.2,633.508 L 5095.32,636.246 L 5083.11,638.179 L 5070.76,638.825 L 5057.6,638.825 L 5045.25,638.179 L 5033.04,636.246 L 5020.16,633.508 L 4996.68,625.878 L 4984.65,620.523 L 4963.27,608.179 L 4952.62,600.44 L 4951.83,599.804 L 4856.82,599.804 L 4854.81,601.258 L 4833.44,613.599 L 4822.93,618.277 L 4811.39,622.708 L 4799.44,625.908 L 4788.2,628.298 L 4763.65,630.878 L 4752.15,630.878 L 4727.6,628.298 L 4716.35,625.908 L 4704.41,622.706 L 4692.86,618.273 L 4682.35,613.595 L 4661,601.264 L 4651.69,594.506 L 4642.08,586.721 L 4633.33,577.971 L 4625.63,569.428 L 4611.13,549.465 L 4605.38,539.508 L 4595.34,516.953 L 4591.78,506.018 L 4588.58,494.077 L 4586.65,481.863 L 4585.45,470.43 L 4584.8,458.083 L 4585.45,445.734 L 4586.65,434.3 L 4588.58,422.089 L 4591.78,410.146 L 4595.34,399.211 L 4605.38,376.656 L 4611.13,366.699 L 4625.63,346.736 L 4633.33,338.193 L 4642.07,329.447 L 4651.68,321.664 L 4660.98,314.906 L 4682.36,302.565 L 4692.87,297.887 L 4704.41,293.455 L 4716.35,290.256 L 4727.6,287.866 L 4752.15,285.284 L 4763.65,285.284 L 4788.2,287.866 L 4799.44,290.256 L 4811.39,293.455 L 4822.94,297.891 L 4833.44,302.569 L 4854.8,314.9 L 4856.81,316.358 L 4951.83,316.358 L 4952.61,315.73 L 4963.26,307.99 L 4973.63,301.255 L 4984.65,295.637 L 4996.68,290.282 L 5020.16,282.656 L 5033.04,279.918 L 5043.58,278.248 L 5085.63,236.207 z " style="fill-opacity:1.000000;fill:rgb(130,116,65);stroke:rgb(0,0,0);stroke-width:2"/></g>
<g fill-rule="evenodd"><path d="M 0.0920311,118.103 L 2.35989,95.062 L 9.08146,72.9074 L 19.9948,52.4887 L 34.6818,34.5918 L 52.5787,19.9047 L 72.9974,8.99143 L 95.152,2.26986 L 118.195,9.09495e-13 L 6247.81,9.09495e-13 L 6270.85,2.26986 L 6293,8.99143 L 6313.42,19.9047 L 6331.32,34.5918 L 6346,52.4887 L 6356.92,72.9074 L 6363.64,95.062 L 6365.91,118.103 L 6365.91,3347.9 L 6363.64,3370.94 L 6356.92,3393.09 L 6346,3413.51 L 6331.32,3431.41 L 6313.42,3446.1 L 6293,3457.01 L 6270.85,3463.73 L 6247.81,3466 L 118.195,3466 L 95.152,3463.73 L 72.9974,3457.01 L 52.5787,3446.1 L 34.6818,3431.41 L 19.9948,3413.51 L 9.08146,3393.09 L 2.35989,3370.94 L 0.0920311,3347.9 L 0.0920311,118.103 z " style="fill-opacity:1.000000;fill:rgb(33,61,220);stroke:rgb(0,0,0);stroke-width:2"/></g>
</svg>
