<?xml version="1.0" standalone="no"?>
<!DOCTYPE svg PUBLIC "-//W3C//DTD SVG 1.1//EN"
"http://www.w3.org/Graphics/SVG/1.1/DTD/svg11.dtd">
<svg width="6130" height="3230" viewBox="0 0 6130 3230" version="1.1"
xmlns="http://www.w3.org/2000/svg"
xmlns:xlink="http://www.w3.org/1999/xlink">
<g fill-rule="evenodd"><path d="M 0,0 L 6130,0 L 6130,3230 L 0,3230 L 0,0M 210,1626.49 L 216.392,1628.5 L 228.232,1635.07 L 238.508,1643.89 L 246.798,1654.6 L 252.76,1666.76 L 253.6,1670 L 287.918,1670 L 292.464,1661.39 L 281.558,1635.06 L 253.348,1604.1 L 218.35,1587.66 L 210,1592.05 L 210,1626.49M 126.4,2510 L 92.078,2510 L 87.532,2518.61 L 98.438,2544.95 L 126.648,2575.9 L 161.648,2592.34 L 170,2587.96 L 170,2553.51 L 163.608,2551.5 L 151.768,2544.93 L 141.492,2536.11 L 133.202,2525.4 L 127.24,2513.24 L 126.4,2510M 733.784,1462.07 L 707.808,1436.09 L 698.978,1438.75 L 686.146,1474.44 L 688.11,1515.62 L 698.692,1541.16 L 707.806,1543.91 L 733.788,1517.93 L 732.454,1515.62 L 728.386,1503.1 L 727.008,1490 L 728.386,1476.9 L 732.454,1464.38 L 733.784,1462.07M 567.876,1233.84 L 593.906,1207.81 L 591.248,1198.98 L 555.556,1186.15 L 514.384,1188.11 L 488.836,1198.7 L 486.092,1207.81 L 512.12,1233.84 L 520.536,1230.09 L 533.416,1227.35 L 546.584,1227.35 L 559.464,1230.09 L 567.876,1233.84M 567.876,1346.16 L 559.464,1349.91 L 546.584,1352.65 L 533.416,1352.65 L 520.536,1349.91 L 512.124,1346.16 L 486.09,1372.19 L 488.748,1381.02 L 524.44,1393.85 L 565.612,1391.89 L 591.16,1381.31 L 593.904,1372.19 L 567.876,1346.16M 483.788,1317.93 L 482.454,1315.62 L 478.386,1303.1 L 477.008,1290 L 478.386,1276.9 L 482.454,1264.38 L 483.784,1262.07 L 457.808,1236.09 L 448.978,1238.75 L 436.146,1274.44 L 438.11,1315.62 L 448.692,1341.16 L 457.806,1343.91 L 483.788,1317.93M 762.12,583.84 L 770.536,580.092 L 783.416,577.354 L 796.584,577.354 L 809.464,580.092 L 817.876,583.838 L 843.906,557.81 L 841.248,548.982 L 805.556,536.15 L 764.384,538.114 L 738.836,548.696 L 736.092,557.808 L 762.12,583.84M 596.212,412.072 L 597.546,414.38 L 601.614,426.904 L 602.992,440 L 601.614,453.096 L 597.546,465.62 L 596.212,467.928 L 622.19,493.91 L 631.018,491.252 L 643.85,455.56 L 641.886,414.388 L 631.304,388.84 L 622.192,386.096 L 596.212,412.072M 567.876,383.838 L 593.906,357.81 L 591.248,348.982 L 555.556,336.15 L 514.384,338.114 L 488.836,348.696 L 486.092,357.808 L 512.12,383.84 L 520.536,380.092 L 533.416,377.354 L 546.584,377.354 L 559.464,380.092 L 567.876,383.838M 170,526.136 L 170,492.048 L 161.65,487.664 L 126.65,504.098 L 98.44,535.054 L 87.53,561.388 L 92.076,570 L 126.404,570 L 129.912,560.526 L 137.076,549.034 L 146.406,539.218 L 157.52,531.482 L 170,526.136M 253.6,570 L 287.918,570 L 292.464,561.39 L 281.558,535.056 L 253.348,504.1 L 218.35,487.662 L 210,492.046 L 210,526.49 L 216.392,528.496 L 228.232,535.068 L 238.508,543.89 L 246.798,554.598 L 252.76,566.756 L 253.6,570M 567.876,496.162 L 559.464,499.908 L 546.584,502.646 L 533.416,502.646 L 520.536,499.908 L 512.124,496.164 L 486.09,522.192 L 488.748,531.022 L 524.44,543.854 L 565.612,541.89 L 591.16,531.308 L 593.904,522.194 L 567.876,496.162M 983.784,412.072 L 957.808,386.094 L 948.978,388.752 L 936.146,424.444 L 938.11,465.616 L 948.692,491.164 L 957.806,493.908 L 983.786,467.93 L 982.452,465.62 L 978.384,453.096 L 977.006,440 L 978.384,426.904 L 982.452,414.38 L 983.784,412.072M 1067.87,383.838 L 1093.91,357.81 L 1091.25,348.982 L 1055.56,336.15 L 1014.38,338.114 L 988.836,348.696 L 986.092,357.808 L 1012.12,383.838 L 1020.53,380.092 L 1033.41,377.354 L 1046.58,377.354 L 1059.46,380.092 L 1067.87,383.838M 846.212,612.072 L 847.546,614.38 L 851.614,626.904 L 852.992,640 L 851.614,653.096 L 847.546,665.62 L 846.212,667.928 L 872.19,693.91 L 881.018,691.252 L 893.85,655.56 L 891.886,614.388 L 881.304,588.84 L 872.192,586.096 L 846.212,612.072M 1012.12,496.164 L 986.09,522.192 L 988.748,531.022 L 1024.44,543.854 L 1065.61,541.89 L 1091.16,531.308 L 1093.9,522.194 L 1067.88,496.162 L 1059.46,499.908 L 1046.58,502.646 L 1033.41,502.646 L 1020.53,499.908 L 1012.12,496.164M 1346.21,612.072 L 1347.55,614.38 L 1351.61,626.904 L 1352.99,640 L 1351.61,653.096 L 1347.55,665.62 L 1346.21,667.928 L 1372.19,693.91 L 1381.02,691.252 L 1393.85,655.56 L 1391.89,614.388 L 1381.3,588.84 L 1372.19,586.096 L 1346.21,612.072M 1233.78,612.074 L 1207.81,586.094 L 1198.98,588.752 L 1186.15,624.444 L 1188.11,665.616 L 1198.69,691.164 L 1207.81,693.908 L 1233.79,667.928 L 1232.45,665.62 L 1228.39,653.096 L 1227.01,640 L 1228.39,626.904 L 1232.45,614.38 L 1233.78,612.074M 1317.88,583.838 L 1343.91,557.81 L 1341.25,548.982 L 1305.56,536.15 L 1264.38,538.114 L 1238.84,548.696 L 1236.09,557.808 L 1262.12,583.84 L 1270.54,580.092 L 1283.42,577.354 L 1296.58,577.354 L 1309.46,580.092 L 1317.88,583.838M 3483.79,367.928 L 3482.45,365.62 L 3478.39,353.096 L 3477.01,340 L 3478.39,326.904 L 3482.45,314.38 L 3483.78,312.074 L 3457.81,286.094 L 3448.98,288.752 L 3436.15,324.444 L 3438.11,365.616 L 3448.69,391.164 L 3457.81,393.908 L 3483.79,367.928M 3567.88,283.838 L 3593.91,257.81 L 3591.25,248.982 L 3555.56,236.15 L 3514.38,238.114 L 3488.84,248.696 L 3486.09,257.808 L 3512.12,283.84 L 3520.54,280.092 L 3533.42,277.354 L 3546.58,277.354 L 3559.46,280.092 L 3567.88,283.838M 5305.82,796.164 L 5279.79,822.192 L 5282.45,831.022 L 5318.14,843.852 L 5359.31,841.89 L 5384.86,831.308 L 5387.61,822.194 L 5361.58,796.162 L 5353.16,799.908 L 5340.28,802.646 L 5327.12,802.646 L 5314.24,799.908 L 5305.82,796.164M 5367.88,396.162 L 5359.46,399.908 L 5346.58,402.646 L 5333.42,402.646 L 5320.54,399.908 L 5312.12,396.164 L 5286.09,422.192 L 5288.75,431.022 L 5324.44,443.854 L 5365.61,441.89 L 5391.16,431.308 L 5393.9,422.194 L 5367.88,396.162M 5361.58,683.838 L 5387.61,657.812 L 5384.95,648.982 L 5349.26,636.15 L 5308.08,638.114 L 5282.54,648.696 L 5279.79,657.81 L 5305.82,683.84 L 5314.24,680.092 L 5327.12,677.354 L 5340.28,677.354 L 5353.16,680.092 L 5361.58,683.838M 4656.85,683.426 L 4691.85,683.426 L 4691.85,718.426 L 4725.21,718.426 L 4731.85,711.784 L 4731.85,675.474 L 4725.76,660.77 L 4714.51,649.518 L 4699.8,643.426 L 4663.49,643.426 L 4656.85,650.068 L 4656.85,683.426M 5277.49,712.074 L 5251.51,686.094 L 5242.68,688.752 L 5229.85,724.444 L 5231.81,765.616 L 5242.39,791.164 L 5251.51,793.908 L 5277.49,767.93 L 5276.15,765.62 L 5272.09,753.096 L 5270.71,740 L 5272.09,726.904 L 5276.15,714.38 L 5277.49,712.074M 5877.43,563.622 L 5840.17,563.622 L 5837.53,568.614 L 5848.44,594.948 L 5876.65,625.904 L 5887.75,631.322 L 5890.35,634.124 L 5891.71,637.694 L 5891.63,641.512 L 5890.12,645.022 L 5888.89,646.498 L 5862.24,664.53 L 5856.04,673.45 L 5852.8,675.618 L 5848.97,676.378 L 5790.99,676.378 L 5765.73,681.402 L 5744.31,695.71 L 5566.57,873.45 L 5563.33,875.618 L 5561.45,876.186 L 5170.49,876.378 L 5166.67,875.618 L 5163.42,873.45 L 5044.67,754.424 L 5043.74,752.692 L 5042.98,748.86 L 5043.01,719.612 L 5027.36,681.738 L 4998.42,652.74 L 4960.57,637.028 L 4919.61,636.99 L 4881.73,652.64 L 4852.74,681.584 L 4837.02,719.426 L 4837,748.894 L 4836.81,750.844 L 4835.31,754.444 L 4715.06,874.694 L 4713.33,875.618 L 4709.5,876.378 L 4568.54,876.186 L 4566.67,875.618 L 4563.42,873.45 L 4508.45,818.474 L 4507.2,816.958 L 4505.71,813.352 L 4505.71,809.448 L 4507.21,805.842 L 4508.45,804.326 L 4520.49,792.312 L 4522.61,787.194 L 4524.78,783.954 L 4526.3,782.71 L 4529.9,781.22 L 4533.8,781.222 L 4537.41,782.716 L 4538.92,783.96 L 4541.09,787.204 L 4541.85,791.028 L 4541.85,801.384 L 4547.94,816.084 L 4559.19,827.336 L 4573.89,833.426 L 4610.21,833.426 L 4616.85,826.784 L 4616.85,793.426 L 4581.85,793.426 L 4581.85,683.426 L 4616.85,683.426 L 4616.85,650.07 L 4610.21,643.426 L 4573.9,643.426 L 4559.19,649.516 L 4547.94,660.768 L 4541.85,675.468 L 4541.66,687.716 L 4540.16,691.322 L 4537.4,694.082 L 4535.67,695.006 L 4531.84,695.764 L 4528.02,695.002 L 4524.77,692.832 L 4522.61,689.584 L 4520.58,684.684 L 4493.88,657.938 L 4458.98,643.444 L 4421.19,643.408 L 4386.26,657.844 L 4359.51,684.542 L 4347.97,711.82 L 4345.21,714.576 L 4343.48,715.498 L 4339.66,716.254 L 4335.83,715.49 L 4332.59,713.32 L 4331.35,711.804 L 4320.58,686.258 L 4293.88,659.512 L 4258.98,645.02 L 4221.19,644.982 L 4186.26,659.418 L 4170.68,674.698 L 4167.08,676.188 L 4165.13,676.378 L 4024.21,676.186 L 4022.33,675.616 L 4019.08,673.444 L 3998.42,652.74 L 3960.57,637.028 L 3919.61,636.99 L 3881.73,652.64 L 3870.69,663.668 L 3869.17,664.91 L 3865.56,666.4 L 3861.66,666.398 L 3858.06,664.904 L 3855.3,662.144 L 3853.81,658.542 L 3853.62,520.496 L 3854.38,516.67 L 3855.31,514.942 L 3925.57,444.676 L 3927.3,443.75 L 3931.13,442.992 L 3954.09,443.012 L 3991.96,427.364 L 4012.82,406.548 L 4016.06,404.384 L 4019.88,403.624 L 4167.08,403.818 L 4168.96,404.388 L 4172.21,406.56 L 4186.11,420.492 L 4221.02,434.984 L 4258.81,435.022 L 4293.74,420.586 L 4320.49,393.886 L 4325.76,381.184 L 4327.93,377.944 L 4331.18,375.778 L 4335,375.02 L 4336.95,375.212 L 4340.56,376.706 L 4342.07,377.95 L 4344.24,381.194 L 4345,385.018 L 4345,402.958 L 4351.09,417.66 L 4362.34,428.91 L 4377.04,435 L 4413.36,435 L 4420,428.358 L 4420,395 L 4385,395 L 4385,285 L 4420,285 L 4420,251.644 L 4413.36,245 L 4377.05,245 L 4362.34,251.092 L 4351.09,262.342 L 4345,277.044 L 4345,294.96 L 4344.24,298.788 L 4342.07,302.034 L 4340.55,303.278 L 4336.95,304.77 L 4334.99,304.96 L 4331.17,304.198 L 4327.92,302.028 L 4325.76,298.78 L 4320.58,286.258 L 4293.88,259.512 L 4258.98,245.02 L 4221.19,244.982 L 4186.26,259.418 L 4172.19,273.456 L 4168.95,275.62 L 4167.08,276.188 L 4017.91,276.186 L 4016.03,275.616 L 4012.78,273.444 L 3992.12,252.74 L 3954.27,237.028 L 3924.81,237.002 L 3922.86,236.81 L 3919.26,235.316 L 3779.38,95.712 L 3757.97,81.404 L 3732.71,76.378 L 1690.99,76.378 L 1665.73,81.402 L 1644.31,95.71 L 1545.71,194.316 L 1531.4,215.732 L 1526.38,240.976 L 1526.18,389.798 L 1525.61,391.676 L 1523.44,394.922 L 1489.43,428.876 L 1471.32,472.488 L 1471.28,519.704 L 1489.31,563.352 L 1522.67,596.772 L 1566.28,614.88 L 1613.5,614.924 L 1657.15,596.89 L 1690.57,563.528 L 1708.68,519.916 L 1708.72,472.7 L 1690.69,429.054 L 1656.54,394.85 L 1655.3,393.336 L 1653.81,389.734 L 1653.62,270.496 L 1654.38,266.67 L 1656.55,263.426 L 1713.42,206.554 L 1714.94,205.31 L 1718.54,203.818 L 3703.2,203.624 L 3707.03,204.386 L 3710.27,206.554 L 3827.79,324.064 L 3829.96,327.312 L 3830.71,331.144 L 3830.69,355.198 L 3830.5,357.148 L 3829.01,360.748 L 3745.71,444.316 L 3731.4,465.732 L 3726.38,490.976 L 3726.38,510.182 L 3728.22,512.232 L 3733.16,520.786 L 3736.21,530.178 L 3737.24,540 L 3736.21,549.822 L 3733.16,559.214 L 3728.22,567.768 L 3726.38,569.816 L 3726.38,945.224 L 3731.4,970.47 L 3745.71,991.886 L 4013.44,1259.89 L 4014.36,1261.62 L 4015.12,1265.45 L 4015.08,1313.5 L 4033.11,1357.15 L 4066.47,1390.57 L 4110.08,1408.68 L 4157.3,1408.72 L 4200.95,1390.69 L 4234.37,1357.33 L 4252.48,1313.72 L 4252.52,1266.5 L 4234.49,1222.85 L 4201.12,1189.43 L 4157.51,1171.32 L 4109.18,1171.28 L 4107.23,1171.09 L 4103.64,1169.59 L 3856.55,922.778 L 3854.38,919.534 L 3853.62,915.706 L 3853.62,823.424 L 3854.38,819.596 L 3856.55,816.352 L 3858.07,815.108 L 3861.67,813.616 L 3865.58,813.618 L 3867.45,814.188 L 3870.7,816.36 L 3881.58,827.264 L 3919.42,842.976 L 3948.89,843.002 L 3950.84,843.194 L 3954.44,844.688 L 4511.29,1401.27 L 4513.36,1404.29 L 4514.2,1407.87 L 4513.7,1411.5 L 4412.64,1714.23 L 4410.53,1716.91 L 4407.65,1718.74 L 4372.85,1733.11 L 4339.43,1766.48 L 4321.32,1810.09 L 4321.28,1857.3 L 4339.31,1900.95 L 4372.67,1934.37 L 4416.28,1952.48 L 4463.5,1952.52 L 4507.15,1934.49 L 4540.57,1901.13 L 4558.68,1857.52 L 4558.72,1810.3 L 4540.69,1766.65 L 4536.62,1762.58 L 4534.55,1759.55 L 4533.71,1755.99 L 4533.79,1754.15 L 4589.61,1586.15 L 4591.6,1582.7 L 4594.77,1580.3 L 4596.65,1579.62 L 4598.63,1579.33 L 4600.63,1579.44 L 4602.57,1579.94 L 4604.36,1580.82 L 4605.95,1582.03 L 4607.26,1583.55 L 4608.25,1585.29 L 4687.05,1764.14 L 4687.67,1766.06 L 4687.9,1768.06 L 4687.71,1770.07 L 4687.13,1772 L 4671.32,1810.09 L 4671.28,1857.3 L 4689.31,1900.95 L 4722.67,1934.37 L 4766.28,1952.48 L 4813.5,1952.52 L 4857.15,1934.49 L 4890.57,1901.13 L 4908.68,1857.52 L 4908.72,1810.3 L 4890.69,1766.65 L 4857.32,1733.23 L 4813.71,1715.12 L 4809.1,1714.93 L 4807.26,1714.39 L 4804.05,1712.29 L 4802.81,1710.83 L 4651.72,1368.35 L 4637.75,1347.95 L 4110.67,820.696 L 4108.5,817.452 L 4107.74,813.624 L 4108.5,809.798 L 4110.67,806.554 L 4113.91,804.386 L 4117.74,803.624 L 4167.08,803.818 L 4168.96,804.388 L 4172.21,806.56 L 4186.11,820.492 L 4221.02,834.984 L 4258.81,835.022 L 4293.74,820.586 L 4320.49,793.886 L 4331.1,768.338 L 4333.27,765.096 L 4334.78,763.854 L 4338.39,762.364 L 4342.29,762.366 L 4344.17,762.938 L 4347.41,765.108 L 4349.57,768.354 L 4359.41,792.17 L 4373.45,806.234 L 4375.62,809.476 L 4376.38,813.298 L 4376.38,839.024 L 4381.4,864.27 L 4395.71,885.686 L 4494.31,984.292 L 4515.73,998.6 L 4540.97,1003.62 L 4739.02,1003.62 L 4764.27,998.602 L 4785.68,984.294 L 4924.06,845.916 L 4927.31,843.748 L 4931.14,842.988 L 4950.84,843.194 L 4954.44,844.688 L 4955.95,845.93 L 5094.31,984.292 L 5115.73,998.6 L 5140.97,1003.62 L 5589.02,1003.62 L 5614.27,998.602 L 5635.68,984.294 L 5813.42,806.554 L 5816.67,804.386 L 5820.49,803.624 L 5848.97,803.624 L 5852.8,804.386 L 5856.04,806.554 L 5862.23,815.472 L 5896.86,838.612 L 5938.68,846.93 L 5941.31,846.93 L 5983.13,838.614 L 6017.76,815.474 L 6040.9,780.846 L 6049.02,740.002 L 6040.9,699.16 L 6017.76,664.532 L 5991.1,646.496 L 5988.95,643.34 L 5988.15,639.606 L 5988.79,635.844 L 5990.81,632.598 L 5993.89,630.344 L 6003.35,625.906 L 6031.56,594.95 L 6042.47,568.616 L 6037.92,560 L 6003.6,560 L 6000.09,569.474 L 5992.92,580.966 L 5983.59,590.782 L 5972.48,598.518 L 5960.03,603.858 L 5946.77,606.584 L 5940,606.928 L 5926.53,605.556 L 5913.61,601.504 L 5901.77,594.932 L 5891.49,586.11 L 5883.2,575.402 L 5877.43,563.622M 5840.16,516.378 L 5877.74,516.378 L 5879.91,510.526 L 5887.08,499.034 L 5896.41,489.218 L 5907.52,481.482 L 5919.97,476.142 L 5933.23,473.416 L 5940,473.072 L 5953.47,474.444 L 5966.39,478.496 L 5978.23,485.068 L 5988.51,493.89 L 5996.8,504.598 L 6002.76,516.756 L 6003.6,520 L 6037.92,520 L 6042.46,511.39 L 6031.56,485.056 L 6010.99,462.49 L 6009,459.21 L 6008.39,455.422 L 6009.25,451.682 L 6011.46,448.542 L 6012.97,447.348 L 6016.54,445.928 L 6021.68,444.96 L 6035.36,436.16 L 6044.49,422.794 L 6047.91,405.924 L 6047.91,274.008 L 6044.96,258.316 L 6036.16,244.644 L 6022.79,235.508 L 6005.92,232.092 L 5874,232.092 L 5858.31,235.044 L 5844.64,243.844 L 5835.5,257.21 L 5832.67,270.234 L 5830.5,273.464 L 5827.26,275.622 L 5825.39,276.188 L 5820.49,276.378 L 5816.67,275.618 L 5813.42,273.45 L 5685.68,145.712 L 5664.27,131.404 L 5639.01,126.378 L 5097.28,126.378 L 5072.03,131.402 L 5050.61,145.71 L 4960.72,235.334 L 4957.11,236.826 L 4955.16,237.016 L 4925.91,236.992 L 4888.03,252.64 L 4867.18,273.456 L 4863.94,275.62 L 4862.06,276.188 L 4712.91,276.186 L 4711.04,275.616 L 4707.79,273.444 L 4693.88,259.512 L 4658.98,245.02 L 4621.19,244.982 L 4586.26,259.418 L 4559.51,286.118 L 4554.23,298.82 L 4552.06,302.062 L 4548.82,304.226 L 4544.99,304.984 L 4543.04,304.792 L 4539.44,303.298 L 4537.93,302.054 L 4535.76,298.81 L 4535,294.984 L 4535,277.05 L 4528.91,262.344 L 4517.66,251.094 L 4502.95,245 L 4466.64,245 L 4460,251.642 L 4460,285 L 4495,285 L 4495,395 L 4460,395 L 4460,428.36 L 4466.64,435 L 4502.95,435 L 4517.66,428.912 L 4528.91,417.662 L 4535,402.956 L 4535,385.042 L 4535.76,381.214 L 4537.93,377.97 L 4539.45,376.726 L 4543.05,375.234 L 4545,375.044 L 4548.83,375.806 L 4552.08,377.978 L 4554.24,381.224 L 4559.41,393.744 L 4586.11,420.492 L 4621.02,434.984 L 4658.81,435.022 L 4693.74,420.586 L 4707.8,406.548 L 4711.05,404.384 L 4712.92,403.816 L 4860.14,403.624 L 4863.97,404.388 L 4867.21,406.56 L 4887.88,427.264 L 4925.72,442.976 L 4966.69,443.014 L 5004.56,427.364 L 5033.56,398.42 L 5049.27,360.578 L 5049.3,331.11 L 5049.49,329.162 L 5050.98,325.562 L 5119.72,256.554 L 5121.24,255.31 L 5124.84,253.818 L 5253.73,253.624 L 5257.55,254.386 L 5260.8,256.554 L 5262.97,259.798 L 5263.54,261.674 L 5263.72,263.72 L 5267.72,267.724 L 5269.02,269.324 L 5269.96,271.154 L 5270.51,273.14 L 5270.64,275.196 L 5270.34,277.236 L 5269.64,279.17 L 5268.55,280.92 L 5267.13,282.41 L 5265.43,283.576 L 5248.98,288.752 L 5236.15,324.444 L 5238.11,365.616 L 5248.69,391.164 L 5257.81,393.908 L 5283.79,367.928 L 5282.45,365.62 L 5278.39,353.096 L 5277.01,340 L 5278.39,326.904 L 5282.45,314.38 L 5289.04,302.976 L 5297.85,293.188 L 5308.5,285.448 L 5320.54,280.092 L 5333.42,277.354 L 5346.58,277.354 L 5359.46,280.092 L 5371.49,285.448 L 5382.15,293.188 L 5390.96,302.976 L 5397.55,314.38 L 5401.61,326.904 L 5402.99,340 L 5401.61,353.096 L 5397.55,365.62 L 5396.21,367.93 L 5422.19,393.91 L 5431.02,391.252 L 5443.85,355.56 L 5441.89,314.388 L 5431.3,288.84 L 5414.56,283.576 L 5412.87,282.41 L 5411.44,280.92 L 5410.36,279.17 L 5409.65,277.236 L 5409.36,275.196 L 5409.49,273.14 L 5410.03,271.156 L 5410.98,269.324 L 5412.28,267.724 L 5416.28,263.722 L 5416.46,261.674 L 5417.03,259.798 L 5419.2,256.554 L 5420.71,255.31 L 5422.44,254.386 L 5426.27,253.624 L 5611.45,253.818 L 5613.33,254.386 L 5616.57,256.554 L 5744.31,384.292 L 5765.73,398.6 L 5790.97,403.624 L 5823.35,403.624 L 5827.2,404.398 L 5830.46,406.596 L 5831.7,408.132 L 5833.18,411.776 L 5835.04,421.688 L 5843.84,435.36 L 5857.21,444.496 L 5865.56,446.374 L 5868.74,448.474 L 5869.97,449.94 L 5871.5,453.434 L 5871.74,455.334 L 5871.11,459.098 L 5869.13,462.352 L 5848.44,485.054 L 5837.53,511.388 L 5840.16,516.378M 3516.38,440.954 L 3516.38,398.058 L 3512.12,396.164 L 3486.09,422.192 L 3488.75,431.022 L 3516.38,440.954M 3516.38,639.896 L 3495.14,648.696 L 3492.39,657.81 L 3516.38,681.798 L 3516.38,639.896M 869.35,1555.21 L 871.232,1554.64 L 841.934,1525.34 L 841.036,1526.89 L 869.35,1555.21M 170,1626.14 L 180,1624.08 L 180,1586 L 161.898,1576.5 L 120.6,1595.89 L 89.87,1629.61 L 76.496,1661.9 L 86.05,1680 L 124.17,1680 L 125.21,1673.23 L 129.912,1660.53 L 137.076,1649.03 L 146.406,1639.22 L 157.52,1631.48 L 170,1626.14M 210,2553.86 L 200,2555.92 L 200,2594 L 218.1,2603.5 L 259.398,2584.11 L 290.128,2550.39 L 303.502,2518.1 L 293.948,2500 L 255.83,2500 L 254.79,2506.77 L 250.088,2519.47 L 242.924,2530.97 L 233.594,2540.78 L 222.48,2548.52 L 210,2553.86M 1135,2410 L 1110,2410 L 1100,2410 L 1100,2447.5 L 1112.5,2460 L 1144.94,2460 L 1163.32,2452.39 L 1177.39,2438.32 L 1185,2419.95 L 1185,2412.5 L 1172.5,2400 L 1135,2400 L 1135,2410M 2860,2410 L 2852.35,2410 L 2850,2411.35 L 2850,2447.5 L 2862.5,2460 L 2894.94,2460 L 2913.32,2452.39 L 2927.39,2438.32 L 2935,2419.95 L 2935,2412.5 L 2922.5,2400 L 2885,2400 L 2885,2410 L 2860,2410M 1488.01,1563.62 L 1480.61,1563.62 L 1478.2,1567.78 L 1491.27,1599.37 L 1510.65,1605.21 L 1538.97,1576.89 L 1533.79,1567.93 L 1533.79,1567.93 L 1532.45,1565.62 L 1531.81,1563.62 L 1488.01,1563.62M 1531.8,1516.38 L 1532.45,1514.38 L 1538.96,1503.11 L 1510.65,1474.79 L 1491.27,1480.63 L 1479.26,1514.04 L 1480.61,1516.38 L 1489.05,1516.38 L 1531.8,1516.38M 762.118,1433.84 L 762.12,1433.84 L 770.536,1430.09 L 783.416,1427.35 L 796.584,1427.35 L 809.464,1430.09 L 817.876,1433.84 L 821.494,1435.45 L 826.656,1439.2 L 855.206,1410.65 L 849.37,1391.27 L 807.068,1376.07 L 762.168,1378.21 L 730.628,1391.27 L 724.792,1410.65 L 753.34,1439.2 L 758.504,1435.45 L 762.118,1433.84M 770.536,1549.91 L 758.506,1544.55 L 753.344,1540.8 L 724.792,1569.35 L 730.628,1588.73 L 772.93,1603.94 L 817.83,1601.79 L 849.37,1588.73 L 855.206,1569.35 L 826.658,1540.8 L 821.496,1544.55 L 817.878,1546.16 L 817.876,1546.16 L 809.464,1549.91 L 796.584,1552.65 L 783.416,1552.65 L 770.536,1549.91M 596.212,1317.93 L 591.036,1326.89 L 619.35,1355.21 L 638.728,1349.37 L 653.934,1307.07 L 651.792,1262.17 L 638.728,1230.63 L 619.35,1224.79 L 591.034,1253.11 L 596.214,1262.07 L 596.212,1262.07 L 597.546,1264.38 L 601.614,1276.9 L 602.992,1290 L 601.614,1303.1 L 597.546,1315.62 L 596.212,1317.93M 853.122,1470.36 L 856.702,1473.3 L 892.556,1509.15 L 899.782,1516.38 L 900.588,1516.38 L 903.934,1507.07 L 901.792,1462.17 L 888.728,1430.63 L 869.35,1424.79 L 841.034,1453.11 L 846.214,1462.07 L 846.212,1462.07 L 847.546,1464.38 L 848.75,1468.09 L 853.122,1470.36M 483.786,467.93 L 483.788,467.928 L 482.454,465.62 L 478.386,453.096 L 477.008,440 L 478.386,426.904 L 482.454,414.38 L 488.962,403.108 L 460.65,374.794 L 441.27,380.63 L 426.064,422.932 L 428.206,467.832 L 441.27,499.372 L 460.65,505.208 L 488.966,476.894 L 483.786,467.93M 1097.54,414.38 L 1101.61,426.904 L 1102.99,440 L 1101.61,453.096 L 1097.54,465.62 L 1091.04,476.892 L 1119.35,505.208 L 1138.73,499.372 L 1153.93,457.07 L 1151.79,412.17 L 1138.73,380.63 L 1119.35,374.794 L 1091.03,403.108 L 1097.54,414.38M 1647.55,1565.62 L 1646.21,1567.93 L 1641.04,1576.89 L 1669.35,1605.21 L 1688.73,1599.37 L 1701.58,1563.62 L 1690.95,1563.62 L 1648.2,1563.62 L 1647.55,1565.62M 1691.98,1516.38 L 1701.99,1516.38 L 1701.79,1512.17 L 1688.73,1480.63 L 1669.35,1474.79 L 1641.03,1503.11 L 1646.21,1512.07 L 1646.21,1512.07 L 1647.55,1514.38 L 1648.19,1516.38 L 1691.98,1516.38M 6000.09,2419.47 L 5992.92,2430.97 L 5983.59,2440.78 L 5972.48,2448.52 L 5960,2453.86 L 5950,2455.92 L 5950,2494 L 5968.1,2503.5 L 6009.4,2484.11 L 6040.13,2450.39 L 6053.5,2418.1 L 6043.95,2400 L 6005.83,2400 L 6004.79,2406.77 L 6000.09,2419.47M 3397.55,1514.38 L 3401.61,1526.9 L 3402.99,1540 L 3401.61,1553.1 L 3397.55,1565.62 L 3396.21,1567.93 L 3391.04,1576.89 L 3419.35,1605.21 L 3438.73,1599.37 L 3453.93,1557.07 L 3451.79,1512.17 L 3438.73,1480.63 L 3419.35,1474.79 L 3391.03,1503.11 L 3396.21,1512.07 L 3396.21,1512.07 L 3397.55,1514.38M 3567.88,396.164 L 3567.88,396.162 L 3563.62,398.056 L 3563.62,441.986 L 3563.62,451.994 L 3567.83,451.794 L 3599.37,438.73 L 3605.21,419.35 L 3576.66,390.8 L 3571.5,394.552 L 3567.88,396.164M 3603.84,714.38 L 3607.91,726.904 L 3609.29,740 L 3607.91,753.096 L 3603.84,765.62 L 3602.51,767.928 L 3597.33,776.892 L 3625.65,805.208 L 3645.03,799.372 L 3660.23,757.07 L 3658.09,712.17 L 3645.03,680.63 L 3625.65,674.794 L 3597.33,703.106 L 3602.51,712.07 L 3602.51,712.072 L 3603.84,714.38M 3563.62,679.636 L 3565.76,680.092 L 3577.79,685.448 L 3582.96,689.2 L 3611.51,660.652 L 3605.67,641.272 L 3563.62,626.158 L 3563.62,636.788 L 3563.62,679.636M 3597.55,314.38 L 3601.61,326.904 L 3602.99,340 L 3601.61,353.096 L 3597.55,365.62 L 3596.21,367.928 L 3591.04,376.892 L 3619.35,405.208 L 3638.73,399.372 L 3653.93,357.07 L 3651.79,312.17 L 3638.73,280.63 L 3619.35,274.794 L 3591.03,303.106 L 3596.21,312.07 L 3596.21,312.072 L 3597.55,314.38M 4691.85,758.426 L 4691.85,793.426 L 4656.85,793.426 L 4646.85,793.426 L 4646.85,830.926 L 4659.35,843.426 L 4701.79,843.426 L 4720.17,835.814 L 4734.24,821.748 L 4741.85,803.372 L 4741.85,760.926 L 4729.35,748.426 L 4691.85,748.426 L 4691.85,758.426M 5389.91,767.928 L 5384.74,776.892 L 5413.05,805.208 L 5432.43,799.372 L 5447.63,757.07 L 5445.49,712.17 L 5432.43,680.63 L 5413.05,674.794 L 5384.73,703.106 L 5389.91,712.07 L 5389.91,712.072 L 5391.25,714.38 L 5395.31,726.904 L 5396.69,740 L 5395.31,753.096 L 5391.25,765.62 L 5389.91,767.928 z " style="fill-opacity:1.000000;fill:rgb(103,198,105);stroke:rgb(0,0,0);stroke-width:2"/></g>
<g fill-rule="evenodd"><path d="M 2644.61,2566.83 L 2649.04,2568.18 L 2653.12,2570.36 L 2656.7,2573.3 L 3099.78,3016.38 L 4632.85,3016.38 L 4766.38,2927.36 L 4766.38,2708.8 L 4750.65,2701.96 L 4737.34,2692.28 L 4726.33,2680.06 L 4718.1,2665.81 L 4713.02,2650.16 L 4711.3,2633.8 L 4713.02,2617.44 L 4718.1,2601.79 L 4726.33,2587.54 L 4737.34,2575.32 L 4750.65,2565.64 L 4765.68,2558.95 L 4781.77,2555.53 L 4798.23,2555.53 L 4814.32,2558.95 L 4829.35,2565.64 L 4842.66,2575.32 L 4853.67,2587.54 L 4861.9,2601.79 L 4866.98,2617.44 L 4868.7,2633.8 L 4866.98,2650.16 L 4861.9,2665.81 L 4853.67,2680.06 L 4842.66,2692.28 L 4829.35,2701.96 L 4813.62,2708.79 L 4813.62,2940 L 4813.17,2944.61 L 4811.82,2949.05 L 4809.63,2953.14 L 4806.69,2956.72 L 4803.1,2959.66 L 4653.1,3059.66 L 4649.02,3061.83 L 4644.6,3063.17 L 4640,3063.62 L 3090,3063.62 L 3085.39,3063.17 L 3080.96,3061.82 L 3076.87,3059.64 L 3073.29,3056.7 L 2630.21,2613.62 L 1990,2613.62 L 1985.39,2613.17 L 1980.96,2611.82 L 1976.88,2609.64 L 1973.3,2606.7 L 1816.27,2449.68 L 1802.88,2452.65 L 1789.71,2452.65 L 1776.83,2449.91 L 1764.8,2444.55 L 1754.15,2436.81 L 1745.34,2427.02 L 1738.75,2415.62 L 1734.68,2403.1 L 1733.31,2390 L 1734.68,2376.9 L 1738.39,2365.5 L 1686.51,2313.62 L 1590,2313.62 L 1585.09,2313.11 L 1580.39,2311.58 L 1577.65,2310 L 1545,2310 L 1545,2270 L 1577.66,2270 L 1580.39,2268.42 L 1585.09,2266.9 L 1590,2266.38 L 1696.3,2266.38 L 1700.91,2266.83 L 1705.34,2268.18 L 1709.42,2270.36 L 1713,2273.3 L 1771.96,2332.26 L 1776.83,2330.09 L 1789.71,2327.35 L 1802.88,2327.35 L 1815.76,2330.09 L 1827.79,2335.45 L 1838.45,2343.19 L 1847.26,2352.98 L 1853.84,2364.38 L 1857.91,2376.9 L 1859.29,2390 L 1857.91,2403.1 L 1853.84,2415.62 L 1852.08,2418.68 L 1999.78,2566.38 L 2640,2566.38 L 2644.61,2566.83 z " style="fill-opacity:1.000000;fill:rgb(115,81,255);stroke:rgb(0,0,0);stroke-width:2"/></g>
<g fill-rule="evenodd"><path d="M 3733.7,116.378 L 3738.31,116.832 L 3742.74,118.178 L 3746.82,120.36 L 3750.4,123.298 L 3909.36,282.262 L 3914.24,280.092 L 3927.12,277.354 L 3940.28,277.354 L 3953.16,280.092 L 3965.19,285.448 L 3975.85,293.188 L 3984.66,302.976 L 3991.25,314.38 L 3991.89,316.378 L 4190.48,316.378 L 4195.51,307.672 L 4203.2,299.128 L 4212.5,292.37 L 4223.01,287.692 L 4234.25,285.302 L 4245.75,285.302 L 4256.99,287.692 L 4267.5,292.37 L 4276.8,299.128 L 4284.49,307.672 L 4290.24,317.63 L 4293.8,328.566 L 4295,340 L 4293.8,351.434 L 4290.24,362.37 L 4284.49,372.328 L 4276.8,380.872 L 4267.5,387.63 L 4256.99,392.308 L 4245.75,394.698 L 4234.25,394.698 L 4223.01,392.308 L 4212.5,387.63 L 4203.2,380.872 L 4195.51,372.328 L 4190.48,363.622 L 3991.9,363.622 L 3991.25,365.62 L 3984.66,377.024 L 3975.85,386.812 L 3965.2,394.552 L 3953.16,399.908 L 3940.28,402.646 L 3927.12,402.646 L 3913.73,399.682 L 3813.62,499.784 L 3813.62,936.418 L 4097.63,1220.43 L 4109.48,1215.15 L 4125.57,1211.73 L 4142.03,1211.73 L 4158.12,1215.15 L 4173.15,1221.84 L 4186.46,1231.52 L 4197.47,1243.74 L 4205.7,1257.99 L 4210.78,1273.64 L 4212.5,1290 L 4210.78,1306.36 L 4205.7,1322.01 L 4197.47,1336.26 L 4186.46,1348.48 L 4173.15,1358.16 L 4158.12,1364.85 L 4142.03,1368.27 L 4125.57,1368.27 L 4109.48,1364.85 L 4094.45,1358.16 L 4081.14,1348.48 L 4070.13,1336.26 L 4061.9,1322.01 L 4056.82,1306.36 L 4055.1,1290 L 4056.82,1273.64 L 4061.9,1257.99 L 4064.27,1253.88 L 3773.3,962.904 L 3770.36,959.324 L 3768.18,955.24 L 3766.83,950.81 L 3766.38,946.2 L 3766.38,490 L 3766.83,485.392 L 3768.17,480.962 L 3770.36,476.878 L 3773.3,473.298 L 3877.92,368.676 L 3876.15,365.62 L 3872.09,353.096 L 3870.71,340 L 3872.09,326.904 L 3875.79,315.5 L 3723.91,163.622 L 1699.78,163.622 L 1613.62,249.784 L 1613.62,421.204 L 1629.35,428.044 L 1642.66,437.716 L 1653.67,449.942 L 1661.9,464.19 L 1666.98,479.838 L 1668.7,496.2 L 1666.98,512.562 L 1661.9,528.21 L 1653.67,542.458 L 1642.66,554.684 L 1629.35,564.356 L 1614.32,571.048 L 1598.23,574.468 L 1581.77,574.468 L 1565.68,571.048 L 1550.65,564.356 L 1537.34,554.684 L 1526.33,542.458 L 1518.1,528.21 L 1513.02,512.562 L 1511.3,496.2 L 1513.02,479.838 L 1518.1,464.19 L 1526.33,449.942 L 1537.34,437.716 L 1550.65,428.044 L 1566.38,421.206 L 1566.38,240 L 1566.67,236.304 L 1567.95,231.534 L 1570.19,227.134 L 1573.3,223.298 L 1673.3,123.298 L 1676.87,120.36 L 1680.96,118.178 L 1685.39,116.832 L 1690,116.378 L 3733.7,116.378 z " style="fill-opacity:1.000000;fill:rgb(74,236,41);stroke:rgb(0,0,0);stroke-width:2"/></g>
<g fill-rule="evenodd"><path d="M 1078.19,1338.6 L 825.176,1085.58 L 821.496,1088.25 L 809.464,1093.61 L 796.584,1096.35 L 783.416,1096.35 L 770.536,1093.61 L 758.506,1088.25 L 747.852,1080.51 L 739.04,1070.73 L 732.454,1059.32 L 728.386,1046.8 L 728.252,1045.51 L 602.556,1045.51 L 600.98,1055.79 L 596.554,1067.74 L 589.812,1078.56 L 581.03,1087.79 L 570.57,1095.08 L 558.856,1100.1 L 546.372,1102.67 L 540,1102.99 L 527.32,1101.7 L 515.16,1097.89 L 504.016,1091.7 L 494.344,1083.4 L 486.544,1073.32 L 480.93,1061.88 L 477.736,1049.54 L 477.09,1036.81 L 479.02,1024.21 L 483.446,1012.26 L 488.094,1004.8 L 485.106,1001.81 L 256.928,1001.81 L 256.928,1056.93 L 123.072,1056.93 L 123.072,923.072 L 256.928,923.072 L 256.928,978.19 L 490,978.19 L 492.304,978.418 L 494.518,979.09 L 496.56,980.182 L 504.826,988.13 L 509.43,984.924 L 521.144,979.898 L 533.628,977.332 L 540,977.008 L 552.68,978.298 L 564.84,982.114 L 575.984,988.3 L 585.656,996.602 L 593.456,1006.68 L 599.07,1018.12 L 600.044,1021.89 L 728.25,1021.89 L 728.386,1020.61 L 732.454,1008.08 L 739.04,996.678 L 747.852,986.89 L 758.504,979.15 L 770.536,973.794 L 783.416,971.056 L 796.584,971.056 L 809.464,973.794 L 821.494,979.15 L 832.148,986.89 L 840.96,996.678 L 847.546,1008.08 L 851.614,1020.61 L 852.992,1033.7 L 851.614,1046.8 L 847.546,1059.32 L 841.972,1068.97 L 1098.35,1325.35 L 1099.82,1327.14 L 1100.91,1329.18 L 1101.58,1331.4 L 1101.81,1333.7 L 1101.81,2070 L 1135,2070 L 1135,2110 L 1045,2110 L 1045,2070 L 1078.19,2070 L 1078.19,1338.6 z " style="fill-opacity:1.000000;fill:rgb(205,186,171);stroke:rgb(0,0,0);stroke-width:2"/></g>
<g fill-rule="evenodd"><path d="M 2828.19,1444.9 L 2428.81,1045.51 L 1351.75,1045.51 L 1351.61,1046.8 L 1347.55,1059.32 L 1340.96,1070.73 L 1332.15,1080.51 L 1321.5,1088.25 L 1309.46,1093.61 L 1296.58,1096.35 L 1283.42,1096.35 L 1270.54,1093.61 L 1258.51,1088.25 L 1247.85,1080.51 L 1239.04,1070.73 L 1232.45,1059.32 L 1228.39,1046.8 L 1228.25,1045.51 L 1102.55,1045.51 L 1100.98,1055.79 L 1096.55,1067.74 L 1089.81,1078.56 L 1081.03,1087.79 L 1070.57,1095.08 L 1058.85,1100.1 L 1046.37,1102.67 L 1040,1102.99 L 1027.32,1101.7 L 1015.16,1097.89 L 1004.01,1091.7 L 994.342,1083.4 L 986.542,1073.32 L 980.928,1061.88 L 977.734,1049.54 L 977.088,1036.81 L 979.018,1024.21 L 983.444,1012.26 L 988.094,1004.8 L 785.106,801.81 L 255.552,801.81 L 254.79,806.774 L 250.088,819.474 L 242.924,830.966 L 233.594,840.782 L 222.48,848.518 L 210.034,853.858 L 196.77,856.584 L 190,856.928 L 176.528,855.556 L 163.608,851.504 L 151.768,844.932 L 141.492,836.11 L 133.202,825.402 L 127.24,813.244 L 123.844,800.134 L 123.158,786.612 L 125.21,773.226 L 129.912,760.526 L 137.076,749.034 L 146.406,739.218 L 157.52,731.482 L 169.966,726.142 L 183.23,723.416 L 190,723.072 L 203.472,724.444 L 216.392,728.496 L 228.232,735.068 L 238.508,743.89 L 246.798,754.598 L 252.76,766.756 L 255.72,778.19 L 790,778.19 L 792.304,778.418 L 794.518,779.09 L 796.56,780.182 L 798.35,781.65 L 1004.83,988.128 L 1009.43,984.924 L 1021.14,979.898 L 1033.63,977.332 L 1040,977.008 L 1052.68,978.298 L 1064.84,982.114 L 1075.98,988.3 L 1085.65,996.602 L 1093.45,1006.68 L 1099.07,1018.12 L 1100.04,1021.89 L 1228.25,1021.89 L 1228.39,1020.61 L 1232.45,1008.08 L 1239.04,996.678 L 1247.85,986.89 L 1258.5,979.15 L 1270.54,973.794 L 1283.42,971.056 L 1296.58,971.056 L 1309.46,973.794 L 1321.49,979.15 L 1332.15,986.89 L 1340.96,996.678 L 1347.55,1008.08 L 1351.61,1020.61 L 1351.75,1021.89 L 2433.7,1021.89 L 2436,1022.12 L 2438.22,1022.79 L 2440.26,1023.88 L 2442.05,1025.35 L 2848.35,1431.65 L 2849.82,1433.44 L 2850.91,1435.48 L 2851.58,1437.7 L 2851.81,1440 L 2851.81,2070 L 2885,2070 L 2885,2110 L 2795,2110 L 2795,2070 L 2828.19,2070 L 2828.19,1444.9 z " style="fill-opacity:1.000000;fill:rgb(242,251,227);stroke:rgb(0,0,0);stroke-width:2"/></g>
<g fill-rule="evenodd"><path d="M 1228.19,1290 L 1228.42,1287.7 L 1229.09,1285.48 L 1230.18,1283.44 L 1231.65,1281.65 L 1431.65,1081.65 L 1433.44,1080.18 L 1435.48,1079.09 L 1437.69,1078.42 L 1440,1078.19 L 2390,1078.19 L 2392.3,1078.42 L 2394.52,1079.09 L 2396.56,1080.18 L 2398.35,1081.65 L 2698.35,1381.65 L 2699.82,1383.44 L 2700.91,1385.48 L 2701.58,1387.7 L 2701.81,1390 L 2701.81,2135.11 L 2744.89,2178.19 L 2795,2178.19 L 2795,2170 L 2885,2170 L 2885,2210 L 2795,2210 L 2795,2201.81 L 2740,2201.81 L 2737.69,2201.58 L 2735.48,2200.91 L 2733.44,2199.82 L 2731.65,2198.35 L 2681.65,2148.35 L 2680.18,2146.56 L 2679.09,2144.52 L 2678.42,2142.31 L 2678.19,2140 L 2678.19,1394.89 L 2385.11,1101.81 L 1444.89,1101.81 L 1251.81,1294.89 L 1251.81,2190 L 1251.58,2192.31 L 1250.91,2194.52 L 1249.82,2196.56 L 1248.35,2198.35 L 1246.56,2199.82 L 1244.52,2200.91 L 1242.3,2201.58 L 1240,2201.81 L 1135,2201.81 L 1135,2210 L 1045,2210 L 1045,2201.81 L 990,2201.81 L 987.694,2201.58 L 985.48,2200.91 L 983.438,2199.82 L 981.648,2198.35 L 781.648,1998.35 L 780.18,1996.56 L 779.088,1994.52 L 778.416,1992.31 L 778.19,1990 L 778.19,1945.24 L 770.536,1943.61 L 758.506,1938.25 L 747.852,1930.51 L 739.04,1920.73 L 732.454,1909.32 L 728.386,1896.8 L 728.252,1895.51 L 602.556,1895.51 L 600.98,1905.79 L 596.554,1917.74 L 589.812,1928.56 L 581.03,1937.79 L 570.57,1945.08 L 558.856,1950.1 L 546.372,1952.67 L 540,1952.99 L 527.32,1951.7 L 515.16,1947.89 L 504.016,1941.7 L 494.344,1933.4 L 486.544,1923.32 L 480.93,1911.88 L 478.326,1901.81 L 256.928,1901.81 L 256.928,1956.93 L 123.072,1956.93 L 123.072,1823.07 L 256.928,1823.07 L 256.928,1878.19 L 478.41,1878.19 L 479.02,1874.21 L 483.446,1862.26 L 490.188,1851.44 L 498.97,1842.21 L 509.43,1834.92 L 521.144,1829.9 L 533.628,1827.33 L 540,1827.01 L 552.68,1828.3 L 564.84,1832.11 L 575.984,1838.3 L 585.656,1846.6 L 593.456,1856.68 L 599.07,1868.12 L 600.044,1871.89 L 728.25,1871.89 L 728.386,1870.61 L 732.454,1858.08 L 739.04,1846.68 L 747.852,1836.89 L 758.504,1829.15 L 770.536,1823.79 L 783.416,1821.06 L 796.584,1821.06 L 809.464,1823.79 L 821.494,1829.15 L 832.148,1836.89 L 840.96,1846.68 L 847.546,1858.08 L 851.614,1870.61 L 852.992,1883.7 L 851.614,1896.8 L 847.546,1909.32 L 840.96,1920.73 L 832.148,1930.51 L 821.496,1938.25 L 809.464,1943.61 L 801.81,1945.24 L 801.81,1985.11 L 994.89,2178.19 L 1045,2178.19 L 1045,2170 L 1135,2170 L 1135,2178.19 L 1228.19,2178.19 L 1228.19,1290 z " style="fill-opacity:1.000000;fill:rgb(70,124,194);stroke:rgb(0,0,0);stroke-width:2"/></g>
<g fill-rule="evenodd"><path d="M 1558.51,1988.25 L 1547.85,1980.51 L 1539.04,1970.73 L 1532.45,1959.32 L 1528.39,1946.8 L 1527.01,1933.7 L 1528.39,1920.61 L 1532.45,1908.08 L 1539.04,1896.68 L 1547.85,1886.89 L 1558.5,1879.15 L 1570.54,1873.79 L 1583.42,1871.06 L 1596.58,1871.06 L 1609.46,1873.79 L 1621.49,1879.15 L 1632.15,1886.89 L 1640.96,1896.68 L 1647.55,1908.08 L 1651.61,1920.61 L 1652.99,1933.7 L 1651.61,1946.8 L 1647.55,1959.32 L 1640.96,1970.73 L 1632.15,1980.51 L 1621.5,1988.25 L 1613.62,1991.76 L 1613.62,2070 L 1635,2070 L 1635,2110 L 1602.44,2110 L 1597.3,2112.47 L 1592.47,2113.49 L 1587.53,2113.49 L 1582.7,2112.47 L 1577.56,2110 L 1545,2110 L 1545,2070 L 1566.38,2070 L 1566.38,1991.76 L 1558.51,1988.25 z " style="fill-opacity:1.000000;fill:rgb(84,248,27);stroke:rgb(0,0,0);stroke-width:2"/></g>
<g fill-rule="evenodd"><path d="M 775.04,2393.15 L 775.266,2390.85 L 775.938,2388.63 L 777.028,2386.59 L 778.498,2384.8 L 838.028,2325.27 L 832.454,2315.62 L 828.386,2303.1 L 827.008,2290 L 828.386,2276.9 L 832.454,2264.38 L 839.04,2252.98 L 847.852,2243.19 L 858.504,2235.45 L 870.536,2230.09 L 883.416,2227.35 L 896.584,2227.35 L 909.464,2230.09 L 921.494,2235.45 L 932.148,2243.19 L 940.96,2252.98 L 947.546,2264.38 L 951.614,2276.9 L 951.748,2278.19 L 1045,2278.19 L 1045,2270 L 1135,2270 L 1135,2310 L 1045,2310 L 1045,2301.81 L 951.75,2301.81 L 951.614,2303.1 L 947.546,2315.62 L 940.96,2327.02 L 932.148,2336.81 L 921.496,2344.55 L 909.464,2349.91 L 896.584,2352.65 L 883.416,2352.65 L 870.536,2349.91 L 858.506,2344.55 L 854.826,2341.88 L 798.66,2398.04 L 798.66,2578.46 L 806.314,2580.09 L 818.344,2585.45 L 828.998,2593.19 L 837.81,2602.98 L 844.396,2614.38 L 848.464,2626.9 L 849.842,2640 L 848.464,2653.1 L 844.396,2665.62 L 837.81,2677.02 L 828.998,2686.81 L 818.346,2694.55 L 806.314,2699.91 L 793.434,2702.65 L 780.266,2702.65 L 767.386,2699.91 L 755.356,2694.55 L 744.702,2686.81 L 735.89,2677.02 L 729.304,2665.62 L 725.236,2653.1 L 723.858,2640 L 725.236,2626.9 L 729.304,2614.38 L 735.89,2602.98 L 744.702,2593.19 L 755.354,2585.45 L 767.386,2580.09 L 775.04,2578.47 L 775.04,2393.15 z " style="fill-opacity:1.000000;fill:rgb(232,231,141);stroke:rgb(0,0,0);stroke-width:2"/></g>
<g fill-rule="evenodd"><path d="M 578.19,2388.6 L 531.474,2341.88 L 527.794,2344.55 L 515.762,2349.91 L 502.882,2352.65 L 489.714,2352.65 L 476.834,2349.91 L 464.804,2344.55 L 454.15,2336.81 L 445.338,2327.02 L 438.752,2315.62 L 434.684,2303.1 L 434.55,2301.81 L 256.928,2301.81 L 256.928,2356.93 L 123.072,2356.93 L 123.072,2223.07 L 256.928,2223.07 L 256.928,2278.19 L 434.548,2278.19 L 434.684,2276.9 L 438.752,2264.38 L 445.338,2252.98 L 454.15,2243.19 L 464.802,2235.45 L 476.834,2230.09 L 489.714,2227.35 L 502.882,2227.35 L 515.762,2230.09 L 527.792,2235.45 L 538.446,2243.19 L 547.258,2252.98 L 553.844,2264.38 L 557.912,2276.9 L 559.29,2290 L 557.912,2303.1 L 553.844,2315.62 L 548.27,2325.27 L 598.35,2375.35 L 599.818,2377.14 L 600.91,2379.18 L 601.582,2381.4 L 601.81,2383.7 L 601.81,2577.01 L 652.992,2577.01 L 652.992,2702.99 L 527.008,2702.99 L 527.008,2577.01 L 578.19,2577.01 L 578.19,2388.6 z " style="fill-opacity:1.000000;fill:rgb(118,90,46);stroke:rgb(0,0,0);stroke-width:2"/></g>
<g fill-rule="evenodd"><path d="M 1601.81,2735.11 L 1744.89,2878.19 L 2378.41,2878.19 L 2379.02,2874.21 L 2383.45,2862.26 L 2390.19,2851.44 L 2398.97,2842.21 L 2409.43,2834.92 L 2421.14,2829.9 L 2433.63,2827.33 L 2440,2827.01 L 2452.68,2828.3 L 2464.84,2832.11 L 2475.98,2838.3 L 2485.66,2846.6 L 2493.46,2856.68 L 2499.07,2868.12 L 2502.26,2880.46 L 2502.91,2893.19 L 2500.98,2905.79 L 2496.55,2917.74 L 2489.81,2928.56 L 2481.03,2937.79 L 2470.57,2945.08 L 2458.86,2950.1 L 2446.37,2952.67 L 2440,2952.99 L 2427.32,2951.7 L 2415.16,2947.89 L 2404.02,2941.7 L 2394.34,2933.4 L 2386.54,2923.32 L 2380.93,2911.88 L 2378.33,2901.81 L 1740,2901.81 L 1737.69,2901.58 L 1735.48,2900.91 L 1733.44,2899.82 L 1731.65,2898.35 L 1581.65,2748.35 L 1580.18,2746.56 L 1579.09,2744.52 L 1578.42,2742.31 L 1578.19,2740 L 1578.19,2410 L 1545,2410 L 1545,2370 L 1635,2370 L 1635,2410 L 1601.81,2410 L 1601.81,2735.11 z " style="fill-opacity:1.000000;fill:rgb(99,51,159);stroke:rgb(0,0,0);stroke-width:2"/></g>
<g fill-rule="evenodd"><path d="M 2640,2178.19 L 2642.3,2178.42 L 2644.52,2179.09 L 2646.56,2180.18 L 2648.35,2181.65 L 2744.89,2278.19 L 2795,2278.19 L 2795,2270 L 2885,2270 L 2885,2310 L 2795,2310 L 2795,2301.81 L 2740,2301.81 L 2737.69,2301.58 L 2735.48,2300.91 L 2733.44,2299.82 L 2731.65,2298.35 L 2635.11,2201.81 L 2251.75,2201.81 L 2251.61,2203.1 L 2247.55,2215.62 L 2240.96,2227.02 L 2232.15,2236.81 L 2221.5,2244.55 L 2209.46,2249.91 L 2196.58,2252.65 L 2183.42,2252.65 L 2170.54,2249.91 L 2158.51,2244.55 L 2147.85,2236.81 L 2139.04,2227.02 L 2132.45,2215.62 L 2128.39,2203.1 L 2127.01,2190 L 2128.39,2176.9 L 2132.45,2164.38 L 2139.04,2152.98 L 2147.85,2143.19 L 2158.5,2135.45 L 2170.54,2130.09 L 2178.19,2128.47 L 2178.19,2094.9 L 2078.5,1995.2 L 2077.03,1993.41 L 2075.94,1991.37 L 2075.27,1989.16 L 2075.04,1986.85 L 2075.04,1901.54 L 2067.39,1899.91 L 2055.36,1894.55 L 2044.7,1886.81 L 2035.89,1877.02 L 2029.3,1865.62 L 2025.24,1853.1 L 2023.86,1840 L 2025.24,1826.9 L 2029.3,1814.38 L 2035.89,1802.98 L 2044.7,1793.19 L 2055.35,1785.45 L 2067.39,1780.09 L 2080.27,1777.35 L 2093.43,1777.35 L 2106.31,1780.09 L 2118.34,1785.45 L 2129,1793.19 L 2137.81,1802.98 L 2144.4,1814.38 L 2148.46,1826.9 L 2149.84,1840 L 2148.46,1853.1 L 2144.4,1865.62 L 2137.81,1877.02 L 2129,1886.81 L 2118.35,1894.55 L 2106.31,1899.91 L 2098.66,1901.53 L 2098.66,1981.96 L 2198.35,2081.65 L 2199.82,2083.44 L 2200.91,2085.48 L 2201.58,2087.7 L 2201.81,2090 L 2201.81,2128.46 L 2209.46,2130.09 L 2221.49,2135.45 L 2232.15,2143.19 L 2240.96,2152.98 L 2247.55,2164.38 L 2251.61,2176.9 L 2251.75,2178.19 L 2640,2178.19 z " style="fill-opacity:1.000000;fill:rgb(201,154,102);stroke:rgb(0,0,0);stroke-width:2"/></g>
<g fill-rule="evenodd"><path d="M 1896.3,2301.81 L 1893.99,2301.58 L 1891.78,2300.91 L 1889.74,2299.82 L 1887.95,2298.35 L 1831.47,2241.88 L 1827.79,2244.55 L 1815.76,2249.91 L 1802.88,2252.65 L 1789.71,2252.65 L 1776.83,2249.91 L 1764.8,2244.55 L 1754.15,2236.81 L 1745.34,2227.02 L 1738.75,2215.62 L 1734.68,2203.1 L 1734.55,2201.81 L 1635,2201.81 L 1635,2210 L 1545,2210 L 1545,2170 L 1635,2170 L 1635,2178.19 L 1734.55,2178.19 L 1734.68,2176.9 L 1738.75,2164.38 L 1745.34,2152.98 L 1754.15,2143.19 L 1764.8,2135.45 L 1776.83,2130.09 L 1784.49,2128.47 L 1784.49,2083.7 L 1784.71,2081.4 L 1785.39,2079.18 L 1786.48,2077.14 L 1787.95,2075.35 L 1878.19,1985.11 L 1878.19,1902.99 L 1827.01,1902.99 L 1827.01,1777.01 L 1952.99,1777.01 L 1952.99,1902.99 L 1901.81,1902.99 L 1901.81,1990 L 1901.58,1992.31 L 1900.91,1994.52 L 1899.82,1996.56 L 1898.35,1998.35 L 1808.11,2088.59 L 1808.11,2128.46 L 1815.76,2130.09 L 1827.79,2135.45 L 1838.45,2143.19 L 1847.26,2152.98 L 1853.84,2164.38 L 1857.91,2176.9 L 1859.29,2190 L 1857.91,2203.1 L 1853.84,2215.62 L 1848.27,2225.27 L 1901.19,2278.19 L 2378.25,2278.19 L 2378.39,2276.9 L 2382.45,2264.38 L 2389.04,2252.98 L 2397.85,2243.19 L 2408.5,2235.45 L 2420.54,2230.09 L 2433.42,2227.35 L 2446.58,2227.35 L 2459.46,2230.09 L 2471.49,2235.45 L 2482.15,2243.19 L 2490.96,2252.98 L 2497.55,2264.38 L 2501.61,2276.9 L 2502.99,2290 L 2501.61,2303.1 L 2497.55,2315.62 L 2490.96,2327.02 L 2482.15,2336.81 L 2471.5,2344.55 L 2459.46,2349.91 L 2446.58,2352.65 L 2433.42,2352.65 L 2420.54,2349.91 L 2408.51,2344.55 L 2397.85,2336.81 L 2389.04,2327.02 L 2382.45,2315.62 L 2378.39,2303.1 L 2378.25,2301.81 L 1896.3,2301.81 z " style="fill-opacity:1.000000;fill:rgb(50,13,183);stroke:rgb(0,0,0);stroke-width:2"/></g>
<g fill-rule="evenodd"><path d="M 1565.68,1371.05 L 1550.65,1364.36 L 1537.34,1354.68 L 1526.33,1342.46 L 1518.1,1328.21 L 1513.02,1312.56 L 1511.3,1296.2 L 1513.02,1279.84 L 1518.1,1264.19 L 1526.33,1249.94 L 1537.34,1237.72 L 1550.65,1228.04 L 1565.68,1221.35 L 1581.77,1217.93 L 1598.23,1217.93 L 1614.32,1221.35 L 1629.35,1228.04 L 1642.66,1237.72 L 1653.67,1249.94 L 1661.9,1264.19 L 1666.98,1279.84 L 1668.7,1296.2 L 1666.98,1312.56 L 1661.9,1328.21 L 1653.67,1342.46 L 1642.66,1354.68 L 1629.35,1364.36 L 1614.32,1371.05 L 1598.23,1374.47 L 1581.77,1374.47 L 1565.68,1371.05 z " style="fill-opacity:1.000000;fill:rgb(49,88,163);stroke:rgb(0,0,0);stroke-width:2"/></g>
<g fill-rule="evenodd"><path d="M 4561.42,1394.83 L 3964.33,797.74 L 3959.46,799.908 L 3946.58,802.646 L 3933.42,802.646 L 3920.54,799.908 L 3908.51,794.552 L 3897.85,786.812 L 3889.04,777.024 L 3882.45,765.62 L 3878.39,753.096 L 3877.01,740 L 3878.39,726.904 L 3882.45,714.38 L 3889.04,702.976 L 3897.85,693.188 L 3908.5,685.448 L 3920.54,680.092 L 3933.42,677.354 L 3946.58,677.354 L 3959.46,680.092 L 3971.49,685.448 L 3982.15,693.188 L 3990.96,702.976 L 3997.55,714.38 L 3998.19,716.378 L 4190.48,716.378 L 4195.51,707.672 L 4203.2,699.128 L 4212.5,692.37 L 4223.01,687.692 L 4234.25,685.302 L 4245.75,685.302 L 4256.99,687.692 L 4267.5,692.37 L 4276.8,699.128 L 4284.49,707.672 L 4290.24,717.63 L 4293.8,728.566 L 4295,740 L 4293.8,751.434 L 4290.24,762.37 L 4284.49,772.328 L 4276.8,780.872 L 4267.5,787.63 L 4256.99,792.308 L 4245.75,794.698 L 4234.25,794.698 L 4223.01,792.308 L 4212.5,787.63 L 4203.2,780.872 L 4195.51,772.328 L 4190.48,763.622 L 3998.2,763.622 L 3997.91,764.504 L 4606.7,1373.3 L 4612.49,1379.61 L 4614.72,1383.58 L 4778.87,1756.15 L 4781.77,1755.53 L 4798.23,1755.53 L 4814.32,1758.95 L 4829.35,1765.64 L 4842.66,1775.32 L 4853.67,1787.54 L 4861.9,1801.79 L 4866.98,1817.44 L 4868.7,1833.8 L 4866.98,1850.16 L 4861.9,1865.81 L 4853.67,1880.06 L 4842.66,1892.28 L 4829.35,1901.96 L 4814.32,1908.65 L 4798.23,1912.07 L 4781.77,1912.07 L 4765.68,1908.65 L 4750.65,1901.96 L 4737.34,1892.28 L 4726.33,1880.06 L 4718.1,1865.81 L 4713.02,1850.16 L 4711.3,1833.8 L 4713.02,1817.44 L 4718.1,1801.79 L 4726.33,1787.54 L 4736.23,1776.55 L 4592.63,1450.62 L 4486,1770.48 L 4492.66,1775.32 L 4503.67,1787.54 L 4511.9,1801.79 L 4516.98,1817.44 L 4518.7,1833.8 L 4516.98,1850.16 L 4511.9,1865.81 L 4503.67,1880.06 L 4492.66,1892.28 L 4479.35,1901.96 L 4464.32,1908.65 L 4448.23,1912.07 L 4431.77,1912.07 L 4415.68,1908.65 L 4400.65,1901.96 L 4387.34,1892.28 L 4376.33,1880.06 L 4368.1,1865.81 L 4363.02,1850.16 L 4361.3,1833.8 L 4363.02,1817.44 L 4368.1,1801.79 L 4376.33,1787.54 L 4387.34,1775.32 L 4400.65,1765.64 L 4415.68,1758.95 L 4431.77,1755.53 L 4441.19,1755.53 L 4561.42,1394.83 z " style="fill-opacity:1.000000;fill:rgb(90,37,93);stroke:rgb(0,0,0);stroke-width:2"/></g>
<g fill-rule="evenodd"><path d="M 3116.38,1490 L 3116.83,1485.39 L 3118.17,1480.96 L 3120.36,1476.88 L 3123.3,1473.3 L 3266.55,1330.05 L 3261.9,1322.01 L 3256.82,1306.36 L 3255.1,1290 L 3256.82,1273.64 L 3261.9,1257.99 L 3270.13,1243.74 L 3281.14,1231.52 L 3294.45,1221.84 L 3309.48,1215.15 L 3325.57,1211.73 L 3342.03,1211.73 L 3358.12,1215.15 L 3373.15,1221.84 L 3386.46,1231.52 L 3397.47,1243.74 L 3405.7,1257.99 L 3410.78,1273.64 L 3412.5,1290 L 3410.78,1306.36 L 3405.7,1322.01 L 3397.47,1336.26 L 3386.46,1348.48 L 3373.15,1358.16 L 3358.12,1364.85 L 3342.03,1368.27 L 3325.57,1368.27 L 3309.48,1364.85 L 3301.92,1361.48 L 3163.62,1499.78 L 3163.62,1723.92 L 3315.66,1875.96 L 3320.54,1873.79 L 3333.42,1871.06 L 3346.58,1871.06 L 3359.46,1873.79 L 3371.49,1879.15 L 3382.15,1886.89 L 3390.96,1896.68 L 3397.55,1908.08 L 3401.61,1920.61 L 3402.99,1933.7 L 3401.61,1946.8 L 3397.55,1959.32 L 3390.96,1970.73 L 3382.15,1980.51 L 3371.5,1988.25 L 3363.62,1991.76 L 3363.62,2070 L 3385,2070 L 3385,2110 L 3352.44,2110 L 3347.3,2112.47 L 3342.47,2113.49 L 3337.53,2113.49 L 3332.7,2112.47 L 3327.56,2110 L 3295,2110 L 3295,2070 L 3316.38,2070 L 3316.38,1991.76 L 3308.51,1988.25 L 3297.85,1980.51 L 3289.04,1970.73 L 3282.45,1959.32 L 3278.39,1946.8 L 3277.01,1933.7 L 3278.39,1920.61 L 3282.09,1909.2 L 3123.3,1750.41 L 3120.36,1746.83 L 3118.18,1742.74 L 3116.83,1738.31 L 3116.38,1733.7 L 3116.38,1490 z " style="fill-opacity:1.000000;fill:rgb(5,23,88);stroke:rgb(0,0,0);stroke-width:2"/></g>
<g fill-rule="evenodd"><path d="M 5873.07,2178.19 L 5873.07,2123.07 L 6006.93,2123.07 L 6006.93,2256.93 L 5873.07,2256.93 L 5873.07,2201.81 L 4001.75,2201.81 L 4001.61,2203.1 L 3997.55,2215.62 L 3990.96,2227.02 L 3982.15,2236.81 L 3971.5,2244.55 L 3959.46,2249.91 L 3946.58,2252.65 L 3933.42,2252.65 L 3920.54,2249.91 L 3908.51,2244.55 L 3897.85,2236.81 L 3889.04,2227.02 L 3882.45,2215.62 L 3878.39,2203.1 L 3877.01,2190 L 3878.39,2176.9 L 3882.45,2164.38 L 3889.04,2152.98 L 3897.85,2143.19 L 3908.5,2135.45 L 3920.54,2130.09 L 3928.19,2128.47 L 3928.19,2094.9 L 3828.5,1995.2 L 3827.03,1993.41 L 3825.94,1991.37 L 3825.27,1989.16 L 3825.04,1986.85 L 3825.04,1901.54 L 3817.39,1899.91 L 3805.36,1894.55 L 3794.7,1886.81 L 3785.89,1877.02 L 3779.3,1865.62 L 3775.24,1853.1 L 3773.86,1840 L 3775.24,1826.9 L 3779.3,1814.38 L 3785.89,1802.98 L 3794.7,1793.19 L 3805.35,1785.45 L 3817.39,1780.09 L 3830.27,1777.35 L 3843.43,1777.35 L 3856.31,1780.09 L 3868.34,1785.45 L 3879,1793.19 L 3887.81,1802.98 L 3894.4,1814.38 L 3898.46,1826.9 L 3899.84,1840 L 3898.46,1853.1 L 3894.4,1865.62 L 3887.81,1877.02 L 3879,1886.81 L 3868.35,1894.55 L 3856.31,1899.91 L 3848.66,1901.53 L 3848.66,1981.96 L 3948.35,2081.65 L 3949.82,2083.44 L 3950.91,2085.48 L 3951.58,2087.7 L 3951.81,2090 L 3951.81,2128.46 L 3959.46,2130.09 L 3971.49,2135.45 L 3982.15,2143.19 L 3990.96,2152.98 L 3997.55,2164.38 L 4001.61,2176.9 L 4001.75,2178.19 L 5873.07,2178.19 z " style="fill-opacity:1.000000;fill:rgb(233,94,212);stroke:rgb(0,0,0);stroke-width:2"/></g>
<g fill-rule="evenodd"><path d="M 3351.81,2735.11 L 3494.89,2878.19 L 4128.41,2878.19 L 4129.02,2874.21 L 4133.45,2862.26 L 4140.19,2851.44 L 4148.97,2842.21 L 4159.43,2834.92 L 4171.14,2829.9 L 4183.63,2827.33 L 4190,2827.01 L 4202.68,2828.3 L 4214.84,2832.11 L 4225.98,2838.3 L 4235.66,2846.6 L 4243.46,2856.68 L 4249.07,2868.12 L 4252.26,2880.46 L 4252.91,2893.19 L 4250.98,2905.79 L 4246.55,2917.74 L 4239.81,2928.56 L 4231.03,2937.79 L 4220.57,2945.08 L 4208.86,2950.1 L 4196.37,2952.67 L 4190,2952.99 L 4177.32,2951.7 L 4165.16,2947.89 L 4154.02,2941.7 L 4144.34,2933.4 L 4136.54,2923.32 L 4130.93,2911.88 L 4128.33,2901.81 L 3490,2901.81 L 3487.69,2901.58 L 3485.48,2900.91 L 3483.44,2899.82 L 3481.65,2898.35 L 3331.65,2748.35 L 3330.18,2746.56 L 3329.09,2744.52 L 3328.42,2742.31 L 3328.19,2740 L 3328.19,2410 L 3295,2410 L 3295,2370 L 3385,2370 L 3385,2410 L 3351.81,2410 L 3351.81,2735.11 z " style="fill-opacity:1.000000;fill:rgb(171,178,205);stroke:rgb(0,0,0);stroke-width:2"/></g>
<g fill-rule="evenodd"><path d="M 3793.58,2610.18 L 4365.38,2610.18 L 4368.1,2601.79 L 4376.33,2587.54 L 4387.34,2575.32 L 4400.65,2565.64 L 4415.68,2558.95 L 4431.77,2555.53 L 4448.23,2555.53 L 4464.32,2558.95 L 4479.35,2565.64 L 4492.66,2575.32 L 4503.67,2587.54 L 4511.9,2601.79 L 4516.98,2617.44 L 4518.7,2633.8 L 4516.98,2650.16 L 4511.9,2665.81 L 4503.67,2680.06 L 4492.66,2692.28 L 4479.35,2701.96 L 4464.32,2708.65 L 4448.23,2712.07 L 4431.77,2712.07 L 4415.68,2708.65 L 4400.65,2701.96 L 4387.34,2692.28 L 4376.33,2680.06 L 4368.1,2665.81 L 4365.38,2657.42 L 3783.8,2657.42 L 3779.19,2656.97 L 3774.76,2655.62 L 3770.68,2653.44 L 3767.1,2650.5 L 3566.27,2449.68 L 3552.88,2452.65 L 3539.71,2452.65 L 3526.83,2449.91 L 3514.8,2444.55 L 3504.15,2436.81 L 3495.34,2427.02 L 3488.75,2415.62 L 3484.68,2403.1 L 3483.31,2390 L 3484.68,2376.9 L 3488.39,2365.5 L 3436.51,2313.62 L 3340,2313.62 L 3335.09,2313.11 L 3330.39,2311.58 L 3327.65,2310 L 3295,2310 L 3295,2270 L 3327.66,2270 L 3330.39,2268.42 L 3335.09,2266.9 L 3340,2266.38 L 3446.3,2266.38 L 3450.91,2266.83 L 3455.34,2268.18 L 3459.42,2270.36 L 3463,2273.3 L 3521.96,2332.26 L 3526.83,2330.09 L 3539.71,2327.35 L 3552.88,2327.35 L 3565.76,2330.09 L 3577.79,2335.45 L 3588.45,2343.19 L 3597.26,2352.98 L 3603.84,2364.38 L 3607.91,2376.9 L 3609.29,2390 L 3607.91,2403.1 L 3603.84,2415.62 L 3602.08,2418.68 L 3793.58,2610.18 z " style="fill-opacity:1.000000;fill:rgb(198,155,180);stroke:rgb(0,0,0);stroke-width:2"/></g>
<g fill-rule="evenodd"><path d="M 3646.3,2301.81 L 3643.99,2301.58 L 3641.78,2300.91 L 3639.74,2299.82 L 3637.95,2298.35 L 3581.47,2241.88 L 3577.79,2244.55 L 3565.76,2249.91 L 3552.88,2252.65 L 3539.71,2252.65 L 3526.83,2249.91 L 3514.8,2244.55 L 3504.15,2236.81 L 3495.34,2227.02 L 3488.75,2215.62 L 3484.68,2203.1 L 3484.55,2201.81 L 3385,2201.81 L 3385,2210 L 3295,2210 L 3295,2170 L 3385,2170 L 3385,2178.19 L 3484.55,2178.19 L 3484.68,2176.9 L 3488.75,2164.38 L 3495.34,2152.98 L 3504.15,2143.19 L 3514.8,2135.45 L 3526.83,2130.09 L 3534.49,2128.47 L 3534.49,2083.7 L 3534.71,2081.4 L 3535.39,2079.18 L 3536.48,2077.14 L 3537.95,2075.35 L 3628.19,1985.11 L 3628.19,1902.99 L 3577.01,1902.99 L 3577.01,1777.01 L 3702.99,1777.01 L 3702.99,1902.99 L 3651.81,1902.99 L 3651.81,1990 L 3651.58,1992.31 L 3650.91,1994.52 L 3649.82,1996.56 L 3648.35,1998.35 L 3558.11,2088.59 L 3558.11,2128.46 L 3565.76,2130.09 L 3577.79,2135.45 L 3588.45,2143.19 L 3597.26,2152.98 L 3603.84,2164.38 L 3607.91,2176.9 L 3609.29,2190 L 3607.91,2203.1 L 3603.84,2215.62 L 3598.27,2225.27 L 3651.19,2278.19 L 4128.25,2278.19 L 4128.39,2276.9 L 4132.45,2264.38 L 4139.04,2252.98 L 4147.85,2243.19 L 4158.5,2235.45 L 4170.54,2230.09 L 4183.42,2227.35 L 4196.58,2227.35 L 4209.46,2230.09 L 4221.49,2235.45 L 4232.15,2243.19 L 4240.96,2252.98 L 4247.55,2264.38 L 4251.61,2276.9 L 4252.99,2290 L 4251.61,2303.1 L 4247.55,2315.62 L 4240.96,2327.02 L 4232.15,2336.81 L 4221.5,2344.55 L 4209.46,2349.91 L 4196.58,2352.65 L 4183.42,2352.65 L 4170.54,2349.91 L 4158.51,2344.55 L 4147.85,2336.81 L 4139.04,2327.02 L 4132.45,2315.62 L 4128.39,2303.1 L 4128.25,2301.81 L 3646.3,2301.81 z " style="fill-opacity:1.000000;fill:rgb(84,17,14);stroke:rgb(0,0,0);stroke-width:2"/></g>
<g fill-rule="evenodd"><path d="M 4730.22,916.378 L 4882.09,764.504 L 4878.39,753.096 L 4877.01,740 L 4878.39,726.904 L 4882.45,714.38 L 4889.04,702.976 L 4897.85,693.188 L 4908.5,685.448 L 4920.54,680.092 L 4933.42,677.354 L 4946.58,677.354 L 4959.46,680.092 L 4971.49,685.448 L 4982.15,693.188 L 4990.96,702.976 L 4997.55,714.38 L 5001.61,726.904 L 5002.99,740 L 5001.61,753.096 L 4997.91,764.504 L 5149.78,916.378 L 5580.22,916.378 L 5773.3,723.298 L 5776.87,720.36 L 5780.96,718.178 L 5785.39,716.832 L 5790,716.378 L 5877.74,716.378 L 5879.91,710.526 L 5887.08,699.034 L 5896.41,689.218 L 5907.52,681.482 L 5919.97,676.142 L 5933.23,673.416 L 5940,673.072 L 5953.47,674.444 L 5966.39,678.496 L 5978.23,685.068 L 5988.51,693.89 L 5996.8,704.598 L 6002.76,716.756 L 6006.16,729.866 L 6006.84,743.388 L 6004.79,756.774 L 6000.09,769.474 L 5992.92,780.966 L 5983.59,790.782 L 5972.48,798.518 L 5960.03,803.858 L 5946.77,806.584 L 5940,806.928 L 5926.53,805.556 L 5913.61,801.504 L 5901.77,794.932 L 5891.49,786.11 L 5883.2,775.402 L 5877.43,763.622 L 5799.78,763.622 L 5606.7,956.704 L 5603.12,959.642 L 5599.04,961.826 L 5594.61,963.17 L 5590,963.622 L 5140,963.622 L 5135.39,963.17 L 5130.96,961.824 L 5126.88,959.642 L 5123.3,956.704 L 4964.33,797.74 L 4959.46,799.908 L 4946.58,802.646 L 4933.42,802.646 L 4920.54,799.908 L 4915.67,797.742 L 4756.7,956.704 L 4753.12,959.642 L 4749.04,961.826 L 4744.61,963.17 L 4740,963.622 L 4540,963.622 L 4535.39,963.17 L 4530.96,961.824 L 4526.88,959.642 L 4523.3,956.704 L 4423.3,856.704 L 4420.36,853.124 L 4418.18,849.04 L 4416.83,844.61 L 4416.38,840 L 4416.38,787.784 L 4412.5,786.056 L 4403.2,779.298 L 4395.51,770.754 L 4389.76,760.796 L 4386.2,749.86 L 4385,738.426 L 4386.2,726.992 L 4389.76,716.056 L 4395.51,706.098 L 4403.2,697.554 L 4412.5,690.796 L 4423.01,686.118 L 4434.25,683.728 L 4445.75,683.728 L 4456.99,686.118 L 4467.5,690.796 L 4476.8,697.554 L 4484.49,706.098 L 4490.24,716.056 L 4493.8,726.992 L 4495,738.426 L 4493.8,749.86 L 4490.24,760.796 L 4484.49,770.754 L 4476.8,779.298 L 4467.5,786.056 L 4463.62,787.782 L 4463.62,830.218 L 4549.78,916.378 L 4730.22,916.378 z " style="fill-opacity:1.000000;fill:rgb(130,116,65);stroke:rgb(0,0,0);stroke-width:2"/></g>
<g fill-rule="evenodd"><path d="M 4623.01,392.308 L 4612.5,387.63 L 4603.2,380.872 L 4595.51,372.328 L 4589.76,362.37 L 4586.2,351.434 L 4585,340 L 4586.2,328.566 L 4589.76,317.63 L 4595.51,307.672 L 4603.2,299.128 L 4612.5,292.37 L 4623.01,287.692 L 4634.25,285.302 L 4645.75,285.302 L 4656.99,287.692 L 4667.5,292.37 L 4676.8,299.128 L 4684.49,307.672 L 4689.52,316.378 L 4888.1,316.378 L 4888.75,314.38 L 4895.34,302.976 L 4904.15,293.188 L 4914.8,285.448 L 4926.83,280.092 L 4939.71,277.354 L 4952.88,277.354 L 4965.76,280.092 L 4970.63,282.26 L 5079.59,173.298 L 5083.17,170.36 L 5087.26,168.178 L 5091.69,166.832 L 5096.3,166.378 L 5640,166.378 L 5644.61,166.832 L 5649.04,168.178 L 5653.12,170.36 L 5656.7,173.298 L 5799.78,316.378 L 5873.07,316.378 L 5873.07,273.072 L 6006.93,273.072 L 6006.93,406.928 L 5873.07,406.928 L 5873.07,363.622 L 5790,363.622 L 5785.39,363.17 L 5780.96,361.824 L 5776.88,359.642 L 5773.3,356.704 L 5630.21,213.622 L 5106.08,213.622 L 5004.21,315.496 L 5007.91,326.904 L 5009.29,340 L 5007.91,353.096 L 5003.84,365.62 L 4997.26,377.024 L 4988.45,386.812 L 4977.79,394.552 L 4965.76,399.908 L 4952.88,402.646 L 4939.71,402.646 L 4926.83,399.908 L 4914.8,394.552 L 4904.15,386.812 L 4895.34,377.024 L 4888.75,365.62 L 4888.1,363.622 L 4689.52,363.622 L 4684.49,372.328 L 4676.8,380.872 L 4667.5,387.63 L 4656.99,392.308 L 4645.75,394.698 L 4634.25,394.698 L 4623.01,392.308 z " style="fill-opacity:1.000000;fill:rgb(33,61,220);stroke:rgb(0,0,0);stroke-width:2"/></g>
</svg>
