<?xml version="1.0" standalone="no"?>
<!DOCTYPE svg PUBLIC "-//W3C//DTD SVG 1.1//EN"
"http://www.w3.org/Graphics/SVG/1.1/DTD/svg11.dtd">
<svg width="5433" height="2651" viewBox="0 0 5433 2651" version="1.1"
xmlns="http://www.w3.org/2000/svg"
xmlns:xlink="http://www.w3.org/1999/xlink">
<g fill-rule="evenodd"><path d="M 1645.37,123.119 L 1643.65,139.479 L 1638.57,155.124 L 1630.34,169.37 L 1619.33,181.594 L 1606.02,191.265 L 1591,197.956 L 1574.91,201.375 L 1558.46,201.375 L 1542.37,197.956 L 1527.34,191.265 L 1514.03,181.594 L 1503.02,169.37 L 1494.8,155.124 L 1489.71,139.479 L 1487.99,123.119 L 1489.71,106.76 L 1494.8,91.1145 L 1503.02,76.8687 L 1514.03,64.6447 L 1527.34,54.9742 L 1542.37,48.2832 L 1558.46,44.8638 L 1574.91,44.8638 L 1591,48.2832 L 1606.02,54.9742 L 1619.33,64.6447 L 1630.34,76.8687 L 1638.57,91.1145 L 1643.65,106.76 L 1645.37,123.119 z " style="fill-opacity:1.000000;fill:rgb(103,198,105);stroke:rgb(0,0,0);stroke-width:2"/></g>
<g fill-rule="evenodd"><path d="M 1645.37,922.993 L 1643.65,939.353 L 1638.57,954.998 L 1630.34,969.244 L 1619.33,981.468 L 1606.02,991.139 L 1591,997.83 L 1574.91,1001.25 L 1558.46,1001.25 L 1542.37,997.83 L 1527.34,991.139 L 1514.03,981.468 L 1503.02,969.244 L 1494.8,954.998 L 1489.71,939.353 L 1487.99,922.993 L 1489.71,906.634 L 1494.8,890.988 L 1503.02,876.743 L 1514.03,864.519 L 1527.34,854.848 L 1542.37,848.157 L 1558.46,844.738 L 1574.91,844.738 L 1591,848.157 L 1606.02,854.848 L 1619.33,864.519 L 1630.34,876.743 L 1638.57,890.988 L 1643.65,906.634 L 1645.37,922.993 z " style="fill-opacity:1.000000;fill:rgb(115,81,255);stroke:rgb(0,0,0);stroke-width:2"/></g>
<g fill-rule="evenodd"><path d="M 1845.34,1772.86 L 1843.62,1789.22 L 1838.53,1804.86 L 1830.31,1819.11 L 1819.3,1831.33 L 1805.99,1841 L 1790.96,1847.7 L 1774.87,1851.12 L 1758.42,1851.12 L 1742.34,1847.7 L 1727.31,1841 L 1714,1831.33 L 1702.99,1819.11 L 1694.76,1804.86 L 1689.68,1789.22 L 1687.96,1772.86 L 1689.68,1756.5 L 1694.76,1740.85 L 1702.99,1726.61 L 1714,1714.38 L 1727.31,1704.71 L 1742.34,1698.02 L 1758.42,1694.6 L 1774.87,1694.6 L 1790.96,1698.02 L 1805.99,1704.71 L 1819.3,1714.38 L 1830.31,1726.61 L 1838.53,1740.85 L 1843.62,1756.5 L 1845.34,1772.86 z " style="fill-opacity:1.000000;fill:rgb(74,236,41);stroke:rgb(0,0,0);stroke-width:2"/></g>
<g fill-rule="evenodd"><path d="M 1774.87,2650.99 L 1758.42,2650.99 L 1742.34,2647.57 L 1727.31,2640.88 L 1714,2631.21 L 1702.99,2618.98 L 1694.76,2604.74 L 1689.68,2589.09 L 1687.96,2572.73 L 1689.68,2556.37 L 1694.76,2540.73 L 1702.99,2526.48 L 1714,2514.26 L 1727.31,2504.59 L 1742.34,2497.9 L 1758.42,2494.48 L 1774.87,2494.48 L 1790.96,2497.9 L 1805.99,2504.59 L 1819.3,2514.26 L 1830.31,2526.48 L 1838.53,2540.73 L 1843.62,2556.37 L 1845.34,2572.73 L 1843.62,2589.09 L 1838.53,2604.74 L 1830.31,2618.98 L 1819.3,2631.21 L 1805.99,2640.88 L 1790.96,2647.57 L 1774.87,2650.99 z " style="fill-opacity:1.000000;fill:rgb(205,186,171);stroke:rgb(0,0,0);stroke-width:2"/></g>
<g fill-rule="evenodd"><path d="M 2945.16,123.119 L 2943.44,139.479 L 2938.36,155.124 L 2930.13,169.37 L 2919.13,181.594 L 2905.82,191.265 L 2890.79,197.956 L 2874.7,201.375 L 2858.25,201.375 L 2842.16,197.956 L 2827.13,191.265 L 2813.82,181.594 L 2802.82,169.37 L 2794.59,155.124 L 2789.51,139.479 L 2787.79,123.119 L 2789.51,106.76 L 2794.59,91.1145 L 2802.82,76.8687 L 2813.82,64.6447 L 2827.13,54.9742 L 2842.16,48.2832 L 2858.25,44.8638 L 2874.7,44.8638 L 2890.79,48.2832 L 2905.82,54.9742 L 2919.13,64.6447 L 2930.13,76.8687 L 2938.36,91.1145 L 2943.44,106.76 L 2945.16,123.119 z " style="fill-opacity:1.000000;fill:rgb(242,251,227);stroke:rgb(0,0,0);stroke-width:2"/></g>
<g fill-rule="evenodd"><path d="M 2945.16,922.993 L 2943.44,939.353 L 2938.36,954.998 L 2930.13,969.244 L 2919.13,981.468 L 2905.82,991.139 L 2890.79,997.83 L 2874.7,1001.25 L 2858.25,1001.25 L 2842.16,997.83 L 2827.13,991.139 L 2813.82,981.468 L 2802.82,969.244 L 2794.59,954.998 L 2789.51,939.353 L 2787.79,922.993 L 2789.51,906.634 L 2794.59,890.988 L 2802.82,876.743 L 2813.82,864.519 L 2827.13,854.848 L 2842.16,848.157 L 2858.25,844.738 L 2874.7,844.738 L 2890.79,848.157 L 2905.82,854.848 L 2919.13,864.519 L 2930.13,876.743 L 2938.36,890.988 L 2943.44,906.634 L 2945.16,922.993 z " style="fill-opacity:1.000000;fill:rgb(70,124,194);stroke:rgb(0,0,0);stroke-width:2"/></g>
<g fill-rule="evenodd"><path d="M 3145.13,1772.86 L 3143.41,1789.22 L 3138.33,1804.86 L 3130.1,1819.11 L 3119.1,1831.33 L 3105.79,1841 L 3090.76,1847.7 L 3074.67,1851.12 L 3058.22,1851.12 L 3042.13,1847.7 L 3027.1,1841 L 3013.79,1831.33 L 3002.79,1819.11 L 2994.56,1804.86 L 2989.48,1789.22 L 2987.76,1772.86 L 2989.48,1756.5 L 2994.56,1740.85 L 3002.79,1726.61 L 3013.79,1714.38 L 3027.1,1704.71 L 3042.13,1698.02 L 3058.22,1694.6 L 3074.67,1694.6 L 3090.76,1698.02 L 3105.79,1704.71 L 3119.1,1714.38 L 3130.1,1726.61 L 3138.33,1740.85 L 3143.41,1756.5 L 3145.13,1772.86 z " style="fill-opacity:1.000000;fill:rgb(84,248,27);stroke:rgb(0,0,0);stroke-width:2"/></g>
<g fill-rule="evenodd"><path d="M 3074.67,2650.99 L 3058.22,2650.99 L 3042.13,2647.57 L 3027.1,2640.88 L 3013.79,2631.21 L 3002.79,2618.98 L 2994.56,2604.74 L 2989.48,2589.09 L 2987.76,2572.73 L 2989.48,2556.37 L 2994.56,2540.73 L 3002.79,2526.48 L 3013.79,2514.26 L 3027.1,2504.59 L 3042.13,2497.9 L 3058.22,2494.48 L 3074.67,2494.48 L 3090.76,2497.9 L 3105.79,2504.59 L 3119.1,2514.26 L 3130.1,2526.48 L 3138.33,2540.73 L 3143.41,2556.37 L 3145.13,2572.73 L 3143.41,2589.09 L 3138.33,2604.74 L 3130.1,2618.98 L 3119.1,2631.21 L 3105.79,2640.88 L 3090.76,2647.57 L 3074.67,2650.99 z " style="fill-opacity:1.000000;fill:rgb(232,231,141);stroke:rgb(0,0,0);stroke-width:2"/></g>
<g fill-rule="evenodd"><path d="M 5433,1999.7 L 5433,2133.53 L 5299.17,2133.53 L 5299.17,1999.7 L 5433,1999.7 z " style="fill-opacity:1.000000;fill:rgb(118,90,46);stroke:rgb(0,0,0);stroke-width:2"/></g>
<g fill-rule="evenodd"><path d="M 5366.08,2333.5 L 5352.61,2332.13 L 5339.69,2328.08 L 5327.86,2321.51 L 5317.58,2312.68 L 5309.29,2301.98 L 5303.33,2289.82 L 5299.94,2276.71 L 5299.25,2263.19 L 5301.3,2249.81 L 5306,2237.11 L 5313.17,2225.62 L 5322.5,2215.81 L 5333.61,2208.07 L 5346.05,2202.73 L 5359.31,2200.01 L 5366.08,2199.66 L 5379.55,2201.04 L 5392.47,2205.09 L 5404.31,2211.66 L 5414.58,2220.48 L 5422.87,2231.19 L 5428.83,2243.34 L 5432.23,2256.45 L 5432.91,2269.97 L 5430.86,2283.35 L 5426.16,2296.05 L 5419,2307.54 L 5409.67,2317.36 L 5398.56,2325.09 L 5386.11,2330.43 L 5372.85,2333.16 L 5366.08,2333.5 z " style="fill-opacity:1.000000;fill:rgb(99,51,159);stroke:rgb(0,0,0);stroke-width:2"/></g>
<g fill-rule="evenodd"><path d="M 5366.08,2533.47 L 5352.61,2532.1 L 5339.69,2528.04 L 5327.86,2521.47 L 5317.58,2512.65 L 5309.29,2501.95 L 5303.33,2489.79 L 5299.94,2476.68 L 5299.25,2463.16 L 5301.3,2449.78 L 5306,2437.08 L 5313.17,2425.59 L 5322.5,2415.78 L 5333.61,2408.04 L 5346.05,2402.7 L 5359.31,2399.98 L 5366.08,2399.63 L 5379.55,2401 L 5392.47,2405.06 L 5404.31,2411.63 L 5414.58,2420.45 L 5422.87,2431.15 L 5428.83,2443.31 L 5432.23,2456.42 L 5432.91,2469.94 L 5430.86,2483.32 L 5426.16,2496.02 L 5419,2507.51 L 5409.67,2517.32 L 5398.56,2525.06 L 5386.11,2530.4 L 5372.85,2533.12 L 5366.08,2533.47 z " style="fill-opacity:1.000000;fill:rgb(201,154,102);stroke:rgb(0,0,0);stroke-width:2"/></g>
<g fill-rule="evenodd"><path d="M 949.85,1033.7 L 949.85,899.869 L 1083.69,899.869 L 1083.69,1033.7 L 949.85,1033.7 z " style="fill-opacity:1.000000;fill:rgb(50,13,183);stroke:rgb(0,0,0);stroke-width:2"/></g>
<g fill-rule="evenodd"><path d="M 1216.74,1033.7 L 1203.27,1032.33 L 1190.35,1028.28 L 1178.51,1021.71 L 1168.24,1012.89 L 1159.95,1002.18 L 1153.99,990.027 L 1150.59,976.919 L 1149.9,963.399 L 1151.96,950.015 L 1156.66,937.317 L 1163.82,925.827 L 1173.15,916.013 L 1184.26,908.278 L 1196.71,902.939 L 1209.97,900.213 L 1216.74,899.869 L 1230.21,901.241 L 1243.12,905.292 L 1254.96,911.863 L 1265.24,920.684 L 1273.53,931.39 L 1279.49,943.546 L 1282.88,956.654 L 1283.57,970.174 L 1281.52,983.558 L 1276.81,996.256 L 1269.65,1007.75 L 1260.32,1017.56 L 1249.21,1025.3 L 1236.77,1030.63 L 1223.51,1033.36 L 1216.74,1033.7 z " style="fill-opacity:1.000000;fill:rgb(49,88,163);stroke:rgb(0,0,0);stroke-width:2"/></g>
<g fill-rule="evenodd"><path d="M 4.54747e-13,0.0108383 L 133.835,0.0108383 L 133.835,133.846 L 4.54747e-13,133.846 L 4.54747e-13,0.0108383 z " style="fill-opacity:1.000000;fill:rgb(90,37,93);stroke:rgb(0,0,0);stroke-width:2"/></g>
<g fill-rule="evenodd"><path d="M 66.9175,333.814 L 53.4476,332.442 L 40.5296,328.391 L 28.6915,321.82 L 18.4171,313 L 10.1284,302.293 L 4.16734,290.137 L 0.771878,277.029 L 0.0859865,263.509 L 2.13766,250.125 L 6.83892,237.427 L 14.0018,225.937 L 23.3303,216.123 L 34.4426,208.388 L 46.8866,203.049 L 60.1485,200.323 L 66.9175,199.979 L 80.3873,201.351 L 93.3053,205.402 L 105.143,211.973 L 115.418,220.794 L 123.707,231.5 L 129.668,243.656 L 133.063,256.764 L 133.749,270.284 L 131.697,283.668 L 126.996,296.366 L 119.833,307.856 L 110.505,317.671 L 99.3923,325.406 L 86.9483,330.745 L 73.6864,333.47 L 66.9175,333.814 z " style="fill-opacity:1.000000;fill:rgb(5,23,88);stroke:rgb(0,0,0);stroke-width:2"/></g>
<g fill-rule="evenodd"><path d="M 66.9175,533.785 L 53.4476,532.413 L 40.5296,528.362 L 28.6915,521.791 L 18.4171,512.97 L 10.1284,502.264 L 4.16734,490.108 L 0.771878,477 L 0.0859865,463.48 L 2.13766,450.096 L 6.83892,437.398 L 14.0018,425.908 L 23.3303,416.093 L 34.4426,408.359 L 46.8866,403.019 L 60.1485,400.294 L 66.9175,399.95 L 80.3873,401.322 L 93.3053,405.373 L 105.143,411.944 L 115.418,420.765 L 123.707,431.471 L 129.668,443.627 L 133.063,456.735 L 133.749,470.255 L 131.697,483.639 L 126.996,496.337 L 119.833,507.827 L 110.505,517.641 L 99.3923,525.376 L 86.9483,530.715 L 73.6864,533.441 L 66.9175,533.785 z " style="fill-opacity:1.000000;fill:rgb(233,94,212);stroke:rgb(0,0,0);stroke-width:2"/></g>
<g fill-rule="evenodd"><path d="M 4.54747e-13,1399.79 L 133.835,1399.79 L 133.835,1533.63 L 4.54747e-13,1533.63 L 4.54747e-13,1399.79 z " style="fill-opacity:1.000000;fill:rgb(171,178,205);stroke:rgb(0,0,0);stroke-width:2"/></g>
<g fill-rule="evenodd"><path d="M 66.9175,1733.59 L 53.4476,1732.22 L 40.5296,1728.17 L 28.6915,1721.6 L 18.4171,1712.78 L 10.1284,1702.07 L 4.16734,1689.92 L 0.771878,1676.81 L 0.0859865,1663.29 L 2.13766,1649.9 L 6.83892,1637.21 L 14.0018,1625.72 L 23.3303,1615.9 L 34.4426,1608.17 L 46.8866,1602.83 L 60.1485,1600.1 L 66.9175,1599.76 L 80.3873,1601.13 L 93.3053,1605.18 L 105.143,1611.75 L 115.418,1620.57 L 123.707,1631.28 L 129.668,1643.44 L 133.063,1656.54 L 133.749,1670.06 L 131.697,1683.45 L 126.996,1696.15 L 119.833,1707.64 L 110.505,1717.45 L 99.3923,1725.19 L 86.9483,1730.52 L 73.6864,1733.25 L 66.9175,1733.59 z " style="fill-opacity:1.000000;fill:rgb(198,155,180);stroke:rgb(0,0,0);stroke-width:2"/></g>
<g fill-rule="evenodd"><path d="M 5433,1299.81 L 5433,1433.64 L 5299.17,1433.64 L 5299.17,1299.81 L 5433,1299.81 z " style="fill-opacity:1.000000;fill:rgb(84,17,14);stroke:rgb(0,0,0);stroke-width:2"/></g>
<g fill-rule="evenodd"><path d="M 5366.08,1633.61 L 5352.61,1632.24 L 5339.69,1628.19 L 5327.86,1621.62 L 5317.58,1612.79 L 5309.29,1602.09 L 5303.33,1589.93 L 5299.94,1576.82 L 5299.25,1563.3 L 5301.3,1549.92 L 5306,1537.22 L 5313.17,1525.73 L 5322.5,1515.92 L 5333.61,1508.18 L 5346.05,1502.84 L 5359.31,1500.12 L 5366.08,1499.77 L 5379.55,1501.15 L 5392.47,1505.2 L 5404.31,1511.77 L 5414.58,1520.59 L 5422.87,1531.3 L 5428.83,1543.45 L 5432.23,1556.56 L 5432.91,1570.08 L 5430.86,1583.46 L 5426.16,1596.16 L 5419,1607.65 L 5409.67,1617.47 L 5398.56,1625.2 L 5386.11,1630.54 L 5372.85,1633.27 L 5366.08,1633.61 z " style="fill-opacity:1.000000;fill:rgb(130,116,65);stroke:rgb(0,0,0);stroke-width:2"/></g>
<g fill-rule="evenodd"><path d="M 2026.61,1066.77 L 2025.3,1079.24 L 2021.42,1091.17 L 2015.15,1102.03 L 2006.76,1111.35 L 1996.61,1118.72 L 1985.16,1123.82 L 1972.89,1126.43 L 1960.35,1126.43 L 1948.08,1123.82 L 1936.62,1118.72 L 1926.48,1111.35 L 1918.09,1102.03 L 1911.81,1091.17 L 1907.94,1079.24 L 1906.63,1066.77 L 1907.94,1054.3 L 1911.81,1042.37 L 1918.09,1031.51 L 1926.48,1022.19 L 1936.62,1014.82 L 1948.08,1009.72 L 1960.35,1007.11 L 1972.89,1007.11 L 1985.16,1009.72 L 1996.61,1014.82 L 2006.76,1022.19 L 2015.15,1031.51 L 2021.42,1042.37 L 2025.3,1054.3 L 2026.61,1066.77 z " style="fill-opacity:1.000000;fill:rgb(33,61,220);stroke:rgb(0,0,0);stroke-width:2"/></g>
<g fill-rule="evenodd"><path d="M 2026.61,1866.64 L 2025.3,1879.12 L 2021.42,1891.04 L 2015.15,1901.91 L 2006.76,1911.23 L 1996.61,1918.6 L 1985.16,1923.7 L 1972.89,1926.31 L 1960.35,1926.31 L 1948.08,1923.7 L 1936.62,1918.6 L 1926.48,1911.23 L 1918.09,1901.91 L 1911.81,1891.04 L 1907.94,1879.12 L 1906.63,1866.64 L 1907.94,1854.17 L 1911.81,1842.24 L 1918.09,1831.38 L 1926.48,1822.06 L 1936.62,1814.69 L 1948.08,1809.59 L 1960.35,1806.98 L 1972.89,1806.98 L 1985.16,1809.59 L 1996.61,1814.69 L 2006.76,1822.06 L 2015.15,1831.38 L 2021.42,1842.24 L 2025.3,1854.17 L 2026.61,1866.64 z " style="fill-opacity:1.000000;fill:rgb(135,112,233);stroke:rgb(0,0,0);stroke-width:2"/></g>
<g fill-rule="evenodd"><path d="M 3326.4,1066.77 L 3325.09,1079.24 L 3321.22,1091.17 L 3314.95,1102.03 L 3306.55,1111.35 L 3296.41,1118.72 L 3284.95,1123.82 L 3272.68,1126.43 L 3260.14,1126.43 L 3247.88,1123.82 L 3236.42,1118.72 L 3226.27,1111.35 L 3217.88,1102.03 L 3211.61,1091.17 L 3207.73,1079.24 L 3206.42,1066.77 L 3207.73,1054.3 L 3211.61,1042.37 L 3217.88,1031.51 L 3226.27,1022.19 L 3236.42,1014.82 L 3247.88,1009.72 L 3260.14,1007.11 L 3272.68,1007.11 L 3284.95,1009.72 L 3296.41,1014.82 L 3306.55,1022.19 L 3314.95,1031.51 L 3321.22,1042.37 L 3325.09,1054.3 L 3326.4,1066.77 z " style="fill-opacity:1.000000;fill:rgb(62,161,65);stroke:rgb(0,0,0);stroke-width:2"/></g>
<g fill-rule="evenodd"><path d="M 3326.4,1866.64 L 3325.09,1879.12 L 3321.22,1891.04 L 3314.95,1901.91 L 3306.55,1911.23 L 3296.41,1918.6 L 3284.95,1923.7 L 3272.68,1926.31 L 3260.14,1926.31 L 3247.88,1923.7 L 3236.42,1918.6 L 3226.27,1911.23 L 3217.88,1901.91 L 3211.61,1891.04 L 3207.73,1879.12 L 3206.42,1866.64 L 3207.73,1854.17 L 3211.61,1842.24 L 3217.88,1831.38 L 3226.27,1822.06 L 3236.42,1814.69 L 3247.88,1809.59 L 3260.14,1806.98 L 3272.68,1806.98 L 3284.95,1809.59 L 3296.41,1814.69 L 3306.55,1822.06 L 3314.95,1831.38 L 3321.22,1842.24 L 3325.09,1854.17 L 3326.4,1866.64 z " style="fill-opacity:1.000000;fill:rgb(225,252,103);stroke:rgb(0,0,0);stroke-width:2"/></g>
<g fill-rule="evenodd"><path d="M 5129.11,2066.61 L 5127.73,2079.71 L 5123.67,2092.23 L 5117.08,2103.63 L 5108.27,2113.42 L 5097.62,2121.16 L 5085.59,2126.51 L 5072.71,2129.25 L 5059.55,2129.25 L 5046.67,2126.51 L 5034.64,2121.16 L 5023.99,2113.42 L 5015.18,2103.63 L 5008.59,2092.23 L 5004.53,2079.71 L 5003.15,2066.61 L 5004.53,2053.52 L 5008.59,2041 L 5015.18,2029.6 L 5023.99,2019.81 L 5034.64,2012.07 L 5046.67,2006.71 L 5059.55,2003.98 L 5072.71,2003.98 L 5085.59,2006.71 L 5097.62,2012.07 L 5108.27,2019.81 L 5117.08,2029.6 L 5123.67,2041 L 5127.73,2053.52 L 5129.11,2066.61 z " style="fill-opacity:1.000000;fill:rgb(62,1,126);stroke:rgb(0,0,0);stroke-width:2"/></g>
<g fill-rule="evenodd"><path d="M 4932.29,2066.61 L 4930.91,2079.71 L 4926.85,2092.23 L 4920.26,2103.63 L 4911.45,2113.42 L 4900.8,2121.16 L 4888.77,2126.51 L 4875.89,2129.25 L 4862.73,2129.25 L 4849.85,2126.51 L 4837.82,2121.16 L 4827.17,2113.42 L 4818.36,2103.63 L 4811.77,2092.23 L 4807.7,2079.71 L 4806.33,2066.61 L 4807.7,2053.52 L 4811.77,2041 L 4818.36,2029.6 L 4827.17,2019.81 L 4837.82,2012.07 L 4849.85,2006.71 L 4862.73,2003.98 L 4875.89,2003.98 L 4888.77,2006.71 L 4900.8,2012.07 L 4911.45,2019.81 L 4920.26,2029.6 L 4926.85,2041 L 4930.91,2053.52 L 4932.29,2066.61 z " style="fill-opacity:1.000000;fill:rgb(151,234,220);stroke:rgb(0,0,0);stroke-width:2"/></g>
<g fill-rule="evenodd"><path d="M 4929.14,2466.55 L 4927.77,2479.64 L 4923.7,2492.17 L 4917.11,2503.57 L 4908.3,2513.35 L 4897.65,2521.09 L 4885.62,2526.45 L 4872.74,2529.19 L 4859.58,2529.19 L 4846.7,2526.45 L 4834.67,2521.09 L 4824.02,2513.35 L 4815.21,2503.57 L 4808.62,2492.17 L 4804.56,2479.64 L 4803.18,2466.55 L 4804.56,2453.46 L 4808.62,2440.93 L 4815.21,2429.53 L 4824.02,2419.75 L 4834.67,2412.01 L 4846.7,2406.65 L 4859.58,2403.91 L 4872.74,2403.91 L 4885.62,2406.65 L 4897.65,2412.01 L 4908.3,2419.75 L 4917.11,2429.53 L 4923.7,2440.93 L 4927.77,2453.46 L 4929.14,2466.55 z " style="fill-opacity:1.000000;fill:rgb(107,150,143);stroke:rgb(0,0,0);stroke-width:2"/></g>
<g fill-rule="evenodd"><path d="M 5125.96,2466.55 L 5124.58,2479.64 L 5120.52,2492.17 L 5113.93,2503.57 L 5105.12,2513.35 L 5094.47,2521.09 L 5082.44,2526.45 L 5069.56,2529.19 L 5056.4,2529.19 L 5043.52,2526.45 L 5031.49,2521.09 L 5020.84,2513.35 L 5012.03,2503.57 L 5005.44,2492.17 L 5001.38,2479.64 L 5000,2466.55 L 5001.38,2453.46 L 5005.44,2440.93 L 5012.03,2429.53 L 5020.84,2419.75 L 5031.49,2412.01 L 5043.52,2406.65 L 5056.4,2403.91 L 5069.56,2403.91 L 5082.44,2406.65 L 5094.47,2412.01 L 5105.12,2419.75 L 5113.93,2429.53 L 5120.52,2440.93 L 5124.58,2453.46 L 5125.96,2466.55 z " style="fill-opacity:1.000000;fill:rgb(56,92,42);stroke:rgb(0,0,0);stroke-width:2"/></g>
<g fill-rule="evenodd"><path d="M 3929.3,2066.61 L 3927.92,2079.71 L 3923.86,2092.23 L 3917.27,2103.63 L 3908.46,2113.42 L 3897.81,2121.16 L 3885.78,2126.51 L 3872.9,2129.25 L 3859.74,2129.25 L 3846.86,2126.51 L 3834.83,2121.16 L 3824.18,2113.42 L 3815.37,2103.63 L 3808.78,2092.23 L 3804.71,2079.71 L 3803.34,2066.61 L 3804.71,2053.52 L 3808.78,2041 L 3815.37,2029.6 L 3824.18,2019.81 L 3834.83,2012.07 L 3846.86,2006.71 L 3859.74,2003.98 L 3872.9,2003.98 L 3885.78,2006.71 L 3897.81,2012.07 L 3908.46,2019.81 L 3917.27,2029.6 L 3923.86,2041 L 3927.92,2053.52 L 3929.3,2066.61 z " style="fill-opacity:1.000000;fill:rgb(236,176,59);stroke:rgb(0,0,0);stroke-width:2"/></g>
<g fill-rule="evenodd"><path d="M 4126.12,2066.61 L 4124.74,2079.71 L 4120.67,2092.23 L 4114.09,2103.63 L 4105.28,2113.42 L 4094.63,2121.16 L 4082.6,2126.51 L 4069.72,2129.25 L 4056.55,2129.25 L 4043.68,2126.51 L 4031.65,2121.16 L 4021,2113.42 L 4012.19,2103.63 L 4005.6,2092.23 L 4001.53,2079.71 L 4000.16,2066.61 L 4001.53,2053.52 L 4005.6,2041 L 4012.19,2029.6 L 4021,2019.81 L 4031.65,2012.07 L 4043.68,2006.71 L 4056.55,2003.98 L 4069.72,2003.98 L 4082.6,2006.71 L 4094.63,2012.07 L 4105.28,2019.81 L 4114.09,2029.6 L 4120.67,2041 L 4124.74,2053.52 L 4126.12,2066.61 z " style="fill-opacity:1.000000;fill:rgb(251,50,175);stroke:rgb(0,0,0);stroke-width:2"/></g>
<g fill-rule="evenodd"><path d="M 4129.27,2466.55 L 4127.89,2479.64 L 4123.82,2492.17 L 4117.24,2503.57 L 4108.43,2513.35 L 4097.78,2521.09 L 4085.75,2526.45 L 4072.87,2529.19 L 4059.7,2529.19 L 4046.83,2526.45 L 4034.8,2521.09 L 4024.15,2513.35 L 4015.34,2503.57 L 4008.75,2492.17 L 4004.68,2479.64 L 4003.31,2466.55 L 4004.68,2453.46 L 4008.75,2440.93 L 4015.34,2429.53 L 4024.15,2419.75 L 4034.8,2412.01 L 4046.83,2406.65 L 4059.7,2403.91 L 4072.87,2403.91 L 4085.75,2406.65 L 4097.78,2412.01 L 4108.43,2419.75 L 4117.24,2429.53 L 4123.82,2440.93 L 4127.89,2453.46 L 4129.27,2466.55 z " style="fill-opacity:1.000000;fill:rgb(60,84,236);stroke:rgb(0,0,0);stroke-width:2"/></g>
<g fill-rule="evenodd"><path d="M 3932.45,2466.55 L 3931.07,2479.64 L 3927,2492.17 L 3920.42,2503.57 L 3911.61,2513.35 L 3900.96,2521.09 L 3888.93,2526.45 L 3876.05,2529.19 L 3862.88,2529.19 L 3850.01,2526.45 L 3837.98,2521.09 L 3827.32,2513.35 L 3818.51,2503.57 L 3811.93,2492.17 L 3807.86,2479.64 L 3806.48,2466.55 L 3807.86,2453.46 L 3811.93,2440.93 L 3818.51,2429.53 L 3827.32,2419.75 L 3837.98,2412.01 L 3850.01,2406.65 L 3862.88,2403.91 L 3876.05,2403.91 L 3888.93,2406.65 L 3900.96,2412.01 L 3911.61,2419.75 L 3920.42,2429.53 L 3927,2440.93 L 3931.07,2453.46 L 3932.45,2466.55 z " style="fill-opacity:1.000000;fill:rgb(24,219,92);stroke:rgb(0,0,0);stroke-width:2"/></g>
<g fill-rule="evenodd"><path d="M 729.805,1466.71 L 728.427,1479.8 L 724.36,1492.32 L 717.775,1503.73 L 708.964,1513.51 L 698.314,1521.25 L 686.284,1526.61 L 673.406,1529.34 L 660.24,1529.34 L 647.362,1526.61 L 635.334,1521.25 L 624.682,1513.51 L 615.871,1503.73 L 609.286,1492.32 L 605.219,1479.8 L 603.841,1466.71 L 605.219,1453.61 L 609.286,1441.09 L 615.871,1429.69 L 624.682,1419.9 L 635.332,1412.16 L 647.362,1406.81 L 660.24,1404.07 L 673.406,1404.07 L 686.284,1406.81 L 698.312,1412.16 L 708.964,1419.9 L 717.775,1429.69 L 724.36,1441.09 L 728.427,1453.61 L 729.805,1466.71 z " style="fill-opacity:1.000000;fill:rgb(2,26,254);stroke:rgb(0,0,0);stroke-width:2"/></g>
<g fill-rule="evenodd"><path d="M 532.984,1466.71 L 531.606,1479.8 L 527.539,1492.32 L 520.954,1503.73 L 512.143,1513.51 L 501.493,1521.25 L 489.463,1526.61 L 476.585,1529.34 L 463.419,1529.34 L 450.541,1526.61 L 438.513,1521.25 L 427.861,1513.51 L 419.05,1503.73 L 412.465,1492.32 L 408.398,1479.8 L 407.02,1466.71 L 408.398,1453.61 L 412.465,1441.09 L 419.05,1429.69 L 427.861,1419.9 L 438.511,1412.16 L 450.541,1406.81 L 463.419,1404.07 L 476.585,1404.07 L 489.463,1406.81 L 501.491,1412.16 L 512.143,1419.9 L 520.954,1429.69 L 527.539,1441.09 L 531.606,1453.61 L 532.984,1466.71 z " style="fill-opacity:1.000000;fill:rgb(67,251,250);stroke:rgb(0,0,0);stroke-width:2"/></g>
<g fill-rule="evenodd"><path d="M 1829.63,1166.76 L 1828.25,1179.85 L 1824.19,1192.37 L 1817.6,1203.77 L 1808.79,1213.56 L 1798.14,1221.3 L 1786.11,1226.65 L 1773.23,1229.39 L 1760.07,1229.39 L 1747.19,1226.65 L 1735.16,1221.3 L 1724.51,1213.56 L 1715.7,1203.77 L 1709.11,1192.37 L 1705.05,1179.85 L 1703.67,1166.76 L 1705.05,1153.66 L 1709.11,1141.14 L 1715.7,1129.74 L 1724.51,1119.95 L 1735.16,1112.21 L 1747.19,1106.86 L 1760.07,1104.12 L 1773.23,1104.12 L 1786.11,1106.86 L 1798.14,1112.21 L 1808.79,1119.95 L 1817.6,1129.74 L 1824.19,1141.14 L 1828.25,1153.66 L 1829.63,1166.76 z " style="fill-opacity:1.000000;fill:rgb(170,58,251);stroke:rgb(0,0,0);stroke-width:2"/></g>
<g fill-rule="evenodd"><path d="M 1632.81,1166.76 L 1631.43,1179.85 L 1627.37,1192.37 L 1620.78,1203.77 L 1611.97,1213.56 L 1601.32,1221.3 L 1589.29,1226.65 L 1576.41,1229.39 L 1563.25,1229.39 L 1550.37,1226.65 L 1538.34,1221.3 L 1527.69,1213.56 L 1518.88,1203.77 L 1512.29,1192.37 L 1508.22,1179.85 L 1506.85,1166.76 L 1508.22,1153.66 L 1512.29,1141.14 L 1518.88,1129.74 L 1527.69,1119.95 L 1538.34,1112.21 L 1550.37,1106.86 L 1563.25,1104.12 L 1576.41,1104.12 L 1589.29,1106.86 L 1601.32,1112.21 L 1611.97,1119.95 L 1620.78,1129.74 L 1627.37,1141.14 L 1631.43,1153.66 L 1632.81,1166.76 z " style="fill-opacity:1.000000;fill:rgb(41,209,230);stroke:rgb(0,0,0);stroke-width:2"/></g>
<g fill-rule="evenodd"><path d="M 1829.63,1566.69 L 1828.25,1579.79 L 1824.19,1592.31 L 1817.6,1603.71 L 1808.79,1613.5 L 1798.14,1621.24 L 1786.11,1626.59 L 1773.23,1629.33 L 1760.07,1629.33 L 1747.19,1626.59 L 1735.16,1621.24 L 1724.51,1613.5 L 1715.7,1603.71 L 1709.11,1592.31 L 1705.05,1579.79 L 1703.67,1566.69 L 1705.05,1553.6 L 1709.11,1541.08 L 1715.7,1529.67 L 1724.51,1519.89 L 1735.16,1512.15 L 1747.19,1506.79 L 1760.07,1504.06 L 1773.23,1504.06 L 1786.11,1506.79 L 1798.14,1512.15 L 1808.79,1519.89 L 1817.6,1529.67 L 1824.19,1541.08 L 1828.25,1553.6 L 1829.63,1566.69 z " style="fill-opacity:1.000000;fill:rgb(5,60,124);stroke:rgb(0,0,0);stroke-width:2"/></g>
<g fill-rule="evenodd"><path d="M 1632.81,1566.69 L 1631.43,1579.79 L 1627.37,1592.31 L 1620.78,1603.71 L 1611.97,1613.5 L 1601.32,1621.24 L 1589.29,1626.59 L 1576.41,1629.33 L 1563.25,1629.33 L 1550.37,1626.59 L 1538.34,1621.24 L 1527.69,1613.5 L 1518.88,1603.71 L 1512.29,1592.31 L 1508.22,1579.79 L 1506.85,1566.69 L 1508.22,1553.6 L 1512.29,1541.08 L 1518.88,1529.67 L 1527.69,1519.89 L 1538.34,1512.15 L 1550.37,1506.79 L 1563.25,1504.06 L 1576.41,1504.06 L 1589.29,1506.79 L 1601.32,1512.15 L 1611.97,1519.89 L 1620.78,1529.67 L 1627.37,1541.08 L 1631.43,1553.6 L 1632.81,1566.69 z " style="fill-opacity:1.000000;fill:rgb(148,117,216);stroke:rgb(0,0,0);stroke-width:2"/></g>
<g fill-rule="evenodd"><path d="M 1829.63,1366.72 L 1828.25,1379.82 L 1824.19,1392.34 L 1817.6,1403.74 L 1808.79,1413.53 L 1798.14,1421.27 L 1786.11,1426.62 L 1773.23,1429.36 L 1760.07,1429.36 L 1747.19,1426.62 L 1735.16,1421.27 L 1724.51,1413.53 L 1715.7,1403.74 L 1709.11,1392.34 L 1705.05,1379.82 L 1703.67,1366.72 L 1705.05,1353.63 L 1709.11,1341.11 L 1715.7,1329.71 L 1724.51,1319.92 L 1735.16,1312.18 L 1747.19,1306.82 L 1760.07,1304.09 L 1773.23,1304.09 L 1786.11,1306.82 L 1798.14,1312.18 L 1808.79,1319.92 L 1817.6,1329.71 L 1824.19,1341.11 L 1828.25,1353.63 L 1829.63,1366.72 z " style="fill-opacity:1.000000;fill:rgb(190,97,137);stroke:rgb(0,0,0);stroke-width:2"/></g>
<g fill-rule="evenodd"><path d="M 1632.81,1366.72 L 1631.43,1379.82 L 1627.37,1392.34 L 1620.78,1403.74 L 1611.97,1413.53 L 1601.32,1421.27 L 1589.29,1426.62 L 1576.41,1429.36 L 1563.25,1429.36 L 1550.37,1426.62 L 1538.34,1421.27 L 1527.69,1413.53 L 1518.88,1403.74 L 1512.29,1392.34 L 1508.22,1379.82 L 1506.85,1366.72 L 1508.22,1353.63 L 1512.29,1341.11 L 1518.88,1329.71 L 1527.69,1319.92 L 1538.34,1312.18 L 1550.37,1306.82 L 1563.25,1304.09 L 1576.41,1304.09 L 1589.29,1306.82 L 1601.32,1312.18 L 1611.97,1319.92 L 1620.78,1329.71 L 1627.37,1341.11 L 1631.43,1353.63 L 1632.81,1366.72 z " style="fill-opacity:1.000000;fill:rgb(249,92,187);stroke:rgb(0,0,0);stroke-width:2"/></g>
<g fill-rule="evenodd"><path d="M 3129.43,1166.76 L 3128.05,1179.85 L 3123.98,1192.37 L 3117.4,1203.77 L 3108.59,1213.56 L 3097.94,1221.3 L 3085.91,1226.65 L 3073.03,1229.39 L 3059.86,1229.39 L 3046.98,1226.65 L 3034.96,1221.3 L 3024.3,1213.56 L 3015.49,1203.77 L 3008.91,1192.37 L 3004.84,1179.85 L 3003.46,1166.76 L 3004.84,1153.66 L 3008.91,1141.14 L 3015.49,1129.74 L 3024.3,1119.95 L 3034.95,1112.21 L 3046.98,1106.86 L 3059.86,1104.12 L 3073.03,1104.12 L 3085.91,1106.86 L 3097.93,1112.21 L 3108.59,1119.95 L 3117.4,1129.74 L 3123.98,1141.14 L 3128.05,1153.66 L 3129.43,1166.76 z " style="fill-opacity:1.000000;fill:rgb(168,153,15);stroke:rgb(0,0,0);stroke-width:2"/></g>
<g fill-rule="evenodd"><path d="M 2932.61,1166.76 L 2931.23,1179.85 L 2927.16,1192.37 L 2920.58,1203.77 L 2911.77,1213.56 L 2901.11,1221.3 L 2889.08,1226.65 L 2876.21,1229.39 L 2863.04,1229.39 L 2850.16,1226.65 L 2838.13,1221.3 L 2827.48,1213.56 L 2818.67,1203.77 L 2812.09,1192.37 L 2808.02,1179.85 L 2806.64,1166.76 L 2808.02,1153.66 L 2812.09,1141.14 L 2818.67,1129.74 L 2827.48,1119.95 L 2838.13,1112.21 L 2850.16,1106.86 L 2863.04,1104.12 L 2876.21,1104.12 L 2889.08,1106.86 L 2901.11,1112.21 L 2911.77,1119.95 L 2920.58,1129.74 L 2927.16,1141.14 L 2931.23,1153.66 L 2932.61,1166.76 z " style="fill-opacity:1.000000;fill:rgb(149,177,235);stroke:rgb(0,0,0);stroke-width:2"/></g>
<g fill-rule="evenodd"><path d="M 3129.43,1566.69 L 3128.05,1579.79 L 3123.98,1592.31 L 3117.4,1603.71 L 3108.59,1613.5 L 3097.94,1621.24 L 3085.91,1626.59 L 3073.03,1629.33 L 3059.86,1629.33 L 3046.98,1626.59 L 3034.96,1621.24 L 3024.3,1613.5 L 3015.49,1603.71 L 3008.91,1592.31 L 3004.84,1579.79 L 3003.46,1566.69 L 3004.84,1553.6 L 3008.91,1541.08 L 3015.49,1529.67 L 3024.3,1519.89 L 3034.95,1512.15 L 3046.98,1506.79 L 3059.86,1504.06 L 3073.03,1504.06 L 3085.91,1506.79 L 3097.93,1512.15 L 3108.59,1519.89 L 3117.4,1529.67 L 3123.98,1541.08 L 3128.05,1553.6 L 3129.43,1566.69 z " style="fill-opacity:1.000000;fill:rgb(241,179,5);stroke:rgb(0,0,0);stroke-width:2"/></g>
<g fill-rule="evenodd"><path d="M 2932.61,1566.69 L 2931.23,1579.79 L 2927.16,1592.31 L 2920.58,1603.71 L 2911.77,1613.5 L 2901.11,1621.24 L 2889.08,1626.59 L 2876.21,1629.33 L 2863.04,1629.33 L 2850.16,1626.59 L 2838.13,1621.24 L 2827.48,1613.5 L 2818.67,1603.71 L 2812.09,1592.31 L 2808.02,1579.79 L 2806.64,1566.69 L 2808.02,1553.6 L 2812.09,1541.08 L 2818.67,1529.67 L 2827.48,1519.89 L 2838.13,1512.15 L 2850.16,1506.79 L 2863.04,1504.06 L 2876.21,1504.06 L 2889.08,1506.79 L 2901.11,1512.15 L 2911.77,1519.89 L 2920.58,1529.67 L 2927.16,1541.08 L 2931.23,1553.6 L 2932.61,1566.69 z " style="fill-opacity:1.000000;fill:rgb(239,247,0);stroke:rgb(0,0,0);stroke-width:2"/></g>
<g fill-rule="evenodd"><path d="M 3129.43,1366.72 L 3128.05,1379.82 L 3123.98,1392.34 L 3117.4,1403.74 L 3108.59,1413.53 L 3097.94,1421.27 L 3085.91,1426.62 L 3073.03,1429.36 L 3059.86,1429.36 L 3046.98,1426.62 L 3034.96,1421.27 L 3024.3,1413.53 L 3015.49,1403.74 L 3008.91,1392.34 L 3004.84,1379.82 L 3003.46,1366.72 L 3004.84,1353.63 L 3008.91,1341.11 L 3015.49,1329.71 L 3024.3,1319.92 L 3034.95,1312.18 L 3046.98,1306.82 L 3059.86,1304.09 L 3073.03,1304.09 L 3085.91,1306.82 L 3097.93,1312.18 L 3108.59,1319.92 L 3117.4,1329.71 L 3123.98,1341.11 L 3128.05,1353.63 L 3129.43,1366.72 z " style="fill-opacity:1.000000;fill:rgb(233,161,58);stroke:rgb(0,0,0);stroke-width:2"/></g>
<g fill-rule="evenodd"><path d="M 2932.61,1366.72 L 2931.23,1379.82 L 2927.16,1392.34 L 2920.58,1403.74 L 2911.77,1413.53 L 2901.11,1421.27 L 2889.08,1426.62 L 2876.21,1429.36 L 2863.04,1429.36 L 2850.16,1426.62 L 2838.13,1421.27 L 2827.48,1413.53 L 2818.67,1403.74 L 2812.09,1392.34 L 2808.02,1379.82 L 2806.64,1366.72 L 2808.02,1353.63 L 2812.09,1341.11 L 2818.67,1329.71 L 2827.48,1319.92 L 2838.13,1312.18 L 2850.16,1306.82 L 2863.04,1304.09 L 2876.21,1304.09 L 2889.08,1306.82 L 2901.11,1312.18 L 2911.77,1319.92 L 2920.58,1329.71 L 2927.16,1341.11 L 2931.23,1353.63 L 2932.61,1366.72 z " style="fill-opacity:1.000000;fill:rgb(229,202,11);stroke:rgb(0,0,0);stroke-width:2"/></g>
<g fill-rule="evenodd"><path d="M 4525.32,2105.91 L 4524.11,2117.8 L 4520.53,2129.21 L 4514.72,2139.66 L 4506.93,2148.73 L 4497.48,2156.05 L 4486.75,2161.32 L 4475.17,2164.32 L 4463.23,2164.92 L 4451.41,2163.11 L 4440.2,2158.96 L 4430.06,2152.63 L 4421.39,2144.4 L 4414.56,2134.58 L 4409.85,2123.6 L 4407.44,2111.88 L 4407.13,2027.32 L 4408.34,2015.43 L 4411.92,2004.02 L 4417.73,1993.56 L 4425.51,1984.49 L 4434.97,1977.17 L 4445.7,1971.91 L 4457.28,1968.91 L 4469.22,1968.3 L 4481.03,1970.12 L 4492.25,1974.27 L 4502.39,1980.59 L 4511.06,1988.83 L 4517.89,1998.64 L 4522.6,2009.63 L 4525.01,2021.34 L 4525.32,2105.91 z " style="fill-opacity:1.000000;fill:rgb(203,208,72);stroke:rgb(0,0,0);stroke-width:2"/></g>
<g fill-rule="evenodd"><path d="M 4725.28,2105.91 L 4724.07,2117.8 L 4720.49,2129.21 L 4714.69,2139.66 L 4706.9,2148.73 L 4697.45,2156.05 L 4686.71,2161.32 L 4675.14,2164.32 L 4663.2,2164.92 L 4651.38,2163.11 L 4640.17,2158.96 L 4630.02,2152.63 L 4621.36,2144.4 L 4614.53,2134.58 L 4609.81,2123.6 L 4607.41,2111.88 L 4607.1,2027.32 L 4608.31,2015.43 L 4611.89,2004.02 L 4617.69,1993.56 L 4625.48,1984.49 L 4634.94,1977.17 L 4645.67,1971.91 L 4657.25,1968.91 L 4669.18,1968.3 L 4681,1970.12 L 4692.21,1974.27 L 4702.36,1980.59 L 4711.03,1988.83 L 4717.86,1998.64 L 4722.57,2009.63 L 4724.98,2021.34 L 4725.28,2105.91 z " style="fill-opacity:1.000000;fill:rgb(71,100,189);stroke:rgb(0,0,0);stroke-width:2"/></g>
<g fill-rule="evenodd"><path d="M 4325.35,2105.91 L 4324.14,2117.8 L 4320.56,2129.21 L 4314.75,2139.66 L 4306.97,2148.73 L 4297.51,2156.05 L 4286.78,2161.32 L 4275.2,2164.32 L 4263.26,2164.92 L 4251.45,2163.11 L 4240.23,2158.96 L 4230.09,2152.63 L 4221.42,2144.4 L 4214.59,2134.58 L 4209.88,2123.6 L 4207.47,2111.88 L 4207.17,2027.32 L 4208.37,2015.43 L 4211.95,2004.02 L 4217.76,1993.56 L 4225.55,1984.49 L 4235,1977.17 L 4245.74,1971.91 L 4257.31,1968.91 L 4269.25,1968.3 L 4281.07,1970.12 L 4292.28,1974.27 L 4302.42,1980.59 L 4311.09,1988.83 L 4317.92,1998.64 L 4322.63,2009.63 L 4325.04,2021.34 L 4325.35,2105.91 z " style="fill-opacity:1.000000;fill:rgb(31,35,30);stroke:rgb(0,0,0);stroke-width:2"/></g>
<g fill-rule="evenodd"><path d="M 4525.32,2505.84 L 4524.11,2517.74 L 4520.53,2529.15 L 4514.72,2539.6 L 4506.93,2548.67 L 4497.48,2555.99 L 4486.75,2561.26 L 4475.17,2564.25 L 4463.23,2564.86 L 4451.41,2563.05 L 4440.2,2558.9 L 4430.06,2552.57 L 4421.39,2544.33 L 4414.56,2534.52 L 4409.85,2523.53 L 4407.44,2511.82 L 4407.13,2427.26 L 4408.34,2415.36 L 4411.92,2403.95 L 4417.73,2393.5 L 4425.51,2384.43 L 4434.97,2377.11 L 4445.7,2371.85 L 4457.28,2368.85 L 4469.22,2368.24 L 4481.03,2370.05 L 4492.25,2374.2 L 4502.39,2380.53 L 4511.06,2388.77 L 4517.89,2398.58 L 4522.6,2409.57 L 4525.01,2421.28 L 4525.32,2505.84 z " style="fill-opacity:1.000000;fill:rgb(168,28,123);stroke:rgb(0,0,0);stroke-width:2"/></g>
<g fill-rule="evenodd"><path d="M 4725.28,2505.84 L 4724.07,2517.74 L 4720.49,2529.15 L 4714.69,2539.6 L 4706.9,2548.67 L 4697.45,2555.99 L 4686.71,2561.26 L 4675.14,2564.25 L 4663.2,2564.86 L 4651.38,2563.05 L 4640.17,2558.9 L 4630.02,2552.57 L 4621.36,2544.33 L 4614.53,2534.52 L 4609.81,2523.53 L 4607.41,2511.82 L 4607.1,2427.26 L 4608.31,2415.36 L 4611.89,2403.95 L 4617.69,2393.5 L 4625.48,2384.43 L 4634.94,2377.11 L 4645.67,2371.85 L 4657.25,2368.85 L 4669.18,2368.24 L 4681,2370.05 L 4692.21,2374.2 L 4702.36,2380.53 L 4711.03,2388.77 L 4717.86,2398.58 L 4722.57,2409.57 L 4724.98,2421.28 L 4725.28,2505.84 z " style="fill-opacity:1.000000;fill:rgb(100,197,20);stroke:rgb(0,0,0);stroke-width:2"/></g>
<g fill-rule="evenodd"><path d="M 4325.35,2505.84 L 4324.14,2517.74 L 4320.56,2529.15 L 4314.75,2539.6 L 4306.97,2548.67 L 4297.51,2555.99 L 4286.78,2561.26 L 4275.2,2564.25 L 4263.26,2564.86 L 4251.45,2563.05 L 4240.23,2558.9 L 4230.09,2552.57 L 4221.42,2544.33 L 4214.59,2534.52 L 4209.88,2523.53 L 4207.47,2511.82 L 4207.17,2427.26 L 4208.37,2415.36 L 4211.95,2403.95 L 4217.76,2393.5 L 4225.55,2384.43 L 4235,2377.11 L 4245.74,2371.85 L 4257.31,2368.85 L 4269.25,2368.24 L 4281.07,2370.05 L 4292.28,2374.2 L 4302.42,2380.53 L 4311.09,2388.77 L 4317.92,2398.58 L 4322.63,2409.57 L 4325.04,2421.28 L 4325.35,2505.84 z " style="fill-opacity:1.000000;fill:rgb(115,90,197);stroke:rgb(0,0,0);stroke-width:2"/></g>
<g fill-rule="evenodd"><path d="M 4076.13,1188.08 L 4076.13,1545.36 L 4078.1,1546.24 L 4082.09,1549.14 L 4085.39,1552.81 L 4087.86,1557.09 L 4089.39,1561.78 L 4089.91,1566.69 L 4089.39,1571.6 L 4087.86,1576.3 L 4085.39,1580.57 L 4082.09,1584.24 L 4078.1,1587.14 L 4073.58,1589.15 L 4068.75,1590.18 L 4063.82,1590.18 L 4058.99,1589.15 L 4054.48,1587.14 L 4050.48,1584.24 L 4047.18,1580.57 L 4044.71,1576.3 L 4043.19,1571.6 L 4042.67,1566.69 L 4043.19,1561.78 L 4044.71,1557.09 L 4047.18,1552.81 L 4050.48,1549.14 L 4054.48,1546.24 L 4056.45,1545.37 L 4056.45,1188.08 L 4054.48,1187.21 L 4050.48,1184.31 L 4047.18,1180.64 L 4044.71,1176.36 L 4043.19,1171.66 L 4042.67,1166.76 L 4043.19,1161.85 L 4044.71,1157.15 L 4047.18,1152.87 L 4050.48,1149.2 L 4054.48,1146.3 L 4058.99,1144.29 L 4063.82,1143.27 L 4068.75,1143.27 L 4073.58,1144.29 L 4078.1,1146.3 L 4082.09,1149.2 L 4085.39,1152.87 L 4087.86,1157.15 L 4089.39,1161.85 L 4089.91,1166.76 L 4089.39,1171.66 L 4087.86,1176.36 L 4085.39,1180.64 L 4082.09,1184.31 L 4078.1,1187.21 L 4076.13,1188.08 z " style="fill-opacity:1.000000;fill:rgb(94,75,121);stroke:rgb(0,0,0);stroke-width:2"/></g>
</svg>
