<?xml version="1.0" standalone="no"?>
<!DOCTYPE svg PUBLIC "-//W3C//DTD SVG 1.1//EN"
"http://www.w3.org/Graphics/SVG/1.1/DTD/svg11.dtd">
<svg width="6130" height="3230" viewBox="0 0 6130 3230" version="1.1"
xmlns="http://www.w3.org/2000/svg"
xmlns:xlink="http://www.w3.org/1999/xlink">
<g fill-rule="evenodd"><path d="M 1668.7,1296.2 L 1666.98,1312.56 L 1661.9,1328.21 L 1653.67,1342.46 L 1642.66,1354.68 L 1629.35,1364.36 L 1614.32,1371.05 L 1598.23,1374.47 L 1581.77,1374.47 L 1565.68,1371.05 L 1550.65,1364.36 L 1537.34,1354.68 L 1526.33,1342.46 L 1518.1,1328.21 L 1513.02,1312.56 L 1511.3,1296.2 L 1513.02,1279.84 L 1518.1,1264.19 L 1526.33,1249.94 L 1537.34,1237.72 L 1550.65,1228.04 L 1565.68,1221.35 L 1581.77,1217.93 L 1598.23,1217.93 L 1614.32,1221.35 L 1629.35,1228.04 L 1642.66,1237.72 L 1653.67,1249.94 L 1661.9,1264.19 L 1666.98,1279.84 L 1668.7,1296.2 z " style="fill-opacity:1.000000;fill:rgb(103,198,105);stroke:rgb(0,0,0);stroke-width:2"/></g>
<g fill-rule="evenodd"><path d="M 1364.37,2340 L 1364.42,2339.88 L 1375.66,2310 L 1377.7,2304.44 L 1378.53,2302.12 L 1388.14,2270.53 L 1388.27,2270 L 1388.72,2268.22 L 1395.97,2240 L 1545,2240 L 1570.79,2240 L 1571.14,2239.94 L 1576.07,2239.16 L 1582.1,2238.53 L 1587.03,2238.27 L 1590,2238.19 L 1635,2238.19 L 1645.74,2237.17 L 1656.49,2234.09 L 1696.3,2234.09 L 1699.47,2234.17 L 1704.1,2234.4 L 1710.57,2235.04 L 1711.51,2235.18 L 1714.61,2237.64 L 1719.41,2241.84 L 1719.51,2241.94 L 1722.95,2245.03 L 1724.2,2246.06 L 1727.18,2248.71 L 1730.54,2251.92 L 1732.46,2253.84 L 1733.74,2255.19 L 1737.92,2259.16 L 1747.96,2267.74 L 1752.82,2271.46 L 1763.86,2279.05 L 1769.86,2282.72 L 1781.93,2289.27 L 1783.3,2290 L 1789.71,2290 L 1802.88,2290 L 1810.82,2290 L 1822.23,2290 L 1824.07,2291 L 1831.22,2295.37 L 1842.26,2302.96 L 1848.13,2307.46 L 1858.17,2316.04 L 1863.25,2320.86 L 1864.32,2321.98 L 1866.65,2324.32 L 1868.33,2325.92 L 1872.88,2329.91 L 1873.42,2330.33 L 1875.24,2331.84 L 1878.71,2334.81 L 1880.93,2336.64 L 1882.88,2338.18 L 1889.91,2343.21 L 1890.19,2343.39 L 1892.1,2344.65 L 1896.3,2347.5 L 1899.31,2349.61 L 1912.48,2359.18 L 1925.52,2369.79 L 1938.69,2381.65 L 1947.02,2389.55 L 2054.57,2434.09 L 2308.21,2434.09 L 2323.27,2439.48 L 2336.43,2443.76 L 2361.36,2450.46 L 2374.52,2453.25 L 2397.78,2456.95 L 2410.95,2458.33 L 2433.42,2459.51 L 2446.58,2459.51 L 2469.05,2458.33 L 2482.22,2456.95 L 2505.47,2453.26 L 2518.64,2450.46 L 2543.58,2443.75 L 2556.74,2439.48 L 2584.37,2428.84 L 2597.54,2422.97 L 2622.93,2410.32 L 2635.8,2415.23 L 2638.11,2416.06 L 2640,2416.72 L 2654.25,2421.72 L 2658.75,2423.26 L 2666.12,2425.71 L 2668.34,2426.46 L 2685.48,2432.31 L 2689.87,2433.77 L 2694.68,2435.33 L 2696.88,2436.05 L 2708.61,2439.95 L 2713.28,2447.5 L 2713.41,2447.7 L 2716.21,2452.28 L 2730.82,2475.69 L 2733.43,2479.8 L 2740.04,2489.96 L 2754.24,2509.51 L 2770.22,2527.28 L 2782.72,2539.78 L 2800.1,2555.44 L 2819.19,2569.4 L 2839.99,2581.64 L 2862.5,2592.18 L 2894.94,2605.61 L 2927.92,2617.27 L 2963.74,2626.09 L 2987.2,2630.76 L 3030.91,2637.44 L 3077.99,2640.76 L 3119.1,2740 L 3127.8,2759.64 L 3128.85,2761.87 L 3147.68,2797.17 L 3148.91,2799.21 L 3169.4,2829.92 L 3170.8,2831.8 L 3174.31,2836.45 L 3202.51,2851.27 L 3204.83,2852.36 L 3220.63,2859.37 L 3432.76,2947.24 L 3439.44,2949.82 L 3441.75,2950.65 L 3454.23,2954.44 L 3456.54,2955.02 L 3468.34,2957.37 L 3470.66,2957.72 L 3482.08,2958.84 L 3484.4,2958.96 L 3490,2959.09 L 4091.79,2959.09 L 4103.64,2964.9 L 4113.61,2969.2 L 4126.36,2973.92 L 4134.68,2976.54 L 4147.42,2979.84 L 4154.66,2981.33 L 4167.41,2983.28 L 4174.04,2983.96 L 4186.78,2984.6 L 4191.61,2984.67 L 4197.99,2984.5 L 4202.85,2984.19 L 4215.6,2982.9 L 4222.47,2981.84 L 4235.22,2979.22 L 4242.94,2977.22 L 4255.69,2973.22 L 4264.75,2969.85 L 4277.5,2964.38 L 4288.55,2958.94 L 4301.3,2951.87 L 4315.21,2943.17 L 4327.96,2934.29 L 4345.92,2920.33 L 4358.66,2909.39 L 4382.51,2886.61 L 4395.25,2873.21 L 4404.63,2863.01 L 4431.77,2864.22 L 4448.23,2864.22 L 4480.21,2862.54 L 4496.66,2860.81 L 4529.72,2855.56 L 4546.18,2852.07 L 4580.34,2842.95 L 4581.31,2842.27 L 4592.65,2834.38 L 4593.99,2831.74 L 4609.35,2797.35 L 4615,2782.64 L 4615,2780.3 L 4615,2744.35 L 4615,2725.35 L 4615,2699.31 L 4615,2682.01 L 4615,2660.47 L 4615,2643.92 L 4615,2623.68 L 4615,2607.13 L 4615,2585.59 L 4615,2568.29 L 4615,2542.25 L 4615,2523.25 L 4615,2487.3 L 4615,2465.16 L 4615,2408.6 L 4615.96,2408.29 L 4632.42,2402.94 L 4673.32,2391.95 L 4689.78,2388.45 L 4728.15,2382.35 L 4744.6,2380.63 L 4781.77,2378.67 L 4798.23,2378.67 L 4835.4,2380.63 L 4851.85,2382.35 L 4890.23,2388.45 L 4906.68,2391.95 L 4947.57,2402.93 L 4964.02,2408.28 L 5008.96,2425.59 L 5025.41,2432.91 L 5076.34,2458.95 L 5092.8,2468.45 L 5122.65,2486.8 L 5152.5,2507.37 L 5168.96,2519.33 L 5205.08,2547.14 L 5241.21,2578.1 L 5257.66,2592.91 L 5303.07,2636.19 L 5348.48,2684.24 L 5364.93,2702.51 L 5376.85,2715.91 L 5332.56,2753.16 L 5288.26,2787.04 L 5271.81,2798.99 L 5232.25,2826.35 L 5192.69,2850.93 L 5103.62,2940 L 5076.37,2965.97 L 5071.74,2970.17 L 5024.71,3008.9 L 5020.08,3012.34 L 4980.18,3039.08 L 4975.54,3041.86 L 4940.45,3060.66 L 4935.82,3062.85 L 4904.29,3075.93 L 4899.65,3077.59 L 4884.95,3082.44 L 4704.68,3137.02 L 4695.69,3139.51 L 4691.06,3140.66 L 4673.9,3144.08 L 4669.27,3144.76 L 4652.78,3146.39 L 4648.16,3146.61 L 4640,3146.81 L 3090,3146.81 L 3081.86,3146.61 L 3077.23,3146.39 L 3060.6,3144.74 L 3055.97,3144.06 L 3038.85,3140.64 L 3034.22,3139.48 L 3015.92,3133.92 L 3011.29,3132.26 L 3001.51,3128.49 L 2703.73,3005.14 L 2701.34,2993.58 L 2698.1,2978.79 L 2686,2934.13 L 2681.56,2920.56 L 2667.85,2884.82 L 2662.3,2872.34 L 2647.42,2842.89 L 2640.87,2831.42 L 2624.86,2806.42 L 2617.34,2795.91 L 2600.08,2774.16 L 2591.64,2764.58 L 2574.88,2747.2 L 2571.93,2746.09 L 2559.19,2741.37 L 2534.16,2733.49 L 2521.42,2730.19 L 2498.32,2725.43 L 2485.57,2723.48 L 2463.57,2721.24 L 2450.83,2720.59 L 2434.58,2720.38 L 2428.2,2720.55 L 2411.89,2721.58 L 2399.15,2722.88 L 2376.7,2726.33 L 2363.96,2728.95 L 2339.98,2735.17 L 2327.24,2739.17 L 2308.28,2745.91 L 1990,2745.91 L 1977.06,2745.59 L 1972.43,2745.36 L 1946.02,2742.76 L 1941.39,2742.07 L 1914.26,2736.66 L 1909.63,2735.5 L 1880.79,2726.73 L 1876.16,2725.07 L 1860.84,2719.16 L 1818.1,2701.45 L 1778.55,2661.9 L 1752.31,2598.56 L 1746.7,2591.64 L 1726.23,2563.57 L 1717.68,2550.4 L 1704.47,2527.61 L 1697.76,2514.44 L 1689.2,2495.29 L 1684.15,2482.11 L 1681.5,2474.72 L 1683.33,2462.84 L 1685.04,2446.64 L 1685.79,2432.82 L 1685.7,2419.01 L 1685.08,2410 L 1684.98,2408.33 L 1684.29,2395.16 L 1684.29,2384.84 L 1684.46,2381.53 L 1679.69,2370 L 1670.27,2352.84 L 1652.63,2344.57 L 1635,2341.81 L 1590,2341.81 L 1587.05,2341.73 L 1582.11,2341.48 L 1576.07,2340.84 L 1571.14,2340.06 L 1570.78,2340 L 1545,2340 L 1364.37,2340 z " style="fill-opacity:1.000000;fill:rgb(115,81,255);stroke:rgb(0,0,0);stroke-width:2"/></g>
<g fill-rule="evenodd"><path d="M 1491.35,498.298 L 1491.35,494.104 L 1492.22,477.652 L 1492.29,476.68 L 1493.33,473.444 L 1499.04,457.998 L 1500.7,454.14 L 1507.27,440.824 L 1508.28,439.518 L 1511.09,436.222 L 1522.43,424.29 L 1525.48,421.396 L 1538.03,410.682 L 1538.65,410.162 L 1541.76,407.608 L 1542.05,407.374 L 1543.47,406.186 L 1544.11,404.058 L 1545.55,397.728 L 1545.84,395.764 L 1546.28,389.826 L 1546.37,242.96 L 1546.67,240.002 L 1546.85,238.468 L 1547.36,234.79 L 1548,231.304 L 1549.12,226.492 L 1549.97,223.426 L 1550.44,222.614 L 1552.94,218.346 L 1555.16,214.964 L 1558.1,210.984 L 1559.36,209.362 L 1561.24,207.066 L 1657.06,111.246 L 1659.36,109.362 L 1660.88,108.176 L 1664.6,105.416 L 1667.76,103.304 L 1671.74,100.922 L 1673.42,99.968 L 1675.27,99.456 L 1679.77,98.328 L 1683.49,97.588 L 1688.08,96.906 L 1690,96.67 L 1692.95,96.378 L 3730.74,96.378 L 3733.7,96.67 L 3735.62,96.906 L 3740.2,97.588 L 3743.93,98.33 L 3748.43,99.456 L 3750.28,99.97 L 3751.96,100.92 L 3755.93,103.304 L 3759.09,105.412 L 3762.81,108.174 L 3764.34,109.364 L 3766.64,111.254 L 3905.06,249.542 L 3911.25,254.608 L 3914.55,256.816 L 3915.5,257.436 L 3920.82,257.47 L 3922.8,257.36 L 3922.86,257.356 L 3924.79,257.246 L 3927.11,257.18 L 3940.28,257.186 L 3944.52,257.41 L 3950.08,257.998 L 3957.38,260.266 L 3961.34,261.728 L 3973.44,266.932 L 3977.27,268.826 L 3980.24,270.488 L 3987.7,276.87 L 3990.75,279.768 L 3998.39,287.818 L 3999.86,289.294 L 4001.28,290.644 L 4003,292.384 L 4004.06,293.512 L 4005.02,294.512 L 4009.98,295.55 L 4011.94,295.84 L 4017.91,296.282 L 4167.07,296.284 L 4173.03,295.842 L 4174.99,295.552 L 4178.26,294.938 L 4179.87,293.598 L 4180.56,293.016 L 4183.53,290.446 L 4186.41,287.7 L 4188.3,285.714 L 4191.35,282.82 L 4198.05,277.102 L 4200.44,275.766 L 4204.27,273.88 L 4214.83,269.344 L 4218.8,267.884 L 4225.32,265.86 L 4230.01,265.37 L 4234.25,265.15 L 4245.75,265.156 L 4249.98,265.38 L 4254.8,265.89 L 4261.2,267.88 L 4265.17,269.342 L 4275.73,273.886 L 4279.55,275.774 L 4282.06,277.178 L 4288.65,282.814 L 4291.7,285.712 L 4299.62,294.058 L 4302.41,297.33 L 4302.94,298.026 L 4307.11,306.486 L 4307.66,307.572 L 4308.95,309.99 L 4309.63,311.332 L 4310.69,313.522 L 4315.26,320.952 L 4315.65,321.466 L 4317.68,324.356 L 4318.72,325.948 L 4325.19,334.234 L 4327.34,336.6 L 4328.45,337.836 L 4330.34,339.992 L 4328.48,342.11 L 4327.33,343.4 L 4325.22,345.712 L 4318.71,354.054 L 4317.71,355.592 L 4315.64,358.534 L 4315.29,358.998 L 4310.71,366.422 L 4309.62,368.668 L 4308.97,369.95 L 4307.66,372.428 L 4307.14,373.448 L 4302.87,382.092 L 4302.42,382.68 L 4299.62,385.95 L 4291.7,394.288 L 4288.65,397.182 L 4281.95,402.904 L 4279.56,404.236 L 4275.73,406.124 L 4265.16,410.66 L 4261.2,412.12 L 4254.67,414.144 L 4249.98,414.634 L 4245.75,414.854 L 4234.25,414.848 L 4230.02,414.624 L 4225.19,414.114 L 4218.79,412.126 L 4214.83,410.662 L 4204.27,406.118 L 4200.44,404.23 L 4197.94,402.826 L 4191.35,397.19 L 4188.29,394.29 L 4186.45,392.344 L 4183.56,389.588 L 4180.59,387.01 L 4179.87,386.404 L 4178.25,385.066 L 4175.01,384.454 L 4173.05,384.164 L 4167.11,383.722 L 4019.91,383.624 L 4015.95,383.818 L 4012.05,384.202 L 4005.03,385.498 L 4004.1,386.462 L 4003.01,387.622 L 4001.32,389.324 L 3999.86,390.714 L 3998.44,392.142 L 3990.75,400.232 L 3987.7,403.126 L 3980.12,409.6 L 3977.28,411.186 L 3973.44,413.078 L 3961.34,418.272 L 3957.38,419.73 L 3949.93,422.036 L 3944.53,422.602 L 3940.28,422.824 L 3931.15,422.82 L 3927.18,423.014 L 3927.12,423.02 L 3923.24,423.216 L 3922.56,423.22 L 3920.6,423.272 L 3917.48,425.382 L 3915.89,426.566 L 3911.36,430.468 L 3841.09,500.732 L 3837.19,505.258 L 3836.01,506.85 L 3834.81,508.56 L 3834.2,512.662 L 3833.81,516.562 L 3833.62,520.524 L 3833.72,658.57 L 3834.51,666.538 L 3835.29,670.436 L 3838.03,679.402 L 3839.65,683.304 L 3845.75,694.584 L 3848.36,698.484 L 3849.51,700.162 L 3848.9,703.482 L 3846.81,716.65 L 3846.09,723.508 L 3845.4,736.676 L 3845.4,743.326 L 3846.09,756.494 L 3846.81,763.352 L 3848.9,776.52 L 3849.51,779.854 L 3848.38,781.496 L 3845.77,785.398 L 3840.82,794.086 L 3839.89,796.048 L 3837.06,803.318 L 3835.88,807.222 L 3834.2,815.59 L 3833.81,819.492 L 3833.62,823.424 L 3833.62,915.706 L 3833.81,919.64 L 3834.2,923.542 L 3834.81,927.644 L 3837.27,930.968 L 3839.76,934 L 3842.41,936.928 L 4089.43,1183.81 L 4095.62,1188.89 L 4098.93,1191.09 L 4102.79,1193.41 L 4104.84,1193.3 L 4105.05,1193.29 L 4107.03,1193.18 L 4109.16,1193.01 L 4121.32,1191.74 L 4125.57,1191.51 L 4142.02,1191.52 L 4146.27,1191.75 L 4153.28,1192.49 L 4162.34,1195.3 L 4166.3,1196.77 L 4181.42,1203.27 L 4185.26,1205.17 L 4189.14,1207.34 L 4198.32,1215.19 L 4201.37,1218.09 L 4212.7,1230.03 L 4215.51,1233.33 L 4216.61,1234.77 L 4223.1,1247.94 L 4224.76,1251.8 L 4230.45,1267.25 L 4231.54,1270.65 L 4231.59,1271.45 L 4232.44,1287.9 L 4232.44,1292.1 L 4231.57,1308.55 L 4231.51,1309.53 L 4230.46,1312.76 L 4224.76,1328.2 L 4223.1,1332.06 L 4216.52,1345.38 L 4215.52,1346.68 L 4212.71,1349.98 L 4201.37,1361.91 L 4198.32,1364.81 L 4188.99,1372.77 L 4185.28,1374.85 L 4181.42,1376.74 L 4166.3,1383.23 L 4162.33,1384.69 L 4153.11,1387.55 L 4146.28,1388.27 L 4142.02,1388.49 L 4125.57,1388.48 L 4121.32,1388.26 L 4114.31,1387.52 L 4105.26,1384.7 L 4101.29,1383.24 L 4086.18,1376.74 L 4082.33,1374.84 L 4078.46,1372.66 L 4069.28,1364.81 L 4066.22,1361.91 L 4054.9,1349.97 L 4052.09,1346.68 L 4050.98,1345.23 L 4044.49,1332.06 L 4042.84,1328.21 L 4037.15,1312.75 L 4036.06,1309.35 L 4036.01,1308.55 L 4035.15,1292.1 L 4035.15,1287.9 L 4036.02,1271.45 L 4036.49,1267.03 L 4036.74,1265.47 L 4037.21,1261.08 L 4037.32,1259.39 L 4036.2,1257.3 L 4032.73,1251.81 L 4031.55,1250.21 L 4027.65,1245.69 L 3761.24,979.142 L 3759.36,976.842 L 3758.17,975.318 L 3755.41,971.594 L 3753.3,968.438 L 3750.92,964.462 L 3749.96,962.78 L 3749.45,960.93 L 3748.32,956.434 L 3747.58,952.698 L 3746.9,948.11 L 3746.67,946.202 L 3746.38,943.254 L 3746.38,576.322 L 3748.57,568.116 L 3749.35,564.478 L 3750.91,554.602 L 3751.25,551.406 L 3751.77,541.53 L 3751.77,538.472 L 3751.25,528.596 L 3750.91,525.4 L 3749.35,515.524 L 3748.57,511.886 L 3746.38,503.68 L 3746.38,492.948 L 3746.67,490.002 L 3746.9,488.09 L 3747.58,483.504 L 3748.32,479.778 L 3749.45,475.282 L 3749.96,473.424 L 3750.92,471.736 L 3753.3,467.76 L 3755.41,464.61 L 3758.17,460.886 L 3759.36,459.362 L 3761.25,457.054 L 3843.24,374.936 L 3848.3,368.756 L 3850.51,365.452 L 3851.94,363.162 L 3851.74,359.706 L 3851.69,359.236 L 3851.55,357.252 L 3851.44,355.268 L 3851.44,355.218 L 3850.76,342.1 L 3850.76,337.902 L 3851.12,331.164 L 3851.13,327.106 L 3851.02,324.688 L 3850.98,323.154 L 3850.97,321.506 L 3847.07,315.88 L 3844.58,312.846 L 3841.93,309.922 L 3724.42,192.412 L 3721.49,189.764 L 3718.46,187.278 L 3715.14,184.812 L 3711.05,184.204 L 3707.15,183.818 L 3703.2,183.624 L 1718.54,183.722 L 1710.55,184.514 L 1708.6,184.904 L 1706.95,186.006 L 1702.15,189.748 L 1700.69,191.066 L 1699.28,192.412 L 1642.41,249.284 L 1639.76,252.206 L 1637.27,255.236 L 1634.81,258.56 L 1634.2,262.662 L 1633.81,266.562 L 1633.62,270.528 L 1633.72,389.768 L 1634.51,397.72 L 1635.28,401.618 L 1636.46,406.236 L 1638.05,407.492 L 1638.23,407.628 L 1639.63,408.728 L 1641.28,410.084 L 1641.97,410.666 L 1654.52,421.39 L 1657.57,424.29 L 1668.9,436.232 L 1671.71,439.526 L 1672.81,440.972 L 1679.3,454.14 L 1680.96,457.998 L 1686.65,473.448 L 1687.74,476.854 L 1687.79,477.652 L 1688.64,494.104 L 1688.64,498.298 L 1687.77,514.748 L 1687.71,515.728 L 1686.66,518.958 L 1680.96,534.404 L 1679.3,538.262 L 1672.72,551.582 L 1671.72,552.884 L 1668.91,556.18 L 1657.57,568.112 L 1654.52,571.006 L 1645.19,578.966 L 1641.48,581.046 L 1637.62,582.944 L 1622.5,589.432 L 1618.53,590.894 L 1609.31,593.754 L 1602.48,594.468 L 1598.22,594.69 L 1581.77,594.682 L 1577.52,594.458 L 1570.51,593.716 L 1561.46,590.902 L 1557.49,589.438 L 1542.38,582.936 L 1538.53,581.036 L 1534.66,578.864 L 1525.48,571.014 L 1522.42,568.114 L 1511.1,556.172 L 1508.29,552.878 L 1507.18,551.434 L 1500.69,538.264 L 1499.04,534.406 L 1493.35,518.954 L 1492.26,515.552 L 1492.21,514.75 L 1491.35,498.298 z " style="fill-opacity:1.000000;fill:rgb(74,236,41);stroke:rgb(0,0,0);stroke-width:2"/></g>
<g fill-rule="evenodd"><path d="M 123.072,1180 L 96.15,1149.23 L 85.572,1133.85 L 76.92,1118.46 L 70.188,1103.08 L 65.382,1087.7 L 62.496,1072.31 L 61.536,1056.93 L 61.536,923.072 L 64.55,895.828 L 73.598,868.582 L 76.976,868.932 L 95.414,871.784 L 108.488,874.552 L 122.826,878.644 L 123.072,878.734 L 131.534,881.384 L 145.076,884.89 L 152.648,886.45 L 166.188,888.524 L 173.098,889.228 L 186.64,889.916 L 191.678,889.98 L 198.458,889.808 L 203.53,889.486 L 217.072,888.108 L 224.254,887.004 L 237.798,884.222 L 245.872,882.126 L 256.928,878.658 L 259.434,877.908 L 269.616,875.022 L 285.658,871.586 L 298.634,869.614 L 318.658,878.154 L 338.682,890 L 490,890 L 498.704,890.216 L 501.02,890.33 L 510.324,891.034 L 515.774,890.48 L 529.168,889.628 L 535.548,889.466 L 548.888,889.636 L 561.634,890.282 L 579.722,892.126 L 592.466,894.08 L 611.526,898.008 L 624.272,901.308 L 645.044,907.844 L 655.868,911.852 L 667.364,911.852 L 687.71,904.122 L 700.876,899.844 L 720.814,894.486 L 733.984,891.686 L 748.924,889.16 L 752.778,890.26 L 767.144,894.516 L 783.416,900.254 L 796.584,905.708 L 809.198,911.71 L 821.268,918.264 L 831.42,924.476 L 842.458,932.062 L 850.964,938.584 L 861.01,947.162 L 868.442,954.216 L 877.51,963.772 L 884.256,971.674 L 892.344,982.212 L 898.698,991.468 L 905.774,1003.01 L 911.87,1014.27 L 915.372,1021.61 L 915.242,1027.15 L 915.238,1027.34 L 914.922,1039.97 L 914.914,1040.22 L 914.59,1052.22 L 914.818,1052.73 L 920.67,1064.31 L 927.226,1075.78 L 933.288,1085.25 L 940.804,1095.76 L 947.178,1103.79 L 955.618,1113.37 L 962.53,1120.46 L 971.886,1129.13 L 979.638,1135.61 L 989.914,1143.36 L 998.964,1149.49 L 1010.19,1156.29 L 1021.16,1162.19 L 1033.38,1167.99 L 1043.52,1172.33 L 1050.04,1174.84 L 1062.05,1178.94 L 1075.91,1183.09 L 1096.63,1188.14 L 1111.75,1191.05 L 1140.11,1194.98 L 1143.15,1195.25 L 1143.53,1209.29 L 1143.69,1212.41 L 1146.22,1238.62 L 1146.64,1241.47 L 1150.63,1261.69 L 1151.29,1264.31 L 1153.01,1270.69 L 1155.31,1278.64 L 1155.88,1280.58 L 1156.03,1281.05 L 1156.6,1282.97 L 1158.63,1290 L 1159.97,1294.97 L 1160.55,1297.29 L 1163.15,1310.29 L 1163.49,1312.61 L 1164.73,1325.15 L 1164.85,1327.47 L 1165,1333.7 L 1165,2014.39 L 1172.26,2028.29 L 1177.45,2042.19 L 1180.56,2056.1 L 1181.59,2070 L 1181.59,2110 L 1179.54,2129.55 L 1158.63,2140 L 1135,2140 L 1045,2140 L 1021.37,2140 L 1012.27,2136.24 L 1003.18,2124.07 L 995.998,2110 L 979.428,2070 L 973.456,2052.65 L 969.202,2033.58 L 966.666,2012.79 L 965.85,1990.28 L 955.862,1966.17 L 959.976,1945.84 L 962.06,1932.67 L 964.59,1908.69 L 965.28,1895.52 L 965.28,1871.89 L 964.59,1858.72 L 962.06,1834.73 L 959.976,1821.56 L 954.584,1796.27 L 951.054,1783.1 L 942.1,1755.62 L 937.044,1742.45 L 926.82,1718.78 L 937.762,1697.85 L 946.786,1676.91 L 953.896,1655.98 L 959.092,1635.05 L 969.772,1599.85 L 980.172,1573.59 L 986.69,1547.33 L 988.414,1537.44 L 990.568,1520.18 L 991.012,1502.92 L 989.94,1457.97 L 986.5,1427.08 L 979.71,1392.95 L 976.846,1380.57 L 958.776,1359.93 L 938.046,1341.95 L 926.46,1327.95 L 913.71,1315.11 L 899.798,1303.44 L 884.722,1292.93 L 845.822,1268.25 L 824.258,1256.08 L 800.85,1245.76 L 786.646,1240.26 L 780.788,1229.41 L 763.674,1215.83 L 758.85,1211.91 L 747.41,1202.4 L 734.578,1190.93 L 729.418,1185.96 L 719.128,1176.7 L 703.688,1163.71 L 693.31,1155.59 L 677.35,1143.99 L 673.658,1141.37 L 665.998,1140.08 L 664.892,1139.92 L 660.634,1137.93 L 652.374,1138.03 L 634.806,1138.92 L 617.712,1140.49 L 612.05,1141.12 L 603.418,1142.26 L 591.244,1143.26 L 577.55,1143.67 L 570.836,1143.65 L 567.782,1143.53 L 554.862,1143.98 L 553.55,1144.13 L 548.5,1144.53 L 542.126,1144.84 L 535.734,1144.91 L 522.958,1144.57 L 514.084,1143.88 L 512.262,1143.64 L 501.038,1142.88 L 495.628,1142.84 L 490.306,1142.66 L 476.176,1141.85 L 464.818,1140.71 L 462.256,1140.35 L 446.7,1138.9 L 424.028,1137.82 L 403.56,1137.55 L 387.618,1137.84 L 369.3,1133.68 L 364.932,1135.19 L 313.122,1189.91 L 281.86,1218.98 L 256.928,1239.52 L 218.072,1275 L 123.072,1180 z " style="fill-opacity:1.000000;fill:rgb(205,186,171);stroke:rgb(0,0,0);stroke-width:2"/></g>
<g fill-rule="evenodd"><path d="M 61.618,789.736 L 61.936,777.228 L 62.968,763.686 L 64.614,750.792 L 67.04,737.25 L 70.274,723.35 L 74.15,709.808 L 79.472,694.284 L 84.88,680.74 L 93.026,663.028 L 93.31,662.94 L 106.852,658.69 L 124.34,654.15 L 126.404,653.726 L 137.72,650.992 L 153.608,646.558 L 166.57,642.356 L 178.878,637.796 L 185.534,635.182 L 190.002,633.326 L 198.768,636.968 L 211.886,641.82 L 227.768,646.974 L 240.816,650.616 L 253.6,653.616 L 257.43,654.562 L 270.972,658.068 L 287.918,663.326 L 289.372,663.852 L 303.356,668.352 L 316.61,672.118 L 338.916,667.85 L 361.224,661.19 L 383.53,652.14 L 405.836,640.702 L 445.666,650.852 L 483.594,657.464 L 506.81,660.36 L 530.026,660.956 L 571.244,659.974 L 591.928,658.576 L 612.612,655.366 L 640.266,649.866 L 644.532,648.98 L 644.796,649.09 L 681.608,664.34 L 715.528,675.432 L 749.45,680.604 L 769.724,696.532 L 790,708.732 L 796.542,712.068 L 798.76,713.174 L 800.238,713.894 L 810.242,719.314 L 812.288,720.54 L 822.266,727.202 L 824.146,728.596 L 831.536,734.558 L 832.956,735.804 L 834.712,737.312 L 839.044,740.958 L 850.934,749.746 L 864.148,757.212 L 878.686,763.354 L 894.548,768.172 L 904.966,770.794 L 933.712,775.948 L 965.78,777.782 L 1001.17,776.296 L 1039.88,771.488 L 1067.58,805.174 L 1070.16,806.494 L 1101.58,822.474 L 1113.17,828.088 L 1142.78,841.706 L 1152.13,845.83 L 1154.51,846.836 L 1160.48,849.43 L 1161.01,849.342 L 1163.82,848.852 L 1197.81,842.812 L 1211.05,840.156 L 1240.71,833.506 L 1253.5,830.33 L 1283.42,822.17 L 1290,820.296 L 1296.58,822.172 L 1326.5,830.332 L 1339.28,833.508 L 1368.96,840.158 L 1382.19,842.814 L 1416.15,848.85 L 1418.99,849.342 L 1429.13,851.062 L 1430.64,851.314 L 1435.4,852.1 L 1461.92,846.674 L 1488.44,839.122 L 1514.97,829.44 L 1541.49,817.632 L 1566.09,818.386 L 1613.31,818.408 L 1653.79,816.414 L 1694.26,810.396 L 1741.49,801.024 L 1787.23,789.484 L 1832.97,773.022 L 1880.19,753.486 L 1909.28,740.528 L 1938.37,725.724 L 1967.46,709.074 L 1996.56,690.578 L 2043.78,659.054 L 2075.41,636.942 L 2107.04,612.838 L 2433.7,612.822 L 2474.08,613.816 L 2476.4,613.93 L 2516.93,616.932 L 2557.47,621.942 L 2559.78,622.286 L 2601.62,629.564 L 2643.47,638.978 L 2645.79,639.558 L 2689.67,651.728 L 2733.56,666.248 L 2735.88,667.074 L 2782.38,685.018 L 2950.14,754.498 L 2970.17,791.218 L 2969.29,802.37 L 2965.24,876.608 L 2965.09,946.954 L 2965.68,969.626 L 2968.35,1022.3 L 2973.53,1072.46 L 2976.24,1093.02 L 2982.39,1132.26 L 2990.31,1169.75 L 2994.81,1188.51 L 3006.65,1231.06 L 3006.65,1273.35 L 3005.95,1302.4 L 3005.79,1305.52 L 3001.42,1351.42 L 3001.26,1352.45 L 3000.86,1355.29 L 2998.68,1371.03 L 2997.89,1376.38 L 2995.56,1391.58 L 2995.18,1394.11 L 2993.04,1408.79 L 2992.29,1413.65 L 2990.62,1423.94 L 2990.25,1426.3 L 2988.14,1440 L 2987.92,1441.45 L 2987.24,1446.08 L 2984.64,1472.43 L 2984.41,1477.06 L 2984.09,1490 L 2984.09,1733.7 L 2984.41,1746.64 L 2984.64,1751.27 L 2987.24,1777.69 L 2987.93,1782.32 L 2993.34,1809.44 L 2994.5,1814.07 L 3003.27,1842.91 L 3004.93,1847.55 L 3010.84,1862.86 L 3051.04,1959.9 L 3078.21,1997.28 L 3082.34,2010.48 L 3086.08,2023.11 L 3090,2037.19 L 3090,2070 L 3090,2110 L 3090,2140 L 2885,2140 L 2795,2140 L 2771.37,2140 L 2762.27,2136.24 L 2754.81,2126.61 L 2748.58,2115.74 L 2748.4,2110 L 2748.4,2070 L 2749.44,2056.1 L 2752.55,2042.19 L 2757.74,2028.29 L 2765,2014.39 L 2765,1471.07 L 2731.42,1390 L 2730.17,1387.19 L 2729.12,1384.97 L 2726.54,1380.12 L 2725.31,1378.08 L 2722.53,1373.92 L 2721.14,1372.04 L 2718.15,1368.4 L 2716.6,1366.68 L 2715,1365 L 2419.05,1069.06 L 2413.32,1066.68 L 2411.27,1065.89 L 2408.96,1065.06 L 2405.25,1063.94 L 2402.93,1063.36 L 2399.5,1062.67 L 2397.19,1062.33 L 2393.93,1062.01 L 2391.61,1061.89 L 2390,1061.85 L 1440,1061.85 L 1438.39,1061.89 L 1436.07,1062.01 L 1432.81,1062.33 L 1430.5,1062.67 L 1427.06,1063.36 L 1424.75,1063.94 L 1421.03,1065.07 L 1418.71,1065.9 L 1416.68,1066.68 L 1377.18,1083.04 L 1372.61,1089 L 1367.68,1094.78 L 1358.61,1104.34 L 1353.19,1109.48 L 1343.15,1118.06 L 1336.89,1122.85 L 1325.86,1130.44 L 1318.28,1135.07 L 1306.21,1141.63 L 1296.58,1146.21 L 1283.42,1151.66 L 1270.7,1156.14 L 1256.34,1160.4 L 1238.96,1164.54 L 1223.24,1167.45 L 1198.66,1170.64 L 1181.39,1172 L 1168.31,1172.75 L 1151.16,1188.54 L 1144.29,1194.29 L 1143.15,1195.25 L 1140.11,1194.98 L 1111.75,1191.05 L 1096.63,1188.14 L 1075.91,1183.09 L 1062.05,1178.94 L 1050.04,1174.84 L 1043.52,1172.33 L 1033.38,1167.99 L 1021.16,1162.19 L 1010.19,1156.29 L 998.964,1149.49 L 989.914,1143.36 L 979.638,1135.61 L 971.886,1129.13 L 962.53,1120.46 L 955.618,1113.37 L 947.178,1103.79 L 940.804,1095.76 L 933.288,1085.25 L 927.226,1075.78 L 920.67,1064.31 L 914.818,1052.73 L 914.59,1052.22 L 914.914,1040.22 L 914.922,1039.97 L 915.238,1027.34 L 915.242,1027.15 L 915.372,1021.61 L 911.87,1014.27 L 905.774,1003.01 L 898.698,991.468 L 892.344,982.212 L 884.256,971.674 L 877.51,963.772 L 868.442,954.216 L 861.01,947.162 L 850.964,938.584 L 842.458,932.062 L 831.42,924.476 L 821.268,918.264 L 809.198,911.71 L 796.584,905.708 L 783.416,900.254 L 767.144,894.516 L 752.778,890.26 L 748.924,889.16 L 733.984,891.686 L 720.814,894.486 L 700.876,899.844 L 687.71,904.122 L 667.364,911.852 L 655.868,911.852 L 645.044,907.844 L 624.272,901.308 L 611.526,898.008 L 592.466,894.08 L 579.722,892.126 L 561.634,890.282 L 548.888,889.636 L 535.548,889.466 L 529.168,889.628 L 515.774,890.48 L 510.324,891.034 L 501.02,890.33 L 498.704,890.216 L 490,890 L 338.682,890 L 318.658,878.154 L 298.634,869.614 L 285.658,871.586 L 269.616,875.022 L 259.434,877.908 L 256.928,878.658 L 245.872,882.126 L 237.798,884.222 L 224.254,887.004 L 217.072,888.108 L 203.53,889.486 L 198.458,889.808 L 191.678,889.98 L 186.64,889.916 L 173.098,889.228 L 166.188,888.524 L 152.648,886.45 L 145.076,884.89 L 131.534,881.384 L 123.072,878.734 L 122.826,878.644 L 108.488,874.552 L 95.414,871.784 L 76.976,868.932 L 73.598,868.582 L 70.184,856.304 L 67.044,842.764 L 64.652,829.458 L 62.926,815.914 L 61.96,803.274 L 61.618,789.736 z " style="fill-opacity:1.000000;fill:rgb(242,251,227);stroke:rgb(0,0,0);stroke-width:2"/></g>
<g fill-rule="evenodd"><path d="M 123.072,2080 L 96.15,2049.23 L 85.572,2033.85 L 76.92,2018.46 L 70.188,2003.08 L 65.382,1987.7 L 62.496,1972.31 L 61.536,1956.93 L 61.536,1823.07 L 62.602,1806.87 L 65.802,1790.66 L 71.136,1774.46 L 78.604,1758.25 L 86.05,1756.33 L 104.56,1752.73 L 123.072,1751.54 L 124.17,1751.54 L 141.502,1750.49 L 158.834,1747.34 L 176.166,1742.09 L 193.5,1734.74 L 223.55,1743.59 L 253.6,1746.54 L 256.928,1746.54 L 287.918,1749.67 L 355.062,1763.27 L 380.612,1753.46 L 406.162,1740.52 L 410.772,1734.87 L 417.206,1727.25 L 418.174,1726.15 L 426.65,1716.02 L 447.322,1690.17 L 456.22,1678.58 L 482.664,1642.69 L 492.76,1628.51 L 500.34,1617.49 L 506.272,1620.87 L 523.638,1630.88 L 530.216,1634.61 L 558.004,1650.03 L 570.158,1656.5 L 574.794,1658.85 L 599.982,1677.56 L 610.902,1685.33 L 636.6,1702.84 L 647.312,1709.8 L 660.938,1718.25 L 661.606,1718.2 L 676.86,1716.79 L 684.93,1715.86 L 707.304,1714.13 L 721.486,1713.61 L 733.564,1713.45 L 747.11,1713.6 L 760.518,1713.35 L 778.108,1712.5 L 783.416,1712.31 L 796.584,1711.99 L 819.626,1712.66 L 823.132,1712.94 L 832.904,1713.52 L 858.136,1714.47 L 864.568,1714.63 L 872.432,1714.74 L 902.376,1716.7 L 903.122,1716.79 L 918.376,1718.2 L 926.82,1718.78 L 937.044,1742.45 L 942.1,1755.62 L 951.054,1783.1 L 954.584,1796.27 L 959.976,1821.56 L 962.06,1834.73 L 964.59,1858.72 L 965.28,1871.89 L 965.28,1895.52 L 964.59,1908.69 L 962.06,1932.67 L 959.976,1945.84 L 955.862,1966.17 L 965.85,1990.28 L 966.666,2012.79 L 969.202,2033.58 L 973.456,2052.65 L 979.428,2070 L 995.998,2110 L 1003.18,2124.07 L 1012.27,2136.24 L 1021.37,2140 L 1045,2140 L 1135,2140 L 1158.63,2140 L 1179.54,2129.55 L 1181.59,2110 L 1181.59,2070 L 1180.56,2056.1 L 1177.45,2042.19 L 1172.26,2028.29 L 1165,2014.39 L 1165,1333.7 L 1164.85,1327.47 L 1164.73,1325.15 L 1163.49,1312.61 L 1163.15,1310.29 L 1160.55,1297.29 L 1159.97,1294.97 L 1158.63,1290 L 1156.6,1282.97 L 1156.03,1281.05 L 1155.88,1280.58 L 1155.31,1278.64 L 1153.01,1270.69 L 1151.29,1264.31 L 1150.63,1261.69 L 1146.64,1241.47 L 1146.22,1238.62 L 1143.69,1212.41 L 1143.53,1209.29 L 1143.15,1195.25 L 1144.29,1194.29 L 1151.16,1188.54 L 1168.31,1172.75 L 1181.39,1172 L 1198.66,1170.64 L 1223.24,1167.45 L 1238.96,1164.54 L 1256.34,1160.4 L 1270.7,1156.14 L 1283.42,1151.66 L 1296.58,1146.21 L 1306.21,1141.63 L 1318.28,1135.07 L 1325.86,1130.44 L 1336.89,1122.85 L 1343.15,1118.06 L 1353.19,1109.48 L 1358.61,1104.34 L 1367.68,1094.78 L 1372.61,1089 L 1377.18,1083.04 L 1416.68,1066.68 L 1418.71,1065.9 L 1421.03,1065.07 L 1424.75,1063.94 L 1427.06,1063.36 L 1430.5,1062.67 L 1432.81,1062.33 L 1436.07,1062.01 L 1438.39,1061.89 L 1440,1061.85 L 2390,1061.85 L 2391.61,1061.89 L 2393.93,1062.01 L 2397.19,1062.33 L 2399.5,1062.67 L 2402.93,1063.36 L 2405.25,1063.94 L 2408.96,1065.06 L 2411.27,1065.89 L 2413.32,1066.68 L 2419.05,1069.06 L 2715,1365 L 2716.6,1366.68 L 2718.15,1368.4 L 2721.14,1372.04 L 2722.53,1373.92 L 2725.31,1378.08 L 2726.54,1380.12 L 2729.12,1384.97 L 2730.17,1387.19 L 2731.42,1390 L 2765,1471.07 L 2765,2014.39 L 2757.74,2028.29 L 2752.55,2042.19 L 2749.44,2056.1 L 2748.4,2070 L 2748.4,2110 L 2748.58,2115.74 L 2754.81,2126.61 L 2762.27,2136.24 L 2771.37,2140 L 2795,2140 L 2885,2140 L 3090,2140 L 3090,2170 L 3090,2210 L 3090,2240 L 2885,2240 L 2795,2240 L 2771.37,2240 L 2760.71,2240 L 2740,2231.42 L 2737.22,2230.19 L 2734.99,2229.14 L 2730.12,2226.54 L 2728.07,2225.31 L 2723.91,2222.54 L 2722.03,2221.14 L 2718.4,2218.16 L 2716.68,2216.6 L 2715,2215 L 2665,2165 L 2663.35,2163.36 L 2661.71,2161.71 L 2658.27,2158.28 L 2656.56,2156.57 L 2652.57,2152.57 L 2650.71,2150.72 L 2645.55,2145.56 L 2645.53,2145.53 L 2643.44,2143.44 L 2643.41,2143.41 L 2640,2140 L 2410.24,1910.25 L 2412.6,1880.89 L 2413.29,1867.72 L 2413.29,1812.28 L 2412.6,1799.11 L 2406.69,1743.03 L 2404.6,1729.86 L 2392.12,1671.32 L 2388.59,1658.15 L 2379.3,1626.86 L 2368.19,1595.56 L 2363.14,1582.39 L 2342.42,1533.98 L 2327.11,1520.49 L 2317.06,1511.91 L 2289.06,1489.25 L 2259.71,1467.94 L 2248.67,1460.35 L 2239.23,1453.98 L 2177.61,1444.7 L 2164.44,1443.32 L 2128.94,1440.52 L 2093.43,1439.58 L 2080.27,1439.58 L 2033.66,1441.19 L 2004.83,1418.88 L 1975.99,1398.6 L 1941.85,1375.79 L 1924.62,1364.67 L 1901.05,1337.17 L 1884.59,1318.9 L 1843.73,1277.8 L 1827.27,1262.99 L 1796.33,1237.81 L 1779.87,1225.86 L 1755.63,1210.06 L 1739.18,1200.56 L 1719.62,1190.56 L 1703.17,1183.23 L 1686.82,1176.94 L 1670.36,1171.59 L 1656.18,1167.78 L 1639.73,1164.28 L 1626.88,1162.24 L 1610.43,1160.51 L 1598.23,1159.87 L 1581.77,1159.87 L 1569.57,1160.51 L 1553.12,1162.24 L 1540.27,1164.28 L 1523.82,1167.78 L 1509.63,1171.59 L 1493.17,1176.94 L 1478.34,1182.57 L 1477.3,1183.66 L 1465.97,1195.6 L 1454.83,1208.65 L 1444.72,1221.82 L 1434.32,1236.97 L 1425.48,1251.4 L 1415.61,1269.6 L 1408.1,1285.35 L 1398.73,1308.03 L 1392.65,1325.22 L 1385.11,1350.11 L 1385.69,1353.93 L 1388.3,1370.39 L 1390.88,1384.39 L 1381.48,1411.64 L 1375.18,1438.89 L 1368.99,1474.39 L 1365.66,1506.55 L 1366.87,1538.71 L 1365.15,1575.74 L 1369.47,1612.76 L 1376.26,1646.94 L 1383.66,1675.57 L 1394.49,1704.2 L 1408.73,1732.83 L 1426.4,1761.47 L 1421.64,1773.26 L 1416.58,1786.43 L 1405.74,1819.7 L 1402.21,1832.87 L 1395.65,1863.65 L 1393.56,1876.81 L 1390.48,1906.1 L 1389.79,1919.26 L 1389.79,1948.14 L 1390.48,1961.31 L 1393.56,1990.59 L 1395.65,2003.76 L 1401.1,2030.26 L 1398.4,2070 L 1398.4,2110 L 1399.94,2140 L 1398.4,2170 L 1398.4,2190 L 1398.05,2204.46 L 1397.93,2206.78 L 1397.76,2210 L 1396.18,2236.2 L 1396.04,2238.57 L 1395.97,2240 L 1388.72,2268.22 L 1388.27,2270 L 1388.14,2270.53 L 1378.53,2302.12 L 1377.7,2304.44 L 1375.66,2310 L 1364.42,2339.88 L 1364.37,2340 L 1363.2,2342.05 L 1359.88,2347.87 L 1319.48,2336.18 L 1316.38,2335.29 L 1282.4,2325.74 L 1279.76,2325.01 L 1274.05,2323.45 L 1254.97,2317.53 L 1253.63,2317.06 L 1251.22,2316.22 L 1248.8,2315.4 L 1243.24,2310 L 1240,2306.81 L 1203.19,2270 L 1180.91,2251.36 L 1169.77,2244.77 L 1158.63,2240 L 1135,2240 L 1045,2240 L 1021.37,2240 L 990,2240 L 986.266,2239.91 L 983.948,2239.8 L 977.986,2239.27 L 976.584,2238.18 L 974.636,2236.64 L 972.416,2234.81 L 968.942,2231.84 L 967.12,2230.33 L 966.586,2229.91 L 962.03,2225.92 L 960.35,2224.32 L 958.018,2221.98 L 956.952,2220.86 L 951.872,2216.04 L 941.828,2207.46 L 935.958,2202.96 L 924.92,2195.37 L 917.774,2191 L 905.704,2184.45 L 896.584,2180.11 L 883.414,2174.65 L 871.304,2170.38 L 856.938,2166.13 L 840.296,2162.16 L 824.582,2159.25 L 800.906,2156.18 L 783.642,2154.82 L 748.786,2154 L 729.66,2154.5 L 693.148,2156.9 L 675.838,2137.22 L 666.768,2127.66 L 659.636,2120.36 L 647.532,2108.34 L 645.876,2106.71 L 642.75,2103.64 L 640.036,2103.35 L 638.4,2103.17 L 624.982,2101.67 L 623.83,2101.54 L 589.208,2097.77 L 589.094,2097.76 L 575.898,2096.33 L 575.344,2096.27 L 553.55,2093.86 L 547.13,2093.23 L 544.898,2093.03 L 531.746,2091.57 L 525.98,2090.79 L 513.314,2089.37 L 502.882,2088.45 L 489.714,2086.96 L 485.07,2086.33 L 472.172,2084.87 L 459.172,2083.68 L 445.376,2082.12 L 440.98,2081.52 L 427.276,2079.95 L 409.238,2078.24 L 394.052,2076.51 L 392.952,2076.37 L 385.002,2078.17 L 369.154,2090 L 256.928,2090 L 133.072,2090 L 123.072,2080 z " style="fill-opacity:1.000000;fill:rgb(70,124,194);stroke:rgb(0,0,0);stroke-width:2"/></g>
<g fill-rule="evenodd"><path d="M 1389.79,1948.14 L 1389.79,1919.26 L 1390.48,1906.1 L 1393.56,1876.81 L 1395.65,1863.65 L 1402.21,1832.87 L 1405.74,1819.7 L 1416.58,1786.43 L 1421.64,1773.26 L 1426.4,1761.47 L 1443.47,1758.11 L 1453,1756.36 L 1465.78,1754.19 L 1467.49,1753.9 L 1500.2,1748.18 L 1513.45,1745.55 L 1541.92,1739.2 L 1554.71,1736.03 L 1583.42,1728.17 L 1590,1726.29 L 1596.58,1728.17 L 1625.29,1736.03 L 1638.07,1739.2 L 1666.56,1745.56 L 1679.8,1748.19 L 1684.99,1749.09 L 1697.58,1774.42 L 1698.88,1777.01 L 1704.28,1787.6 L 1715.22,1812.1 L 1720.28,1825.27 L 1727.3,1846.82 L 1730.83,1859.98 L 1735.03,1879.67 L 1737.11,1892.84 L 1738.43,1902.99 L 1739.27,1911.38 L 1741.07,1924.43 L 1744.41,1943.32 L 1747.29,1956.87 L 1750.44,1969.46 L 1745.82,1977.4 L 1738.74,1988.95 L 1727.41,2005.45 L 1723.34,2010.75 L 1719.43,2016.05 L 1718.06,2017.97 L 1716.71,2019.85 L 1713.03,2024.87 L 1712.43,2037.62 L 1712.29,2040.17 L 1711.28,2056.71 L 1711.12,2059.08 L 1710.29,2070 L 1710.04,2074.07 L 1709.92,2076.38 L 1709.74,2083.06 L 1703.35,2097.46 L 1698.54,2110 L 1698.29,2110.63 L 1695.82,2116.97 L 1677.23,2131.02 L 1658.63,2140 L 1635,2140 L 1609.21,2140 L 1603.35,2140.92 L 1598.41,2141.44 L 1592.47,2141.75 L 1587.53,2141.75 L 1581.58,2141.44 L 1576.64,2140.92 L 1570.79,2140 L 1545,2140 L 1399.94,2140 L 1398.4,2110 L 1398.4,2070 L 1401.1,2030.26 L 1395.65,2003.76 L 1393.56,1990.59 L 1390.48,1961.31 L 1389.79,1948.14 z " style="fill-opacity:1.000000;fill:rgb(84,248,27);stroke:rgb(0,0,0);stroke-width:2"/></g>
<g fill-rule="evenodd"><path d="M 688.522,2643.72 L 688.522,2636.28 L 689.212,2623.11 L 690.018,2615.47 L 692.104,2602.3 L 693.888,2593.93 L 697.418,2580.76 L 698.508,2577.01 L 700.386,2571.01 L 703.9,2556.46 L 706.656,2540.83 L 707.344,2536.65 L 699.416,2517.31 L 688.424,2497.97 L 688.424,2393.15 L 688.632,2384.67 L 688.678,2383.7 L 688.74,2382.35 L 689.04,2375.07 L 689.152,2372.73 L 689.58,2364.87 L 689.694,2362.48 L 690.022,2354.55 L 690.14,2352.1 L 690.626,2343.09 L 690.748,2340.54 L 691.154,2330.93 L 691.282,2328.23 L 691.898,2316.68 L 692.036,2313.8 L 692.582,2301.07 L 692.678,2298.98 L 692.728,2297.95 L 693.148,2280.56 L 693.148,2280.36 L 693.148,2280.35 L 693.148,2275.92 L 693.148,2262.67 L 693.148,2232.98 L 693.148,2219.13 L 693.148,2183.93 L 693.148,2168.72 L 693.148,2156.9 L 729.66,2154.5 L 748.786,2154 L 783.642,2154.82 L 800.906,2156.18 L 824.582,2159.25 L 840.296,2162.16 L 856.938,2166.13 L 871.304,2170.38 L 883.414,2174.65 L 896.584,2180.11 L 905.704,2184.45 L 917.774,2191 L 924.92,2195.37 L 935.958,2202.96 L 941.828,2207.46 L 951.872,2216.04 L 956.952,2220.86 L 958.018,2221.98 L 960.35,2224.32 L 962.03,2225.92 L 966.586,2229.91 L 967.12,2230.33 L 968.942,2231.84 L 972.416,2234.81 L 974.636,2236.64 L 976.584,2238.18 L 977.986,2239.27 L 983.948,2239.8 L 986.266,2239.91 L 990,2240 L 1021.37,2240 L 1045,2240 L 1135,2240 L 1158.63,2240 L 1169.77,2244.77 L 1180.91,2251.36 L 1203.19,2270 L 1240,2306.81 L 1243.24,2310 L 1248.8,2315.4 L 1172.5,2347.19 L 1153.75,2353.05 L 1135,2355 L 1120,2356.25 L 1105,2360 L 1100,2360 L 1086.25,2360.95 L 1072.5,2363.78 L 1058.75,2368.51 L 1045,2375.13 L 1006.52,2396.29 L 1005.95,2396.79 L 1003.87,2401.39 L 1000.12,2410 L 994.288,2422.33 L 987.578,2435.5 L 981.06,2447.5 L 973.306,2460.95 L 965.382,2475.53 L 953.638,2498.46 L 953.888,2499.92 L 969.8,2526.75 L 976.764,2537.94 L 989.72,2557.78 L 994.65,2565.58 L 999.314,2573.19 L 1001.76,2577.11 L 1021.71,2608.68 L 1029.87,2621.06 L 1057.85,2661.89 L 1067.98,2676.2 L 1112.5,2737.07 L 1114.21,2739.42 L 1127.38,2757.54 L 1144.94,2782.46 L 1186.95,2843.86 L 1170.19,2853.77 L 1157.02,2861.38 L 1120.53,2881.24 L 1084.03,2898.7 L 1070.86,2904.56 L 1038.18,2918.13 L 1005.51,2929.73 L 992.338,2934.01 L 962.238,2942.94 L 932.138,2950.19 L 918.968,2952.98 L 862.034,2962.03 L 848.866,2963.41 L 793.434,2966.32 L 780.266,2966.32 L 724.832,2963.41 L 717.1,2962.6 L 716.588,2938.86 L 713.414,2821.13 L 711.876,2792.21 L 709.078,2758.25 L 706.658,2739.18 L 703.9,2723.55 L 700.386,2708.99 L 698.508,2702.99 L 697.418,2699.24 L 693.888,2686.07 L 692.104,2677.7 L 690.018,2664.54 L 689.212,2656.89 L 688.522,2643.72 z " style="fill-opacity:1.000000;fill:rgb(232,231,141);stroke:rgb(0,0,0);stroke-width:2"/></g>
<g fill-rule="evenodd"><path d="M 92.078,2430.33 L 82.252,2428.34 L 73.188,2410.49 L 66.714,2392.63 L 62.83,2374.78 L 61.536,2356.93 L 61.536,2223.07 L 62.496,2207.69 L 65.382,2192.3 L 70.188,2176.92 L 76.92,2161.54 L 85.572,2146.15 L 96.15,2130.77 L 123.072,2100 L 133.072,2090 L 256.928,2090 L 369.154,2090 L 385.002,2078.17 L 392.952,2076.37 L 394.052,2076.51 L 409.238,2078.24 L 427.276,2079.95 L 440.98,2081.52 L 445.376,2082.12 L 459.172,2083.68 L 472.172,2084.87 L 485.07,2086.33 L 489.714,2086.96 L 502.882,2088.45 L 513.314,2089.37 L 525.98,2090.79 L 531.746,2091.57 L 544.898,2093.03 L 547.13,2093.23 L 553.55,2093.86 L 575.344,2096.27 L 575.898,2096.33 L 589.094,2097.76 L 589.208,2097.77 L 623.83,2101.54 L 624.982,2101.67 L 638.4,2103.17 L 640.036,2103.35 L 642.75,2103.64 L 645.876,2106.71 L 647.532,2108.34 L 659.636,2120.36 L 666.768,2127.66 L 675.838,2137.22 L 693.148,2156.9 L 693.148,2168.72 L 693.148,2183.93 L 693.148,2219.13 L 693.148,2232.98 L 693.148,2262.67 L 693.148,2275.92 L 693.148,2280.35 L 693.148,2280.36 L 693.148,2280.56 L 692.728,2297.95 L 692.678,2298.98 L 692.582,2301.07 L 692.036,2313.8 L 691.898,2316.68 L 691.282,2328.23 L 691.154,2330.93 L 690.748,2340.54 L 690.626,2343.09 L 690.14,2352.1 L 690.022,2354.55 L 689.694,2362.48 L 689.58,2364.87 L 689.152,2372.73 L 689.04,2375.07 L 688.74,2382.35 L 688.678,2383.7 L 688.632,2384.67 L 688.424,2393.15 L 688.424,2497.97 L 699.416,2517.31 L 707.344,2536.65 L 706.656,2540.83 L 703.9,2556.46 L 700.386,2571.01 L 698.508,2577.01 L 697.418,2580.76 L 693.888,2593.93 L 692.104,2602.3 L 690.018,2615.47 L 689.212,2623.11 L 688.522,2636.28 L 688.522,2643.72 L 689.212,2656.89 L 690.018,2664.54 L 692.104,2677.7 L 693.888,2686.07 L 697.418,2699.24 L 698.508,2702.99 L 700.386,2708.99 L 703.9,2723.55 L 706.658,2739.18 L 709.078,2758.25 L 711.876,2792.21 L 713.414,2821.13 L 716.588,2938.86 L 717.1,2962.6 L 685.046,2965.52 L 652.992,2966.5 L 527.008,2966.5 L 472.434,2963.67 L 417.86,2955.19 L 363.286,2941.07 L 308.714,2921.29 L 296.484,2889.44 L 319.222,2818.84 L 329.974,2788.07 L 341.726,2759.43 L 366.796,2702.99 L 373.132,2687.75 L 390.802,2642.13 L 398.392,2619.82 L 403.88,2597.51 L 407.958,2577.01 L 411.252,2562.74 L 433.43,2478.59 L 423.91,2468.78 L 414.488,2459.53 L 413.872,2458.95 L 399.436,2444.33 L 395.478,2439.98 L 386.204,2430.34 L 371.794,2416.2 L 350.624,2409.01 L 293.948,2423.68 L 275.438,2427.27 L 256.928,2428.46 L 255.83,2428.46 L 238.496,2429.51 L 221.164,2432.66 L 203.832,2437.91 L 186.498,2445.26 L 156.448,2436.41 L 126.4,2433.46 L 123.072,2433.46 L 92.078,2430.33 z " style="fill-opacity:1.000000;fill:rgb(118,90,46);stroke:rgb(0,0,0);stroke-width:2"/></g>
<g fill-rule="evenodd"><path d="M 1368.82,2523.12 L 1368.38,2517.45 L 1367.22,2495.44 L 1365.14,2419.95 L 1365.01,2412.5 L 1364.99,2410 L 1362.49,2370 L 1359.88,2347.87 L 1363.2,2342.05 L 1364.37,2340 L 1545,2340 L 1570.78,2340 L 1571.14,2340.06 L 1576.07,2340.84 L 1582.11,2341.48 L 1587.05,2341.73 L 1590,2341.81 L 1635,2341.81 L 1652.63,2344.57 L 1670.27,2352.84 L 1679.69,2370 L 1684.46,2381.53 L 1684.29,2384.84 L 1684.29,2395.16 L 1684.98,2408.33 L 1685.08,2410 L 1685.7,2419.01 L 1685.79,2432.82 L 1685.04,2446.64 L 1683.33,2462.84 L 1681.5,2474.72 L 1684.15,2482.11 L 1689.2,2495.29 L 1697.76,2514.44 L 1704.47,2527.61 L 1717.68,2550.4 L 1726.23,2563.57 L 1746.7,2591.64 L 1752.31,2598.56 L 1778.55,2661.9 L 1818.1,2701.45 L 1860.84,2719.16 L 1876.16,2725.07 L 1880.79,2726.73 L 1909.63,2735.5 L 1914.26,2736.66 L 1941.39,2742.07 L 1946.02,2742.76 L 1972.43,2745.36 L 1977.06,2745.59 L 1990,2745.91 L 2308.28,2745.91 L 2327.24,2739.17 L 2339.98,2735.17 L 2363.96,2728.95 L 2376.7,2726.33 L 2399.15,2722.88 L 2411.89,2721.58 L 2428.2,2720.55 L 2434.58,2720.38 L 2450.83,2720.59 L 2463.57,2721.24 L 2485.57,2723.48 L 2498.32,2725.43 L 2521.42,2730.19 L 2534.16,2733.49 L 2559.19,2741.37 L 2571.93,2746.09 L 2574.88,2747.2 L 2591.64,2764.58 L 2600.08,2774.16 L 2617.34,2795.91 L 2624.86,2806.42 L 2640.87,2831.42 L 2647.42,2842.89 L 2662.3,2872.34 L 2667.85,2884.82 L 2681.56,2920.56 L 2686,2934.13 L 2698.1,2978.79 L 2701.34,2993.58 L 2703.73,3005.14 L 2669.87,3025.77 L 2657.12,3032.85 L 2619.16,3051.53 L 2606.42,3056.99 L 2572.73,3069.51 L 2559.98,3073.51 L 2529.11,3081.52 L 2516.37,3084.14 L 2487.32,3088.6 L 2474.58,3089.9 L 2453.42,3091.25 L 2447.04,3091.41 L 2425.94,3091.14 L 2413.2,3090.49 L 2384.68,3087.59 L 2371.93,3085.63 L 2342.11,3079.49 L 2329.36,3076.19 L 2297.25,3066.08 L 2296.77,3065.91 L 1740,3065.91 L 1723.96,3065.51 L 1721.64,3065.4 L 1688.95,3062.18 L 1686.64,3061.83 L 1653.01,3055.12 L 1650.7,3054.54 L 1615.36,3043.8 L 1613.04,3042.97 L 1594.28,3035.73 L 1382.14,2947.86 L 1353.75,2935.26 L 1351.43,2934.16 L 1320.96,2918.78 L 1290.48,2901.48 L 1288.17,2900.1 L 1253.63,2878.17 L 1219.09,2853.79 L 1216.78,2852.07 L 1204.36,2842.71 L 1248.7,2774.62 L 1250.32,2772.14 L 1264.89,2749.59 L 1271.19,2740 L 1278.14,2729.6 L 1310,2676.92 L 1335.16,2624.23 L 1343.4,2604.34 L 1358.17,2563.73 L 1368.82,2523.12 z " style="fill-opacity:1.000000;fill:rgb(99,51,159);stroke:rgb(0,0,0);stroke-width:2"/></g>
<g fill-rule="evenodd"><path d="M 1988.52,1843.72 L 1988.52,1836.28 L 1989.21,1823.11 L 1990.02,1815.47 L 1992.1,1802.3 L 1993.89,1793.93 L 1997.42,1780.76 L 1998.51,1777.01 L 2000.39,1771.01 L 2003.9,1756.46 L 2006.66,1740.83 L 2009.08,1721.76 L 2011.88,1687.78 L 2013.42,1658.85 L 2016.59,1541.14 L 2017.43,1481.77 L 2017.48,1464.29 L 2033.66,1441.19 L 2080.27,1439.58 L 2093.43,1439.58 L 2128.94,1440.52 L 2164.44,1443.32 L 2177.61,1444.7 L 2239.23,1453.98 L 2248.67,1460.35 L 2259.71,1467.94 L 2289.06,1489.25 L 2317.06,1511.91 L 2327.11,1520.49 L 2342.42,1533.98 L 2363.14,1582.39 L 2368.19,1595.56 L 2379.3,1626.86 L 2388.59,1658.15 L 2392.12,1671.32 L 2404.6,1729.86 L 2406.69,1743.03 L 2412.6,1799.11 L 2413.29,1812.28 L 2413.29,1867.72 L 2412.6,1880.89 L 2410.24,1910.25 L 2640,2140 L 2643.41,2143.41 L 2643.44,2143.44 L 2645.53,2145.53 L 2645.55,2145.56 L 2650.71,2150.72 L 2652.57,2152.57 L 2656.56,2156.57 L 2658.27,2158.28 L 2661.71,2161.71 L 2663.35,2163.36 L 2665,2165 L 2715,2215 L 2716.68,2216.6 L 2718.4,2218.16 L 2722.03,2221.14 L 2723.91,2222.54 L 2728.07,2225.31 L 2730.12,2226.54 L 2734.99,2229.14 L 2737.22,2230.19 L 2740,2231.42 L 2760.71,2240 L 2771.37,2240 L 2795,2240 L 2885,2240 L 3090,2240 L 3090,2270 L 3090,2278.34 L 3055.71,2291.79 L 3013.03,2309.47 L 3011.75,2310 L 2922.5,2347.19 L 2903.75,2353.05 L 2885,2355 L 2870,2356.25 L 2855,2360 L 2852.35,2360 L 2838.97,2360.9 L 2825.59,2363.58 L 2822.88,2364.3 L 2808.94,2368.99 L 2795,2375.6 L 2756.48,2396.51 L 2740.46,2411.35 L 2740,2411.81 L 2728.11,2423.12 L 2725.55,2425.44 L 2708.61,2439.95 L 2696.88,2436.05 L 2694.68,2435.33 L 2689.87,2433.77 L 2685.48,2432.31 L 2668.34,2426.46 L 2666.12,2425.71 L 2658.75,2423.26 L 2654.25,2421.72 L 2640,2416.72 L 2638.11,2416.06 L 2635.8,2415.23 L 2622.93,2410.32 L 2622.59,2407.41 L 2622,2402.7 L 2619.83,2386.24 L 2613.81,2353.38 L 2610.2,2338.37 L 2602.95,2313.76 L 2598.08,2300.01 L 2596.37,2295.34 L 2582.39,2281.65 L 2569.22,2269.79 L 2556.18,2259.18 L 2543.01,2249.61 L 2533.66,2243.52 L 2520.5,2235.92 L 2513.74,2232.47 L 2500.57,2226.6 L 2495.59,2224.68 L 2482.42,2220.41 L 2478.64,2219.39 L 2465.47,2216.59 L 2462.44,2216.11 L 2449.27,2214.72 L 2446.58,2214.58 L 2433.42,2214.58 L 2430.73,2214.72 L 2417.56,2216.11 L 2414.52,2216.59 L 2401.35,2219.39 L 2397.57,2220.41 L 2384.41,2224.68 L 2379.43,2226.6 L 2366.26,2232.47 L 2359.5,2235.92 L 2352.43,2240 L 2277.57,2240 L 2270.5,2244.08 L 2263.74,2247.54 L 2250.57,2253.4 L 2245.59,2255.32 L 2232.43,2259.6 L 2228.64,2260.61 L 2215.47,2263.41 L 2212.44,2263.89 L 2199.27,2265.28 L 2196.58,2265.42 L 2183.42,2265.42 L 2180.73,2265.28 L 2167.56,2263.89 L 2164.52,2263.41 L 2151.36,2260.61 L 2147.58,2259.6 L 2134.41,2255.32 L 2129.43,2253.4 L 2116.26,2247.54 L 2109.5,2244.08 L 2096.33,2236.48 L 2086.99,2230.39 L 2073.82,2220.82 L 2060.78,2210.21 L 2047.61,2198.36 L 2029.05,2179.69 L 2015.88,2165.07 L 1993.15,2137.26 L 1993.15,2132.98 L 1993.15,2119.13 L 1993.15,2117.65 L 1990,2112.67 L 1990,2090 L 1989.94,2083.76 L 1989.76,2073.41 L 1989.72,2070.38 L 1989.71,2068.02 L 1989.67,2065.06 L 1989.3,2044.42 L 1989.27,2041.78 L 1989.26,2040.35 L 1989.23,2037.74 L 1988.93,2021.22 L 1988.9,2018.79 L 1988.9,2017.79 L 1988.87,2015.38 L 1988.61,2000.91 L 1988.58,1998.58 L 1988.58,1997.65 L 1988.55,1995.33 L 1988.45,1990 L 1988.42,1986.85 L 1988.42,1982.03 L 1999.42,1962.69 L 2007.34,1943.35 L 2006.66,1939.18 L 2003.9,1923.55 L 2000.39,1908.99 L 1998.51,1902.99 L 1997.42,1899.24 L 1993.89,1886.07 L 1992.1,1877.7 L 1990.02,1864.54 L 1989.21,1856.89 L 1988.52,1843.72 z " style="fill-opacity:1.000000;fill:rgb(201,154,102);stroke:rgb(0,0,0);stroke-width:2"/></g>
<g fill-rule="evenodd"><path d="M 1395.97,2240 L 1396.04,2238.57 L 1396.18,2236.2 L 1397.76,2210 L 1397.93,2206.78 L 1398.05,2204.46 L 1398.4,2190 L 1398.4,2170 L 1399.94,2140 L 1545,2140 L 1570.79,2140 L 1576.64,2140.92 L 1581.58,2141.44 L 1587.53,2141.75 L 1592.47,2141.75 L 1598.41,2141.44 L 1603.35,2140.92 L 1609.21,2140 L 1635,2140 L 1658.63,2140 L 1677.23,2131.02 L 1695.82,2116.97 L 1698.29,2110.63 L 1698.54,2110 L 1703.35,2097.46 L 1709.74,2083.06 L 1709.92,2076.38 L 1710.04,2074.07 L 1710.29,2070 L 1711.12,2059.08 L 1711.28,2056.71 L 1712.29,2040.17 L 1712.43,2037.62 L 1713.03,2024.87 L 1716.71,2019.85 L 1718.06,2017.97 L 1719.43,2016.05 L 1723.34,2010.75 L 1727.41,2005.45 L 1738.74,1988.95 L 1745.82,1977.4 L 1750.44,1969.46 L 1747.29,1956.87 L 1744.41,1943.32 L 1741.07,1924.43 L 1739.27,1911.38 L 1738.43,1902.99 L 1737.11,1892.84 L 1735.03,1879.67 L 1730.83,1859.98 L 1727.3,1846.82 L 1720.28,1825.27 L 1715.22,1812.1 L 1704.28,1787.6 L 1698.88,1777.01 L 1697.58,1774.42 L 1684.99,1749.09 L 1706.69,1729.19 L 1723.53,1714.92 L 1814.08,1644.43 L 1827.01,1634.87 L 1851.63,1617.56 L 1872.61,1601.77 L 1893.59,1583.93 L 1935.54,1542.05 L 1952.99,1525.83 L 1976.35,1503.34 L 1980.99,1498.9 L 2017.48,1464.29 L 2017.43,1481.77 L 2016.59,1541.14 L 2013.42,1658.85 L 2011.88,1687.78 L 2009.08,1721.76 L 2006.66,1740.83 L 2003.9,1756.46 L 2000.39,1771.01 L 1998.51,1777.01 L 1997.42,1780.76 L 1993.89,1793.93 L 1992.1,1802.3 L 1990.02,1815.47 L 1989.21,1823.11 L 1988.52,1836.28 L 1988.52,1843.72 L 1989.21,1856.89 L 1990.02,1864.54 L 1992.1,1877.7 L 1993.89,1886.07 L 1997.42,1899.24 L 1998.51,1902.99 L 2000.39,1908.99 L 2003.9,1923.55 L 2006.66,1939.18 L 2007.34,1943.35 L 1999.42,1962.69 L 1988.42,1982.03 L 1988.42,1986.85 L 1988.45,1990 L 1988.55,1995.33 L 1988.58,1997.65 L 1988.58,1998.58 L 1988.61,2000.91 L 1988.87,2015.38 L 1988.9,2017.79 L 1988.9,2018.79 L 1988.93,2021.22 L 1989.23,2037.74 L 1989.26,2040.35 L 1989.27,2041.78 L 1989.3,2044.42 L 1989.67,2065.06 L 1989.71,2068.02 L 1989.72,2070.38 L 1989.76,2073.41 L 1989.94,2083.76 L 1990,2090 L 1990,2112.67 L 1993.15,2117.65 L 1993.15,2119.13 L 1993.15,2132.98 L 1993.15,2137.26 L 2015.88,2165.07 L 2029.05,2179.69 L 2047.61,2198.36 L 2060.78,2210.21 L 2073.82,2220.82 L 2086.99,2230.39 L 2096.33,2236.48 L 2109.5,2244.08 L 2116.26,2247.54 L 2129.43,2253.4 L 2134.41,2255.32 L 2147.58,2259.6 L 2151.36,2260.61 L 2164.52,2263.41 L 2167.56,2263.89 L 2180.73,2265.28 L 2183.42,2265.42 L 2196.58,2265.42 L 2199.27,2265.28 L 2212.44,2263.89 L 2215.47,2263.41 L 2228.64,2260.61 L 2232.43,2259.6 L 2245.59,2255.32 L 2250.57,2253.4 L 2263.74,2247.54 L 2270.5,2244.08 L 2277.57,2240 L 2352.43,2240 L 2359.5,2235.92 L 2366.26,2232.47 L 2379.43,2226.6 L 2384.41,2224.68 L 2397.57,2220.41 L 2401.35,2219.39 L 2414.52,2216.59 L 2417.56,2216.11 L 2430.73,2214.72 L 2433.42,2214.58 L 2446.58,2214.58 L 2449.27,2214.72 L 2462.44,2216.11 L 2465.47,2216.59 L 2478.64,2219.39 L 2482.42,2220.41 L 2495.59,2224.68 L 2500.57,2226.6 L 2513.74,2232.47 L 2520.5,2235.92 L 2533.66,2243.52 L 2543.01,2249.61 L 2556.18,2259.18 L 2569.22,2269.79 L 2582.39,2281.65 L 2596.37,2295.34 L 2598.08,2300.01 L 2602.95,2313.76 L 2610.2,2338.37 L 2613.81,2353.38 L 2619.83,2386.24 L 2622,2402.7 L 2622.59,2407.41 L 2622.93,2410.32 L 2597.54,2422.97 L 2584.37,2428.84 L 2556.74,2439.48 L 2543.58,2443.75 L 2518.64,2450.46 L 2505.47,2453.26 L 2482.22,2456.95 L 2469.05,2458.33 L 2446.58,2459.51 L 2433.42,2459.51 L 2410.95,2458.33 L 2397.78,2456.95 L 2374.52,2453.25 L 2361.36,2450.46 L 2336.43,2443.76 L 2323.27,2439.48 L 2308.21,2434.09 L 2054.57,2434.09 L 1947.02,2389.55 L 1938.69,2381.65 L 1925.52,2369.79 L 1912.48,2359.18 L 1899.31,2349.61 L 1896.3,2347.5 L 1892.1,2344.65 L 1890.19,2343.39 L 1889.91,2343.21 L 1882.88,2338.18 L 1880.93,2336.64 L 1878.71,2334.81 L 1875.24,2331.84 L 1873.42,2330.33 L 1872.88,2329.91 L 1868.33,2325.92 L 1866.65,2324.32 L 1864.32,2321.98 L 1863.25,2320.86 L 1858.17,2316.04 L 1848.13,2307.46 L 1842.26,2302.96 L 1831.22,2295.37 L 1824.07,2291 L 1822.23,2290 L 1810.82,2290 L 1802.88,2290 L 1789.71,2290 L 1783.3,2290 L 1781.93,2289.27 L 1769.86,2282.72 L 1763.86,2279.05 L 1752.82,2271.46 L 1747.96,2267.74 L 1737.92,2259.16 L 1733.74,2255.19 L 1732.46,2253.84 L 1730.54,2251.92 L 1727.18,2248.71 L 1724.2,2246.06 L 1722.95,2245.03 L 1719.51,2241.94 L 1719.41,2241.84 L 1714.61,2237.64 L 1711.51,2235.18 L 1710.57,2235.04 L 1704.1,2234.4 L 1699.47,2234.17 L 1696.3,2234.09 L 1656.49,2234.09 L 1645.74,2237.17 L 1635,2238.19 L 1590,2238.19 L 1587.03,2238.27 L 1582.1,2238.53 L 1576.07,2239.16 L 1571.14,2239.94 L 1570.79,2240 L 1545,2240 L 1395.97,2240 z " style="fill-opacity:1.000000;fill:rgb(50,13,183);stroke:rgb(0,0,0);stroke-width:2"/></g>
<g fill-rule="evenodd"><path d="M 1398.73,1308.03 L 1408.1,1285.35 L 1415.61,1269.6 L 1425.48,1251.4 L 1434.32,1236.97 L 1444.72,1221.82 L 1454.83,1208.65 L 1465.97,1195.6 L 1477.3,1183.66 L 1478.34,1182.57 L 1493.17,1176.94 L 1509.63,1171.59 L 1523.82,1167.78 L 1540.27,1164.28 L 1553.12,1162.24 L 1569.57,1160.51 L 1581.77,1159.87 L 1598.23,1159.87 L 1610.43,1160.51 L 1626.88,1162.24 L 1639.73,1164.28 L 1656.18,1167.78 L 1670.36,1171.59 L 1686.82,1176.94 L 1703.17,1183.23 L 1719.62,1190.56 L 1739.18,1200.56 L 1755.63,1210.06 L 1779.87,1225.86 L 1796.33,1237.81 L 1827.27,1262.99 L 1843.73,1277.8 L 1884.59,1318.9 L 1901.05,1337.17 L 1924.62,1364.67 L 1855.05,1373.67 L 1818.74,1379.17 L 1766.17,1388.43 L 1742.13,1393.55 L 1717.38,1399.83 L 1712.69,1401.08 L 1698.57,1405.02 L 1689.69,1407.25 L 1682.09,1408.94 L 1665.28,1413.81 L 1653.3,1418.15 L 1638.25,1424.82 L 1627.01,1430.78 L 1625.93,1431.37 L 1611.93,1438.96 L 1598.23,1445.48 L 1590,1448.89 L 1581.77,1445.49 L 1568.07,1438.96 L 1554.08,1431.37 L 1552.99,1430.78 L 1541.74,1424.82 L 1526.7,1418.15 L 1514.72,1413.81 L 1497.92,1408.95 L 1490.31,1407.26 L 1481.43,1405.02 L 1467.31,1401.08 L 1462.62,1399.83 L 1437.87,1393.55 L 1413.83,1388.43 L 1390.88,1384.39 L 1388.3,1370.39 L 1385.69,1353.93 L 1385.11,1350.11 L 1392.65,1325.22 L 1398.73,1308.03 z " style="fill-opacity:1.000000;fill:rgb(49,88,163);stroke:rgb(0,0,0);stroke-width:2"/></g>
<g fill-rule="evenodd"><path d="M 3845.4,743.326 L 3845.4,736.676 L 3846.09,723.508 L 3846.81,716.65 L 3848.9,703.482 L 3849.51,700.162 L 3854.26,698.1 L 3861.65,694.404 L 3865.55,692.154 L 3867.86,690.748 L 3872.29,687.902 L 3873.98,686.768 L 3877.25,684.46 L 3881.99,680.562 L 3882.88,679.714 L 3883.42,679.212 L 3884.87,677.878 L 3886,676.876 L 3893.58,670.406 L 3896.42,668.818 L 3900.26,666.926 L 3912.36,661.732 L 3916.32,660.274 L 3923.76,657.966 L 3929.17,657.4 L 3933.41,657.18 L 3946.58,657.186 L 3950.82,657.41 L 3956.38,657.998 L 3963.68,660.266 L 3967.64,661.728 L 3979.74,666.932 L 3983.57,668.826 L 3986.54,670.488 L 3994,676.87 L 3997.05,679.768 L 4004.69,687.818 L 4006.16,689.294 L 4007.58,690.644 L 4009.3,692.384 L 4010.36,693.512 L 4011.32,694.512 L 4016.28,695.55 L 4018.24,695.84 L 4024.18,696.282 L 4165.1,696.378 L 4167.07,696.332 L 4169.03,696.236 L 4175.06,695.49 L 4178.22,694.864 L 4178.83,694.396 L 4179.88,693.604 L 4184.87,689.176 L 4188.24,685.662 L 4191.31,682.774 L 4197.97,677.148 L 4200.44,675.766 L 4204.27,673.88 L 4214.83,669.344 L 4218.8,667.884 L 4225.32,665.86 L 4230.01,665.37 L 4234.25,665.15 L 4245.75,665.156 L 4249.98,665.38 L 4254.8,665.89 L 4261.2,667.88 L 4265.17,669.342 L 4275.73,673.886 L 4279.55,675.774 L 4282.06,677.178 L 4288.65,682.814 L 4291.7,685.712 L 4299.62,694.058 L 4302.41,697.33 L 4302.98,698.084 L 4307.69,707.556 L 4309.36,711.416 L 4312.47,719.758 L 4313.46,722.176 L 4314.86,725.312 L 4315.29,726.308 L 4315.66,727.19 L 4318.96,733.676 L 4321.12,737.254 L 4321.19,737.364 L 4322.41,739.394 L 4320.44,742.676 L 4319.2,744.842 L 4318.2,746.706 L 4315.33,753.09 L 4315.12,753.676 L 4313.85,756.794 L 4313.39,757.802 L 4312.27,760.524 L 4309.3,768.564 L 4307.64,772.418 L 4302.87,782.092 L 4302.42,782.68 L 4299.62,785.95 L 4291.7,794.288 L 4288.65,797.182 L 4281.95,802.904 L 4279.56,804.236 L 4275.73,806.124 L 4265.16,810.66 L 4261.2,812.12 L 4254.67,814.144 L 4249.98,814.634 L 4245.75,814.854 L 4234.25,814.848 L 4230.02,814.624 L 4225.19,814.114 L 4218.79,812.126 L 4214.83,810.662 L 4204.27,806.118 L 4200.44,804.23 L 4197.94,802.826 L 4191.35,797.19 L 4188.29,794.29 L 4186.45,792.344 L 4183.56,789.588 L 4180.59,787.01 L 4179.87,786.404 L 4178.25,785.066 L 4175.01,784.454 L 4173.05,784.164 L 4167.16,783.722 L 4117.82,783.624 L 4113.79,783.818 L 4109.89,784.204 L 4101.54,785.882 L 4097.64,787.064 L 4087.72,791.22 L 4083.82,793.306 L 4077.65,797.018 L 4079.39,804.016 L 4080.67,808.248 L 4084.74,818.19 L 4086.67,821.788 L 4091.39,828.886 L 4093.88,831.918 L 4096.52,834.836 L 4620.8,1359.2 L 4621.4,1359.82 L 4622.31,1360.77 L 4626.84,1366.46 L 4629.41,1370.12 L 4631.81,1373.98 L 4632.77,1375.62 L 4634.17,1378.13 L 4784.43,1718.94 L 4787.17,1724.1 L 4788.2,1725.75 L 4791.93,1730.85 L 4793.49,1732.69 L 4795.01,1733.14 L 4798.23,1733.97 L 4801.23,1734.63 L 4802.6,1734.95 L 4803.1,1735.08 L 4808.23,1736.05 L 4809.07,1736.16 L 4818.54,1739.1 L 4822.5,1740.57 L 4837.62,1747.07 L 4841.46,1748.97 L 4845.34,1751.14 L 4854.52,1758.99 L 4857.57,1761.89 L 4868.9,1773.83 L 4871.71,1777.13 L 4872.81,1778.57 L 4879.3,1791.74 L 4880.96,1795.6 L 4886.65,1811.05 L 4887.74,1814.45 L 4887.79,1815.25 L 4888.64,1831.7 L 4888.64,1835.9 L 4887.77,1852.35 L 4887.71,1853.33 L 4886.66,1856.56 L 4880.96,1872 L 4879.3,1875.86 L 4872.72,1889.18 L 4871.72,1890.48 L 4868.91,1893.78 L 4857.57,1905.71 L 4854.52,1908.61 L 4845.19,1916.57 L 4841.48,1918.65 L 4837.62,1920.54 L 4822.5,1927.03 L 4818.53,1928.49 L 4809.31,1931.35 L 4802.48,1932.07 L 4798.22,1932.29 L 4781.77,1932.28 L 4777.52,1932.06 L 4770.51,1931.32 L 4761.46,1928.5 L 4757.49,1927.04 L 4742.38,1920.54 L 4738.53,1918.64 L 4734.66,1916.46 L 4725.48,1908.61 L 4722.42,1905.71 L 4711.1,1893.77 L 4708.29,1890.48 L 4707.18,1889.03 L 4700.69,1875.86 L 4699.04,1872.01 L 4693.35,1856.55 L 4692.26,1853.15 L 4692.21,1852.35 L 4691.35,1835.9 L 4691.35,1831.7 L 4692.22,1815.25 L 4692.29,1814.28 L 4693.33,1811.04 L 4699.04,1795.6 L 4700.7,1791.74 L 4706.48,1780.03 L 4707.37,1778.11 L 4707.89,1776.9 L 4708.18,1776.25 L 4709.8,1772.66 L 4709.95,1772.34 L 4709.91,1772.08 L 4709.57,1770.03 L 4708.65,1765.75 L 4708.12,1763.77 L 4706.84,1759.83 L 4706.12,1757.94 L 4705.35,1756.07 L 4626.55,1577.22 L 4625.7,1575.42 L 4624.8,1573.63 L 4622.78,1570.06 L 4621.7,1568.35 L 4619.19,1564.8 L 4617.91,1563.18 L 4614.75,1559.55 L 4613.27,1558.01 L 4609.23,1554.22 L 4607.54,1552.78 L 4602.29,1548.76 L 4600.36,1547.42 L 4597.04,1545.25 L 4593.97,1547.7 L 4592.17,1549.21 L 4587.27,1553.74 L 4585.72,1555.33 L 4580.53,1561.49 L 4578.1,1564.88 L 4573.74,1572.43 L 4572.1,1576.08 L 4570.63,1579.85 L 4514.73,1747.81 L 4513.34,1753.21 L 4513,1755.04 L 4512.32,1761.03 L 4512.22,1763.28 L 4512.94,1764.66 L 4517.27,1771.37 L 4519.08,1773.67 L 4519.54,1774.27 L 4521.71,1777.13 L 4521.85,1777.32 L 4522.81,1778.57 L 4529.3,1791.74 L 4530.96,1795.6 L 4536.65,1811.05 L 4537.74,1814.45 L 4537.79,1815.25 L 4538.64,1831.7 L 4538.64,1835.9 L 4537.77,1852.35 L 4537.71,1853.33 L 4536.66,1856.56 L 4530.96,1872 L 4529.3,1875.86 L 4522.72,1889.18 L 4521.72,1890.48 L 4518.91,1893.78 L 4507.57,1905.71 L 4504.52,1908.61 L 4495.19,1916.57 L 4491.48,1918.65 L 4487.62,1920.54 L 4472.5,1927.03 L 4468.53,1928.49 L 4459.31,1931.35 L 4452.48,1932.07 L 4448.22,1932.29 L 4431.77,1932.28 L 4427.52,1932.06 L 4420.51,1931.32 L 4411.46,1928.5 L 4407.49,1927.04 L 4392.38,1920.54 L 4388.53,1918.64 L 4384.66,1916.46 L 4375.48,1908.61 L 4372.42,1905.71 L 4361.1,1893.77 L 4358.29,1890.48 L 4357.18,1889.03 L 4350.69,1875.86 L 4349.04,1872.01 L 4343.35,1856.55 L 4342.26,1853.15 L 4342.21,1852.35 L 4341.35,1835.9 L 4341.35,1831.7 L 4342.22,1815.25 L 4342.29,1814.28 L 4343.33,1811.04 L 4349.04,1795.6 L 4350.7,1791.74 L 4357.27,1778.42 L 4358.28,1777.12 L 4361.09,1773.82 L 4372.43,1761.89 L 4375.48,1759 L 4384.8,1751.04 L 4388.52,1748.96 L 4392.37,1747.06 L 4407.5,1740.57 L 4411.46,1739.11 L 4415.54,1737.85 L 4418.95,1736.63 L 4422.16,1735.32 L 4424.74,1734.17 L 4427.27,1730.04 L 4428.91,1726.99 L 4431.68,1720.59 L 4532.67,1417.83 L 4533.68,1414.26 L 4534.52,1410.67 L 4535.59,1402.81 L 4535.68,1400.91 L 4534.75,1399.24 L 4530.28,1392.7 L 4527.93,1389.87 L 4525.42,1387.12 L 3968.64,830.474 L 3962.44,825.394 L 3959.14,823.186 L 3958.19,822.568 L 3952.87,822.534 L 3950.9,822.644 L 3950.83,822.648 L 3948.91,822.758 L 3946.58,822.824 L 3933.42,822.818 L 3929.17,822.594 L 3923.61,822.006 L 3916.32,819.738 L 3912.36,818.276 L 3900.26,813.072 L 3896.43,811.178 L 3893.46,809.516 L 3885.99,803.134 L 3884.91,802.174 L 3882.87,800.298 L 3881.98,799.506 L 3879.01,796.93 L 3873.86,793.102 L 3872.29,792.104 L 3872.14,792.01 L 3867.85,789.26 L 3865.59,787.884 L 3861.69,785.628 L 3854.25,781.908 L 3849.51,779.854 L 3848.9,776.52 L 3846.81,763.352 L 3846.09,756.494 L 3845.4,743.326 z " style="fill-opacity:1.000000;fill:rgb(90,37,93);stroke:rgb(0,0,0);stroke-width:2"/></g>
<g fill-rule="evenodd"><path d="M 2984.41,1746.64 L 2984.09,1733.7 L 2984.09,1490 L 2984.41,1477.06 L 2984.64,1472.43 L 2987.24,1446.08 L 2987.92,1441.45 L 2988.14,1440 L 2990.25,1426.3 L 2990.62,1423.94 L 2992.29,1413.65 L 2993.04,1408.79 L 2995.18,1394.11 L 2995.56,1391.58 L 2997.89,1376.38 L 2998.68,1371.03 L 3000.86,1355.29 L 3001.26,1352.45 L 3001.42,1351.42 L 3005.79,1305.52 L 3005.95,1302.4 L 3006.65,1273.35 L 3006.65,1231.06 L 2994.81,1188.51 L 2990.31,1169.75 L 2982.39,1132.26 L 2976.24,1093.02 L 2973.53,1072.46 L 2968.35,1022.3 L 2965.68,969.626 L 2965.09,946.954 L 2965.24,876.608 L 2969.29,802.37 L 2970.17,791.218 L 2985.49,796.67 L 3127.33,846.446 L 3148.55,853.654 L 3238.96,883.324 L 3256.98,888.998 L 3260.23,889.974 L 3296.3,901.876 L 3325.57,912.416 L 3337.09,916.438 L 3342.03,919.364 L 3397.27,951.798 L 3412.28,960.302 L 3413.34,960.878 L 3448.79,982.056 L 3458.95,988.688 L 3473.02,997.54 L 3490.26,1007.99 L 3496.82,1017.13 L 3509.13,1034.68 L 3519.32,1048.66 L 3547.78,1086.27 L 3551.27,1090.81 L 3557.88,1099.31 L 3566.91,1111.34 L 3584.53,1135.72 L 3591.87,1145.57 L 3594.48,1148.97 L 3621.24,1187.96 L 3630.07,1202.39 L 3654.77,1247.99 L 3662.28,1263.74 L 3684.93,1318.64 L 3691.01,1335.82 L 3695.84,1350.02 L 3594.95,1366.2 L 3560.91,1372.44 L 3511.01,1382.83 L 3487.92,1388.49 L 3464.46,1395.2 L 3463.29,1395.53 L 3444.53,1400.77 L 3441.39,1401.62 L 3427.67,1405.19 L 3411.22,1410.55 L 3398.68,1415.51 L 3383.81,1422.56 L 3373.09,1428.53 L 3371.8,1429.24 L 3356.72,1437.43 L 3342.03,1444.42 L 3335.19,1447.25 L 3328.98,1449.97 L 3313.97,1468.76 L 3301.43,1490.03 L 3291.37,1513.78 L 3283.79,1540 L 3279.21,1547.66 L 3277.33,1578.02 L 3279.51,1608.37 L 3285.73,1638.73 L 3296.01,1669.08 L 3297.42,1670.5 L 3325.74,1698.82 L 3346.86,1717.79 L 3370.12,1734.62 L 3375.29,1736.03 L 3388.07,1739.2 L 3416.56,1745.56 L 3429.8,1748.19 L 3434.99,1749.09 L 3447.58,1774.42 L 3448.88,1777.01 L 3454.28,1787.6 L 3465.22,1812.1 L 3470.28,1825.27 L 3477.3,1846.82 L 3480.83,1859.98 L 3485.03,1879.67 L 3487.11,1892.84 L 3488.43,1902.99 L 3489.27,1911.38 L 3491.07,1924.43 L 3494.41,1943.32 L 3497.29,1956.87 L 3500.44,1969.46 L 3495.82,1977.4 L 3488.74,1988.95 L 3477.41,2005.45 L 3473.34,2010.75 L 3469.43,2016.05 L 3468.06,2017.97 L 3466.71,2019.85 L 3463.03,2024.87 L 3462.43,2037.62 L 3462.29,2040.17 L 3461.28,2056.71 L 3461.12,2059.08 L 3460.29,2070 L 3460.04,2074.07 L 3459.92,2076.38 L 3459.74,2083.06 L 3453.35,2097.46 L 3448.54,2110 L 3448.29,2110.63 L 3445.82,2116.97 L 3427.23,2131.02 L 3408.63,2140 L 3385,2140 L 3359.21,2140 L 3353.35,2140.92 L 3348.41,2141.44 L 3342.47,2141.75 L 3337.53,2141.75 L 3331.58,2141.44 L 3326.64,2140.92 L 3320.79,2140 L 3295,2140 L 3090,2140 L 3090,2110 L 3090,2070 L 3090,2037.19 L 3086.08,2023.11 L 3082.34,2010.48 L 3078.21,1997.28 L 3051.04,1959.9 L 3010.84,1862.86 L 3004.93,1847.55 L 3003.27,1842.91 L 2994.5,1814.07 L 2993.34,1809.44 L 2987.93,1782.32 L 2987.24,1777.69 L 2984.64,1751.27 L 2984.41,1746.64 z " style="fill-opacity:1.000000;fill:rgb(5,23,88);stroke:rgb(0,0,0);stroke-width:2"/></g>
<g fill-rule="evenodd"><path d="M 3738.52,1843.72 L 3738.52,1836.28 L 3739.21,1823.11 L 3740.02,1815.47 L 3742.1,1802.3 L 3743.89,1793.93 L 3747.42,1780.76 L 3748.51,1777.01 L 3750.39,1771.01 L 3753.9,1756.46 L 3756.66,1740.83 L 3759.08,1721.76 L 3761.88,1687.78 L 3763.42,1658.85 L 3766.59,1541.14 L 3767.41,1487.95 L 3768.9,1488.67 L 3830.27,1518.29 L 3843.43,1524.44 L 3858.65,1531.31 L 3892.2,1547.96 L 3902.96,1553.8 L 3904.27,1554.51 L 3946.58,1577.34 L 3958.28,1583.43 L 3981.55,1595.11 L 3999.65,1604.71 L 4011.21,1611.2 L 4023.12,1618.11 L 4053.31,1636.26 L 4065.27,1643.22 L 4103.94,1665.02 L 4104.25,1668.83 L 4104.89,1677.61 L 4105.85,1692.26 L 4106.94,1721.08 L 4107.18,1745.26 L 4107.52,1759 L 4109.34,1804.72 L 4109.58,1809.89 L 4110,1817.89 L 4110.21,1857.11 L 4110.01,1862.12 L 4109.67,1875.32 L 4109.21,1921.55 L 4109.19,1926.88 L 4117.88,1941.34 L 4118.4,1942.19 L 4119.6,1944.2 L 4129.18,1961.04 L 4153.89,1977.56 L 4189.11,1998.88 L 4224.33,2015.73 L 4271.55,2035.31 L 4297.81,2044.79 L 4324.07,2051.44 L 4371.29,2060.85 L 4393.73,2064.21 L 4416.18,2065.34 L 4463.39,2065.36 L 4485.84,2064.25 L 4508.28,2060.91 L 4555.51,2051.54 L 4581.74,2044.93 L 4607.97,2035.49 L 4614.98,2032.59 L 4621.55,2035.31 L 4647.81,2044.79 L 4674.07,2051.44 L 4721.29,2060.85 L 4743.73,2064.21 L 4766.18,2065.34 L 4813.39,2065.36 L 4835.84,2064.25 L 4858.28,2060.91 L 4905.51,2051.54 L 4931.74,2044.93 L 4957.97,2035.49 L 5005.19,2015.95 L 5040.36,1999.17 L 5075.52,1977.92 L 5122.75,1946.4 L 5149.32,1927.56 L 5175.9,1906.51 L 5202.47,1883.27 L 5229.05,1857.82 L 5276.27,1810.64 L 5320.57,1763.71 L 5364.87,1711.45 L 5409.18,1653.85 L 5453.48,1590.91 L 5542.72,1590.91 L 5649.66,1697.85 L 5715.85,1739.92 L 5775.14,1782 L 5827.55,1824.07 L 5873.07,1866.14 L 6006.93,2000 L 6033.85,2030.77 L 6044.43,2046.15 L 6053.08,2061.54 L 6059.81,2076.92 L 6064.62,2092.3 L 6067.5,2107.69 L 6068.46,2123.07 L 6068.46,2256.93 L 6067.4,2273.13 L 6064.2,2289.34 L 6058.86,2305.54 L 6051.39,2321.75 L 6043.95,2323.68 L 6025.44,2327.27 L 6006.93,2328.46 L 6005.83,2328.46 L 5981.93,2330.46 L 5958.03,2336.45 L 5934.14,2346.43 L 5910.24,2360.4 L 5891.66,2364.98 L 5873.07,2371.29 L 5724.88,2428.58 L 5695.89,2455.92 L 5657.81,2494 L 5614.92,2540.04 L 5572.03,2592.37 L 5529.15,2650.99 L 5486.26,2715.91 L 5376.85,2715.91 L 5364.93,2702.51 L 5348.48,2684.24 L 5303.07,2636.19 L 5257.66,2592.91 L 5241.21,2578.1 L 5205.08,2547.14 L 5168.96,2519.33 L 5152.5,2507.37 L 5122.65,2486.8 L 5092.8,2468.45 L 5076.34,2458.95 L 5025.41,2432.91 L 5008.96,2425.59 L 4964.02,2408.28 L 4947.57,2402.93 L 4906.68,2391.95 L 4890.23,2388.45 L 4851.85,2382.35 L 4835.4,2380.63 L 4798.23,2378.67 L 4781.77,2378.67 L 4744.6,2380.63 L 4728.15,2382.35 L 4689.78,2388.45 L 4673.32,2391.95 L 4632.42,2402.94 L 4615.96,2408.29 L 4615,2408.6 L 4614.02,2408.28 L 4597.57,2402.93 L 4556.68,2391.95 L 4540.23,2388.45 L 4501.85,2382.35 L 4485.4,2380.63 L 4448.23,2378.67 L 4431.77,2378.67 L 4413.12,2379.16 L 4404.18,2366.5 L 4391.01,2348.37 L 4364.12,2314.93 L 4350.95,2300.31 L 4332.39,2281.65 L 4319.22,2269.79 L 4306.18,2259.18 L 4293.01,2249.61 L 4283.66,2243.52 L 4270.5,2235.92 L 4263.74,2232.47 L 4250.57,2226.6 L 4245.59,2224.68 L 4232.42,2220.41 L 4228.64,2219.39 L 4215.47,2216.59 L 4212.44,2216.11 L 4199.27,2214.72 L 4196.58,2214.58 L 4183.42,2214.58 L 4180.73,2214.72 L 4167.56,2216.11 L 4164.52,2216.59 L 4151.35,2219.39 L 4147.57,2220.41 L 4134.41,2224.68 L 4129.43,2226.6 L 4116.26,2232.47 L 4109.5,2235.92 L 4102.43,2240 L 4027.57,2240 L 4020.5,2244.08 L 4013.74,2247.54 L 4000.57,2253.4 L 3995.59,2255.32 L 3982.43,2259.6 L 3978.64,2260.61 L 3965.47,2263.41 L 3962.44,2263.89 L 3949.27,2265.28 L 3946.58,2265.42 L 3933.42,2265.42 L 3930.73,2265.28 L 3917.56,2263.89 L 3914.52,2263.41 L 3901.36,2260.61 L 3897.58,2259.6 L 3884.41,2255.32 L 3879.43,2253.4 L 3866.26,2247.54 L 3859.5,2244.08 L 3846.33,2236.48 L 3836.99,2230.39 L 3823.82,2220.82 L 3810.78,2210.21 L 3797.61,2198.36 L 3779.05,2179.69 L 3765.88,2165.07 L 3743.15,2137.26 L 3743.15,2132.98 L 3743.15,2119.13 L 3743.15,2117.65 L 3740,2112.67 L 3740,2090 L 3739.94,2083.76 L 3739.76,2073.41 L 3739.72,2070.38 L 3739.71,2068.02 L 3739.67,2065.06 L 3739.3,2044.42 L 3739.27,2041.78 L 3739.26,2040.35 L 3739.23,2037.74 L 3738.93,2021.22 L 3738.9,2018.79 L 3738.9,2017.79 L 3738.87,2015.38 L 3738.61,2000.91 L 3738.58,1998.58 L 3738.58,1997.65 L 3738.55,1995.33 L 3738.45,1990 L 3738.42,1986.85 L 3738.42,1982.03 L 3749.42,1962.69 L 3757.34,1943.35 L 3756.66,1939.18 L 3753.9,1923.55 L 3750.39,1908.99 L 3748.51,1902.99 L 3747.42,1899.24 L 3743.89,1886.07 L 3742.1,1877.7 L 3740.02,1864.54 L 3739.21,1856.89 L 3738.52,1843.72 z " style="fill-opacity:1.000000;fill:rgb(233,94,212);stroke:rgb(0,0,0);stroke-width:2"/></g>
<g fill-rule="evenodd"><path d="M 3118.82,2523.12 L 3118.38,2517.45 L 3117.22,2495.44 L 3115.14,2419.95 L 3115.01,2412.5 L 3114.99,2410 L 3112.49,2370 L 3108.95,2340 L 3295,2340 L 3320.78,2340 L 3321.14,2340.06 L 3326.07,2340.84 L 3332.11,2341.48 L 3337.05,2341.73 L 3340,2341.81 L 3385,2341.81 L 3402.63,2344.57 L 3420.27,2352.84 L 3429.69,2370 L 3434.46,2381.53 L 3434.29,2384.84 L 3434.29,2395.16 L 3434.98,2408.33 L 3435.08,2410 L 3435.7,2419.01 L 3435.79,2432.82 L 3435.04,2446.64 L 3433.33,2462.84 L 3431.5,2474.72 L 3434.15,2482.11 L 3439.2,2495.29 L 3447.76,2514.44 L 3454.47,2527.61 L 3467.68,2550.4 L 3476.23,2563.57 L 3496.7,2591.64 L 3502.31,2598.56 L 3528.55,2661.9 L 3568.1,2701.45 L 3672.78,2744.82 L 3685.63,2749.77 L 3690.26,2751.43 L 3714.4,2758.77 L 3719.03,2759.93 L 3741.69,2764.45 L 3746.32,2765.14 L 3768.37,2767.32 L 3773,2767.54 L 3783.8,2767.81 L 4067.39,2767.81 L 4069.68,2766.83 L 4090.98,2758.91 L 4103.73,2754.91 L 4122.96,2749.92 L 4135.7,2747.3 L 4153.6,2744.55 L 4166.35,2743.26 L 4179.31,2742.43 L 4185.69,2742.27 L 4198.6,2742.43 L 4211.35,2743.08 L 4228.86,2744.87 L 4241.61,2746.82 L 4260.07,2750.63 L 4272.82,2753.93 L 4292.97,2760.26 L 4305.71,2764.98 L 4307.73,2765.74 L 4322,2779.77 L 4323.04,2780.78 L 4331.24,2788.74 L 4334.93,2792.41 L 4347.81,2805.49 L 4352.49,2810.12 L 4357.49,2814.94 L 4365,2822.47 L 4377,2835.01 L 4386.75,2844.76 L 4387.49,2845.46 L 4400.61,2858.72 L 4404.63,2863.01 L 4395.25,2873.21 L 4382.51,2886.61 L 4358.66,2909.39 L 4345.92,2920.33 L 4327.96,2934.29 L 4315.21,2943.17 L 4301.3,2951.87 L 4288.55,2958.94 L 4277.5,2964.38 L 4264.75,2969.85 L 4255.69,2973.22 L 4242.94,2977.22 L 4235.22,2979.22 L 4222.47,2981.84 L 4215.6,2982.9 L 4202.85,2984.19 L 4197.99,2984.5 L 4191.61,2984.67 L 4186.78,2984.6 L 4174.04,2983.96 L 4167.41,2983.28 L 4154.66,2981.33 L 4147.42,2979.84 L 4134.68,2976.54 L 4126.36,2973.92 L 4113.61,2969.2 L 4103.64,2964.9 L 4091.79,2959.09 L 3490,2959.09 L 3484.4,2958.96 L 3482.08,2958.84 L 3470.66,2957.72 L 3468.34,2957.37 L 3456.54,2955.02 L 3454.23,2954.44 L 3441.75,2950.65 L 3439.44,2949.82 L 3432.76,2947.24 L 3220.63,2859.37 L 3204.83,2852.36 L 3202.51,2851.27 L 3174.31,2836.45 L 3170.8,2831.8 L 3169.4,2829.92 L 3148.91,2799.21 L 3147.68,2797.17 L 3128.85,2761.87 L 3127.8,2759.64 L 3119.1,2740 L 3077.99,2640.76 L 3085.16,2624.23 L 3093.4,2604.34 L 3108.17,2563.73 L 3118.82,2523.12 z " style="fill-opacity:1.000000;fill:rgb(171,178,205);stroke:rgb(0,0,0);stroke-width:2"/></g>
<g fill-rule="evenodd"><path d="M 3108.95,2340 L 3100.41,2310 L 3090,2278.34 L 3090,2270 L 3090,2240 L 3295,2240 L 3320.79,2240 L 3321.14,2239.94 L 3326.07,2239.16 L 3332.1,2238.53 L 3337.03,2238.27 L 3340,2238.19 L 3385,2238.19 L 3395.74,2237.17 L 3406.49,2234.09 L 3446.3,2234.09 L 3449.47,2234.17 L 3454.1,2234.4 L 3460.57,2235.04 L 3461.51,2235.18 L 3464.61,2237.64 L 3469.41,2241.84 L 3469.51,2241.94 L 3472.95,2245.03 L 3474.2,2246.06 L 3477.18,2248.71 L 3480.54,2251.92 L 3482.46,2253.84 L 3483.74,2255.19 L 3487.92,2259.16 L 3497.96,2267.74 L 3502.82,2271.46 L 3513.86,2279.05 L 3519.86,2282.72 L 3531.93,2289.27 L 3533.3,2290 L 3539.71,2290 L 3552.88,2290 L 3560.82,2290 L 3572.23,2290 L 3574.07,2291 L 3581.22,2295.37 L 3592.26,2302.96 L 3598.13,2307.46 L 3608.17,2316.04 L 3613.25,2320.86 L 3614.32,2321.98 L 3616.65,2324.32 L 3618.33,2325.92 L 3622.88,2329.91 L 3623.42,2330.33 L 3625.24,2331.84 L 3628.71,2334.81 L 3630.93,2336.64 L 3632.88,2338.18 L 3639.91,2343.21 L 3640.19,2343.39 L 3642.1,2344.65 L 3646.3,2347.5 L 3649.31,2349.61 L 3662.48,2359.18 L 3675.52,2369.79 L 3688.69,2381.65 L 3697.02,2389.55 L 3857.44,2455.99 L 4050.03,2455.99 L 4059.03,2459.07 L 4072.2,2463.35 L 4102.05,2471.37 L 4115.21,2474.16 L 4143.18,2478.61 L 4156.34,2479.99 L 4183.42,2481.41 L 4196.58,2481.41 L 4223.65,2479.99 L 4236.82,2478.61 L 4264.78,2474.17 L 4277.95,2471.37 L 4293.89,2467.5 L 4303.81,2460.37 L 4305.02,2459.5 L 4315.67,2451.76 L 4317.12,2450.7 L 4339.96,2433.88 L 4341.49,2432.76 L 4350.85,2425.96 L 4355.08,2422.83 L 4377.54,2405.91 L 4382.39,2402.32 L 4389.16,2397.4 L 4396.93,2391.6 L 4413.12,2379.16 L 4431.77,2378.67 L 4448.23,2378.67 L 4485.4,2380.63 L 4501.85,2382.35 L 4540.23,2388.45 L 4556.68,2391.95 L 4597.57,2402.93 L 4614.02,2408.28 L 4615,2408.6 L 4615,2465.16 L 4615,2487.3 L 4615,2523.25 L 4615,2542.25 L 4615,2568.29 L 4615,2585.59 L 4615,2607.13 L 4615,2623.68 L 4615,2643.92 L 4615,2660.47 L 4615,2682.01 L 4615,2699.31 L 4615,2725.35 L 4615,2744.35 L 4615,2780.3 L 4615,2782.64 L 4609.35,2797.35 L 4593.99,2831.74 L 4592.65,2834.38 L 4581.31,2842.27 L 4580.34,2842.95 L 4546.18,2852.07 L 4529.72,2855.56 L 4496.66,2860.81 L 4480.21,2862.54 L 4448.23,2864.22 L 4431.77,2864.22 L 4404.63,2863.01 L 4400.61,2858.72 L 4387.49,2845.46 L 4386.75,2844.76 L 4377,2835.01 L 4365,2822.47 L 4357.49,2814.94 L 4352.49,2810.12 L 4347.81,2805.49 L 4334.93,2792.41 L 4331.24,2788.74 L 4323.04,2780.78 L 4322,2779.77 L 4307.73,2765.74 L 4305.71,2764.98 L 4292.97,2760.26 L 4272.82,2753.93 L 4260.07,2750.63 L 4241.61,2746.82 L 4228.86,2744.87 L 4211.35,2743.08 L 4198.6,2742.43 L 4185.69,2742.27 L 4179.31,2742.43 L 4166.35,2743.26 L 4153.6,2744.55 L 4135.7,2747.3 L 4122.96,2749.92 L 4103.73,2754.91 L 4090.98,2758.91 L 4069.68,2766.83 L 4067.39,2767.81 L 3783.8,2767.81 L 3773,2767.54 L 3768.37,2767.32 L 3746.32,2765.14 L 3741.69,2764.45 L 3719.03,2759.93 L 3714.4,2758.77 L 3690.26,2751.43 L 3685.63,2749.77 L 3672.78,2744.82 L 3568.1,2701.45 L 3528.55,2661.9 L 3502.31,2598.56 L 3496.7,2591.64 L 3476.23,2563.57 L 3467.68,2550.4 L 3454.47,2527.61 L 3447.76,2514.44 L 3439.2,2495.29 L 3434.15,2482.11 L 3431.5,2474.72 L 3433.33,2462.84 L 3435.04,2446.64 L 3435.79,2432.82 L 3435.7,2419.01 L 3435.08,2410 L 3434.98,2408.33 L 3434.29,2395.16 L 3434.29,2384.84 L 3434.46,2381.53 L 3429.69,2370 L 3420.27,2352.84 L 3402.63,2344.57 L 3385,2341.81 L 3340,2341.81 L 3337.05,2341.73 L 3332.11,2341.48 L 3326.07,2340.84 L 3321.14,2340.06 L 3320.78,2340 L 3295,2340 L 3108.95,2340 z " style="fill-opacity:1.000000;fill:rgb(198,155,180);stroke:rgb(0,0,0);stroke-width:2"/></g>
<g fill-rule="evenodd"><path d="M 3090,2240 L 3090,2210 L 3090,2170 L 3090,2140 L 3295,2140 L 3320.79,2140 L 3326.64,2140.92 L 3331.58,2141.44 L 3337.53,2141.75 L 3342.47,2141.75 L 3348.41,2141.44 L 3353.35,2140.92 L 3359.21,2140 L 3385,2140 L 3408.63,2140 L 3427.23,2131.02 L 3445.82,2116.97 L 3448.29,2110.63 L 3448.54,2110 L 3453.35,2097.46 L 3459.74,2083.06 L 3459.92,2076.38 L 3460.04,2074.07 L 3460.29,2070 L 3461.12,2059.08 L 3461.28,2056.71 L 3462.29,2040.17 L 3462.43,2037.62 L 3463.03,2024.87 L 3466.71,2019.85 L 3468.06,2017.97 L 3469.43,2016.05 L 3473.34,2010.75 L 3477.41,2005.45 L 3488.74,1988.95 L 3495.82,1977.4 L 3500.44,1969.46 L 3497.29,1956.87 L 3494.41,1943.32 L 3491.07,1924.43 L 3489.27,1911.38 L 3488.43,1902.99 L 3487.11,1892.84 L 3485.03,1879.67 L 3480.83,1859.98 L 3477.3,1846.82 L 3470.28,1825.27 L 3465.22,1812.1 L 3454.28,1787.6 L 3448.88,1777.01 L 3447.58,1774.42 L 3434.99,1749.09 L 3456.69,1729.19 L 3473.53,1714.92 L 3564.08,1644.43 L 3577.01,1634.87 L 3608.59,1612.66 L 3646.6,1582.65 L 3684.61,1546.07 L 3702.99,1526.79 L 3731.04,1498.85 L 3753.81,1477.26 L 3767.41,1487.95 L 3766.59,1541.14 L 3763.42,1658.85 L 3761.88,1687.78 L 3759.08,1721.76 L 3756.66,1740.83 L 3753.9,1756.46 L 3750.39,1771.01 L 3748.51,1777.01 L 3747.42,1780.76 L 3743.89,1793.93 L 3742.1,1802.3 L 3740.02,1815.47 L 3739.21,1823.11 L 3738.52,1836.28 L 3738.52,1843.72 L 3739.21,1856.89 L 3740.02,1864.54 L 3742.1,1877.7 L 3743.89,1886.07 L 3747.42,1899.24 L 3748.51,1902.99 L 3750.39,1908.99 L 3753.9,1923.55 L 3756.66,1939.18 L 3757.34,1943.35 L 3749.42,1962.69 L 3738.42,1982.03 L 3738.42,1986.85 L 3738.45,1990 L 3738.55,1995.33 L 3738.58,1997.65 L 3738.58,1998.58 L 3738.61,2000.91 L 3738.87,2015.38 L 3738.9,2017.79 L 3738.9,2018.79 L 3738.93,2021.22 L 3739.23,2037.74 L 3739.26,2040.35 L 3739.27,2041.78 L 3739.3,2044.42 L 3739.67,2065.06 L 3739.71,2068.02 L 3739.72,2070.38 L 3739.76,2073.41 L 3739.94,2083.76 L 3740,2090 L 3740,2112.67 L 3743.15,2117.65 L 3743.15,2119.13 L 3743.15,2132.98 L 3743.15,2137.26 L 3765.88,2165.07 L 3779.05,2179.69 L 3797.61,2198.36 L 3810.78,2210.21 L 3823.82,2220.82 L 3836.99,2230.39 L 3846.33,2236.48 L 3859.5,2244.08 L 3866.26,2247.54 L 3879.43,2253.4 L 3884.41,2255.32 L 3897.58,2259.6 L 3901.36,2260.61 L 3914.52,2263.41 L 3917.56,2263.89 L 3930.73,2265.28 L 3933.42,2265.42 L 3946.58,2265.42 L 3949.27,2265.28 L 3962.44,2263.89 L 3965.47,2263.41 L 3978.64,2260.61 L 3982.43,2259.6 L 3995.59,2255.32 L 4000.57,2253.4 L 4013.74,2247.54 L 4020.5,2244.08 L 4027.57,2240 L 4102.43,2240 L 4109.5,2235.92 L 4116.26,2232.47 L 4129.43,2226.6 L 4134.41,2224.68 L 4147.57,2220.41 L 4151.35,2219.39 L 4164.52,2216.59 L 4167.56,2216.11 L 4180.73,2214.72 L 4183.42,2214.58 L 4196.58,2214.58 L 4199.27,2214.72 L 4212.44,2216.11 L 4215.47,2216.59 L 4228.64,2219.39 L 4232.42,2220.41 L 4245.59,2224.68 L 4250.57,2226.6 L 4263.74,2232.47 L 4270.5,2235.92 L 4283.66,2243.52 L 4293.01,2249.61 L 4306.18,2259.18 L 4319.22,2269.79 L 4332.39,2281.65 L 4350.95,2300.31 L 4364.12,2314.93 L 4391.01,2348.37 L 4404.18,2366.5 L 4413.12,2379.16 L 4396.93,2391.6 L 4389.16,2397.4 L 4382.39,2402.32 L 4377.54,2405.91 L 4355.08,2422.83 L 4350.85,2425.96 L 4341.49,2432.76 L 4339.96,2433.88 L 4317.12,2450.7 L 4315.67,2451.76 L 4305.02,2459.5 L 4303.81,2460.37 L 4293.89,2467.5 L 4277.95,2471.37 L 4264.78,2474.17 L 4236.82,2478.61 L 4223.65,2479.99 L 4196.58,2481.41 L 4183.42,2481.41 L 4156.34,2479.99 L 4143.18,2478.61 L 4115.21,2474.16 L 4102.05,2471.37 L 4072.2,2463.35 L 4059.03,2459.07 L 4050.03,2455.99 L 3857.44,2455.99 L 3697.02,2389.55 L 3688.69,2381.65 L 3675.52,2369.79 L 3662.48,2359.18 L 3649.31,2349.61 L 3646.3,2347.5 L 3642.1,2344.65 L 3640.19,2343.39 L 3639.91,2343.21 L 3632.88,2338.18 L 3630.93,2336.64 L 3628.71,2334.81 L 3625.24,2331.84 L 3623.42,2330.33 L 3622.88,2329.91 L 3618.33,2325.92 L 3616.65,2324.32 L 3614.32,2321.98 L 3613.25,2320.86 L 3608.17,2316.04 L 3598.13,2307.46 L 3592.26,2302.96 L 3581.22,2295.37 L 3574.07,2291 L 3572.23,2290 L 3560.82,2290 L 3552.88,2290 L 3539.71,2290 L 3533.3,2290 L 3531.93,2289.27 L 3519.86,2282.72 L 3513.86,2279.05 L 3502.82,2271.46 L 3497.96,2267.74 L 3487.92,2259.16 L 3483.74,2255.19 L 3482.46,2253.84 L 3480.54,2251.92 L 3477.18,2248.71 L 3474.2,2246.06 L 3472.95,2245.03 L 3469.51,2241.94 L 3469.41,2241.84 L 3464.61,2237.64 L 3461.51,2235.18 L 3460.57,2235.04 L 3454.1,2234.4 L 3449.47,2234.17 L 3446.3,2234.09 L 3406.49,2234.09 L 3395.74,2237.17 L 3385,2238.19 L 3340,2238.19 L 3337.03,2238.27 L 3332.1,2238.53 L 3326.07,2239.16 L 3321.14,2239.94 L 3320.79,2240 L 3295,2240 L 3090,2240 z " style="fill-opacity:1.000000;fill:rgb(84,17,14);stroke:rgb(0,0,0);stroke-width:2"/></g>
<g fill-rule="evenodd"><path d="M 4358.81,741.064 L 4357.59,739.04 L 4357.94,738.458 L 4359.56,735.752 L 4361.94,731.338 L 4363.72,727.602 L 4364.96,724.76 L 4366.6,720.624 L 4366.91,719.828 L 4370.64,709.844 L 4372.31,705.984 L 4377.08,696.394 L 4377.58,695.748 L 4380.38,692.478 L 4388.3,684.14 L 4391.35,681.246 L 4398.05,675.528 L 4400.44,674.192 L 4404.27,672.306 L 4414.83,667.77 L 4418.8,666.31 L 4425.32,664.286 L 4430.01,663.796 L 4434.25,663.576 L 4445.75,663.58 L 4449.98,663.806 L 4454.8,664.314 L 4461.2,666.304 L 4465.17,667.768 L 4475.73,672.312 L 4479.55,674.2 L 4482.06,675.604 L 4488.65,681.24 L 4491.7,684.138 L 4499.62,692.484 L 4502.41,695.756 L 4502.94,696.45 L 4503.45,697.496 L 4505.42,701.044 L 4507.48,704.362 L 4508.3,705.628 L 4510.82,709.37 L 4512.31,711.46 L 4514.8,714.752 L 4518.39,719.002 L 4522.39,723.278 L 4522.98,723.924 L 4525.65,726.852 L 4533.44,734.386 L 4538.06,738.374 L 4533.82,742.214 L 4533.53,742.478 L 4529.92,745.728 L 4522.82,752.912 L 4519.69,756.516 L 4518.47,757.878 L 4516.78,759.698 L 4512.16,765.48 L 4511.01,767.168 L 4510.8,767.476 L 4508.29,771.218 L 4507.52,772.406 L 4505.46,775.718 L 4503.49,779.252 L 4502.87,780.516 L 4502.42,781.104 L 4499.62,784.376 L 4494.22,790.068 L 4492.89,791.536 L 4491.8,792.802 L 4491.61,793.024 L 4488.97,796.046 L 4487.59,797.706 L 4485.69,800.118 L 4485.5,801.066 L 4484.67,809.438 L 4484.66,813.342 L 4485.4,821.2 L 4485.69,821.646 L 4487.9,824.956 L 4491.63,829.738 L 4492.95,831.192 L 4494.3,832.616 L 4549.28,887.592 L 4552.2,890.24 L 4555.23,892.728 L 4558.56,895.192 L 4560.63,895.552 L 4562.59,895.842 L 4568.51,896.282 L 4709.48,896.378 L 4713.44,896.186 L 4717.34,895.802 L 4721.44,895.192 L 4723.15,893.986 L 4724.74,892.806 L 4729.27,888.906 L 4849.52,768.656 L 4854.6,762.452 L 4856.81,759.148 L 4857.24,758.494 L 4857.41,755.304 L 4857.48,752.88 L 4857.47,750.91 L 4857.41,748.914 L 4857.06,742.1 L 4857.06,737.902 L 4857.76,724.734 L 4857.84,723.586 L 4858.82,720.552 L 4863.39,708.19 L 4865.05,704.33 L 4870.43,693.432 L 4871.07,692.6 L 4873.87,689.322 L 4882.95,679.77 L 4886,676.876 L 4893.58,670.406 L 4896.42,668.818 L 4900.26,666.926 L 4912.36,661.732 L 4916.32,660.274 L 4923.76,657.966 L 4929.17,657.4 L 4933.42,657.18 L 4946.58,657.186 L 4950.82,657.41 L 4956.38,657.998 L 4963.68,660.266 L 4967.64,661.728 L 4979.74,666.932 L 4983.57,668.826 L 4986.53,670.488 L 4994,676.87 L 4997.05,679.768 L 5006.12,689.33 L 5008.91,692.608 L 5009.64,693.556 L 5014.95,704.33 L 5016.6,708.19 L 5021.16,720.556 L 5022.19,723.736 L 5022.25,724.734 L 5022.94,737.902 L 5022.93,742.1 L 5022.58,748.844 L 5022.56,752.9 L 5022.67,755.312 L 5022.71,756.852 L 5022.73,758.5 L 5025.37,762.514 L 5026.56,764.108 L 5030.44,768.618 L 5149.26,887.576 L 5152.2,890.24 L 5155.23,892.728 L 5158.56,895.192 L 5162.66,895.802 L 5166.56,896.186 L 5170.5,896.378 L 5561.46,896.282 L 5567.4,895.842 L 5569.36,895.552 L 5571.44,895.192 L 5574.76,892.728 L 5577.79,890.24 L 5580.72,887.594 L 5757.06,711.246 L 5759.36,709.362 L 5760.88,708.176 L 5764.6,705.416 L 5767.76,703.304 L 5771.74,700.922 L 5773.42,699.968 L 5775.27,699.456 L 5779.77,698.328 L 5783.49,697.588 L 5788.08,696.906 L 5790,696.67 L 5792.95,696.378 L 5848.97,696.378 L 5852.91,696.186 L 5856.81,695.802 L 5864.08,694.436 L 5864.86,693.66 L 5867.63,690.794 L 5869.86,688.304 L 5872.46,685.146 L 5872.62,684.958 L 5877.05,679.52 L 5881.89,675.42 L 5885.09,672.97 L 5896.26,665.308 L 5899.68,663.21 L 5900.06,663.004 L 5904.95,659.858 L 5906.53,658.676 L 5910.88,654.98 L 5911.64,654.256 L 5914.8,651.458 L 5914.88,651.394 L 5924.04,642.21 L 5925.93,639.938 L 5926.34,639.916 L 5931.52,639.85 L 5936.63,639.98 L 5938.32,640 L 5941.68,640 L 5943.36,640.022 L 5948.47,640.152 L 5953.65,640.086 L 5953.91,640.072 L 5956.68,642.962 L 5959.53,645.8 L 5961.73,648.1 L 5962.6,649.044 L 5970.28,656.048 L 5972.84,657.944 L 5973.52,658.462 L 5976.31,660.62 L 5979.88,663.082 L 5987.75,667.916 L 5991.03,670.164 L 6001.81,678.396 L 6002.93,679.282 L 6004.59,681.438 L 6012.51,692.436 L 6014.69,695.822 L 6021.29,707.282 L 6021.41,707.614 L 6022.54,711.632 L 6025.56,724.84 L 6026.27,728.846 L 6027.65,740.002 L 6027.48,742.342 L 6026.97,746.474 L 6024.62,759.816 L 6023.71,763.782 L 6021.2,772.688 L 6019.22,776.56 L 6017.17,780.124 L 6009.82,791.502 L 6007.46,794.786 L 6002.84,800.56 L 5998.09,804.562 L 5994.88,807 L 5983.69,814.63 L 5980.28,816.71 L 5975.2,819.468 L 5967.73,821.788 L 5963.92,822.76 L 5950.64,825.444 L 5947.75,825.916 L 5941.01,826.754 L 5940,826.866 L 5937.99,826.616 L 5924.59,824.606 L 5920.79,823.838 L 5907.66,820.482 L 5904.73,819.616 L 5903.85,819.09 L 5892.28,812.03 L 5889,809.798 L 5878.2,801.596 L 5876.89,800.558 L 5875.36,798.6 L 5872.71,794.988 L 5867.61,789.254 L 5866.57,788.282 L 5864.76,786.494 L 5863.8,785.49 L 5856.82,784.204 L 5852.92,783.818 L 5848.97,783.624 L 5820.49,783.624 L 5816.55,783.818 L 5812.65,784.204 L 5808.56,784.81 L 5805.23,787.278 L 5802.2,789.766 L 5799.28,792.412 L 5622.93,968.76 L 5620.64,970.642 L 5619.11,971.83 L 5615.39,974.592 L 5612.24,976.696 L 5608.26,979.082 L 5606.58,980.038 L 5604.72,980.552 L 5600.22,981.678 L 5596.5,982.418 L 5591.91,983.098 L 5590,983.334 L 5587.05,983.624 L 5142.94,983.624 L 5140,983.334 L 5138.09,983.098 L 5133.5,982.418 L 5129.77,981.676 L 5125.27,980.548 L 5123.42,980.036 L 5121.74,979.084 L 5117.76,976.7 L 5114.61,974.594 L 5110.88,971.83 L 5109.36,970.642 L 5107.06,968.756 L 4970.09,831.788 L 4968.67,830.43 L 4967.21,829.114 L 4962.44,825.392 L 4959.14,823.182 L 4958.19,822.568 L 4951.05,822.676 L 4950.85,822.696 L 4946.58,822.898 L 4933.42,822.83 L 4931.35,822.766 L 4929.16,822.642 L 4927.09,822.576 L 4923.1,822.55 L 4921.81,822.56 L 4915.88,826.636 L 4912.84,829.124 L 4909.92,831.776 L 4772.93,968.76 L 4770.64,970.642 L 4769.11,971.83 L 4765.39,974.592 L 4762.24,976.696 L 4758.26,979.082 L 4756.58,980.038 L 4754.72,980.552 L 4750.22,981.678 L 4746.5,982.418 L 4741.91,983.098 L 4740,983.334 L 4737.05,983.624 L 4542.94,983.624 L 4540,983.334 L 4538.09,983.098 L 4533.5,982.418 L 4529.77,981.676 L 4525.27,980.548 L 4523.42,980.036 L 4521.74,979.084 L 4517.76,976.7 L 4514.61,974.594 L 4510.88,971.83 L 4509.36,970.642 L 4507.06,968.756 L 4411.24,872.938 L 4409.36,870.642 L 4408.17,869.118 L 4405.41,865.394 L 4403.3,862.238 L 4400.92,858.262 L 4399.96,856.58 L 4399.45,854.73 L 4398.32,850.234 L 4397.58,846.498 L 4396.9,841.91 L 4396.67,840 L 4396.38,837.054 L 4396.38,813.298 L 4396.18,809.36 L 4395.8,805.464 L 4394.86,799.84 L 4393.05,797.838 L 4391.16,795.872 L 4390.32,794.974 L 4388.29,792.724 L 4387.66,792.05 L 4380.38,784.372 L 4377.59,781.1 L 4377.06,780.404 L 4372.35,770.848 L 4370.69,766.992 L 4368.34,760.602 L 4366.76,756.886 L 4366.46,756.276 L 4365.15,753.27 L 4364.7,752.122 L 4361.03,744.752 L 4358.87,741.174 L 4358.81,741.064 z " style="fill-opacity:1.000000;fill:rgb(130,116,65);stroke:rgb(0,0,0);stroke-width:2"/></g>
<g fill-rule="evenodd"><path d="M 4551.55,342.168 L 4549.66,340.014 L 4551.51,337.896 L 4552.67,336.602 L 4554.78,334.296 L 4561.29,325.948 L 4562.29,324.418 L 4564.36,321.468 L 4564.7,321.012 L 4569.28,313.588 L 4570.38,311.334 L 4571.02,310.06 L 4572.34,307.574 L 4572.86,306.556 L 4577.13,297.914 L 4577.58,297.322 L 4580.38,294.052 L 4588.3,285.714 L 4591.35,282.82 L 4598.05,277.102 L 4600.44,275.766 L 4604.27,273.88 L 4614.83,269.344 L 4618.8,267.884 L 4625.32,265.86 L 4630.01,265.37 L 4634.25,265.15 L 4645.75,265.156 L 4649.98,265.38 L 4654.8,265.89 L 4661.2,267.88 L 4665.17,269.342 L 4675.73,273.886 L 4679.55,275.774 L 4682.06,277.178 L 4688.65,282.814 L 4691.7,285.712 L 4693.55,287.66 L 4696.43,290.416 L 4699.41,292.992 L 4700.12,293.6 L 4701.74,294.938 L 4704.99,295.55 L 4706.95,295.84 L 4712.91,296.282 L 4862.06,296.284 L 4868.02,295.842 L 4869.98,295.552 L 4874.97,294.506 L 4875.9,293.544 L 4876.99,292.382 L 4878.67,290.682 L 4880.13,289.29 L 4881.56,287.862 L 4889.24,279.77 L 4892.3,276.876 L 4899.88,270.406 L 4902.72,268.818 L 4906.56,266.926 L 4918.66,261.732 L 4922.62,260.274 L 4930.06,257.968 L 4935.47,257.4 L 4939.71,257.18 L 4952.88,257.186 L 4955.14,257.25 L 4957.13,257.362 L 4957.14,257.362 L 4959.12,257.474 L 4964.49,257.44 L 4965.38,256.856 L 4968.7,254.644 L 4974.91,249.566 L 5063.35,161.256 L 5065.66,159.362 L 5067.18,158.176 L 5070.9,155.416 L 5074.06,153.304 L 5078.03,150.922 L 5079.72,149.968 L 5081.57,149.456 L 5086.07,148.328 L 5089.79,147.588 L 5094.38,146.906 L 5096.3,146.67 L 5099.25,146.378 L 5637.04,146.378 L 5640,146.67 L 5641.92,146.908 L 5646.5,147.588 L 5650.23,148.33 L 5654.73,149.456 L 5656.58,149.97 L 5658.26,150.922 L 5662.23,153.304 L 5665.39,155.412 L 5669.11,158.174 L 5670.64,159.364 L 5672.93,161.248 L 5799.28,287.592 L 5802.2,290.24 L 5805.23,292.728 L 5808.56,295.192 L 5812.66,295.802 L 5816.56,296.186 L 5821.27,296.372 L 5826.17,296.276 L 5831.33,295.844 L 5833.29,295.556 L 5839.59,294.136 L 5843.48,292.958 L 5848.03,291.34 L 5849.81,286.438 L 5851,282.546 L 5852.64,274.576 L 5852.8,273.072 L 5854.4,265.356 L 5859,258.606 L 5865.93,254.172 L 5873.07,252.848 L 5875.91,252.582 L 6003.87,252.582 L 6006.93,252.89 L 6014.78,254.478 L 6021.39,259.002 L 6025.83,265.932 L 6027.15,273.072 L 6027.42,275.92 L 6027.42,403.872 L 6027.11,406.928 L 6025.52,414.782 L 6021,421.4 L 6014.07,425.832 L 6012.82,426.162 L 6009.03,427.094 L 6006.93,427.554 L 6005.22,427.882 L 5998.95,429.57 L 5997.02,430.24 L 5989.83,433.352 L 5986,435.346 L 5974.16,443.064 L 5963.81,441.478 L 5956.9,440.774 L 5943.36,440.086 L 5938.32,440.022 L 5931.54,440.194 L 5926.47,440.516 L 5912.93,441.894 L 5905.96,442.952 L 5901.93,440.142 L 5898.12,437.646 L 5889.99,433.092 L 5888.07,432.2 L 5881.21,429.574 L 5877.4,428.43 L 5873.07,427.368 L 5869.96,426.776 L 5865.41,425.63 L 5858.6,421.002 L 5854.17,414.074 L 5852.97,408.056 L 5852.83,406.928 L 5852.37,404.024 L 5851.61,400.094 L 5849.8,393.5 L 5849.1,391.526 L 5848,388.69 L 5843.6,387.12 L 5839.67,385.918 L 5831.26,384.212 L 5827.33,383.822 L 5823.35,383.624 L 5792.94,383.624 L 5790,383.334 L 5788.09,383.098 L 5783.5,382.418 L 5779.77,381.676 L 5775.27,380.548 L 5773.42,380.036 L 5771.74,379.084 L 5767.76,376.7 L 5764.61,374.594 L 5760.88,371.83 L 5759.36,370.642 L 5757.06,368.756 L 5630.72,242.412 L 5627.79,239.764 L 5624.76,237.278 L 5621.44,234.812 L 5619.36,234.452 L 5617.4,234.162 L 5611.47,233.722 L 5426.29,233.624 L 5422.33,233.818 L 5418.42,234.204 L 5412.23,235.284 L 5410.27,235.776 L 5405.8,237.136 L 5403.84,237.836 L 5396.25,241.22 L 5392.35,243.306 L 5386.44,246.844 L 5384.46,247.784 L 5380.48,249.824 L 5373.59,248.36 L 5366.45,247.226 L 5353.28,245.842 L 5346.58,245.488 L 5333.42,245.488 L 5326.72,245.842 L 5313.55,247.226 L 5306.41,248.36 L 5299.52,249.824 L 5295.53,247.784 L 5293.56,246.844 L 5287.64,243.306 L 5283.74,241.22 L 5273.82,237.064 L 5269.92,235.882 L 5261.57,234.204 L 5257.67,233.818 L 5253.7,233.624 L 5124.81,233.722 L 5116.85,234.514 L 5114.9,234.904 L 5113.25,236.004 L 5108.45,239.746 L 5106.99,241.064 L 5105.55,242.44 L 5036.74,311.38 L 5031.68,317.564 L 5029.47,320.868 L 5029.05,321.508 L 5028.88,324.698 L 5028.82,327.126 L 5028.83,329.094 L 5028.88,331.092 L 5029.23,337.902 L 5029.23,342.1 L 5028.54,355.268 L 5028.46,356.42 L 5027.47,359.45 L 5022.9,371.812 L 5021.24,375.67 L 5015.86,386.574 L 5015.23,387.402 L 5012.42,390.68 L 5003.35,400.232 L 5000.3,403.126 L 4992.71,409.6 L 4989.88,411.186 L 4986.04,413.078 L 4973.94,418.272 L 4969.97,419.73 L 4962.53,422.038 L 4957.12,422.604 L 4952.88,422.824 L 4939.71,422.818 L 4935.47,422.594 L 4929.91,422.006 L 4922.62,419.738 L 4918.66,418.276 L 4906.56,413.072 L 4902.72,411.178 L 4899.76,409.516 L 4892.29,403.134 L 4889.24,400.234 L 4881.61,392.186 L 4880.14,390.71 L 4878.72,389.36 L 4876.99,387.618 L 4875.94,386.494 L 4874.97,385.492 L 4867.99,384.204 L 4864.09,383.82 L 4860.11,383.624 L 4712.89,383.72 L 4706.96,384.162 L 4705,384.452 L 4701.74,385.066 L 4700.13,386.404 L 4699.43,386.99 L 4696.46,389.56 L 4693.59,392.306 L 4691.7,394.288 L 4688.65,397.182 L 4681.95,402.904 L 4679.56,404.236 L 4675.73,406.124 L 4665.16,410.66 L 4661.2,412.12 L 4654.67,414.144 L 4649.98,414.634 L 4645.75,414.854 L 4634.25,414.848 L 4630.02,414.624 L 4625.19,414.114 L 4618.79,412.126 L 4614.83,410.662 L 4604.27,406.118 L 4600.44,404.23 L 4597.94,402.826 L 4591.35,397.19 L 4588.29,394.29 L 4580.38,385.944 L 4577.59,382.674 L 4577.06,381.978 L 4572.89,373.52 L 4572.33,372.43 L 4571.05,370.01 L 4570.37,368.672 L 4569.31,366.48 L 4564.74,359.062 L 4564.35,358.538 L 4562.32,355.658 L 4561.28,354.056 L 4554.81,345.77 L 4552.65,343.402 L 4551.55,342.168 z " style="fill-opacity:1.000000;fill:rgb(33,61,220);stroke:rgb(0,0,0);stroke-width:2"/></g>
</svg>
