<?xml version="1.0" standalone="no"?>
<!DOCTYPE svg PUBLIC "-//W3C//DTD SVG 1.1//EN"
"http://www.w3.org/Graphics/SVG/1.1/DTD/svg11.dtd">
<svg width="5500" height="3250" viewBox="0 0 5500 3250" version="1.1"
xmlns="http://www.w3.org/2000/svg"
xmlns:xlink="http://www.w3.org/1999/xlink">
<g fill-rule="evenodd"><path d="M 0,10 L 0.76,6.174 L 2.928,2.93 L 6.172,0.762 L 8.048,0.194 L 5490,0 L 5493.83,0.762 L 5497.07,2.93 L 5498.31,4.446 L 5499.24,6.174 L 5500,10 L 5500,3240 L 5499.51,3243.09 L 5498.09,3245.88 L 5495.88,3248.09 L 5493.09,3249.51 L 5490,3250 L 10,3250 L 6.172,3249.24 L 2.928,3247.07 L 1.684,3245.56 L 0.76,3243.83 L 0,3240 L 0,1482.93 L 0,10M 3430.21,1299.04 L 3469.61,1299.08 L 3506.04,1284.03 L 3533.92,1256.19 L 3549.04,1219.79 L 3549.07,1180.39 L 3534.02,1143.96 L 3513.47,1123.37 L 3511.3,1120.13 L 3510.54,1116.3 L 3511.31,1112.47 L 3513.48,1109.23 L 3515,1107.99 L 3517.15,1106.89 L 3550.57,1073.53 L 3568.68,1029.92 L 3568.72,982.7 L 3550.69,939.05 L 3517.32,905.632 L 3473.71,887.524 L 3426.5,887.48 L 3382.85,905.514 L 3349.43,938.876 L 3331.32,982.488 L 3331.28,1029.7 L 3349.31,1073.35 L 3382.67,1106.77 L 3385.06,1107.97 L 3386.58,1109.22 L 3388.74,1112.46 L 3389.5,1116.29 L 3388.74,1120.12 L 3386.57,1123.36 L 3366.07,1143.82 L 3350.96,1180.21 L 3350.92,1219.61 L 3365.97,1256.04 L 3393.81,1283.93 L 3430.21,1299.04M 180,1636.14 L 180,1602.05 L 171.65,1597.66 L 136.65,1614.1 L 108.44,1645.05 L 97.53,1671.39 L 102.076,1680 L 136.404,1680 L 139.912,1670.53 L 147.076,1659.03 L 156.406,1649.22 L 167.52,1641.48 L 180,1636.14M 220,1636.49 L 226.392,1638.5 L 238.232,1645.07 L 248.508,1653.89 L 256.798,1664.6 L 262.76,1676.76 L 263.6,1680 L 297.918,1680 L 302.464,1671.39 L 291.558,1645.06 L 263.348,1614.1 L 228.35,1597.66 L 220,1602.05 L 220,1636.49M 1356.21,1927.93 L 1382.19,1953.91 L 1391.02,1951.25 L 1403.85,1915.56 L 1401.89,1874.39 L 1391.3,1848.84 L 1382.19,1846.1 L 1356.21,1872.07 L 1357.55,1874.38 L 1361.61,1886.9 L 1362.99,1900 L 1361.61,1913.1 L 1357.55,1925.62 L 1356.21,1927.93M 1230,2420 L 1171.64,2420 L 1165,2426.64 L 1165,2427.96 L 1171.09,2442.66 L 1182.34,2453.91 L 1197.04,2460 L 1223.36,2460 L 1230,2453.36 L 1230,2420M 136.4,2520 L 102.078,2520 L 97.532,2528.61 L 108.438,2554.95 L 136.648,2585.9 L 171.648,2602.34 L 180,2597.96 L 180,2563.51 L 173.608,2561.5 L 161.768,2554.93 L 151.492,2546.11 L 143.202,2535.4 L 137.24,2523.24 L 136.4,2520M 220,2563.86 L 220,2597.96 L 228.348,2602.34 L 263.346,2585.91 L 291.556,2554.95 L 302.466,2528.62 L 297.92,2520 L 263.596,2520 L 260.088,2529.47 L 252.924,2540.97 L 243.594,2550.78 L 232.48,2558.52 L 220,2563.86M 1295,2420 L 1270,2420 L 1270,2453.36 L 1276.64,2460 L 1302.95,2460 L 1317.66,2453.91 L 1328.91,2442.66 L 1335,2427.96 L 1335,2426.64 L 1328.36,2420 L 1295,2420M 1327.88,1843.84 L 1353.91,1817.81 L 1351.25,1808.98 L 1315.56,1796.15 L 1274.38,1798.11 L 1248.84,1808.7 L 1246.09,1817.81 L 1272.12,1843.84 L 1280.54,1840.09 L 1293.42,1837.35 L 1306.58,1837.35 L 1319.46,1840.09 L 1327.88,1843.84M 1243.79,1927.93 L 1242.45,1925.62 L 1238.39,1913.1 L 1237.01,1900 L 1238.39,1886.9 L 1242.45,1874.38 L 1243.78,1872.07 L 1217.81,1846.09 L 1208.98,1848.75 L 1196.15,1884.44 L 1198.11,1925.62 L 1208.69,1951.16 L 1217.81,1953.91 L 1243.79,1927.93M 1272.12,1956.16 L 1246.09,1982.19 L 1248.75,1991.02 L 1284.44,2003.85 L 1325.61,2001.89 L 1351.16,1991.31 L 1353.9,1982.19 L 1327.88,1956.16 L 1319.46,1959.91 L 1306.58,1962.65 L 1293.42,1962.65 L 1280.54,1959.91 L 1272.12,1956.16M 2322.12,2456.16 L 2296.09,2482.19 L 2298.75,2491.02 L 2334.44,2503.85 L 2375.61,2501.89 L 2401.16,2491.31 L 2403.9,2482.19 L 2377.88,2456.16 L 2369.46,2459.91 L 2356.58,2462.65 L 2343.42,2462.65 L 2330.54,2459.91 L 2322.12,2456.16M 2322.12,2343.84 L 2330.54,2340.09 L 2343.42,2337.35 L 2356.58,2337.35 L 2369.46,2340.09 L 2381.49,2345.45 L 2392.15,2353.19 L 2400.96,2362.98 L 2407.55,2374.38 L 2411.61,2386.9 L 2412.99,2400 L 2411.61,2413.1 L 2407.55,2425.62 L 2406.21,2427.93 L 2432.19,2453.91 L 2441.02,2451.25 L 2453.85,2415.56 L 2451.89,2374.39 L 2448.26,2365.64 L 2447.5,2361.81 L 2448.26,2357.99 L 2449.19,2356.26 L 2451.95,2353.5 L 2455.55,2352.01 L 2908.41,2351.81 L 2912.24,2352.57 L 2913.97,2353.5 L 2916.73,2356.26 L 2917.65,2357.99 L 2918.22,2359.86 L 2918.22,2363.77 L 2915,2372.04 L 2915,2373.36 L 2921.64,2380 L 2984.65,2380 L 2988.05,2378.62 L 2990,2378.43 L 3010,2378.43 L 3011.95,2378.62 L 3015.34,2380 L 3078.36,2380 L 3085,2373.36 L 3085,2372.05 L 3078.91,2357.34 L 3076.97,2355.13 L 3076.05,2353.39 L 3075.48,2351.49 L 3075.5,2347.57 L 3077.04,2343.95 L 3082.56,2335.87 L 3085.98,2318.99 L 3085.98,2280.94 L 3083.03,2265.24 L 3076.65,2255.34 L 3075.76,2253.61 L 3075.06,2249.79 L 3075.87,2246 L 3082.56,2235.87 L 3085.98,2218.99 L 3085.98,2180.94 L 3083.03,2165.24 L 3076.65,2155.34 L 3075.76,2153.61 L 3075.06,2149.79 L 3075.87,2146 L 3082.56,2135.87 L 3085.98,2118.99 L 3085.98,2080.94 L 3083.03,2065.24 L 3074.23,2051.57 L 3060.86,2042.44 L 3043.99,2039.02 L 2955.93,2039.02 L 2940.24,2041.97 L 2931.36,2047.47 L 2927.64,2048.19 L 2825.6,2048.19 L 2821.77,2047.43 L 2818.53,2045.26 L 2750.72,1977.18 L 2749.79,1975.45 L 2749.04,1971.62 L 2749.07,1930.39 L 2734.02,1893.96 L 2706.18,1866.08 L 2669.79,1850.96 L 2630.39,1850.93 L 2593.96,1865.98 L 2566.07,1893.82 L 2550.96,1930.21 L 2550.95,1936.76 L 2550.19,1940.59 L 2549.27,1942.32 L 2546.5,1945.07 L 2542.9,1946.56 L 2539,1946.56 L 2535.39,1945.07 L 2533.88,1943.82 L 2506.18,1916.08 L 2469.79,1900.96 L 2430.39,1900.93 L 2393.96,1915.98 L 2366.07,1943.82 L 2350.96,1980.21 L 2350.94,2003.54 L 2350.17,2007.36 L 2348.01,2010.6 L 2344.76,2012.77 L 2342.89,2013.34 L 2338.99,2013.34 L 2337.11,2012.77 L 2333.87,2010.6 L 2300.34,1976.8 L 2299.42,1975.08 L 2298.66,1971.25 L 2298.66,1946.72 L 2299.42,1942.89 L 2301.59,1939.64 L 2303.11,1938.4 L 2305.11,1937.37 L 2334.11,1908.42 L 2349.82,1870.58 L 2349.86,1829.61 L 2334.21,1791.74 L 2305.27,1762.74 L 2267.42,1747.03 L 2226.46,1746.99 L 2188.58,1762.64 L 2168.83,1782.36 L 2165.57,1784.53 L 2161.72,1785.28 L 2159.76,1785.08 L 2156.15,1783.56 L 2153.4,1780.77 L 2151.94,1777.13 L 2151.02,1772.25 L 2142.22,1758.58 L 2128.85,1749.45 L 2111.98,1746.03 L 1987.94,1746.03 L 1972.25,1748.98 L 1958.58,1757.78 L 1949.44,1771.15 L 1946.03,1788.01 L 1946.03,1912.07 L 1948.98,1927.75 L 1957.77,1941.42 L 1971.14,1950.56 L 1992.01,1954.73 L 1995.26,1956.9 L 1996.5,1958.42 L 1997.43,1960.15 L 1998.19,1963.97 L 1998.19,1974.4 L 1997.43,1978.23 L 1995.26,1981.47 L 1920.36,2056.37 L 1908.61,2073.95 L 1904.49,2094.68 L 1904.29,2105.24 L 1903.72,2107.12 L 1901.55,2110.36 L 1900.03,2111.61 L 1898.03,2112.64 L 1869.04,2141.58 L 1867.93,2143.75 L 1865.17,2146.51 L 1861.57,2148 L 1859.62,2148.19 L 1842.3,2148.19 L 1838.46,2147.43 L 1836.73,2146.5 L 1833.97,2143.73 L 1832.48,2140.12 L 1832.3,2138.16 L 1835.98,2119 L 1835.98,2080.94 L 1833.03,2065.24 L 1824.23,2051.57 L 1812.55,2043.37 L 1810.43,2040.14 L 1809.87,2038.28 L 1809.68,1957.29 L 1804.96,1933.54 L 1798.36,1923.66 L 1796.87,1920.05 L 1796.71,1879.61 L 1781.06,1841.74 L 1756.31,1816.94 L 1754.14,1813.7 L 1753.38,1809.87 L 1753.38,1790.82 L 1754.15,1786.99 L 1756.32,1783.74 L 1783.92,1756.19 L 1799.04,1719.79 L 1799.07,1680.39 L 1784.02,1643.96 L 1756.18,1616.08 L 1719.79,1600.96 L 1680.39,1600.93 L 1643.96,1615.98 L 1616.07,1643.82 L 1600.96,1680.21 L 1600.92,1719.61 L 1615.97,1756.04 L 1631.09,1771.18 L 1633.25,1774.42 L 1634.01,1778.25 L 1634.01,1809.91 L 1633.25,1813.74 L 1631.08,1816.99 L 1606.44,1841.58 L 1590.73,1879.43 L 1590.69,1920.39 L 1606.34,1958.27 L 1635.28,1987.26 L 1673.12,2002.98 L 1680.32,2002.98 L 1684.15,2003.75 L 1687.39,2005.91 L 1688.63,2007.43 L 1690.12,2011.03 L 1690.31,2036.47 L 1689.52,2040.36 L 1688.57,2042.11 L 1687.28,2043.64 L 1676.57,2050.77 L 1667.44,2064.14 L 1664.02,2081 L 1664.02,2119.08 L 1666.97,2134.76 L 1673.34,2144.66 L 1674.77,2148.27 L 1674.93,2150.21 L 1674.13,2154.01 L 1667.44,2164.14 L 1664.02,2181 L 1664.02,2219.08 L 1666.97,2234.76 L 1673.34,2244.66 L 1674.77,2248.27 L 1674.93,2250.21 L 1674.13,2254.01 L 1667.44,2264.14 L 1664.02,2281 L 1664.02,2319.08 L 1666.97,2334.76 L 1673.34,2344.66 L 1674.77,2348.27 L 1674.93,2350.21 L 1674.13,2354.01 L 1667.44,2364.14 L 1664.02,2381 L 1664.02,2419.08 L 1666.97,2434.76 L 1675.77,2448.43 L 1689.13,2457.56 L 1692.04,2458.35 L 1693.76,2459.28 L 1696.51,2462.03 L 1698,2465.63 L 1698.19,2556.54 L 1697.43,2560.37 L 1695.26,2563.61 L 1675.1,2577.31 L 1652.81,2610.66 L 1644.99,2650 L 1652.81,2689.34 L 1675.1,2722.69 L 1708.45,2744.97 L 1748.76,2752.99 L 1751.23,2752.99 L 1791.55,2744.98 L 1824.9,2722.69 L 1847.18,2689.34 L 1855.01,2650 L 1847.19,2610.67 L 1824.9,2577.32 L 1804.74,2563.61 L 1802.57,2560.37 L 1802,2558.49 L 1801.81,2467.82 L 1802.58,2463.97 L 1803.52,2462.23 L 1806.31,2459.47 L 1809.7,2458.07 L 1823.43,2449.23 L 1832.56,2435.87 L 1834.97,2423.98 L 1836.47,2420.39 L 1837.72,2418.88 L 1840.96,2416.72 L 1842.84,2416.16 L 1846.74,2416.16 L 1850.34,2417.66 L 1853.09,2420.42 L 1854.01,2422.15 L 1868.93,2458.27 L 1893.69,2483.06 L 1895.85,2486.31 L 1896.61,2490.13 L 1896.61,2714.84 L 1895.85,2718.67 L 1894.93,2720.4 L 1785.68,2829.64 L 1782.07,2831.13 L 1780.12,2831.32 L 1732.7,2831.28 L 1689.05,2849.31 L 1655.63,2882.68 L 1637.52,2926.29 L 1637.48,2973.5 L 1655.51,3017.15 L 1688.87,3050.57 L 1732.48,3068.68 L 1779.7,3068.72 L 1823.35,3050.69 L 1856.77,3017.33 L 1874.88,2973.72 L 1874.92,2926.5 L 1872.5,2920.63 L 1871.74,2916.81 L 1872.5,2912.98 L 1873.42,2911.26 L 1997.8,2786.6 L 2011.26,2766.47 L 2015.98,2742.72 L 2016.18,2488.14 L 2016.75,2486.26 L 2018.92,2483.02 L 2043.56,2458.42 L 2059.27,2420.58 L 2059.31,2379.61 L 2043.66,2341.74 L 2014.71,2312.74 L 2006.3,2309.25 L 2003.06,2307.08 L 2000.9,2303.83 L 2000.14,2300 L 2000.9,2296.18 L 2003.07,2292.94 L 2006.32,2290.77 L 2014.56,2287.37 L 2032.28,2269.68 L 2035.52,2267.52 L 2037.39,2266.95 L 2041.29,2266.95 L 2043.17,2267.52 L 2046.41,2269.69 L 2095.26,2318.53 L 2097.43,2321.78 L 2097.99,2323.65 L 2098.19,2549.02 L 2102.31,2569.75 L 2114.06,2587.33 L 2212.66,2685.94 L 2230.25,2697.69 L 2250.97,2701.81 L 2455.23,2702.01 L 2458.84,2703.5 L 2460.36,2704.75 L 2461.6,2706.26 L 2462.63,2708.26 L 2491.58,2737.26 L 2529.42,2752.98 L 2570.39,2753.01 L 2608.26,2737.36 L 2637.26,2708.42 L 2652.97,2670.58 L 2653.01,2629.61 L 2637.36,2591.74 L 2608.42,2562.74 L 2570.57,2547.03 L 2529.61,2546.99 L 2491.73,2562.64 L 2462.74,2591.58 L 2461.63,2593.75 L 2460.39,2595.26 L 2458.87,2596.51 L 2455.27,2598 L 2275.6,2598.19 L 2271.77,2597.43 L 2268.53,2595.26 L 2203.49,2529.95 L 2202.57,2528.23 L 2201.81,2524.4 L 2201.81,2300.99 L 2197.69,2280.25 L 2185.94,2262.67 L 2087.33,2164.06 L 2069.75,2152.32 L 2051.33,2148.65 L 2047.73,2147.16 L 2044.97,2144.4 L 2043.66,2141.74 L 2019.68,2117.72 L 2017.52,2114.47 L 2016.76,2110.65 L 2017.52,2106.83 L 2019.69,2103.58 L 2085.94,2037.34 L 2097.68,2019.75 L 2101.81,1999.02 L 2101.81,1963.97 L 2102.57,1960.15 L 2103.49,1958.42 L 2104.74,1956.9 L 2107.98,1954.73 L 2109.86,1954.17 L 2127.75,1951.02 L 2141.42,1942.23 L 2150.55,1928.86 L 2151.83,1922.58 L 2153.33,1918.99 L 2156.09,1916.24 L 2157.82,1915.32 L 2159.7,1914.75 L 2163.59,1914.76 L 2167.19,1916.26 L 2188.43,1937.26 L 2190.59,1938.37 L 2192.11,1939.61 L 2194.28,1942.85 L 2195.04,1946.68 L 2195.04,1995.88 L 2199.16,2016.6 L 2210.91,2034.18 L 2283.47,2106.75 L 2285.64,2109.99 L 2286.21,2111.87 L 2286.21,2115.77 L 2284.71,2119.38 L 2262.74,2141.58 L 2247.02,2179.43 L 2246.99,2220.39 L 2262.64,2258.27 L 2291.58,2287.26 L 2300.5,2291.18 L 2303.26,2293.94 L 2304.75,2297.54 L 2304.75,2301.44 L 2303.25,2305.05 L 2302.01,2306.56 L 2298.84,2308.69 L 2296.09,2317.81 L 2322.12,2343.84M 2293.79,2427.93 L 2292.45,2425.62 L 2288.39,2413.1 L 2287.01,2400 L 2288.39,2386.9 L 2292.45,2374.38 L 2293.78,2372.07 L 2267.81,2346.09 L 2258.98,2348.75 L 2246.15,2384.44 L 2248.11,2425.62 L 2258.69,2451.16 L 2267.81,2453.91 L 2293.79,2427.93M 1356.21,577.928 L 1382.19,603.91 L 1391.02,601.252 L 1403.85,565.56 L 1401.89,524.384 L 1391.3,498.84 L 1382.19,496.096 L 1356.21,522.072 L 1357.55,524.38 L 1361.61,536.904 L 1362.99,550 L 1361.61,563.096 L 1357.55,575.62 L 1356.21,577.928M 606.212,1222.07 L 607.546,1224.38 L 611.614,1236.9 L 612.992,1250 L 611.614,1263.1 L 607.546,1275.62 L 606.212,1277.93 L 632.19,1303.91 L 641.018,1301.25 L 653.85,1265.56 L 651.886,1224.39 L 641.304,1198.84 L 632.192,1196.1 L 606.212,1222.07M 493.784,1222.07 L 467.808,1196.09 L 458.978,1198.75 L 446.146,1234.44 L 448.11,1275.62 L 458.692,1301.16 L 467.806,1303.91 L 493.788,1277.93 L 492.454,1275.62 L 488.386,1263.1 L 487.008,1250 L 488.386,1236.9 L 492.454,1224.38 L 493.784,1222.07M 577.876,1193.84 L 603.906,1167.81 L 601.248,1158.98 L 565.556,1146.15 L 524.384,1148.11 L 498.836,1158.7 L 496.092,1167.81 L 522.12,1193.84 L 530.536,1190.09 L 543.416,1187.35 L 556.584,1187.35 L 569.464,1190.09 L 577.876,1193.84M 577.876,1306.16 L 569.464,1309.91 L 556.584,1312.65 L 543.416,1312.65 L 530.536,1309.91 L 522.124,1306.16 L 496.09,1332.19 L 498.748,1341.02 L 534.44,1353.85 L 575.612,1351.89 L 601.16,1341.31 L 603.904,1332.19 L 577.876,1306.16M 827.876,1443.84 L 853.906,1417.81 L 851.248,1408.98 L 815.556,1396.15 L 774.384,1398.11 L 748.836,1408.7 L 746.092,1417.81 L 772.12,1443.84 L 780.536,1440.09 L 793.416,1437.35 L 806.584,1437.35 L 819.464,1440.09 L 827.876,1443.84M 743.788,1527.93 L 742.454,1525.62 L 738.386,1513.1 L 737.008,1500 L 738.386,1486.9 L 742.454,1474.38 L 743.784,1472.07 L 717.808,1446.09 L 708.978,1448.75 L 696.146,1484.44 L 698.11,1525.62 L 708.692,1551.16 L 717.806,1553.91 L 743.788,1527.93M 180,436.136 L 180,402.048 L 171.65,397.664 L 136.65,414.098 L 108.44,445.054 L 97.53,471.388 L 102.076,480 L 136.404,480 L 139.912,470.526 L 147.076,459.034 L 156.406,449.218 L 167.52,441.482 L 180,436.136M 220,436.49 L 226.392,438.496 L 238.232,445.068 L 248.508,453.89 L 256.798,464.598 L 262.76,476.756 L 263.6,480 L 297.918,480 L 302.464,471.39 L 291.558,445.056 L 263.348,414.1 L 228.35,397.662 L 220,402.046 L 220,436.49M 136.4,520 L 102.078,520 L 97.532,528.614 L 108.438,554.948 L 136.648,585.904 L 146.104,590.344 L 149.188,592.598 L 151.2,595.842 L 151.85,599.606 L 151.042,603.34 L 148.892,606.498 L 122.236,624.53 L 99.098,659.158 L 90.974,700.002 L 99.096,740.844 L 122.234,775.474 L 125.38,777.81 L 126.626,779.334 L 128.116,782.958 L 128.3,784.92 L 128.098,786.878 L 126.574,790.49 L 123.78,793.238 L 122.036,794.15 L 118.308,795.046 L 104.64,803.844 L 95.504,817.21 L 92.09,834.07 L 92.09,966.006 L 95.04,981.688 L 103.84,995.36 L 117.206,1004.5 L 134.066,1007.91 L 266.002,1007.91 L 281.684,1004.96 L 295.356,996.16 L 304.492,982.794 L 307.908,965.924 L 308.1,959.862 L 309.592,956.258 L 312.352,953.498 L 315.956,952.006 L 324.396,951.812 L 328.222,952.574 L 331.466,954.742 L 362.664,985.94 L 380.246,997.688 L 400.974,1001.81 L 456.538,1001.81 L 460.364,1002.57 L 462.094,1003.5 L 464.852,1006.26 L 477.31,1024.9 L 510.66,1047.19 L 549.998,1055.01 L 589.334,1047.19 L 622.684,1024.9 L 636.386,1004.74 L 639.632,1002.57 L 643.46,1001.81 L 708.334,1001.81 L 712.164,1002.58 L 715.41,1004.75 L 741.58,1030.96 L 779.422,1046.68 L 820.388,1046.72 L 851.758,1033.75 L 855.582,1033 L 859.406,1033.76 L 862.648,1035.92 L 999.278,1172.83 L 1000.2,1174.56 L 1000.96,1178.39 L 1000.92,1219.61 L 1015.97,1256.04 L 1043.81,1283.93 L 1080.21,1299.04 L 1119.61,1299.08 L 1156.04,1284.03 L 1183.92,1256.19 L 1199.04,1219.79 L 1199.07,1180.39 L 1184.02,1143.96 L 1156.18,1116.08 L 1119.79,1100.96 L 1078.58,1100.94 L 1076.57,1100.79 L 1074.63,1100.23 L 1072.85,1099.29 L 1071.29,1098.02 L 1043.87,1070.33 L 1042.38,1066.72 L 1042.38,1062.82 L 1042.94,1060.95 L 1045.11,1057.7 L 1048.35,1055.53 L 1050.23,1054.97 L 1089.33,1047.19 L 1122.68,1024.9 L 1136.39,1004.74 L 1139.63,1002.57 L 1143.46,1001.81 L 1210.29,1002.01 L 1212.16,1002.58 L 1215.41,1004.75 L 1241.58,1030.96 L 1279.42,1046.68 L 1320.39,1046.72 L 1358.26,1031.07 L 1387.26,1002.12 L 1402.97,964.278 L 1403.01,924.398 L 1403.77,920.578 L 1405.94,917.336 L 1418.53,904.742 L 1420.04,903.498 L 1423.65,902.006 L 1612.38,901.812 L 1616.21,902.574 L 1619.46,904.744 L 1620.7,906.26 L 1622.19,909.868 L 1622.19,913.772 L 1621.62,915.648 L 1619.45,918.89 L 1599.43,938.876 L 1581.32,982.488 L 1581.28,1029.7 L 1599.31,1073.35 L 1632.67,1106.77 L 1635.06,1107.97 L 1636.58,1109.22 L 1638.74,1112.46 L 1639.5,1116.29 L 1638.74,1120.12 L 1636.57,1123.36 L 1616.07,1143.82 L 1600.96,1180.21 L 1600.92,1219.61 L 1615.97,1256.04 L 1643.81,1283.93 L 1680.21,1299.04 L 1719.61,1299.08 L 1756.04,1284.03 L 1783.92,1256.19 L 1799.04,1219.79 L 1799.07,1180.39 L 1784.02,1143.96 L 1763.47,1123.37 L 1761.3,1120.13 L 1760.54,1116.3 L 1761.31,1112.47 L 1763.48,1109.23 L 1765,1107.99 L 1767.15,1106.89 L 1800.57,1073.53 L 1818.68,1029.92 L 1818.72,982.7 L 1800.69,939.052 L 1780.55,918.878 L 1778.38,915.634 L 1777.63,911.808 L 1778.39,907.982 L 1780.56,904.74 L 1783.8,902.574 L 1787.63,901.812 L 2557.61,901.812 L 2561.44,902.576 L 2564.69,904.748 L 2593.81,933.928 L 2630.21,949.04 L 2669.61,949.076 L 2706.04,934.026 L 2733.92,906.186 L 2749.04,869.79 L 2749.07,830.392 L 2734.02,793.964 L 2706.18,766.076 L 2669.79,750.964 L 2630.39,750.928 L 2593.96,765.978 L 2564.67,795.242 L 2561.42,797.424 L 2557.58,798.19 L 1400.99,798.19 L 1380.25,802.314 L 1362.67,814.062 L 1336.2,840.526 L 1332.95,842.696 L 1331.08,843.264 L 1327.17,843.262 L 1320.57,840.73 L 1279.61,840.69 L 1241.73,856.34 L 1212.73,885.288 L 1209.01,893.752 L 1206.26,896.508 L 1204.53,897.43 L 1200.7,898.19 L 1141.51,897.998 L 1139.63,897.43 L 1136.39,895.262 L 1122.69,875.104 L 1106.25,864.12 L 1103.49,861.36 L 1102.57,859.632 L 1101.81,855.804 L 1101.81,800.988 L 1097.69,780.252 L 1085.94,762.67 L 987.332,664.064 L 969.75,652.316 L 949.014,648.19 L 862.544,648.19 L 860.488,647.978 L 858.52,647.346 L 856.724,646.324 L 855.176,644.954 L 853.944,643.296 L 853.078,641.42 L 852.616,639.404 L 852.58,637.338 L 853.904,632.194 L 827.876,606.162 L 819.464,609.908 L 806.584,612.646 L 793.416,612.646 L 780.536,609.908 L 772.124,606.164 L 746.09,632.192 L 747.416,637.338 L 747.38,639.404 L 746.918,641.418 L 746.052,643.296 L 744.82,644.954 L 743.272,646.324 L 741.476,647.346 L 739.508,647.978 L 737.454,648.19 L 296.964,647.998 L 293.36,646.506 L 290.6,643.746 L 277.762,624.532 L 251.102,606.496 L 248.954,603.34 L 248.146,599.606 L 248.794,595.844 L 250.808,592.598 L 253.892,590.344 L 263.346,585.906 L 291.556,554.95 L 302.464,528.616 L 297.92,520 L 263.596,520 L 260.088,529.474 L 252.924,540.966 L 243.594,550.782 L 232.48,558.518 L 220.034,563.858 L 206.77,566.584 L 200,566.928 L 186.528,565.556 L 173.608,561.504 L 161.768,554.932 L 151.492,546.11 L 143.202,535.402 L 137.24,523.244 L 136.4,520M 522.124,206.164 L 496.09,232.192 L 498.748,241.022 L 534.44,253.854 L 575.612,251.89 L 601.16,241.308 L 603.904,232.194 L 577.876,206.162 L 569.464,209.908 L 556.584,212.646 L 543.416,212.646 L 530.536,209.908 L 522.124,206.164M 493.788,177.928 L 492.454,175.62 L 488.386,163.096 L 487.008,150 L 488.386,136.904 L 492.454,124.38 L 493.784,122.074 L 467.808,96.094 L 458.978,98.752 L 446.146,134.444 L 448.11,175.616 L 458.692,201.164 L 467.806,203.908 L 493.788,177.928M 606.212,177.928 L 632.19,203.91 L 641.018,201.252 L 653.85,165.56 L 651.886,124.388 L 641.304,98.84 L 632.192,96.096 L 606.212,122.072 L 607.546,124.38 L 611.614,136.904 L 612.992,150 L 611.614,163.096 L 607.546,175.62 L 606.212,177.928M 522.12,93.84 L 530.536,90.092 L 543.416,87.354 L 556.584,87.354 L 569.464,90.092 L 577.876,93.838 L 603.906,67.81 L 601.248,58.982 L 565.556,46.15 L 524.384,48.114 L 498.836,58.696 L 496.092,67.808 L 522.12,93.84M 856.212,577.928 L 882.19,603.91 L 891.018,601.252 L 903.85,565.56 L 901.886,524.388 L 891.304,498.84 L 882.192,496.096 L 856.212,522.072 L 857.546,524.38 L 861.614,536.904 L 862.992,550 L 861.614,563.096 L 857.546,575.62 L 856.212,577.928M 827.876,493.838 L 853.906,467.81 L 851.248,458.982 L 815.556,446.15 L 774.384,448.114 L 748.836,458.696 L 746.092,467.808 L 772.12,493.84 L 780.536,490.092 L 793.416,487.354 L 806.584,487.354 L 819.464,490.092 L 827.876,493.838M 743.784,522.074 L 717.808,496.094 L 708.978,498.752 L 696.146,534.444 L 698.11,575.616 L 708.692,601.164 L 717.806,603.908 L 743.788,577.928 L 742.454,575.62 L 738.386,563.096 L 737.008,550 L 738.386,536.904 L 742.454,524.38 L 743.784,522.074M 1272.12,606.164 L 1246.09,632.192 L 1248.75,641.022 L 1284.44,653.854 L 1325.61,651.89 L 1351.16,641.308 L 1353.9,632.194 L 1327.88,606.162 L 1319.46,609.908 L 1306.58,612.646 L 1293.42,612.646 L 1280.54,609.908 L 1272.12,606.164M 1243.79,577.928 L 1242.45,575.62 L 1238.39,563.096 L 1237.01,550 L 1238.39,536.904 L 1242.45,524.38 L 1243.78,522.074 L 1217.81,496.094 L 1208.98,498.752 L 1196.15,534.444 L 1198.11,575.616 L 1208.69,601.164 L 1217.81,603.908 L 1243.79,577.928M 1327.88,493.838 L 1353.91,467.81 L 1351.25,458.982 L 1315.56,446.15 L 1274.38,448.114 L 1248.84,458.696 L 1246.09,467.808 L 1272.12,493.84 L 1280.54,490.092 L 1293.42,487.354 L 1306.58,487.354 L 1319.46,490.092 L 1327.88,493.838M 1022.12,206.164 L 996.09,232.192 L 998.748,241.022 L 1034.44,253.854 L 1075.61,251.89 L 1101.16,241.308 L 1103.9,232.194 L 1077.88,206.162 L 1069.46,209.908 L 1056.58,212.646 L 1043.42,212.646 L 1030.54,209.908 L 1022.12,206.164M 1022.12,93.84 L 1030.54,90.092 L 1043.42,87.354 L 1056.58,87.354 L 1069.46,90.092 L 1077.88,93.838 L 1103.91,67.81 L 1101.25,58.982 L 1065.56,46.15 L 1024.38,48.114 L 998.836,58.696 L 996.092,67.808 L 1022.12,93.84M 993.788,177.928 L 992.454,175.62 L 988.386,163.096 L 987.008,150 L 988.386,136.904 L 992.454,124.38 L 993.784,122.074 L 967.808,96.094 L 958.978,98.752 L 946.146,134.444 L 948.11,175.616 L 958.692,201.164 L 967.806,203.908 L 993.788,177.928M 1106.21,122.072 L 1107.55,124.38 L 1111.61,136.904 L 1112.99,150 L 1111.61,163.096 L 1107.55,175.62 L 1106.21,177.928 L 1132.19,203.91 L 1141.02,201.252 L 1153.85,165.56 L 1151.89,124.388 L 1141.3,98.84 L 1132.19,96.096 L 1106.21,122.072M 4127.88,2343.84 L 4153.91,2317.81 L 4151.24,2308.96 L 4147.99,2306.97 L 4146.67,2305.47 L 4145.67,2303.74 L 4145.03,2301.84 L 4144.78,2299.86 L 4144.94,2297.86 L 4145.48,2295.94 L 4146.4,2294.16 L 4147.66,2292.6 L 4149.2,2291.33 L 4158.26,2287.36 L 4187.25,2258.42 L 4188.36,2256.26 L 4189.61,2254.74 L 4192.85,2252.57 L 4194.73,2252.01 L 4932.09,2251.81 L 4935.92,2252.57 L 4937.64,2253.5 L 4939.16,2254.74 L 4941.33,2257.99 L 4942.09,2261.81 L 4942.09,2266.01 L 4945.04,2281.69 L 4953.84,2295.36 L 4967.21,2304.5 L 4973.72,2305.82 L 4977.25,2307.27 L 4979.97,2309.94 L 4981.5,2313.43 L 4981.61,2317.25 L 4980.28,2320.82 L 4958.44,2345.05 L 4947.53,2371.39 L 4952.08,2380 L 4986.4,2380 L 4989.91,2370.53 L 4997.08,2359.03 L 5006.41,2349.22 L 5017.52,2341.48 L 5029.97,2336.14 L 5043.23,2333.42 L 5050,2333.07 L 5063.47,2334.44 L 5076.39,2338.5 L 5088.23,2345.07 L 5098.51,2353.89 L 5106.8,2364.6 L 5112.76,2376.76 L 5113.6,2380 L 5147.92,2380 L 5152.46,2371.39 L 5141.56,2345.06 L 5120.99,2322.49 L 5119,2319.21 L 5118.39,2315.42 L 5119.25,2311.68 L 5121.46,2308.54 L 5122.97,2307.35 L 5126.54,2305.93 L 5131.68,2304.96 L 5145.36,2296.16 L 5154.49,2282.79 L 5157.91,2265.92 L 5157.91,2134.01 L 5154.96,2118.32 L 5146.16,2104.64 L 5132.79,2095.51 L 5115.92,2092.09 L 4984,2092.09 L 4968.31,2095.04 L 4954.64,2103.84 L 4945.5,2117.21 L 4942.09,2134.07 L 4942.09,2138.19 L 4941.33,2142.02 L 4939.16,2145.26 L 4937.64,2146.51 L 4935.92,2147.43 L 4932.09,2148.19 L 4194.76,2148 L 4191.16,2146.5 L 4189.64,2145.26 L 4188.4,2143.74 L 4187.36,2141.74 L 4158.42,2112.75 L 4156.25,2111.64 L 4153.49,2108.88 L 4152,2105.27 L 4151.81,2100.99 L 4147.69,2080.25 L 4135.94,2062.67 L 4051.59,1978.32 L 4049.42,1975.08 L 4048.66,1971.25 L 4048.66,1946.72 L 4049.42,1942.89 L 4051.59,1939.64 L 4053.11,1938.4 L 4055.11,1937.37 L 4084.11,1908.42 L 4099.82,1870.58 L 4099.86,1829.61 L 4084.21,1791.74 L 4055.27,1762.74 L 4017.42,1747.03 L 3976.46,1746.99 L 3938.58,1762.64 L 3918.83,1782.36 L 3915.57,1784.53 L 3911.72,1785.28 L 3909.76,1785.08 L 3906.15,1783.56 L 3903.4,1780.77 L 3901.94,1777.13 L 3901.02,1772.25 L 3892.22,1758.58 L 3878.85,1749.45 L 3861.98,1746.03 L 3737.94,1746.03 L 3722.25,1748.98 L 3708.58,1757.78 L 3699.44,1771.15 L 3696.03,1788.01 L 3696.03,1912.07 L 3698.98,1927.75 L 3707.77,1941.42 L 3721.14,1950.56 L 3742.01,1954.73 L 3745.26,1956.9 L 3746.5,1958.42 L 3747.43,1960.15 L 3748.19,1963.97 L 3748.19,1974.4 L 3747.43,1978.23 L 3745.26,1981.47 L 3670.36,2056.37 L 3658.61,2073.95 L 3654.49,2094.68 L 3654.29,2105.24 L 3653.72,2107.12 L 3651.55,2110.36 L 3650.03,2111.61 L 3648.03,2112.64 L 3619.04,2141.58 L 3617.93,2143.75 L 3615.17,2146.51 L 3611.57,2148 L 3609.62,2148.19 L 3590.34,2148 L 3586.73,2146.5 L 3583.97,2143.73 L 3582.48,2140.12 L 3582.3,2138.16 L 3585.98,2119 L 3585.98,2080.94 L 3583.03,2065.24 L 3574.23,2051.57 L 3562.55,2043.37 L 3560.43,2040.14 L 3559.87,2038.28 L 3559.68,1957.29 L 3554.96,1933.54 L 3548.36,1923.66 L 3546.87,1920.05 L 3546.71,1879.61 L 3531.06,1841.74 L 3506.31,1816.94 L 3505.06,1815.43 L 3503.57,1811.82 L 3503.38,1790.82 L 3504.15,1786.99 L 3506.32,1783.74 L 3533.92,1756.19 L 3549.04,1719.79 L 3549.07,1680.39 L 3534.02,1643.96 L 3506.18,1616.08 L 3469.79,1600.96 L 3430.39,1600.93 L 3393.96,1615.98 L 3366.07,1643.82 L 3350.96,1680.21 L 3350.92,1719.61 L 3365.97,1756.04 L 3381.09,1771.18 L 3383.25,1774.42 L 3384.01,1778.25 L 3384.01,1809.91 L 3383.25,1813.74 L 3381.08,1816.99 L 3356.44,1841.58 L 3340.73,1879.43 L 3340.69,1920.39 L 3356.34,1958.27 L 3385.28,1987.26 L 3423.12,2002.98 L 3430.32,2002.98 L 3434.15,2003.75 L 3437.39,2005.91 L 3438.63,2007.43 L 3440.12,2011.03 L 3440.31,2012.98 L 3440.31,2036.47 L 3439.52,2040.36 L 3438.57,2042.11 L 3437.28,2043.64 L 3426.57,2050.77 L 3417.44,2064.14 L 3414.02,2081 L 3414.02,2119.08 L 3416.97,2134.76 L 3423.34,2144.66 L 3424.77,2148.27 L 3424.93,2150.21 L 3424.13,2154.01 L 3417.44,2164.14 L 3414.02,2181 L 3414.02,2219.08 L 3416.97,2234.76 L 3423.34,2244.66 L 3424.77,2248.27 L 3424.93,2250.21 L 3424.13,2254.01 L 3417.44,2264.14 L 3414.02,2281 L 3414.02,2319.08 L 3416.97,2334.76 L 3423.34,2344.66 L 3424.77,2348.27 L 3424.93,2350.21 L 3424.13,2354.01 L 3417.44,2364.14 L 3414.02,2381 L 3414.02,2419.08 L 3416.97,2434.76 L 3425.77,2448.43 L 3439.13,2457.56 L 3442.04,2458.35 L 3443.76,2459.28 L 3446.51,2462.03 L 3448,2465.63 L 3448.19,2556.54 L 3447.43,2560.37 L 3445.26,2563.61 L 3425.1,2577.31 L 3402.81,2610.66 L 3394.99,2650 L 3402.81,2689.34 L 3425.1,2722.69 L 3458.45,2744.97 L 3498.76,2752.99 L 3501.23,2752.99 L 3541.55,2744.98 L 3574.9,2722.69 L 3597.18,2689.34 L 3605.01,2650 L 3597.19,2610.67 L 3574.9,2577.32 L 3554.74,2563.61 L 3552.57,2560.37 L 3552,2558.49 L 3551.81,2467.82 L 3552.58,2463.97 L 3553.52,2462.23 L 3556.31,2459.47 L 3559.7,2458.07 L 3573.43,2449.23 L 3582.56,2435.87 L 3584.97,2423.98 L 3586.47,2420.39 L 3587.72,2418.88 L 3590.96,2416.72 L 3592.84,2416.16 L 3596.74,2416.16 L 3600.34,2417.66 L 3603.09,2420.42 L 3604.01,2422.15 L 3618.93,2458.27 L 3643.69,2483.06 L 3645.85,2486.31 L 3646.61,2490.13 L 3646.61,2714.84 L 3645.85,2718.67 L 3644.93,2720.4 L 3535.68,2829.64 L 3532.07,2831.13 L 3530.12,2831.32 L 3482.7,2831.28 L 3439.05,2849.31 L 3405.63,2882.68 L 3387.52,2926.29 L 3387.48,2973.5 L 3405.51,3017.15 L 3438.87,3050.57 L 3482.48,3068.68 L 3529.7,3068.72 L 3573.35,3050.69 L 3606.77,3017.33 L 3624.88,2973.72 L 3624.92,2926.5 L 3622.5,2920.63 L 3621.74,2916.81 L 3622.5,2912.98 L 3623.42,2911.26 L 3747.8,2786.6 L 3761.26,2766.47 L 3765.98,2742.72 L 3766.18,2488.14 L 3766.75,2486.26 L 3768.92,2483.02 L 3793.56,2458.42 L 3809.27,2420.58 L 3809.31,2379.61 L 3793.66,2341.74 L 3764.71,2312.74 L 3756.3,2309.25 L 3753.06,2307.08 L 3750.9,2303.83 L 3750.14,2300 L 3750.9,2296.18 L 3753.07,2292.94 L 3756.32,2290.77 L 3764.56,2287.37 L 3782.28,2269.68 L 3785.52,2267.52 L 3787.39,2266.95 L 3791.29,2266.95 L 3793.17,2267.52 L 3796.41,2269.69 L 3845.26,2318.53 L 3847.43,2321.78 L 3847.99,2323.65 L 3848.19,2549.02 L 3852.31,2569.75 L 3864.06,2587.33 L 3962.66,2685.94 L 3980.25,2697.69 L 4000.97,2701.81 L 4205.23,2702.01 L 4208.84,2703.5 L 4210.36,2704.75 L 4211.6,2706.26 L 4212.63,2708.26 L 4241.58,2737.26 L 4279.42,2752.98 L 4320.39,2753.01 L 4358.26,2737.36 L 4387.26,2708.42 L 4402.97,2670.58 L 4403.01,2629.61 L 4387.36,2591.74 L 4358.42,2562.74 L 4320.57,2547.03 L 4279.61,2546.99 L 4241.73,2562.64 L 4212.74,2591.58 L 4211.63,2593.75 L 4210.39,2595.26 L 4208.87,2596.51 L 4205.27,2598 L 4025.6,2598.19 L 4021.77,2597.43 L 4018.53,2595.26 L 3953.49,2529.95 L 3952.57,2528.23 L 3951.81,2524.4 L 3951.81,2300.99 L 3947.69,2280.25 L 3935.94,2262.67 L 3837.33,2164.06 L 3819.75,2152.32 L 3801.33,2148.65 L 3797.73,2147.16 L 3794.97,2144.4 L 3793.66,2141.74 L 3769.68,2117.72 L 3767.52,2114.47 L 3766.76,2110.65 L 3767.52,2106.83 L 3769.69,2103.58 L 3835.94,2037.34 L 3847.68,2019.75 L 3851.81,1999.02 L 3851.81,1963.97 L 3852.57,1960.15 L 3853.49,1958.42 L 3854.74,1956.9 L 3857.98,1954.73 L 3859.86,1954.17 L 3877.75,1951.02 L 3891.42,1942.23 L 3900.55,1928.86 L 3901.83,1922.58 L 3903.33,1918.99 L 3906.09,1916.24 L 3907.82,1915.32 L 3909.7,1914.75 L 3913.59,1914.76 L 3917.19,1916.26 L 3938.43,1937.26 L 3940.59,1938.37 L 3942.11,1939.61 L 3944.28,1942.85 L 3945.04,1946.68 L 3945.04,1995.88 L 3949.16,2016.6 L 3960.91,2034.18 L 4033.47,2106.75 L 4035.64,2109.99 L 4036.21,2111.87 L 4036.21,2115.77 L 4034.71,2119.38 L 4012.74,2141.58 L 3997.02,2179.43 L 3996.99,2220.39 L 4012.64,2258.27 L 4041.58,2287.26 L 4050.5,2291.18 L 4053.26,2293.94 L 4054.75,2297.54 L 4054.75,2301.44 L 4053.25,2305.05 L 4052.01,2306.56 L 4048.84,2308.69 L 4046.09,2317.81 L 4072.12,2343.84 L 4080.54,2340.09 L 4093.42,2337.35 L 4106.58,2337.35 L 4119.46,2340.09 L 4127.88,2343.84M 4127.88,2456.16 L 4119.46,2459.91 L 4106.58,2462.65 L 4093.42,2462.65 L 4080.54,2459.91 L 4072.12,2456.16 L 4046.09,2482.19 L 4048.75,2491.02 L 4084.44,2503.85 L 4125.61,2501.89 L 4151.16,2491.31 L 4153.9,2482.19 L 4127.88,2456.16M 2980,2420 L 2921.64,2420 L 2915,2426.64 L 2915,2427.96 L 2921.09,2442.66 L 2932.34,2453.91 L 2947.04,2460 L 2973.36,2460 L 2980,2453.36 L 2980,2420M 4043.79,2427.93 L 4042.45,2425.62 L 4038.39,2413.1 L 4037.01,2400 L 4038.39,2386.9 L 4042.45,2374.38 L 4043.78,2372.07 L 4017.81,2346.09 L 4008.98,2348.75 L 3996.15,2384.44 L 3998.11,2425.62 L 4008.69,2451.16 L 4017.81,2453.91 L 4043.79,2427.93M 3045,2420 L 3020,2420 L 3020,2453.36 L 3026.64,2460 L 3052.95,2460 L 3067.66,2453.91 L 3078.91,2442.66 L 3085,2427.96 L 3085,2426.64 L 3078.36,2420 L 3045,2420M 3077.88,1956.16 L 3069.46,1959.91 L 3056.58,1962.65 L 3043.42,1962.65 L 3030.54,1959.91 L 3022.12,1956.16 L 2996.09,1982.19 L 2998.75,1991.02 L 3034.44,2003.85 L 3075.61,2001.89 L 3101.16,1991.31 L 3103.9,1982.19 L 3077.88,1956.16M 3077.88,1843.84 L 3103.91,1817.81 L 3101.25,1808.98 L 3065.56,1796.15 L 3024.38,1798.11 L 2998.84,1808.7 L 2996.09,1817.81 L 3022.12,1843.84 L 3030.54,1840.09 L 3043.42,1837.35 L 3056.58,1837.35 L 3069.46,1840.09 L 3077.88,1843.84M 3106.21,1927.93 L 3132.19,1953.91 L 3141.02,1951.25 L 3153.85,1915.56 L 3151.89,1874.39 L 3141.3,1848.84 L 3132.19,1846.1 L 3106.21,1872.07 L 3107.55,1874.38 L 3111.61,1886.9 L 3112.99,1900 L 3111.61,1913.1 L 3107.55,1925.62 L 3106.21,1927.93M 2993.79,1927.93 L 2992.45,1925.62 L 2988.39,1913.1 L 2987.01,1900 L 2988.39,1886.9 L 2992.45,1874.38 L 2993.78,1872.07 L 2967.81,1846.09 L 2958.98,1848.75 L 2946.15,1884.44 L 2948.11,1925.62 L 2958.69,1951.16 L 2967.81,1953.91 L 2993.79,1927.93M 5030,2463.51 L 5023.61,2461.5 L 5011.77,2454.93 L 5001.49,2446.11 L 4993.2,2435.4 L 4987.24,2423.24 L 4986.4,2420 L 4952.08,2420 L 4947.53,2428.61 L 4958.44,2454.95 L 4986.65,2485.9 L 5021.65,2502.34 L 5030,2497.96 L 5030,2463.51M 5070,2463.86 L 5070,2497.96 L 5078.35,2502.34 L 5113.35,2485.91 L 5141.56,2454.95 L 5152.47,2428.62 L 5147.92,2420 L 5113.6,2420 L 5110.09,2429.47 L 5102.92,2440.97 L 5093.59,2450.78 L 5082.48,2458.52 L 5070,2463.86M 4156.21,2427.93 L 4182.19,2453.91 L 4191.02,2451.25 L 4203.85,2415.56 L 4201.89,2374.39 L 4191.3,2348.84 L 4182.19,2346.1 L 4156.21,2372.07 L 4157.55,2374.38 L 4161.61,2386.9 L 4162.99,2400 L 4161.61,2413.1 L 4157.55,2425.62 L 4156.21,2427.93M 4143.42,1023.15 L 4110.07,1023.15 L 4103.42,1029.79 L 4103.42,1066.11 L 4109.51,1080.81 L 4120.76,1092.06 L 4135.46,1098.15 L 4147.71,1098.34 L 4151.32,1099.84 L 4154.08,1102.6 L 4155,1104.33 L 4155.76,1108.16 L 4155,1111.98 L 4152.83,1115.23 L 4149.58,1117.39 L 4144.68,1119.42 L 4117.93,1146.12 L 4103.44,1181.02 L 4103.4,1218.81 L 4117.84,1253.74 L 4144.54,1280.49 L 4170.09,1291.1 L 4173.33,1293.27 L 4175.49,1296.52 L 4176.06,1298.39 L 4176.06,1302.3 L 4174.56,1305.9 L 4173.32,1307.41 L 4170.07,1309.58 L 4146.26,1319.42 L 4128.25,1337.39 L 4125.01,1339.56 L 4121.18,1340.32 L 3988.14,1340.12 L 3986.26,1339.55 L 3983.01,1337.38 L 3958.42,1312.74 L 3920.57,1297.03 L 3879.61,1296.99 L 3841.73,1312.64 L 3812.74,1341.58 L 3797.02,1379.43 L 3796.99,1420.39 L 3812.64,1458.27 L 3841.58,1487.26 L 3879.42,1502.98 L 3920.39,1503.01 L 3958.26,1487.36 L 3983.06,1462.61 L 3986.3,1460.45 L 3988.18,1459.88 L 4121.2,1459.69 L 4125.03,1460.45 L 4128.28,1462.62 L 4146.11,1480.49 L 4181.02,1494.98 L 4206.46,1495.01 L 4208.41,1495.2 L 4212.01,1496.69 L 4357.1,1641.51 L 4377.23,1654.96 L 4400.97,1659.69 L 5221.13,1659.69 L 5224.96,1660.45 L 5228.2,1662.62 L 5288.63,1723.31 L 5289.55,1725.04 L 5290.31,1728.87 L 5290.31,2671.14 L 5289.55,2674.96 L 5288.63,2676.69 L 5078.2,2887.39 L 5074.96,2889.56 L 5073.08,2890.12 L 4416.66,2890.32 L 4412.83,2889.55 L 4409.58,2887.38 L 4408.34,2885.87 L 4406.89,2882.85 L 4373.52,2849.43 L 4329.91,2831.32 L 4282.7,2831.28 L 4239.05,2849.31 L 4205.63,2882.68 L 4187.52,2926.29 L 4187.48,2973.5 L 4205.51,3017.15 L 4238.87,3050.57 L 4242.08,3052.11 L 4243.59,3053.35 L 4245.75,3056.6 L 4246.32,3058.47 L 4246.32,3066.89 L 4244.83,3070.49 L 4228.2,3087.39 L 4224.96,3089.56 L 4221.13,3090.32 L 2676.91,3090.12 L 2675.04,3089.56 L 2671.79,3087.39 L 2636.3,3051.9 L 2634.14,3048.65 L 2633.38,3044.83 L 2634.14,3041 L 2636.31,3037.75 L 2656.77,3017.33 L 2674.88,2973.72 L 2674.92,2926.5 L 2656.89,2882.85 L 2623.52,2849.43 L 2579.91,2831.32 L 2532.7,2831.28 L 2489.05,2849.31 L 2455.63,2882.68 L 2437.52,2926.29 L 2437.48,2973.5 L 2455.51,3017.15 L 2488.87,3050.57 L 2492.99,3052.49 L 2495.74,3055.25 L 2497.23,3058.85 L 2501.23,3078.96 L 2514.69,3099.1 L 2607.1,3191.51 L 2627.23,3204.96 L 2650.97,3209.69 L 4249.02,3209.69 L 4272.76,3204.97 L 4292.9,3191.51 L 4347.7,3136.7 L 4361.16,3116.57 L 4365.88,3092.82 L 4365.88,3060.46 L 4366.65,3056.63 L 4368.82,3053.39 L 4370.33,3052.14 L 4373.35,3050.69 L 4406.77,3017.33 L 4408.31,3014.12 L 4409.55,3012.61 L 4412.79,3010.45 L 4414.67,3009.88 L 5099.02,3009.69 L 5122.76,3004.97 L 5142.9,2991.51 L 5391.5,2742.9 L 5404.96,2722.77 L 5409.68,2699.02 L 5409.68,1700.99 L 5404.96,1677.24 L 5391.51,1657.1 L 5292.9,1558.5 L 5272.76,1545.04 L 5249.01,1540.32 L 4428.86,1540.32 L 4425.04,1539.56 L 4421.79,1537.39 L 4296.68,1412 L 4295.75,1410.27 L 4294.99,1406.44 L 4295.02,1381.19 L 4280.58,1346.26 L 4253.88,1319.51 L 4226.61,1307.98 L 4223.85,1305.22 L 4222.36,1301.61 L 4222.36,1297.71 L 4222.93,1295.83 L 4223.86,1294.11 L 4226.62,1291.35 L 4252.17,1280.59 L 4270.17,1262.61 L 4273.42,1260.45 L 4275.29,1259.88 L 4371.13,1259.69 L 4374.96,1260.45 L 4376.69,1261.37 L 4495.34,1380.02 L 4496.26,1381.75 L 4497.02,1385.58 L 4496.99,1420.39 L 4512.64,1458.27 L 4541.58,1487.26 L 4579.42,1502.98 L 4620.39,1503.01 L 4658.26,1487.36 L 4683.06,1462.61 L 4686.3,1460.45 L 4688.18,1459.88 L 4749.02,1459.69 L 4772.76,1454.97 L 4792.9,1441.51 L 5028.73,1205.95 L 5030.46,1205.02 L 5034.29,1204.26 L 5048.68,1206.93 L 5051.31,1206.93 L 5093.13,1198.61 L 5127.76,1175.47 L 5150.9,1140.85 L 5159.02,1100 L 5150.9,1059.16 L 5127.76,1024.53 L 5101.1,1006.5 L 5098.95,1003.34 L 5098.37,1001.51 L 5098.29,997.694 L 5099.65,994.124 L 5102.24,991.322 L 5113.35,985.906 L 5141.56,954.95 L 5152.47,928.616 L 5147.92,920 L 5113.6,920 L 5110.09,929.474 L 5102.92,940.966 L 5093.59,950.782 L 5082.48,958.518 L 5070.03,963.858 L 5056.77,966.584 L 5050,966.928 L 5036.53,965.556 L 5023.61,961.504 L 5011.77,954.932 L 5001.49,946.11 L 4993.2,935.402 L 4987.24,923.244 L 4986.4,920 L 4952.08,920 L 4947.53,928.614 L 4958.44,954.948 L 4986.65,985.904 L 4996.1,990.344 L 4999.19,992.598 L 5001.2,995.842 L 5001.85,999.606 L 5001.04,1003.34 L 4998.89,1006.5 L 4972.24,1024.53 L 4949.1,1059.16 L 4940.97,1100 L 4944.21,1117.24 L 4943.45,1121.07 L 4942.52,1122.8 L 4728.2,1337.39 L 4724.96,1339.56 L 4723.08,1340.12 L 4690.09,1340.32 L 4686.26,1339.55 L 4683.01,1337.38 L 4658.42,1312.74 L 4620.57,1297.03 L 4585.53,1297 L 4583.58,1296.8 L 4579.99,1295.31 L 4442.9,1158.5 L 4422.76,1145.04 L 4399.01,1140.32 L 4277.22,1140.32 L 4275.27,1140.12 L 4271.66,1138.63 L 4252.31,1119.51 L 4247.19,1117.39 L 4243.95,1115.22 L 4242.71,1113.7 L 4241.22,1110.1 L 4241.22,1106.2 L 4242.71,1102.59 L 4245.47,1099.84 L 4247.2,1098.91 L 4251.03,1098.15 L 4261.38,1098.15 L 4276.08,1092.06 L 4287.33,1080.81 L 4293.42,1066.11 L 4293.42,1029.79 L 4286.78,1023.15 L 4253.42,1023.15 L 4253.42,1058.15 L 4143.42,1058.15 L 4143.42,1023.15M 4143.42,983.15 L 4143.42,948.15 L 4178.42,948.15 L 4178.42,914.794 L 4171.78,908.15 L 4135.47,908.15 L 4120.77,914.24 L 4109.51,925.492 L 4103.42,940.194 L 4103.42,976.51 L 4110.06,983.15 L 4143.42,983.15M 3956.21,1034.23 L 3982.19,1060.21 L 3991.02,1057.55 L 4003.85,1021.86 L 4001.89,980.688 L 3991.3,955.14 L 3982.19,952.394 L 3956.21,978.37 L 3957.55,980.68 L 3961.61,993.204 L 3962.99,1006.3 L 3961.61,1019.4 L 3957.55,1031.92 L 3956.21,1034.23M 3843.79,1034.23 L 3842.45,1031.92 L 3838.39,1019.4 L 3837.01,1006.3 L 3838.39,993.204 L 3842.45,980.68 L 3843.79,978.374 L 3817.81,952.392 L 3808.98,955.052 L 3796.15,990.744 L 3798.11,1031.92 L 3808.69,1057.46 L 3817.81,1060.21 L 3843.79,1034.23M 3927.88,1062.46 L 3919.46,1066.21 L 3906.58,1068.95 L 3893.42,1068.95 L 3880.54,1066.21 L 3872.12,1062.46 L 3846.09,1088.49 L 3848.75,1097.32 L 3884.44,1110.15 L 3925.61,1108.19 L 3951.16,1097.61 L 3953.9,1088.49 L 3927.88,1062.46M 3927.88,950.138 L 3953.9,924.11 L 3951.25,915.28 L 3915.56,902.45 L 3874.38,904.412 L 3848.84,914.994 L 3846.09,924.108 L 3872.12,950.14 L 3880.54,946.392 L 3893.42,943.654 L 3906.58,943.654 L 3919.46,946.392 L 3927.88,950.138M 3843.79,627.928 L 3842.45,625.62 L 3838.39,613.096 L 3837.01,600 L 3838.39,586.904 L 3842.45,574.38 L 3843.78,572.074 L 3817.81,546.094 L 3808.98,548.752 L 3796.15,584.444 L 3798.11,625.616 L 3808.69,651.164 L 3817.81,653.908 L 3843.79,627.928M 3956.21,627.928 L 3982.19,653.91 L 3991.02,651.252 L 4003.85,615.564 L 4001.89,574.388 L 3991.3,548.84 L 3982.19,546.096 L 3956.21,572.072 L 3957.55,574.38 L 3961.61,586.904 L 3962.99,600 L 3961.61,613.096 L 3957.55,625.62 L 3956.21,627.928M 3927.88,656.162 L 3919.46,659.908 L 3906.58,662.646 L 3893.42,662.646 L 3880.54,659.908 L 3872.12,656.164 L 3846.09,682.192 L 3848.75,691.022 L 3884.44,703.854 L 3925.61,701.89 L 3951.16,691.308 L 3953.9,682.194 L 3927.88,656.162M 3872.12,543.84 L 3880.54,540.092 L 3893.42,537.354 L 3906.58,537.354 L 3919.46,540.092 L 3927.88,543.838 L 3953.91,517.81 L 3951.25,508.982 L 3915.56,496.15 L 3874.38,498.114 L 3848.84,508.696 L 3846.09,517.808 L 3872.12,543.84M 4218.42,948.15 L 4253.42,948.15 L 4253.42,983.15 L 4286.78,983.15 L 4293.42,976.51 L 4293.42,940.2 L 4287.33,925.494 L 4276.08,914.242 L 4261.38,908.15 L 4225.07,908.15 L 4218.42,914.792 L 4218.42,948.15M 4543.79,1034.23 L 4542.45,1031.92 L 4538.39,1019.4 L 4537.01,1006.3 L 4538.39,993.204 L 4542.45,980.68 L 4543.79,978.374 L 4517.81,952.392 L 4508.98,955.052 L 4496.15,990.744 L 4498.11,1031.92 L 4508.69,1057.46 L 4517.81,1060.21 L 4543.79,1034.23M 4656.21,1034.23 L 4682.19,1060.21 L 4691.02,1057.55 L 4703.85,1021.86 L 4701.89,980.688 L 4691.3,955.14 L 4682.19,952.394 L 4656.21,978.37 L 4657.55,980.68 L 4661.61,993.204 L 4662.99,1006.3 L 4661.61,1019.4 L 4657.55,1031.92 L 4656.21,1034.23M 4627.88,1062.46 L 4619.46,1066.21 L 4606.58,1068.95 L 4593.42,1068.95 L 4580.54,1066.21 L 4572.12,1062.46 L 4546.09,1088.49 L 4548.75,1097.32 L 4584.44,1110.15 L 4625.61,1108.19 L 4651.16,1097.61 L 4653.9,1088.49 L 4627.88,1062.46M 4627.88,950.138 L 4653.91,924.11 L 4651.25,915.28 L 4615.56,902.45 L 4574.38,904.412 L 4548.84,914.994 L 4546.09,924.108 L 4572.12,950.14 L 4580.54,946.392 L 4593.42,943.654 L 4606.58,943.654 L 4619.46,946.392 L 4627.88,950.138M 4986.4,880 L 4989.91,870.526 L 4997.08,859.034 L 5006.41,849.218 L 5017.52,841.482 L 5029.97,836.142 L 5043.23,833.416 L 5050,833.072 L 5063.47,834.444 L 5076.39,838.496 L 5088.23,845.068 L 5098.51,853.89 L 5106.8,864.598 L 5112.76,876.756 L 5113.6,880 L 5147.92,880 L 5152.46,871.39 L 5141.56,845.056 L 5120.99,822.49 L 5119.84,820.948 L 5118.51,817.346 L 5118.64,813.51 L 5119.25,811.682 L 5121.46,808.542 L 5124.68,806.464 L 5131.68,804.96 L 5145.36,796.16 L 5154.49,782.794 L 5157.91,765.924 L 5157.91,634.008 L 5154.96,618.316 L 5146.16,604.644 L 5132.79,595.508 L 5115.92,592.092 L 4984,592.092 L 4968.31,595.044 L 4954.64,603.844 L 4945.5,617.21 L 4942.45,632.302 L 4940.95,635.894 L 4938.19,638.64 L 4934.59,640.126 L 4720.61,640.124 L 4718.74,639.556 L 4715.49,637.388 L 4704.59,626.49 L 4702.42,623.242 L 4701.67,619.412 L 4701.86,617.458 L 4702.97,614.272 L 4703.01,573.312 L 4687.36,535.438 L 4658.42,506.442 L 4620.57,490.73 L 4579.61,490.69 L 4541.73,506.34 L 4512.45,535.572 L 4511.05,537.384 L 4509.53,538.63 L 4505.93,540.124 L 4376.84,540.124 L 4374.97,539.554 L 4371.72,537.382 L 4353.88,519.512 L 4341.18,514.236 L 4337.94,512.066 L 4335.77,508.822 L 4335.02,504.996 L 4335.21,503.046 L 4336.7,499.442 L 4339.46,496.686 L 4341.19,495.762 L 4345.02,495 L 4362.95,495 L 4377.66,488.912 L 4388.91,477.662 L 4395,462.956 L 4395,426.644 L 4388.36,420 L 4355,420 L 4355,455 L 4245,455 L 4245,420 L 4211.64,420 L 4205,426.642 L 4205,462.958 L 4211.09,477.66 L 4222.34,488.91 L 4237.04,495 L 4254.96,495 L 4258.79,495.762 L 4262.03,497.932 L 4263.27,499.448 L 4264.77,503.054 L 4264.76,506.958 L 4264.19,508.834 L 4262.02,512.078 L 4258.78,514.242 L 4246.26,519.414 L 4219.51,546.118 L 4205.02,581.024 L 4204.98,618.81 L 4219.41,653.744 L 4246.11,680.492 L 4281.02,694.984 L 4318.81,695.022 L 4353.74,680.586 L 4371.75,662.61 L 4374.99,660.446 L 4376.86,659.878 L 4518.15,659.88 L 4520.03,660.45 L 4523.27,662.622 L 4541.58,680.964 L 4579.42,696.676 L 4601.85,696.698 L 4603.8,696.89 L 4607.4,698.384 L 4650.8,741.508 L 4670.93,754.964 L 4694.67,759.686 L 4934.57,759.882 L 4938.2,761.398 L 4940.96,764.194 L 4942.43,767.838 L 4945.04,781.688 L 4953.84,795.36 L 4967.21,804.496 L 4973.72,805.816 L 4977.25,807.272 L 4979.97,809.94 L 4981.5,813.434 L 4981.74,815.334 L 4981.11,819.098 L 4979.13,822.352 L 4958.44,845.054 L 4947.53,871.388 L 4952.08,880 L 4986.4,880M 4245,380 L 4245,345 L 4355,345 L 4355,380 L 4388.36,380 L 4395,373.358 L 4395,337.05 L 4388.91,322.344 L 4377.66,311.094 L 4362.95,305 L 4345.04,305 L 4341.21,304.24 L 4337.97,302.07 L 4336.72,300.554 L 4335.23,296.948 L 4335.04,294.996 L 4335.8,291.168 L 4337.97,287.924 L 4341.22,285.758 L 4353.74,280.588 L 4380.49,253.886 L 4394.98,218.98 L 4395.01,181.192 L 4380.58,146.258 L 4353.88,119.512 L 4318.98,105.02 L 4281.19,104.982 L 4246.26,119.418 L 4228.25,137.394 L 4225.01,139.558 L 4221.18,140.316 L 3981.85,140.124 L 3979.97,139.554 L 3976.72,137.382 L 3958.42,119.04 L 3920.57,103.328 L 3879.61,103.288 L 3841.73,118.938 L 3817.03,143.594 L 3813.79,145.758 L 3811.92,146.326 L 3560.46,146.516 L 3556.63,145.754 L 3553.38,143.584 L 3552.14,142.066 L 3550.69,139.052 L 3517.32,105.632 L 3473.71,87.524 L 3426.5,87.48 L 3382.85,105.514 L 3349.43,138.876 L 3347.89,142.082 L 3346.64,143.594 L 3343.4,145.758 L 3339.58,146.516 L 1810.46,146.516 L 1806.63,145.754 L 1803.38,143.584 L 1802.14,142.066 L 1800.69,139.052 L 1767.32,105.632 L 1723.71,87.524 L 1676.5,87.48 L 1632.85,105.514 L 1599.43,138.876 L 1581.32,182.488 L 1581.28,229.704 L 1599.31,273.352 L 1632.67,306.772 L 1676.28,324.88 L 1723.5,324.924 L 1767.15,306.89 L 1800.57,273.528 L 1802.11,270.324 L 1803.35,268.812 L 1806.59,266.646 L 1810.42,265.886 L 3339.54,265.886 L 3343.37,266.65 L 3346.61,268.82 L 3347.86,270.338 L 3349.31,273.352 L 3382.67,306.772 L 3426.28,324.88 L 3473.5,324.924 L 3517.15,306.89 L 3550.57,273.528 L 3552.11,270.324 L 3553.35,268.812 L 3556.59,266.646 L 3560.42,265.886 L 3811.76,266.08 L 3813.64,266.65 L 3816.88,268.822 L 3841.58,293.562 L 3879.42,309.274 L 3920.39,309.314 L 3958.26,293.664 L 3987.55,264.43 L 3988.95,262.62 L 3992.19,260.45 L 3994.07,259.88 L 4221.2,259.686 L 4225.03,260.45 L 4228.28,262.622 L 4246.11,280.492 L 4258.82,285.766 L 4262.06,287.936 L 4263.3,289.45 L 4264.79,293.056 L 4264.79,296.956 L 4263.29,300.56 L 4260.54,303.316 L 4258.81,304.24 L 4254.98,305 L 4237.05,305 L 4222.34,311.092 L 4211.09,322.342 L 4205,337.044 L 4205,373.36 L 4211.64,380 L 4245,380M 4543.79,227.928 L 4542.45,225.62 L 4538.39,213.096 L 4537.01,200 L 4538.39,186.904 L 4542.45,174.38 L 4543.78,172.074 L 4517.81,146.094 L 4508.98,148.752 L 4496.15,184.444 L 4498.11,225.616 L 4508.69,251.164 L 4517.81,253.908 L 4543.79,227.928M 4656.21,227.928 L 4682.19,253.91 L 4691.02,251.252 L 4703.85,215.56 L 4701.89,174.388 L 4691.3,148.84 L 4682.19,146.096 L 4656.21,172.072 L 4657.55,174.38 L 4661.61,186.904 L 4662.99,200 L 4661.61,213.096 L 4657.55,225.62 L 4656.21,227.928M 4627.88,256.162 L 4619.46,259.908 L 4606.58,262.646 L 4593.42,262.646 L 4580.54,259.908 L 4572.12,256.164 L 4546.09,282.192 L 4548.75,291.022 L 4584.44,303.854 L 4625.61,301.89 L 4651.16,291.308 L 4653.9,282.194 L 4627.88,256.162M 4627.88,143.838 L 4653.91,117.81 L 4651.25,108.982 L 4615.56,96.15 L 4574.38,98.114 L 4548.84,108.696 L 4546.09,117.808 L 4572.12,143.84 L 4580.54,140.092 L 4593.42,137.354 L 4606.58,137.354 L 4619.46,140.092 L 4627.88,143.838M 860.492,1483.45 L 864.628,1486.83 L 867.046,1490.16 L 868.72,1493.92 L 869.576,1497.94 L 869.576,1502.06 L 868.72,1506.08 L 867.046,1509.84 L 864.628,1513.17 L 860.494,1516.55 L 857.546,1525.62 L 850.96,1537.02 L 842.148,1546.81 L 831.496,1554.55 L 819.464,1559.91 L 806.584,1562.65 L 793.416,1562.65 L 780.536,1559.91 L 772.122,1556.16 L 746.09,1582.19 L 748.748,1591.02 L 784.44,1603.85 L 798.96,1603.16 L 800.956,1603.27 L 804.692,1604.64 L 806.28,1605.86 L 807.594,1607.36 L 808.582,1609.1 L 809.436,1612.99 L 809.268,1614.98 L 808.706,1616.9 L 806.508,1620.22 L 764.06,1662.67 L 752.312,1680.25 L 748.188,1700.98 L 747.994,1798.94 L 746.5,1802.54 L 745.254,1804.06 L 743.736,1805.3 L 741.736,1806.34 L 712.738,1835.28 L 711.63,1837.45 L 710.388,1838.96 L 707.144,1841.13 L 703.32,1841.89 L 557.284,1841.89 L 536.546,1846.01 L 534.082,1847.43 L 530.258,1848.19 L 315.956,1848 L 312.352,1846.51 L 310.836,1845.26 L 308.668,1842.02 L 307.908,1838.19 L 307.908,1834.01 L 304.956,1818.32 L 296.156,1804.64 L 282.79,1795.51 L 276.272,1794.19 L 272.748,1792.73 L 270.024,1790.06 L 268.498,1786.57 L 268.39,1782.76 L 269.716,1779.19 L 291.556,1754.95 L 302.466,1728.62 L 297.92,1720 L 263.596,1720 L 260.088,1729.47 L 252.924,1740.97 L 243.594,1750.78 L 232.48,1758.52 L 220.034,1763.86 L 206.77,1766.58 L 200,1766.93 L 186.528,1765.56 L 173.608,1761.5 L 161.768,1754.93 L 151.492,1746.11 L 143.202,1735.4 L 137.24,1723.24 L 136.4,1720 L 102.078,1720 L 97.532,1728.61 L 108.438,1754.95 L 129.004,1777.51 L 130.998,1780.79 L 131.486,1782.66 L 131.608,1784.58 L 130.746,1788.32 L 128.538,1791.46 L 127.026,1792.66 L 123.46,1794.08 L 118.312,1795.04 L 104.64,1803.84 L 95.504,1817.21 L 92.09,1834.07 L 92.09,1966.01 L 95.04,1981.69 L 103.84,1995.36 L 117.206,2004.5 L 134.066,2007.91 L 266.002,2007.91 L 278.428,2005.76 L 282.21,2006.54 L 285.416,2008.69 L 362.664,2085.94 L 380.246,2097.69 L 400.974,2101.81 L 456.538,2101.81 L 460.364,2102.57 L 462.094,2103.5 L 464.852,2106.26 L 477.31,2124.9 L 510.66,2147.19 L 549.998,2155.01 L 589.334,2147.19 L 622.684,2124.9 L 644.97,2091.55 L 652.992,2051.23 L 652.992,2048.78 L 644.972,2008.45 L 622.686,1975.1 L 605.816,1963.83 L 603.056,1961.07 L 602.132,1959.34 L 601.372,1955.51 L 602.132,1951.69 L 603.056,1949.96 L 604.3,1948.44 L 607.544,1946.27 L 611.372,1945.51 L 705.234,1945.71 L 707.112,1946.28 L 710.358,1948.45 L 711.6,1949.97 L 712.636,1951.97 L 741.58,1980.96 L 743.748,1982.07 L 746.504,1984.83 L 747.996,1988.43 L 748.188,1999.02 L 752.31,2019.75 L 764.058,2037.33 L 906.662,2179.94 L 908.83,2183.18 L 909.59,2187.01 L 908.828,2190.84 L 906.658,2194.08 L 903.41,2196.25 L 899.582,2197.01 L 879.608,2196.99 L 841.734,2212.64 L 812.736,2241.58 L 797.024,2279.43 L 796.986,2320.39 L 797.738,2322.71 L 797.928,2324.66 L 797.166,2328.49 L 795,2331.73 L 760.91,2365.82 L 749.162,2383.4 L 745.038,2404.13 L 744.844,2555.24 L 743.35,2558.84 L 742.104,2560.36 L 740.586,2561.6 L 738.586,2562.64 L 718.828,2582.36 L 715.566,2584.53 L 711.72,2585.28 L 709.76,2585.08 L 706.15,2583.56 L 703.4,2580.77 L 701.936,2577.13 L 701.018,2572.25 L 692.222,2558.58 L 678.854,2549.45 L 657.982,2545.27 L 654.738,2543.1 L 652.57,2539.86 L 651.81,2536.03 L 651.81,2394.69 L 647.686,2373.95 L 635.938,2356.37 L 611.324,2331.76 L 609.156,2328.51 L 608.396,2324.68 L 608.588,2322.73 L 609.27,2320.58 L 609.31,2279.61 L 593.66,2241.74 L 564.714,2212.74 L 526.872,2197.03 L 485.908,2196.99 L 448.032,2212.64 L 419.036,2241.58 L 417.926,2243.75 L 416.684,2245.27 L 413.44,2247.43 L 409.618,2248.19 L 317.908,2248.19 L 314.08,2247.43 L 310.836,2245.26 L 308.668,2242.02 L 307.908,2238.19 L 307.908,2234.01 L 304.956,2218.32 L 296.156,2204.64 L 282.79,2195.51 L 265.92,2192.09 L 134.004,2192.09 L 118.312,2195.04 L 104.64,2203.84 L 95.504,2217.21 L 92.09,2234.07 L 92.09,2366.01 L 95.04,2381.69 L 103.84,2395.36 L 117.206,2404.5 L 123.724,2405.82 L 127.248,2407.27 L 129.972,2409.94 L 131.498,2413.43 L 131.736,2415.33 L 131.114,2419.1 L 129.13,2422.35 L 108.44,2445.05 L 97.53,2471.39 L 102.076,2480 L 136.404,2480 L 139.912,2470.53 L 147.076,2459.03 L 156.406,2449.22 L 167.52,2441.48 L 179.966,2436.14 L 193.23,2433.42 L 200,2433.07 L 213.472,2434.44 L 226.392,2438.5 L 238.232,2445.07 L 248.508,2453.89 L 256.798,2464.6 L 262.76,2476.76 L 263.6,2480 L 297.918,2480 L 302.464,2471.39 L 291.558,2445.06 L 269.836,2420.95 L 268.51,2417.35 L 268.638,2413.51 L 270.202,2410.01 L 272.97,2407.35 L 276.536,2405.93 L 281.684,2404.96 L 295.356,2396.16 L 304.492,2382.79 L 307.908,2365.92 L 307.908,2361.81 L 308.668,2357.99 L 310.836,2354.74 L 312.352,2353.5 L 315.956,2352.01 L 411.532,2352.01 L 415.138,2353.5 L 416.654,2354.75 L 417.898,2356.26 L 418.93,2358.26 L 447.88,2387.26 L 485.722,2402.98 L 526.69,2403.01 L 529.006,2402.26 L 532.906,2402.26 L 534.782,2402.83 L 538.024,2405 L 546.502,2413.75 L 547.426,2415.48 L 548.188,2419.3 L 547.994,2537.98 L 546.502,2541.59 L 545.258,2543.1 L 542.014,2545.27 L 540.138,2545.84 L 522.246,2548.98 L 508.576,2557.78 L 499.444,2571.15 L 496.028,2588.01 L 496.028,2712.07 L 498.978,2727.75 L 507.774,2741.42 L 521.142,2750.56 L 538.002,2753.97 L 662.066,2753.97 L 677.75,2751.02 L 691.42,2742.23 L 700.554,2728.86 L 701.826,2722.58 L 703.328,2718.99 L 706.092,2716.24 L 707.82,2715.32 L 711.644,2714.57 L 715.466,2715.33 L 718.704,2717.5 L 738.43,2737.26 L 776.274,2752.98 L 817.238,2753.01 L 855.112,2737.36 L 884.11,2708.42 L 899.822,2670.58 L 899.862,2629.61 L 884.212,2591.74 L 855.27,2562.75 L 853.102,2561.64 L 851.586,2560.39 L 849.42,2557.15 L 848.852,2555.27 L 848.852,2426.8 L 849.42,2424.93 L 851.588,2421.68 L 868.244,2405.03 L 871.49,2402.86 L 875.322,2402.1 L 877.274,2402.29 L 879.424,2402.98 L 920.388,2403.01 L 958.262,2387.36 L 987.254,2358.42 L 988.362,2356.26 L 989.606,2354.74 L 992.85,2352.57 L 996.678,2351.81 L 1160.36,2352.01 L 1163.97,2353.5 L 1166.73,2356.26 L 1167.65,2357.99 L 1168.22,2359.86 L 1168.22,2363.77 L 1165,2372.04 L 1165,2373.36 L 1171.64,2380 L 1234.65,2380 L 1238.05,2378.62 L 1240,2378.43 L 1260,2378.43 L 1261.95,2378.62 L 1265.34,2380 L 1328.36,2380 L 1335,2373.36 L 1335,2372.05 L 1328.91,2357.34 L 1326.97,2355.13 L 1326.05,2353.39 L 1325.3,2349.53 L 1326.09,2345.68 L 1332.56,2335.87 L 1335.98,2318.99 L 1335.98,2280.94 L 1333.03,2265.24 L 1326.65,2255.34 L 1325.76,2253.61 L 1325.06,2249.79 L 1325.87,2246 L 1332.56,2235.87 L 1335.98,2218.99 L 1335.98,2180.94 L 1333.03,2165.24 L 1326.65,2155.34 L 1325.76,2153.61 L 1325.06,2149.79 L 1325.87,2146 L 1332.56,2135.87 L 1335.98,2118.99 L 1335.98,2080.94 L 1333.03,2065.24 L 1324.23,2051.57 L 1310.86,2042.44 L 1293.99,2039.02 L 1205.93,2039.02 L 1190.24,2041.97 L 1183.05,2046.6 L 1179.53,2048.01 L 1173.65,2048 L 1171.77,2047.43 L 1168.53,2045.26 L 1154.74,2031.47 L 1152.57,2028.23 L 1152,2026.35 L 1152,1790.44 L 1152.57,1788.56 L 1154.74,1785.31 L 1183.92,1756.19 L 1199.04,1719.79 L 1199.07,1680.39 L 1184.02,1643.96 L 1156.18,1616.08 L 1119.79,1600.96 L 1080.39,1600.93 L 1043.96,1615.98 L 1016.07,1643.82 L 1000.96,1680.21 L 1000.92,1719.61 L 1015.97,1756.04 L 1045.24,1785.33 L 1046.49,1786.85 L 1047.99,1790.46 L 1048.19,2049.02 L 1052.31,2069.75 L 1064.06,2087.33 L 1109.09,2132.64 L 1110.01,2134.36 L 1110.77,2138.19 L 1110.01,2142.02 L 1109.09,2143.75 L 1107.84,2145.26 L 1104.6,2147.43 L 1100.77,2148.19 L 1025.6,2148.19 L 1021.77,2147.43 L 1020.05,2146.51 L 863.374,1990.11 L 862.13,1988.59 L 860.636,1984.98 L 860.638,1981.08 L 862.134,1977.47 L 887.26,1952.12 L 902.972,1914.28 L 903.01,1873.31 L 887.36,1835.44 L 858.416,1806.44 L 856.246,1805.33 L 854.734,1804.09 L 852.568,1800.85 L 851.81,1797.02 L 851.81,1725.6 L 852.57,1721.78 L 854.738,1718.53 L 1120.04,1453.5 L 1121.77,1452.57 L 1125.6,1451.81 L 2357.61,1451.81 L 2361.44,1452.58 L 2364.69,1454.75 L 2393.81,1483.93 L 2430.21,1499.04 L 2469.61,1499.08 L 2506.04,1484.03 L 2533.92,1456.19 L 2549.04,1419.79 L 2549.07,1380.39 L 2534.02,1343.96 L 2506.18,1316.08 L 2469.79,1300.96 L 2430.39,1300.93 L 2393.96,1315.98 L 2364.67,1345.24 L 2361.42,1347.42 L 2357.58,1348.19 L 1100.99,1348.19 L 1080.25,1352.31 L 1062.67,1364.06 L 918.682,1507.78 L 915.162,1509.28 L 911.34,1509.34 L 907.772,1507.96 L 906.252,1506.78 L 904.016,1503.68 L 903.106,1499.97 L 901.886,1474.39 L 891.304,1448.84 L 882.192,1446.1 L 856.212,1472.07 L 857.546,1474.38 L 860.492,1483.45 z " style="fill-opacity:1.000000;fill:rgb(103,198,105);stroke:rgb(0,0,0);stroke-width:2"/></g>
<g fill-rule="evenodd"><path d="M 2682.37,1999.07 L 2679.53,2001.14 L 2668.25,2006.16 L 2656.17,2008.73 L 2643.83,2008.73 L 2631.75,2006.16 L 2620.47,2001.14 L 2610.49,1993.89 L 2602.22,1984.71 L 2596.05,1974.02 L 2592.24,1962.28 L 2590.95,1950 L 2592.24,1937.72 L 2596.05,1925.98 L 2602.22,1915.29 L 2610.49,1906.11 L 2620.47,1898.86 L 2631.75,1893.84 L 2643.83,1891.27 L 2656.17,1891.27 L 2668.25,1893.84 L 2679.53,1898.86 L 2689.51,1906.11 L 2697.78,1915.29 L 2703.95,1925.98 L 2707.76,1937.72 L 2709.05,1950 L 2707.76,1962.28 L 2703.95,1974.02 L 2699.11,1982.4 L 2804.89,2088.19 L 2955,2088.19 L 2955,2080 L 3045,2080 L 3045,2120 L 2955,2120 L 2955,2111.81 L 2800,2111.81 L 2797.69,2111.58 L 2795.48,2110.91 L 2793.44,2109.82 L 2791.65,2108.35 L 2682.37,1999.07 z " style="fill-opacity:1.000000;fill:rgb(115,81,255);stroke:rgb(0,0,0);stroke-width:2"/></g>
<g fill-rule="evenodd"><path d="M 2955,2288.19 L 2955,2280 L 3045,2280 L 3045,2320 L 2955,2320 L 2955,2311.81 L 2450,2311.81 L 2447.69,2311.58 L 2445.48,2310.91 L 2443.44,2309.82 L 2441.65,2308.35 L 2385.18,2251.88 L 2381.5,2254.55 L 2369.46,2259.91 L 2356.58,2262.65 L 2343.42,2262.65 L 2330.54,2259.91 L 2318.51,2254.55 L 2307.85,2246.81 L 2299.04,2237.02 L 2292.45,2225.62 L 2288.39,2213.1 L 2287.01,2200 L 2288.39,2186.9 L 2292.45,2174.38 L 2299.04,2162.98 L 2307.85,2153.19 L 2318.5,2145.45 L 2330.54,2140.09 L 2338.19,2138.47 L 2338.19,2104.9 L 2238.5,2005.2 L 2237.03,2003.41 L 2235.94,2001.37 L 2235.27,1999.16 L 2235.04,1996.85 L 2235.04,1911.54 L 2227.39,1909.91 L 2215.36,1904.55 L 2204.7,1896.81 L 2195.89,1887.02 L 2189.3,1875.62 L 2185.24,1863.1 L 2183.86,1850 L 2185.24,1836.9 L 2189.3,1824.38 L 2195.89,1812.98 L 2204.7,1803.19 L 2215.35,1795.45 L 2227.39,1790.09 L 2240.27,1787.35 L 2253.43,1787.35 L 2266.31,1790.09 L 2278.34,1795.45 L 2289,1803.19 L 2297.81,1812.98 L 2304.4,1824.38 L 2308.46,1836.9 L 2309.84,1850 L 2308.46,1863.1 L 2304.4,1875.62 L 2297.81,1887.02 L 2289,1896.81 L 2278.35,1904.55 L 2266.31,1909.91 L 2258.66,1911.53 L 2258.66,1991.96 L 2358.35,2091.65 L 2359.82,2093.44 L 2360.91,2095.48 L 2361.58,2097.7 L 2361.81,2100 L 2361.81,2138.46 L 2369.46,2140.09 L 2381.49,2145.45 L 2392.15,2153.19 L 2400.96,2162.98 L 2407.55,2174.38 L 2411.61,2186.9 L 2412.99,2200 L 2411.61,2213.1 L 2407.55,2225.62 L 2401.97,2235.27 L 2454.89,2288.19 L 2955,2288.19 z " style="fill-opacity:1.000000;fill:rgb(74,236,41);stroke:rgb(0,0,0);stroke-width:2"/></g>
<g fill-rule="evenodd"><path d="M 2955,2188.19 L 2955,2180 L 3045,2180 L 3045,2220 L 2955,2220 L 2955,2211.81 L 2650,2211.81 L 2647.69,2211.58 L 2645.48,2210.91 L 2643.44,2209.82 L 2641.65,2208.35 L 2482.37,2049.07 L 2479.53,2051.14 L 2468.25,2056.16 L 2456.17,2058.73 L 2443.83,2058.73 L 2431.75,2056.16 L 2420.47,2051.14 L 2410.49,2043.89 L 2402.22,2034.71 L 2396.05,2024.02 L 2392.24,2012.28 L 2390.95,2000 L 2392.24,1987.72 L 2396.05,1975.98 L 2402.22,1965.29 L 2410.49,1956.11 L 2420.47,1948.86 L 2431.75,1943.84 L 2443.83,1941.27 L 2456.17,1941.27 L 2468.25,1943.84 L 2479.53,1948.86 L 2489.51,1956.11 L 2497.78,1965.29 L 2503.95,1975.98 L 2507.76,1987.72 L 2509.05,2000 L 2507.76,2012.28 L 2503.95,2024.02 L 2499.11,2032.4 L 2654.89,2188.19 L 2955,2188.19 z " style="fill-opacity:1.000000;fill:rgb(205,186,171);stroke:rgb(0,0,0);stroke-width:2"/></g>
<g fill-rule="evenodd"><path d="M 611.81,2587.01 L 662.992,2587.01 L 662.992,2712.99 L 537.008,2712.99 L 537.008,2587.01 L 588.19,2587.01 L 588.19,2398.6 L 541.474,2351.88 L 537.794,2354.55 L 525.762,2359.91 L 512.882,2362.65 L 499.714,2362.65 L 486.834,2359.91 L 474.804,2354.55 L 464.15,2346.81 L 455.338,2337.02 L 448.752,2325.62 L 444.684,2313.1 L 444.55,2311.81 L 266.928,2311.81 L 266.928,2366.93 L 133.072,2366.93 L 133.072,2233.07 L 266.928,2233.07 L 266.928,2288.19 L 444.548,2288.19 L 444.684,2286.9 L 448.752,2274.38 L 455.338,2262.98 L 464.15,2253.19 L 474.802,2245.45 L 486.834,2240.09 L 499.714,2237.35 L 512.882,2237.35 L 525.762,2240.09 L 537.792,2245.45 L 548.446,2253.19 L 557.258,2262.98 L 563.844,2274.38 L 567.912,2286.9 L 569.29,2300 L 567.912,2313.1 L 563.844,2325.62 L 558.27,2335.27 L 608.35,2385.35 L 609.818,2387.14 L 610.91,2389.18 L 611.582,2391.4 L 611.81,2393.7 L 611.81,2587.01 z " style="fill-opacity:1.000000;fill:rgb(242,251,227);stroke:rgb(0,0,0);stroke-width:2"/></g>
<g fill-rule="evenodd"><path d="M 808.66,2588.46 L 816.314,2590.09 L 828.344,2595.45 L 838.998,2603.19 L 847.81,2612.98 L 854.396,2624.38 L 858.464,2636.9 L 859.842,2650 L 858.464,2663.1 L 854.396,2675.62 L 847.81,2687.02 L 838.998,2696.81 L 828.346,2704.55 L 816.314,2709.91 L 803.434,2712.65 L 790.266,2712.65 L 777.386,2709.91 L 765.356,2704.55 L 754.702,2696.81 L 745.89,2687.02 L 739.304,2675.62 L 735.236,2663.1 L 733.858,2650 L 735.236,2636.9 L 739.304,2624.38 L 745.89,2612.98 L 754.702,2603.19 L 765.354,2595.45 L 777.386,2590.09 L 785.04,2588.47 L 785.04,2403.15 L 785.266,2400.85 L 785.938,2398.63 L 787.028,2396.59 L 788.498,2394.8 L 848.028,2335.27 L 842.454,2325.62 L 838.386,2313.1 L 837.008,2300 L 838.386,2286.9 L 842.454,2274.38 L 849.04,2262.98 L 857.852,2253.19 L 868.504,2245.45 L 880.536,2240.09 L 893.416,2237.35 L 906.584,2237.35 L 919.464,2240.09 L 931.494,2245.45 L 942.148,2253.19 L 950.96,2262.98 L 957.546,2274.38 L 961.614,2286.9 L 961.748,2288.19 L 1205,2288.19 L 1205,2280 L 1295,2280 L 1295,2320 L 1205,2320 L 1205,2311.81 L 961.75,2311.81 L 961.614,2313.1 L 957.546,2325.62 L 950.96,2337.02 L 942.148,2346.81 L 931.496,2354.55 L 919.464,2359.91 L 906.584,2362.65 L 893.416,2362.65 L 880.536,2359.91 L 868.506,2354.55 L 864.826,2351.88 L 808.66,2408.04 L 808.66,2588.46 z " style="fill-opacity:1.000000;fill:rgb(70,124,194);stroke:rgb(0,0,0);stroke-width:2"/></g>
<g fill-rule="evenodd"><path d="M 738.252,1905.51 L 561.19,1905.51 L 556.56,1909.82 L 554.518,1910.91 L 552.302,1911.58 L 550,1911.81 L 278.51,1911.81 L 404.89,2038.19 L 488.41,2038.19 L 489.02,2034.21 L 493.446,2022.26 L 500.188,2011.44 L 508.97,2002.21 L 519.43,1994.92 L 531.144,1989.9 L 543.628,1987.33 L 550,1987.01 L 562.68,1988.3 L 574.84,1992.11 L 585.984,1998.3 L 595.656,2006.6 L 603.456,2016.68 L 609.07,2028.12 L 612.264,2040.46 L 612.91,2053.19 L 610.98,2065.79 L 606.554,2077.74 L 599.812,2088.56 L 591.03,2097.79 L 580.57,2105.08 L 568.856,2110.1 L 556.372,2112.67 L 550,2112.99 L 537.32,2111.7 L 525.16,2107.89 L 514.016,2101.7 L 504.344,2093.4 L 496.544,2083.32 L 490.93,2071.88 L 488.326,2061.81 L 400,2061.81 L 397.694,2061.58 L 395.48,2060.91 L 393.438,2059.82 L 391.648,2058.35 L 266.928,1933.63 L 266.928,1966.93 L 133.072,1966.93 L 133.072,1833.07 L 266.928,1833.07 L 266.928,1888.19 L 545.108,1888.19 L 549.734,1883.88 L 551.776,1882.79 L 553.992,1882.12 L 556.298,1881.89 L 738.25,1881.89 L 738.386,1880.61 L 742.454,1868.08 L 749.04,1856.68 L 757.852,1846.89 L 768.504,1839.15 L 780.536,1833.79 L 788.19,1832.17 L 788.19,1700 L 788.416,1697.7 L 789.088,1695.48 L 790.178,1693.44 L 791.648,1691.65 L 1091.65,1391.65 L 1093.44,1390.18 L 1095.48,1389.09 L 1097.69,1388.42 L 1100,1388.19 L 2392.19,1388.19 L 2396.05,1375.98 L 2402.22,1365.29 L 2410.49,1356.11 L 2420.47,1348.86 L 2431.75,1343.84 L 2443.83,1341.27 L 2456.17,1341.27 L 2468.25,1343.84 L 2479.53,1348.86 L 2489.51,1356.11 L 2497.78,1365.29 L 2503.95,1375.98 L 2507.76,1387.72 L 2509.05,1400 L 2507.76,1412.28 L 2503.95,1424.02 L 2497.78,1434.71 L 2489.51,1443.89 L 2479.53,1451.14 L 2468.25,1456.16 L 2456.17,1458.73 L 2443.83,1458.73 L 2431.75,1456.16 L 2420.47,1451.14 L 2410.49,1443.89 L 2402.22,1434.71 L 2396.05,1424.02 L 2392.19,1411.81 L 1104.89,1411.81 L 811.81,1704.89 L 811.81,1832.17 L 819.464,1833.79 L 831.494,1839.15 L 842.148,1846.89 L 850.96,1856.68 L 857.546,1868.08 L 861.614,1880.61 L 862.992,1893.7 L 861.614,1906.8 L 857.546,1919.32 L 850.96,1930.73 L 842.148,1940.51 L 831.496,1948.25 L 819.464,1953.61 L 811.81,1955.24 L 811.81,1995.11 L 1004.89,2188.19 L 1205,2188.19 L 1205,2180 L 1295,2180 L 1295,2220 L 1205,2220 L 1205,2211.81 L 1000,2211.81 L 997.694,2211.58 L 995.48,2210.91 L 993.438,2209.82 L 991.648,2208.35 L 791.648,2008.35 L 790.18,2006.56 L 789.088,2004.52 L 788.416,2002.31 L 788.19,2000 L 788.19,1955.24 L 780.536,1953.61 L 768.506,1948.25 L 757.852,1940.51 L 749.04,1930.73 L 742.454,1919.32 L 738.386,1906.8 L 738.252,1905.51 z " style="fill-opacity:1.000000;fill:rgb(84,248,27);stroke:rgb(0,0,0);stroke-width:2"/></g>
<g fill-rule="evenodd"><path d="M 1088.19,1757.53 L 1081.75,1756.16 L 1070.47,1751.14 L 1060.49,1743.89 L 1052.22,1734.71 L 1046.05,1724.02 L 1042.24,1712.28 L 1040.95,1700 L 1042.24,1687.72 L 1046.05,1675.98 L 1052.22,1665.29 L 1060.49,1656.11 L 1070.47,1648.86 L 1081.75,1643.84 L 1093.83,1641.27 L 1106.17,1641.27 L 1118.25,1643.84 L 1129.53,1648.86 L 1139.51,1656.11 L 1147.78,1665.29 L 1153.95,1675.98 L 1157.76,1687.72 L 1159.05,1700 L 1157.76,1712.28 L 1153.95,1724.02 L 1147.78,1734.71 L 1139.51,1743.89 L 1129.53,1751.14 L 1118.25,1756.16 L 1111.81,1757.53 L 1111.81,2045.11 L 1154.89,2088.19 L 1205,2088.19 L 1205,2080 L 1295,2080 L 1295,2120 L 1205,2120 L 1205,2111.81 L 1150,2111.81 L 1147.69,2111.58 L 1145.48,2110.91 L 1143.44,2109.82 L 1141.65,2108.35 L 1091.65,2058.35 L 1090.18,2056.56 L 1089.09,2054.52 L 1088.42,2052.31 L 1088.19,2050 L 1088.19,1757.53 z " style="fill-opacity:1.000000;fill:rgb(232,231,141);stroke:rgb(0,0,0);stroke-width:2"/></g>
<g fill-rule="evenodd"><path d="M 1761.81,2588.21 L 1774.84,2592.11 L 1785.98,2598.3 L 1795.66,2606.6 L 1803.46,2616.68 L 1809.07,2628.12 L 1812.26,2640.46 L 1812.91,2653.19 L 1810.98,2665.79 L 1806.55,2677.74 L 1799.81,2688.56 L 1791.03,2697.79 L 1780.57,2705.08 L 1768.86,2710.1 L 1756.37,2712.67 L 1750,2712.99 L 1737.32,2711.7 L 1725.16,2707.89 L 1714.02,2701.7 L 1704.34,2693.4 L 1696.54,2683.32 L 1690.93,2671.88 L 1687.74,2659.54 L 1687.09,2646.81 L 1689.02,2634.21 L 1693.45,2622.26 L 1700.19,2611.44 L 1708.97,2602.21 L 1719.43,2594.92 L 1731.14,2589.9 L 1738.19,2588.45 L 1738.19,2420 L 1705,2420 L 1705,2380 L 1795,2380 L 1795,2420 L 1761.81,2420 L 1761.81,2588.21 z " style="fill-opacity:1.000000;fill:rgb(118,90,46);stroke:rgb(0,0,0);stroke-width:2"/></g>
<g fill-rule="evenodd"><path d="M 2488.25,2638.19 L 2488.39,2636.9 L 2492.45,2624.38 L 2499.04,2612.98 L 2507.85,2603.19 L 2518.5,2595.45 L 2530.54,2590.09 L 2543.42,2587.35 L 2556.58,2587.35 L 2569.46,2590.09 L 2581.49,2595.45 L 2592.15,2603.19 L 2600.96,2612.98 L 2607.55,2624.38 L 2611.61,2636.9 L 2612.99,2650 L 2611.61,2663.1 L 2607.55,2675.62 L 2600.96,2687.02 L 2592.15,2696.81 L 2581.5,2704.55 L 2569.46,2709.91 L 2556.58,2712.65 L 2543.42,2712.65 L 2530.54,2709.91 L 2518.51,2704.55 L 2507.85,2696.81 L 2499.04,2687.02 L 2492.45,2675.62 L 2488.39,2663.1 L 2488.25,2661.81 L 2250,2661.81 L 2247.69,2661.58 L 2245.48,2660.91 L 2243.44,2659.82 L 2241.65,2658.35 L 2141.65,2558.35 L 2140.18,2556.56 L 2139.09,2554.52 L 2138.42,2552.31 L 2138.19,2550 L 2138.19,2304.89 L 2045.11,2211.81 L 2018.05,2211.81 L 2017.91,2213.1 L 2013.84,2225.62 L 2007.26,2237.02 L 1998.45,2246.81 L 1987.79,2254.55 L 1975.76,2259.91 L 1962.88,2262.65 L 1949.71,2262.65 L 1936.83,2259.91 L 1924.8,2254.55 L 1914.15,2246.81 L 1905.34,2237.02 L 1898.75,2225.62 L 1894.68,2213.1 L 1894.55,2211.81 L 1795,2211.81 L 1795,2220 L 1705,2220 L 1705,2180 L 1795,2180 L 1795,2188.19 L 1894.55,2188.19 L 1894.68,2186.9 L 1898.75,2174.38 L 1905.34,2162.98 L 1914.15,2153.19 L 1924.8,2145.45 L 1936.83,2140.09 L 1944.49,2138.47 L 1944.49,2093.7 L 1944.71,2091.4 L 1945.39,2089.18 L 1946.48,2087.14 L 1947.95,2085.35 L 2038.19,1995.11 L 2038.19,1912.99 L 1987.01,1912.99 L 1987.01,1787.01 L 2112.99,1787.01 L 2112.99,1912.99 L 2061.81,1912.99 L 2061.81,2000 L 2061.58,2002.31 L 2060.91,2004.52 L 2059.82,2006.56 L 2058.35,2008.35 L 1968.11,2098.59 L 1968.11,2138.46 L 1975.76,2140.09 L 1987.79,2145.45 L 1998.45,2153.19 L 2007.26,2162.98 L 2013.84,2174.38 L 2017.91,2186.9 L 2018.05,2188.19 L 2050,2188.19 L 2052.3,2188.42 L 2054.52,2189.09 L 2056.56,2190.18 L 2058.35,2191.65 L 2158.35,2291.65 L 2159.82,2293.44 L 2160.91,2295.48 L 2161.58,2297.7 L 2161.81,2300 L 2161.81,2545.11 L 2254.89,2638.19 L 2488.25,2638.19 z " style="fill-opacity:1.000000;fill:rgb(99,51,159);stroke:rgb(0,0,0);stroke-width:2"/></g>
<g fill-rule="evenodd"><path d="M 1354.28,912.422 L 1357.55,918.082 L 1361.61,930.606 L 1362.99,943.702 L 1361.61,956.798 L 1357.55,969.322 L 1350.96,980.726 L 1342.15,990.514 L 1331.5,998.254 L 1319.46,1003.61 L 1306.58,1006.35 L 1293.42,1006.35 L 1280.54,1003.61 L 1268.51,998.254 L 1257.85,990.514 L 1249.04,980.726 L 1242.45,969.322 L 1240.01,961.81 L 1111.59,961.81 L 1110.98,965.788 L 1106.55,977.74 L 1099.81,988.556 L 1091.03,997.794 L 1080.57,1005.08 L 1068.86,1010.1 L 1056.37,1012.67 L 1050,1012.99 L 1037.32,1011.7 L 1025.16,1007.89 L 1014.02,1001.7 L 1004.34,993.398 L 996.544,983.32 L 990.93,971.876 L 987.736,959.538 L 987.09,946.81 L 989.02,934.212 L 993.446,922.26 L 1000.19,911.444 L 1008.97,902.206 L 1019.43,894.924 L 1031.14,889.898 L 1038.19,888.45 L 1038.19,804.896 L 945.108,711.812 L 265.552,711.812 L 264.79,716.776 L 260.088,729.476 L 252.924,740.968 L 243.594,750.784 L 232.48,758.52 L 220.034,763.86 L 206.77,766.586 L 200,766.93 L 186.528,765.558 L 173.608,761.506 L 161.768,754.934 L 151.492,746.112 L 143.202,735.404 L 137.24,723.246 L 133.844,710.136 L 133.158,696.614 L 135.21,683.228 L 139.912,670.528 L 147.076,659.036 L 156.406,649.22 L 167.52,641.484 L 179.966,636.144 L 193.23,633.418 L 200,633.074 L 213.472,634.446 L 226.392,638.498 L 238.232,645.07 L 248.508,653.892 L 256.798,664.6 L 262.76,676.758 L 265.72,688.192 L 950,688.192 L 952.304,688.42 L 954.518,689.092 L 956.56,690.184 L 958.35,691.652 L 1058.35,791.65 L 1059.82,793.44 L 1060.91,795.482 L 1061.58,797.696 L 1061.81,800 L 1061.81,888.208 L 1074.84,892.114 L 1085.98,898.3 L 1095.66,906.602 L 1103.46,916.68 L 1109.07,928.124 L 1111.67,938.19 L 1237.59,938.19 L 1238.39,930.606 L 1242.45,918.082 L 1249.04,906.678 L 1257.85,896.89 L 1268.5,889.15 L 1280.54,883.794 L 1293.42,881.056 L 1306.58,881.056 L 1319.46,883.794 L 1331.49,889.15 L 1338.82,894.474 L 1391.65,841.65 L 1393.44,840.182 L 1395.48,839.09 L 1397.69,838.418 L 1400,838.19 L 2592.19,838.19 L 2596.05,825.982 L 2602.22,815.29 L 2610.49,806.114 L 2620.47,798.858 L 2631.75,793.836 L 2643.83,791.27 L 2656.17,791.27 L 2668.25,793.836 L 2679.53,798.858 L 2689.51,806.114 L 2697.78,815.29 L 2703.95,825.982 L 2707.76,837.722 L 2709.05,850 L 2707.76,862.278 L 2703.95,874.018 L 2697.78,884.71 L 2689.51,893.886 L 2679.53,901.142 L 2668.25,906.164 L 2656.17,908.73 L 2643.83,908.73 L 2631.75,906.164 L 2620.47,901.142 L 2610.49,893.886 L 2602.22,884.71 L 2596.05,874.018 L 2592.19,861.81 L 1404.89,861.81 L 1354.28,912.422 z " style="fill-opacity:1.000000;fill:rgb(201,154,102);stroke:rgb(0,0,0);stroke-width:2"/></g>
<g fill-rule="evenodd"><path d="M 488.326,961.81 L 400,961.81 L 397.694,961.584 L 395.48,960.912 L 393.438,959.82 L 391.648,958.352 L 345.106,911.81 L 266.928,911.81 L 266.928,966.928 L 133.072,966.928 L 133.072,833.072 L 266.928,833.072 L 266.928,888.19 L 350,888.19 L 352.304,888.418 L 354.518,889.09 L 356.56,890.182 L 358.35,891.65 L 404.89,938.19 L 488.41,938.19 L 489.02,934.212 L 493.446,922.26 L 500.188,911.444 L 508.97,902.206 L 519.43,894.924 L 531.144,889.898 L 543.628,887.332 L 550,887.008 L 562.68,888.298 L 574.84,892.114 L 585.984,898.3 L 595.656,906.602 L 603.456,916.68 L 609.07,928.124 L 611.674,938.19 L 737.586,938.19 L 738.386,930.606 L 742.454,918.082 L 749.04,906.678 L 757.852,896.89 L 768.504,889.15 L 780.536,883.794 L 793.416,881.056 L 806.584,881.056 L 819.464,883.794 L 831.494,889.15 L 842.148,896.89 L 850.96,906.678 L 857.546,918.082 L 861.614,930.606 L 862.992,943.702 L 862.746,946.046 L 1067.63,1150.93 L 1070.47,1148.86 L 1081.75,1143.84 L 1093.83,1141.27 L 1106.17,1141.27 L 1118.25,1143.84 L 1129.53,1148.86 L 1139.51,1156.11 L 1147.78,1165.29 L 1153.95,1175.98 L 1157.76,1187.72 L 1159.05,1200 L 1157.76,1212.28 L 1153.95,1224.02 L 1147.78,1234.71 L 1139.51,1243.89 L 1129.53,1251.14 L 1118.25,1256.16 L 1106.17,1258.73 L 1093.83,1258.73 L 1081.75,1256.16 L 1070.47,1251.14 L 1060.49,1243.89 L 1052.22,1234.71 L 1046.05,1224.02 L 1042.24,1212.28 L 1040.95,1200 L 1042.24,1187.72 L 1046.05,1175.98 L 1050.89,1167.6 L 855.742,972.444 L 850.96,980.726 L 842.148,990.514 L 831.496,998.254 L 819.464,1003.61 L 806.584,1006.35 L 793.416,1006.35 L 780.536,1003.61 L 768.506,998.254 L 757.852,990.514 L 749.04,980.726 L 742.454,969.322 L 740.014,961.81 L 611.59,961.81 L 610.98,965.788 L 606.554,977.74 L 599.812,988.556 L 591.03,997.794 L 580.57,1005.08 L 568.856,1010.1 L 556.372,1012.67 L 550,1012.99 L 537.32,1011.7 L 525.16,1007.89 L 514.016,1001.7 L 504.344,993.398 L 496.544,983.32 L 490.93,971.876 L 488.326,961.81 z " style="fill-opacity:1.000000;fill:rgb(50,13,183);stroke:rgb(0,0,0);stroke-width:2"/></g>
<g fill-rule="evenodd"><path d="M 4161.75,2188.19 L 4983.07,2188.19 L 4983.07,2133.07 L 5116.93,2133.07 L 5116.93,2266.93 L 4983.07,2266.93 L 4983.07,2211.81 L 4161.75,2211.81 L 4161.61,2213.1 L 4157.55,2225.62 L 4150.96,2237.02 L 4142.15,2246.81 L 4131.5,2254.55 L 4119.46,2259.91 L 4106.58,2262.65 L 4093.42,2262.65 L 4080.54,2259.91 L 4068.51,2254.55 L 4057.85,2246.81 L 4049.04,2237.02 L 4042.45,2225.62 L 4038.39,2213.1 L 4037.01,2200 L 4038.39,2186.9 L 4042.45,2174.38 L 4049.04,2162.98 L 4057.85,2153.19 L 4068.5,2145.45 L 4080.54,2140.09 L 4088.19,2138.47 L 4088.19,2104.9 L 3988.5,2005.2 L 3987.03,2003.41 L 3985.94,2001.37 L 3985.27,1999.16 L 3985.04,1996.85 L 3985.04,1911.54 L 3977.39,1909.91 L 3965.36,1904.55 L 3954.7,1896.81 L 3945.89,1887.02 L 3939.3,1875.62 L 3935.24,1863.1 L 3933.86,1850 L 3935.24,1836.9 L 3939.3,1824.38 L 3945.89,1812.98 L 3954.7,1803.19 L 3965.35,1795.45 L 3977.39,1790.09 L 3990.27,1787.35 L 4003.43,1787.35 L 4016.31,1790.09 L 4028.34,1795.45 L 4039,1803.19 L 4047.81,1812.98 L 4054.4,1824.38 L 4058.46,1836.9 L 4059.84,1850 L 4058.46,1863.1 L 4054.4,1875.62 L 4047.81,1887.02 L 4039,1896.81 L 4028.35,1904.55 L 4016.31,1909.91 L 4008.66,1911.53 L 4008.66,1991.96 L 4108.35,2091.65 L 4109.82,2093.44 L 4110.91,2095.48 L 4111.58,2097.7 L 4111.81,2100 L 4111.81,2138.46 L 4119.46,2140.09 L 4131.49,2145.45 L 4142.15,2153.19 L 4150.96,2162.98 L 4157.55,2174.38 L 4161.61,2186.9 L 4161.75,2188.19 z " style="fill-opacity:1.000000;fill:rgb(49,88,163);stroke:rgb(0,0,0);stroke-width:2"/></g>
<g fill-rule="evenodd"><path d="M 4238.25,2638.19 L 4238.39,2636.9 L 4242.45,2624.38 L 4249.04,2612.98 L 4257.85,2603.19 L 4268.5,2595.45 L 4280.54,2590.09 L 4293.42,2587.35 L 4306.58,2587.35 L 4319.46,2590.09 L 4331.49,2595.45 L 4342.15,2603.19 L 4350.96,2612.98 L 4357.55,2624.38 L 4361.61,2636.9 L 4362.99,2650 L 4361.61,2663.1 L 4357.55,2675.62 L 4350.96,2687.02 L 4342.15,2696.81 L 4331.5,2704.55 L 4319.46,2709.91 L 4306.58,2712.65 L 4293.42,2712.65 L 4280.54,2709.91 L 4268.51,2704.55 L 4257.85,2696.81 L 4249.04,2687.02 L 4242.45,2675.62 L 4238.39,2663.1 L 4238.25,2661.81 L 4000,2661.81 L 3997.69,2661.58 L 3995.48,2660.91 L 3993.44,2659.82 L 3991.65,2658.35 L 3891.65,2558.35 L 3890.18,2556.56 L 3889.09,2554.52 L 3888.42,2552.31 L 3888.19,2550 L 3888.19,2304.89 L 3795.11,2211.81 L 3768.05,2211.81 L 3767.91,2213.1 L 3763.84,2225.62 L 3757.26,2237.02 L 3748.45,2246.81 L 3737.79,2254.55 L 3725.76,2259.91 L 3712.88,2262.65 L 3699.71,2262.65 L 3686.83,2259.91 L 3674.8,2254.55 L 3664.15,2246.81 L 3655.34,2237.02 L 3648.75,2225.62 L 3644.68,2213.1 L 3644.55,2211.81 L 3545,2211.81 L 3545,2220 L 3455,2220 L 3455,2180 L 3545,2180 L 3545,2188.19 L 3644.55,2188.19 L 3644.68,2186.9 L 3648.75,2174.38 L 3655.34,2162.98 L 3664.15,2153.19 L 3674.8,2145.45 L 3686.83,2140.09 L 3694.49,2138.47 L 3694.49,2093.7 L 3694.71,2091.4 L 3695.39,2089.18 L 3696.48,2087.14 L 3697.95,2085.35 L 3788.19,1995.11 L 3788.19,1912.99 L 3737.01,1912.99 L 3737.01,1787.01 L 3862.99,1787.01 L 3862.99,1912.99 L 3811.81,1912.99 L 3811.81,2000 L 3811.58,2002.31 L 3810.91,2004.52 L 3809.82,2006.56 L 3808.35,2008.35 L 3718.11,2098.59 L 3718.11,2138.46 L 3725.76,2140.09 L 3737.79,2145.45 L 3748.45,2153.19 L 3757.26,2162.98 L 3763.84,2174.38 L 3767.91,2186.9 L 3768.05,2188.19 L 3800,2188.19 L 3802.3,2188.42 L 3804.52,2189.09 L 3806.56,2190.18 L 3808.35,2191.65 L 3908.35,2291.65 L 3909.82,2293.44 L 3910.91,2295.48 L 3911.58,2297.7 L 3911.81,2300 L 3911.81,2545.11 L 4004.89,2638.19 L 4238.25,2638.19 z " style="fill-opacity:1.000000;fill:rgb(90,37,93);stroke:rgb(0,0,0);stroke-width:2"/></g>
<g fill-rule="evenodd"><path d="M 3511.81,2588.21 L 3524.84,2592.11 L 3535.98,2598.3 L 3545.66,2606.6 L 3553.46,2616.68 L 3559.07,2628.12 L 3562.26,2640.46 L 3562.91,2653.19 L 3560.98,2665.79 L 3556.55,2677.74 L 3549.81,2688.56 L 3541.03,2697.79 L 3530.57,2705.08 L 3518.86,2710.1 L 3506.37,2712.67 L 3500,2712.99 L 3487.32,2711.7 L 3475.16,2707.89 L 3464.02,2701.7 L 3454.34,2693.4 L 3446.54,2683.32 L 3440.93,2671.88 L 3437.74,2659.54 L 3437.09,2646.81 L 3439.02,2634.21 L 3443.45,2622.26 L 3450.19,2611.44 L 3458.97,2602.21 L 3469.43,2594.92 L 3481.14,2589.9 L 3488.19,2588.45 L 3488.19,2420 L 3455,2420 L 3455,2380 L 3545,2380 L 3545,2420 L 3511.81,2420 L 3511.81,2588.21 z " style="fill-opacity:1.000000;fill:rgb(5,23,88);stroke:rgb(0,0,0);stroke-width:2"/></g>
<g fill-rule="evenodd"><path d="M 1775.9,225.884 L 1771.9,238.21 L 1763.67,252.458 L 1752.66,264.684 L 1739.35,274.356 L 1724.32,281.048 L 1708.23,284.468 L 1691.77,284.468 L 1675.68,281.048 L 1660.65,274.356 L 1647.34,264.684 L 1636.33,252.458 L 1628.1,238.21 L 1623.02,222.562 L 1621.3,206.2 L 1623.02,189.838 L 1628.1,174.19 L 1636.33,159.942 L 1647.34,147.716 L 1660.65,138.044 L 1675.68,131.352 L 1691.77,127.932 L 1708.23,127.932 L 1724.32,131.352 L 1739.35,138.044 L 1752.66,147.716 L 1763.67,159.942 L 1771.9,174.19 L 1775.9,186.516 L 3374.1,186.516 L 3378.1,174.19 L 3386.33,159.942 L 3397.34,147.716 L 3410.65,138.044 L 3425.68,131.352 L 3441.77,127.932 L 3458.23,127.932 L 3474.32,131.352 L 3489.35,138.044 L 3502.66,147.716 L 3513.67,159.942 L 3521.9,174.19 L 3525.9,186.516 L 3840.56,186.516 L 3842.45,180.68 L 3849.04,169.276 L 3857.85,159.488 L 3868.5,151.748 L 3880.54,146.392 L 3893.42,143.654 L 3906.58,143.654 L 3919.46,146.392 L 3931.49,151.748 L 3942.15,159.488 L 3950.96,169.276 L 3957.33,180.316 L 4248.88,180.316 L 4249.76,177.63 L 4255.51,167.672 L 4263.2,159.128 L 4272.5,152.37 L 4283.01,147.692 L 4294.25,145.302 L 4305.75,145.302 L 4316.99,147.692 L 4327.5,152.37 L 4336.8,159.128 L 4344.49,167.672 L 4350.24,177.63 L 4353.8,188.566 L 4355,200 L 4353.8,211.434 L 4350.24,222.37 L 4344.49,232.328 L 4336.8,240.872 L 4327.5,247.63 L 4316.99,252.308 L 4305.75,254.698 L 4294.25,254.698 L 4283.01,252.308 L 4272.5,247.63 L 4263.2,240.872 L 4255.51,232.328 L 4249.76,222.37 L 4248.88,219.684 L 3961.52,219.684 L 3957.55,231.92 L 3950.96,243.324 L 3942.15,253.112 L 3931.5,260.852 L 3919.46,266.208 L 3906.58,268.946 L 3893.42,268.946 L 3880.54,266.208 L 3868.51,260.852 L 3857.85,253.112 L 3849.04,243.324 L 3842.45,231.92 L 3840.49,225.884 L 3525.9,225.884 L 3521.9,238.21 L 3513.67,252.458 L 3502.66,264.684 L 3489.35,274.356 L 3474.32,281.048 L 3458.23,284.468 L 3441.77,284.468 L 3425.68,281.048 L 3410.65,274.356 L 3397.34,264.684 L 3386.33,252.458 L 3378.1,238.21 L 3374.1,225.884 L 1775.9,225.884 z " style="fill-opacity:1.000000;fill:rgb(233,94,212);stroke:rgb(0,0,0);stroke-width:2"/></g>
<g fill-rule="evenodd"><path d="M 1936.61,2459.81 L 1924.8,2454.55 L 1914.15,2446.81 L 1905.34,2437.02 L 1898.75,2425.62 L 1894.68,2413.1 L 1893.31,2400 L 1894.68,2386.9 L 1898.75,2374.38 L 1900.25,2371.79 L 1848.14,2319.68 L 1705,2320 L 1705,2280 L 1856.3,2280.32 L 1860.14,2280.7 L 1863.83,2281.82 L 1867.23,2283.63 L 1870.22,2286.08 L 1928.11,2343.98 L 1936.83,2340.09 L 1949.71,2337.35 L 1962.88,2337.35 L 1975.76,2340.09 L 1987.79,2345.45 L 1998.45,2353.19 L 2007.26,2362.98 L 2013.84,2374.38 L 2017.91,2386.9 L 2019.29,2400 L 2017.91,2413.1 L 2013.84,2425.62 L 2007.26,2437.02 L 1998.45,2446.81 L 1987.79,2454.55 L 1975.98,2459.81 L 1975.98,2743.7 L 1975.6,2747.54 L 1974.48,2751.24 L 1972.66,2754.64 L 1970.22,2757.62 L 1821.41,2906.42 L 1828.1,2917.99 L 1833.18,2933.64 L 1834.9,2950 L 1833.18,2966.36 L 1828.1,2982.01 L 1819.87,2996.26 L 1808.86,3008.48 L 1795.55,3018.16 L 1780.52,3024.85 L 1764.43,3028.27 L 1747.97,3028.27 L 1731.88,3024.85 L 1716.85,3018.16 L 1703.54,3008.48 L 1692.53,2996.26 L 1684.3,2982.01 L 1679.22,2966.36 L 1677.5,2950 L 1679.22,2933.64 L 1684.3,2917.99 L 1692.53,2903.74 L 1703.54,2891.52 L 1716.85,2881.84 L 1731.88,2875.15 L 1747.97,2871.73 L 1764.43,2871.73 L 1780.52,2875.15 L 1791.93,2880.23 L 1936.61,2735.55 L 1936.61,2459.81 z " style="fill-opacity:1.000000;fill:rgb(171,178,205);stroke:rgb(0,0,0);stroke-width:2"/></g>
<g fill-rule="evenodd"><path d="M 2536.52,3025.83 L 2531.88,3024.85 L 2516.85,3018.16 L 2503.54,3008.48 L 2492.53,2996.26 L 2484.3,2982.01 L 2479.22,2966.36 L 2477.5,2950 L 2479.22,2933.64 L 2484.3,2917.99 L 2492.53,2903.74 L 2503.54,2891.52 L 2516.85,2881.84 L 2531.88,2875.15 L 2547.97,2871.73 L 2564.43,2871.73 L 2580.52,2875.15 L 2595.55,2881.84 L 2608.86,2891.52 L 2619.87,2903.74 L 2628.1,2917.99 L 2633.18,2933.64 L 2634.9,2950 L 2633.18,2966.36 L 2628.1,2982.01 L 2619.87,2996.26 L 2608.86,3008.48 L 2595.55,3018.16 L 2580.52,3024.85 L 2575.88,3025.83 L 2575.88,3048.05 L 2658.15,3130.32 L 4241.85,3130.32 L 4286.52,3085.65 L 4286.52,3025.83 L 4281.88,3024.85 L 4266.85,3018.16 L 4253.54,3008.48 L 4242.53,2996.26 L 4234.3,2982.01 L 4229.22,2966.36 L 4227.5,2950 L 4229.22,2933.64 L 4234.3,2917.99 L 4242.53,2903.74 L 4253.54,2891.52 L 4266.85,2881.84 L 4281.88,2875.15 L 4297.97,2871.73 L 4314.43,2871.73 L 4330.52,2875.15 L 4345.55,2881.84 L 4358.86,2891.52 L 4369.87,2903.74 L 4378.1,2917.99 L 4382.1,2930.32 L 5091.85,2930.32 L 5330.32,2691.85 L 5330.32,1708.16 L 5241.84,1619.68 L 4400,1619.68 L 4396.16,1619.31 L 4392.47,1618.19 L 4389.06,1616.37 L 4386.08,1613.92 L 4222.17,1450 L 4216.99,1452.31 L 4205.75,1454.7 L 4194.25,1454.7 L 4183.01,1452.31 L 4172.5,1447.63 L 4163.2,1440.87 L 4155.51,1432.33 L 4149.76,1422.37 L 4148.88,1419.68 L 3959.48,1419.68 L 3957.55,1425.62 L 3950.96,1437.02 L 3942.15,1446.81 L 3931.5,1454.55 L 3919.46,1459.91 L 3906.58,1462.65 L 3893.42,1462.65 L 3880.54,1459.91 L 3868.51,1454.55 L 3857.85,1446.81 L 3849.04,1437.02 L 3842.45,1425.62 L 3838.39,1413.1 L 3837.01,1400 L 3838.39,1386.9 L 3842.45,1374.38 L 3849.04,1362.98 L 3857.85,1353.19 L 3868.5,1345.45 L 3880.54,1340.09 L 3893.42,1337.35 L 3906.58,1337.35 L 3919.46,1340.09 L 3931.49,1345.45 L 3942.15,1353.19 L 3950.96,1362.98 L 3957.55,1374.38 L 3959.47,1380.32 L 4148.88,1380.32 L 4149.76,1377.63 L 4155.51,1367.67 L 4163.2,1359.13 L 4172.5,1352.37 L 4183.01,1347.69 L 4194.25,1345.3 L 4205.75,1345.3 L 4216.99,1347.69 L 4227.5,1352.37 L 4236.8,1359.13 L 4244.49,1367.67 L 4250.24,1377.63 L 4253.8,1388.57 L 4255,1400 L 4253.8,1411.43 L 4250.23,1422.39 L 4408.15,1580.32 L 5250,1580.32 L 5253.84,1580.7 L 5257.53,1581.82 L 5260.93,1583.63 L 5263.92,1586.08 L 5363.92,1686.08 L 5366.37,1689.07 L 5368.18,1692.47 L 5369.3,1696.16 L 5369.68,1700 L 5369.68,2700 L 5369.3,2703.84 L 5368.18,2707.53 L 5366.37,2710.94 L 5363.92,2713.92 L 5113.92,2963.92 L 5110.93,2966.37 L 5107.53,2968.19 L 5103.84,2969.31 L 5100,2969.68 L 4382.1,2969.68 L 4378.1,2982.01 L 4369.87,2996.26 L 4358.86,3008.48 L 4345.55,3018.16 L 4330.52,3024.85 L 4325.88,3025.83 L 4325.88,3093.8 L 4325.5,3097.64 L 4324.38,3101.33 L 4322.57,3104.74 L 4320.12,3107.72 L 4263.92,3163.92 L 4260.93,3166.37 L 4257.53,3168.19 L 4253.84,3169.31 L 4250,3169.68 L 2650,3169.68 L 2646.16,3169.31 L 2642.47,3168.19 L 2639.06,3166.37 L 2636.08,3163.92 L 2542.28,3070.12 L 2539.83,3067.14 L 2538.01,3063.73 L 2536.89,3060.04 L 2536.52,3056.2 L 2536.52,3025.83 z " style="fill-opacity:1.000000;fill:rgb(198,155,180);stroke:rgb(0,0,0);stroke-width:2"/></g>
<g fill-rule="evenodd"><path d="M 1769.68,2080 L 1795,2080 L 1795,2120 L 1705,2120 L 1705,2080 L 1730.32,2080 L 1730.32,1964.46 L 1721.89,1956.02 L 1713.16,1959.91 L 1700.28,1962.65 L 1687.12,1962.65 L 1674.24,1959.91 L 1662.21,1954.55 L 1651.55,1946.81 L 1642.74,1937.02 L 1636.15,1925.62 L 1632.09,1913.1 L 1630.71,1900 L 1632.09,1886.9 L 1636.15,1874.38 L 1642.74,1862.98 L 1651.55,1853.19 L 1662.2,1845.45 L 1674.02,1840.19 L 1674.02,1752.72 L 1670.47,1751.14 L 1660.49,1743.89 L 1652.22,1734.71 L 1646.05,1724.02 L 1642.24,1712.28 L 1640.95,1700 L 1642.24,1687.72 L 1646.05,1675.98 L 1652.22,1665.29 L 1660.49,1656.11 L 1670.47,1648.86 L 1681.75,1643.84 L 1693.83,1641.27 L 1706.17,1641.27 L 1718.25,1643.84 L 1729.53,1648.86 L 1739.51,1656.11 L 1747.78,1665.29 L 1753.95,1675.98 L 1757.76,1687.72 L 1759.05,1700 L 1757.76,1712.28 L 1753.95,1724.02 L 1747.78,1734.71 L 1739.51,1743.89 L 1729.53,1751.14 L 1718.25,1756.16 L 1713.38,1757.2 L 1713.38,1840.19 L 1725.19,1845.45 L 1735.85,1853.19 L 1744.66,1862.98 L 1751.25,1874.38 L 1755.31,1886.9 L 1756.69,1900 L 1755.31,1913.1 L 1751.25,1925.62 L 1749.75,1928.21 L 1763.92,1942.38 L 1766.37,1945.37 L 1768.18,1948.77 L 1769.3,1952.46 L 1769.68,1956.3 L 1769.68,2080 z " style="fill-opacity:1.000000;fill:rgb(84,17,14);stroke:rgb(0,0,0);stroke-width:2"/></g>
<g fill-rule="evenodd"><path d="M 1719.68,1082.03 L 1719.68,1144.47 L 1729.53,1148.86 L 1739.51,1156.11 L 1747.78,1165.29 L 1753.95,1175.98 L 1757.76,1187.72 L 1759.05,1200 L 1757.76,1212.28 L 1753.95,1224.02 L 1747.78,1234.71 L 1739.51,1243.89 L 1729.53,1251.14 L 1718.25,1256.16 L 1706.17,1258.73 L 1693.83,1258.73 L 1681.75,1256.16 L 1670.47,1251.14 L 1660.49,1243.89 L 1652.22,1234.71 L 1646.05,1224.02 L 1642.24,1212.28 L 1640.95,1200 L 1642.24,1187.72 L 1646.05,1175.98 L 1652.22,1165.29 L 1660.49,1156.11 L 1670.47,1148.86 L 1680.32,1144.48 L 1680.32,1082.03 L 1675.68,1081.05 L 1660.65,1074.36 L 1647.34,1064.68 L 1636.33,1052.46 L 1628.1,1038.21 L 1623.02,1022.56 L 1621.3,1006.2 L 1623.02,989.838 L 1628.1,974.19 L 1636.33,959.942 L 1647.34,947.716 L 1660.65,938.044 L 1675.68,931.352 L 1691.77,927.932 L 1708.23,927.932 L 1724.32,931.352 L 1739.35,938.044 L 1752.66,947.716 L 1763.67,959.942 L 1771.9,974.19 L 1776.98,989.838 L 1778.7,1006.2 L 1776.98,1022.56 L 1771.9,1038.21 L 1763.67,1052.46 L 1752.66,1064.68 L 1739.35,1074.36 L 1724.32,1081.05 L 1719.68,1082.03 z " style="fill-opacity:1.000000;fill:rgb(130,116,65);stroke:rgb(0,0,0);stroke-width:2"/></g>
<g fill-rule="evenodd"><path d="M 3686.61,2459.81 L 3674.8,2454.55 L 3664.15,2446.81 L 3655.34,2437.02 L 3648.75,2425.62 L 3644.68,2413.1 L 3643.31,2400 L 3644.68,2386.9 L 3648.75,2374.38 L 3650.25,2371.79 L 3598.14,2319.68 L 3455,2320 L 3455,2280 L 3606.3,2280.32 L 3610.14,2280.7 L 3613.83,2281.82 L 3617.23,2283.63 L 3620.22,2286.08 L 3678.11,2343.98 L 3686.83,2340.09 L 3699.71,2337.35 L 3712.88,2337.35 L 3725.76,2340.09 L 3737.79,2345.45 L 3748.45,2353.19 L 3757.26,2362.98 L 3763.84,2374.38 L 3767.91,2386.9 L 3769.29,2400 L 3767.91,2413.1 L 3763.84,2425.62 L 3757.26,2437.02 L 3748.45,2446.81 L 3737.79,2454.55 L 3725.98,2459.81 L 3725.98,2743.7 L 3725.6,2747.54 L 3724.48,2751.24 L 3722.66,2754.64 L 3720.22,2757.62 L 3571.41,2906.42 L 3578.1,2917.99 L 3583.18,2933.64 L 3584.9,2950 L 3583.18,2966.36 L 3578.1,2982.01 L 3569.87,2996.26 L 3558.86,3008.48 L 3545.55,3018.16 L 3530.52,3024.85 L 3514.43,3028.27 L 3497.97,3028.27 L 3481.88,3024.85 L 3466.85,3018.16 L 3453.54,3008.48 L 3442.53,2996.26 L 3434.3,2982.01 L 3429.22,2966.36 L 3427.5,2950 L 3429.22,2933.64 L 3434.3,2917.99 L 3442.53,2903.74 L 3453.54,2891.52 L 3466.85,2881.84 L 3481.88,2875.15 L 3497.97,2871.73 L 3514.43,2871.73 L 3530.52,2875.15 L 3541.93,2880.23 L 3686.61,2735.55 L 3686.61,2459.81 z " style="fill-opacity:1.000000;fill:rgb(33,61,220);stroke:rgb(0,0,0);stroke-width:2"/></g>
<g fill-rule="evenodd"><path d="M 3471.89,1956.02 L 3463.16,1959.91 L 3450.28,1962.65 L 3437.12,1962.65 L 3424.24,1959.91 L 3412.21,1954.55 L 3401.55,1946.81 L 3392.74,1937.02 L 3386.15,1925.62 L 3382.09,1913.1 L 3380.71,1900 L 3382.09,1886.9 L 3386.15,1874.38 L 3392.74,1862.98 L 3401.55,1853.19 L 3412.2,1845.45 L 3424.02,1840.19 L 3424.02,1752.72 L 3420.47,1751.14 L 3410.49,1743.89 L 3402.22,1734.71 L 3396.05,1724.02 L 3392.24,1712.28 L 3390.95,1700 L 3392.24,1687.72 L 3396.05,1675.98 L 3402.22,1665.29 L 3410.49,1656.11 L 3420.47,1648.86 L 3431.75,1643.84 L 3443.83,1641.27 L 3456.17,1641.27 L 3468.25,1643.84 L 3479.53,1648.86 L 3489.51,1656.11 L 3497.78,1665.29 L 3503.95,1675.98 L 3507.76,1687.72 L 3509.05,1700 L 3507.76,1712.28 L 3503.95,1724.02 L 3497.78,1734.71 L 3489.51,1743.89 L 3479.53,1751.14 L 3468.25,1756.16 L 3463.38,1757.2 L 3463.38,1840.19 L 3475.19,1845.45 L 3485.85,1853.19 L 3494.66,1862.98 L 3501.25,1874.38 L 3505.31,1886.9 L 3506.69,1900 L 3505.31,1913.1 L 3501.25,1925.62 L 3499.75,1928.21 L 3513.92,1942.38 L 3516.37,1945.37 L 3518.18,1948.77 L 3519.3,1952.46 L 3519.68,1956.3 L 3519.68,2080 L 3545,2080 L 3545,2120 L 3455,2120 L 3455,2080 L 3480.32,2080 L 3480.32,1964.46 L 3471.89,1956.02 z " style="fill-opacity:1.000000;fill:rgb(135,112,233);stroke:rgb(0,0,0);stroke-width:2"/></g>
<g fill-rule="evenodd"><path d="M 3469.68,1082.03 L 3469.68,1144.47 L 3479.53,1148.86 L 3489.51,1156.11 L 3497.78,1165.29 L 3503.95,1175.98 L 3507.76,1187.72 L 3509.05,1200 L 3507.76,1212.28 L 3503.95,1224.02 L 3497.78,1234.71 L 3489.51,1243.89 L 3479.53,1251.14 L 3468.25,1256.16 L 3456.17,1258.73 L 3443.83,1258.73 L 3431.75,1256.16 L 3420.47,1251.14 L 3410.49,1243.89 L 3402.22,1234.71 L 3396.05,1224.02 L 3392.24,1212.28 L 3390.95,1200 L 3392.24,1187.72 L 3396.05,1175.98 L 3402.22,1165.29 L 3410.49,1156.11 L 3420.47,1148.86 L 3430.32,1144.48 L 3430.32,1082.03 L 3425.68,1081.05 L 3410.65,1074.36 L 3397.34,1064.68 L 3386.33,1052.46 L 3378.1,1038.21 L 3373.02,1022.56 L 3371.3,1006.2 L 3373.02,989.838 L 3378.1,974.19 L 3386.33,959.942 L 3397.34,947.716 L 3410.65,938.044 L 3425.68,931.352 L 3441.77,927.932 L 3458.23,927.932 L 3474.32,931.352 L 3489.35,938.044 L 3502.66,947.716 L 3513.67,959.942 L 3521.9,974.19 L 3526.98,989.838 L 3528.7,1006.2 L 3526.98,1022.56 L 3521.9,1038.21 L 3513.67,1052.46 L 3502.66,1064.68 L 3489.35,1074.36 L 3474.32,1081.05 L 3469.68,1082.03 z " style="fill-opacity:1.000000;fill:rgb(62,161,65);stroke:rgb(0,0,0);stroke-width:2"/></g>
<g fill-rule="evenodd"><path d="M 4991.08,1131.08 L 4987.24,1123.24 L 4983.84,1110.13 L 4983.16,1096.61 L 4985.21,1083.23 L 4989.91,1070.53 L 4997.08,1059.03 L 5006.41,1049.22 L 5017.52,1041.48 L 5029.97,1036.14 L 5043.23,1033.42 L 5050,1033.07 L 5063.47,1034.44 L 5076.39,1038.5 L 5088.23,1045.07 L 5098.51,1053.89 L 5106.8,1064.6 L 5112.76,1076.76 L 5116.16,1089.87 L 5116.84,1103.39 L 5114.79,1116.77 L 5110.09,1129.47 L 5102.92,1140.97 L 5093.59,1150.78 L 5082.48,1158.52 L 5070.03,1163.86 L 5056.77,1166.58 L 5050,1166.93 L 5036.53,1165.56 L 5023.61,1161.5 L 5018.93,1158.91 L 4763.92,1413.92 L 4760.93,1416.37 L 4757.53,1418.19 L 4753.84,1419.31 L 4750,1419.68 L 4659.48,1419.68 L 4657.55,1425.62 L 4650.96,1437.02 L 4642.15,1446.81 L 4631.5,1454.55 L 4619.46,1459.91 L 4606.58,1462.65 L 4593.42,1462.65 L 4580.54,1459.91 L 4568.51,1454.55 L 4557.85,1446.81 L 4549.04,1437.02 L 4542.45,1425.62 L 4538.39,1413.1 L 4537.01,1400 L 4538.39,1386.9 L 4542.45,1374.38 L 4543.95,1371.79 L 4391.84,1219.68 L 4249.54,1219.68 L 4248.67,1222.37 L 4242.92,1232.33 L 4235.23,1240.87 L 4225.92,1247.63 L 4215.42,1252.31 L 4204.17,1254.7 L 4192.68,1254.7 L 4181.43,1252.31 L 4170.93,1247.63 L 4161.62,1240.87 L 4153.93,1232.33 L 4148.18,1222.37 L 4144.63,1211.43 L 4143.42,1200 L 4144.63,1188.57 L 4148.18,1177.63 L 4153.93,1167.67 L 4161.62,1159.13 L 4170.92,1152.37 L 4181.43,1147.69 L 4192.68,1145.3 L 4204.17,1145.3 L 4215.42,1147.69 L 4225.92,1152.37 L 4235.23,1159.13 L 4242.92,1167.67 L 4248.67,1177.63 L 4249.54,1180.32 L 4400,1180.32 L 4403.84,1180.7 L 4407.53,1181.82 L 4410.93,1183.63 L 4413.92,1186.08 L 4571.81,1343.98 L 4580.54,1340.09 L 4593.42,1337.35 L 4606.58,1337.35 L 4619.46,1340.09 L 4631.49,1345.45 L 4642.15,1353.19 L 4650.96,1362.98 L 4657.55,1374.38 L 4659.47,1380.32 L 4741.85,1380.32 L 4991.08,1131.08 z " style="fill-opacity:1.000000;fill:rgb(225,252,103);stroke:rgb(0,0,0);stroke-width:2"/></g>
<g fill-rule="evenodd"><path d="M 4983.07,680.318 L 4983.07,633.074 L 5116.93,633.074 L 5116.93,766.93 L 4983.07,766.93 L 4983.07,719.686 L 4693.7,719.686 L 4689.86,719.308 L 4686.17,718.188 L 4682.76,716.37 L 4679.78,713.922 L 4619.47,653.608 L 4606.58,656.348 L 4593.42,656.348 L 4580.54,653.61 L 4568.51,648.254 L 4557.85,640.514 L 4549.04,630.726 L 4542.66,619.684 L 4351.12,619.684 L 4350.24,622.37 L 4344.49,632.328 L 4336.8,640.872 L 4327.5,647.63 L 4316.99,652.308 L 4305.75,654.698 L 4294.25,654.698 L 4283.01,652.308 L 4272.5,647.63 L 4263.2,640.872 L 4255.51,632.328 L 4249.76,622.37 L 4246.2,611.434 L 4245,600 L 4246.2,588.566 L 4249.76,577.63 L 4255.51,567.672 L 4263.2,559.128 L 4272.5,552.37 L 4283.01,547.692 L 4294.25,545.302 L 4305.75,545.302 L 4316.99,547.692 L 4327.5,552.37 L 4336.8,559.128 L 4344.49,567.672 L 4350.24,577.63 L 4351.12,580.316 L 4538.48,580.316 L 4542.45,568.082 L 4549.04,556.678 L 4557.85,546.89 L 4568.5,539.15 L 4580.54,533.794 L 4593.42,531.056 L 4606.58,531.056 L 4619.46,533.794 L 4631.49,539.15 L 4642.15,546.89 L 4650.96,556.678 L 4657.55,568.082 L 4661.61,580.606 L 4662.99,593.702 L 4661.61,606.798 L 4657.55,619.322 L 4651.44,629.9 L 4701.85,680.318 L 4983.07,680.318 z " style="fill-opacity:1.000000;fill:rgb(62,1,126);stroke:rgb(0,0,0);stroke-width:2"/></g>
</svg>
