G04 #@! TF.FileFunction,Legend,Top*
%FSLAX46Y46*%
G04 Gerber Fmt 4.6, Leading zero omitted, Abs format (unit mm)*
G04 Created by KiCad (PCBNEW 4.0.6-e0-6349~53~ubuntu16.04.1) date Thu Apr 27 14:53:58 2017*
%MOMM*%
%LPD*%
G01*
G04 APERTURE LIST*
%ADD10C,0.100000*%
%ADD11C,0.150000*%
G04 APERTURE END LIST*
D10*
D11*
X54356000Y34925000D02*
X54356000Y29845000D01*
X54356000Y29845000D02*
X49784000Y29845000D01*
X49784000Y29845000D02*
X49784000Y34925000D01*
X49784000Y34925000D02*
X54356000Y34925000D01*
X52832000Y34925000D02*
X52832000Y34417000D01*
X52832000Y34417000D02*
X51562000Y34417000D01*
X51562000Y34417000D02*
X51562000Y34925000D01*
X32131000Y34925000D02*
X32131000Y29845000D01*
X32131000Y29845000D02*
X27559000Y29845000D01*
X27559000Y29845000D02*
X27559000Y34925000D01*
X27559000Y34925000D02*
X32131000Y34925000D01*
X30607000Y34925000D02*
X30607000Y34417000D01*
X30607000Y34417000D02*
X29337000Y34417000D01*
X29337000Y34417000D02*
X29337000Y34925000D01*
X52792381Y31623095D02*
X53601905Y31623095D01*
X53697143Y31670714D01*
X53744762Y31718333D01*
X53792381Y31813571D01*
X53792381Y32004048D01*
X53744762Y32099286D01*
X53697143Y32146905D01*
X53601905Y32194524D01*
X52792381Y32194524D01*
X53125714Y33099286D02*
X53792381Y33099286D01*
X52744762Y32861190D02*
X53459048Y32623095D01*
X53459048Y33242143D01*
X30567381Y31623095D02*
X31376905Y31623095D01*
X31472143Y31670714D01*
X31519762Y31718333D01*
X31567381Y31813571D01*
X31567381Y32004048D01*
X31519762Y32099286D01*
X31472143Y32146905D01*
X31376905Y32194524D01*
X30567381Y32194524D01*
X30567381Y32575476D02*
X30567381Y33194524D01*
X30948333Y32861190D01*
X30948333Y33004048D01*
X30995952Y33099286D01*
X31043571Y33146905D01*
X31138810Y33194524D01*
X31376905Y33194524D01*
X31472143Y33146905D01*
X31519762Y33099286D01*
X31567381Y33004048D01*
X31567381Y32718333D01*
X31519762Y32623095D01*
X31472143Y32575476D01*
M02*
