G04 #@! TF.FileFunction,Copper,L2,Bot,Signal*
%FSLAX46Y46*%
G04 Gerber Fmt 4.6, Leading zero omitted, Abs format (unit mm)*
G04 Created by KiCad (PCBNEW 4.0.6-e0-6349~53~ubuntu16.04.1) date Thu Apr 27 14:53:58 2017*
%MOMM*%
%LPD*%
G01*
G04 APERTURE LIST*
%ADD10C,0.100000*%
%ADD11C,1.998980*%
%ADD12C,1.600000*%
%ADD13O,1.600000X1.600000*%
%ADD14R,1.700000X1.700000*%
%ADD15O,1.700000X1.700000*%
%ADD16C,1.397000*%
%ADD17R,1.397000X1.397000*%
%ADD18R,1.600000X1.600000*%
%ADD19C,1.500000*%
%ADD20C,0.500000*%
%ADD21C,0.300000*%
G04 APERTURE END LIST*
D10*
D11*
X33098740Y23495000D03*
X43258740Y23495000D03*
D12*
X17780000Y45085000D03*
D13*
X17780000Y34925000D03*
D11*
X32385000Y58341260D03*
X32385000Y48181260D03*
X54610000Y58341260D03*
X54610000Y48181260D03*
X55323740Y23495000D03*
X65483740Y23495000D03*
D14*
X74930000Y52070000D03*
D15*
X74930000Y49530000D03*
X74930000Y46990000D03*
D14*
X13335000Y36830000D03*
D15*
X13335000Y39370000D03*
D14*
X13335000Y49530000D03*
D15*
X13335000Y52070000D03*
X13335000Y54610000D03*
D14*
X13335000Y31750000D03*
D15*
X13335000Y29210000D03*
D14*
X74930000Y33020000D03*
D15*
X74930000Y30480000D03*
D12*
X69215000Y58420000D03*
X69215000Y53420000D03*
X69215000Y43180000D03*
X69215000Y48180000D03*
X60325000Y53340000D03*
X60325000Y58340000D03*
X60325000Y43180000D03*
X60325000Y48180000D03*
X22225000Y31750000D03*
X17225000Y31750000D03*
X27305000Y36830000D03*
X32305000Y36830000D03*
X40640000Y30480000D03*
X35640000Y30480000D03*
X40640000Y33020000D03*
X35640000Y33020000D03*
X49530000Y36830000D03*
X54530000Y36830000D03*
X62865000Y30480000D03*
X57865000Y30480000D03*
X62865000Y33020000D03*
X57865000Y33020000D03*
D16*
X65405000Y53340000D03*
D17*
X65405000Y55880000D03*
D16*
X65405000Y58420000D03*
X64115000Y45720000D03*
D17*
X64115000Y48220000D03*
D16*
X64135000Y43180000D03*
D18*
X18415000Y27305000D03*
D12*
X20915000Y27305000D03*
D18*
X36830000Y37465000D03*
D12*
X39330000Y37465000D03*
X20955000Y53975000D03*
X20955000Y48975000D03*
X27305000Y53975000D03*
X27305000Y48975000D03*
X20955000Y41910000D03*
X20955000Y36910000D03*
D18*
X59055000Y37465000D03*
D12*
X61555000Y37465000D03*
X43180000Y27305000D03*
D13*
X33020000Y27305000D03*
D12*
X65405000Y27305000D03*
D13*
X55245000Y27305000D03*
D12*
X17780000Y59055000D03*
D13*
X17780000Y48895000D03*
D12*
X24130000Y59055000D03*
D13*
X24130000Y48895000D03*
D19*
X32385000Y39370000D03*
X32385000Y45720000D03*
X54610000Y39370000D03*
X54610000Y45720000D03*
X24765000Y45720000D03*
X24765000Y39370000D03*
X44450000Y36195000D03*
X44450000Y50165000D03*
X41910000Y35560000D03*
X41910000Y43180000D03*
D20*
X32385000Y45720000D02*
X32385000Y39370000D01*
X54610000Y45720000D02*
X54610000Y39370000D01*
D21*
X24765000Y39370000D02*
X24765000Y45720000D01*
X44450000Y50165000D02*
X44450000Y36195000D01*
X41910000Y43180000D02*
X41910000Y35560000D01*
M02*
