M48
;DRILL file {KiCad 4.0.6-e0-6349~53~ubuntu16.04.1} date Thu Apr 27 14:54:02 2017
;FORMAT={3:3/ absolute / metric / suppress leading zeros}
FMAT,2
METRIC,TZ
T1C0.800
T2C0.813
T3C1.000
T4C1.001
%
G90
G05
M71
T1
X17225Y31750
X17780Y59055
X17780Y48895
X17780Y45085
X17780Y34925
X18415Y27305
X20915Y27305
X20955Y53975
X20955Y48975
X20955Y41910
X20955Y36910
X22225Y31750
X24130Y59055
X24130Y48895
X24765Y45720
X24765Y39370
X27305Y53975
X27305Y48975
X27305Y36830
X32305Y36830
X32385Y45720
X32385Y39370
X33020Y27305
X35640Y33020
X35640Y30480
X36830Y37465
X39330Y37465
X40640Y33020
X40640Y30480
X41910Y43180
X41910Y35560
X43180Y27305
X44450Y50165
X44450Y36195
X49530Y36830
X54530Y36830
X54610Y45720
X54610Y39370
X55245Y27305
X57865Y33020
X57865Y30480
X59055Y37465
X60325Y58340
X60325Y53340
X60325Y48180
X60325Y43180
X61555Y37465
X62865Y33020
X62865Y30480
X65405Y27305
X69215Y58420
X69215Y53420
X69215Y48180
X69215Y43180
T2
X64115Y48220
X64115Y45720
X64135Y43180
X65405Y58420
X65405Y55880
X65405Y53340
T3
X13335Y54610
X13335Y52070
X13335Y49530
X13335Y39370
X13335Y36830
X13335Y31750
X13335Y29210
X33099Y23495
X43259Y23495
X55324Y23495
X65484Y23495
X74930Y52070
X74930Y49530
X74930Y46990
X74930Y33020
X74930Y30480
T4
X32385Y58341
X32385Y48181
X54610Y58341
X54610Y48181
T0
M30
