M48
;DRILL file {KiCad 4.0.6-e0-6349~53~ubuntu16.04.1} date Wed May 10 18:42:26 2017
;FORMAT={3:3/ absolute / metric / suppress leading zeros}
FMAT,2
METRIC,TZ
T1C0.800
T2C1.000
T3C1.001
T4C1.016
T5C1.100
%
G90
G05
M71
T1
X12700Y61047
X12700Y58547
X12700Y49657
X12700Y22987
X16510Y64262
X16510Y53467
X25400Y62357
X25400Y57357
X36195Y42037
X36195Y37592
X42545Y35052
X42545Y22987
X48260Y33147
X50800Y19177
X50800Y16637
X50800Y14097
X50800Y11557
X50800Y9017
X51435Y65532
X51435Y59182
X51435Y37592
X52070Y25527
X57070Y25527
X57150Y42037
X58420Y19177
X58420Y16637
X58420Y14097
X58420Y11557
X58420Y9017
X62230Y33147
X64135Y59817
X64770Y29972
X64770Y27432
X64770Y24892
X73660Y16002
X73660Y12192
X73660Y8382
X78740Y59817
X81280Y16002
X81280Y12192
X81280Y8382
X86360Y54737
X93980Y54737
T2
X6350Y61087
X6350Y58547
X6350Y49657
X6350Y47117
X6350Y44577
X6350Y42037
X6350Y35687
X6350Y33147
X6350Y30607
X6350Y28067
X6350Y25527
X6350Y15367
X6350Y12827
X8890Y35687
X8890Y33147
X8890Y30607
X8890Y28067
X8890Y25527
X16510Y45847
X16510Y43307
X16510Y40767
X16510Y38227
X16510Y35687
X16510Y33147
X16510Y30607
X16510Y28067
X16510Y25527
X16510Y22987
X16510Y20447
X16510Y17907
X16510Y15367
X16510Y12827
X16510Y10287
X16510Y7747
X16510Y5207
X31750Y45847
X31750Y43307
X31750Y40767
X31750Y38227
X31750Y35687
X31750Y33147
X31750Y30607
X31750Y28067
X31750Y25527
X31750Y22987
X31750Y20447
X31750Y17907
X31750Y15367
X31750Y12827
X31750Y10287
X31750Y7747
X31750Y5207
X36830Y22987
X36830Y16637
X39370Y22987
X39370Y16637
X44196Y62357
X44196Y59817
X44196Y57277
X44196Y54737
X44196Y52197
X44196Y49657
X44196Y47117
X46736Y62357
X46736Y59817
X46736Y57277
X46736Y54737
X46736Y52197
X46736Y49657
X46736Y47117
X58420Y2667
X60960Y2667
X66675Y2667
X69215Y2667
X74930Y2667
X77470Y2667
X80010Y2667
X82296Y62357
X82296Y59817
X82296Y57277
X82296Y54737
X82296Y52197
X82296Y49657
X82296Y47117
X97790Y54737
X97790Y52197
X97790Y47117
X97790Y44577
X97790Y33147
X97790Y30607
X97790Y24892
X97790Y22352
T3
X20320Y62357
X20320Y59817
X20320Y57277
T4
X74930Y29972
X74930Y24892
X77470Y29972
X77470Y24892
X85090Y29972
X85090Y24892
T5
X69850Y31242
X69850Y23622
T0
M30
